<svg
        xmlns:dc="http://purl.org/dc/elements/1.1/"
        xmlns:cc="http://creativecommons.org/ns#"
        xmlns:rdf="http://www.w3.org/1999/02/22-rdf-syntax-ns#"
        xmlns="http://www.w3.org/2000/svg"
        version="1.1"
        id="svg2"
        xml:space="preserve"
        width="1062.6188"
        height="291.53827"
        viewBox="0 0 1062.6188 291.53828"><metadata
     id="metadata8"><rdf:RDF><cc:Work
         rdf:about=""><dc:format>image/svg+xml</dc:format><dc:type
        rdf:resource="http://purl.org/dc/dcmitype/StillImage" /><dc:title></dc:title></cc:Work></rdf:RDF></metadata><defs
        id="defs6"><clipPath
       clipPathUnits="userSpaceOnUse"
       id="clipPath18"><path
         d="M 0,1000 H 1000 V 0 H 0 Z"
         id="path16" /></clipPath><clipPath
        clipPathUnits="userSpaceOnUse"
        id="clipPath106"><path
         d="m 151.461,588.488 44.319,-73.603 89.638,56.796 -8.798,13.885 -75.43,-47.79 -35.643,59.196 z"
         id="path104" /></clipPath><linearGradient
        x1="0"
        y1="0"
        x2="1"
        y2="0"
        gradientUnits="userSpaceOnUse"
        gradientTransform="matrix(165.08311,-225.11334,-225.11334,-165.08311,166.9617,644.6413)"
        spreadMethod="pad"
        id="linearGradient132"><stop
         style="stop-opacity:1;stop-color:#461f19"
         offset="0"
         id="stop112" /><stop
        style="stop-opacity:1;stop-color:#461f19"
        offset="0.005618"
        id="stop114" /><stop
        style="stop-opacity:1;stop-color:#6f4a28"
        offset="0.08427"
        id="stop116" /><stop
        style="stop-opacity:1;stop-color:#b09354"
        offset="0.382022"
        id="stop118" /><stop
        style="stop-opacity:1;stop-color:#e9dabc"
        offset="0.561798"
        id="stop120" /><stop
        style="stop-opacity:1;stop-color:#e9dabc"
        offset="0.56883866"
        id="stop122" /><stop
        style="stop-opacity:1;stop-color:#a1815d"
        offset="0.803371"
        id="stop124" /><stop
        style="stop-opacity:1;stop-color:#a1815d"
        offset="0.80779187"
        id="stop126" /><stop
        style="stop-opacity:1;stop-color:#8a552f"
        offset="0.955056"
        id="stop128" /><stop
        style="stop-opacity:1;stop-color:#8a552f"
        offset="1"
        id="stop130" /></linearGradient><clipPath
        clipPathUnits="userSpaceOnUse"
        id="clipPath142"><path
         d="m 197.906,580.725 c -1.719,-7.368 2.862,-14.735 10.231,-16.454 v 0 c 7.368,-1.719 14.734,2.862 16.453,10.23 v 0 c 1.719,7.369 -2.861,14.735 -10.23,16.454 v 0 c -1.046,0.244 -2.093,0.361 -3.123,0.361 v 0 c -6.223,0 -11.856,-4.269 -13.331,-10.591"
         id="path140" /></clipPath><linearGradient
        x1="0"
        y1="0"
        x2="1"
        y2="0"
        gradientUnits="userSpaceOnUse"
        gradientTransform="matrix(165.08311,-225.11334,-225.11334,-165.08311,163.79662,642.32025)"
        spreadMethod="pad"
        id="linearGradient168"><stop
         style="stop-opacity:1;stop-color:#461f19"
         offset="0"
         id="stop148" /><stop
        style="stop-opacity:1;stop-color:#461f19"
        offset="0.005618"
        id="stop150" /><stop
        style="stop-opacity:1;stop-color:#6f4a28"
        offset="0.08427"
        id="stop152" /><stop
        style="stop-opacity:1;stop-color:#b09354"
        offset="0.382022"
        id="stop154" /><stop
        style="stop-opacity:1;stop-color:#e9dabc"
        offset="0.561798"
        id="stop156" /><stop
        style="stop-opacity:1;stop-color:#e9dabc"
        offset="0.56883866"
        id="stop158" /><stop
        style="stop-opacity:1;stop-color:#a1815d"
        offset="0.803371"
        id="stop160" /><stop
        style="stop-opacity:1;stop-color:#a1815d"
        offset="0.80779187"
        id="stop162" /><stop
        style="stop-opacity:1;stop-color:#8a552f"
        offset="0.955056"
        id="stop164" /><stop
        style="stop-opacity:1;stop-color:#8a552f"
        offset="1"
        id="stop166" /></linearGradient><clipPath
        clipPathUnits="userSpaceOnUse"
        id="clipPath178"><path
         d="m 112.919,588.097 47.795,-75.431 -59.196,-35.643 8.483,-14.086 73.603,44.319 -56.799,89.638 z"
         id="path176" /></clipPath><linearGradient
        x1="0"
        y1="0"
        x2="1"
        y2="0"
        gradientUnits="userSpaceOnUse"
        gradientTransform="matrix(165.08311,-225.11334,-225.11334,-165.08311,80.674499,581.36401)"
        spreadMethod="pad"
        id="linearGradient204"><stop
         style="stop-opacity:1;stop-color:#461f19"
         offset="0"
         id="stop184" /><stop
        style="stop-opacity:1;stop-color:#461f19"
        offset="0.005618"
        id="stop186" /><stop
        style="stop-opacity:1;stop-color:#6f4a28"
        offset="0.08427"
        id="stop188" /><stop
        style="stop-opacity:1;stop-color:#b09354"
        offset="0.382022"
        id="stop190" /><stop
        style="stop-opacity:1;stop-color:#e9dabc"
        offset="0.561798"
        id="stop192" /><stop
        style="stop-opacity:1;stop-color:#e9dabc"
        offset="0.56883866"
        id="stop194" /><stop
        style="stop-opacity:1;stop-color:#a1815d"
        offset="0.803371"
        id="stop196" /><stop
        style="stop-opacity:1;stop-color:#a1815d"
        offset="0.80779187"
        id="stop198" /><stop
        style="stop-opacity:1;stop-color:#8a552f"
        offset="0.955056"
        id="stop200" /><stop
        style="stop-opacity:1;stop-color:#8a552f"
        offset="1"
        id="stop202" /></linearGradient><clipPath
        clipPathUnits="userSpaceOnUse"
        id="clipPath214"><path
         d="m 107.532,525.839 c -1.719,-7.37 2.861,-14.736 10.23,-16.454 v 0 c 7.369,-1.719 14.735,2.861 16.453,10.23 v 0 c 1.719,7.368 -2.861,14.735 -10.229,16.453 v 0 c -1.047,0.244 -2.094,0.361 -3.125,0.361 v 0 c -6.223,0 -11.855,-4.269 -13.329,-10.59"
         id="path212" /></clipPath><linearGradient
        x1="0"
        y1="0"
        x2="1"
        y2="0"
        gradientUnits="userSpaceOnUse"
        gradientTransform="matrix(165.08311,-225.11334,-225.11334,-165.08311,78.85247,580.02789)"
        spreadMethod="pad"
        id="linearGradient240"><stop
         style="stop-opacity:1;stop-color:#461f19"
         offset="0"
         id="stop220" /><stop
        style="stop-opacity:1;stop-color:#461f19"
        offset="0.005618"
        id="stop222" /><stop
        style="stop-opacity:1;stop-color:#6f4a28"
        offset="0.08427"
        id="stop224" /><stop
        style="stop-opacity:1;stop-color:#b09354"
        offset="0.382022"
        id="stop226" /><stop
        style="stop-opacity:1;stop-color:#e9dabc"
        offset="0.561798"
        id="stop228" /><stop
        style="stop-opacity:1;stop-color:#e9dabc"
        offset="0.56883866"
        id="stop230" /><stop
        style="stop-opacity:1;stop-color:#a1815d"
        offset="0.803371"
        id="stop232" /><stop
        style="stop-opacity:1;stop-color:#a1815d"
        offset="0.80779187"
        id="stop234" /><stop
        style="stop-opacity:1;stop-color:#8a552f"
        offset="0.955056"
        id="stop236" /><stop
        style="stop-opacity:1;stop-color:#8a552f"
        offset="1"
        id="stop238" /></linearGradient><clipPath
        clipPathUnits="userSpaceOnUse"
        id="clipPath250"><path
         d="m 101.591,438.286 8.798,-13.886 75.431,47.789 35.642,-59.194 14.087,8.483 -44.319,73.602 z"
         id="path248" /></clipPath><linearGradient
        x1="0"
        y1="0"
        x2="1"
        y2="0"
        gradientUnits="userSpaceOnUse"
        gradientTransform="matrix(165.08311,-225.11334,-225.11334,-165.08311,68.282783,572.27679)"
        spreadMethod="pad"
        id="linearGradient276"><stop
         style="stop-opacity:1;stop-color:#461f19"
         offset="0"
         id="stop256" /><stop
        style="stop-opacity:1;stop-color:#461f19"
        offset="0.005618"
        id="stop258" /><stop
        style="stop-opacity:1;stop-color:#6f4a28"
        offset="0.08427"
        id="stop260" /><stop
        style="stop-opacity:1;stop-color:#b09354"
        offset="0.382022"
        id="stop262" /><stop
        style="stop-opacity:1;stop-color:#e9dabc"
        offset="0.561798"
        id="stop264" /><stop
        style="stop-opacity:1;stop-color:#e9dabc"
        offset="0.56883866"
        id="stop266" /><stop
        style="stop-opacity:1;stop-color:#a1815d"
        offset="0.803371"
        id="stop268" /><stop
        style="stop-opacity:1;stop-color:#a1815d"
        offset="0.80779187"
        id="stop270" /><stop
        style="stop-opacity:1;stop-color:#8a552f"
        offset="0.955056"
        id="stop272" /><stop
        style="stop-opacity:1;stop-color:#8a552f"
        offset="1"
        id="stop274" /></linearGradient><clipPath
        clipPathUnits="userSpaceOnUse"
        id="clipPath286"><path
         d="m 162.419,435.463 c -1.72,-7.368 2.861,-14.735 10.23,-16.453 v 0 c 7.368,-1.719 14.735,2.861 16.454,10.23 v 0 c 1.718,7.369 -2.862,14.734 -10.231,16.453 v 0 c -1.047,0.245 -2.093,0.362 -3.124,0.362 v 0 c -6.223,-0.001 -11.855,-4.27 -13.329,-10.592"
         id="path284" /></clipPath><linearGradient
        x1="0"
        y1="0"
        x2="1"
        y2="0"
        gradientUnits="userSpaceOnUse"
        gradientTransform="matrix(165.08311,-225.11334,-225.11334,-165.08311,71.446999,574.59723)"
        spreadMethod="pad"
        id="linearGradient312"><stop
         style="stop-opacity:1;stop-color:#461f19"
         offset="0"
         id="stop292" /><stop
        style="stop-opacity:1;stop-color:#461f19"
        offset="0.005618"
        id="stop294" /><stop
        style="stop-opacity:1;stop-color:#6f4a28"
        offset="0.08427"
        id="stop296" /><stop
        style="stop-opacity:1;stop-color:#b09354"
        offset="0.382022"
        id="stop298" /><stop
        style="stop-opacity:1;stop-color:#e9dabc"
        offset="0.561798"
        id="stop300" /><stop
        style="stop-opacity:1;stop-color:#e9dabc"
        offset="0.56883866"
        id="stop302" /><stop
        style="stop-opacity:1;stop-color:#a1815d"
        offset="0.803371"
        id="stop304" /><stop
        style="stop-opacity:1;stop-color:#a1815d"
        offset="0.80779187"
        id="stop306" /><stop
        style="stop-opacity:1;stop-color:#8a552f"
        offset="0.955056"
        id="stop308" /><stop
        style="stop-opacity:1;stop-color:#8a552f"
        offset="1"
        id="stop310" /></linearGradient><clipPath
        clipPathUnits="userSpaceOnUse"
        id="clipPath322"><path
         d="m 203.405,502.709 56.798,-89.641 13.887,8.797 -47.794,75.435 59.196,35.639 -8.484,14.086 z"
         id="path320" /></clipPath><linearGradient
        x1="0"
        y1="0"
        x2="1"
        y2="0"
        gradientUnits="userSpaceOnUse"
        gradientTransform="matrix(165.08311,-225.11334,-225.11334,-165.08311,154.56839,635.55292)"
        spreadMethod="pad"
        id="linearGradient348"><stop
         style="stop-opacity:1;stop-color:#461f19"
         offset="0"
         id="stop328" /><stop
        style="stop-opacity:1;stop-color:#461f19"
        offset="0.005618"
        id="stop330" /><stop
        style="stop-opacity:1;stop-color:#6f4a28"
        offset="0.08427"
        id="stop332" /><stop
        style="stop-opacity:1;stop-color:#b09354"
        offset="0.382022"
        id="stop334" /><stop
        style="stop-opacity:1;stop-color:#e9dabc"
        offset="0.561798"
        id="stop336" /><stop
        style="stop-opacity:1;stop-color:#e9dabc"
        offset="0.56883866"
        id="stop338" /><stop
        style="stop-opacity:1;stop-color:#a1815d"
        offset="0.803371"
        id="stop340" /><stop
        style="stop-opacity:1;stop-color:#a1815d"
        offset="0.80779187"
        id="stop342" /><stop
        style="stop-opacity:1;stop-color:#8a552f"
        offset="0.955056"
        id="stop344" /><stop
        style="stop-opacity:1;stop-color:#8a552f"
        offset="1"
        id="stop346" /></linearGradient><clipPath
        clipPathUnits="userSpaceOnUse"
        id="clipPath358"><path
         d="m 252.794,490.35 c -1.719,-7.369 2.861,-14.734 10.229,-16.453 v 0 c 7.369,-1.719 14.736,2.861 16.454,10.229 v 0 c 1.719,7.369 -2.861,14.736 -10.229,16.454 v 0 c -1.047,0.244 -2.094,0.361 -3.125,0.361 v 0 c -6.224,0 -11.855,-4.269 -13.329,-10.591"
         id="path356" /></clipPath><linearGradient
        x1="0"
        y1="0"
        x2="1"
        y2="0"
        gradientUnits="userSpaceOnUse"
        gradientTransform="matrix(165.08311,-225.11334,-225.11334,-165.08311,156.39116,636.88959)"
        spreadMethod="pad"
        id="linearGradient384"><stop
         style="stop-opacity:1;stop-color:#461f19"
         offset="0"
         id="stop364" /><stop
        style="stop-opacity:1;stop-color:#461f19"
        offset="0.005618"
        id="stop366" /><stop
        style="stop-opacity:1;stop-color:#6f4a28"
        offset="0.08427"
        id="stop368" /><stop
        style="stop-opacity:1;stop-color:#b09354"
        offset="0.382022"
        id="stop370" /><stop
        style="stop-opacity:1;stop-color:#e9dabc"
        offset="0.561798"
        id="stop372" /><stop
        style="stop-opacity:1;stop-color:#e9dabc"
        offset="0.56883866"
        id="stop374" /><stop
        style="stop-opacity:1;stop-color:#a1815d"
        offset="0.803371"
        id="stop376" /><stop
        style="stop-opacity:1;stop-color:#a1815d"
        offset="0.80779187"
        id="stop378" /><stop
        style="stop-opacity:1;stop-color:#8a552f"
        offset="0.955056"
        id="stop380" /><stop
        style="stop-opacity:1;stop-color:#8a552f"
        offset="1"
        id="stop382" /></linearGradient></defs><g
        id="g12"
        transform="matrix(1.3333333,0,0,-1.3333333,-135.35733,812.43638)"
        style="fill:#634e42;fill-opacity:1"><g
       id="g14"
       clip-path="url(#clipPath18)"
       style="fill:#634e42;fill-opacity:1"><g
         id="g20"
         transform="translate(398.4255,450.3108)"
         style="fill:#634e42;fill-opacity:1"><path
           d="m 0,0 h 6.78 c 2.386,0 5.775,0.377 8.411,3.265 2.637,2.887 2.386,5.901 2.386,9.04 v 5.775 c 0,3.013 0.126,7.282 -3.389,10.17 -2.888,2.386 -6.404,2.26 -9.793,2.26 L 0,30.51 Z M -12.555,41.81 H 6.152 c 5.399,0 12.053,-0.251 17.577,-5.776 5.776,-5.901 6.404,-13.559 6.404,-20.089 v -2.51 C 30.133,8.538 29.63,1.256 24.734,-4.395 19.586,-10.295 12.806,-11.3 7.407,-11.3 H 0 v -34.778 h -12.555 z"
           style="fill:#634e42;fill-opacity:1;fill-rule:nonzero;stroke:none"
           id="path22" /></g><g
        id="g24"
        transform="translate(443.7541,492.1204)"
        style="fill:#634e42;fill-opacity:1"><path
           d="m 0,0 12.053,-43.064 h 0.377 c 0.754,4.77 2.134,12.806 3.265,17.954 L 21.219,0 H 34.151 L 19.209,-60.015 c -2.51,-9.793 -4.142,-20.966 -11.55,-25.487 -3.766,-2.261 -7.533,-2.386 -10.798,-2.386 h -4.519 v 11.928 h 3.138 c 2.512,0 4.646,0.879 5.775,2.135 1.005,1.005 2.136,3.64 2.512,5.273 L 5.399,-61.145 -14.313,0 Z"
           style="fill:#634e42;fill-opacity:1;fill-rule:nonzero;stroke:none"
           id="path26" /></g><g
        id="g28"
        transform="translate(494.2278,492.1204)"
        style="fill:#634e42;fill-opacity:1"><path
           d="M 0,0 10.044,-27.622 20.213,0 H 34.025 L 17.076,-41.433 35.783,-87.888 H 22.474 l -12.43,31.765 -11.551,-31.765 h -13.81 L 3.139,-41.433 -13.309,0 Z"
           style="fill:#634e42;fill-opacity:1;fill-rule:nonzero;stroke:none"
           id="path30" /></g><g
        id="g32"
        transform="translate(596.8083,467.135)"
        style="fill:#634e42;fill-opacity:1"><path
           d="m 0,0 v 5.273 c 0,5.023 -3.014,8.664 -8.161,8.664 -4.897,0 -8.663,-2.763 -8.663,-7.157 v -18.205 h 15.568 v -11.3 h -15.568 v -19.713 c 0,-2.887 -0.502,-9.416 8.286,-9.416 5.399,0 8.538,2.512 8.538,8.288 v 5.021 h 12.555 v -8.161 c 0,-7.658 -4.646,-17.452 -20.339,-17.452 -20.717,0 -21.596,14.439 -21.596,22.222 V 7.91 c 0,13.434 11.049,18.331 21.345,18.331 10.546,0 20.59,-5.901 20.59,-18.331 V 0 Z"
           style="fill:#634e42;fill-opacity:1;fill-rule:nonzero;stroke:none"
           id="path34" /></g><g
        id="g36"
        transform="translate(639.2458,480.8206)"
        style="fill:#634e42;fill-opacity:1"><path
           d="m 0,0 v -6.905 c 0,-21.344 -1.381,-33.523 -2.762,-41.308 -1.004,-6.025 -2.385,-11.3 -5.273,-17.702 H 9.793 V 0 Z M 29.505,-65.288 V -90.147 H 17.578 v 13.559 h -32.393 v -13.559 h -11.928 v 24.859 h 5.901 c 2.763,6.152 5.023,12.933 6.404,20.968 2.133,12.053 2.636,33.899 2.636,49.216 V 11.3 h 34.151 v -76.588 z"
           style="fill:#634e42;fill-opacity:1;fill-rule:nonzero;stroke:none"
           id="path38" /></g><g
        id="g40"
        transform="translate(689.4714,492.1204)"
        style="fill:#634e42;fill-opacity:1"><path
           d="M 0,0 V -37.791 H 16.948 V 0 H 29.504 V -87.888 H 16.948 v 38.796 H 0 V -87.888 H -12.556 V 0 Z"
           style="fill:#634e42;fill-opacity:1;fill-rule:nonzero;stroke:none"
           id="path42" /></g><g
        id="g44"
        transform="translate(764.1774,470.9016)"
        style="fill:#634e42;fill-opacity:1"><path
           d="m 0,0 c 0,2.637 -0.252,5.273 -2.638,7.659 -1.381,1.381 -3.641,2.511 -6.779,2.511 -3.14,0 -5.399,-1.13 -6.781,-2.511 C -18.583,5.273 -18.834,2.637 -18.834,0 v -45.45 c 0,-2.637 0.251,-5.273 2.636,-7.658 1.382,-1.381 3.641,-2.512 6.781,-2.512 3.138,0 5.398,1.131 6.779,2.512 2.386,2.385 2.638,5.021 2.638,7.658 z m -31.39,-1.883 c 0,6.654 0.502,13.057 6.53,18.707 3.766,3.516 8.914,5.651 15.443,5.651 6.529,0 11.676,-2.135 15.442,-5.651 6.027,-5.65 6.529,-12.053 6.529,-18.707 v -41.683 c 0,-6.655 -0.502,-13.059 -6.529,-18.708 -3.766,-3.515 -8.913,-5.651 -15.442,-5.651 -6.529,0 -11.677,2.136 -15.443,5.651 -6.028,5.649 -6.53,12.053 -6.53,18.708 z"
           style="fill:#634e42;fill-opacity:1;fill-rule:nonzero;stroke:none"
           id="path46" /></g><g
        id="g48"
        transform="translate(818.6686,472.1575)"
        style="fill:#634e42;fill-opacity:1"><path
           d="m 0,0 c 0,1.758 -0.502,4.144 -1.632,5.775 -0.627,0.879 -2.511,3.139 -6.529,3.139 -3.264,0 -5.273,-1.381 -6.528,-2.888 -2.009,-2.51 -2.134,-5.649 -2.134,-8.663 v -43.315 c 0,-2.889 0,-5.525 1.631,-7.785 0.879,-1.256 2.887,-3.139 6.404,-3.139 2.763,0 5.525,1.006 7.031,3.014 0.627,0.879 1.757,2.887 1.757,7.156 v 3.139 h 12.556 v -3.641 c 0,-8.662 -3.013,-13.686 -5.273,-16.07 -2.637,-2.888 -7.785,-5.903 -16.448,-5.903 -8.285,0 -13.058,3.392 -15.819,6.655 -4.521,5.274 -4.396,11.299 -4.396,15.82 V -1.13 c 0,5.776 0.754,12.305 6.404,17.2 3.892,3.516 9.667,5.149 14.313,5.149 5.273,0 11.426,-2.009 15.192,-5.651 3.139,-3.138 5.65,-8.411 5.65,-14.563 V -5.022 H 0 Z"
           style="fill:#634e42;fill-opacity:1;fill-rule:nonzero;stroke:none"
           id="path50" /></g><g
        id="g52"
        transform="translate(877.8073,492.1204)"
        style="fill:#634e42;fill-opacity:1"><path
           d="m 0,0 v -11.928 h -15.569 v -75.96 h -12.554 v 75.96 H -43.692 V 0 Z"
           style="fill:#634e42;fill-opacity:1;fill-rule:nonzero;stroke:none"
           id="path54" /></g><path
        d="m 898.275,404.233 h -12.556 v 87.888 h 12.556 z"
        style="fill:#634e42;fill-opacity:1;fill-rule:nonzero;stroke:none"
        id="path56" /><g
        id="g58"
        transform="translate(384.5412,591.9407)"
        style="fill:#634e42;fill-opacity:1"><path
           d="m 0,0 h 10.349 l 14.282,-39.947 h 0.414 L 38.602,0 H 48.951 V -72.442 H 38.602 v 45.328 H 38.084 L 27.218,-59.817 H 21.733 L 10.867,-27.114 H 10.349 V -72.442 H 0 Z"
           style="fill:#634e42;fill-opacity:1;fill-rule:nonzero;stroke:none"
           id="path60" /></g><path
        d="m 456.261,519.498 h -10.349 v 72.442 h 10.349 z"
        style="fill:#634e42;fill-opacity:1;fill-rule:nonzero;stroke:none"
        id="path62" /><g
        id="g64"
        transform="translate(505.3142,560.8939)"
        style="fill:#634e42;fill-opacity:1"><path
           d="m 0,0 c 1.449,0 2.795,0.621 3.83,2.174 1.345,1.862 1.759,4.449 2.276,9.521 l 0.725,6.519 c 0.414,3.933 1.035,8.279 4.14,10.971 3.001,2.586 6.933,2.69 9.624,2.69 h 1.862 v -9.314 h -1.655 c -0.828,0 -1.967,-0.518 -2.691,-1.139 -1.138,-1.035 -1.552,-3.001 -2.07,-7.658 L 15.316,6.83 C 15.007,4.036 14.8,1.449 13.868,-0.931 13.247,-2.38 12.626,-3.208 11.592,-3.932 L 22.353,-41.396 H 11.074 L 2.277,-8.9 H -3.829 V -41.396 H -14.178 V -8.9 h -6.106 l -8.796,-32.496 h -11.28 l 10.762,37.464 c -1.035,0.724 -1.655,1.552 -2.276,3.001 -0.932,2.38 -1.139,4.967 -1.449,7.761 l -0.725,6.934 c -0.517,4.657 -0.931,6.623 -2.069,7.658 -0.725,0.621 -1.862,1.139 -2.691,1.139 h -1.656 v 9.314 h 1.863 c 2.691,0 6.623,-0.104 9.624,-2.69 3.105,-2.692 3.727,-7.038 4.141,-10.971 l 0.723,-6.519 c 0.518,-5.072 0.932,-7.659 2.278,-9.521 C -20.801,0.621 -19.456,0 -18.006,0 h 3.828 V 31.047 H -3.829 V 0 Z"
           style="fill:#634e42;fill-opacity:1;fill-rule:nonzero;stroke:none"
           id="path66" /></g><g
        id="g68"
        transform="translate(546.7126,591.9407)"
        style="fill:#634e42;fill-opacity:1"><path
           d="M 0,0 V -31.15 H 13.972 V 0 H 24.32 V -72.442 H 13.972 v 31.978 H 0 V -72.442 H -10.349 V 0 Z"
           style="fill:#634e42;fill-opacity:1;fill-rule:nonzero;stroke:none"
           id="path70" /></g><g
        id="g72"
        transform="translate(598.4587,571.7606)"
        style="fill:#634e42;fill-opacity:1"><path
           d="M 0,0 -5.382,-27.528 H 5.589 Z M 10.246,-52.262 6.831,-36.739 H -6.416 l -3.415,-15.523 h -10.35 L -4.347,20.18 h 9.108 l 15.833,-72.442 z"
           style="fill:#634e42;fill-opacity:1;fill-rule:nonzero;stroke:none"
           id="path74" /></g><g
        id="g76"
        transform="translate(636.3376,557.4793)"
        style="fill:#634e42;fill-opacity:1"><path
           d="m 0,0 h 5.588 c 1.967,0 4.761,0.31 6.933,2.69 2.174,2.381 1.967,4.864 1.967,7.451 v 4.761 c 0,2.484 0.104,6.002 -2.795,8.382 -2.38,1.967 -5.277,1.863 -8.071,1.863 H 0 Z M -10.35,34.461 H 5.07 c 4.451,0 9.935,-0.207 14.489,-4.759 4.761,-4.865 5.279,-11.178 5.279,-16.559 v -2.07 C 24.838,7.037 24.424,1.034 20.387,-3.622 16.144,-8.486 10.556,-9.314 6.105,-9.314 H 0 v -28.667 h -10.35 z"
           style="fill:#634e42;fill-opacity:1;fill-rule:nonzero;stroke:none"
           id="path78" /></g><g
        id="g80"
        transform="translate(695.3278,574.451)"
        style="fill:#634e42;fill-opacity:1"><path
           d="m 0,0 c 0,2.174 -0.207,4.347 -2.173,6.312 -1.139,1.139 -3.001,2.071 -5.589,2.071 -2.588,0 -4.449,-0.932 -5.588,-2.071 C -15.316,4.347 -15.523,2.174 -15.523,0 v -37.463 c 0,-2.173 0.207,-4.347 2.173,-6.312 1.139,-1.139 3,-2.071 5.588,-2.071 2.588,0 4.45,0.932 5.589,2.071 1.966,1.965 2.173,4.139 2.173,6.312 z m -25.872,-1.552 c 0,5.485 0.414,10.763 5.382,15.42 3.103,2.897 7.347,4.657 12.728,4.657 5.382,0 9.625,-1.76 12.73,-4.657 4.967,-4.657 5.381,-9.935 5.381,-15.42 v -34.359 c 0,-5.485 -0.414,-10.763 -5.381,-15.42 -3.105,-2.897 -7.348,-4.657 -12.73,-4.657 -5.381,0 -9.625,1.76 -12.728,4.657 -4.968,4.657 -5.382,9.935 -5.382,15.42 z"
           style="fill:#634e42;fill-opacity:1;fill-rule:nonzero;stroke:none"
           id="path82" /></g><g
        id="g84"
        transform="translate(732.3796,582.6268)"
        style="fill:#634e42;fill-opacity:1"><path
           d="m 0,0 v -5.691 c 0,-17.594 -1.139,-27.632 -2.277,-34.049 -0.828,-4.968 -1.967,-9.314 -4.346,-14.592 H 8.073 V 0 Z m 24.32,-53.814 v -20.492 h -9.831 v 11.178 h -26.7 v -11.178 h -9.832 v 20.492 h 4.863 c 2.278,5.071 4.141,10.659 5.28,17.282 1.757,9.935 2.171,27.943 2.171,40.569 v 5.277 h 28.15 v -63.128 z"
           style="fill:#634e42;fill-opacity:1;fill-rule:nonzero;stroke:none"
           id="path86" /></g><g
        id="g88"
        transform="translate(773.778,591.9407)"
        style="fill:#634e42;fill-opacity:1"><path
           d="M 0,0 V -31.15 H 13.97 V 0 H 24.319 V -72.442 H 13.97 v 31.978 H 0 V -72.442 H -10.351 V 0 Z"
           style="fill:#634e42;fill-opacity:1;fill-rule:nonzero;stroke:none"
           id="path90" /></g><g
        id="g92"
        transform="translate(820.8659,591.9407)"
        style="fill:#634e42;fill-opacity:1"><path
           d="M 0,0 V -44.5 L 17.074,-8.279 V 0 H 27.423 V -72.442 H 17.074 v 44.501 L 0,-64.164 v -8.278 H -10.351 V 0 Z"
           style="fill:#634e42;fill-opacity:1;fill-rule:nonzero;stroke:none"
           id="path94" /></g><g
        id="g96"
        transform="translate(892.2731,608.0853)"
        style="fill:#634e42;fill-opacity:1"><path
           d="m 0,0 c 0,-4.139 -1.552,-6.831 -3.104,-8.279 -2.071,-1.967 -5.485,-2.898 -9.522,-2.898 -4.035,0 -7.451,0.931 -9.52,2.898 -1.553,1.448 -3.106,4.14 -3.106,8.279 v 1.242 h 8.28 V 0.311 c 0,-0.829 0.104,-1.967 1.243,-2.898 0.931,-0.829 1.964,-0.932 3.103,-0.932 1.139,0 2.174,0.103 3.105,0.932 1.139,0.931 1.243,2.069 1.243,2.898 V 1.242 H 0 Z m -21.215,-16.145 v -44.5 l 17.075,36.222 v 8.278 H 6.209 V -88.587 H -4.14 v 44.501 l -17.075,-36.222 v -8.279 h -10.349 v 72.442 z"
           style="fill:#634e42;fill-opacity:1;fill-rule:nonzero;stroke:none"
           id="path98" /></g></g></g><g
        id="g100"
        transform="matrix(1.3333333,0,0,-1.3333333,-135.35733,812.43638)"><g
       id="g102"
       clip-path="url(#clipPath106)"><g
         id="g108"><g
           id="g110"><path
             d="m 151.461,588.488 44.319,-73.603 89.638,56.796 -8.798,13.885 -75.43,-47.79 -35.643,59.196 z"
             style="fill:url(#linearGradient132);stroke:none"
             id="path134" /></g></g></g></g><g
        id="g136"
        transform="matrix(1.3333333,0,0,-1.3333333,-135.35733,812.43638)"><g
       id="g138"
       clip-path="url(#clipPath142)"><g
         id="g144"><g
           id="g146"><path
             d="m 197.906,580.725 c -1.719,-7.368 2.862,-14.735 10.231,-16.454 v 0 c 7.368,-1.719 14.734,2.862 16.453,10.23 v 0 c 1.719,7.369 -2.861,14.735 -10.23,16.454 v 0 c -1.046,0.244 -2.093,0.361 -3.123,0.361 v 0 c -6.223,0 -11.856,-4.269 -13.331,-10.591"
             style="fill:url(#linearGradient168);stroke:none"
             id="path170" /></g></g></g></g><g
        id="g172"
        transform="matrix(1.3333333,0,0,-1.3333333,-135.35733,812.43638)"><g
       id="g174"
       clip-path="url(#clipPath178)"><g
         id="g180"><g
           id="g182"><path
             d="m 112.919,588.097 47.795,-75.431 -59.196,-35.643 8.483,-14.086 73.603,44.319 -56.799,89.638 z"
             style="fill:url(#linearGradient204);stroke:none"
             id="path206" /></g></g></g></g><g
        id="g208"
        transform="matrix(1.3333333,0,0,-1.3333333,-135.35733,812.43638)"><g
       id="g210"
       clip-path="url(#clipPath214)"><g
         id="g216"><g
           id="g218"><path
             d="m 107.532,525.839 c -1.719,-7.37 2.861,-14.736 10.23,-16.454 v 0 c 7.369,-1.719 14.735,2.861 16.453,10.23 v 0 c 1.719,7.368 -2.861,14.735 -10.229,16.453 v 0 c -1.047,0.244 -2.094,0.361 -3.125,0.361 v 0 c -6.223,0 -11.855,-4.269 -13.329,-10.59"
             style="fill:url(#linearGradient240);stroke:none"
             id="path242" /></g></g></g></g><g
        id="g244"
        transform="matrix(1.3333333,0,0,-1.3333333,-135.35733,812.43638)"><g
       id="g246"
       clip-path="url(#clipPath250)"><g
         id="g252"><g
           id="g254"><path
             d="m 101.591,438.286 8.798,-13.886 75.431,47.789 35.642,-59.194 14.087,8.483 -44.319,73.602 z"
             style="fill:url(#linearGradient276);stroke:none"
             id="path278" /></g></g></g></g><g
        id="g280"
        transform="matrix(1.3333333,0,0,-1.3333333,-135.35733,812.43638)"><g
       id="g282"
       clip-path="url(#clipPath286)"><g
         id="g288"><g
           id="g290"><path
             d="m 162.419,435.463 c -1.72,-7.368 2.861,-14.735 10.23,-16.453 v 0 c 7.368,-1.719 14.735,2.861 16.454,10.23 v 0 c 1.718,7.369 -2.862,14.734 -10.231,16.453 v 0 c -1.047,0.245 -2.093,0.362 -3.124,0.362 v 0 c -6.223,-0.001 -11.855,-4.27 -13.329,-10.592"
             style="fill:url(#linearGradient312);stroke:none"
             id="path314" /></g></g></g></g><g
        id="g316"
        transform="matrix(1.3333333,0,0,-1.3333333,-135.35733,812.43638)"><g
       id="g318"
       clip-path="url(#clipPath322)"><g
         id="g324"><g
           id="g326"><path
             d="m 203.405,502.709 56.798,-89.641 13.887,8.797 -47.794,75.435 59.196,35.639 -8.484,14.086 z"
             style="fill:url(#linearGradient348);stroke:none"
             id="path350" /></g></g></g></g><g
        id="g352"
        transform="matrix(1.3333333,0,0,-1.3333333,-135.35733,812.43638)"><g
       id="g354"
       clip-path="url(#clipPath358)"><g
         id="g360"><g
           id="g362"><path
             d="m 252.794,490.35 c -1.719,-7.369 2.861,-14.734 10.229,-16.453 v 0 c 7.369,-1.719 14.736,2.861 16.454,10.229 v 0 c 1.719,7.369 -2.861,14.736 -10.229,16.454 v 0 c -1.047,0.244 -2.094,0.361 -3.125,0.361 v 0 c -6.224,0 -11.855,-4.269 -13.329,-10.591"
             style="fill:url(#linearGradient384);stroke:none"
             id="path386" /></g></g></g></g></svg>
