<svg width="38" height="46" viewBox="0 0 38 46" fill="none" xmlns="http://www.w3.org/2000/svg">
<path d="M36.8688 27.7437L19.9938 44.6187C19.7302 44.8821 19.3727 45.03 19.0001 45.03C18.6274 45.03 18.27 44.8821 18.0063 44.6187L1.13133 27.7437C0.882928 27.4772 0.747697 27.1246 0.754125 26.7603C0.760553 26.396 0.908138 26.0484 1.16579 25.7907C1.42344 25.5331 1.77103 25.3855 2.13535 25.379C2.49966 25.3726 2.85225 25.5078 3.11883 25.7562L17.5938 40.2289V2.375C17.5938 2.00204 17.742 1.64435 18.0057 1.38063C18.2694 1.11691 18.6271 0.96875 19.0001 0.96875C19.373 0.96875 19.7307 1.11691 19.9944 1.38063C20.2582 1.64435 20.4063 2.00204 20.4063 2.375V40.2289L34.8813 25.7562C35.1479 25.5078 35.5005 25.3726 35.8648 25.379C36.2291 25.3855 36.5767 25.5331 36.8344 25.7907C37.092 26.0484 37.2396 26.396 37.246 26.7603C37.2525 27.1246 37.1172 27.4772 36.8688 27.7437Z" fill="white"/>
</svg>
