<svg width="46" height="38" viewBox="0 0 46 38" fill="none" xmlns="http://www.w3.org/2000/svg">
<path d="M27.7437 1.13117L44.6187 18.0062C44.8821 18.2698 45.03 18.6273 45.03 18.9999C45.03 19.3726 44.8821 19.73 44.6187 19.9937L27.7437 36.8687C27.4772 37.1171 27.1246 37.2523 26.7603 37.2459C26.396 37.2394 26.0484 37.0919 25.7907 36.8342C25.5331 36.5766 25.3855 36.229 25.379 35.8647C25.3726 35.5003 25.5078 35.1477 25.7562 34.8812L40.2289 20.4062L2.375 20.4062C2.00204 20.4062 1.64435 20.258 1.38063 19.9943C1.11691 19.7306 0.968749 19.3729 0.968749 18.9999C0.968749 18.627 1.11691 18.2693 1.38063 18.0056C1.64435 17.7418 2.00204 17.5937 2.375 17.5937L40.2289 17.5937L25.7562 3.11867C25.5078 2.85209 25.3726 2.4995 25.379 2.13519C25.3855 1.77088 25.5331 1.42328 25.7907 1.16563C26.0484 0.907981 26.396 0.760394 26.7603 0.753966C27.1246 0.747538 27.4772 0.882766 27.7437 1.13117Z" fill="white"/>
</svg>
