<svg width="16" height="16" viewBox="0 0 16 16" fill="none" xmlns="http://www.w3.org/2000/svg">
<path d="M15.1471 14.3524C15.2024 14.4039 15.2467 14.466 15.2775 14.535C15.3082 14.604 15.3248 14.6785 15.3261 14.754C15.3274 14.8295 15.3135 14.9045 15.2852 14.9746C15.2569 15.0446 15.2148 15.1082 15.1614 15.1617C15.108 15.2151 15.0444 15.2572 14.9743 15.2855C14.9043 15.3138 14.8293 15.3277 14.7537 15.3263C14.6782 15.325 14.6037 15.3085 14.5347 15.2777C14.4657 15.247 14.4036 15.2027 14.3521 15.1474L7.99964 8.79582L1.64714 15.1474C1.54051 15.2467 1.39947 15.3008 1.25375 15.2983C1.10802 15.2957 0.968984 15.2367 0.865924 15.1336C0.762864 15.0305 0.703831 14.8915 0.70126 14.7458C0.698688 14.6001 0.752781 14.459 0.852141 14.3524L7.2037 7.99988L0.852141 1.64739C0.752781 1.54075 0.698688 1.39972 0.70126 1.25399C0.703831 1.10827 0.762864 0.969228 0.865924 0.866168C0.968984 0.763109 1.10802 0.704075 1.25375 0.701504C1.39947 0.698932 1.54051 0.753025 1.64714 0.852385L7.99964 7.20395L14.3521 0.852385C14.4588 0.753025 14.5998 0.698932 14.7455 0.701504C14.8913 0.704075 15.0303 0.763109 15.1334 0.866168C15.2364 0.969228 15.2955 1.10827 15.298 1.25399C15.3006 1.39972 15.2465 1.54075 15.1471 1.64739L8.79558 7.99988L15.1471 14.3524Z" fill="#02344A"/>
</svg>
