<svg width="251" height="244" viewBox="0 0 251 244" fill="none" xmlns="http://www.w3.org/2000/svg">
<path d="M232.577 82.7594C232.02 83.3121 231.644 83.9691 231.458 84.7302C231.272 85.4913 231.3 86.2479 231.54 86.9955C235.25 98.3445 237.103 109.988 237.094 121.926C237.094 184.389 185.89 235.208 122.947 235.208C60.0042 235.208 8.81355 184.389 8.81355 121.926C8.81355 59.4634 60.0223 8.63971 122.961 8.63971C128.565 8.63518 134.142 9.0384 139.683 9.84936C145.228 10.6603 150.683 11.879 156.047 13.4919C161.411 15.1093 166.631 17.1118 171.7 19.4949C176.77 21.878 181.64 24.6235 186.307 27.7269C186.737 28.0168 187.208 28.2207 187.716 28.3385C188.223 28.4518 188.735 28.4744 189.247 28.4019C189.764 28.3249 190.248 28.1618 190.701 27.9081C191.159 27.6544 191.553 27.3282 191.884 26.925C192.07 26.6985 192.233 26.4538 192.369 26.1956C192.504 25.9328 192.613 25.661 192.69 25.3801C192.767 25.0946 192.817 24.8092 192.835 24.5147C192.853 24.2202 192.84 23.9303 192.794 23.6403C192.754 23.3504 192.677 23.065 192.577 22.7886C192.473 22.5168 192.341 22.254 192.183 22.0048C192.024 21.7602 191.843 21.5291 191.635 21.3207C191.431 21.1123 191.204 20.9265 190.96 20.7634C188.037 18.8334 185.038 17.0257 181.962 15.354C178.886 13.6777 175.746 12.1328 172.538 10.7238C169.331 9.31929 166.069 8.05074 162.752 6.9181C159.436 5.79 156.074 4.80234 152.676 3.95966C149.274 3.11698 145.844 2.41927 142.388 1.86654C138.926 1.31835 135.451 0.91513 131.954 0.66142C128.461 0.407709 124.963 0.303507 121.456 0.344282C117.954 0.389588 114.461 0.5844 110.973 0.924191C107.489 1.26851 104.023 1.75781 100.575 2.39662C97.132 3.03543 93.7205 3.81468 90.3407 4.74344C86.9654 5.67673 83.631 6.74594 80.3463 7.96013C77.0571 9.16978 73.8314 10.5244 70.66 12.0104C67.4886 13.501 64.3852 15.1184 61.3543 16.8717C58.3188 18.625 55.3694 20.5052 52.4971 22.5077C49.6247 24.5147 46.8429 26.6396 44.1518 28.8822C41.4607 31.1203 38.8692 33.4762 36.3819 35.9362C34.9639 37.3407 33.582 38.7769 32.2365 40.2493C30.8909 41.7172 29.5816 43.2214 28.313 44.7572C27.0399 46.2931 25.8076 47.8561 24.6116 49.4509C23.42 51.0501 22.2647 52.6721 21.1502 54.3257C20.0357 55.9794 18.9665 57.6602 17.9335 59.3637C16.9051 61.0717 15.9174 62.8024 14.9706 64.5557C14.0282 66.309 13.1266 68.085 12.2658 69.8881C11.4096 71.6868 10.5986 73.5035 9.82839 75.3429C9.06273 77.1823 8.34237 79.0398 7.66732 80.9155C6.99227 82.7911 6.36252 84.6804 5.77808 86.5877C5.19817 88.4906 4.66357 90.4115 4.17427 92.3415C3.68497 94.2761 3.25004 96.2197 2.85588 98.1723C2.46626 100.125 2.12193 102.091 1.82745 104.062C1.53296 106.033 1.28831 108.008 1.0935 109.993C0.894156 111.972 0.749179 113.961 0.649508 115.95C0.549837 117.939 0.5 119.933 0.5 121.926C0.5 123.919 0.549837 125.908 0.649508 127.902C0.749179 129.891 0.894156 131.875 1.0935 133.859C1.28831 135.844 1.53296 137.819 1.82745 139.79C2.12193 141.761 2.46626 143.722 2.85588 145.68C3.25004 147.632 3.68497 149.576 4.17427 151.506C4.66357 153.44 5.19817 155.361 5.77808 157.264C6.36252 159.172 6.99227 161.061 7.66732 162.936C8.34237 164.812 9.06273 166.67 9.82839 168.509C10.5986 170.348 11.4096 172.165 12.2658 173.964C13.1266 175.762 14.0282 177.543 14.9706 179.296C15.9174 181.05 16.9051 182.78 17.9335 184.488C18.9665 186.192 20.0357 187.873 21.1502 189.526C22.2647 191.18 23.42 192.802 24.6116 194.397C25.8076 195.996 27.0399 197.559 28.313 199.095C29.5816 200.631 30.8909 202.135 32.2365 203.603C33.582 205.075 34.9639 206.511 36.3819 207.911C37.8 209.32 39.2588 210.693 40.7448 212.029C42.2354 213.366 43.7531 214.666 45.3071 215.93C46.8611 217.19 48.4422 218.413 50.0551 219.6C51.668 220.787 53.308 221.929 54.9753 223.034C56.6425 224.14 58.3369 225.204 60.054 226.228C61.7756 227.252 63.5199 228.231 65.2868 229.168C67.0537 230.106 68.8433 230.999 70.6555 231.851C72.4677 232.702 74.298 233.504 76.151 234.265C77.9995 235.026 79.8706 235.742 81.7553 236.413C83.64 237.083 85.5429 237.709 87.4593 238.284C89.3757 238.864 91.3012 239.394 93.2448 239.874C95.1884 240.359 97.1411 240.794 99.1028 241.183C101.065 241.569 103.04 241.908 105.02 242.203C107 242.493 108.984 242.737 110.977 242.932C112.966 243.127 114.964 243.272 116.962 243.372C118.96 243.467 120.963 243.517 122.961 243.517C124.963 243.517 126.966 243.467 128.964 243.372C130.962 243.272 132.96 243.127 134.948 242.932C136.942 242.737 138.926 242.493 140.906 242.203C142.886 241.908 144.857 241.569 146.823 241.183C148.785 240.794 150.737 240.359 152.681 239.874C154.62 239.394 156.55 238.864 158.467 238.284C160.383 237.709 162.286 237.083 164.17 236.413C166.055 235.742 167.926 235.026 169.775 234.265C171.628 233.504 173.458 232.702 175.27 231.851C177.078 230.999 178.868 230.106 180.639 229.168C182.406 228.231 184.15 227.252 185.867 226.228C187.589 225.204 189.283 224.14 190.951 223.034C192.618 221.929 194.258 220.787 195.871 219.6C197.484 218.413 199.065 217.19 200.619 215.93C202.168 214.666 203.69 213.366 205.181 212.029C206.667 210.693 208.121 209.32 209.544 207.911C211.524 205.949 213.431 203.92 215.27 201.827C217.11 199.729 218.877 197.572 220.567 195.357C222.257 193.142 223.869 190.867 225.401 188.539C226.937 186.214 228.386 183.836 229.759 181.407C231.127 178.979 232.41 176.51 233.61 173.991C234.811 171.477 235.921 168.921 236.945 166.33C237.969 163.738 238.902 161.111 239.744 158.456C240.587 155.801 241.335 153.114 241.992 150.41C242.649 147.7 243.215 144.973 243.682 142.223C244.153 139.477 244.524 136.718 244.805 133.946C245.086 131.173 245.267 128.391 245.353 125.605C245.439 122.818 245.435 120.037 245.326 117.25C245.222 114.464 245.023 111.687 244.728 108.914C244.429 106.146 244.039 103.387 243.555 100.641C243.065 97.896 242.485 95.1731 241.81 92.4684C241.14 89.7636 240.37 87.0861 239.513 84.4357C239.4 84.0959 239.251 83.7743 239.06 83.4752C238.866 83.1717 238.639 82.8999 238.376 82.6552C238.113 82.4151 237.824 82.2067 237.511 82.0391C237.194 81.8714 236.863 81.7446 236.514 81.6585C236.165 81.577 235.812 81.5362 235.454 81.5407C235.101 81.5498 234.747 81.5996 234.403 81.6947C234.059 81.7944 233.732 81.9303 233.424 82.1115C233.112 82.2928 232.831 82.5057 232.577 82.7594ZM112.364 172.976L47.5271 113.046C47.151 112.697 46.8158 112.317 46.5122 111.904C46.2132 111.492 45.955 111.053 45.742 110.586C45.5291 110.124 45.3615 109.644 45.2437 109.145C45.1259 108.647 45.0534 108.144 45.0353 107.632C45.0171 107.125 45.0443 106.617 45.1259 106.11C45.2074 105.607 45.3343 105.113 45.511 104.633C45.6877 104.153 45.9142 103.695 46.1815 103.26C46.4488 102.825 46.7523 102.422 47.1012 102.046C47.45 101.67 47.8306 101.33 48.2429 101.031C48.6552 100.732 49.0946 100.474 49.5613 100.261C50.0234 100.048 50.5036 99.8803 51.002 99.7626C51.5003 99.6402 52.0032 99.5723 52.5152 99.5541C53.0271 99.5315 53.5346 99.5632 54.042 99.6402C54.5449 99.7218 55.0387 99.8486 55.5189 100.03C55.9992 100.207 56.4568 100.429 56.8917 100.691C57.3266 100.959 57.7344 101.267 58.1104 101.616L110.783 150.292C111.172 150.654 111.593 150.971 112.051 151.248C112.504 151.519 112.984 151.746 113.487 151.923C113.986 152.099 114.502 152.222 115.028 152.294C115.553 152.367 116.083 152.38 116.613 152.344C117.143 152.308 117.664 152.217 118.176 152.072C118.688 151.932 119.182 151.737 119.653 151.492C120.125 151.248 120.568 150.958 120.981 150.622C121.393 150.287 121.769 149.916 122.104 149.503L236.668 9.3057C236.99 8.91154 237.348 8.5491 237.742 8.2229C238.141 7.8967 238.562 7.6158 239.011 7.37116C239.464 7.13104 239.935 6.93622 240.424 6.78672C240.913 6.63268 241.412 6.533 241.919 6.48317C242.431 6.43333 242.939 6.4288 243.446 6.47864C243.958 6.52847 244.456 6.62815 244.946 6.77312C245.435 6.92263 245.906 7.11291 246.359 7.35303C246.812 7.59315 247.233 7.87858 247.632 8.20025C248.026 8.52191 248.389 8.88436 248.715 9.27851C249.041 9.67267 249.327 10.094 249.567 10.5471C249.811 10.9956 250.006 11.4668 250.156 11.9561C250.305 12.4408 250.405 12.9437 250.455 13.4511C250.509 13.9586 250.509 14.4705 250.459 14.9779C250.409 15.4854 250.314 15.9883 250.165 16.4776C250.02 16.9669 249.825 17.438 249.585 17.8866C249.345 18.3396 249.064 18.7655 248.738 19.1596L123.69 172.17C123.355 172.582 122.979 172.958 122.566 173.293C122.154 173.629 121.715 173.918 121.239 174.163C120.768 174.408 120.279 174.603 119.767 174.748C119.255 174.888 118.734 174.983 118.204 175.019C117.673 175.056 117.143 175.042 116.613 174.97C116.088 174.897 115.576 174.775 115.073 174.598C114.57 174.426 114.09 174.199 113.637 173.928C113.179 173.651 112.758 173.334 112.364 172.976Z" fill="#02344A"/>
</svg>
