<svg width="17" height="21" viewBox="0 0 17 21" fill="#none" xmlns="http://www.w3.org/2000/svg">
<path d="M15.7875 9.23342L2.28 0.970292C2.05227 0.830842 1.79144 0.754713 1.52445 0.749769C1.25746 0.744825 0.993989 0.811244 0.76125 0.942167C0.530728 1.07106 0.338696 1.25902 0.204904 1.48673C0.0711107 1.71445 0.000385179 1.97368 0 2.23779V18.7622C0.00173697 19.1583 0.160719 19.5376 0.441997 19.8166C0.723276 20.0956 1.10383 20.2515 1.5 20.25C1.77652 20.2499 2.04767 20.1736 2.28375 20.0297L15.7875 11.7665C16.0046 11.6342 16.184 11.4483 16.3084 11.2267C16.4329 11.0051 16.4983 10.7551 16.4983 10.5009C16.4983 10.2467 16.4329 9.99678 16.3084 9.77514C16.184 9.5535 16.0046 9.36759 15.7875 9.23529V9.23342ZM1.5 18.7444V2.24998L14.9841 10.5L1.5 18.7444Z" fill="#02344A"/>
</svg>
