<svg width="40" height="41" viewBox="0 0 40 41" fill="none" xmlns="http://www.w3.org/2000/svg">
<path fill-rule="evenodd" clip-rule="evenodd" d="M40 20.8091C40 31.8548 31.0457 40.8091 20 40.8091C8.95431 40.8091 0 31.8548 0 20.8091C0 9.76339 8.95431 0.809082 20 0.809082C31.0457 0.809082 40 9.76339 40 20.8091ZM20.7167 15.574C18.7714 16.3831 14.8835 18.0577 9.05313 20.598C8.10637 20.9745 7.61041 21.3428 7.56526 21.7029C7.48896 22.3116 8.25117 22.5513 9.2891 22.8776C9.43028 22.922 9.57657 22.968 9.72654 23.0168C10.7477 23.3487 12.1214 23.7371 12.8355 23.7525C13.4832 23.7665 14.2062 23.4994 15.0044 22.9513C20.4519 19.2741 23.264 17.4154 23.4405 17.3754C23.565 17.3471 23.7376 17.3116 23.8546 17.4155C23.9715 17.5194 23.96 17.7163 23.9476 17.7691C23.8721 18.091 20.8802 20.8725 19.3319 22.312C18.8492 22.7608 18.5068 23.0791 18.4368 23.1518C18.28 23.3147 18.1202 23.4687 17.9666 23.6168C17.0179 24.5313 16.3065 25.2171 18.006 26.3371C18.8227 26.8753 19.4762 27.3203 20.1282 27.7643C20.8402 28.2492 21.5504 28.7329 22.4693 29.3352C22.7034 29.4887 22.927 29.6481 23.1448 29.8033C23.9734 30.3941 24.7179 30.9248 25.6376 30.8402C26.1721 30.791 26.7241 30.2885 27.0044 28.7897C27.667 25.2477 28.9694 17.5732 29.2703 14.4107C29.2967 14.1336 29.2635 13.779 29.2369 13.6234C29.2103 13.4677 29.1546 13.2459 28.9523 13.0817C28.7126 12.8873 28.3427 12.8463 28.1773 12.8492C27.425 12.8625 26.2709 13.2638 20.7167 15.574Z" fill="#FEFEFE"/>
</svg>
