<svg width="38" height="41" viewBox="0 0 38 41" fill="none" xmlns="http://www.w3.org/2000/svg">
<path d="M23.8956 16.9247C23.9091 17.2038 23.6938 17.441 23.4147 17.4544C23.1356 17.4679 22.8984 17.2526 22.8849 16.9735C22.8014 15.2446 21.9982 14.4151 20.3381 14.3269C20.059 14.3121 19.8449 14.0739 19.8597 13.7949C19.8745 13.5158 20.1127 13.3017 20.3917 13.3165C22.5764 13.4326 23.7872 14.683 23.8956 16.9247Z" fill="#FDFDFD"/>
<path d="M25.972 18.3253C26.2513 18.3317 26.4829 18.1104 26.4892 17.831C26.5342 15.8535 25.942 14.1839 24.7114 12.8433C23.4787 11.5003 21.7785 10.7566 19.6264 10.6038C19.3477 10.584 19.1057 10.7939 19.0859 11.0726C19.0661 11.3513 19.276 11.5933 19.5547 11.6131C21.461 11.7485 22.918 12.3857 23.966 13.5275C25.0149 14.6703 25.5168 16.0852 25.4777 17.808C25.4713 18.0874 25.6926 18.319 25.972 18.3253Z" fill="#FDFDFD"/>
<path d="M29.1486 18.8542C29.1507 19.1336 28.9258 19.3618 28.6464 19.3639C28.367 19.366 28.1389 19.1412 28.1368 18.8618C28.1137 15.7831 27.2051 13.3899 25.4142 11.6389C23.6171 9.88738 21.3832 9.00235 18.6989 8.98518C18.4195 8.98339 18.1944 8.75544 18.1962 8.47603C18.198 8.19663 18.426 7.97158 18.7054 7.97336C21.647 7.99218 24.1327 8.97698 26.121 10.9148C28.1164 12.8658 29.1236 15.5186 29.1486 18.8542Z" fill="#FDFDFD"/>
<path d="M21.5594 23.312C21.1813 23.7862 20.4669 23.7262 20.4669 23.7262C15.2686 22.3996 13.8759 17.1352 13.8759 17.1352C13.8759 17.1352 13.8159 16.4269 14.2901 16.0427L15.2266 15.2984C15.6948 14.9382 15.9889 14.0678 15.5147 13.2154C15.2506 12.7412 14.7223 11.8948 14.3322 11.3606C13.918 10.7963 12.9575 9.6438 12.9515 9.6378C12.4893 9.08555 11.805 8.95949 11.0847 9.33166C11.0847 9.33166 11.0787 9.33766 11.0727 9.33766C10.3884 9.72184 9.75207 10.2381 9.1578 10.8924L9.14579 10.9044C8.70159 11.4386 8.44348 11.9669 8.38345 12.4831C8.37144 12.5431 8.36544 12.6212 8.37144 12.7112C8.36544 12.9393 8.40146 13.1614 8.47349 13.3835L8.4975 13.4015C8.7196 14.1999 9.28386 15.5265 10.5024 17.7415C11.2948 19.1761 12.1051 20.3767 12.9095 21.3851C13.3297 21.9194 13.8099 22.4656 14.3622 23.0239L14.5783 23.24C15.1365 23.7922 15.6828 24.2725 16.217 24.6926C17.2255 25.497 18.42 26.3074 19.8607 27.0997C22.0757 28.3183 23.4023 28.8826 24.2006 29.1047L24.2187 29.1287C24.4408 29.2007 24.6629 29.2307 24.891 29.2307C24.981 29.2367 25.059 29.2307 25.1191 29.2187C25.6353 29.1587 26.1635 28.9006 26.6978 28.4564L26.7098 28.4444C27.3641 27.8501 27.8803 27.2078 28.2645 26.5295C28.2645 26.5295 28.2705 26.5235 28.2705 26.5175C28.6427 25.7971 28.5166 25.1128 27.9644 24.6506C27.9644 24.6506 26.8058 23.6842 26.2416 23.27C25.7133 22.8798 24.8609 22.3576 24.3867 22.0875C23.5343 21.6132 22.6639 21.9074 22.3038 22.3756L21.5594 23.312Z" fill="#FDFDFD"/>
<path fill-rule="evenodd" clip-rule="evenodd" d="M19.7106 0.837794C28.6547 0.879813 32.6705 3.79714 33.6669 4.70956C36.9624 7.57286 38.7933 13.9237 37.5627 23.9543C36.4802 32.8169 30.2985 34.3891 28.2247 34.9166C28.0216 34.9682 27.8579 35.0099 27.7423 35.0474C27.184 35.2274 22.2437 36.464 15.8268 35.9238C15.1185 36.7461 14.1761 37.8266 13.4978 38.559C13.2929 38.7797 13.101 38.9977 12.9176 39.206C11.9893 40.2608 11.279 41.0678 10.1963 40.7319C9.12178 40.4018 9.18181 38.7691 9.18181 38.7691L9.18781 34.7412H9.18181C-0.206459 32.1 -0.0683972 22.3696 0.0396519 17.1712C0.141698 11.9729 1.15016 7.78295 4.01346 4.91965C9.1578 0.201505 19.7106 0.837794 19.7106 0.837794ZM27.1597 32.1109C28.9222 31.7019 33.8445 30.5596 34.7534 23.234C35.7919 14.8542 34.3693 9.13357 31.584 6.73848C30.7436 5.97613 27.118 3.7011 19.5485 3.66508C19.5485 3.66508 10.5864 3.07681 6.23447 7.0146C3.81537 9.40369 2.999 12.9573 2.90896 17.2973L2.89914 17.7394C2.79756 22.1776 2.61852 29.9997 10.2923 32.13C10.2923 32.13 10.2623 38.2828 10.2563 38.8231C10.2563 39.2012 10.3163 39.4594 10.5324 39.5134C10.6885 39.5554 10.9226 39.4714 11.1207 39.2733C12.3873 37.9947 16.4511 33.0965 16.4511 33.0965C21.9016 33.4566 26.2356 32.3761 26.7038 32.2261C26.8116 32.1917 26.9667 32.1557 27.1597 32.1109Z" fill="#FDFDFD"/>
</svg>
