<svg width="40" height="41" viewBox="0 0 40 41" fill="none" xmlns="http://www.w3.org/2000/svg">
<path d="M13.987 11.4704C14.3415 11.4849 14.7337 11.5016 15.1064 12.3298C15.361 12.8961 15.7895 13.9517 16.131 14.793C16.3826 15.4129 16.587 15.9164 16.6397 16.022C16.7641 16.2707 16.847 16.5611 16.6812 16.8933C16.6563 16.9429 16.6334 16.9898 16.6115 17.0346C16.4868 17.2889 16.3953 17.4758 16.1843 17.7227C16.1016 17.8193 16.0161 17.9233 15.9305 18.0273C15.7589 18.2362 15.5871 18.445 15.438 18.5938C15.1885 18.8418 14.9294 19.1112 15.2196 19.6087C15.5098 20.1067 16.5081 21.7348 17.9868 23.0531C19.5753 24.4694 20.9552 25.0685 21.656 25.3727C21.7936 25.4325 21.9051 25.4808 21.9867 25.5218C22.4842 25.7705 22.7744 25.7291 23.0645 25.3967C23.3548 25.065 24.3074 23.9449 24.6391 23.4474C24.9707 22.9495 25.3024 23.0324 25.7583 23.1982C26.2144 23.364 28.6598 24.5675 29.1572 24.8162C29.2542 24.8647 29.3449 24.9085 29.429 24.9491C29.7761 25.1166 30.0105 25.2298 30.1107 25.3967C30.235 25.6047 30.235 26.6002 29.8205 27.7615C29.406 28.923 27.3751 30.0431 26.4631 30.126C26.3754 30.134 26.2881 30.1442 26.1984 30.1548C25.3556 30.2539 24.2917 30.379 20.4943 28.8816C15.8217 27.0389 12.7408 22.4725 12.1042 21.5291C12.052 21.4518 12.0163 21.3988 11.9974 21.3736L11.9919 21.3662C11.7237 21.0078 9.9664 18.6593 9.9664 16.2293C9.9664 13.9386 11.0924 12.7379 11.6104 12.1854C11.6458 12.1477 11.6784 12.1129 11.7076 12.0811C12.1632 11.5834 12.7022 11.4588 13.0338 11.4588C13.052 11.4588 13.0702 11.4588 13.0883 11.4588C13.4015 11.4587 13.7131 11.4587 13.987 11.4704Z" fill="white"/>
<path fill-rule="evenodd" clip-rule="evenodd" d="M2.85141 30.5703C1.08434 27.5583 0.160643 24.1446 0.160643 20.6105C0.160643 9.64662 9.11646 0.730957 20.0803 0.730957C25.4217 0.730957 30.4016 2.81931 34.1767 6.55425C37.9116 10.3294 40 15.3093 40 20.6506C40 31.6145 31.0442 40.5302 20.0803 40.5302C16.747 40.5302 13.4538 39.7269 10.5623 38.1205L0 40.8916L2.85141 30.5703ZM6.06426 29.4458L6.46586 30.0482L4.77912 36.1526L11.0442 34.5061L11.6466 34.8675C14.1767 36.3936 17.1084 37.1968 20.0803 37.1968C29.1968 37.1968 36.6265 29.7671 36.6265 20.6506C36.6265 16.233 34.8996 12.0563 31.7671 8.92373C28.6747 5.83136 24.498 4.10445 20.0803 4.10445C10.9639 4.10445 3.53414 11.494 3.53414 20.6506C3.53414 23.743 4.41767 26.7952 6.06426 29.4458Z" fill="white"/>
</svg>
