<svg width="768" height="105" fill="none" xmlns="http://www.w3.org/2000/svg"><g clip-path="url(#a)"><path fill="#fff" d="M0 0h768v105H0z"/><path fill="#E6F7FE" d="M0 0h768v104H0z"/><path d="M728.5 67a12.5 12.5 0 1 0 0 25 12.5 12.5 0 0 0 0-25Zm0 23.53a11.03 11.03 0 1 1 0-22.07 11.03 11.03 0 0 1 0 22.07Zm5.42-11.55a.74.74 0 0 1 0 1.04L730 83.94a.73.73 0 0 1-1.04-1.04l2.67-2.66h-8.03a.74.74 0 0 1 0-1.48h8.03l-2.67-2.66a.73.73 0 0 1 .02-1.02.74.74 0 0 1 1.02-.02l3.92 3.92Z" fill="#EC8812"/><path d="M-74.97-20.56S-52.2-7.28-16.92-6.1C14-5.06 6.84 25.44 46.7 17.37c39.86-8.07 55.79-41.66 55.79-41.66" stroke="#E99E45"/><path d="M-46.17-8.98s14.57 35.8 44.62 38.4c26.61 2.29 27.36-8.53 48.62-16.89C68.33 4.17 112-.77 112-.77" stroke="#E99E45"/><path d="M-50.09-25.56S-33.03-12.93-6.1-12.68c23.6.2 17.31 30.81 47.98 21.7C72.55-.09 85.61-34 85.61-34" stroke="#E99E45"/><path d="M-55.17-12.6S-35.67.3-5.17.94c26.74.56 20.08 31.12 54.69 22.45 34.6-8.66 48.9-42.43 48.9-42.43M656.88-16.27s18.56 18.72 52.33 29c29.6 9 14.78 36.6 55.37 39.12 40.59 2.52 64.66-25.8 64.66-25.8" stroke="#E99E45"/><path d="M685.02-10.01s4.8 38.35 33.16 48.63c25.11 9.1 28.64-1.15 51.34-3.72 22.7-2.57 66.15 3.95 66.15 3.95" stroke="#E99E45"/><path d="M685.52-27.04s13.2 16.61 39.15 23.82c22.74 6.31 8.75 34.24 40.73 33.38C797.4 29.3 818.78-.07 818.78-.07" stroke="#E99E45"/><path d="M677.26-15.85s15.5 17.52 44.8 26.04c25.68 7.46 11.33 35.26 47 35.84 35.67.59 58.22-28.33 58.22-28.33" stroke="#E99E45"/><path d="M62.1 23.82V34h-2.13v-8.43h-4.12V34h-2.12V23.82h8.37Zm5.32 10.33c-.78 0-1.46-.17-2.02-.5-.56-.33-1-.8-1.3-1.39a4.5 4.5 0 0 1-.44-2.05c0-.78.15-1.47.45-2.06.3-.59.74-1.05 1.3-1.38.56-.34 1.23-.5 2-.5.67 0 1.25.12 1.75.36s.9.58 1.19 1.02a3 3 0 0 1 .48 1.54h-2c-.06-.38-.2-.69-.45-.92a1.28 1.28 0 0 0-.94-.36c-.32 0-.61.1-.86.27a1.7 1.7 0 0 0-.56.77c-.14.34-.2.75-.2 1.23 0 .49.06.9.2 1.24.13.35.32.6.56.79.25.17.54.26.86.26.25 0 .46-.05.66-.15.2-.1.35-.24.48-.43s.21-.42.25-.69h2c-.03.58-.2 1.1-.48 1.54-.28.44-.67.79-1.17 1.04a3.9 3.9 0 0 1-1.76.37Zm6.65-2.94 2.75-4.85h2.09V34h-2.02v-4.86L74.15 34h-2.1v-7.64h2.02v4.85Zm8.16-4.85 1.4 2.67 1.44-2.67h2.18l-2.22 3.82L87.3 34h-2.16l-1.5-2.64L82.15 34h-2.18l2.26-3.82-2.18-3.82h2.18Zm9.31 7.79c-.77 0-1.44-.16-2-.5-.56-.32-1-.79-1.3-1.38-.3-.59-.46-1.28-.46-2.06 0-.79.15-1.48.46-2.07.3-.59.74-1.05 1.3-1.38.56-.33 1.23-.5 2-.5s1.44.17 2 .5c.56.33 1 .79 1.3 1.38.3.6.46 1.28.46 2.07 0 .78-.15 1.47-.46 2.06-.3.6-.74 1.06-1.3 1.39-.56.33-1.23.49-2 .49Zm.01-1.64c.35 0 .64-.1.88-.3.24-.2.41-.48.53-.83.12-.34.19-.74.19-1.18 0-.45-.07-.84-.19-1.2-.12-.34-.3-.61-.53-.82a1.3 1.3 0 0 0-.88-.3c-.35 0-.65.1-.9.3-.23.2-.41.48-.54.83-.12.35-.18.74-.18 1.19 0 .44.06.84.18 1.18.13.35.3.63.55.83.24.2.54.3.89.3ZM96.09 34l-.01-1.68h.25c.18 0 .33-.04.46-.13a.97.97 0 0 0 .33-.43c.09-.2.16-.46.2-.8.06-.32.09-.73.1-1.22l.13-3.38h5.8V34h-2.01v-5.97h-1.89l-.12 2.33a7.7 7.7 0 0 1-.23 1.65c-.12.46-.3.84-.51 1.13-.22.3-.48.51-.8.65-.3.14-.66.21-1.07.21h-.63Zm12.22.15c-.77 0-1.44-.16-2-.5-.56-.32-1-.79-1.3-1.38-.3-.59-.46-1.28-.46-2.06 0-.79.15-1.48.46-2.07.3-.59.73-1.05 1.3-1.38.56-.33 1.23-.5 2-.5s1.44.17 2 .5c.56.33 1 .79 1.3 1.38.3.6.46 1.28.46 2.07 0 .78-.15 1.47-.46 2.06-.3.6-.74 1.06-1.3 1.39-.56.33-1.23.49-2 .49Zm0-1.64c.36 0 .65-.1.89-.3.23-.2.41-.48.53-.83.12-.34.19-.74.19-1.18 0-.45-.07-.84-.19-1.2-.12-.34-.3-.61-.53-.82a1.3 1.3 0 0 0-.88-.3c-.36 0-.65.1-.9.3-.23.2-.42.48-.54.83-.12.35-.18.74-.18 1.19 0 .44.06.84.18 1.18.13.35.3.63.54.83.25.2.54.3.9.3Zm10.22-6.15v1.67h-3.17V34h-2.06v-7.64h5.23Zm2.19 6.25-.06.54c-.04.44-.12.88-.25 1.31-.12.44-.24.84-.38 1.2l-.3.83h-1.38l.2-.82c.09-.35.17-.74.25-1.18.07-.43.12-.87.14-1.33l.03-.55h1.75ZM129.6 34v-5.98h-1.43c-.4 0-.69.1-.89.27a.8.8 0 0 0-.3.64c0 .25.1.46.3.63.2.17.48.25.87.25h2.16v1.44h-2.16c-.66 0-1.22-.1-1.7-.3-.47-.2-.84-.48-1.1-.83a2.06 2.06 0 0 1-.39-1.25c0-.5.13-.93.39-1.3.26-.39.63-.68 1.1-.89a4.23 4.23 0 0 1 1.72-.32h3.4V34h-1.97Zm-4.85 0 2.12-3.98h2.02L126.78 34h-2.02Zm8.33 0v-7.64h2.12v2.97h.6l2.07-2.97h2.49l-2.7 3.8L140.4 34h-2.52L136 31.3h-.8V34h-2.11Zm10.09-2.8 2.74-4.84h2.1V34h-2.03v-4.86L143.25 34h-2.1v-7.64h2.03v4.85Zm8.41 0 2.75-4.84h2.1V34h-2.03v-4.86L151.67 34h-2.1v-7.64h2.02v4.85Zm2.39-7.5h1.48c0 .6-.23 1.09-.68 1.46a2.7 2.7 0 0 1-1.78.55c-.76 0-1.36-.19-1.8-.55a1.8 1.8 0 0 1-.66-1.46H152c0 .23.07.43.22.62.15.18.4.27.77.27.35 0 .6-.1.75-.27a.93.93 0 0 0 .23-.62Zm10.56 10.45c-.78 0-1.46-.17-2.02-.5-.56-.33-1-.8-1.3-1.39a4.5 4.5 0 0 1-.44-2.05c0-.78.15-1.47.45-2.06.3-.59.74-1.05 1.3-1.38.56-.34 1.23-.5 2-.5.66 0 1.25.12 1.75.36a2.92 2.92 0 0 1 1.67 2.56h-2c-.05-.38-.2-.69-.45-.92a1.28 1.28 0 0 0-.94-.36c-.32 0-.61.1-.86.27-.24.18-.43.44-.56.77-.14.34-.2.75-.2 1.23 0 .49.06.9.2 1.24.13.35.32.6.56.79.25.17.54.26.86.26.25 0 .46-.05.66-.15.2-.1.35-.24.48-.43s.21-.42.25-.69h2c-.03.58-.2 1.1-.48 1.54-.28.44-.67.79-1.17 1.04a3.9 3.9 0 0 1-1.76.37Zm4.63-.15v-7.64h6.67V34h-2.02v-5.97h-2.66V34h-2Zm8.22 2.86v-10.5h2.1v1.29h.08c.1-.2.23-.42.4-.63.19-.22.42-.4.7-.54a2.87 2.87 0 0 1 3.74 1.53 5 5 0 0 1 .43 2.18c0 .85-.14 1.57-.41 2.16a2.86 2.86 0 0 1-2.68 1.77 2.17 2.17 0 0 1-1.75-.72 2.6 2.6 0 0 1-.43-.62h-.06v4.08h-2.12Zm2.08-6.68c0 .46.06.85.19 1.19.12.34.3.6.54.79.24.19.53.28.87.28.35 0 .64-.1.88-.28.24-.2.42-.46.54-.8.12-.34.19-.73.19-1.18 0-.44-.06-.83-.19-1.16-.12-.34-.3-.6-.54-.79a1.37 1.37 0 0 0-.88-.28c-.34 0-.63.1-.87.27-.24.19-.42.44-.54.78-.13.33-.2.73-.2 1.18Zm8.82 3.96c-.49 0-.92-.08-1.3-.25a2.1 2.1 0 0 1-.9-.76 2.28 2.28 0 0 1-.34-1.26c0-.43.08-.78.24-1.07.15-.29.37-.52.63-.7.27-.17.58-.3.92-.4a7 7 0 0 1 1.08-.18l1.08-.13c.27-.05.47-.11.59-.2.12-.08.18-.2.18-.36v-.03c0-.32-.1-.56-.3-.73-.2-.17-.47-.26-.83-.26-.38 0-.69.08-.91.25-.23.17-.38.38-.45.63l-1.96-.16a2.66 2.66 0 0 1 1.72-1.99 4.88 4.88 0 0 1 2.83-.13c.39.1.73.26 1.04.47a2.25 2.25 0 0 1 .98 1.97V34h-2v-1.06h-.07A2.17 2.17 0 0 1 189.3 34c-.29.1-.62.15-1 .15Zm.6-1.46c.32 0 .6-.06.83-.18.24-.13.43-.3.56-.5.14-.22.2-.46.2-.73v-.81c-.06.04-.15.08-.27.12a5.05 5.05 0 0 1-.8.17l-.4.05c-.24.04-.46.1-.65.18-.18.08-.33.18-.43.32-.1.13-.15.3-.15.5 0 .29.1.5.31.66.21.15.48.22.8.22Zm5.2 1.32v-7.64h3.26c.94 0 1.69.18 2.23.54.55.36.82.87.82 1.53 0 .41-.15.76-.46 1.03-.3.28-.74.46-1.28.56.45.03.84.14 1.16.31.33.17.58.4.75.67.17.28.25.58.25.92 0 .43-.11.8-.34 1.12-.23.3-.57.55-1.01.71a4.6 4.6 0 0 1-1.62.25h-3.76Zm1.98-1.59h1.78c.3 0 .53-.07.7-.2a.72.72 0 0 0 .25-.59.83.83 0 0 0-.26-.64.97.97 0 0 0-.69-.23h-1.78v1.66Zm0-2.9h1.32c.22 0 .4-.03.55-.1a.75.75 0 0 0 .34-.26.69.69 0 0 0 .13-.41c0-.24-.1-.42-.28-.56-.2-.13-.45-.2-.78-.2h-1.28v1.53Zm5.35 6.73v-3.92h.59c.17-.1.3-.28.4-.5.11-.24.2-.51.27-.83.06-.31.12-.65.16-1.02l.1-1.11.2-2.5H209v5.96h1.18v3.92h-2.02V34h-4.67v2.24h-2.07Zm2.7-3.92H207v-4.33h-2.06l-.08.87c-.06.81-.14 1.5-.25 2.08-.1.56-.27 1.02-.5 1.38Zm7.15 1.68v-7.64h2.12V34h-2.12Zm1.07-8.62c-.32 0-.59-.1-.81-.31a1.02 1.02 0 0 1-.34-.76 1 1 0 0 1 .34-.76c.22-.2.5-.31.8-.31.32 0 .59.1.81.31.23.21.34.46.34.76a1 1 0 0 1-.34.76c-.22.2-.49.3-.8.3Zm5.7 8.62v-7.64h6.68V34h-2.02v-5.97h-2.66V34h-2Zm11.68.15c-.77 0-1.44-.16-2-.5-.56-.32-1-.79-1.3-1.38-.3-.59-.45-1.28-.45-2.06 0-.79.15-1.48.45-2.07.3-.59.74-1.05 1.3-1.38.56-.33 1.23-.5 2-.5.78 0 1.44.17 2 .5.57.33 1 .79 1.3 1.38.31.6.46 1.28.46 2.07 0 .78-.15 1.47-.45 2.06-.31.6-.74 1.06-1.3 1.39-.57.33-1.23.49-2 .49Zm.01-1.64c.36 0 .65-.1.88-.3.24-.2.42-.48.54-.83.12-.34.18-.74.18-1.18 0-.45-.06-.84-.18-1.2-.12-.34-.3-.61-.54-.82a1.3 1.3 0 0 0-.88-.3c-.35 0-.65.1-.9.3-.23.2-.41.48-.53.83-.12.35-.18.74-.18 1.19 0 .44.06.84.18 1.18.12.35.3.63.54.83.24.2.54.3.9.3Zm11.62-6.15V34h-2.01v-7.64h2Zm-.98 3.35v1.67c-.16.08-.37.15-.6.21a7.34 7.34 0 0 1-1.52.22c-1.1 0-1.96-.23-2.59-.68-.63-.45-.94-1.18-.94-2.17v-2.6h2v2.6c0 .3.05.53.15.7.1.17.26.3.48.37a4.8 4.8 0 0 0 1.92 0c.34-.07.7-.18 1.1-.32Zm3.52 7.15a4.2 4.2 0 0 1-1.34-.22l.48-1.58c.25.08.47.12.67.13.2 0 .38-.04.52-.14.15-.1.27-.27.37-.5l.12-.33-2.74-7.86h2.23l1.58 5.61h.08l1.6-5.6h2.24l-2.97 8.46c-.14.4-.34.76-.58 1.07-.24.3-.55.54-.92.71-.37.17-.82.25-1.34.25Zm10.31-7.27v1.23h-2.78V29.6h2.78Zm2.9-.76-1.96.33c-.1-.36-.25-.66-.48-.88-.22-.22-.54-.33-.96-.33-.38 0-.7.1-.94.28-.24.19-.43.45-.54.78-.12.34-.18.73-.18 1.17 0 .45.06.84.18 1.18.11.34.3.6.54.8.24.18.56.28.94.28.26 0 .49-.05.67-.14.2-.1.34-.23.47-.39.11-.16.2-.35.27-.55l1.97.32a3 3 0 0 1-1.8 2.16c-.47.2-1 .3-1.58.3-.77 0-1.42-.16-1.97-.5a3.43 3.43 0 0 1-1.27-1.4 4.6 4.6 0 0 1-.44-2.06c0-.76.14-1.44.44-2.03.3-.6.72-1.05 1.27-1.38a3.7 3.7 0 0 1 1.97-.5c.6 0 1.13.1 1.6.31a3.05 3.05 0 0 1 1.8 2.25Zm4.42 5.17V23.82h4.07c.75 0 1.38.1 1.88.33.5.22.87.53 1.13.93.25.39.37.84.37 1.35a2.06 2.06 0 0 1-.9 1.78c-.27.2-.58.33-.94.4v.1a2.33 2.33 0 0 1 1.92 1.18c.21.36.32.8.32 1.3 0 .54-.13 1.02-.4 1.44-.27.42-.66.76-1.18 1a4.5 4.5 0 0 1-1.92.37h-4.35Zm2.15-1.76h1.75c.6 0 1.04-.11 1.32-.34.27-.23.4-.54.4-.93 0-.28-.06-.53-.2-.74a1.38 1.38 0 0 0-.58-.51 1.99 1.99 0 0 0-.89-.18h-1.8v2.7Zm0-4.16h1.6c.29 0 .55-.05.78-.16.23-.1.41-.25.55-.44.13-.2.2-.43.2-.7 0-.36-.13-.66-.4-.88a1.63 1.63 0 0 0-1.1-.34h-1.63v2.52Zm9.1 6.06c-.49 0-.92-.08-1.3-.25a2.1 2.1 0 0 1-.9-.76 2.29 2.29 0 0 1-.34-1.26c0-.43.08-.78.24-1.07.15-.29.37-.52.63-.7.27-.17.58-.3.92-.4a7 7 0 0 1 1.08-.18l1.08-.13c.27-.05.47-.11.59-.2.12-.08.18-.2.18-.36v-.03c0-.32-.1-.56-.3-.73-.2-.17-.47-.26-.83-.26-.38 0-.69.08-.91.25-.23.17-.38.38-.45.63l-1.96-.16a2.66 2.66 0 0 1 1.72-1.99 4.88 4.88 0 0 1 2.83-.13c.39.1.73.26 1.04.47a2.25 2.25 0 0 1 .98 1.97V34h-2v-1.06H275a2.17 2.17 0 0 1-1.23 1.05c-.29.1-.62.15-1 .15Zm.6-1.46c.32 0 .6-.06.83-.18.24-.13.43-.3.56-.5.14-.22.2-.46.2-.73v-.81c-.06.04-.15.08-.27.12a5.05 5.05 0 0 1-.8.17l-.4.05c-.24.04-.46.1-.65.18-.18.08-.32.18-.43.32-.1.13-.15.3-.15.5 0 .29.1.5.31.66.21.15.48.22.8.22Zm8.65 1.47c-.78 0-1.45-.17-2.01-.5-.56-.33-1-.8-1.3-1.39a4.5 4.5 0 0 1-.44-2.05c0-.78.15-1.47.45-2.06.3-.59.73-1.05 1.3-1.38.56-.34 1.22-.5 2-.5.66 0 1.24.12 1.74.36s.9.58 1.2 1.02a3 3 0 0 1 .47 1.54h-2c-.05-.38-.2-.69-.44-.92a1.28 1.28 0 0 0-.94-.36c-.33 0-.62.1-.86.27a1.7 1.7 0 0 0-.57.77c-.13.34-.2.75-.2 1.23 0 .49.06.9.2 1.24.13.35.32.6.57.79.24.17.53.26.86.26.24 0 .46-.05.65-.15.2-.1.36-.24.48-.43.13-.19.22-.42.26-.69h2c-.04.58-.2 1.1-.48 1.54-.28.44-.67.79-1.17 1.04a3.9 3.9 0 0 1-1.77.37Z" fill="#02344A"/><path d="M55.6 75.39v-7.45h1.23c.42-.3.8-.73 1.15-1.28a8.2 8.2 0 0 0 .9-2.3c.25-.98.43-2.27.53-3.85l.52-7.7h12.03v15.13h1.99v7.43h-3.7V71H59.3v4.39h-3.7Zm5.67-7.45h7V55.99h-4.88l-.28 4.52c-.08 1.2-.2 2.26-.39 3.2-.17.92-.38 1.74-.63 2.43a9.4 9.4 0 0 1-.82 1.8Zm22.75-1.12 3.7-9.46h2.87L85.27 71h-2.5l-5.2-13.64h2.87l3.58 9.46Zm-4.45-9.46V71h-3.6V57.36h3.6ZM88.66 71V57.36h3.57V71h-3.57Zm9.85-4.99 4.91-8.65h3.73V71h-3.6v-8.67L98.65 71H94.9V57.36h3.61v8.65Zm10.05-5.67v-2.98h12.36v2.98h-4.4V71h-3.6V60.34h-4.36Zm14.4 15.77V57.36h3.73v2.3h.17c.17-.37.4-.75.72-1.12.32-.39.74-.7 1.24-.96a5.12 5.12 0 0 1 6.69 2.73 8.9 8.9 0 0 1 .75 3.89c0 1.52-.24 2.8-.73 3.85a5.1 5.1 0 0 1-4.8 3.17 3.88 3.88 0 0 1-3.13-1.28 4.64 4.64 0 0 1-.74-1.12h-.11v7.3h-3.78Zm3.7-11.93c0 .81.12 1.52.34 2.12.23.6.56 1.08.98 1.42.43.33.95.5 1.55.5.62 0 1.14-.18 1.57-.51.42-.35.75-.82.97-1.42.22-.61.33-1.32.33-2.1 0-.8-.1-1.49-.33-2.09a3.1 3.1 0 0 0-.96-1.4c-.43-.34-.95-.5-1.58-.5a2.5 2.5 0 0 0-1.56.48c-.42.33-.74.8-.97 1.39a6 6 0 0 0-.33 2.11Zm18.04 7.09c-1.38 0-2.57-.3-3.58-.88-1-.6-1.77-1.42-2.32-2.47a7.95 7.95 0 0 1-.81-3.68c0-1.41.27-2.64.81-3.7a5.94 5.94 0 0 1 2.32-2.47c1-.59 2.2-.88 3.58-.88s2.56.3 3.57.88c1 .59 1.78 1.41 2.32 2.47.55 1.06.82 2.29.82 3.7 0 1.4-.27 2.62-.82 3.68a6 6 0 0 1-2.32 2.47c-1 .58-2.2.88-3.57.88Zm.02-2.93c.62 0 1.15-.18 1.57-.54.42-.36.73-.85.95-1.47.22-.62.32-1.33.32-2.12 0-.8-.1-1.5-.32-2.12a3.3 3.3 0 0 0-.95-1.48 2.33 2.33 0 0 0-1.57-.54 2.4 2.4 0 0 0-1.6.54c-.43.36-.75.86-.97 1.48a6.53 6.53 0 0 0-.32 2.12c0 .8.1 1.5.32 2.12.22.62.54 1.11.97 1.47.43.36.96.54 1.6.54ZM162.36 71h-4.12l6.28-18.18h4.95L175.74 71h-4.12l-4.56-14.03h-.14L162.36 71Zm-.26-7.15h9.73v3h-9.73v-3Zm21.03 7.42c-1.4 0-2.6-.3-3.6-.9a6 6 0 0 1-2.31-2.48 8.03 8.03 0 0 1-.8-3.65c0-1.4.27-2.63.8-3.68a6 6 0 0 1 2.32-2.48c1-.6 2.2-.9 3.57-.9a7.1 7.1 0 0 1 3.13.65 5.22 5.22 0 0 1 2.98 4.58h-3.57a2.76 2.76 0 0 0-.8-1.65 2.29 2.29 0 0 0-1.67-.63c-.59 0-1.1.16-1.54.48-.43.32-.77.78-1.01 1.38-.25.6-.37 1.33-.37 2.2 0 .86.12 1.6.36 2.21.24.61.58 1.08 1.02 1.4.44.31.95.47 1.54.47.43 0 .82-.08 1.16-.26.35-.18.63-.44.86-.77.23-.35.38-.76.45-1.24h3.57a5.6 5.6 0 0 1-.85 2.75c-.5.8-1.2 1.4-2.09 1.85-.88.44-1.94.67-3.15.67Zm16.32-4.45 3.7-9.46h2.87L200.71 71h-2.52L193 57.36h2.87l3.58 9.46Zm-4.44-9.46V71h-3.62V57.36h3.62ZM204.09 71V57.36h3.57V71h-3.57Zm10.13.26c-.87 0-1.64-.15-2.32-.46a3.75 3.75 0 0 1-1.62-1.35 4.07 4.07 0 0 1-.59-2.26c0-.76.14-1.4.42-1.9.28-.52.66-.94 1.14-1.25a5.51 5.51 0 0 1 1.63-.71c.62-.16 1.26-.27 1.94-.34a49 49 0 0 0 1.91-.23c.49-.08.84-.19 1.06-.34a.74.74 0 0 0 .33-.65v-.06c0-.56-.18-1-.53-1.3-.35-.3-.85-.46-1.5-.46-.68 0-1.22.15-1.62.45-.4.3-.67.67-.8 1.12l-3.5-.29a4.74 4.74 0 0 1 3.07-3.55 8.72 8.72 0 0 1 5.05-.23c.7.18 1.31.46 1.85.83a4.01 4.01 0 0 1 1.76 3.52V71h-3.59v-1.9h-.1A3.85 3.85 0 0 1 216 71c-.52.17-1.11.26-1.79.26Zm1.08-2.61c.56 0 1.05-.11 1.48-.33.42-.23.76-.53 1-.9.24-.39.37-.81.37-1.3v-1.44c-.12.08-.29.15-.5.21a8.91 8.91 0 0 1-1.44.3l-.7.1c-.44.07-.82.17-1.16.31-.33.14-.59.34-.77.58a1.4 1.4 0 0 0-.27.89c0 .51.18.9.56 1.18.38.26.85.4 1.43.4Zm18.62-11.29v2.98h-5.66V71h-3.68V57.36h9.34ZM235.98 71V57.36h3.78V71h-3.78Zm1.9-15.4c-.56 0-1.04-.18-1.45-.55-.4-.38-.6-.83-.6-1.36 0-.52.2-.97.6-1.34.4-.38.89-.57 1.45-.57a2 2 0 0 1 1.44.57 1.8 1.8 0 0 1 0 2.7c-.4.37-.88.56-1.44.56Zm3.86 15.4-.02-3h.46c.32 0 .6-.08.82-.23.24-.16.44-.42.59-.77.15-.36.27-.83.36-1.42.1-.59.15-1.32.18-2.18l.22-6.04h10.37V71h-3.6V60.34h-3.37l-.21 4.16c-.05 1.14-.2 2.13-.42 2.95-.22.82-.52 1.5-.91 2.02-.4.52-.86.9-1.41 1.16-.55.25-1.2.37-1.92.37h-1.14Zm21.82.27c-1.37 0-2.57-.3-3.57-.88-1-.6-1.78-1.42-2.32-2.47a7.96 7.96 0 0 1-.82-3.68c0-1.41.28-2.64.82-3.7a5.95 5.95 0 0 1 2.32-2.47c1-.59 2.2-.88 3.57-.88 1.38 0 2.57.3 3.57.88 1.01.59 1.79 1.41 2.33 2.47.54 1.06.82 2.29.82 3.7 0 1.4-.28 2.62-.82 3.68a6 6 0 0 1-2.33 2.47c-1 .58-2.19.88-3.56.88Zm.02-2.93c.63 0 1.15-.18 1.57-.54.42-.36.74-.85.95-1.47.22-.62.33-1.33.33-2.12 0-.8-.1-1.5-.33-2.12a3.3 3.3 0 0 0-.95-1.48 2.33 2.33 0 0 0-1.57-.54 2.4 2.4 0 0 0-1.6.54c-.42.36-.74.86-.96 1.48a6.53 6.53 0 0 0-.32 2.12c0 .8.1 1.5.32 2.12.22.62.54 1.11.97 1.47.43.36.96.54 1.6.54Zm8.9 2.66V57.36h5.82c1.68 0 3.01.32 3.99.96a3.07 3.07 0 0 1 1.46 2.73c0 .74-.27 1.35-.82 1.84-.55.5-1.32.83-2.3 1 .82.06 1.52.24 2.1.56.57.3 1.01.7 1.31 1.2.31.49.47 1.03.47 1.63 0 .78-.21 1.44-.63 2-.4.55-1 .98-1.8 1.28-.78.3-1.75.44-2.88.44h-6.71Zm3.53-2.83h3.19c.52 0 .94-.13 1.23-.37.3-.26.45-.6.45-1.04 0-.49-.15-.87-.45-1.15-.3-.28-.7-.42-1.23-.42H276v2.98Zm0-5.2h2.37c.38 0 .7-.05.97-.16.27-.1.48-.27.62-.47.15-.21.22-.46.22-.74 0-.42-.17-.75-.5-.99-.34-.23-.8-.35-1.39-.35h-2.29v2.71Z" fill="#EC8812"/><path d="M323 44.36c-.46 0-.88-.1-1.26-.33a2.62 2.62 0 0 1-.9-.91c-.23-.38-.34-.8-.34-1.26 0-.46.11-.88.33-1.25.23-.38.54-.68.91-.9.38-.23.8-.35 1.26-.35a2.52 2.52 0 0 1 2.5 2.5 2.57 2.57 0 0 1-1.24 2.16c-.38.23-.8.34-1.26.34Zm17.14 2.3c-.75 0-1.42-.13-2-.39a3.43 3.43 0 0 1-1.4-1.07c-.34-.46-.53-1-.56-1.6h1.43c.03.37.16.69.39.96s.52.48.9.63c.36.15.77.22 1.21.22.5 0 .95-.09 1.33-.26.39-.18.7-.42.91-.73.22-.31.33-.67.33-1.08 0-.43-.1-.8-.32-1.13a2.1 2.1 0 0 0-.93-.77c-.4-.19-.9-.28-1.5-.28H339V39.9h.93c.46 0 .87-.08 1.22-.25a1.9 1.9 0 0 0 1.13-1.77c0-.4-.1-.74-.27-1.03-.17-.3-.42-.52-.74-.68a2.4 2.4 0 0 0-1.11-.25c-.4 0-.78.08-1.14.22-.35.15-.64.36-.86.63-.22.28-.35.6-.37 1h-1.36c.02-.62.2-1.15.55-1.61.35-.46.8-.82 1.35-1.08a4.37 4.37 0 0 1 3.7.05 3 3 0 0 1 1.6 2.68 2.62 2.62 0 0 1-1.9 2.64v.09c.73.12 1.3.43 1.72.93.41.5.62 1.12.62 1.86 0 .63-.17 1.2-.52 1.7-.34.5-.8.9-1.4 1.19-.59.29-1.26.43-2.01.43Zm8.68.04c-.55 0-1.05-.1-1.5-.3a2.6 2.6 0 0 1-1.08-.92c-.26-.4-.4-.89-.4-1.46 0-.5.1-.9.3-1.21.2-.32.46-.56.8-.74.32-.18.68-.31 1.08-.4.4-.09.8-.16 1.21-.22l1.3-.15c.33-.04.57-.1.72-.19.15-.08.23-.23.23-.45v-.05c0-.56-.15-1-.46-1.3-.3-.31-.76-.47-1.38-.47-.64 0-1.14.14-1.5.42a2.5 2.5 0 0 0-.77.9l-1.27-.46c.22-.53.53-.94.9-1.23.39-.3.8-.51 1.25-.63a5.18 5.18 0 0 1 2.31-.08c.37.07.72.2 1.06.4.35.2.63.52.86.93.23.41.34.97.34 1.66v5.75h-1.34v-1.18h-.07a2.62 2.62 0 0 1-1.3 1.16c-.35.15-.78.22-1.29.22Zm.2-1.2c.54 0 .99-.1 1.35-.31a2.13 2.13 0 0 0 1.11-1.85v-1.23c-.06.07-.18.13-.37.2-.2.04-.41.1-.66.13a29.63 29.63 0 0 1-1.29.17c-.35.05-.67.12-.97.23-.3.1-.55.24-.73.44-.18.2-.27.47-.27.81 0 .47.17.82.51 1.06.35.23.8.35 1.33.35Zm11.48-7.73v1.25h-4.05v7.48h-1.34v-8.73h5.39Zm3.9 8.93c-.54 0-1.05-.1-1.5-.3-.45-.22-.8-.52-1.07-.92-.26-.4-.4-.89-.4-1.46 0-.5.1-.9.3-1.21.2-.32.46-.56.79-.74.33-.18.69-.31 1.09-.4.4-.09.8-.16 1.2-.22l1.3-.15c.33-.04.57-.1.72-.19.16-.08.24-.23.24-.45v-.05c0-.56-.15-1-.46-1.3-.3-.31-.76-.47-1.38-.47a2.4 2.4 0 0 0-1.5.42c-.37.28-.63.58-.78.9l-1.27-.46c.23-.53.53-.94.91-1.23.38-.3.8-.51 1.25-.63a5.2 5.2 0 0 1 2.3-.08c.38.07.73.2 1.07.4.35.2.63.52.86.93.23.41.34.97.34 1.66v5.75h-1.34v-1.18H367a2.64 2.64 0 0 1-1.3 1.16c-.35.15-.78.22-1.3.22Zm.21-1.2c.53 0 .98-.1 1.34-.31a2.12 2.12 0 0 0 1.12-1.85v-1.23c-.06.07-.18.13-.38.2-.19.04-.4.1-.66.13a30.27 30.27 0 0 1-1.28.17c-.35.05-.67.12-.98.23-.3.1-.54.24-.72.44-.19.2-.28.47-.28.81 0 .47.18.82.52 1.06.35.23.79.35 1.32.35Zm5.31 1v-1.25h.32c.26 0 .48-.05.66-.15.17-.11.31-.3.42-.55.1-.27.19-.64.25-1.1.06-.48.1-1.08.13-1.81l.16-3.87h5.81v8.73h-1.34v-7.48h-3.2l-.14 3.12c-.03.71-.1 1.34-.2 1.89-.09.54-.23 1-.43 1.36a2 2 0 0 1-.77.83 2.4 2.4 0 0 1-1.21.28h-.46Zm11.21-5.57h2.5c1.03 0 1.8.26 2.35.78.54.52.81 1.18.81 1.97a2.65 2.65 0 0 1-1.43 2.44c-.47.26-1.05.38-1.73.38h-3.66v-8.73h1.34v7.48h2.32c.53 0 .97-.14 1.31-.42.34-.28.51-.64.51-1.08 0-.46-.17-.84-.51-1.13-.34-.3-.78-.44-1.3-.44h-2.5v-1.25Zm13.38.6v1.24h-4.81v-1.25h4.81Zm-4.5-3.76v8.73h-1.34v-8.73h1.34Zm5.53 0v8.73h-1.34v-8.73h1.34Zm4.85 8.93c-.55 0-1.05-.1-1.5-.3-.45-.22-.81-.52-1.07-.92-.27-.4-.4-.89-.4-1.46 0-.5.1-.9.3-1.21.19-.32.45-.56.78-.74.33-.18.7-.31 1.1-.4.4-.09.8-.16 1.2-.22l1.3-.15c.33-.04.57-.1.72-.19.16-.08.23-.23.23-.45v-.05c0-.56-.15-1-.46-1.3-.3-.31-.76-.47-1.38-.47a2.4 2.4 0 0 0-1.5.42c-.37.28-.62.58-.77.9l-1.27-.46c.22-.53.53-.94.9-1.23.39-.3.8-.51 1.26-.63a5.2 5.2 0 0 1 2.3-.08c.37.07.72.2 1.06.4.35.2.64.52.86.93.23.41.34.97.34 1.66v5.75h-1.34v-1.18H403a2.64 2.64 0 0 1-1.3 1.16c-.36.15-.79.22-1.3.22Zm.2-1.2c.54 0 .99-.1 1.35-.31a2.12 2.12 0 0 0 1.11-1.85v-1.23c-.05.07-.18.13-.37.2-.2.04-.41.1-.66.13a30.27 30.27 0 0 1-1.28.17c-.35.05-.68.12-.98.23-.3.1-.54.24-.73.44-.18.2-.27.47-.27.81 0 .47.17.82.51 1.06.35.23.8.35 1.33.35Zm10.43 1v-8.73h6.87v8.73h-1.35v-7.48h-4.18v7.48h-1.34Zm12.7.18c-.82 0-1.52-.2-2.11-.58a3.78 3.78 0 0 1-1.37-1.6 5.41 5.41 0 0 1-.48-2.32c0-.88.17-1.67.5-2.34a3.7 3.7 0 0 1 3.44-2.18c.61 0 1.16.11 1.66.34.49.23.9.55 1.2.95.32.41.52.9.6 1.44h-1.35a2.04 2.04 0 0 0-2.1-1.52c-.51 0-.97.13-1.36.4-.4.27-.7.65-.92 1.14a4.23 4.23 0 0 0-.32 1.73c0 .67.1 1.26.31 1.76.22.5.52.89.91 1.16.4.28.86.42 1.39.42.35 0 .66-.06.95-.18a1.95 1.95 0 0 0 1.14-1.35h1.34a3.1 3.1 0 0 1-1.74 2.37c-.48.24-1.05.36-1.69.36Zm6.57-2.16 4.2-6.75h1.55v8.73h-1.34v-6.75l-4.18 6.75h-1.57v-8.73h1.34v6.75Zm9.05-6.75 2.09 3.57 2.09-3.57h1.55l-2.82 4.37 2.82 4.36h-1.55l-2.1-3.39-2.08 3.39h-1.55l2.78-4.36-2.78-4.37h1.55ZM450 46.68a3.8 3.8 0 0 1-2.08-.56c-.59-.38-1.05-.9-1.38-1.57a5.32 5.32 0 0 1-.5-2.37c0-.9.16-1.7.5-2.38.33-.68.79-1.2 1.38-1.58a3.8 3.8 0 0 1 2.07-.56c.8 0 1.48.19 2.07.56.6.38 1.06.9 1.39 1.58.33.68.5 1.47.5 2.38 0 .9-.17 1.7-.5 2.37-.33.67-.8 1.2-1.39 1.57-.59.37-1.28.56-2.06.56Zm0-1.2c.6 0 1.09-.16 1.47-.46.39-.31.67-.71.86-1.21.19-.5.28-1.04.28-1.63 0-.58-.1-1.13-.28-1.63-.19-.5-.47-.91-.86-1.22a2.28 2.28 0 0 0-1.48-.47c-.6 0-1.09.16-1.47.47-.39.31-.67.72-.86 1.22-.19.5-.28 1.05-.28 1.63 0 .59.1 1.13.28 1.63.19.5.47.9.86 1.2.38.31.88.47 1.48.47Zm5.06 1.02v-1.25h.32c.26 0 .48-.05.66-.15.17-.11.31-.3.42-.55.1-.27.19-.64.25-1.1.06-.48.1-1.08.13-1.81l.16-3.87h5.81v8.73h-1.34v-7.48h-3.2l-.14 3.12c-.03.71-.1 1.34-.2 1.89-.09.54-.23 1-.43 1.36a2 2 0 0 1-.77.83 2.4 2.4 0 0 1-1.21.28h-.46Zm13.6.18a3.8 3.8 0 0 1-2.07-.56c-.6-.38-1.06-.9-1.4-1.57a5.33 5.33 0 0 1-.49-2.37c0-.9.17-1.7.5-2.38.33-.68.8-1.2 1.39-1.58a3.8 3.8 0 0 1 2.07-.56c.79 0 1.48.19 2.07.56.6.38 1.06.9 1.38 1.58.34.68.5 1.47.5 2.38 0 .9-.16 1.7-.5 2.37-.32.67-.79 1.2-1.38 1.57-.6.37-1.28.56-2.07.56Zm0-1.2c.6 0 1.1-.16 1.48-.46.38-.31.67-.71.86-1.21.18-.5.27-1.04.27-1.63 0-.58-.09-1.13-.27-1.63-.2-.5-.48-.91-.86-1.22a2.28 2.28 0 0 0-1.48-.47c-.6 0-1.1.16-1.48.47-.38.31-.67.72-.86 1.22a4.7 4.7 0 0 0-.27 1.63c0 .59.09 1.13.27 1.63.19.5.48.9.86 1.2.39.31.88.47 1.48.47Zm11.23-7.7v1.24h-4.05v7.48h-1.34v-8.73h5.39Zm1.8 8.72v-8.73h1.34v8.73h-1.35Zm.68-10.18a.96.96 0 0 1-.68-.27.86.86 0 0 1-.28-.64c0-.25.1-.46.28-.64a.96.96 0 0 1 .68-.27c.26 0 .48.09.67.27.19.18.28.39.28.64s-.1.46-.28.64a.93.93 0 0 1-.67.27Zm8.2 10.18V39h-2.32c-.52 0-.93.12-1.23.36-.3.25-.45.58-.45 1 0 .42.14.75.4.99.28.24.65.35 1.12.35h2.82v1.25h-2.82c-.59 0-1.1-.1-1.52-.3-.43-.22-.76-.51-1-.9a2.67 2.67 0 0 1-.34-1.39c0-.53.12-1 .36-1.38.25-.39.6-.69 1.04-.9.46-.2 1-.3 1.62-.3h3.6v8.72h-1.28Zm-5.82 0 2.48-4.34h1.45l-2.47 4.34h-1.46ZM323 68.36c-.46 0-.88-.1-1.26-.33a2.62 2.62 0 0 1-.9-.91c-.23-.38-.34-.8-.34-1.26 0-.46.11-.88.33-1.25.23-.38.54-.68.91-.9.38-.23.8-.35 1.26-.35a2.52 2.52 0 0 1 2.5 2.5 2.57 2.57 0 0 1-1.24 2.16c-.38.23-.8.34-1.26.34Zm13.4 2.14V58.86h7.03v1.25h-5.61v3.64h2.95c.84 0 1.54.14 2.11.4.58.28 1.01.67 1.3 1.16.3.5.46 1.08.46 1.76 0 .67-.15 1.27-.45 1.78-.3.52-.73.92-1.3 1.21a4.6 4.6 0 0 1-2.12.44h-4.36Zm1.42-1.23h2.95c.53 0 .98-.1 1.35-.32a2.2 2.2 0 0 0 1.13-1.9 1.9 1.9 0 0 0-.64-1.44c-.43-.4-1.04-.61-1.84-.61h-2.95v4.27Zm8.8 1.23v-8.73h1.33v8.73h-1.34Zm.68-10.18a.95.95 0 0 1-.68-.27.86.86 0 0 1-.28-.64c0-.25.1-.46.28-.64a.95.95 0 0 1 .68-.27c.26 0 .48.09.67.27.19.18.28.39.28.64s-.1.46-.28.64a.93.93 0 0 1-.67.27Zm2.4 7.95h1.44c.03.4.2.7.53.9.33.2.76.3 1.29.3s1-.1 1.38-.32c.38-.23.57-.59.57-1.08a1.34 1.34 0 0 0-.82-1.27 2.18 2.18 0 0 0-.93-.19h-1.5v-1.2h1.5c.53 0 .93-.12 1.18-.36.26-.25.39-.55.39-.91 0-.4-.14-.7-.42-.94a1.75 1.75 0 0 0-1.17-.36c-.51 0-.94.12-1.28.35a1.1 1.1 0 0 0-.54.88h-1.41c.01-.47.16-.89.43-1.25a2.7 2.7 0 0 1 1.12-.85c.47-.2 1-.31 1.6-.31.62 0 1.15.1 1.6.32.46.22.81.5 1.06.87s.37.78.37 1.24c0 .5-.14.9-.41 1.2-.28.3-.63.51-1.04.64v.1c.33.02.61.12.86.31.24.19.43.43.57.73.14.3.2.63.2 1 0 .53-.14 1-.42 1.38-.29.4-.68.7-1.17.91-.5.22-1.06.32-1.7.32-.62 0-1.17-.1-1.66-.3-.49-.2-.88-.49-1.17-.85a2.1 2.1 0 0 1-.44-1.26Zm14.14-2.75v1.25h-4.82v-1.25h4.82Zm-4.5-3.75v8.73H358v-8.73h1.34Zm5.52 0v8.73h-1.34v-8.73h1.34Zm5.95 8.91a3.74 3.74 0 0 1-3.58-2.13 5.36 5.36 0 0 1-.49-2.35c0-.89.16-1.68.49-2.36.33-.68.79-1.22 1.37-1.6a3.7 3.7 0 0 1 2.07-.58c.46 0 .9.07 1.35.23a3.33 3.33 0 0 1 2.08 2.08c.21.55.32 1.24.32 2.05v.57h-6.73v-1.16h5.37c0-.5-.1-.93-.3-1.32a2.22 2.22 0 0 0-2.09-1.25c-.53 0-1 .14-1.38.4-.39.26-.69.6-.9 1.02a3 3 0 0 0-.3 1.36v.77c0 .66.1 1.22.33 1.68.23.45.55.8.96 1.03.41.24.89.36 1.43.36.35 0 .67-.05.95-.15.3-.1.54-.25.75-.45.2-.2.37-.46.48-.77l1.3.37c-.14.44-.37.82-.7 1.16-.31.33-.71.58-1.19.77-.47.18-1 .27-1.6.27Zm9.04 0c-.82 0-1.53-.2-2.12-.58a3.78 3.78 0 0 1-1.36-1.6 5.41 5.41 0 0 1-.48-2.32c0-.88.17-1.67.5-2.34a3.7 3.7 0 0 1 3.44-2.18c.6 0 1.16.11 1.65.34a2.97 2.97 0 0 1 1.8 2.39h-1.34a2.04 2.04 0 0 0-2.1-1.52c-.51 0-.97.13-1.37.4-.39.27-.7.65-.91 1.14a4.23 4.23 0 0 0-.33 1.73c0 .67.11 1.26.32 1.76.22.5.52.89.91 1.16.4.28.86.42 1.39.42.35 0 .66-.06.95-.18a1.96 1.96 0 0 0 1.14-1.35h1.34a3.11 3.11 0 0 1-1.74 2.37c-.48.24-1.05.36-1.7.36Zm9.57-.18v-8.73h6.86v8.73h-1.34v-7.48h-4.18v7.48h-1.34Zm12.7.18c-.82 0-1.52-.2-2.12-.58a3.78 3.78 0 0 1-1.36-1.6 5.41 5.41 0 0 1-.48-2.32c0-.88.17-1.67.5-2.34a3.7 3.7 0 0 1 3.44-2.18c.6 0 1.16.11 1.65.34a2.97 2.97 0 0 1 1.8 2.39h-1.34a2.04 2.04 0 0 0-2.1-1.52c-.51 0-.97.13-1.37.4-.39.27-.7.65-.91 1.14a4.23 4.23 0 0 0-.33 1.73c0 .67.11 1.26.32 1.76.22.5.52.89.91 1.16.4.28.86.42 1.39.42.35 0 .66-.06.95-.18a1.96 1.96 0 0 0 1.14-1.35h1.34a3.11 3.11 0 0 1-1.74 2.37c-.48.24-1.05.36-1.7.36Zm6.57-2.16 4.2-6.75h1.55v8.73h-1.34v-6.75l-4.18 6.75h-1.57v-8.73h1.34v6.75Zm9.05-6.75 2.09 3.57 2.09-3.57h1.54l-2.81 4.37 2.81 4.36h-1.54l-2.1-3.39-2.08 3.39h-1.55l2.77-4.36-2.77-4.37h1.55Zm10.66 8.91a3.8 3.8 0 0 1-2.07-.56 3.82 3.82 0 0 1-1.39-1.57 5.33 5.33 0 0 1-.5-2.37c0-.9.17-1.7.5-2.38.34-.68.8-1.2 1.39-1.58a3.8 3.8 0 0 1 2.07-.56c.8 0 1.48.19 2.07.56.6.38 1.06.9 1.39 1.58.33.68.5 1.47.5 2.38 0 .9-.17 1.7-.5 2.37-.33.67-.8 1.2-1.39 1.57-.59.37-1.28.56-2.07.56Zm0-1.2c.6 0 1.1-.16 1.48-.46.39-.31.67-.71.86-1.21.18-.5.28-1.04.28-1.63 0-.58-.1-1.13-.28-1.63-.19-.5-.47-.91-.86-1.22a2.29 2.29 0 0 0-1.48-.47c-.6 0-1.09.16-1.47.47-.39.31-.68.72-.86 1.22a4.7 4.7 0 0 0-.28 1.63c0 .59.1 1.13.28 1.63.18.5.47.9.86 1.2.38.31.88.47 1.47.47Zm5.07 1.02v-1.25h.32c.26 0 .48-.05.65-.15.18-.1.32-.3.42-.55.11-.27.2-.64.25-1.1.06-.48.1-1.08.13-1.81l.16-3.87h5.82v8.73h-1.34v-7.48h-3.2l-.14 3.12c-.03.71-.1 1.34-.2 1.89-.09.54-.23 1-.43 1.36a2 2 0 0 1-.77.83 2.4 2.4 0 0 1-1.21.28h-.46Zm13.6.18a3.8 3.8 0 0 1-2.08-.56c-.59-.38-1.05-.9-1.38-1.57a5.33 5.33 0 0 1-.5-2.37c0-.9.17-1.7.5-2.38.33-.68.8-1.2 1.38-1.58a3.8 3.8 0 0 1 2.08-.56c.79 0 1.48.19 2.07.56.6.38 1.05.9 1.38 1.58.34.68.5 1.47.5 2.38 0 .9-.16 1.7-.5 2.37-.33.67-.79 1.2-1.38 1.57-.6.37-1.28.56-2.07.56Zm0-1.2c.6 0 1.09-.16 1.48-.46.38-.31.67-.71.85-1.21.19-.5.28-1.04.28-1.63 0-.58-.1-1.13-.28-1.63-.18-.5-.47-.91-.85-1.22a2.28 2.28 0 0 0-1.48-.47c-.6 0-1.1.16-1.48.47-.39.31-.67.72-.86 1.22a4.7 4.7 0 0 0-.28 1.63c0 .59.1 1.13.28 1.63.19.5.47.9.86 1.2.39.31.88.47 1.48.47Zm11.23-7.7v1.24h-4.05v7.48h-1.34v-8.73h5.39Zm1.8 8.72v-8.73h1.33v8.73h-1.34Zm.67-10.18a.95.95 0 0 1-.67-.27.86.86 0 0 1-.28-.64c0-.25.1-.46.28-.64a.95.95 0 0 1 .67-.27c.27 0 .49.09.68.27.19.18.28.39.28.64s-.1.46-.29.64a.93.93 0 0 1-.67.27Zm8.21 10.18V63h-2.32c-.52 0-.93.12-1.23.36-.3.25-.45.58-.45 1 0 .42.13.75.4.99.28.24.65.35 1.12.35h2.82v1.25h-2.82c-.59 0-1.1-.1-1.53-.3a2.3 2.3 0 0 1-.99-.9 2.67 2.67 0 0 1-.34-1.39c0-.53.12-1 .36-1.38.25-.39.6-.69 1.04-.9.46-.2 1-.3 1.62-.3h3.6v8.72h-1.28Zm-5.82 0 2.48-4.34h1.45l-2.47 4.34h-1.46ZM515 44.36c-.46 0-.88-.1-1.26-.33a2.62 2.62 0 0 1-.9-.91c-.23-.38-.34-.8-.34-1.26 0-.46.11-.88.34-1.25.22-.38.53-.68.9-.9.38-.23.8-.35 1.26-.35a2.52 2.52 0 0 1 2.5 2.5 2.57 2.57 0 0 1-1.24 2.16c-.38.23-.8.34-1.26.34Zm22.11-9.5V46.5h-1.4V36.11h-5.87V46.5h-1.4V34.86h8.67Zm3.85 9.66 4.2-6.75h1.55v8.73h-1.35v-6.75l-4.18 6.75h-1.57v-8.73h1.35v6.75Zm6.85-5.5v-1.25h7.1v1.25h-2.87v7.48h-1.34v-7.48h-2.89Zm11 7.68c-.55 0-1.05-.1-1.5-.3-.45-.22-.8-.52-1.07-.92s-.4-.89-.4-1.46c0-.5.1-.9.3-1.21.2-.32.45-.56.78-.74.33-.18.7-.31 1.1-.4.4-.09.8-.16 1.2-.22l1.3-.15c.33-.04.57-.1.72-.19.16-.08.24-.23.24-.45v-.05c0-.56-.16-1-.47-1.3-.3-.31-.76-.47-1.38-.47-.64 0-1.14.14-1.5.42-.37.28-.62.58-.77.9l-1.27-.46c.23-.53.53-.94.9-1.23.39-.3.8-.51 1.26-.63a5.2 5.2 0 0 1 2.3-.08c.37.07.73.2 1.07.4.34.2.63.52.86.93.22.41.34.97.34 1.66v5.75h-1.35v-1.18h-.06a2.62 2.62 0 0 1-1.3 1.16c-.36.15-.79.22-1.3.22Zm.21-1.2c.53 0 .98-.1 1.34-.31a2.12 2.12 0 0 0 1.12-1.85v-1.23c-.06.07-.19.13-.38.2-.19.04-.41.1-.66.13a29.56 29.56 0 0 1-1.28.17c-.35.05-.68.12-.98.23-.3.1-.54.24-.73.44-.18.2-.27.47-.27.81 0 .47.17.82.52 1.06.34.23.79.35 1.32.35Zm11.92-3.98v1.25h-4.81v-1.25h4.81Zm-4.5-3.75v8.73h-1.34v-8.73h1.34Zm5.53 0v8.73h-1.34v-8.73h1.34Zm8.13 3.75v1.25h-4.82v-1.25h4.82Zm-4.5-3.75v8.73h-1.35v-8.73h1.35Zm5.52 0v8.73h-1.34v-8.73h1.34Zm7.54 8.73V39h-2.32c-.52 0-.93.12-1.23.36-.3.25-.45.58-.45 1 0 .42.13.75.4.99s.65.35 1.12.35H589v1.25h-2.82c-.59 0-1.1-.1-1.53-.3-.43-.22-.75-.51-.99-.9a2.67 2.67 0 0 1-.34-1.39c0-.53.12-1 .36-1.38.24-.39.59-.69 1.04-.9.45-.2 1-.3 1.62-.3h3.6v8.72h-1.28Zm-5.82 0 2.48-4.34h1.45l-2.48 4.34h-1.45Zm12.8 2.5v-3.75h.73a3.35 3.35 0 0 0 .8-1.37c.1-.3.18-.66.24-1.09.07-.43.13-.95.19-1.56l.29-3.46h5.55v7.48h1.34V49h-1.34v-2.5h-6.46V49h-1.34Zm2.25-3.75h4.2v-6.23h-2.95l-.23 2.2c-.1.92-.2 1.72-.35 2.4a4.01 4.01 0 0 1-.67 1.63Zm9.37 4.52a2.94 2.94 0 0 1-.98-.16l.34-1.18c.33.09.62.12.87.1.25-.03.47-.14.66-.34.2-.2.38-.52.54-.96l.25-.68-3.23-8.78h1.46l2.4 6.96h.1l2.4-6.96h1.46l-3.7 10c-.17.45-.38.83-.62 1.12-.25.3-.53.52-.86.67-.32.14-.68.21-1.09.21Zm7.88-12h1.34v7.48h3.3v-7.48h1.34v7.48h3.3v-7.48h1.34v8.73h-10.62v-8.73Zm12.9 8.73v-8.73h1.35v8.73h-1.35Zm.69-10.18a.95.95 0 0 1-.68-.27.86.86 0 0 1-.28-.64c0-.25.1-.46.28-.64a.95.95 0 0 1 .68-.27c.26 0 .48.09.67.27.19.18.28.39.28.64s-.1.46-.28.64a.93.93 0 0 1-.67.27Zm6.8 2.7v-1.25h7.08v1.25h-2.86v7.48h-1.34v-7.48h-2.89Zm11 7.68c-.56 0-1.06-.1-1.51-.3-.45-.22-.81-.52-1.07-.92-.27-.4-.4-.89-.4-1.46 0-.5.1-.9.3-1.21.19-.32.45-.56.78-.74.33-.18.7-.31 1.1-.4.4-.09.8-.16 1.2-.22l1.3-.15c.33-.04.57-.1.72-.19.16-.08.23-.23.23-.45v-.05c0-.56-.15-1-.46-1.3-.3-.31-.76-.47-1.38-.47a2.4 2.4 0 0 0-1.5.42c-.37.28-.62.58-.77.9l-1.27-.46c.22-.53.53-.94.9-1.23.39-.3.8-.51 1.26-.63a5.2 5.2 0 0 1 2.3-.08c.37.07.72.2 1.07.4.34.2.63.52.85.93.23.41.34.97.34 1.66v5.75h-1.34v-1.18h-.06a2.64 2.64 0 0 1-1.3 1.16c-.36.15-.79.22-1.3.22Zm.2-1.2c.53 0 .98-.1 1.34-.31a2.12 2.12 0 0 0 1.11-1.85v-1.23c-.05.07-.18.13-.37.2-.2.04-.41.1-.66.13a30.27 30.27 0 0 1-1.28.17c-.35.05-.68.12-.98.23-.3.1-.54.24-.73.44-.18.2-.27.47-.27.81 0 .47.17.82.51 1.06.35.23.8.35 1.33.35Zm10.6 1V34.86h7.03v1.25h-5.62v3.64h2.96c.83 0 1.53.14 2.1.4.58.28 1.02.67 1.31 1.16.3.5.45 1.08.45 1.76 0 .67-.15 1.27-.45 1.78-.3.52-.73.92-1.3 1.21a4.6 4.6 0 0 1-2.11.44h-4.37Zm1.41-1.23h2.96c.53 0 .98-.1 1.34-.32a2.22 2.22 0 0 0 1.13-1.9 1.9 1.9 0 0 0-.64-1.44c-.43-.4-1.04-.61-1.83-.61h-2.96v4.27Zm12.34 1.41a3.8 3.8 0 0 1-2.07-.56c-.6-.38-1.05-.9-1.39-1.57a5.32 5.32 0 0 1-.5-2.37c0-.9.17-1.7.5-2.38.34-.68.8-1.2 1.39-1.58a3.8 3.8 0 0 1 2.07-.56c.8 0 1.48.19 2.07.56.6.38 1.06.9 1.39 1.58.33.68.5 1.47.5 2.38 0 .9-.17 1.7-.5 2.37-.33.67-.8 1.2-1.39 1.57-.59.37-1.28.56-2.07.56Zm0-1.2c.6 0 1.1-.16 1.48-.46.39-.31.67-.71.86-1.21.19-.5.28-1.04.28-1.63 0-.58-.1-1.13-.28-1.63-.19-.5-.47-.91-.86-1.22a2.28 2.28 0 0 0-1.48-.47c-.6 0-1.09.16-1.47.47-.39.31-.68.72-.86 1.22-.19.5-.28 1.05-.28 1.63 0 .59.1 1.13.28 1.63.18.5.47.9.86 1.2.38.31.88.47 1.47.47Zm11.23-7.7v1.24h-4.04v7.48h-1.35v-8.73h5.4Zm3.91 8.92c-.55 0-1.05-.1-1.5-.3-.45-.22-.81-.52-1.08-.92-.26-.4-.4-.89-.4-1.46 0-.5.1-.9.3-1.21.2-.32.46-.56.8-.74.32-.18.68-.31 1.08-.4.4-.09.8-.16 1.21-.22l1.3-.15c.33-.04.57-.1.72-.19.16-.08.23-.23.23-.45v-.05c0-.56-.15-1-.46-1.3-.3-.31-.76-.47-1.38-.47a2.4 2.4 0 0 0-1.5.42c-.37.28-.62.58-.77.9l-1.27-.46c.22-.53.53-.94.9-1.23.39-.3.8-.51 1.26-.63a5.2 5.2 0 0 1 2.3-.08c.37.07.72.2 1.06.4.35.2.64.52.86.93.23.41.34.97.34 1.66v5.75h-1.34v-1.18h-.06a2.64 2.64 0 0 1-1.3 1.16c-.36.15-.79.22-1.3.22Zm.2-1.2c.54 0 .99-.1 1.35-.31a2.12 2.12 0 0 0 1.11-1.85v-1.23c-.05.07-.18.13-.37.2-.2.04-.41.1-.66.13a30.27 30.27 0 0 1-1.28.17c-.35.05-.68.12-.98.23-.3.1-.54.24-.73.44-.18.2-.27.47-.27.81 0 .47.17.82.51 1.06.35.23.8.35 1.33.35ZM515 68.36c-.46 0-.88-.1-1.26-.33a2.62 2.62 0 0 1-.9-.91c-.23-.38-.34-.8-.34-1.26 0-.46.11-.88.34-1.25.22-.38.53-.68.9-.9.38-.23.8-.35 1.26-.35a2.52 2.52 0 0 1 2.5 2.5 2.57 2.57 0 0 1-1.24 2.16c-.38.23-.8.34-1.26.34Zm22.11-9.5V70.5h-1.4V60.11h-5.87V70.5h-1.4V58.86h8.67Zm2.5 14.91v-12h1.3v1.39h.16l.4-.58c.19-.24.44-.45.77-.64s.78-.28 1.35-.28a3.47 3.47 0 0 1 3.26 2.11c.31.68.47 1.47.47 2.39 0 .92-.16 1.72-.47 2.4a3.42 3.42 0 0 1-3.23 2.12c-.57 0-1.01-.1-1.35-.28a2.5 2.5 0 0 1-.78-.64 8.36 8.36 0 0 1-.42-.6h-.12v4.61h-1.34Zm1.32-7.63c0 .66.1 1.24.3 1.74.18.5.47.9.84 1.18.37.28.82.42 1.36.42a2.2 2.2 0 0 0 1.4-.45c.38-.3.67-.7.86-1.2.2-.5.29-1.07.29-1.7 0-.6-.1-1.16-.29-1.65-.18-.5-.46-.9-.84-1.18-.38-.29-.85-.44-1.42-.44a2.24 2.24 0 0 0-2.21 1.57 4.73 4.73 0 0 0-.29 1.7Zm10.84 4.56c-.55 0-1.05-.1-1.5-.3-.45-.22-.81-.53-1.08-.92-.26-.4-.4-.89-.4-1.46 0-.5.1-.9.3-1.21.2-.32.46-.56.79-.74.33-.18.7-.31 1.1-.4.4-.1.8-.16 1.2-.22l1.3-.15c.32-.04.57-.1.72-.19.15-.08.23-.23.23-.45v-.05c0-.56-.15-1-.46-1.3-.3-.31-.76-.47-1.38-.47-.64 0-1.14.14-1.5.42-.37.28-.62.58-.77.9l-1.28-.46c.23-.53.54-.94.91-1.23.39-.3.8-.51 1.25-.63a5.2 5.2 0 0 1 2.31-.08c.37.07.72.2 1.06.4.35.2.63.52.86.93.23.41.34.97.34 1.66v5.75h-1.34v-1.18h-.07a2.63 2.63 0 0 1-1.3 1.16c-.35.15-.78.22-1.29.22Zm.2-1.2c.54 0 .98-.1 1.35-.31a2.12 2.12 0 0 0 1.11-1.85v-1.23c-.05.07-.18.13-.37.2-.2.04-.41.1-.66.13a29.56 29.56 0 0 1-1.29.17c-.35.05-.67.12-.97.23-.3.1-.55.24-.73.44-.18.2-.27.47-.27.81 0 .47.17.82.51 1.06.35.23.8.35 1.33.35Zm12.95-7.73v7.48h1.23v4.07h-1.34V70.5h-6.75v-8.73h1.34v7.48h4.18v-7.48h1.34Zm7.32 3.82v1.25h-4.62V65.6h4.62Zm-3.48-3.82v8.73h-1.34v-8.73h1.34Zm6.16 8.91a3.8 3.8 0 0 1-2.07-.56c-.6-.38-1.06-.9-1.4-1.57a5.33 5.33 0 0 1-.49-2.37c0-.9.17-1.7.5-2.38.33-.68.8-1.2 1.39-1.58a3.8 3.8 0 0 1 2.07-.56c.79 0 1.48.19 2.07.56.6.38 1.05.9 1.38 1.58.34.68.5 1.47.5 2.38 0 .9-.16 1.7-.5 2.37-.33.67-.79 1.2-1.38 1.57-.6.37-1.28.56-2.07.56Zm0-1.2c.6 0 1.1-.16 1.48-.46.38-.31.67-.71.86-1.21.18-.5.27-1.04.27-1.63 0-.58-.09-1.13-.27-1.63-.2-.5-.48-.91-.86-1.22a2.28 2.28 0 0 0-1.48-.47c-.6 0-1.1.16-1.48.47-.38.31-.67.72-.86 1.22a4.7 4.7 0 0 0-.27 1.63c0 .59.09 1.13.27 1.63.19.5.48.9.86 1.2.39.31.88.47 1.48.47Zm10.16-3.89v1.25h-4.62V65.6h4.62Zm-3.48-3.82v8.73h-1.34v-8.73h1.34Zm6.16 8.91a3.8 3.8 0 0 1-2.07-.56c-.6-.38-1.06-.9-1.4-1.57a5.33 5.33 0 0 1-.49-2.37c0-.9.17-1.7.5-2.38.33-.68.8-1.2 1.39-1.58a3.8 3.8 0 0 1 2.07-.56c.79 0 1.48.19 2.07.56.6.38 1.05.9 1.38 1.58.34.68.5 1.47.5 2.38 0 .9-.16 1.7-.5 2.37-.33.67-.79 1.2-1.38 1.57-.6.37-1.28.56-2.07.56Zm0-1.2c.6 0 1.1-.16 1.48-.46.38-.31.67-.71.86-1.21.18-.5.27-1.04.27-1.63 0-.58-.09-1.13-.27-1.63-.2-.5-.48-.91-.86-1.22a2.28 2.28 0 0 0-1.48-.47c-.6 0-1.1.16-1.48.47-.38.31-.67.72-.86 1.22a4.7 4.7 0 0 0-.27 1.63c0 .59.09 1.13.27 1.63.19.5.48.9.86 1.2.39.31.88.47 1.48.47Zm9.77-1.2h1.43c.03.39.21.69.54.9.33.2.75.3 1.28.3.54 0 1-.11 1.38-.33.38-.23.58-.59.58-1.08a1.34 1.34 0 0 0-.83-1.27 2.18 2.18 0 0 0-.92-.19h-1.5v-1.2h1.5c.53 0 .92-.12 1.18-.36.25-.25.38-.55.38-.91 0-.4-.13-.7-.41-.94a1.75 1.75 0 0 0-1.18-.36c-.5 0-.94.12-1.28.35a1.1 1.1 0 0 0-.54.88h-1.4c.01-.47.15-.89.43-1.25a2.7 2.7 0 0 1 1.11-.85c.47-.2 1-.31 1.61-.31.62 0 1.15.1 1.6.32.46.22.8.5 1.05.87s.38.78.38 1.24c0 .5-.14.9-.42 1.2-.27.3-.62.51-1.04.64v.1c.33.02.62.12.86.31.25.19.44.43.57.73.14.3.2.63.2 1 0 .53-.13 1-.42 1.38-.28.4-.67.7-1.17.91-.5.22-1.06.32-1.7.32-.61 0-1.17-.1-1.66-.3-.48-.2-.87-.49-1.16-.85a2.1 2.1 0 0 1-.45-1.26Zm12.63 2.22v-8.73h3.57c.94 0 1.69.21 2.24.64.55.42.83.98.83 1.68 0 .53-.16.94-.47 1.23a2.5 2.5 0 0 1-1.21.59 2.48 2.48 0 0 1 1.7 1.09c.2.31.3.7.3 1.16a2.17 2.17 0 0 1-1.32 2.03c-.43.2-.93.31-1.52.31h-4.12Zm1.27-1.23h2.85c.46 0 .82-.1 1.08-.33.26-.22.4-.52.4-.9 0-.45-.14-.8-.4-1.06s-.62-.39-1.08-.39h-2.85v2.68Zm0-3.84h2.3c.36 0 .67-.05.93-.15.25-.1.45-.24.59-.43.14-.19.2-.41.2-.67a.99.99 0 0 0-.45-.86 2.2 2.2 0 0 0-1.27-.32h-2.3v2.43ZM619 70.5v-8.73h1.34v8.73h-1.34Zm.68-10.18a.95.95 0 0 1-.68-.27.86.86 0 0 1-.28-.64c0-.25.1-.46.28-.64a.95.95 0 0 1 .68-.27c.26 0 .48.09.67.27.19.18.28.39.28.64s-.1.46-.28.64a.93.93 0 0 1-.67.27Zm4.3 8.2 4.2-6.75h1.54v8.73h-1.34v-6.75l-4.18 6.75h-1.57v-8.73h1.34v6.75Zm3.31-9.66h1.25c0 .62-.21 1.12-.63 1.5-.43.4-1 .6-1.73.6-.72 0-1.29-.2-1.71-.6-.42-.38-.63-.88-.63-1.5h1.25c0 .3.08.56.24.78.17.23.45.34.85.34.4 0 .68-.11.85-.34.18-.22.26-.48.26-.78Zm8.28 11.82c-.82 0-1.53-.2-2.12-.58a3.77 3.77 0 0 1-1.36-1.6 5.4 5.4 0 0 1-.48-2.32c0-.88.16-1.67.49-2.34a3.7 3.7 0 0 1 3.44-2.18c.62 0 1.17.11 1.66.34a2.97 2.97 0 0 1 1.8 2.39h-1.34a2.04 2.04 0 0 0-2.1-1.52c-.52 0-.98.13-1.37.4-.39.27-.7.65-.91 1.14a4.23 4.23 0 0 0-.33 1.73c0 .67.1 1.26.32 1.76s.52.89.9 1.16c.4.28.87.42 1.4.42.34 0 .66-.06.95-.18a1.96 1.96 0 0 0 1.14-1.35h1.34a3.11 3.11 0 0 1-1.74 2.37c-.49.24-1.05.36-1.7.36Zm6.39-5.75h2.5c1.02 0 1.8.26 2.34.78.55.52.82 1.18.82 1.97 0 .52-.13 1-.37 1.43-.24.42-.6.76-1.07 1.02-.46.25-1.04.37-1.72.37h-3.66v-8.73h1.34v7.48h2.32a2 2 0 0 0 1.3-.42c.35-.28.51-.64.51-1.08 0-.46-.16-.84-.5-1.13-.35-.3-.78-.44-1.31-.44h-2.5v-1.25Zm7.54 5.57v-8.73h1.34v3.8h.88l3.14-3.8h1.73l-3.53 4.2 3.57 4.53h-1.72l-2.87-3.68h-1.2v3.68h-1.34Zm11.62.18a3.8 3.8 0 0 1-2.08-.56c-.59-.38-1.05-.9-1.38-1.57a5.32 5.32 0 0 1-.5-2.37c0-.9.17-1.7.5-2.38.33-.68.8-1.2 1.38-1.58a3.8 3.8 0 0 1 2.08-.56c.78 0 1.47.19 2.06.56.6.38 1.06.9 1.4 1.58.32.68.5 1.47.5 2.38 0 .9-.18 1.7-.5 2.37a3.78 3.78 0 0 1-3.46 2.14Zm0-1.2c.6 0 1.09-.16 1.47-.46.4-.31.68-.71.86-1.21.19-.5.28-1.04.28-1.63 0-.58-.1-1.13-.28-1.63-.18-.5-.47-.91-.86-1.22a2.28 2.28 0 0 0-1.47-.47c-.6 0-1.1.16-1.48.47-.39.31-.67.72-.86 1.22-.18.5-.28 1.05-.28 1.63 0 .59.1 1.13.28 1.63.19.5.47.9.86 1.2.39.31.88.47 1.48.47Zm5.84 1.02v-8.73h3.57c.94 0 1.68.21 2.24.64.55.42.83.98.83 1.68 0 .53-.16.94-.48 1.23a2.5 2.5 0 0 1-1.2.59 2.49 2.49 0 0 1 1.7 1.09c.2.31.3.7.3 1.16a2.17 2.17 0 0 1-1.32 2.03c-.43.2-.94.31-1.53.31h-4.11Zm1.27-1.23h2.84c.46 0 .83-.1 1.09-.33.26-.22.39-.52.39-.9 0-.45-.13-.8-.4-1.06-.25-.26-.62-.39-1.08-.39h-2.84v2.68Zm0-3.84h2.3c.36 0 .66-.05.92-.15.26-.1.46-.24.6-.43.13-.19.2-.41.2-.67a.99.99 0 0 0-.46-.86 2.2 2.2 0 0 0-1.26-.32h-2.3v2.43Zm8.9 3.1 4.2-6.76h1.54v8.73h-1.34v-6.75l-4.18 6.75h-1.57v-8.73h1.34v6.75Zm12.81.15 3.05-6.9h1.27l-3.77 8.72h-1.1l-3.7-8.73h1.25l3 6.91Zm-3.43-6.9v8.72h-1.34v-8.73h1.34Zm6.86 8.72v-8.73h1.35v8.73h-1.35Zm4.98-1.98 4.2-6.75h1.55v8.73h-1.34v-6.75l-4.18 6.75H697v-8.73h1.34v6.75Z" fill="#02344A"/></g><defs><clipPath id="a"><path fill="#fff" d="M0 0h768v105H0z"/></clipPath></defs></svg>