<svg width="1718" height="104" viewBox="0 0 1718 104" fill="none" xmlns="http://www.w3.org/2000/svg">
<g clip-path="url(#clip0_6211_9161)">
<rect width="1718" height="104" fill="#E6F7FE"/>
<path d="M178.508 104.648C178.508 104.648 148.627 89.2934 104.322 91.5304C65.4828 93.4914 71.3695 51.7556 22.2585 66.9225C-26.8526 82.0894 -43.4037 128.913 -43.4037 128.913" stroke="#E99E45"/>
<path d="M142.55 109.437C142.55 109.437 120.677 62.9428 82.766 62.7232C49.1988 62.5288 49.3544 77.1346 23.5685 90.6666C-2.21732 104.199 -56.4169 115.584 -56.4169 115.584" stroke="#E99E45"/>
<path d="M149.139 131.272C149.139 131.272 126.496 116.163 92.7466 118.758C63.1614 121.033 67.9377 79.2596 30.4384 94.8207C-7.061 110.382 -19.9929 157.328 -19.9929 157.328" stroke="#E99E45"/>
<path d="M154.196 113.332C154.196 113.332 128.451 98.1174 90.1791 100.559C56.6287 102.7 61.8808 60.9424 19.4058 76.3346C-23.0693 91.7268 -37.552 138.62 -37.552 138.62" stroke="#E99E45"/>
<path d="M93.6913 32V18.9091H96.0628V24.451H102.129V18.9091H104.507V32H102.129V26.4389H96.0628V32H93.6913ZM111.15 32.1918C110.166 32.1918 109.316 31.9872 108.6 31.5781C107.888 31.1648 107.34 30.581 106.957 29.8267C106.573 29.0682 106.382 28.1754 106.382 27.1484C106.382 26.1385 106.573 25.2521 106.957 24.4893C107.345 23.7223 107.886 23.1257 108.581 22.6996C109.275 22.2692 110.091 22.054 111.029 22.054C111.634 22.054 112.205 22.152 112.742 22.348C113.283 22.5398 113.76 22.8381 114.174 23.2429C114.591 23.6477 114.919 24.1634 115.158 24.7898C115.397 25.4119 115.516 26.1534 115.516 27.0142V27.7237H107.468V26.1641H113.298C113.294 25.7209 113.198 25.3267 113.01 24.9815C112.823 24.6321 112.561 24.3572 112.224 24.157C111.892 23.9567 111.504 23.8565 111.061 23.8565C110.588 23.8565 110.172 23.9716 109.814 24.2017C109.456 24.4276 109.177 24.7259 108.977 25.0966C108.781 25.4631 108.681 25.8658 108.676 26.3047V27.6662C108.676 28.2372 108.781 28.7273 108.99 29.1364C109.198 29.5412 109.49 29.8523 109.865 30.0696C110.24 30.2827 110.679 30.3892 111.182 30.3892C111.519 30.3892 111.823 30.3423 112.096 30.2486C112.369 30.1506 112.605 30.0078 112.806 29.8203C113.006 29.6328 113.157 29.4006 113.26 29.1236L115.42 29.3665C115.284 29.9375 115.024 30.4361 114.64 30.8622C114.261 31.2841 113.775 31.6122 113.183 31.8466C112.59 32.0767 111.913 32.1918 111.15 32.1918ZM116.475 24.0803V22.1818H125.066V24.0803H121.889V32H119.652V24.0803H116.475ZM128.96 28.8679L132.891 22.1818H135.268V32H133.031V25.3075L129.113 32H126.729V22.1818H128.96V28.8679ZM137.465 32V22.1818H145.755V32H143.524V24.0803H139.676V32H137.465ZM152.237 32.1918C151.279 32.1918 150.448 31.9808 149.744 31.5589C149.041 31.1371 148.496 30.5469 148.108 29.7884C147.725 29.0298 147.533 28.1435 147.533 27.1293C147.533 26.1151 147.725 25.2266 148.108 24.4638C148.496 23.701 149.041 23.1087 149.744 22.6868C150.448 22.2649 151.279 22.054 152.237 22.054C153.196 22.054 154.027 22.2649 154.73 22.6868C155.433 23.1087 155.977 23.701 156.36 24.4638C156.748 25.2266 156.942 26.1151 156.942 27.1293C156.942 28.1435 156.748 29.0298 156.36 29.7884C155.977 30.5469 155.433 31.1371 154.73 31.5589C154.027 31.9808 153.196 32.1918 152.237 32.1918ZM152.25 30.3381C152.77 30.3381 153.205 30.1953 153.554 29.9098C153.904 29.62 154.163 29.2322 154.334 28.7464C154.509 28.2607 154.596 27.7195 154.596 27.1229C154.596 26.522 154.509 25.9787 154.334 25.4929C154.163 25.0028 153.904 24.6129 153.554 24.3232C153.205 24.0334 152.77 23.8885 152.25 23.8885C151.717 23.8885 151.274 24.0334 150.921 24.3232C150.571 24.6129 150.309 25.0028 150.134 25.4929C149.964 25.9787 149.879 26.522 149.879 27.1229C149.879 27.7195 149.964 28.2607 150.134 28.7464C150.309 29.2322 150.571 29.62 150.921 29.9098C151.274 30.1953 151.717 30.3381 152.25 30.3381ZM158.726 32V22.1818H162.849C164.012 22.1818 164.93 22.4141 165.604 22.8786C166.281 23.343 166.62 23.9908 166.62 24.8217C166.62 25.3714 166.428 25.821 166.045 26.1705C165.665 26.5156 165.148 26.7479 164.491 26.8672C165.007 26.9098 165.459 27.0398 165.847 27.2571C166.239 27.4744 166.545 27.7599 166.767 28.1136C166.989 28.4673 167.099 28.8743 167.099 29.3345C167.099 29.8757 166.957 30.3466 166.671 30.7472C166.39 31.1435 165.979 31.4524 165.437 31.674C164.901 31.8913 164.249 32 163.482 32H158.726ZM160.893 30.1783H163.482C163.908 30.1783 164.242 30.0781 164.485 29.8778C164.728 29.6733 164.849 29.3963 164.849 29.0469C164.849 28.642 164.728 28.3246 164.485 28.0945C164.242 27.8601 163.908 27.7429 163.482 27.7429H160.893V30.1783ZM160.893 26.2472H162.893C163.209 26.2472 163.479 26.2024 163.705 26.1129C163.931 26.0192 164.104 25.8892 164.223 25.723C164.342 25.5526 164.402 25.3501 164.402 25.1158C164.402 24.7791 164.263 24.5149 163.986 24.3232C163.714 24.1314 163.334 24.0355 162.849 24.0355H160.893V26.2472ZM171.06 28.8679L174.991 22.1818H177.369V32H175.132V25.3075L171.213 32H168.829V22.1818H171.06V28.8679ZM181.796 28.8679L185.727 22.1818H188.105V32H185.868V25.3075L181.949 32H179.565V22.1818H181.796V28.8679ZM185.094 18.8068H186.826C186.826 19.5526 186.556 20.1577 186.015 20.6222C185.478 21.0824 184.749 21.3125 183.829 21.3125C182.917 21.3125 182.19 21.0824 181.649 20.6222C181.112 20.1577 180.846 19.5526 180.85 18.8068H182.569C182.569 19.1136 182.663 19.3885 182.851 19.6314C183.042 19.87 183.368 19.9893 183.829 19.9893C184.28 19.9893 184.602 19.87 184.794 19.6314C184.99 19.3928 185.09 19.1179 185.094 18.8068ZM194.586 32V22.1818H202.876V32H200.646V24.0803H196.798V32H194.586ZM209.359 32.1918C208.378 32.1918 207.537 31.9766 206.834 31.5462C206.135 31.1158 205.596 30.5213 205.216 29.7628C204.841 29 204.654 28.1222 204.654 27.1293C204.654 26.1321 204.846 25.2521 205.229 24.4893C205.613 23.7223 206.154 23.1257 206.853 22.6996C207.556 22.2692 208.387 22.054 209.346 22.054C210.143 22.054 210.848 22.201 211.461 22.495C212.079 22.7848 212.572 23.196 212.938 23.7287C213.305 24.2571 213.513 24.875 213.564 25.5824H211.353C211.263 25.1094 211.05 24.7152 210.714 24.3999C210.381 24.0803 209.936 23.9205 209.378 23.9205C208.905 23.9205 208.489 24.0483 208.131 24.304C207.773 24.5554 207.494 24.9176 207.294 25.3906C207.098 25.8636 207 26.4304 207 27.0909C207 27.7599 207.098 28.3352 207.294 28.8168C207.49 29.294 207.765 29.6626 208.118 29.9226C208.476 30.1783 208.896 30.3061 209.378 30.3061C209.719 30.3061 210.023 30.2422 210.292 30.1143C210.564 29.9822 210.792 29.7926 210.976 29.5455C211.159 29.2983 211.285 28.9979 211.353 28.6442H213.564C213.509 29.3388 213.305 29.9545 212.951 30.4915C212.597 31.0241 212.116 31.4418 211.506 31.7443C210.897 32.0426 210.181 32.1918 209.359 32.1918ZM217.515 28.8679L221.446 22.1818H223.824V32H221.587V25.3075L217.669 32H215.285V22.1818H217.515V28.8679ZM227.913 22.1818L229.894 25.8061L231.908 22.1818H234.356L231.396 27.0909L234.407 32H231.972L229.894 28.4652L227.836 32H225.381L228.373 27.0909L225.458 22.1818H227.913ZM239.879 32.1918C238.92 32.1918 238.089 31.9808 237.386 31.5589C236.683 31.1371 236.138 30.5469 235.75 29.7884C235.366 29.0298 235.175 28.1435 235.175 27.1293C235.175 26.1151 235.366 25.2266 235.75 24.4638C236.138 23.701 236.683 23.1087 237.386 22.6868C238.089 22.2649 238.92 22.054 239.879 22.054C240.838 22.054 241.669 22.2649 242.372 22.6868C243.075 23.1087 243.618 23.701 244.002 24.4638C244.39 25.2266 244.584 26.1151 244.584 27.1293C244.584 28.1435 244.39 29.0298 244.002 29.7884C243.618 30.5469 243.075 31.1371 242.372 31.5589C241.669 31.9808 240.838 32.1918 239.879 32.1918ZM239.892 30.3381C240.412 30.3381 240.846 30.1953 241.196 29.9098C241.545 29.62 241.805 29.2322 241.976 28.7464C242.15 28.2607 242.238 27.7195 242.238 27.1229C242.238 26.522 242.15 25.9787 241.976 25.4929C241.805 25.0028 241.545 24.6129 241.196 24.3232C240.846 24.0334 240.412 23.8885 239.892 23.8885C239.359 23.8885 238.916 24.0334 238.562 24.3232C238.213 24.6129 237.951 25.0028 237.776 25.4929C237.606 25.9787 237.52 26.522 237.52 27.1229C237.52 27.7195 237.606 28.2607 237.776 28.7464C237.951 29.2322 238.213 29.62 238.562 29.9098C238.916 30.1953 239.359 30.3381 239.892 30.3381ZM245.69 32L245.677 30.0952H246.016C246.272 30.0952 246.487 30.0376 246.662 29.9226C246.836 29.8075 246.981 29.6158 247.096 29.3473C247.211 29.0746 247.301 28.7081 247.365 28.2479C247.429 27.7876 247.473 27.2145 247.499 26.5284L247.672 22.1818H254.831V32H252.593V24.0803H249.775L249.621 27.2443C249.583 28.0625 249.491 28.772 249.346 29.3729C249.206 29.9695 249.005 30.4616 248.745 30.8494C248.49 31.2372 248.168 31.527 247.78 31.7188C247.392 31.9062 246.934 32 246.406 32H245.69ZM261.263 32.1918C260.304 32.1918 259.473 31.9808 258.77 31.5589C258.067 31.1371 257.522 30.5469 257.134 29.7884C256.75 29.0298 256.559 28.1435 256.559 27.1293C256.559 26.1151 256.75 25.2266 257.134 24.4638C257.522 23.701 258.067 23.1087 258.77 22.6868C259.473 22.2649 260.304 22.054 261.263 22.054C262.222 22.054 263.053 22.2649 263.756 22.6868C264.459 23.1087 265.003 23.701 265.386 24.4638C265.774 25.2266 265.968 26.1151 265.968 27.1293C265.968 28.1435 265.774 29.0298 265.386 29.7884C265.003 30.5469 264.459 31.1371 263.756 31.5589C263.053 31.9808 262.222 32.1918 261.263 32.1918ZM261.276 30.3381C261.796 30.3381 262.231 30.1953 262.58 29.9098C262.929 29.62 263.189 29.2322 263.36 28.7464C263.534 28.2607 263.622 27.7195 263.622 27.1229C263.622 26.522 263.534 25.9787 263.36 25.4929C263.189 25.0028 262.929 24.6129 262.58 24.3232C262.231 24.0334 261.796 23.8885 261.276 23.8885C260.743 23.8885 260.3 24.0334 259.946 24.3232C259.597 24.6129 259.335 25.0028 259.16 25.4929C258.99 25.9787 258.905 26.522 258.905 27.1229C258.905 27.7195 258.99 28.2607 259.16 28.7464C259.335 29.2322 259.597 29.62 259.946 29.9098C260.3 30.1953 260.743 30.3381 261.276 30.3381ZM274.246 22.1818V24.0803H270.014V32H267.752V22.1818H274.246ZM277.003 30.2102L276.92 30.9134C276.86 31.4503 276.754 31.9957 276.6 32.5497C276.451 33.108 276.294 33.6214 276.127 34.0902C275.961 34.5589 275.827 34.9276 275.725 35.196H274.165C274.225 34.9361 274.306 34.5824 274.408 34.1349C274.515 33.6875 274.617 33.1847 274.715 32.6264C274.813 32.0682 274.879 31.5014 274.913 30.9261L274.958 30.2102H277.003ZM289.1 32V24.0611H287.003C286.47 24.0611 286.061 24.1847 285.776 24.4318C285.49 24.679 285.35 24.9858 285.354 25.3523C285.35 25.7188 285.484 26.0213 285.757 26.2599C286.029 26.4986 286.419 26.6179 286.926 26.6179H289.828V28.3054H286.926C286.142 28.3054 285.465 28.1818 284.894 27.9347C284.323 27.6875 283.884 27.3381 283.577 26.8864C283.27 26.4347 283.117 25.9062 283.117 25.3011C283.117 24.6705 283.272 24.1229 283.583 23.6584C283.899 23.1896 284.346 22.8274 284.926 22.5717C285.509 22.3118 286.202 22.1818 287.003 22.1818H291.267V32H289.1ZM282.759 32L285.501 26.9631H287.783L285.034 32H282.759ZM293.416 32V22.1818H295.73V26.1449H296.574L299.527 22.1818H302.314L298.677 27.0014L302.353 32H299.553L296.862 28.299H295.73V32H293.416ZM305.715 28.8679L309.646 22.1818H312.024V32H309.787V25.3075L305.869 32H303.484V22.1818H305.715V28.8679ZM316.451 28.8679L320.382 22.1818H322.76V32H320.523V25.3075L316.605 32H314.221V22.1818H316.451V28.8679ZM319.75 18.8068H321.482C321.482 19.5526 321.211 20.1577 320.67 20.6222C320.133 21.0824 319.404 21.3125 318.484 21.3125C317.572 21.3125 316.846 21.0824 316.304 20.6222C315.767 20.1577 315.501 19.5526 315.505 18.8068H317.225C317.225 19.1136 317.319 19.3885 317.506 19.6314C317.698 19.87 318.024 19.9893 318.484 19.9893C318.936 19.9893 319.257 19.87 319.449 19.6314C319.645 19.3928 319.745 19.1179 319.75 18.8068ZM333.524 32.1918C332.544 32.1918 331.702 31.9766 330.999 31.5462C330.3 31.1158 329.761 30.5213 329.382 29.7628C329.007 29 328.82 28.1222 328.82 27.1293C328.82 26.1321 329.011 25.2521 329.395 24.4893C329.778 23.7223 330.32 23.1257 331.018 22.6996C331.721 22.2692 332.552 22.054 333.511 22.054C334.308 22.054 335.013 22.201 335.627 22.495C336.245 22.7848 336.737 23.196 337.104 23.7287C337.47 24.2571 337.679 24.875 337.73 25.5824H335.518C335.429 25.1094 335.216 24.7152 334.879 24.3999C334.547 24.0803 334.101 23.9205 333.543 23.9205C333.07 23.9205 332.655 24.0483 332.297 24.304C331.939 24.5554 331.66 24.9176 331.459 25.3906C331.263 25.8636 331.165 26.4304 331.165 27.0909C331.165 27.7599 331.263 28.3352 331.459 28.8168C331.655 29.294 331.93 29.6626 332.284 29.9226C332.642 30.1783 333.062 30.3061 333.543 30.3061C333.884 30.3061 334.189 30.2422 334.457 30.1143C334.73 29.9822 334.958 29.7926 335.141 29.5455C335.324 29.2983 335.45 28.9979 335.518 28.6442H337.73C337.675 29.3388 337.47 29.9545 337.116 30.4915C336.763 31.0241 336.281 31.4418 335.672 31.7443C335.062 32.0426 334.346 32.1918 333.524 32.1918ZM339.45 32V22.1818H347.741V32H345.51V24.0803H341.662V32H339.45ZM349.94 35.6818V22.1818H352.216V23.8054H352.35C352.469 23.5668 352.637 23.3132 352.855 23.0447C353.072 22.772 353.366 22.5398 353.737 22.348C354.108 22.152 354.581 22.054 355.156 22.054C355.914 22.054 356.598 22.2479 357.208 22.6357C357.821 23.0192 358.307 23.5881 358.665 24.3423C359.027 25.0923 359.208 26.0128 359.208 27.1037C359.208 28.1818 359.032 29.098 358.678 29.8523C358.324 30.6065 357.843 31.1818 357.233 31.5781C356.624 31.9744 355.934 32.1726 355.162 32.1726C354.6 32.1726 354.133 32.0788 353.762 31.8913C353.392 31.7038 353.093 31.478 352.868 31.2138C352.646 30.9453 352.473 30.6918 352.35 30.4531H352.254V35.6818H349.94ZM352.209 27.0909C352.209 27.7259 352.299 28.282 352.478 28.7592C352.661 29.2365 352.923 29.6094 353.264 29.8778C353.609 30.142 354.027 30.2741 354.517 30.2741C355.028 30.2741 355.456 30.1378 355.801 29.8651C356.147 29.5881 356.407 29.2109 356.581 28.7337C356.76 28.2521 356.85 27.7045 356.85 27.0909C356.85 26.4815 356.762 25.9403 356.588 25.4673C356.413 24.9943 356.153 24.6236 355.808 24.3551C355.463 24.0866 355.032 23.9524 354.517 23.9524C354.022 23.9524 353.603 24.0824 353.257 24.3423C352.912 24.6023 352.65 24.9666 352.471 25.4354C352.297 25.9041 352.209 26.456 352.209 27.0909ZM363.835 32.1982C363.213 32.1982 362.653 32.0874 362.154 31.8658C361.66 31.6399 361.268 31.3075 360.978 30.8686C360.692 30.4297 360.55 29.8885 360.55 29.245C360.55 28.6911 360.652 28.233 360.857 27.8707C361.061 27.5085 361.34 27.2188 361.694 27.0014C362.048 26.7841 362.446 26.62 362.889 26.5092C363.337 26.3942 363.799 26.3111 364.276 26.2599C364.852 26.2003 365.318 26.147 365.676 26.1001C366.034 26.049 366.294 25.9723 366.456 25.87C366.622 25.7635 366.705 25.5994 366.705 25.3778V25.3395C366.705 24.858 366.563 24.4851 366.277 24.2209C365.991 23.9567 365.58 23.8246 365.043 23.8246C364.477 23.8246 364.027 23.9482 363.695 24.1953C363.366 24.4425 363.145 24.7344 363.03 25.071L360.869 24.7642C361.04 24.1676 361.321 23.669 361.713 23.2685C362.105 22.8636 362.585 22.5611 363.151 22.3608C363.718 22.1562 364.344 22.054 365.031 22.054C365.504 22.054 365.974 22.1094 366.443 22.2202C366.912 22.331 367.34 22.5142 367.728 22.7699C368.116 23.0213 368.427 23.3643 368.661 23.799C368.9 24.2337 369.019 24.777 369.019 25.429V32H366.795V30.6513H366.718C366.577 30.924 366.379 31.1797 366.124 31.4183C365.872 31.6527 365.555 31.8423 365.171 31.9872C364.792 32.1278 364.347 32.1982 363.835 32.1982ZM364.436 30.4979C364.901 30.4979 365.303 30.4062 365.644 30.223C365.985 30.0355 366.247 29.7884 366.43 29.4815C366.618 29.1747 366.712 28.8402 366.712 28.478V27.321C366.639 27.3807 366.516 27.4361 366.341 27.4872C366.17 27.5384 365.979 27.5831 365.766 27.6214C365.553 27.6598 365.342 27.6939 365.133 27.7237C364.924 27.7536 364.743 27.7791 364.59 27.8004C364.244 27.8473 363.935 27.924 363.663 28.0305C363.39 28.1371 363.175 28.2862 363.017 28.478C362.859 28.6655 362.781 28.9084 362.781 29.2067C362.781 29.6328 362.936 29.9545 363.247 30.1719C363.558 30.3892 363.955 30.4979 364.436 30.4979ZM371.166 32V22.1818H375.289C376.452 22.1818 377.37 22.4141 378.044 22.8786C378.721 23.343 379.06 23.9908 379.06 24.8217C379.06 25.3714 378.868 25.821 378.485 26.1705C378.106 26.5156 377.588 26.7479 376.932 26.8672C377.447 26.9098 377.899 27.0398 378.287 27.2571C378.679 27.4744 378.986 27.7599 379.207 28.1136C379.429 28.4673 379.539 28.8743 379.539 29.3345C379.539 29.8757 379.397 30.3466 379.111 30.7472C378.83 31.1435 378.419 31.4524 377.878 31.674C377.341 31.8913 376.689 32 375.922 32H371.166ZM373.333 30.1783H375.922C376.348 30.1783 376.682 30.0781 376.925 29.8778C377.168 29.6733 377.289 29.3963 377.289 29.0469C377.289 28.642 377.168 28.3246 376.925 28.0945C376.682 27.8601 376.348 27.7429 375.922 27.7429H373.333V30.1783ZM373.333 26.2472H375.334C375.649 26.2472 375.919 26.2024 376.145 26.1129C376.371 26.0192 376.544 25.8892 376.663 25.723C376.782 25.5526 376.842 25.3501 376.842 25.1158C376.842 24.7791 376.704 24.5149 376.427 24.3232C376.154 24.1314 375.775 24.0355 375.289 24.0355H373.333V26.2472ZM380.4 34.8509V30.0952H381.18C381.388 29.9332 381.563 29.7138 381.704 29.4368C381.844 29.1555 381.959 28.8253 382.049 28.446C382.143 28.0625 382.219 27.6342 382.279 27.1612C382.339 26.6839 382.392 26.1705 382.439 25.6207L382.72 22.1818H389.815V30.0952H391.337V34.8509H389.099V32H382.675V34.8509H380.4ZM383.557 30.0952H387.604V24.0483H384.727L384.574 25.6207C384.489 26.6605 384.376 27.5511 384.235 28.2926C384.094 29.0341 383.869 29.6349 383.557 30.0952ZM392.884 32V22.1818H395.198V32H392.884ZM394.047 20.7884C393.681 20.7884 393.366 20.6669 393.101 20.424C392.837 20.1768 392.705 19.8807 392.705 19.5355C392.705 19.1861 392.837 18.8899 393.101 18.647C393.366 18.3999 393.681 18.2763 394.047 18.2763C394.418 18.2763 394.733 18.3999 394.993 18.647C395.258 18.8899 395.39 19.1861 395.39 19.5355C395.39 19.8807 395.258 20.1768 394.993 20.424C394.733 20.6669 394.418 20.7884 394.047 20.7884ZM401.682 32V22.1818H409.973V32H407.742V24.0803H403.894V32H401.682ZM416.455 32.1918C415.496 32.1918 414.665 31.9808 413.962 31.5589C413.259 31.1371 412.713 30.5469 412.326 29.7884C411.942 29.0298 411.75 28.1435 411.75 27.1293C411.75 26.1151 411.942 25.2266 412.326 24.4638C412.713 23.701 413.259 23.1087 413.962 22.6868C414.665 22.2649 415.496 22.054 416.455 22.054C417.414 22.054 418.245 22.2649 418.948 22.6868C419.651 23.1087 420.194 23.701 420.578 24.4638C420.965 25.2266 421.159 26.1151 421.159 27.1293C421.159 28.1435 420.965 29.0298 420.578 29.7884C420.194 30.5469 419.651 31.1371 418.948 31.5589C418.245 31.9808 417.414 32.1918 416.455 32.1918ZM416.468 30.3381C416.988 30.3381 417.422 30.1953 417.772 29.9098C418.121 29.62 418.381 29.2322 418.551 28.7464C418.726 28.2607 418.814 27.7195 418.814 27.1229C418.814 26.522 418.726 25.9787 418.551 25.4929C418.381 25.0028 418.121 24.6129 417.772 24.3232C417.422 24.0334 416.988 23.8885 416.468 23.8885C415.935 23.8885 415.492 24.0334 415.138 24.3232C414.789 24.6129 414.527 25.0028 414.352 25.4929C414.181 25.9787 414.096 26.522 414.096 27.1229C414.096 27.7195 414.181 28.2607 414.352 28.7464C414.527 29.2322 414.789 29.62 415.138 29.9098C415.492 30.1953 415.935 30.3381 416.468 30.3381ZM431.144 22.1818V32H428.92V22.1818H431.144ZM430.102 26.6179V28.5099C429.851 28.6207 429.566 28.7209 429.246 28.8104C428.931 28.8956 428.596 28.9638 428.242 29.0149C427.893 29.0661 427.543 29.0916 427.194 29.0916C425.882 29.0916 424.844 28.7976 424.081 28.2095C423.323 27.6172 422.943 26.6946 422.943 25.4418V22.169H425.155V25.4418C425.155 25.8636 425.23 26.2024 425.379 26.4581C425.528 26.7138 425.754 26.9013 426.056 27.0206C426.359 27.1357 426.738 27.1932 427.194 27.1932C427.705 27.1932 428.191 27.142 428.651 27.0398C429.112 26.9375 429.595 26.7969 430.102 26.6179ZM434.379 35.6818C434.064 35.6818 433.772 35.6563 433.504 35.6051C433.239 35.5582 433.028 35.5028 432.871 35.4389L433.408 33.6364C433.744 33.7344 434.045 33.7813 434.309 33.777C434.573 33.7727 434.805 33.6896 435.006 33.5277C435.21 33.37 435.383 33.1058 435.523 32.7351L435.722 32.2045L432.161 22.1818H434.616L436.879 29.5966H436.981L439.25 22.1818H441.711L437.78 33.1889C437.597 33.7088 437.354 34.1541 437.051 34.5249C436.749 34.8999 436.378 35.1854 435.939 35.3814C435.504 35.5817 434.984 35.6818 434.379 35.6818ZM447.388 26.4006V27.9283H443.393V26.4006H447.388ZM450.948 25.2756L448.762 25.5632C448.643 25.0987 448.421 24.7152 448.097 24.4126C447.773 24.1058 447.319 23.9524 446.736 23.9524C446.216 23.9524 445.777 24.0824 445.419 24.3423C445.065 24.6023 444.797 24.9687 444.614 25.4418C444.43 25.9105 444.339 26.4602 444.339 27.0909C444.339 27.7259 444.428 28.282 444.607 28.7592C444.79 29.2365 445.059 29.6094 445.413 29.8778C445.77 30.142 446.212 30.2741 446.736 30.2741C447.094 30.2741 447.407 30.2124 447.675 30.0888C447.944 29.9609 448.165 29.7862 448.34 29.5646C448.519 29.3388 448.649 29.0767 448.73 28.7784L450.929 29.0533C450.805 29.6712 450.554 30.2166 450.175 30.6896C449.8 31.1584 449.318 31.527 448.73 31.7955C448.146 32.0597 447.481 32.1918 446.736 32.1918C445.781 32.1918 444.957 31.9744 444.262 31.5398C443.572 31.1051 443.039 30.5043 442.664 29.7372C442.293 28.9702 442.108 28.0881 442.108 27.0909C442.108 26.1065 442.295 25.2372 442.67 24.483C443.05 23.7244 443.584 23.13 444.275 22.6996C444.965 22.2692 445.785 22.054 446.736 22.054C447.477 22.054 448.142 22.1882 448.73 22.4567C449.322 22.7209 449.81 23.0937 450.194 23.5753C450.582 24.0568 450.833 24.6236 450.948 25.2756ZM457.201 32V18.9091H462.212C463.158 18.9091 463.944 19.0582 464.571 19.3565C465.201 19.6506 465.672 20.0533 465.983 20.5646C466.299 21.076 466.456 21.6555 466.456 22.3033C466.456 22.8359 466.354 23.2919 466.149 23.6712C465.945 24.0462 465.67 24.3509 465.325 24.5852C464.98 24.8196 464.594 24.9879 464.168 25.0902V25.218C464.632 25.2436 465.078 25.3864 465.504 25.6463C465.934 25.902 466.286 26.2642 466.559 26.733C466.831 27.2017 466.968 27.7685 466.968 28.4332C466.968 29.1108 466.804 29.7202 466.475 30.2614C466.147 30.7983 465.653 31.2223 464.993 31.5334C464.332 31.8445 463.501 32 462.5 32H457.201ZM459.572 30.0185H462.122C462.983 30.0185 463.603 29.8544 463.983 29.5263C464.366 29.1939 464.558 28.7678 464.558 28.2479C464.558 27.8601 464.462 27.5107 464.27 27.1996C464.078 26.8842 463.806 26.6371 463.452 26.4581C463.098 26.2749 462.676 26.1832 462.186 26.1832H459.572V30.0185ZM459.572 24.4766H461.918C462.327 24.4766 462.696 24.402 463.024 24.2528C463.352 24.0994 463.61 23.8842 463.797 23.6072C463.989 23.326 464.085 22.9936 464.085 22.6101C464.085 22.103 463.906 21.6854 463.548 21.3572C463.194 21.0291 462.668 20.8651 461.969 20.8651H459.572V24.4766ZM471.574 32.1982C470.952 32.1982 470.391 32.0874 469.893 31.8658C469.398 31.6399 469.006 31.3075 468.716 30.8686C468.431 30.4297 468.288 29.8885 468.288 29.245C468.288 28.6911 468.39 28.233 468.595 27.8707C468.8 27.5085 469.079 27.2188 469.432 27.0014C469.786 26.7841 470.184 26.62 470.628 26.5092C471.075 26.3942 471.537 26.3111 472.015 26.2599C472.59 26.2003 473.057 26.147 473.415 26.1001C473.773 26.049 474.032 25.9723 474.194 25.87C474.361 25.7635 474.444 25.5994 474.444 25.3778V25.3395C474.444 24.858 474.301 24.4851 474.015 24.2209C473.73 23.9567 473.319 23.8246 472.782 23.8246C472.215 23.8246 471.765 23.9482 471.433 24.1953C471.105 24.4425 470.883 24.7344 470.768 25.071L468.608 24.7642C468.778 24.1676 469.059 23.669 469.452 23.2685C469.844 22.8636 470.323 22.5611 470.89 22.3608C471.456 22.1562 472.083 22.054 472.769 22.054C473.242 22.054 473.713 22.1094 474.182 22.2202C474.65 22.331 475.079 22.5142 475.466 22.7699C475.854 23.0213 476.165 23.3643 476.4 23.799C476.638 24.2337 476.758 24.777 476.758 25.429V32H474.533V30.6513H474.456C474.316 30.924 474.118 31.1797 473.862 31.4183C473.611 31.6527 473.293 31.8423 472.91 31.9872C472.53 32.1278 472.085 32.1982 471.574 32.1982ZM472.175 30.4979C472.639 30.4979 473.042 30.4062 473.383 30.223C473.724 30.0355 473.986 29.7884 474.169 29.4815C474.356 29.1747 474.45 28.8402 474.45 28.478V27.321C474.378 27.3807 474.254 27.4361 474.079 27.4872C473.909 27.5384 473.717 27.5831 473.504 27.6214C473.291 27.6598 473.08 27.6939 472.871 27.7237C472.662 27.7536 472.481 27.7791 472.328 27.8004C471.983 27.8473 471.674 27.924 471.401 28.0305C471.128 28.1371 470.913 28.2862 470.756 28.478C470.598 28.6655 470.519 28.9084 470.519 29.2067C470.519 29.6328 470.675 29.9545 470.986 30.1719C471.297 30.3892 471.693 30.4979 472.175 30.4979ZM483.187 32.1918C482.207 32.1918 481.365 31.9766 480.662 31.5462C479.963 31.1158 479.424 30.5213 479.045 29.7628C478.67 29 478.482 28.1222 478.482 27.1293C478.482 26.1321 478.674 25.2521 479.058 24.4893C479.441 23.7223 479.982 23.1257 480.681 22.6996C481.384 22.2692 482.215 22.054 483.174 22.054C483.971 22.054 484.676 22.201 485.29 22.495C485.908 22.7848 486.4 23.196 486.767 23.7287C487.133 24.2571 487.342 24.875 487.393 25.5824H485.181C485.092 25.1094 484.879 24.7152 484.542 24.3999C484.21 24.0803 483.764 23.9205 483.206 23.9205C482.733 23.9205 482.318 24.0483 481.96 24.304C481.602 24.5554 481.323 24.9176 481.122 25.3906C480.926 25.8636 480.828 26.4304 480.828 27.0909C480.828 27.7599 480.926 28.3352 481.122 28.8168C481.318 29.294 481.593 29.6626 481.947 29.9226C482.305 30.1783 482.725 30.3061 483.206 30.3061C483.547 30.3061 483.852 30.2422 484.12 30.1143C484.393 29.9822 484.621 29.7926 484.804 29.5455C484.987 29.2983 485.113 28.9979 485.181 28.6442H487.393C487.338 29.3388 487.133 29.9545 486.779 30.4915C486.426 31.0241 485.944 31.4418 485.335 31.7443C484.725 32.0426 484.009 32.1918 483.187 32.1918Z" fill="#02344A"/>
<path d="M132.066 84.1399V73.712H133.794C134.382 73.2894 134.921 72.6928 135.41 71.9222C135.898 71.1433 136.317 70.0703 136.665 68.7031C137.013 67.3277 137.261 65.5296 137.411 63.3089L138.131 52.5455H154.973V73.712H157.757V84.1151H152.586V78H137.237V84.1399H132.066ZM140.008 73.712H149.802V56.9826H142.979L142.581 63.3089C142.473 64.991 142.295 66.4825 142.047 67.7834C141.806 69.0843 141.512 70.2236 141.164 71.2013C140.824 72.1708 140.439 73.0077 140.008 73.712ZM171.865 72.146L177.035 58.9091H181.062L173.617 78H170.1L162.829 58.9091H166.844L171.865 72.146ZM165.638 58.9091V78H160.579V58.9091H165.638ZM178.353 78V58.9091H183.349V78H178.353ZM192.153 71.0149L199.026 58.9091H204.247V78H199.2V65.8569L192.352 78H187.095V58.9091H192.153V71.0149ZM206.224 63.0728V58.9091H223.525V63.0728H217.373V78H212.327V63.0728H206.224ZM226.385 85.1591V58.9091H231.605V62.1158H231.841C232.073 61.602 232.409 61.08 232.848 60.5497C233.295 60.0111 233.875 59.5637 234.588 59.2074C235.309 58.8428 236.204 58.6605 237.273 58.6605C238.665 58.6605 239.949 59.0251 241.126 59.7543C242.302 60.4751 243.243 61.5647 243.947 63.0231C244.651 64.4731 245.003 66.2919 245.003 68.4794C245.003 70.6089 244.66 72.407 243.972 73.8736C243.292 75.3319 242.364 76.4381 241.188 77.1921C240.019 77.9379 238.71 78.3107 237.26 78.3107C236.233 78.3107 235.359 78.1409 234.638 77.8011C233.925 77.4614 233.341 77.0347 232.885 76.521C232.429 75.9989 232.081 75.4728 231.841 74.9425H231.68V85.1591H226.385ZM231.568 68.4545C231.568 69.5897 231.725 70.5799 232.04 71.4251C232.355 72.2702 232.811 72.929 233.407 73.4013C234.004 73.8653 234.729 74.0973 235.582 74.0973C236.444 74.0973 237.173 73.8612 237.77 73.3888C238.366 72.9083 238.818 72.2454 239.125 71.4002C239.439 70.5468 239.597 69.5649 239.597 68.4545C239.597 67.3525 239.444 66.383 239.137 65.5462C238.83 64.7093 238.379 64.0547 237.782 63.5824C237.186 63.1101 236.452 62.8739 235.582 62.8739C234.721 62.8739 233.991 63.1018 233.395 63.5575C232.806 64.0133 232.355 64.6596 232.04 65.4964C231.725 66.3333 231.568 67.3194 231.568 68.4545ZM256.809 78.3729C254.878 78.3729 253.209 77.9627 251.8 77.1424C250.4 76.3138 249.318 75.1621 248.556 73.6871C247.794 72.204 247.413 70.4846 247.413 68.5291C247.413 66.5571 247.794 64.8336 248.556 63.3587C249.318 61.8755 250.4 60.7237 251.8 59.9034C253.209 59.0748 254.878 58.6605 256.809 58.6605C258.74 58.6605 260.405 59.0748 261.805 59.9034C263.214 60.7237 264.299 61.8755 265.062 63.3587C265.824 64.8336 266.205 66.5571 266.205 68.5291C266.205 70.4846 265.824 72.204 265.062 73.6871C264.299 75.1621 263.214 76.3138 261.805 77.1424C260.405 77.9627 258.74 78.3729 256.809 78.3729ZM256.834 74.2713C257.712 74.2713 258.445 74.0227 259.034 73.5256C259.622 73.0201 260.065 72.3324 260.364 71.4624C260.67 70.5923 260.824 69.6022 260.824 68.4918C260.824 67.3815 260.67 66.3913 260.364 65.5213C260.065 64.6513 259.622 63.9635 259.034 63.4581C258.445 62.9527 257.712 62.6999 256.834 62.6999C255.947 62.6999 255.201 62.9527 254.597 63.4581C254 63.9635 253.548 64.6513 253.242 65.5213C252.944 66.3913 252.794 67.3815 252.794 68.4918C252.794 69.6022 252.944 70.5923 253.242 71.4624C253.548 72.3324 254 73.0201 254.597 73.5256C255.201 74.0227 255.947 74.2713 256.834 74.2713ZM281.536 78H275.768L284.556 52.5455H291.491L300.266 78H294.499L288.123 58.3622H287.924L281.536 78ZM281.175 67.9947H294.797V72.1957H281.175V67.9947ZM310.617 78.3729C308.662 78.3729 306.98 77.9586 305.571 77.13C304.171 76.2931 303.094 75.133 302.34 73.6499C301.594 72.1667 301.221 70.4598 301.221 68.5291C301.221 66.5736 301.598 64.8584 302.352 63.3835C303.114 61.9003 304.196 60.7444 305.596 59.9158C306.996 59.079 308.662 58.6605 310.592 58.6605C312.258 58.6605 313.716 58.9629 314.967 59.5678C316.219 60.1727 317.209 61.022 317.938 62.1158C318.667 63.2095 319.069 64.4938 319.144 65.9688H314.147C314.006 65.0159 313.633 64.2494 313.029 63.6694C312.432 63.0811 311.649 62.7869 310.679 62.7869C309.859 62.7869 309.142 63.0107 308.529 63.4581C307.924 63.8973 307.452 64.5394 307.112 65.3846C306.773 66.2298 306.603 67.2531 306.603 68.4545C306.603 69.6726 306.769 70.7083 307.1 71.5618C307.44 72.4152 307.916 73.0657 308.529 73.5131C309.142 73.9606 309.859 74.1843 310.679 74.1843C311.284 74.1843 311.827 74.06 312.308 73.8114C312.797 73.5629 313.198 73.2024 313.513 72.7301C313.836 72.2495 314.048 71.6737 314.147 71.0025H319.144C319.061 72.4608 318.663 73.7451 317.95 74.8555C317.246 75.9575 316.273 76.8192 315.03 77.4407C313.787 78.0621 312.316 78.3729 310.617 78.3729ZM333.469 72.146L338.64 58.9091H342.667L335.222 78H331.704L324.433 58.9091H328.448L333.469 72.146ZM327.242 58.9091V78H322.184V58.9091H327.242ZM339.957 78V58.9091H344.954V78H339.957ZM354.143 78.3604C352.925 78.3604 351.839 78.1491 350.886 77.7266C349.933 77.2957 349.179 76.6618 348.624 75.8249C348.077 74.9798 347.804 73.9274 347.804 72.668C347.804 71.6074 347.999 70.7166 348.388 69.9957C348.778 69.2749 349.308 68.6948 349.979 68.2557C350.65 67.8165 351.413 67.4851 352.266 67.2614C353.128 67.0376 354.031 66.8802 354.975 66.7891C356.086 66.6731 356.981 66.5653 357.66 66.4659C358.34 66.3582 358.833 66.2008 359.139 65.9936C359.446 65.7865 359.599 65.4799 359.599 65.0739V64.9993C359.599 64.2121 359.35 63.6031 358.853 63.1722C358.364 62.7414 357.668 62.5259 356.765 62.5259C355.812 62.5259 355.054 62.7372 354.491 63.1598C353.927 63.5741 353.554 64.0961 353.372 64.7259L348.475 64.3281C348.724 63.1681 349.213 62.1655 349.942 61.3203C350.671 60.4669 351.611 59.8123 352.763 59.3565C353.923 58.8925 355.266 58.6605 356.79 58.6605C357.851 58.6605 358.866 58.7848 359.835 59.0334C360.813 59.282 361.679 59.6673 362.433 60.1893C363.195 60.7113 363.796 61.3825 364.235 62.2028C364.674 63.0148 364.894 63.9884 364.894 65.1236V78H359.873V75.3526H359.723C359.417 75.9492 359.007 76.4754 358.493 76.9311C357.979 77.3786 357.362 77.7307 356.641 77.9876C355.92 78.2362 355.087 78.3604 354.143 78.3604ZM355.659 74.7063C356.438 74.7063 357.126 74.553 357.722 74.2464C358.319 73.9316 358.787 73.509 359.127 72.9787C359.467 72.4484 359.636 71.8477 359.636 71.1765V69.1506C359.471 69.2583 359.243 69.3577 358.953 69.4489C358.671 69.5317 358.352 69.6104 357.996 69.685C357.639 69.7513 357.283 69.8134 356.927 69.8714C356.571 69.9212 356.247 69.9667 355.957 70.0082C355.336 70.0993 354.793 70.2443 354.329 70.4432C353.865 70.642 353.505 70.9113 353.248 71.2511C352.991 71.5825 352.863 71.9968 352.863 72.494C352.863 73.2148 353.124 73.7659 353.646 74.147C354.176 74.5199 354.847 74.7063 355.659 74.7063ZM381.727 58.9091V63.0728H373.797V78H368.652V58.9091H381.727ZM384.605 78V58.9091H389.9V78H384.605ZM387.265 56.4482C386.478 56.4482 385.803 56.1871 385.239 55.6651C384.684 55.1348 384.406 54.5009 384.406 53.7635C384.406 53.0343 384.684 52.4087 385.239 51.8867C385.803 51.3564 386.478 51.0913 387.265 51.0913C388.052 51.0913 388.723 51.3564 389.279 51.8867C389.842 52.4087 390.124 53.0343 390.124 53.7635C390.124 54.5009 389.842 55.1348 389.279 55.6651C388.723 56.1871 388.052 56.4482 387.265 56.4482ZM392.673 78L392.648 73.799H393.282C393.729 73.799 394.115 73.6913 394.438 73.4759C394.769 73.2521 395.043 72.8917 395.258 72.3945C395.474 71.8974 395.643 71.2386 395.768 70.4183C395.892 69.5897 395.975 68.5705 396.016 67.3608L396.327 58.9091H410.844V78H405.798V63.0728H401.087L400.789 68.902C400.714 70.5012 400.52 71.8767 400.205 73.0284C399.898 74.1802 399.471 75.1248 398.925 75.8622C398.378 76.5914 397.719 77.13 396.948 77.478C396.178 77.826 395.283 78 394.264 78H392.673ZM423.224 78.3729C421.294 78.3729 419.624 77.9627 418.216 77.1424C416.815 76.3138 415.734 75.1621 414.972 73.6871C414.209 72.204 413.828 70.4846 413.828 68.5291C413.828 66.5571 414.209 64.8336 414.972 63.3587C415.734 61.8755 416.815 60.7237 418.216 59.9034C419.624 59.0748 421.294 58.6605 423.224 58.6605C425.155 58.6605 426.821 59.0748 428.221 59.9034C429.629 60.7237 430.715 61.8755 431.477 63.3587C432.24 64.8336 432.621 66.5571 432.621 68.5291C432.621 70.4846 432.24 72.204 431.477 73.6871C430.715 75.1621 429.629 76.3138 428.221 77.1424C426.821 77.9627 425.155 78.3729 423.224 78.3729ZM423.249 74.2713C424.128 74.2713 424.861 74.0227 425.449 73.5256C426.037 73.0201 426.481 72.3324 426.779 71.4624C427.086 70.5923 427.239 69.6022 427.239 68.4918C427.239 67.3815 427.086 66.3913 426.779 65.5213C426.481 64.6513 426.037 63.9635 425.449 63.4581C424.861 62.9527 424.128 62.6999 423.249 62.6999C422.363 62.6999 421.617 62.9527 421.012 63.4581C420.415 63.9635 419.964 64.6513 419.657 65.5213C419.359 66.3913 419.21 67.3815 419.21 68.4918C419.21 69.6022 419.359 70.5923 419.657 71.4624C419.964 72.3324 420.415 73.0201 421.012 73.5256C421.617 74.0227 422.363 74.2713 423.249 74.2713ZM435.714 78V58.9091H443.854C446.208 58.9091 448.068 59.3565 449.435 60.2514C450.802 61.1463 451.486 62.4182 451.486 64.0671C451.486 65.1029 451.101 65.9646 450.33 66.6523C449.559 67.3401 448.491 67.8041 447.123 68.0444C448.267 68.1272 449.24 68.3883 450.044 68.8274C450.856 69.2583 451.473 69.8176 451.896 70.5053C452.327 71.1931 452.542 71.9554 452.542 72.7923C452.542 73.8777 452.252 74.8099 451.672 75.5888C451.101 76.3677 450.26 76.9643 449.149 77.3786C448.047 77.7929 446.701 78 445.11 78H435.714ZM440.648 74.0352H445.11C445.847 74.0352 446.423 73.8612 446.837 73.5131C447.26 73.1568 447.471 72.6721 447.471 72.0589C447.471 71.3795 447.26 70.8451 446.837 70.4556C446.423 70.0662 445.847 69.8714 445.11 69.8714H440.648V74.0352ZM440.648 66.7642H443.966C444.497 66.7642 444.948 66.6896 445.321 66.5405C445.702 66.383 445.992 66.1593 446.191 65.8693C446.398 65.5793 446.502 65.2354 446.502 64.8377C446.502 64.2494 446.266 63.7895 445.793 63.4581C445.321 63.1267 444.675 62.9609 443.854 62.9609H440.648V66.7642Z" fill="#EC8812"/>
<path d="M519 57.7955C518.312 57.7955 517.685 57.6278 517.116 57.2926C516.548 56.9517 516.094 56.4972 515.753 55.929C515.418 55.3608 515.25 54.733 515.25 54.0455C515.25 53.3523 515.418 52.7244 515.753 52.1619C516.094 51.5937 516.548 51.142 517.116 50.8068C517.685 50.4659 518.312 50.2955 519 50.2955C519.693 50.2955 520.321 50.4659 520.884 50.8068C521.452 51.142 521.903 51.5937 522.239 52.1619C522.58 52.7244 522.75 53.3523 522.75 54.0455C522.75 54.733 522.58 55.3608 522.239 55.929C521.903 56.4972 521.452 56.9517 520.884 57.2926C520.321 57.6278 519.693 57.7955 519 57.7955ZM544.705 61.2386C543.58 61.2386 542.577 61.0455 541.696 60.6591C540.821 60.2727 540.125 59.7358 539.608 59.0483C539.097 58.3551 538.818 57.5511 538.773 56.6364H540.92C540.966 57.1989 541.159 57.6847 541.5 58.0938C541.841 58.4972 542.287 58.8097 542.838 59.0312C543.389 59.2528 544 59.3636 544.67 59.3636C545.42 59.3636 546.085 59.233 546.665 58.9716C547.244 58.7102 547.699 58.3466 548.028 57.8807C548.358 57.4148 548.523 56.875 548.523 56.2614C548.523 55.6193 548.364 55.054 548.045 54.5653C547.727 54.071 547.261 53.6847 546.648 53.4062C546.034 53.1278 545.284 52.9886 544.398 52.9886H543V51.1136H544.398C545.091 51.1136 545.699 50.9886 546.222 50.7386C546.75 50.4886 547.162 50.1364 547.457 49.6818C547.759 49.2273 547.909 48.6932 547.909 48.0795C547.909 47.4886 547.778 46.9744 547.517 46.5369C547.256 46.0994 546.886 45.7585 546.409 45.5142C545.938 45.2699 545.381 45.1477 544.739 45.1477C544.136 45.1477 543.568 45.2585 543.034 45.4801C542.506 45.696 542.074 46.0114 541.739 46.4261C541.403 46.8352 541.222 47.3295 541.193 47.9091H539.148C539.182 46.9943 539.457 46.1932 539.974 45.5057C540.491 44.8125 541.168 44.2727 542.003 43.8864C542.844 43.5 543.767 43.3068 544.773 43.3068C545.852 43.3068 546.778 43.5256 547.551 43.9631C548.324 44.3949 548.918 44.9659 549.332 45.6761C549.747 46.3864 549.955 47.1534 549.955 47.9773C549.955 48.9602 549.696 49.7983 549.179 50.4915C548.668 51.1847 547.972 51.6648 547.091 51.9318V52.0682C548.193 52.25 549.054 52.7187 549.673 53.4744C550.293 54.2244 550.602 55.1534 550.602 56.2614C550.602 57.2102 550.344 58.0625 549.827 58.8182C549.315 59.5682 548.616 60.1591 547.73 60.5909C546.844 61.0227 545.835 61.2386 544.705 61.2386ZM557.734 61.3068C556.905 61.3068 556.152 61.1506 555.476 60.8381C554.8 60.5199 554.263 60.0625 553.865 59.4659C553.467 58.8636 553.269 58.1364 553.269 57.2841C553.269 56.5341 553.416 55.9261 553.712 55.4602C554.007 54.9886 554.402 54.6193 554.896 54.3523C555.391 54.0852 555.936 53.8864 556.533 53.7557C557.135 53.6193 557.74 53.5114 558.348 53.4318C559.144 53.3295 559.788 53.2528 560.283 53.2017C560.783 53.1449 561.146 53.0511 561.374 52.9205C561.607 52.7898 561.723 52.5625 561.723 52.2386V52.1705C561.723 51.3295 561.493 50.6761 561.033 50.2102C560.578 49.7443 559.888 49.5114 558.962 49.5114C558.001 49.5114 557.249 49.7216 556.703 50.142C556.158 50.5625 555.774 51.0114 555.553 51.4886L553.644 50.8068C553.984 50.0114 554.439 49.392 555.007 48.9489C555.581 48.5 556.206 48.1875 556.882 48.0114C557.564 47.8295 558.234 47.7386 558.894 47.7386C559.314 47.7386 559.797 47.7898 560.342 47.892C560.894 47.9886 561.425 48.1903 561.936 48.4972C562.453 48.804 562.882 49.267 563.223 49.8864C563.564 50.5057 563.734 51.3352 563.734 52.375V61H561.723V59.2273H561.621C561.484 59.5114 561.257 59.8153 560.939 60.1392C560.621 60.4631 560.197 60.7386 559.669 60.9659C559.141 61.1932 558.496 61.3068 557.734 61.3068ZM558.041 59.5C558.837 59.5 559.507 59.3438 560.053 59.0312C560.604 58.7188 561.019 58.3153 561.297 57.821C561.581 57.3267 561.723 56.8068 561.723 56.2614V54.4205C561.638 54.5227 561.45 54.6165 561.161 54.7017C560.876 54.7812 560.547 54.8523 560.172 54.9148C559.803 54.9716 559.442 55.0227 559.09 55.0682C558.743 55.108 558.462 55.142 558.246 55.1705C557.723 55.2386 557.234 55.3494 556.78 55.5028C556.331 55.6506 555.967 55.875 555.689 56.1761C555.416 56.4716 555.28 56.875 555.28 57.3864C555.28 58.0852 555.538 58.6136 556.055 58.9716C556.578 59.3239 557.24 59.5 558.041 59.5ZM575.245 47.9091V49.7841H569.177V61H567.166V47.9091H575.245ZM581.114 61.3068C580.284 61.3068 579.531 61.1506 578.855 60.8381C578.179 60.5199 577.642 60.0625 577.244 59.4659C576.847 58.8636 576.648 58.1364 576.648 57.2841C576.648 56.5341 576.796 55.9261 577.091 55.4602C577.387 54.9886 577.781 54.6193 578.276 54.3523C578.77 54.0852 579.316 53.8864 579.912 53.7557C580.514 53.6193 581.119 53.5114 581.727 53.4318C582.523 53.3295 583.168 53.2528 583.662 53.2017C584.162 53.1449 584.526 53.0511 584.753 52.9205C584.986 52.7898 585.102 52.5625 585.102 52.2386V52.1705C585.102 51.3295 584.872 50.6761 584.412 50.2102C583.958 49.7443 583.267 49.5114 582.341 49.5114C581.381 49.5114 580.628 49.7216 580.083 50.142C579.537 50.5625 579.154 51.0114 578.932 51.4886L577.023 50.8068C577.364 50.0114 577.818 49.392 578.387 48.9489C578.96 48.5 579.585 48.1875 580.262 48.0114C580.943 47.8295 581.614 47.7386 582.273 47.7386C582.693 47.7386 583.176 47.7898 583.722 47.892C584.273 47.9886 584.804 48.1903 585.316 48.4972C585.833 48.804 586.262 49.267 586.602 49.8864C586.943 50.5057 587.114 51.3352 587.114 52.375V61H585.102V59.2273H585C584.864 59.5114 584.637 59.8153 584.318 60.1392C584 60.4631 583.577 60.7386 583.048 60.9659C582.52 61.1932 581.875 61.3068 581.114 61.3068ZM581.421 59.5C582.216 59.5 582.887 59.3438 583.432 59.0312C583.983 58.7188 584.398 58.3153 584.676 57.821C584.96 57.3267 585.102 56.8068 585.102 56.2614V54.4205C585.017 54.5227 584.83 54.6165 584.54 54.7017C584.256 54.7812 583.926 54.8523 583.551 54.9148C583.182 54.9716 582.821 55.0227 582.469 55.0682C582.122 55.108 581.841 55.142 581.625 55.1705C581.102 55.2386 580.614 55.3494 580.159 55.5028C579.71 55.6506 579.347 55.875 579.068 56.1761C578.796 56.4716 578.659 56.875 578.659 57.3864C578.659 58.0852 578.918 58.6136 579.435 58.9716C579.958 59.3239 580.619 59.5 581.421 59.5ZM589.386 61V59.125H589.863C590.255 59.125 590.582 59.0483 590.843 58.8949C591.105 58.7358 591.315 58.4602 591.474 58.0682C591.639 57.6705 591.764 57.1193 591.849 56.4148C591.94 55.7045 592.005 54.8011 592.045 53.7045L592.284 47.9091H601.011V61H599V49.7841H594.193L593.988 54.4545C593.943 55.5284 593.846 56.4744 593.698 57.2926C593.556 58.1051 593.338 58.7869 593.042 59.3381C592.752 59.8892 592.366 60.304 591.883 60.5824C591.4 60.8608 590.795 61 590.068 61H589.386ZM606.2 52.6477H609.95C611.484 52.6477 612.657 53.0369 613.47 53.8153C614.282 54.5937 614.688 55.5795 614.688 56.7727C614.688 57.5568 614.507 58.2699 614.143 58.9119C613.779 59.5483 613.245 60.0568 612.541 60.4375C611.836 60.8125 610.973 61 609.95 61H604.461V47.9091H606.473V59.125H609.95C610.745 59.125 611.399 58.9148 611.91 58.4943C612.421 58.0739 612.677 57.5341 612.677 56.875C612.677 56.1818 612.421 55.6165 611.91 55.179C611.399 54.7415 610.745 54.5227 609.95 54.5227H606.2V52.6477ZM626.272 53.5341V55.4091H619.044V53.5341H626.272ZM619.522 47.9091V61H617.51V47.9091H619.522ZM627.806 47.9091V61H625.794V47.9091H627.806ZM635.091 61.3068C634.262 61.3068 633.509 61.1506 632.833 60.8381C632.157 60.5199 631.62 60.0625 631.222 59.4659C630.824 58.8636 630.625 58.1364 630.625 57.2841C630.625 56.5341 630.773 55.9261 631.069 55.4602C631.364 54.9886 631.759 54.6193 632.253 54.3523C632.748 54.0852 633.293 53.8864 633.89 53.7557C634.492 53.6193 635.097 53.5114 635.705 53.4318C636.5 53.3295 637.145 53.2528 637.64 53.2017C638.14 53.1449 638.503 53.0511 638.731 52.9205C638.963 52.7898 639.08 52.5625 639.08 52.2386V52.1705C639.08 51.3295 638.85 50.6761 638.39 50.2102C637.935 49.7443 637.245 49.5114 636.319 49.5114C635.358 49.5114 634.606 49.7216 634.06 50.142C633.515 50.5625 633.131 51.0114 632.909 51.4886L631 50.8068C631.341 50.0114 631.796 49.392 632.364 48.9489C632.938 48.5 633.563 48.1875 634.239 48.0114C634.921 47.8295 635.591 47.7386 636.25 47.7386C636.671 47.7386 637.154 47.7898 637.699 47.892C638.25 47.9886 638.782 48.1903 639.293 48.4972C639.81 48.804 640.239 49.267 640.58 49.8864C640.921 50.5057 641.091 51.3352 641.091 52.375V61H639.08V59.2273H638.978C638.841 59.5114 638.614 59.8153 638.296 60.1392C637.978 60.4631 637.554 60.7386 637.026 60.9659C636.498 61.1932 635.853 61.3068 635.091 61.3068ZM635.398 59.5C636.194 59.5 636.864 59.3438 637.409 59.0312C637.961 58.7188 638.375 58.3153 638.654 57.821C638.938 57.3267 639.08 56.8068 639.08 56.2614V54.4205C638.995 54.5227 638.807 54.6165 638.517 54.7017C638.233 54.7812 637.904 54.8523 637.529 54.9148C637.159 54.9716 636.799 55.0227 636.446 55.0682C636.1 55.108 635.819 55.142 635.603 55.1705C635.08 55.2386 634.591 55.3494 634.137 55.5028C633.688 55.6506 633.324 55.875 633.046 56.1761C632.773 56.4716 632.637 56.875 632.637 57.3864C632.637 58.0852 632.895 58.6136 633.412 58.9716C633.935 59.3239 634.597 59.5 635.398 59.5ZM651.032 61V47.9091H661.328V61H659.317V49.7841H653.044V61H651.032ZM670.079 61.2727C668.852 61.2727 667.795 60.983 666.909 60.4034C666.023 59.8239 665.341 59.0256 664.864 58.0085C664.386 56.9915 664.148 55.8295 664.148 54.5227C664.148 53.1932 664.392 52.0199 664.881 51.0028C665.375 49.9801 666.062 49.1818 666.943 48.608C667.829 48.0284 668.864 47.7386 670.045 47.7386C670.966 47.7386 671.795 47.9091 672.534 48.25C673.273 48.5909 673.878 49.0682 674.349 49.6818C674.821 50.2955 675.114 51.0114 675.227 51.8295H673.216C673.062 51.233 672.721 50.7045 672.193 50.2443C671.67 49.7784 670.966 49.5455 670.079 49.5455C669.295 49.5455 668.608 49.75 668.017 50.1591C667.432 50.5625 666.974 51.1335 666.645 51.8722C666.321 52.6051 666.159 53.4659 666.159 54.4545C666.159 55.4659 666.318 56.3466 666.636 57.0966C666.96 57.8466 667.415 58.429 668 58.8438C668.591 59.2585 669.284 59.4659 670.079 59.4659C670.602 59.4659 671.077 59.375 671.503 59.1932C671.929 59.0114 672.29 58.75 672.585 58.4091C672.881 58.0682 673.091 57.6591 673.216 57.1818H675.227C675.114 57.9545 674.832 58.6506 674.383 59.2699C673.94 59.8835 673.352 60.3722 672.619 60.7358C671.892 61.0938 671.045 61.2727 670.079 61.2727ZM679.939 58.0341L686.246 47.9091H688.564V61H686.552V50.875L680.28 61H677.927V47.9091H679.939V58.0341ZM693.508 47.9091L696.644 53.2614L699.781 47.9091H702.099L697.871 54.4545L702.099 61H699.781L696.644 55.9205L693.508 61H691.19L695.349 54.4545L691.19 47.9091H693.508ZM709.508 61.2727C708.326 61.2727 707.289 60.9915 706.397 60.429C705.511 59.8665 704.818 59.0795 704.318 58.0682C703.823 57.0568 703.576 55.875 703.576 54.5227C703.576 53.1591 703.823 51.9687 704.318 50.9517C704.818 49.9347 705.511 49.1449 706.397 48.5824C707.289 48.0199 708.326 47.7386 709.508 47.7386C710.69 47.7386 711.724 48.0199 712.61 48.5824C713.502 49.1449 714.195 49.9347 714.69 50.9517C715.19 51.9687 715.44 53.1591 715.44 54.5227C715.44 55.875 715.19 57.0568 714.69 58.0682C714.195 59.0795 713.502 59.8665 712.61 60.429C711.724 60.9915 710.69 61.2727 709.508 61.2727ZM709.508 59.4659C710.406 59.4659 711.144 59.2358 711.724 58.7756C712.303 58.3153 712.732 57.7102 713.011 56.9602C713.289 56.2102 713.428 55.3977 713.428 54.5227C713.428 53.6477 713.289 52.8324 713.011 52.0767C712.732 51.321 712.303 50.7102 711.724 50.2443C711.144 49.7784 710.406 49.5455 709.508 49.5455C708.61 49.5455 707.871 49.7784 707.292 50.2443C706.712 50.7102 706.283 51.321 706.005 52.0767C705.727 52.8324 705.587 53.6477 705.587 54.5227C705.587 55.3977 705.727 56.2102 706.005 56.9602C706.283 57.7102 706.712 58.3153 707.292 58.7756C707.871 59.2358 708.61 59.4659 709.508 59.4659ZM717.111 61V59.125H717.588C717.98 59.125 718.307 59.0483 718.568 58.8949C718.83 58.7358 719.04 58.4602 719.199 58.0682C719.364 57.6705 719.489 57.1193 719.574 56.4148C719.665 55.7045 719.73 54.8011 719.77 53.7045L720.009 47.9091H728.736V61H726.725V49.7841H721.918L721.713 54.4545C721.668 55.5284 721.571 56.4744 721.423 57.2926C721.281 58.1051 721.063 58.7869 720.767 59.3381C720.477 59.8892 720.091 60.304 719.608 60.5824C719.125 60.8608 718.52 61 717.793 61H717.111ZM737.504 61.2727C736.323 61.2727 735.286 60.9915 734.394 60.429C733.507 59.8665 732.814 59.0795 732.314 58.0682C731.82 57.0568 731.573 55.875 731.573 54.5227C731.573 53.1591 731.82 51.9687 732.314 50.9517C732.814 49.9347 733.507 49.1449 734.394 48.5824C735.286 48.0199 736.323 47.7386 737.504 47.7386C738.686 47.7386 739.72 48.0199 740.607 48.5824C741.499 49.1449 742.192 49.9347 742.686 50.9517C743.186 51.9687 743.436 53.1591 743.436 54.5227C743.436 55.875 743.186 57.0568 742.686 58.0682C742.192 59.0795 741.499 59.8665 740.607 60.429C739.72 60.9915 738.686 61.2727 737.504 61.2727ZM737.504 59.4659C738.402 59.4659 739.141 59.2358 739.72 58.7756C740.3 58.3153 740.729 57.7102 741.007 56.9602C741.286 56.2102 741.425 55.3977 741.425 54.5227C741.425 53.6477 741.286 52.8324 741.007 52.0767C740.729 51.321 740.3 50.7102 739.72 50.2443C739.141 49.7784 738.402 49.5455 737.504 49.5455C736.607 49.5455 735.868 49.7784 735.288 50.2443C734.709 50.7102 734.28 51.321 734.002 52.0767C733.723 52.8324 733.584 53.6477 733.584 54.5227C733.584 55.3977 733.723 56.2102 734.002 56.9602C734.28 57.7102 734.709 58.3153 735.288 58.7756C735.868 59.2358 736.607 59.4659 737.504 59.4659ZM754.346 47.9091V49.7841H748.278V61H746.267V47.9091H754.346ZM757.042 61V47.9091H759.054V61H757.042ZM758.065 45.7273C757.673 45.7273 757.335 45.5938 757.051 45.3267C756.772 45.0597 756.633 44.7386 756.633 44.3636C756.633 43.9886 756.772 43.6676 757.051 43.4006C757.335 43.1335 757.673 43 758.065 43C758.457 43 758.792 43.1335 759.071 43.4006C759.355 43.6676 759.497 43.9886 759.497 44.3636C759.497 44.7386 759.355 45.0597 759.071 45.3267C758.792 45.5938 758.457 45.7273 758.065 45.7273ZM770.372 61V49.75H766.895C766.111 49.75 765.495 49.9318 765.046 50.2955C764.597 50.6591 764.372 51.1591 764.372 51.7955C764.372 52.4205 764.574 52.9119 764.978 53.2699C765.387 53.6278 765.946 53.8068 766.657 53.8068H770.884V55.6818H766.657C765.77 55.6818 765.006 55.5256 764.364 55.2131C763.722 54.9006 763.228 54.4545 762.881 53.875C762.534 53.2898 762.361 52.5966 762.361 51.7955C762.361 50.9886 762.543 50.2955 762.907 49.7159C763.27 49.1364 763.79 48.6903 764.466 48.3778C765.148 48.0653 765.958 47.9091 766.895 47.9091H772.282V61H770.372ZM761.645 61L765.361 54.4886H767.543L763.827 61H761.645Z" fill="#02344A"/>
<path d="M793 57.7955C792.312 57.7955 791.685 57.6278 791.116 57.2926C790.548 56.9517 790.094 56.4972 789.753 55.929C789.418 55.3608 789.25 54.733 789.25 54.0455C789.25 53.3523 789.418 52.7244 789.753 52.1619C790.094 51.5937 790.548 51.142 791.116 50.8068C791.685 50.4659 792.312 50.2955 793 50.2955C793.693 50.2955 794.321 50.4659 794.884 50.8068C795.452 51.142 795.903 51.5937 796.239 52.1619C796.58 52.7244 796.75 53.3523 796.75 54.0455C796.75 54.733 796.58 55.3608 796.239 55.929C795.903 56.4972 795.452 56.9517 794.884 57.2926C794.321 57.6278 793.693 57.7955 793 57.7955ZM813.114 61V43.5455H823.648V45.4205H815.227V50.875H819.659C820.909 50.875 821.963 51.0795 822.821 51.4886C823.685 51.8977 824.338 52.4744 824.781 53.2188C825.23 53.9631 825.455 54.8409 825.455 55.8523C825.455 56.8636 825.23 57.7557 824.781 58.5284C824.338 59.3011 823.685 59.9062 822.821 60.3438C821.963 60.7812 820.909 61 819.659 61H813.114ZM815.227 59.1591H819.659C820.455 59.1591 821.128 59 821.679 58.6818C822.236 58.358 822.656 57.9432 822.94 57.4375C823.23 56.9261 823.375 56.3864 823.375 55.8182C823.375 54.983 823.054 54.2642 822.412 53.6619C821.77 53.054 820.852 52.75 819.659 52.75H815.227V59.1591ZM828.421 61V47.9091H830.433V61H828.421ZM829.444 45.7273C829.052 45.7273 828.714 45.5938 828.43 45.3267C828.151 45.0597 828.012 44.7386 828.012 44.3636C828.012 43.9886 828.151 43.6676 828.43 43.4006C828.714 43.1335 829.052 43 829.444 43C829.836 43 830.171 43.1335 830.45 43.4006C830.734 43.6676 830.876 43.9886 830.876 44.3636C830.876 44.7386 830.734 45.0597 830.45 45.3267C830.171 45.5938 829.836 45.7273 829.444 45.7273ZM833.058 57.6591H835.206C835.252 58.25 835.519 58.6989 836.007 59.0057C836.502 59.3125 837.144 59.4659 837.933 59.4659C838.74 59.4659 839.431 59.3011 840.004 58.9716C840.578 58.6364 840.865 58.0966 840.865 57.3523C840.865 56.9148 840.757 56.5341 840.541 56.2102C840.325 55.8807 840.021 55.625 839.629 55.4432C839.237 55.2614 838.774 55.1705 838.24 55.1705H835.99V53.3636H838.24C839.041 53.3636 839.632 53.1818 840.013 52.8182C840.399 52.4545 840.592 52 840.592 51.4545C840.592 50.8693 840.385 50.4006 839.97 50.0483C839.556 49.6903 838.967 49.5114 838.206 49.5114C837.439 49.5114 836.8 49.6847 836.288 50.0312C835.777 50.3722 835.507 50.8125 835.479 51.3523H833.365C833.388 50.6477 833.604 50.0256 834.013 49.4858C834.422 48.9403 834.979 48.5142 835.683 48.2074C836.388 47.8949 837.195 47.7386 838.104 47.7386C839.024 47.7386 839.823 47.9006 840.499 48.2244C841.181 48.5426 841.706 48.9773 842.075 49.5284C842.45 50.0739 842.638 50.6932 842.638 51.3864C842.638 52.125 842.431 52.7216 842.016 53.1761C841.601 53.6307 841.081 53.9545 840.456 54.1477V54.2841C840.95 54.3182 841.379 54.4773 841.743 54.7614C842.112 55.0398 842.399 55.4062 842.604 55.8608C842.808 56.3097 842.911 56.8068 842.911 57.3523C842.911 58.1477 842.698 58.8409 842.271 59.4318C841.845 60.017 841.26 60.4716 840.516 60.7955C839.771 61.1136 838.922 61.2727 837.967 61.2727C837.041 61.2727 836.212 61.1222 835.479 60.821C834.746 60.5142 834.163 60.0909 833.732 59.5511C833.306 59.0057 833.081 58.375 833.058 57.6591ZM854.257 53.5341V55.4091H847.03V53.5341H854.257ZM847.507 47.9091V61H845.496V47.9091H847.507ZM855.791 47.9091V61H853.78V47.9091H855.791ZM864.713 61.2727C863.452 61.2727 862.364 60.9943 861.449 60.4375C860.54 59.875 859.838 59.0909 859.344 58.0852C858.855 57.0739 858.611 55.8977 858.611 54.5568C858.611 53.2159 858.855 52.0341 859.344 51.0114C859.838 49.983 860.526 49.1818 861.406 48.608C862.293 48.0284 863.327 47.7386 864.509 47.7386C865.191 47.7386 865.864 47.8523 866.529 48.0795C867.193 48.3068 867.799 48.6761 868.344 49.1875C868.889 49.6932 869.324 50.3636 869.648 51.1989C869.972 52.0341 870.134 53.0625 870.134 54.2841V55.1364H860.043V53.3977H868.088C868.088 52.6591 867.941 52 867.645 51.4205C867.355 50.8409 866.941 50.3835 866.401 50.0483C865.867 49.7131 865.236 49.5455 864.509 49.5455C863.708 49.5455 863.014 49.7443 862.429 50.142C861.85 50.5341 861.404 51.0455 861.091 51.6761C860.779 52.3068 860.622 52.983 860.622 53.7045V54.8636C860.622 55.8523 860.793 56.6903 861.134 57.3778C861.48 58.0597 861.96 58.5795 862.574 58.9375C863.188 59.2898 863.901 59.4659 864.713 59.4659C865.242 59.4659 865.719 59.392 866.145 59.2443C866.577 59.0909 866.949 58.8636 867.262 58.5625C867.574 58.2557 867.816 57.875 867.986 57.4205L869.929 57.9659C869.725 58.625 869.381 59.2045 868.898 59.7045C868.415 60.1989 867.818 60.5852 867.108 60.8636C866.398 61.1364 865.6 61.2727 864.713 61.2727ZM878.272 61.2727C877.044 61.2727 875.988 60.983 875.101 60.4034C874.215 59.8239 873.533 59.0256 873.056 58.0085C872.578 56.9915 872.34 55.8295 872.34 54.5227C872.34 53.1932 872.584 52.0199 873.073 51.0028C873.567 49.9801 874.255 49.1818 875.135 48.608C876.022 48.0284 877.056 47.7386 878.238 47.7386C879.158 47.7386 879.988 47.9091 880.726 48.25C881.465 48.5909 882.07 49.0682 882.541 49.6818C883.013 50.2955 883.306 51.0114 883.419 51.8295H881.408C881.255 51.233 880.914 50.7045 880.385 50.2443C879.863 49.7784 879.158 49.5455 878.272 49.5455C877.488 49.5455 876.8 49.75 876.209 50.1591C875.624 50.5625 875.166 51.1335 874.837 51.8722C874.513 52.6051 874.351 53.4659 874.351 54.4545C874.351 55.4659 874.51 56.3466 874.828 57.0966C875.152 57.8466 875.607 58.429 876.192 58.8438C876.783 59.2585 877.476 59.4659 878.272 59.4659C878.794 59.4659 879.269 59.375 879.695 59.1932C880.121 59.0114 880.482 58.75 880.777 58.4091C881.073 58.0682 881.283 57.6591 881.408 57.1818H883.419C883.306 57.9545 883.024 58.6506 882.576 59.2699C882.132 59.8835 881.544 60.3722 880.811 60.7358C880.084 61.0938 879.238 61.2727 878.272 61.2727ZM892.63 61V47.9091H902.925V61H900.914V49.7841H894.641V61H892.63ZM911.677 61.2727C910.449 61.2727 909.393 60.983 908.506 60.4034C907.62 59.8239 906.938 59.0256 906.461 58.0085C905.983 56.9915 905.745 55.8295 905.745 54.5227C905.745 53.1932 905.989 52.0199 906.478 51.0028C906.972 49.9801 907.66 49.1818 908.54 48.608C909.427 48.0284 910.461 47.7386 911.643 47.7386C912.563 47.7386 913.393 47.9091 914.131 48.25C914.87 48.5909 915.475 49.0682 915.946 49.6818C916.418 50.2955 916.711 51.0114 916.824 51.8295H914.813C914.66 51.233 914.319 50.7045 913.79 50.2443C913.268 49.7784 912.563 49.5455 911.677 49.5455C910.893 49.5455 910.205 49.75 909.614 50.1591C909.029 50.5625 908.571 51.1335 908.242 51.8722C907.918 52.6051 907.756 53.4659 907.756 54.4545C907.756 55.4659 907.915 56.3466 908.233 57.0966C908.557 57.8466 909.012 58.429 909.597 58.8438C910.188 59.2585 910.881 59.4659 911.677 59.4659C912.199 59.4659 912.674 59.375 913.1 59.1932C913.526 59.0114 913.887 58.75 914.182 58.4091C914.478 58.0682 914.688 57.6591 914.813 57.1818H916.824C916.711 57.9545 916.429 58.6506 915.981 59.2699C915.537 59.8835 914.949 60.3722 914.216 60.7358C913.489 61.0938 912.643 61.2727 911.677 61.2727ZM921.536 58.0341L927.843 47.9091H930.161V61H928.15V50.875L921.877 61H919.525V47.9091H921.536V58.0341ZM935.105 47.9091L938.241 53.2614L941.378 47.9091H943.696L939.469 54.4545L943.696 61H941.378L938.241 55.9205L935.105 61H932.787L936.946 54.4545L932.787 47.9091H935.105ZM951.105 61.2727C949.923 61.2727 948.886 60.9915 947.994 60.429C947.108 59.8665 946.415 59.0795 945.915 58.0682C945.42 57.0568 945.173 55.875 945.173 54.5227C945.173 53.1591 945.42 51.9687 945.915 50.9517C946.415 49.9347 947.108 49.1449 947.994 48.5824C948.886 48.0199 949.923 47.7386 951.105 47.7386C952.287 47.7386 953.321 48.0199 954.207 48.5824C955.099 49.1449 955.793 49.9347 956.287 50.9517C956.787 51.9687 957.037 53.1591 957.037 54.5227C957.037 55.875 956.787 57.0568 956.287 58.0682C955.793 59.0795 955.099 59.8665 954.207 60.429C953.321 60.9915 952.287 61.2727 951.105 61.2727ZM951.105 59.4659C952.003 59.4659 952.741 59.2358 953.321 58.7756C953.9 58.3153 954.329 57.7102 954.608 56.9602C954.886 56.2102 955.025 55.3977 955.025 54.5227C955.025 53.6477 954.886 52.8324 954.608 52.0767C954.329 51.321 953.9 50.7102 953.321 50.2443C952.741 49.7784 952.003 49.5455 951.105 49.5455C950.207 49.5455 949.469 49.7784 948.889 50.2443C948.31 50.7102 947.881 51.321 947.602 52.0767C947.324 52.8324 947.185 53.6477 947.185 54.5227C947.185 55.3977 947.324 56.2102 947.602 56.9602C947.881 57.7102 948.31 58.3153 948.889 58.7756C949.469 59.2358 950.207 59.4659 951.105 59.4659ZM958.708 61V59.125H959.185C959.577 59.125 959.904 59.0483 960.165 58.8949C960.427 58.7358 960.637 58.4602 960.796 58.0682C960.961 57.6705 961.086 57.1193 961.171 56.4148C961.262 55.7045 961.327 54.8011 961.367 53.7045L961.606 47.9091H970.333V61H968.322V49.7841H963.515L963.31 54.4545C963.265 55.5284 963.168 56.4744 963.021 57.2926C962.879 58.1051 962.66 58.7869 962.364 59.3381C962.075 59.8892 961.688 60.304 961.205 60.5824C960.722 60.8608 960.117 61 959.39 61H958.708ZM979.102 61.2727C977.92 61.2727 976.883 60.9915 975.991 60.429C975.104 59.8665 974.411 59.0795 973.911 58.0682C973.417 57.0568 973.17 55.875 973.17 54.5227C973.17 53.1591 973.417 51.9687 973.911 50.9517C974.411 49.9347 975.104 49.1449 975.991 48.5824C976.883 48.0199 977.92 47.7386 979.102 47.7386C980.283 47.7386 981.318 48.0199 982.204 48.5824C983.096 49.1449 983.789 49.9347 984.283 50.9517C984.783 51.9687 985.033 53.1591 985.033 54.5227C985.033 55.875 984.783 57.0568 984.283 58.0682C983.789 59.0795 983.096 59.8665 982.204 60.429C981.318 60.9915 980.283 61.2727 979.102 61.2727ZM979.102 59.4659C979.999 59.4659 980.738 59.2358 981.318 58.7756C981.897 58.3153 982.326 57.7102 982.604 56.9602C982.883 56.2102 983.022 55.3977 983.022 54.5227C983.022 53.6477 982.883 52.8324 982.604 52.0767C982.326 51.321 981.897 50.7102 981.318 50.2443C980.738 49.7784 979.999 49.5455 979.102 49.5455C978.204 49.5455 977.465 49.7784 976.886 50.2443C976.306 50.7102 975.877 51.321 975.599 52.0767C975.32 52.8324 975.181 53.6477 975.181 54.5227C975.181 55.3977 975.32 56.2102 975.599 56.9602C975.877 57.7102 976.306 58.3153 976.886 58.7756C977.465 59.2358 978.204 59.4659 979.102 59.4659ZM995.943 47.9091V49.7841H989.875V61H987.864V47.9091H995.943ZM998.639 61V47.9091H1000.65V61H998.639ZM999.662 45.7273C999.27 45.7273 998.932 45.5938 998.648 45.3267C998.369 45.0597 998.23 44.7386 998.23 44.3636C998.23 43.9886 998.369 43.6676 998.648 43.4006C998.932 43.1335 999.27 43 999.662 43C1000.05 43 1000.39 43.1335 1000.67 43.4006C1000.95 43.6676 1001.09 43.9886 1001.09 44.3636C1001.09 44.7386 1000.95 45.0597 1000.67 45.3267C1000.39 45.5938 1000.05 45.7273 999.662 45.7273ZM1011.97 61V49.75H1008.49C1007.71 49.75 1007.09 49.9318 1006.64 50.2955C1006.19 50.6591 1005.97 51.1591 1005.97 51.7955C1005.97 52.4205 1006.17 52.9119 1006.57 53.2699C1006.98 53.6278 1007.54 53.8068 1008.25 53.8068H1012.48V55.6818H1008.25C1007.37 55.6818 1006.6 55.5256 1005.96 55.2131C1005.32 54.9006 1004.82 54.4545 1004.48 53.875C1004.13 53.2898 1003.96 52.5966 1003.96 51.7955C1003.96 50.9886 1004.14 50.2955 1004.5 49.7159C1004.87 49.1364 1005.39 48.6903 1006.06 48.3778C1006.75 48.0653 1007.55 47.9091 1008.49 47.9091H1013.88V61H1011.97ZM1003.24 61L1006.96 54.4886H1009.14L1005.42 61H1003.24Z" fill="#02344A"/>
<path d="M1033 57.7955C1032.31 57.7955 1031.68 57.6278 1031.12 57.2926C1030.55 56.9517 1030.09 56.4972 1029.75 55.929C1029.42 55.3608 1029.25 54.733 1029.25 54.0455C1029.25 53.3523 1029.42 52.7244 1029.75 52.1619C1030.09 51.5937 1030.55 51.142 1031.12 50.8068C1031.68 50.4659 1032.31 50.2955 1033 50.2955C1033.69 50.2955 1034.32 50.4659 1034.88 50.8068C1035.45 51.142 1035.9 51.5937 1036.24 52.1619C1036.58 52.7244 1036.75 53.3523 1036.75 54.0455C1036.75 54.733 1036.58 55.3608 1036.24 55.929C1035.9 56.4972 1035.45 56.9517 1034.88 57.2926C1034.32 57.6278 1033.69 57.7955 1033 57.7955ZM1066.17 43.5455V61H1064.06V45.4205H1055.26V61H1053.15V43.5455H1066.17ZM1071.93 58.0341L1078.24 47.9091H1080.56V61H1078.55V50.875L1072.27 61H1069.92V47.9091H1071.93V58.0341ZM1082.22 49.7841V47.9091H1092.86V49.7841H1088.56V61H1086.55V49.7841H1082.22ZM1098.72 61.3068C1097.89 61.3068 1097.14 61.1506 1096.46 60.8381C1095.79 60.5199 1095.25 60.0625 1094.85 59.4659C1094.46 58.8636 1094.26 58.1364 1094.26 57.2841C1094.26 56.5341 1094.4 55.9261 1094.7 55.4602C1095 54.9886 1095.39 54.6193 1095.89 54.3523C1096.38 54.0852 1096.92 53.8864 1097.52 53.7557C1098.12 53.6193 1098.73 53.5114 1099.34 53.4318C1100.13 53.3295 1100.78 53.2528 1101.27 53.2017C1101.77 53.1449 1102.14 53.0511 1102.36 52.9205C1102.6 52.7898 1102.71 52.5625 1102.71 52.2386V52.1705C1102.71 51.3295 1102.48 50.6761 1102.02 50.2102C1101.57 49.7443 1100.88 49.5114 1099.95 49.5114C1098.99 49.5114 1098.24 49.7216 1097.69 50.142C1097.15 50.5625 1096.76 51.0114 1096.54 51.4886L1094.63 50.8068C1094.97 50.0114 1095.43 49.392 1096 48.9489C1096.57 48.5 1097.19 48.1875 1097.87 48.0114C1098.55 47.8295 1099.22 47.7386 1099.88 47.7386C1100.3 47.7386 1100.79 47.7898 1101.33 47.892C1101.88 47.9886 1102.41 48.1903 1102.92 48.4972C1103.44 48.804 1103.87 49.267 1104.21 49.8864C1104.55 50.5057 1104.72 51.3352 1104.72 52.375V61H1102.71V59.2273H1102.61C1102.47 59.5114 1102.25 59.8153 1101.93 60.1392C1101.61 60.4631 1101.19 60.7386 1100.66 60.9659C1100.13 61.1932 1099.48 61.3068 1098.72 61.3068ZM1099.03 59.5C1099.83 59.5 1100.5 59.3438 1101.04 59.0312C1101.59 58.7188 1102.01 58.3153 1102.29 57.821C1102.57 57.3267 1102.71 56.8068 1102.71 56.2614V54.4205C1102.63 54.5227 1102.44 54.6165 1102.15 54.7017C1101.87 54.7812 1101.54 54.8523 1101.16 54.9148C1100.79 54.9716 1100.43 55.0227 1100.08 55.0682C1099.73 55.108 1099.45 55.142 1099.23 55.1705C1098.71 55.2386 1098.22 55.3494 1097.77 55.5028C1097.32 55.6506 1096.96 55.875 1096.68 56.1761C1096.4 56.4716 1096.27 56.875 1096.27 57.3864C1096.27 58.0852 1096.53 58.6136 1097.04 58.9716C1097.57 59.3239 1098.23 59.5 1099.03 59.5ZM1116.92 53.5341V55.4091H1109.69V53.5341H1116.92ZM1110.17 47.9091V61H1108.15V47.9091H1110.17ZM1118.45 47.9091V61H1116.44V47.9091H1118.45ZM1130.64 53.5341V55.4091H1123.42V53.5341H1130.64ZM1123.89 47.9091V61H1121.88V47.9091H1123.89ZM1132.18 47.9091V61H1130.17V47.9091H1132.18ZM1143.49 61V49.75H1140.01C1139.23 49.75 1138.61 49.9318 1138.16 50.2955C1137.71 50.6591 1137.49 51.1591 1137.49 51.7955C1137.49 52.4205 1137.69 52.9119 1138.09 53.2699C1138.5 53.6278 1139.06 53.8068 1139.77 53.8068H1144V55.6818H1139.77C1138.88 55.6818 1138.12 55.5256 1137.48 55.2131C1136.84 54.9006 1136.34 54.4545 1136 53.875C1135.65 53.2898 1135.48 52.5966 1135.48 51.7955C1135.48 50.9886 1135.66 50.2955 1136.02 49.7159C1136.38 49.1364 1136.9 48.6903 1137.58 48.3778C1138.26 48.0653 1139.07 47.9091 1140.01 47.9091H1145.4V61H1143.49ZM1134.76 61L1138.48 54.4886H1140.66L1136.94 61H1134.76ZM1153.96 64.75V59.125H1155.05C1155.32 58.8466 1155.55 58.5455 1155.74 58.2216C1155.94 57.8977 1156.1 57.5142 1156.24 57.071C1156.39 56.6222 1156.52 56.0767 1156.62 55.4347C1156.72 54.7869 1156.81 54.0057 1156.89 53.0909L1157.34 47.9091H1165.65V59.125H1167.67V64.75H1165.65V61H1155.97V64.75H1153.96ZM1157.34 59.125H1163.64V49.7841H1159.21L1158.87 53.0909C1158.73 54.4602 1158.55 55.6562 1158.34 56.679C1158.13 57.7017 1157.8 58.517 1157.34 59.125ZM1171.39 65.9091C1171.05 65.9091 1170.75 65.8807 1170.48 65.8239C1170.21 65.7727 1170.03 65.7216 1169.92 65.6705L1170.44 63.8977C1170.92 64.0227 1171.36 64.0682 1171.73 64.0341C1172.11 64 1172.44 63.8324 1172.73 63.5312C1173.02 63.2358 1173.29 62.7557 1173.54 62.0909L1173.91 61.0682L1169.07 47.9091H1171.25L1174.87 58.3409H1175L1178.62 47.9091H1180.8L1175.24 62.9091C1174.99 63.5852 1174.68 64.1449 1174.31 64.5881C1173.94 65.0369 1173.52 65.3693 1173.03 65.5852C1172.54 65.8011 1172 65.9091 1171.39 65.9091ZM1183.21 47.9091H1185.23V59.125H1190.17V47.9091H1192.18V59.125H1197.12V47.9091H1199.13V61H1183.21V47.9091ZM1202.57 61V47.9091H1204.58V61H1202.57ZM1203.59 45.7273C1203.2 45.7273 1202.86 45.5938 1202.58 45.3267C1202.3 45.0597 1202.16 44.7386 1202.16 44.3636C1202.16 43.9886 1202.3 43.6676 1202.58 43.4006C1202.86 43.1335 1203.2 43 1203.59 43C1203.98 43 1204.32 43.1335 1204.6 43.4006C1204.88 43.6676 1205.02 43.9886 1205.02 44.3636C1205.02 44.7386 1204.88 45.0597 1204.6 45.3267C1204.32 45.5938 1203.98 45.7273 1203.59 45.7273ZM1213.78 49.7841V47.9091H1224.42V49.7841H1220.12V61H1218.11V49.7841H1213.78ZM1230.29 61.3068C1229.46 61.3068 1228.7 61.1506 1228.03 60.8381C1227.35 60.5199 1226.81 60.0625 1226.42 59.4659C1226.02 58.8636 1225.82 58.1364 1225.82 57.2841C1225.82 56.5341 1225.97 55.9261 1226.26 55.4602C1226.56 54.9886 1226.95 54.6193 1227.45 54.3523C1227.94 54.0852 1228.49 53.8864 1229.08 53.7557C1229.69 53.6193 1230.29 53.5114 1230.9 53.4318C1231.7 53.3295 1232.34 53.2528 1232.83 53.2017C1233.33 53.1449 1233.7 53.0511 1233.93 52.9205C1234.16 52.7898 1234.27 52.5625 1234.27 52.2386V52.1705C1234.27 51.3295 1234.04 50.6761 1233.58 50.2102C1233.13 49.7443 1232.44 49.5114 1231.51 49.5114C1230.55 49.5114 1229.8 49.7216 1229.26 50.142C1228.71 50.5625 1228.33 51.0114 1228.1 51.4886L1226.2 50.8068C1226.54 50.0114 1226.99 49.392 1227.56 48.9489C1228.13 48.5 1228.76 48.1875 1229.43 48.0114C1230.12 47.8295 1230.79 47.7386 1231.45 47.7386C1231.87 47.7386 1232.35 47.7898 1232.89 47.892C1233.45 47.9886 1233.98 48.1903 1234.49 48.4972C1235.01 48.804 1235.43 49.267 1235.77 49.8864C1236.12 50.5057 1236.29 51.3352 1236.29 52.375V61H1234.27V59.2273H1234.17C1234.04 59.5114 1233.81 59.8153 1233.49 60.1392C1233.17 60.4631 1232.75 60.7386 1232.22 60.9659C1231.69 61.1932 1231.05 61.3068 1230.29 61.3068ZM1230.59 59.5C1231.39 59.5 1232.06 59.3438 1232.6 59.0312C1233.16 58.7188 1233.57 58.3153 1233.85 57.821C1234.13 57.3267 1234.27 56.8068 1234.27 56.2614V54.4205C1234.19 54.5227 1234 54.6165 1233.71 54.7017C1233.43 54.7812 1233.1 54.8523 1232.72 54.9148C1232.35 54.9716 1231.99 55.0227 1231.64 55.0682C1231.29 55.108 1231.01 55.142 1230.8 55.1705C1230.27 55.2386 1229.79 55.3494 1229.33 55.5028C1228.88 55.6506 1228.52 55.875 1228.24 56.1761C1227.97 56.4716 1227.83 56.875 1227.83 57.3864C1227.83 58.0852 1228.09 58.6136 1228.61 58.9716C1229.13 59.3239 1229.79 59.5 1230.59 59.5ZM1246.5 61V43.5455H1257.03V45.4205H1248.61V50.875H1253.05C1254.3 50.875 1255.35 51.0795 1256.21 51.4886C1257.07 51.8977 1257.72 52.4744 1258.17 53.2188C1258.62 53.9631 1258.84 54.8409 1258.84 55.8523C1258.84 56.8636 1258.62 57.7557 1258.17 58.5284C1257.72 59.3011 1257.07 59.9062 1256.21 60.3438C1255.35 60.7812 1254.3 61 1253.05 61H1246.5ZM1248.61 59.1591H1253.05C1253.84 59.1591 1254.51 59 1255.07 58.6818C1255.62 58.358 1256.04 57.9432 1256.33 57.4375C1256.62 56.9261 1256.76 56.3864 1256.76 55.8182C1256.76 54.983 1256.44 54.2642 1255.8 53.6619C1255.16 53.054 1254.24 52.75 1253.05 52.75H1248.61V59.1591ZM1267.13 61.2727C1265.94 61.2727 1264.91 60.9915 1264.02 60.429C1263.13 59.8665 1262.44 59.0795 1261.94 58.0682C1261.44 57.0568 1261.19 55.875 1261.19 54.5227C1261.19 53.1591 1261.44 51.9687 1261.94 50.9517C1262.44 49.9347 1263.13 49.1449 1264.02 48.5824C1264.91 48.0199 1265.94 47.7386 1267.13 47.7386C1268.31 47.7386 1269.34 48.0199 1270.23 48.5824C1271.12 49.1449 1271.81 49.9347 1272.31 50.9517C1272.81 51.9687 1273.06 53.1591 1273.06 54.5227C1273.06 55.875 1272.81 57.0568 1272.31 58.0682C1271.81 59.0795 1271.12 59.8665 1270.23 60.429C1269.34 60.9915 1268.31 61.2727 1267.13 61.2727ZM1267.13 59.4659C1268.02 59.4659 1268.76 59.2358 1269.34 58.7756C1269.92 58.3153 1270.35 57.7102 1270.63 56.9602C1270.91 56.2102 1271.05 55.3977 1271.05 54.5227C1271.05 53.6477 1270.91 52.8324 1270.63 52.0767C1270.35 51.321 1269.92 50.7102 1269.34 50.2443C1268.76 49.7784 1268.02 49.5455 1267.13 49.5455C1266.23 49.5455 1265.49 49.7784 1264.91 50.2443C1264.33 50.7102 1263.9 51.321 1263.62 52.0767C1263.34 52.8324 1263.21 53.6477 1263.21 54.5227C1263.21 55.3977 1263.34 56.2102 1263.62 56.9602C1263.9 57.7102 1264.33 58.3153 1264.91 58.7756C1265.49 59.2358 1266.23 59.4659 1267.13 59.4659ZM1283.97 47.9091V49.7841H1277.9V61H1275.89V47.9091H1283.97ZM1289.84 61.3068C1289.01 61.3068 1288.25 61.1506 1287.58 60.8381C1286.9 60.5199 1286.36 60.0625 1285.97 59.4659C1285.57 58.8636 1285.37 58.1364 1285.37 57.2841C1285.37 56.5341 1285.52 55.9261 1285.81 55.4602C1286.11 54.9886 1286.5 54.6193 1287 54.3523C1287.49 54.0852 1288.04 53.8864 1288.63 53.7557C1289.24 53.6193 1289.84 53.5114 1290.45 53.4318C1291.25 53.3295 1291.89 53.2528 1292.38 53.2017C1292.88 53.1449 1293.25 53.0511 1293.48 52.9205C1293.71 52.7898 1293.82 52.5625 1293.82 52.2386V52.1705C1293.82 51.3295 1293.59 50.6761 1293.13 50.2102C1292.68 49.7443 1291.99 49.5114 1291.06 49.5114C1290.1 49.5114 1289.35 49.7216 1288.81 50.142C1288.26 50.5625 1287.88 51.0114 1287.65 51.4886L1285.75 50.8068C1286.09 50.0114 1286.54 49.392 1287.11 48.9489C1287.68 48.5 1288.31 48.1875 1288.98 48.0114C1289.67 47.8295 1290.34 47.7386 1291 47.7386C1291.42 47.7386 1291.9 47.7898 1292.44 47.892C1293 47.9886 1293.53 48.1903 1294.04 48.4972C1294.56 48.804 1294.98 49.267 1295.32 49.8864C1295.67 50.5057 1295.84 51.3352 1295.84 52.375V61H1293.82V59.2273H1293.72C1293.59 59.5114 1293.36 59.8153 1293.04 60.1392C1292.72 60.4631 1292.3 60.7386 1291.77 60.9659C1291.24 61.1932 1290.6 61.3068 1289.84 61.3068ZM1290.14 59.5C1290.94 59.5 1291.61 59.3438 1292.15 59.0312C1292.71 58.7188 1293.12 58.3153 1293.4 57.821C1293.68 57.3267 1293.82 56.8068 1293.82 56.2614V54.4205C1293.74 54.5227 1293.55 54.6165 1293.26 54.7017C1292.98 54.7812 1292.65 54.8523 1292.27 54.9148C1291.9 54.9716 1291.54 55.0227 1291.19 55.0682C1290.84 55.108 1290.56 55.142 1290.35 55.1705C1289.82 55.2386 1289.34 55.3494 1288.88 55.5028C1288.43 55.6506 1288.07 55.875 1287.79 56.1761C1287.52 56.4716 1287.38 56.875 1287.38 57.3864C1287.38 58.0852 1287.64 58.6136 1288.16 58.9716C1288.68 59.3239 1289.34 59.5 1290.14 59.5Z" fill="#02344A"/>
<path d="M1318 57.7955C1317.31 57.7955 1316.68 57.6278 1316.12 57.2926C1315.55 56.9517 1315.09 56.4972 1314.75 55.929C1314.42 55.3608 1314.25 54.733 1314.25 54.0455C1314.25 53.3523 1314.42 52.7244 1314.75 52.1619C1315.09 51.5937 1315.55 51.142 1316.12 50.8068C1316.68 50.4659 1317.31 50.2955 1318 50.2955C1318.69 50.2955 1319.32 50.4659 1319.88 50.8068C1320.45 51.142 1320.9 51.5937 1321.24 52.1619C1321.58 52.7244 1321.75 53.3523 1321.75 54.0455C1321.75 54.733 1321.58 55.3608 1321.24 55.929C1320.9 56.4972 1320.45 56.9517 1319.88 57.2926C1319.32 57.6278 1318.69 57.7955 1318 57.7955ZM1351.17 43.5455V61H1349.06V45.4205H1340.26V61H1338.15V43.5455H1351.17ZM1354.92 65.9091V47.9091H1356.86V49.9886H1357.1C1357.25 49.7614 1357.46 49.4716 1357.72 49.1193C1357.98 48.7614 1358.36 48.4432 1358.86 48.1648C1359.36 47.8807 1360.03 47.7386 1360.89 47.7386C1361.99 47.7386 1362.96 48.0142 1363.8 48.5653C1364.64 49.1165 1365.3 49.8977 1365.77 50.9091C1366.24 51.9205 1366.48 53.1136 1366.48 54.4886C1366.48 55.875 1366.24 57.0767 1365.77 58.0938C1365.3 59.1051 1364.65 59.8892 1363.81 60.446C1362.98 60.9972 1362.01 61.2727 1360.92 61.2727C1360.08 61.2727 1359.41 61.1335 1358.9 60.8551C1358.4 60.571 1358.01 60.25 1357.73 59.892C1357.46 59.5284 1357.25 59.2273 1357.1 58.9886H1356.93V65.9091H1354.92ZM1356.9 54.4545C1356.9 55.4432 1357.04 56.3153 1357.33 57.071C1357.62 57.821 1358.05 58.4091 1358.6 58.8352C1359.16 59.2557 1359.84 59.4659 1360.65 59.4659C1361.49 59.4659 1362.19 59.2443 1362.75 58.8011C1363.32 58.3523 1363.75 57.75 1364.03 56.9943C1364.32 56.233 1364.47 55.3864 1364.47 54.4545C1364.47 53.5341 1364.32 52.7045 1364.04 51.9659C1363.76 51.2216 1363.34 50.6335 1362.77 50.2017C1362.21 49.7642 1361.5 49.5455 1360.65 49.5455C1359.83 49.5455 1359.14 49.7528 1358.59 50.1676C1358.03 50.5767 1357.61 51.1506 1357.32 51.8892C1357.04 52.6222 1356.9 53.4773 1356.9 54.4545ZM1373.16 61.3068C1372.33 61.3068 1371.58 61.1506 1370.9 60.8381C1370.22 60.5199 1369.69 60.0625 1369.29 59.4659C1368.89 58.8636 1368.69 58.1364 1368.69 57.2841C1368.69 56.5341 1368.84 55.9261 1369.14 55.4602C1369.43 54.9886 1369.83 54.6193 1370.32 54.3523C1370.81 54.0852 1371.36 53.8864 1371.96 53.7557C1372.56 53.6193 1373.16 53.5114 1373.77 53.4318C1374.57 53.3295 1375.21 53.2528 1375.71 53.2017C1376.21 53.1449 1376.57 53.0511 1376.8 52.9205C1377.03 52.7898 1377.15 52.5625 1377.15 52.2386V52.1705C1377.15 51.3295 1376.92 50.6761 1376.46 50.2102C1376 49.7443 1375.31 49.5114 1374.39 49.5114C1373.43 49.5114 1372.67 49.7216 1372.13 50.142C1371.58 50.5625 1371.2 51.0114 1370.98 51.4886L1369.07 50.8068C1369.41 50.0114 1369.86 49.392 1370.43 48.9489C1371.01 48.5 1371.63 48.1875 1372.31 48.0114C1372.99 47.8295 1373.66 47.7386 1374.32 47.7386C1374.74 47.7386 1375.22 47.7898 1375.77 47.892C1376.32 47.9886 1376.85 48.1903 1377.36 48.4972C1377.88 48.804 1378.31 49.267 1378.65 49.8864C1378.99 50.5057 1379.16 51.3352 1379.16 52.375V61H1377.15V59.2273H1377.04C1376.91 59.5114 1376.68 59.8153 1376.36 60.1392C1376.04 60.4631 1375.62 60.7386 1375.09 60.9659C1374.56 61.1932 1373.92 61.3068 1373.16 61.3068ZM1373.47 59.5C1374.26 59.5 1374.93 59.3438 1375.48 59.0312C1376.03 58.7188 1376.44 58.3153 1376.72 57.821C1377.01 57.3267 1377.15 56.8068 1377.15 56.2614V54.4205C1377.06 54.5227 1376.87 54.6165 1376.58 54.7017C1376.3 54.7812 1375.97 54.8523 1375.6 54.9148C1375.23 54.9716 1374.87 55.0227 1374.51 55.0682C1374.17 55.108 1373.89 55.142 1373.67 55.1705C1373.15 55.2386 1372.66 55.3494 1372.2 55.5028C1371.76 55.6506 1371.39 55.875 1371.11 56.1761C1370.84 56.4716 1370.7 56.875 1370.7 57.3864C1370.7 58.0852 1370.96 58.6136 1371.48 58.9716C1372 59.3239 1372.66 59.5 1373.47 59.5ZM1392.89 47.9091V59.125H1394.73V65.2273H1392.71V61H1382.59V47.9091H1384.6V59.125H1390.87V47.9091H1392.89ZM1403.86 53.6364V55.5114H1396.94V53.6364H1403.86ZM1398.64 47.9091V61H1396.63V47.9091H1398.64ZM1407.88 61.2727C1406.7 61.2727 1405.66 60.9915 1404.77 60.429C1403.88 59.8665 1403.19 59.0795 1402.69 58.0682C1402.19 57.0568 1401.95 55.875 1401.95 54.5227C1401.95 53.1591 1402.19 51.9687 1402.69 50.9517C1403.19 49.9347 1403.88 49.1449 1404.77 48.5824C1405.66 48.0199 1406.7 47.7386 1407.88 47.7386C1409.06 47.7386 1410.1 48.0199 1410.98 48.5824C1411.87 49.1449 1412.57 49.9347 1413.06 50.9517C1413.56 51.9687 1413.81 53.1591 1413.81 54.5227C1413.81 55.875 1413.56 57.0568 1413.06 58.0682C1412.57 59.0795 1411.87 59.8665 1410.98 60.429C1410.1 60.9915 1409.06 61.2727 1407.88 61.2727ZM1407.88 59.4659C1408.78 59.4659 1409.52 59.2358 1410.1 58.7756C1410.67 58.3153 1411.1 57.7102 1411.38 56.9602C1411.66 56.2102 1411.8 55.3977 1411.8 54.5227C1411.8 53.6477 1411.66 52.8324 1411.38 52.0767C1411.1 51.321 1410.67 50.7102 1410.1 50.2443C1409.52 49.7784 1408.78 49.5455 1407.88 49.5455C1406.98 49.5455 1406.24 49.7784 1405.66 50.2443C1405.08 50.7102 1404.66 51.321 1404.38 52.0767C1404.1 52.8324 1403.96 53.6477 1403.96 54.5227C1403.96 55.3977 1404.1 56.2102 1404.38 56.9602C1404.66 57.7102 1405.08 58.3153 1405.66 58.7756C1406.24 59.2358 1406.98 59.4659 1407.88 59.4659ZM1423.12 53.6364V55.5114H1416.2V53.6364H1423.12ZM1417.9 47.9091V61H1415.89V47.9091H1417.9ZM1427.14 61.2727C1425.96 61.2727 1424.92 60.9915 1424.03 60.429C1423.14 59.8665 1422.45 59.0795 1421.95 58.0682C1421.45 57.0568 1421.21 55.875 1421.21 54.5227C1421.21 53.1591 1421.45 51.9687 1421.95 50.9517C1422.45 49.9347 1423.14 49.1449 1424.03 48.5824C1424.92 48.0199 1425.96 47.7386 1427.14 47.7386C1428.32 47.7386 1429.36 48.0199 1430.24 48.5824C1431.13 49.1449 1431.83 49.9347 1432.32 50.9517C1432.82 51.9687 1433.07 53.1591 1433.07 54.5227C1433.07 55.875 1432.82 57.0568 1432.32 58.0682C1431.83 59.0795 1431.13 59.8665 1430.24 60.429C1429.36 60.9915 1428.32 61.2727 1427.14 61.2727ZM1427.14 59.4659C1428.04 59.4659 1428.78 59.2358 1429.36 58.7756C1429.93 58.3153 1430.36 57.7102 1430.64 56.9602C1430.92 56.2102 1431.06 55.3977 1431.06 54.5227C1431.06 53.6477 1430.92 52.8324 1430.64 52.0767C1430.36 51.321 1429.93 50.7102 1429.36 50.2443C1428.78 49.7784 1428.04 49.5455 1427.14 49.5455C1426.24 49.5455 1425.5 49.7784 1424.92 50.2443C1424.34 50.7102 1423.92 51.321 1423.64 52.0767C1423.36 52.8324 1423.22 53.6477 1423.22 54.5227C1423.22 55.3977 1423.36 56.2102 1423.64 56.9602C1423.92 57.7102 1424.34 58.3153 1424.92 58.7756C1425.5 59.2358 1426.24 59.4659 1427.14 59.4659ZM1441.8 57.6591H1443.94C1443.99 58.25 1444.26 58.6989 1444.74 59.0057C1445.24 59.3125 1445.88 59.4659 1446.67 59.4659C1447.48 59.4659 1448.17 59.3011 1448.74 58.9716C1449.32 58.6364 1449.6 58.0966 1449.6 57.3523C1449.6 56.9148 1449.49 56.5341 1449.28 56.2102C1449.06 55.8807 1448.76 55.625 1448.37 55.4432C1447.97 55.2614 1447.51 55.1705 1446.98 55.1705H1444.73V53.3636H1446.98C1447.78 53.3636 1448.37 53.1818 1448.75 52.8182C1449.14 52.4545 1449.33 52 1449.33 51.4545C1449.33 50.8693 1449.12 50.4006 1448.71 50.0483C1448.29 49.6903 1447.7 49.5114 1446.94 49.5114C1446.18 49.5114 1445.54 49.6847 1445.03 50.0312C1444.51 50.3722 1444.24 50.8125 1444.22 51.3523H1442.1C1442.13 50.6477 1442.34 50.0256 1442.75 49.4858C1443.16 48.9403 1443.72 48.5142 1444.42 48.2074C1445.13 47.8949 1445.93 47.7386 1446.84 47.7386C1447.76 47.7386 1448.56 47.9006 1449.24 48.2244C1449.92 48.5426 1450.44 48.9773 1450.81 49.5284C1451.19 50.0739 1451.38 50.6932 1451.38 51.3864C1451.38 52.125 1451.17 52.7216 1450.75 53.1761C1450.34 53.6307 1449.82 53.9545 1449.19 54.1477V54.2841C1449.69 54.3182 1450.12 54.4773 1450.48 54.7614C1450.85 55.0398 1451.14 55.4062 1451.34 55.8608C1451.55 56.3097 1451.65 56.8068 1451.65 57.3523C1451.65 58.1477 1451.44 58.8409 1451.01 59.4318C1450.58 60.017 1450 60.4716 1449.25 60.7955C1448.51 61.1136 1447.66 61.2727 1446.7 61.2727C1445.78 61.2727 1444.95 61.1222 1444.22 60.821C1443.48 60.5142 1442.9 60.0909 1442.47 59.5511C1442.04 59.0057 1441.82 58.375 1441.8 57.6591ZM1460.74 61V47.9091H1466.1C1467.5 47.9091 1468.62 48.2273 1469.45 48.8636C1470.28 49.5 1470.7 50.3409 1470.7 51.3864C1470.7 52.1818 1470.46 52.7983 1469.99 53.2358C1469.52 53.6676 1468.91 53.9602 1468.18 54.1136C1468.66 54.1818 1469.13 54.3523 1469.58 54.625C1470.04 54.8977 1470.42 55.2727 1470.72 55.75C1471.02 56.2216 1471.18 56.8011 1471.18 57.4886C1471.18 58.1591 1471 58.7585 1470.66 59.2869C1470.32 59.8153 1469.83 60.233 1469.2 60.5398C1468.56 60.8466 1467.8 61 1466.91 61H1460.74ZM1462.65 59.1591H1466.91C1467.61 59.1591 1468.15 58.9943 1468.54 58.6648C1468.93 58.3352 1469.13 57.8864 1469.13 57.3182C1469.13 56.642 1468.93 56.1108 1468.54 55.7244C1468.15 55.3324 1467.61 55.1364 1466.91 55.1364H1462.65V59.1591ZM1462.65 53.3977H1466.1C1466.64 53.3977 1467.1 53.3239 1467.48 53.1761C1467.87 53.0227 1468.17 52.8068 1468.37 52.5284C1468.58 52.2443 1468.69 51.9091 1468.69 51.5227C1468.69 50.9716 1468.46 50.5398 1468 50.2273C1467.54 49.9091 1466.9 49.75 1466.1 49.75H1462.65V53.3977ZM1473.98 61V47.9091H1475.99V61H1473.98ZM1475 45.7273C1474.61 45.7273 1474.27 45.5938 1473.99 45.3267C1473.71 45.0597 1473.57 44.7386 1473.57 44.3636C1473.57 43.9886 1473.71 43.6676 1473.99 43.4006C1474.27 43.1335 1474.61 43 1475 43C1475.39 43 1475.73 43.1335 1476.01 43.4006C1476.29 43.6676 1476.43 43.9886 1476.43 44.3636C1476.43 44.7386 1476.29 45.0597 1476.01 45.3267C1475.73 45.5938 1475.39 45.7273 1475 45.7273ZM1481.45 58.0341L1487.75 47.9091H1490.07V61H1488.06V50.875L1481.79 61H1479.44V47.9091H1481.45V58.0341ZM1486.42 43.5455H1488.3C1488.3 44.4659 1487.98 45.2188 1487.34 45.804C1486.71 46.3892 1485.84 46.6818 1484.75 46.6818C1483.68 46.6818 1482.82 46.3892 1482.19 45.804C1481.56 45.2188 1481.24 44.4659 1481.24 43.5455H1483.12C1483.12 43.9886 1483.24 44.3778 1483.48 44.7131C1483.73 45.0483 1484.16 45.2159 1484.75 45.2159C1485.35 45.2159 1485.78 45.0483 1486.03 44.7131C1486.29 44.3778 1486.42 43.9886 1486.42 43.5455ZM1498.83 61.2727C1497.61 61.2727 1496.55 60.983 1495.66 60.4034C1494.78 59.8239 1494.1 59.0256 1493.62 58.0085C1493.14 56.9915 1492.9 55.8295 1492.9 54.5227C1492.9 53.1932 1493.15 52.0199 1493.63 51.0028C1494.13 49.9801 1494.82 49.1818 1495.7 48.608C1496.58 48.0284 1497.62 47.7386 1498.8 47.7386C1499.72 47.7386 1500.55 47.9091 1501.29 48.25C1502.03 48.5909 1502.63 49.0682 1503.1 49.6818C1503.58 50.2955 1503.87 51.0114 1503.98 51.8295H1501.97C1501.82 51.233 1501.48 50.7045 1500.95 50.2443C1500.42 49.7784 1499.72 49.5455 1498.83 49.5455C1498.05 49.5455 1497.36 49.75 1496.77 50.1591C1496.19 50.5625 1495.73 51.1335 1495.4 51.8722C1495.08 52.6051 1494.91 53.4659 1494.91 54.4545C1494.91 55.4659 1495.07 56.3466 1495.39 57.0966C1495.71 57.8466 1496.17 58.429 1496.75 58.8438C1497.35 59.2585 1498.04 59.4659 1498.83 59.4659C1499.36 59.4659 1499.83 59.375 1500.26 59.1932C1500.68 59.0114 1501.04 58.75 1501.34 58.4091C1501.63 58.0682 1501.85 57.6591 1501.97 57.1818H1503.98C1503.87 57.9545 1503.59 58.6506 1503.14 59.2699C1502.69 59.8835 1502.11 60.3722 1501.37 60.7358C1500.65 61.0938 1499.8 61.2727 1498.83 61.2727ZM1508.42 52.6477H1512.17C1513.7 52.6477 1514.88 53.0369 1515.69 53.8153C1516.5 54.5937 1516.91 55.5795 1516.91 56.7727C1516.91 57.5568 1516.73 58.2699 1516.36 58.9119C1516 59.5483 1515.47 60.0568 1514.76 60.4375C1514.06 60.8125 1513.19 61 1512.17 61H1506.68V47.9091H1508.69V59.125H1512.17C1512.97 59.125 1513.62 58.9148 1514.13 58.4943C1514.64 58.0739 1514.9 57.5341 1514.9 56.875C1514.9 56.1818 1514.64 55.6165 1514.13 55.179C1513.62 54.7415 1512.97 54.5227 1512.17 54.5227H1508.42V52.6477ZM1519.73 61V47.9091H1521.74V53.6023H1523.07L1527.78 47.9091H1530.37L1525.08 54.2159L1530.44 61H1527.84L1523.55 55.4773H1521.74V61H1519.73ZM1537.16 61.2727C1535.98 61.2727 1534.94 60.9915 1534.05 60.429C1533.16 59.8665 1532.47 59.0795 1531.97 58.0682C1531.48 57.0568 1531.23 55.875 1531.23 54.5227C1531.23 53.1591 1531.48 51.9687 1531.97 50.9517C1532.47 49.9347 1533.16 49.1449 1534.05 48.5824C1534.94 48.0199 1535.98 47.7386 1537.16 47.7386C1538.34 47.7386 1539.38 48.0199 1540.26 48.5824C1541.15 49.1449 1541.85 49.9347 1542.34 50.9517C1542.84 51.9687 1543.09 53.1591 1543.09 54.5227C1543.09 55.875 1542.84 57.0568 1542.34 58.0682C1541.85 59.0795 1541.15 59.8665 1540.26 60.429C1539.38 60.9915 1538.34 61.2727 1537.16 61.2727ZM1537.16 59.4659C1538.06 59.4659 1538.8 59.2358 1539.38 58.7756C1539.96 58.3153 1540.39 57.7102 1540.66 56.9602C1540.94 56.2102 1541.08 55.3977 1541.08 54.5227C1541.08 53.6477 1540.94 52.8324 1540.66 52.0767C1540.39 51.321 1539.96 50.7102 1539.38 50.2443C1538.8 49.7784 1538.06 49.5455 1537.16 49.5455C1536.26 49.5455 1535.52 49.7784 1534.94 50.2443C1534.37 50.7102 1533.94 51.321 1533.66 52.0767C1533.38 52.8324 1533.24 53.6477 1533.24 54.5227C1533.24 55.3977 1533.38 56.2102 1533.66 56.9602C1533.94 57.7102 1534.37 58.3153 1534.94 58.7756C1535.52 59.2358 1536.26 59.4659 1537.16 59.4659ZM1545.92 61V47.9091H1551.28C1552.68 47.9091 1553.8 48.2273 1554.63 48.8636C1555.46 49.5 1555.88 50.3409 1555.88 51.3864C1555.88 52.1818 1555.64 52.7983 1555.17 53.2358C1554.7 53.6676 1554.09 53.9602 1553.35 54.1136C1553.84 54.1818 1554.31 54.3523 1554.76 54.625C1555.22 54.8977 1555.6 55.2727 1555.9 55.75C1556.2 56.2216 1556.35 56.8011 1556.35 57.4886C1556.35 58.1591 1556.18 58.7585 1555.84 59.2869C1555.5 59.8153 1555.01 60.233 1554.38 60.5398C1553.74 60.8466 1552.98 61 1552.09 61H1545.92ZM1547.83 59.1591H1552.09C1552.79 59.1591 1553.33 58.9943 1553.72 58.6648C1554.11 58.3352 1554.31 57.8864 1554.31 57.3182C1554.31 56.642 1554.11 56.1108 1553.72 55.7244C1553.33 55.3324 1552.79 55.1364 1552.09 55.1364H1547.83V59.1591ZM1547.83 53.3977H1551.28C1551.81 53.3977 1552.28 53.3239 1552.66 53.1761C1553.05 53.0227 1553.35 52.8068 1553.55 52.5284C1553.76 52.2443 1553.87 51.9091 1553.87 51.5227C1553.87 50.9716 1553.64 50.5398 1553.18 50.2273C1552.72 49.9091 1552.08 49.75 1551.28 49.75H1547.83V53.3977ZM1561.17 58.0341L1567.48 47.9091H1569.8V61H1567.78V50.875L1561.51 61H1559.16V47.9091H1561.17V58.0341ZM1580.4 58.2727L1584.97 47.9091H1586.88L1581.22 61H1579.58L1574.02 47.9091H1575.9L1580.4 58.2727ZM1575.25 47.9091V61H1573.24V47.9091H1575.25ZM1585.55 61V47.9091H1587.56V61H1585.55ZM1593.01 58.0341L1599.32 47.9091H1601.64V61H1599.62V50.875L1593.35 61H1591V47.9091H1593.01V58.0341Z" fill="#02344A"/>
<path d="M1500.69 -3.2012C1500.69 -3.2012 1535.19 16.9063 1588.61 18.6998C1635.44 20.2721 1624.59 66.4707 1684.96 54.2412C1745.32 42.0118 1769.44 -8.85277 1769.44 -8.85277" stroke="#E99E45"/>
<path d="M1544.31 -5.07789C1544.31 -5.07789 1566.38 49.148 1611.9 53.0738C1652.2 56.5498 1653.34 40.1672 1685.53 27.5058C1717.73 14.8444 1783.87 7.34705 1783.87 7.34705" stroke="#E99E45"/>
<path d="M1538.38 -30.1852C1538.38 -30.1852 1564.21 -11.0557 1604.98 -10.6883C1640.73 -10.3663 1631.21 35.9823 1677.66 22.1841C1724.11 8.38582 1743.9 -42.9677 1743.9 -42.9677" stroke="#E99E45"/>
<path d="M1530.68 -10.5724C1530.68 -10.5724 1560.22 8.97622 1606.42 9.95473C1646.91 10.8125 1636.82 57.0968 1689.24 43.9708C1741.65 30.8448 1763.3 -20.2992 1763.3 -20.2992" stroke="#E99E45"/>
<path d="M1639.34 59C1636.11 59 1632.95 59.9581 1630.26 61.7531C1627.57 63.5481 1625.48 66.0994 1624.24 69.0844C1623.01 72.0694 1622.68 75.3541 1623.31 78.5229C1623.94 81.6918 1625.5 84.6026 1627.78 86.8872C1630.07 89.1718 1632.98 90.7277 1636.15 91.358C1639.32 91.9883 1642.6 91.6648 1645.59 90.4284C1648.57 89.1919 1651.12 87.0981 1652.92 84.4117C1654.71 81.7253 1655.67 78.5669 1655.67 75.3359C1655.67 71.0049 1653.94 66.8528 1650.88 63.7903C1647.82 60.7278 1643.67 59.0051 1639.34 59ZM1639.34 89.75C1636.49 89.75 1633.7 88.9046 1631.33 87.3208C1628.96 85.737 1627.11 83.4858 1626.02 80.852C1624.93 78.2181 1624.64 75.3199 1625.2 72.5239C1625.76 69.7278 1627.13 67.1595 1629.14 65.1437C1631.16 63.1278 1633.73 61.755 1636.52 61.1988C1639.32 60.6427 1642.22 60.9281 1644.85 62.0191C1647.49 63.11 1649.74 64.9575 1651.32 67.3279C1652.9 69.6983 1653.75 72.4851 1653.75 75.3359C1653.75 79.1575 1652.23 82.8213 1649.52 85.5235C1646.82 88.2258 1643.16 89.7458 1639.34 89.75ZM1646.42 74.6569C1646.6 74.8371 1646.7 75.0813 1646.7 75.3359C1646.7 75.5906 1646.6 75.8348 1646.42 76.015L1641.3 81.14C1641.11 81.3097 1640.87 81.4021 1640.62 81.3978C1640.38 81.3934 1640.14 81.2925 1639.96 81.1165C1639.79 80.9404 1639.68 80.7029 1639.68 80.4539C1639.68 80.205 1639.77 79.964 1639.94 79.7819L1643.42 76.2969H1632.93C1632.67 76.2969 1632.43 76.1956 1632.25 76.0154C1632.07 75.8352 1631.97 75.5908 1631.97 75.3359C1631.97 75.0811 1632.07 74.8367 1632.25 74.6565C1632.43 74.4762 1632.67 74.375 1632.93 74.375H1643.42L1639.94 70.89C1639.77 70.7078 1639.68 70.4669 1639.68 70.218C1639.68 69.969 1639.79 69.7315 1639.96 69.5554C1640.14 69.3794 1640.38 69.2785 1640.62 69.2741C1640.87 69.2697 1641.11 69.3621 1641.3 69.5319L1646.42 74.6569Z" fill="#EC8812"/>
</g>
<defs>
<clipPath id="clip0_6211_9161">
<rect width="1718" height="104" fill="white"/>
</clipPath>
</defs>
</svg>
