<svg width="768" height="105" viewBox="0 0 768 105" fill="none" xmlns="http://www.w3.org/2000/svg">
    <g clip-path="url(#clip0_8419_13163)">
        <rect width="768" height="105" fill="white"/>
        <rect width="768" height="105" fill="#EEEEEE"/>
        <path d="M162.649 81.5677L182.313 86.2781L180.032 58.7216L162.665 60.1594L162.649 81.5677Z" fill="#F5C5C7"/>
        <path d="M176.716 66.6112C187.288 66.6112 195.858 58.0408 195.858 47.4686C195.858 36.8964 187.288 28.326 176.716 28.326C166.144 28.326 157.574 36.8964 157.574 47.4686C157.574 58.0408 166.144 66.6112 176.716 66.6112Z" fill="#F5C5C7"/>
        <path d="M196.919 128.788C196.766 128.84 196.616 128.887 196.463 128.934C196.419 128.947 196.374 128.962 196.33 128.975C194.708 129.479 193.063 129.928 191.4 130.327C185.329 131.791 178.989 132.565 172.473 132.565C170.641 132.565 168.824 132.505 167.026 132.383C165.186 132.261 163.364 132.077 161.563 131.83C160.831 131.731 160.104 131.625 159.38 131.506C157.317 131.171 155.277 130.753 153.269 130.263C152.591 130.099 151.917 129.925 151.244 129.738C151.013 129.679 150.782 129.614 150.554 129.549C149.607 129.282 148.665 128.999 147.731 128.695C147.668 128.677 147.603 128.656 147.541 128.635C146.705 128.365 145.875 128.08 145.05 127.781C144.307 127.514 143.57 127.234 142.836 126.943C141.204 126.3 139.6 125.604 138.022 124.857L138.629 122.106L140.734 112.576L145.304 91.8709L149.923 70.9479L162.061 71.2853H162.066L162.658 71.3035L181.117 71.8173L189.194 72.0431L196.919 128.788Z" fill="#EC8812"/>
        <path d="M214.998 120.455C212.553 121.978 210.017 123.372 207.407 124.628C206.76 124.94 206.107 125.241 205.45 125.536C205.333 125.588 205.219 125.64 205.102 125.69C204.536 125.941 203.968 126.185 203.395 126.421L203.138 126.53C202.987 126.593 202.837 126.655 202.683 126.715C200.797 127.478 198.876 128.173 196.922 128.788C196.769 128.84 196.619 128.887 196.465 128.934L179.535 85.6111L178.39 82.6862L175.198 74.5137L174.139 71.8069L181.128 71.9159L189.196 72.0431C196.52 72.9799 202.593 78.1627 204.671 85.2451L215 120.455L214.998 120.455Z" fill="#EC8812"/>
        <path d="M163.289 56.2146C163.969 56.1004 164.649 55.9836 165.328 55.8694C165.489 52.2335 165.84 48.1771 168.562 45.7609C170.062 44.4295 172.232 43.6535 172.976 41.7902C173.594 40.246 173.018 38.3488 173.88 36.9266C174.785 35.4292 176.809 35.1619 178.559 35.0529C181.297 34.8842 184.084 34.7181 186.749 35.3669C189.414 36.0183 191.986 37.6222 193.123 40.1188C193.473 40.887 193.676 41.7149 193.878 42.535C194.56 45.3093 195.606 50.5881 195.606 50.5881C195.606 50.5881 195.809 49.4955 196.385 47.37C197.561 45.6882 198.996 44.1363 199.686 42.2054C200.516 39.8801 200.15 37.2822 199.336 34.9543C197.485 29.6573 193.193 25.1805 187.847 23.478C182.498 21.7781 177.44 20.8153 173.444 24.7549C172.694 25.4945 172.019 26.3198 171.162 26.9323C169.579 28.0664 167.558 28.3519 165.772 29.1357C161.799 30.8797 158.207 35.0736 157.312 39.3195C156.417 43.5653 156.884 47.9643 157.356 52.2802C157.764 56.0018 159.531 60.1516 162.629 62.2538C162.757 60.3489 162.884 58.4465 163.011 56.5416L163.286 56.2172H163.289V56.2146Z" fill="#2F2E43"/>
        <path d="M173.885 74.1115L173.698 74.4177L168.471 82.9613L160.722 95.6366L159.152 98.2033L153.427 107.567C153.427 107.567 151.569 110.18 148.434 113.531L148.423 113.541C147.284 114.756 145.979 116.066 144.533 117.382C144.523 117.395 144.512 117.406 144.499 117.413C142.735 119.022 140.762 120.639 138.629 122.106C137.752 122.71 136.849 123.286 135.925 123.826C135.735 123.733 135.549 123.634 135.362 123.538C126.481 118.926 118.566 112.713 112 105.281C118.854 94.3338 132.416 82.0582 141.154 74.7473C146.098 70.6079 152.703 69.0482 158.973 70.5482L162.061 71.2853L162.658 71.428L173.885 74.1115Z" fill="#EC8812"/>
        <path d="M198.268 71.4773C194.902 70.2653 185.993 70.2601 181.996 71.6097C181.221 71.8718 180.751 72.6608 180.886 73.4679L181.044 74.4255C180.696 74.3736 180.356 74.275 180.035 74.1271C179.082 73.6911 177.206 73.0994 175.311 74.044C173.988 74.7032 173.056 75.9464 172.729 77.3919C171.948 80.8488 173.918 82.7615 173.918 82.7615L176.541 85.2244C178.74 87.285 181.137 89.1225 183.699 90.7056L183.751 90.7367L182.817 85.1154C182.29 86.0419 181.099 86.3455 180.193 85.785C177.904 84.368 174.164 81.5287 174.618 78.3054C174.935 76.0579 176.183 75.5804 177.382 75.6816C178.724 75.7958 179.894 76.6393 180.468 77.8565C180.605 78.1471 180.831 78.3859 181.112 78.5416L181.786 78.9101L183.764 90.825C183.852 91.3596 184.195 91.8215 184.68 92.0603C189.33 94.3415 194.349 93.1581 196.086 92.6261C196.483 92.5041 196.823 92.242 197.035 91.8838L197.409 91.2636C197.539 91.0507 197.617 90.8094 197.643 90.5628L199.369 73.2213C199.444 72.4557 198.99 71.7394 198.266 71.4773L198.268 71.4773Z" fill="#00416B"/>
        <path d="M190.21 73.1357C194.529 73.1357 198.03 72.8057 198.03 72.3986C198.03 71.9915 194.529 71.6616 190.21 71.6616C185.892 71.6616 182.391 71.9915 182.391 72.3986C182.391 72.8057 185.892 73.1357 190.21 73.1357Z" fill="#DEDFE0"/>
        <path d="M174.591 87.1708C178.834 83.9242 180.513 79.0425 178.341 76.2682C176.171 73.4938 170.973 73.8753 166.728 77.1246C165.015 78.3989 163.645 80.0754 162.739 82.0141L144.946 95.9999L152.01 104.45L168.801 89.7635C170.927 89.382 172.912 88.4918 174.588 87.1708H174.591Z" fill="#F5C5C7"/>
        <path d="M162.819 99.3218L155.781 86.9424L130.169 98.9948L144.499 117.416L162.819 99.3218Z" fill="#EC8812"/>
        <path opacity="0.1" d="M147.468 90.8535C147.468 90.8535 128.799 104.523 129.489 104.447C130.179 104.372 139.384 99.3088 139.384 99.3088L147.468 90.8535Z" fill="#272223"/>
        <path d="M656.875 -16.2712C656.875 -16.2712 675.444 2.44855 709.207 12.7215C738.805 21.7269 723.991 49.3361 764.579 51.8523C805.167 54.3686 829.243 26.0515 829.243 26.0515" stroke="#E99E45"/>
        <path d="M685.019 -10.0129C685.019 -10.0129 689.824 28.3403 718.183 38.6225C743.293 47.7266 746.816 37.4726 769.515 34.9001C792.214 32.3277 835.674 38.8478 835.674 38.8478" stroke="#E99E45"/>
        <path d="M685.523 -27.0399C685.523 -27.0399 698.728 -10.4258 724.669 -3.22371C747.41 3.08978 733.418 31.022 765.402 30.1603C797.386 29.2986 818.779 -0.0713692 818.779 -0.0713692" stroke="#E99E45"/>
        <path d="M677.261 -15.8475C677.261 -15.8475 692.764 1.66891 722.057 10.1869C747.736 17.6539 733.392 45.4476 769.063 46.0334C804.734 46.6192 827.276 17.7004 827.276 17.7004" stroke="#E99E45"/>
        <path d="M69.2046 114.522C69.2046 114.522 63.4672 96.6555 45.0852 80.0405C28.9712 65.4755 47.7799 51.3168 22.3931 37.9105C-2.99371 24.5042 -28.0236 36.4602 -28.0236 36.4602" stroke="#E99E45"/>
        <path d="M53.1114 102.211C53.1114 102.211 62.8358 75.2094 47.9496 60.1498C34.7689 46.8155 29.0618 52.6456 13.5331 47.8059C-1.99565 42.9662 -27.8984 26.0564 -27.8984 26.0564" stroke="#E99E45"/>
        <path d="M47.0898 113.437C47.0898 113.437 44.1142 98.5269 29.7599 86.2226C17.1766 75.4365 35.5616 60.8243 14.6052 52.1597C-6.35121 43.4952 -30.0002 56.9292 -30.0002 56.9292" stroke="#E99E45"/>
        <path d="M56.1728 108.349C56.1728 108.349 52.0138 92.1723 35.9336 78.0209C21.8374 65.6155 40.4039 51.1977 17.549 40.5012C-5.30579 29.8047 -29.5465 42.6055 -29.5465 42.6055" stroke="#E99E45"/>
        <path d="M233.476 35.5085V29.5497H234.463C234.799 29.3082 235.107 28.9673 235.386 28.527C235.666 28.0819 235.905 27.4688 236.104 26.6875C236.303 25.9015 236.445 24.8741 236.53 23.6051L236.942 17.4545H246.565V29.5497H248.156V35.4943H245.202V32H236.43V35.5085H233.476ZM238.014 29.5497H243.611V19.9901H239.712L239.484 23.6051C239.423 24.5663 239.321 25.4186 239.179 26.1619C239.042 26.9053 238.874 27.5563 238.675 28.1151C238.481 28.669 238.26 29.1473 238.014 29.5497ZM249.769 32V21.0909H252.795V32H249.769ZM251.289 19.6847C250.839 19.6847 250.453 19.5355 250.131 19.2372C249.814 18.9342 249.655 18.572 249.655 18.1506C249.655 17.7339 249.814 17.3764 250.131 17.0781C250.453 16.7751 250.839 16.6236 251.289 16.6236C251.739 16.6236 252.122 16.7751 252.44 17.0781C252.762 17.3764 252.923 17.7339 252.923 18.1506C252.923 18.572 252.762 18.9342 252.44 19.2372C252.122 19.5355 251.739 19.6847 251.289 19.6847ZM254.457 28.9105H257.39C257.405 29.2704 257.566 29.5545 257.873 29.7628C258.181 29.9711 258.579 30.0753 259.067 30.0753C259.559 30.0753 259.973 29.9616 260.31 29.7344C260.646 29.5024 260.814 29.1709 260.814 28.7401C260.814 28.4749 260.747 28.2453 260.615 28.0511C260.482 27.8523 260.298 27.696 260.061 27.5824C259.824 27.4687 259.55 27.4119 259.237 27.4119H257.667V25.4304H259.237C259.706 25.4304 260.066 25.3215 260.317 25.1037C260.572 24.8859 260.7 24.6136 260.7 24.2869C260.7 23.9176 260.568 23.6217 260.302 23.3991C260.042 23.1719 259.689 23.0582 259.244 23.0582C258.794 23.0582 258.42 23.16 258.122 23.3636C257.828 23.5625 257.677 23.8229 257.667 24.1449H254.748C254.758 23.4915 254.954 22.9257 255.338 22.4474C255.726 21.9692 256.247 21.5999 256.9 21.3395C257.559 21.0791 258.295 20.9489 259.109 20.9489C259.999 20.9489 260.766 21.0743 261.41 21.3253C262.059 21.5715 262.556 21.9242 262.902 22.3835C263.252 22.8428 263.427 23.3897 263.427 24.0241C263.427 24.6018 263.238 25.0848 262.859 25.473C262.48 25.8613 261.95 26.1383 261.268 26.304V26.4176C261.718 26.446 262.125 26.5668 262.49 26.7798C262.854 26.9929 263.146 27.2865 263.363 27.6605C263.581 28.0298 263.69 28.4678 263.69 28.9744C263.69 29.6515 263.491 30.2315 263.094 30.7145C262.701 31.1974 262.156 31.5691 261.46 31.8295C260.769 32.0852 259.976 32.2131 259.081 32.2131C258.21 32.2131 257.428 32.0876 256.737 31.8366C256.051 31.581 255.504 31.2069 255.096 30.7145C254.694 30.2221 254.481 29.6207 254.457 28.9105ZM272.938 25.3381V27.7173H267.242V25.3381H272.938ZM268.236 21.0909V32H265.346V21.0909H268.236ZM274.834 21.0909V32H271.965V21.0909H274.834ZM280.092 32.206C279.396 32.206 278.776 32.0852 278.232 31.8438C277.687 31.5975 277.256 31.2353 276.939 30.7571C276.626 30.2741 276.47 29.6728 276.47 28.9531C276.47 28.3471 276.582 27.8381 276.804 27.4261C277.027 27.0142 277.33 26.6828 277.713 26.4318C278.097 26.1809 278.532 25.9915 279.02 25.8636C279.512 25.7358 280.028 25.6458 280.568 25.5938C281.203 25.5275 281.714 25.4659 282.102 25.4091C282.491 25.3475 282.772 25.2576 282.948 25.1392C283.123 25.0208 283.21 24.8456 283.21 24.6136V24.571C283.21 24.1212 283.068 23.7732 282.784 23.527C282.505 23.2808 282.107 23.1577 281.591 23.1577C281.046 23.1577 280.613 23.2784 280.291 23.5199C279.969 23.7566 279.756 24.0549 279.652 24.4148L276.854 24.1875C276.996 23.5246 277.275 22.9517 277.692 22.4688C278.108 21.9811 278.646 21.607 279.304 21.3466C279.967 21.0814 280.734 20.9489 281.605 20.9489C282.211 20.9489 282.791 21.0199 283.345 21.1619C283.904 21.304 284.399 21.5241 284.83 21.8224C285.265 22.1207 285.608 22.5043 285.859 22.973C286.11 23.437 286.236 23.9934 286.236 24.642V32H283.367V30.4872H283.281C283.106 30.8281 282.872 31.1288 282.578 31.3892C282.285 31.6449 281.932 31.8461 281.52 31.9929C281.108 32.1349 280.632 32.206 280.092 32.206ZM280.959 30.1179C281.404 30.1179 281.797 30.0303 282.138 29.8551C282.479 29.6752 282.746 29.4337 282.94 29.1307C283.135 28.8277 283.232 28.4844 283.232 28.1009V26.9432C283.137 27.0047 283.007 27.0616 282.841 27.1136C282.68 27.161 282.498 27.206 282.294 27.2486C282.091 27.2865 281.887 27.322 281.683 27.3551C281.48 27.3835 281.295 27.4096 281.129 27.4332C280.774 27.4853 280.464 27.5682 280.199 27.6818C279.934 27.7955 279.728 27.9493 279.581 28.1435C279.434 28.3329 279.361 28.5696 279.361 28.8537C279.361 29.2656 279.51 29.5805 279.808 29.7983C280.111 30.0114 280.495 30.1179 280.959 30.1179ZM291.274 28.0085L295.201 21.0909H298.184V32H295.301V25.0611L291.387 32H288.383V21.0909H291.274V28.0085ZM294.683 17.2841H296.792C296.788 18.1458 296.468 18.8395 295.833 19.3651C295.204 19.8906 294.351 20.1534 293.277 20.1534C292.197 20.1534 291.342 19.8906 290.713 19.3651C290.083 18.8395 289.768 18.1458 289.768 17.2841H291.863C291.859 17.6108 291.963 17.9044 292.176 18.1648C292.394 18.4252 292.761 18.5554 293.277 18.5554C293.779 18.5554 294.138 18.4276 294.356 18.1719C294.574 17.9162 294.683 17.6203 294.683 17.2841ZM299.314 23.4702V21.0909H309.201V23.4702H305.685V32H302.801V23.4702H299.314ZM315.416 32.2131C314.294 32.2131 313.328 31.9858 312.518 31.5312C311.713 31.072 311.093 30.4233 310.657 29.5852C310.222 28.7424 310.004 27.7457 310.004 26.5952C310.004 25.473 310.222 24.4882 310.657 23.6406C311.093 22.7931 311.706 22.1326 312.497 21.6591C313.292 21.1856 314.225 20.9489 315.295 20.9489C316.015 20.9489 316.685 21.0649 317.305 21.2969C317.93 21.5241 318.474 21.8674 318.938 22.3267C319.407 22.786 319.772 23.3636 320.032 24.0597C320.293 24.7509 320.423 25.5606 320.423 26.4886V27.3196H311.211V25.4446H317.575C317.575 25.009 317.48 24.6231 317.291 24.2869C317.101 23.9508 316.839 23.688 316.502 23.4986C316.171 23.3045 315.785 23.2074 315.345 23.2074C314.885 23.2074 314.478 23.3139 314.123 23.527C313.773 23.7353 313.498 24.017 313.299 24.3722C313.1 24.7225 312.999 25.1132 312.994 25.544V27.3267C312.994 27.8665 313.093 28.3329 313.292 28.7259C313.496 29.1188 313.782 29.4219 314.151 29.6349C314.521 29.848 314.959 29.9545 315.465 29.9545C315.802 29.9545 316.109 29.9072 316.389 29.8125C316.668 29.7178 316.907 29.5758 317.106 29.3864C317.305 29.197 317.456 28.965 317.561 28.6903L320.359 28.875C320.217 29.5473 319.926 30.1345 319.485 30.6364C319.05 31.1335 318.486 31.5218 317.795 31.8011C317.108 32.0758 316.315 32.2131 315.416 32.2131ZM327.126 32.2131C326.009 32.2131 325.048 31.9763 324.243 31.5028C323.442 31.0246 322.827 30.3617 322.396 29.5142C321.97 28.6667 321.757 27.6913 321.757 26.5881C321.757 25.4706 321.972 24.4905 322.403 23.6477C322.839 22.8002 323.457 22.1397 324.257 21.6662C325.057 21.188 326.009 20.9489 327.112 20.9489C328.064 20.9489 328.897 21.1217 329.612 21.4673C330.327 21.813 330.893 22.2983 331.309 22.9233C331.726 23.5483 331.956 24.2822 331.998 25.125H329.143C329.063 24.5805 328.85 24.1425 328.504 23.8111C328.163 23.4749 327.716 23.3068 327.162 23.3068C326.693 23.3068 326.283 23.4347 325.933 23.6903C325.587 23.9413 325.317 24.3082 325.123 24.7912C324.929 25.2741 324.832 25.8589 324.832 26.5455C324.832 27.2415 324.927 27.8333 325.116 28.321C325.31 28.8087 325.583 29.1804 325.933 29.4361C326.283 29.6918 326.693 29.8196 327.162 29.8196C327.507 29.8196 327.817 29.7486 328.092 29.6065C328.371 29.4645 328.601 29.2585 328.781 28.9886C328.966 28.714 329.086 28.3849 329.143 28.0014H331.998C331.951 28.8348 331.724 29.5687 331.317 30.2031C330.914 30.8329 330.358 31.3253 329.648 31.6804C328.937 32.0355 328.097 32.2131 327.126 32.2131ZM340.128 32V23.4631H338.082C337.528 23.4631 337.107 23.5909 336.818 23.8466C336.529 24.1023 336.387 24.4053 336.392 24.7557C336.387 25.1108 336.524 25.4115 336.804 25.6577C337.088 25.8991 337.504 26.0199 338.054 26.0199H341.136V28.0653H338.054C337.121 28.0653 336.314 27.9233 335.632 27.6392C334.95 27.3551 334.424 26.9598 334.055 26.4531C333.686 25.9418 333.504 25.3475 333.508 24.6705C333.504 23.9602 333.686 23.3376 334.055 22.8026C334.424 22.2628 334.952 21.8437 335.639 21.5455C336.33 21.2424 337.145 21.0909 338.082 21.0909H342.947V32H340.128ZM333.196 32L336.228 26.3182H339.119L336.093 32H333.196ZM239.136 62.2131C238.019 62.2131 237.058 61.9763 236.253 61.5028C235.453 61.0246 234.837 60.3617 234.406 59.5142C233.98 58.6667 233.767 57.6913 233.767 56.5881C233.767 55.4706 233.982 54.4905 234.413 53.6477C234.849 52.8002 235.467 52.1397 236.267 51.6662C237.067 51.188 238.019 50.9489 239.122 50.9489C240.074 50.9489 240.907 51.1217 241.622 51.4673C242.337 51.813 242.903 52.2983 243.32 52.9233C243.736 53.5483 243.966 54.2822 244.009 55.125H241.153C241.073 54.5805 240.86 54.1425 240.514 53.8111C240.173 53.4749 239.726 53.3068 239.172 53.3068C238.703 53.3068 238.294 53.4347 237.943 53.6903C237.598 53.9413 237.328 54.3082 237.134 54.7912C236.939 55.2741 236.842 55.8589 236.842 56.5455C236.842 57.2415 236.937 57.8333 237.126 58.321C237.321 58.8087 237.593 59.1804 237.943 59.4361C238.294 59.6918 238.703 59.8196 239.172 59.8196C239.518 59.8196 239.828 59.7486 240.102 59.6065C240.382 59.4645 240.611 59.2585 240.791 58.9886C240.976 58.714 241.097 58.3849 241.153 58.0014H244.009C243.961 58.8348 243.734 59.5687 243.327 60.2031C242.924 60.8329 242.368 61.3253 241.658 61.6804C240.947 62.0355 240.107 62.2131 239.136 62.2131ZM250.717 62.2131C249.595 62.2131 248.629 61.9858 247.82 61.5312C247.015 61.072 246.394 60.4233 245.959 59.5852C245.523 58.7424 245.305 57.7457 245.305 56.5952C245.305 55.473 245.523 54.4882 245.959 53.6406C246.394 52.7931 247.008 52.1326 247.798 51.6591C248.594 51.1856 249.526 50.9489 250.597 50.9489C251.316 50.9489 251.986 51.0649 252.606 51.2969C253.231 51.5241 253.776 51.8674 254.24 52.3267C254.709 52.786 255.073 53.3636 255.334 54.0597C255.594 54.7509 255.724 55.5606 255.724 56.4886V57.3196H246.513V55.4446H252.876C252.876 55.009 252.782 54.6231 252.592 54.2869C252.403 53.9508 252.14 53.688 251.804 53.4986C251.472 53.3045 251.087 53.2074 250.646 53.2074C250.187 53.2074 249.78 53.3139 249.425 53.527C249.074 53.7353 248.8 54.017 248.601 54.3722C248.402 54.7225 248.3 55.1132 248.295 55.544V57.3267C248.295 57.8665 248.395 58.3329 248.594 58.7259C248.797 59.1188 249.084 59.4219 249.453 59.6349C249.822 59.848 250.26 59.9545 250.767 59.9545C251.103 59.9545 251.411 59.9072 251.69 59.8125C251.97 59.7178 252.209 59.5758 252.408 59.3864C252.606 59.197 252.758 58.965 252.862 58.6903L255.66 58.875C255.518 59.5473 255.227 60.1345 254.787 60.6364C254.351 61.1335 253.788 61.5218 253.097 61.8011C252.41 62.0758 251.617 62.2131 250.717 62.2131ZM257.499 62V51.0909H260.524V55.3239H261.377L264.345 51.0909H267.897L264.04 56.5028L267.939 62H264.345L261.654 58.1293H260.524V62H257.499ZM269.018 66.0909V51.0909H272V52.9233H272.135C272.268 52.6297 272.46 52.3314 272.711 52.0284C272.966 51.7206 273.298 51.465 273.705 51.2614C274.117 51.053 274.628 50.9489 275.239 50.9489C276.035 50.9489 276.768 51.1572 277.441 51.5739C278.113 51.9858 278.651 52.6084 279.053 53.4418C279.456 54.2704 279.657 55.3097 279.657 56.5597C279.657 57.7765 279.46 58.804 279.067 59.642C278.679 60.4754 278.149 61.1075 277.476 61.5384C276.809 61.9645 276.061 62.1776 275.232 62.1776C274.645 62.1776 274.145 62.0805 273.733 61.8864C273.326 61.6922 272.992 61.4484 272.732 61.1548C272.472 60.8565 272.273 60.5559 272.135 60.2528H272.043V66.0909H269.018ZM271.979 56.5455C271.979 57.1941 272.069 57.7599 272.249 58.2429C272.429 58.7259 272.689 59.1023 273.03 59.3722C273.371 59.6373 273.786 59.7699 274.273 59.7699C274.766 59.7699 275.182 59.6349 275.523 59.3651C275.864 59.0904 276.122 58.7116 276.297 58.2287C276.477 57.741 276.567 57.1799 276.567 56.5455C276.567 55.9157 276.48 55.3617 276.304 54.8835C276.129 54.4053 275.871 54.0312 275.53 53.7614C275.189 53.4915 274.77 53.3565 274.273 53.3565C273.781 53.3565 273.364 53.4867 273.023 53.7472C272.687 54.0076 272.429 54.3769 272.249 54.8551C272.069 55.3333 271.979 55.8968 271.979 56.5455ZM286.445 62.2131C285.323 62.2131 284.357 61.9858 283.548 61.5312C282.743 61.072 282.122 60.4233 281.687 59.5852C281.251 58.7424 281.033 57.7457 281.033 56.5952C281.033 55.473 281.251 54.4882 281.687 53.6406C282.122 52.7931 282.736 52.1326 283.526 51.6591C284.322 51.1856 285.255 50.9489 286.325 50.9489C287.044 50.9489 287.714 51.0649 288.335 51.2969C288.96 51.5241 289.504 51.8674 289.968 52.3267C290.437 52.786 290.801 53.3636 291.062 54.0597C291.322 54.7509 291.452 55.5606 291.452 56.4886V57.3196H282.241V55.4446H288.604C288.604 55.009 288.51 54.6231 288.32 54.2869C288.131 53.9508 287.868 53.688 287.532 53.4986C287.201 53.3045 286.815 53.2074 286.374 53.2074C285.915 53.2074 285.508 53.3139 285.153 53.527C284.802 53.7353 284.528 54.017 284.329 54.3722C284.13 54.7225 284.028 55.1132 284.024 55.544V57.3267C284.024 57.8665 284.123 58.3329 284.322 58.7259C284.525 59.1188 284.812 59.4219 285.181 59.6349C285.55 59.848 285.988 59.9545 286.495 59.9545C286.831 59.9545 287.139 59.9072 287.418 59.8125C287.698 59.7178 287.937 59.5758 288.136 59.3864C288.335 59.197 288.486 58.965 288.59 58.6903L291.389 58.875C291.247 59.5473 290.955 60.1345 290.515 60.6364C290.079 61.1335 289.516 61.5218 288.825 61.8011C288.138 62.0758 287.345 62.2131 286.445 62.2131ZM292.385 53.4702V51.0909H302.272V53.4702H298.756V62H295.873V53.4702H292.385ZM306.796 58.0085L310.724 51.0909H313.707V62H310.823V55.0611L306.91 62H303.906V51.0909H306.796V58.0085ZM329.829 51.0909V62H326.959V51.0909H329.829ZM328.429 55.8778V58.2642C328.197 58.3684 327.909 58.4678 327.563 58.5625C327.217 58.6525 326.855 58.7259 326.476 58.7827C326.098 58.8395 325.742 58.8679 325.411 58.8679C323.844 58.8679 322.61 58.5459 321.711 57.902C320.811 57.2533 320.361 56.2187 320.361 54.7983V51.0767H323.216V54.7983C323.216 55.2197 323.287 55.5535 323.429 55.7997C323.576 56.0459 323.808 56.2235 324.125 56.3324C324.447 56.4366 324.876 56.4886 325.411 56.4886C325.908 56.4886 326.396 56.4366 326.874 56.3324C327.352 56.2282 327.871 56.0767 328.429 55.8778ZM336.907 62.2131C335.803 62.2131 334.849 61.9787 334.044 61.5099C333.244 61.0365 332.626 60.3783 332.191 59.5355C331.755 58.688 331.537 57.7055 331.537 56.5881C331.537 55.4612 331.755 54.4763 332.191 53.6335C332.626 52.786 333.244 52.1278 334.044 51.6591C334.849 51.1856 335.803 50.9489 336.907 50.9489C338.01 50.9489 338.962 51.1856 339.762 51.6591C340.567 52.1278 341.187 52.786 341.623 53.6335C342.058 54.4763 342.276 55.4612 342.276 56.5881C342.276 57.7055 342.058 58.688 341.623 59.5355C341.187 60.3783 340.567 61.0365 339.762 61.5099C338.962 61.9787 338.01 62.2131 336.907 62.2131ZM336.921 59.8693C337.423 59.8693 337.842 59.7273 338.178 59.4432C338.514 59.1544 338.767 58.7614 338.938 58.2642C339.113 57.767 339.201 57.2012 339.201 56.5668C339.201 55.9323 339.113 55.3665 338.938 54.8693C338.767 54.3722 338.514 53.9792 338.178 53.6903C337.842 53.4015 337.423 53.2571 336.921 53.2571C336.414 53.2571 335.988 53.4015 335.642 53.6903C335.302 53.9792 335.044 54.3722 334.868 54.8693C334.698 55.3665 334.613 55.9323 334.613 56.5668C334.613 57.2012 334.698 57.767 334.868 58.2642C335.044 58.7614 335.302 59.1544 335.642 59.4432C335.988 59.7273 336.414 59.8693 336.921 59.8693ZM343.404 62L343.39 59.5994H343.752C344.008 59.5994 344.228 59.5379 344.413 59.4148C344.602 59.2869 344.758 59.081 344.881 58.7969C345.004 58.5128 345.102 58.1364 345.173 57.6676C345.244 57.1941 345.291 56.6117 345.315 55.9205L345.492 51.0909H353.788V62H350.904V53.4702H348.212L348.042 56.8011C347.999 57.715 347.888 58.5009 347.708 59.1591C347.533 59.8172 347.289 60.357 346.977 60.7784C346.664 61.1951 346.288 61.5028 345.847 61.7017C345.407 61.9006 344.896 62 344.313 62H343.404ZM360.862 62.2131C359.759 62.2131 358.805 61.9787 358 61.5099C357.2 61.0365 356.582 60.3783 356.146 59.5355C355.711 58.688 355.493 57.7055 355.493 56.5881C355.493 55.4612 355.711 54.4763 356.146 53.6335C356.582 52.786 357.2 52.1278 358 51.6591C358.805 51.1856 359.759 50.9489 360.862 50.9489C361.965 50.9489 362.917 51.1856 363.717 51.6591C364.522 52.1278 365.142 52.786 365.578 53.6335C366.014 54.4763 366.231 55.4612 366.231 56.5881C366.231 57.7055 366.014 58.688 365.578 59.5355C365.142 60.3783 364.522 61.0365 363.717 61.5099C362.917 61.9787 361.965 62.2131 360.862 62.2131ZM360.876 59.8693C361.378 59.8693 361.797 59.7273 362.133 59.4432C362.47 59.1544 362.723 58.7614 362.893 58.2642C363.069 57.767 363.156 57.2012 363.156 56.5668C363.156 55.9323 363.069 55.3665 362.893 54.8693C362.723 54.3722 362.47 53.9792 362.133 53.6903C361.797 53.4015 361.378 53.2571 360.876 53.2571C360.37 53.2571 359.944 53.4015 359.598 53.6903C359.257 53.9792 358.999 54.3722 358.824 54.8693C358.653 55.3665 358.568 55.9323 358.568 56.5668C358.568 57.2012 358.653 57.767 358.824 58.2642C358.999 58.7614 359.257 59.1544 359.598 59.4432C359.944 59.7273 360.37 59.8693 360.876 59.8693ZM367.999 62V51.0909H372.651C373.995 51.0909 375.058 51.3466 375.84 51.858C376.621 52.3693 377.012 53.0961 377.012 54.0384C377.012 54.6302 376.791 55.1226 376.351 55.5156C375.911 55.9086 375.3 56.1738 374.519 56.3111C375.172 56.3584 375.728 56.5076 376.188 56.7585C376.652 57.0047 377.004 57.3243 377.246 57.7173C377.492 58.1103 377.615 58.5459 377.615 59.0241C377.615 59.6444 377.45 60.1771 377.118 60.6222C376.791 61.0672 376.311 61.4081 375.676 61.6449C375.047 61.8816 374.277 62 373.368 62H367.999ZM370.818 59.7344H373.368C373.79 59.7344 374.119 59.6349 374.355 59.4361C374.597 59.2325 374.718 58.9555 374.718 58.6051C374.718 58.2169 374.597 57.9115 374.355 57.6889C374.119 57.4664 373.79 57.3551 373.368 57.3551H370.818V59.7344ZM370.818 55.5795H372.715C373.018 55.5795 373.276 55.5369 373.489 55.4517C373.707 55.3617 373.872 55.2339 373.986 55.0682C374.104 54.9025 374.164 54.706 374.164 54.4787C374.164 54.1425 374.029 53.8797 373.759 53.6903C373.489 53.5009 373.12 53.4062 372.651 53.4062H370.818V55.5795ZM379.322 62V51.0909H382.348V62H379.322ZM380.842 49.6847C380.392 49.6847 380.006 49.5355 379.684 49.2372C379.367 48.9342 379.209 48.572 379.209 48.1506C379.209 47.7339 379.367 47.3764 379.684 47.0781C380.006 46.7751 380.392 46.6236 380.842 46.6236C381.292 46.6236 381.675 46.7751 381.993 47.0781C382.315 47.3764 382.476 47.7339 382.476 48.1506C382.476 48.572 382.315 48.9342 381.993 49.2372C381.675 49.5355 381.292 49.6847 380.842 49.6847ZM394.039 51.0909V62H391.169V51.0909H394.039ZM392.64 55.8778V58.2642C392.408 58.3684 392.119 58.4678 391.773 58.5625C391.428 58.6525 391.065 58.7259 390.687 58.7827C390.308 58.8395 389.953 58.8679 389.621 58.8679C388.054 58.8679 386.82 58.5459 385.921 57.902C385.021 57.2533 384.571 56.2187 384.571 54.7983V51.0767H387.427V54.7983C387.427 55.2197 387.498 55.5535 387.64 55.7997C387.786 56.0459 388.018 56.2235 388.336 56.3324C388.658 56.4366 389.086 56.4886 389.621 56.4886C390.118 56.4886 390.606 56.4366 391.084 56.3324C391.562 56.2282 392.081 56.0767 392.64 55.8778ZM401.117 62.2131C400.014 62.2131 399.06 61.9787 398.255 61.5099C397.454 61.0365 396.837 60.3783 396.401 59.5355C395.965 58.688 395.748 57.7055 395.748 56.5881C395.748 55.4612 395.965 54.4763 396.401 53.6335C396.837 52.786 397.454 52.1278 398.255 51.6591C399.06 51.1856 400.014 50.9489 401.117 50.9489C402.22 50.9489 403.172 51.1856 403.972 51.6591C404.777 52.1278 405.397 52.786 405.833 53.6335C406.268 54.4763 406.486 55.4612 406.486 56.5881C406.486 57.7055 406.268 58.688 405.833 59.5355C405.397 60.3783 404.777 61.0365 403.972 61.5099C403.172 61.9787 402.22 62.2131 401.117 62.2131ZM401.131 59.8693C401.633 59.8693 402.052 59.7273 402.388 59.4432C402.724 59.1544 402.978 58.7614 403.148 58.2642C403.323 57.767 403.411 57.2012 403.411 56.5668C403.411 55.9323 403.323 55.3665 403.148 54.8693C402.978 54.3722 402.724 53.9792 402.388 53.6903C402.052 53.4015 401.633 53.2571 401.131 53.2571C400.624 53.2571 400.198 53.4015 399.853 53.6903C399.512 53.9792 399.254 54.3722 399.078 54.8693C398.908 55.3665 398.823 55.9323 398.823 56.5668C398.823 57.2012 398.908 57.767 399.078 58.2642C399.254 58.7614 399.512 59.1544 399.853 59.4432C400.198 59.7273 400.624 59.8693 401.131 59.8693ZM408.253 62V51.0909H411.279V62H408.253ZM407.607 49.5994C407.2 49.5994 406.85 49.4574 406.556 49.1733C406.262 48.8845 406.116 48.5436 406.116 48.1506C406.116 47.7481 406.262 47.4072 406.556 47.1278C406.85 46.8485 407.2 46.7088 407.607 46.7088C408.019 46.7088 408.367 46.8485 408.651 47.1278C408.94 47.4072 409.084 47.7481 409.084 48.1506C409.084 48.5436 408.94 48.8845 408.651 49.1733C408.367 49.4574 408.019 49.5994 407.607 49.5994ZM411.954 49.5994C411.547 49.5994 411.196 49.4574 410.903 49.1733C410.609 48.8845 410.462 48.5436 410.462 48.1506C410.462 47.7481 410.609 47.4072 410.903 47.1278C411.196 46.8485 411.547 46.7088 411.954 46.7088C412.366 46.7088 412.714 46.8485 412.998 47.1278C413.287 47.4072 413.431 47.7481 413.431 48.1506C413.431 48.5436 413.287 48.8845 412.998 49.1733C412.714 49.4574 412.366 49.5994 411.954 49.5994ZM234.207 92V81.0909H243.746V92H240.855V83.4702H237.062V92H234.207ZM250.889 92.2131C249.772 92.2131 248.811 91.9763 248.006 91.5028C247.206 91.0246 246.59 90.3617 246.159 89.5142C245.733 88.6667 245.52 87.6913 245.52 86.5881C245.52 85.4706 245.736 84.4905 246.166 83.6477C246.602 82.8002 247.22 82.1397 248.02 81.6662C248.82 81.188 249.772 80.9489 250.875 80.9489C251.827 80.9489 252.66 81.1217 253.375 81.4673C254.09 81.813 254.656 82.2983 255.073 82.9233C255.489 83.5483 255.719 84.2822 255.762 85.125H252.907C252.826 84.5805 252.613 84.1425 252.267 83.8111C251.926 83.4749 251.479 83.3068 250.925 83.3068C250.456 83.3068 250.047 83.4347 249.696 83.6903C249.351 83.9413 249.081 84.3082 248.887 84.7912C248.693 85.2741 248.595 85.8589 248.595 86.5455C248.595 87.2415 248.69 87.8333 248.88 88.321C249.074 88.8087 249.346 89.1804 249.696 89.4361C250.047 89.6918 250.456 89.8196 250.925 89.8196C251.271 89.8196 251.581 89.7486 251.855 89.6065C252.135 89.4645 252.364 89.2585 252.544 88.9886C252.729 88.714 252.85 88.3849 252.907 88.0014H255.762C255.714 88.8348 255.487 89.5687 255.08 90.2031C254.677 90.8329 254.121 91.3253 253.411 91.6804C252.701 92.0355 251.86 92.2131 250.889 92.2131ZM260.389 88.0085L264.317 81.0909H267.3V92H264.416V85.0611L260.503 92H257.499V81.0909H260.389V88.0085ZM272.054 81.0909L274.057 84.9048L276.109 81.0909H279.213L276.052 86.5455L279.298 92H276.209L274.057 88.2287L271.94 92H268.815L272.054 86.5455L268.929 81.0909H272.054ZM285.348 92.2131C284.245 92.2131 283.291 91.9787 282.486 91.5099C281.686 91.0365 281.068 90.3783 280.632 89.5355C280.197 88.688 279.979 87.7055 279.979 86.5881C279.979 85.4612 280.197 84.4763 280.632 83.6335C281.068 82.786 281.686 82.1278 282.486 81.6591C283.291 81.1856 284.245 80.9489 285.348 80.9489C286.451 80.9489 287.403 81.1856 288.203 81.6591C289.008 82.1278 289.628 82.786 290.064 83.6335C290.5 84.4763 290.717 85.4612 290.717 86.5881C290.717 87.7055 290.5 88.688 290.064 89.5355C289.628 90.3783 289.008 91.0365 288.203 91.5099C287.403 91.9787 286.451 92.2131 285.348 92.2131ZM285.362 89.8693C285.864 89.8693 286.283 89.7273 286.619 89.4432C286.956 89.1544 287.209 88.7614 287.379 88.2642C287.555 87.767 287.642 87.2012 287.642 86.5668C287.642 85.9323 287.555 85.3665 287.379 84.8693C287.209 84.3722 286.956 83.9792 286.619 83.6903C286.283 83.4015 285.864 83.2571 285.362 83.2571C284.856 83.2571 284.43 83.4015 284.084 83.6903C283.743 83.9792 283.485 84.3722 283.31 84.8693C283.139 85.3665 283.054 85.9323 283.054 86.5668C283.054 87.2012 283.139 87.767 283.31 88.2642C283.485 88.7614 283.743 89.1544 284.084 89.4432C284.43 89.7273 284.856 89.8693 285.362 89.8693ZM291.846 92L291.831 89.5994H292.194C292.449 89.5994 292.669 89.5379 292.854 89.4148C293.043 89.2869 293.2 89.081 293.323 88.7969C293.446 88.5128 293.543 88.1364 293.614 87.6676C293.685 87.1941 293.732 86.6117 293.756 85.9205L293.934 81.0909H302.229V92H299.346V83.4702H296.654L296.483 86.8011C296.441 87.715 296.329 88.5009 296.15 89.1591C295.974 89.8172 295.73 90.357 295.418 90.7784C295.105 91.1951 294.729 91.5028 294.289 91.7017C293.848 91.9006 293.337 92 292.755 92H291.846ZM309.304 92.2131C308.2 92.2131 307.246 91.9787 306.441 91.5099C305.641 91.0365 305.023 90.3783 304.588 89.5355C304.152 88.688 303.934 87.7055 303.934 86.5881C303.934 85.4612 304.152 84.4763 304.588 83.6335C305.023 82.786 305.641 82.1278 306.441 81.6591C307.246 81.1856 308.2 80.9489 309.304 80.9489C310.407 80.9489 311.358 81.1856 312.159 81.6591C312.964 82.1278 313.584 82.786 314.019 83.6335C314.455 84.4763 314.673 85.4612 314.673 86.5881C314.673 87.7055 314.455 88.688 314.019 89.5355C313.584 90.3783 312.964 91.0365 312.159 91.5099C311.358 91.9787 310.407 92.2131 309.304 92.2131ZM309.318 89.8693C309.82 89.8693 310.239 89.7273 310.575 89.4432C310.911 89.1544 311.164 88.7614 311.335 88.2642C311.51 87.767 311.598 87.2012 311.598 86.5668C311.598 85.9323 311.51 85.3665 311.335 84.8693C311.164 84.3722 310.911 83.9792 310.575 83.6903C310.239 83.4015 309.82 83.2571 309.318 83.2571C308.811 83.2571 308.385 83.4015 308.039 83.6903C307.698 83.9792 307.44 84.3722 307.265 84.8693C307.095 85.3665 307.01 85.9323 307.01 86.5668C307.01 87.2012 307.095 87.767 307.265 88.2642C307.44 88.7614 307.698 89.1544 308.039 89.4432C308.385 89.7273 308.811 89.8693 309.318 89.8693ZM323.912 81.0909V83.4702H319.381V92H316.44V81.0909H323.912ZM325.557 92V81.0909H328.582V92H325.557ZM327.076 79.6847C326.627 79.6847 326.241 79.5355 325.919 79.2372C325.602 78.9342 325.443 78.572 325.443 78.1506C325.443 77.7339 325.602 77.3764 325.919 77.0781C326.241 76.7751 326.627 76.6236 327.076 76.6236C327.526 76.6236 327.91 76.7751 328.227 77.0781C328.549 77.3764 328.71 77.7339 328.71 78.1506C328.71 78.572 328.549 78.9342 328.227 79.2372C327.91 79.5355 327.526 79.6847 327.076 79.6847ZM331.607 92V81.0909H334.632V92H331.607ZM330.96 79.5994C330.553 79.5994 330.203 79.4574 329.909 79.1733C329.616 78.8845 329.469 78.5436 329.469 78.1506C329.469 77.7481 329.616 77.4072 329.909 77.1278C330.203 76.8485 330.553 76.7088 330.96 76.7088C331.372 76.7088 331.72 76.8485 332.004 77.1278C332.293 77.4072 332.438 77.7481 332.438 78.1506C332.438 78.5436 332.293 78.8845 332.004 79.1733C331.72 79.4574 331.372 79.5994 330.96 79.5994ZM335.307 79.5994C334.9 79.5994 334.549 79.4574 334.256 79.1733C333.962 78.8845 333.815 78.5436 333.815 78.1506C333.815 77.7481 333.962 77.4072 334.256 77.1278C334.549 76.8485 334.9 76.7088 335.307 76.7088C335.719 76.7088 336.067 76.8485 336.351 77.1278C336.64 77.4072 336.784 77.7481 336.784 78.1506C336.784 78.5436 336.64 78.8845 336.351 79.1733C336.067 79.4574 335.719 79.5994 335.307 79.5994Z" fill="#EC8812"/>
        <path d="M478.642 34.3636V46H476.551V36.1136H471.46V46H469.369V34.3636H478.642ZM480.912 49.2727V37.2727H482.935V38.7159H483.054C483.161 38.5038 483.31 38.2784 483.503 38.0398C483.697 37.7973 483.958 37.5909 484.287 37.4205C484.617 37.2462 485.037 37.1591 485.549 37.1591C486.223 37.1591 486.831 37.3314 487.373 37.6761C487.918 38.017 488.35 38.5227 488.668 39.1932C488.99 39.8598 489.151 40.678 489.151 41.6477C489.151 42.6061 488.994 43.4205 488.679 44.0909C488.365 44.7614 487.937 45.2727 487.395 45.625C486.854 45.9773 486.24 46.1534 485.554 46.1534C485.054 46.1534 484.64 46.0701 484.31 45.9034C483.981 45.7367 483.715 45.536 483.515 45.3011C483.318 45.0625 483.164 44.8371 483.054 44.625H482.969V49.2727H480.912ZM482.929 41.6364C482.929 42.2008 483.009 42.6951 483.168 43.1193C483.331 43.5436 483.564 43.875 483.867 44.1136C484.174 44.3485 484.545 44.4659 484.981 44.4659C485.435 44.4659 485.816 44.3447 486.123 44.1023C486.429 43.8561 486.661 43.5208 486.816 43.0966C486.975 42.6686 487.054 42.1818 487.054 41.6364C487.054 41.0947 486.977 40.6136 486.822 40.1932C486.666 39.7727 486.435 39.4432 486.128 39.2045C485.822 38.9659 485.439 38.8466 484.981 38.8466C484.541 38.8466 484.168 38.9621 483.861 39.1932C483.554 39.4242 483.322 39.7481 483.162 40.1648C483.007 40.5814 482.929 41.072 482.929 41.6364ZM492.735 43.2159L496.23 37.2727H498.343V46H496.355V40.0511L492.872 46H490.752V37.2727H492.735V43.2159ZM504.375 41.0227V42.3807H500.824V41.0227H504.375ZM507.54 40.0227L505.597 40.2784C505.491 39.8655 505.294 39.5246 505.006 39.2557C504.718 38.983 504.315 38.8466 503.796 38.8466C503.333 38.8466 502.943 38.9621 502.625 39.1932C502.311 39.4242 502.072 39.75 501.909 40.1705C501.746 40.5871 501.665 41.0758 501.665 41.6364C501.665 42.2008 501.744 42.6951 501.904 43.1193C502.066 43.5436 502.305 43.875 502.619 44.1136C502.938 44.3485 503.33 44.4659 503.796 44.4659C504.114 44.4659 504.392 44.411 504.631 44.3011C504.869 44.1875 505.066 44.0322 505.222 43.8352C505.381 43.6345 505.496 43.4015 505.568 43.1364L507.523 43.3807C507.413 43.9299 507.19 44.4148 506.852 44.8352C506.519 45.2519 506.091 45.5795 505.568 45.8182C505.049 46.053 504.458 46.1705 503.796 46.1705C502.947 46.1705 502.214 45.9773 501.597 45.5909C500.983 45.2045 500.51 44.6705 500.176 43.9886C499.847 43.3068 499.682 42.5227 499.682 41.6364C499.682 40.7614 499.849 39.9886 500.182 39.3182C500.519 38.6439 500.994 38.1155 501.608 37.733C502.222 37.3504 502.951 37.1591 503.796 37.1591C504.455 37.1591 505.046 37.2784 505.568 37.517C506.095 37.7519 506.529 38.0833 506.869 38.5114C507.214 38.9394 507.438 39.4432 507.54 40.0227ZM508.425 48.5341V44.3068H509.119C509.304 44.1629 509.459 43.9678 509.584 43.7216C509.709 43.4716 509.812 43.178 509.891 42.8409C509.975 42.5 510.043 42.1193 510.096 41.6989C510.149 41.2746 510.196 40.8182 510.238 40.3295L510.488 37.2727H516.795V44.3068H518.147V48.5341H516.158V46H510.448V48.5341H508.425ZM511.232 44.3068H514.829V38.9318H512.272L512.136 40.3295C512.06 41.2538 511.959 42.0455 511.834 42.7045C511.709 43.3636 511.509 43.8977 511.232 44.3068ZM525.517 40.7841V42.4716H520.869V40.7841H525.517ZM521.505 37.2727V46H519.522V37.2727H521.505ZM526.863 37.2727V46H524.886V37.2727H526.863ZM529.75 49.2727C529.47 49.2727 529.21 49.25 528.972 49.2045C528.737 49.1629 528.549 49.1136 528.409 49.0568L528.887 47.4545C529.186 47.5417 529.453 47.5833 529.688 47.5795C529.923 47.5758 530.129 47.5019 530.307 47.358C530.489 47.2178 530.642 46.983 530.767 46.6534L530.943 46.1818L527.779 37.2727H529.96L531.972 43.8636H532.063L534.08 37.2727H536.267L532.773 47.0568C532.61 47.5189 532.394 47.9148 532.125 48.2443C531.856 48.5777 531.527 48.8314 531.137 49.0057C530.75 49.1837 530.288 49.2727 529.75 49.2727ZM539.514 43.2159L543.008 37.2727H545.121V46H543.133V40.0511L539.65 46H537.531V37.2727H539.514V43.2159ZM542.445 34.2727H543.985C543.985 34.9356 543.745 35.4735 543.264 35.8864C542.786 36.2955 542.139 36.5 541.32 36.5C540.51 36.5 539.864 36.2955 539.383 35.8864C538.906 35.4735 538.669 34.9356 538.673 34.2727H540.201C540.201 34.5455 540.284 34.7898 540.451 35.0057C540.621 35.2178 540.911 35.3239 541.32 35.3239C541.722 35.3239 542.008 35.2178 542.178 35.0057C542.353 34.7936 542.442 34.5492 542.445 34.2727ZM546.096 38.9602V37.2727H553.733V38.9602H550.909V46H548.92V38.9602H546.096ZM558.715 46.1705C557.84 46.1705 557.084 45.9886 556.448 45.625C555.815 45.2576 555.328 44.7386 554.988 44.0682C554.647 43.3939 554.476 42.6004 554.476 41.6875C554.476 40.7898 554.647 40.0019 554.988 39.3239C555.332 38.642 555.813 38.1117 556.431 37.733C557.048 37.3504 557.774 37.1591 558.607 37.1591C559.145 37.1591 559.652 37.2462 560.13 37.4205C560.611 37.5909 561.035 37.8561 561.402 38.2159C561.774 38.5758 562.065 39.0341 562.277 39.5909C562.489 40.1439 562.596 40.803 562.596 41.5682V42.1989H555.442V40.8125H560.624C560.62 40.4186 560.535 40.0682 560.368 39.7614C560.202 39.4508 559.969 39.2064 559.669 39.0284C559.374 38.8504 559.029 38.7614 558.635 38.7614C558.215 38.7614 557.846 38.8636 557.527 39.0682C557.209 39.2689 556.961 39.5341 556.783 39.8636C556.609 40.1894 556.52 40.5473 556.516 40.9375V42.1477C556.516 42.6553 556.609 43.0909 556.794 43.4545C556.98 43.8144 557.239 44.0909 557.573 44.2841C557.906 44.4735 558.296 44.5682 558.743 44.5682C559.042 44.5682 559.313 44.5265 559.556 44.4432C559.798 44.3561 560.008 44.2292 560.186 44.0625C560.364 43.8958 560.499 43.6894 560.59 43.4432L562.51 43.6591C562.389 44.1667 562.158 44.6098 561.817 44.9886C561.48 45.3636 561.048 45.6553 560.522 45.8636C559.995 46.0682 559.393 46.1705 558.715 46.1705ZM567.982 46.1705C567.111 46.1705 566.363 45.9792 565.738 45.5966C565.117 45.214 564.638 44.6856 564.301 44.0114C563.967 43.3333 563.801 42.553 563.801 41.6705C563.801 40.7841 563.971 40.0019 564.312 39.3239C564.653 38.642 565.134 38.1117 565.755 37.733C566.38 37.3504 567.119 37.1591 567.971 37.1591C568.679 37.1591 569.306 37.2898 569.852 37.5511C570.401 37.8087 570.838 38.1742 571.164 38.6477C571.49 39.1174 571.676 39.6667 571.721 40.2955H569.755C569.676 39.875 569.486 39.5246 569.187 39.2443C568.891 38.9602 568.496 38.8182 567.999 38.8182C567.579 38.8182 567.21 38.9318 566.891 39.1591C566.573 39.3826 566.325 39.7045 566.147 40.125C565.973 40.5455 565.886 41.0492 565.886 41.6364C565.886 42.2311 565.973 42.7424 566.147 43.1705C566.321 43.5947 566.566 43.9223 566.88 44.1534C567.198 44.3807 567.571 44.4943 567.999 44.4943C568.302 44.4943 568.573 44.4375 568.812 44.3239C569.054 44.2064 569.257 44.0379 569.42 43.8182C569.583 43.5985 569.695 43.3314 569.755 43.017H571.721C571.672 43.6345 571.49 44.1818 571.176 44.6591C570.861 45.1326 570.433 45.5038 569.891 45.7727C569.35 46.0379 568.713 46.1705 567.982 46.1705ZM574.642 40.1136H577.216C578.329 40.1136 579.191 40.3845 579.801 40.9261C580.411 41.4678 580.718 42.178 580.722 43.0568C580.718 43.6288 580.578 44.1364 580.301 44.5795C580.028 45.0227 579.631 45.3712 579.108 45.625C578.589 45.875 577.958 46 577.216 46H573.25V37.2727H575.233V44.3125H577.216C577.663 44.3125 578.03 44.1989 578.318 43.9716C578.606 43.7405 578.75 43.4451 578.75 43.0852C578.75 42.7064 578.606 42.3977 578.318 42.1591C578.03 41.9205 577.663 41.8011 577.216 41.8011H574.642V40.1136ZM585.36 48.5341V44.3068H586.054C586.239 44.1629 586.394 43.9678 586.519 43.7216C586.644 43.4716 586.747 43.178 586.826 42.8409C586.91 42.5 586.978 42.1193 587.031 41.6989C587.084 41.2746 587.131 40.8182 587.173 40.3295L587.423 37.2727H593.73V44.3068H595.082V48.5341H593.093V46H587.383V48.5341H585.36ZM588.167 44.3068H591.764V38.9318H589.207L589.071 40.3295C588.995 41.2538 588.894 42.0455 588.769 42.7045C588.644 43.3636 588.444 43.8977 588.167 44.3068ZM600.264 46.1705C599.412 46.1705 598.673 45.983 598.048 45.608C597.423 45.233 596.939 44.7083 596.594 44.0341C596.253 43.3598 596.082 42.572 596.082 41.6705C596.082 40.7689 596.253 39.9792 596.594 39.3011C596.939 38.6231 597.423 38.0966 598.048 37.7216C598.673 37.3466 599.412 37.1591 600.264 37.1591C601.117 37.1591 601.855 37.3466 602.48 37.7216C603.105 38.0966 603.588 38.6231 603.929 39.3011C604.274 39.9792 604.446 40.7689 604.446 41.6705C604.446 42.572 604.274 43.3598 603.929 44.0341C603.588 44.7083 603.105 45.233 602.48 45.608C601.855 45.983 601.117 46.1705 600.264 46.1705ZM600.276 44.5227C600.738 44.5227 601.124 44.3958 601.435 44.142C601.745 43.8845 601.976 43.5398 602.128 43.108C602.283 42.6761 602.361 42.1951 602.361 41.6648C602.361 41.1307 602.283 40.6477 602.128 40.2159C601.976 39.7803 601.745 39.4337 601.435 39.1761C601.124 38.9186 600.738 38.7898 600.276 38.7898C599.802 38.7898 599.408 38.9186 599.094 39.1761C598.783 39.4337 598.55 39.7803 598.395 40.2159C598.243 40.6477 598.168 41.1307 598.168 41.6648C598.168 42.1951 598.243 42.6761 598.395 43.108C598.55 43.5398 598.783 43.8845 599.094 44.142C599.408 44.3958 599.802 44.5227 600.276 44.5227ZM468.636 60.1307V58.3636H477.92V60.1307H474.324V70H472.233V60.1307H468.636ZM482.057 70.1705C481.182 70.1705 480.427 69.9886 479.79 69.625C479.158 69.2576 478.671 68.7386 478.33 68.0682C477.989 67.3939 477.819 66.6004 477.819 65.6875C477.819 64.7898 477.989 64.0019 478.33 63.3239C478.675 62.642 479.156 62.1117 479.773 61.733C480.391 61.3504 481.116 61.1591 481.949 61.1591C482.487 61.1591 482.995 61.2462 483.472 61.4205C483.953 61.5909 484.377 61.8561 484.745 62.2159C485.116 62.5758 485.408 63.0341 485.62 63.5909C485.832 64.1439 485.938 64.803 485.938 65.5682V66.1989H478.785V64.8125H483.966C483.963 64.4186 483.877 64.0682 483.711 63.7614C483.544 63.4508 483.311 63.2064 483.012 63.0284C482.716 62.8504 482.372 62.7614 481.978 62.7614C481.557 62.7614 481.188 62.8636 480.87 63.0682C480.552 63.2689 480.304 63.5341 480.126 63.8636C479.951 64.1894 479.862 64.5473 479.858 64.9375V66.1477C479.858 66.6553 479.951 67.0909 480.137 67.4545C480.322 67.8144 480.582 68.0909 480.915 68.2841C481.249 68.4735 481.639 68.5682 482.086 68.5682C482.385 68.5682 482.656 68.5265 482.898 68.4432C483.141 68.3561 483.351 68.2292 483.529 68.0625C483.707 67.8958 483.841 67.6894 483.932 67.4432L485.853 67.6591C485.732 68.1667 485.501 68.6098 485.16 68.9886C484.822 69.3636 484.391 69.6553 483.864 69.8636C483.338 70.0682 482.735 70.1705 482.057 70.1705ZM489.575 58.3636V70H487.518V58.3636H489.575ZM495.394 70.1705C494.519 70.1705 493.763 69.9886 493.127 69.625C492.494 69.2576 492.007 68.7386 491.666 68.0682C491.325 67.3939 491.155 66.6004 491.155 65.6875C491.155 64.7898 491.325 64.0019 491.666 63.3239C492.011 62.642 492.492 62.1117 493.109 61.733C493.727 61.3504 494.452 61.1591 495.286 61.1591C495.824 61.1591 496.331 61.2462 496.808 61.4205C497.289 61.5909 497.714 61.8561 498.081 62.2159C498.452 62.5758 498.744 63.0341 498.956 63.5909C499.168 64.1439 499.274 64.803 499.274 65.5682V66.1989H492.121V64.8125H497.303C497.299 64.4186 497.214 64.0682 497.047 63.7614C496.88 63.4508 496.647 63.2064 496.348 63.0284C496.053 62.8504 495.708 62.7614 495.314 62.7614C494.894 62.7614 494.524 62.8636 494.206 63.0682C493.888 63.2689 493.64 63.5341 493.462 63.8636C493.288 64.1894 493.199 64.5473 493.195 64.9375V66.1477C493.195 66.6553 493.288 67.0909 493.473 67.4545C493.659 67.8144 493.918 68.0909 494.252 68.2841C494.585 68.4735 494.975 68.5682 495.422 68.5682C495.721 68.5682 495.992 68.5265 496.234 68.4432C496.477 68.3561 496.687 68.2292 496.865 68.0625C497.043 67.8958 497.178 67.6894 497.269 67.4432L499.189 67.6591C499.068 68.1667 498.837 68.6098 498.496 68.9886C498.159 69.3636 497.727 69.6553 497.2 69.8636C496.674 70.0682 496.072 70.1705 495.394 70.1705ZM504.65 73.4545C503.911 73.4545 503.277 73.3542 502.746 73.1534C502.216 72.9564 501.79 72.6913 501.468 72.358C501.146 72.0246 500.923 71.6553 500.798 71.25L502.65 70.8011C502.733 70.9716 502.854 71.1402 503.013 71.3068C503.173 71.4773 503.387 71.6174 503.655 71.7273C503.928 71.8409 504.271 71.8977 504.684 71.8977C505.267 71.8977 505.75 71.7557 506.133 71.4716C506.515 71.1913 506.707 70.7292 506.707 70.0852V68.4318H506.604C506.498 68.6439 506.343 68.8617 506.138 69.0852C505.938 69.3087 505.671 69.4962 505.337 69.6477C505.008 69.7992 504.593 69.875 504.093 69.875C503.423 69.875 502.815 69.7178 502.269 69.4034C501.727 69.0852 501.296 68.6117 500.974 67.983C500.655 67.3504 500.496 66.5587 500.496 65.608C500.496 64.6496 500.655 63.8409 500.974 63.1818C501.296 62.5189 501.729 62.017 502.275 61.6761C502.82 61.3314 503.428 61.1591 504.099 61.1591C504.61 61.1591 505.03 61.2462 505.36 61.4205C505.693 61.5909 505.958 61.7973 506.155 62.0398C506.352 62.2784 506.502 62.5038 506.604 62.7159H506.718V61.2727H508.746V70.142C508.746 70.8883 508.568 71.5057 508.212 71.9943C507.856 72.483 507.369 72.8485 506.752 73.0909C506.135 73.3333 505.434 73.4545 504.65 73.4545ZM504.667 68.2614C505.102 68.2614 505.474 68.1553 505.78 67.9432C506.087 67.7311 506.32 67.4261 506.479 67.0284C506.638 66.6307 506.718 66.1534 506.718 65.5966C506.718 65.0473 506.638 64.5663 506.479 64.1534C506.324 63.7405 506.093 63.4205 505.786 63.1932C505.483 62.9621 505.11 62.8466 504.667 62.8466C504.208 62.8466 503.826 62.9659 503.519 63.2045C503.212 63.4432 502.981 63.7708 502.826 64.1875C502.671 64.6004 502.593 65.0701 502.593 65.5966C502.593 66.1307 502.671 66.5985 502.826 67C502.985 67.3977 503.218 67.7083 503.525 67.9318C503.835 68.1515 504.216 68.2614 504.667 68.2614ZM510.694 70V61.2727H512.689V62.7273H512.78C512.939 62.2235 513.211 61.8352 513.598 61.5625C513.988 61.286 514.433 61.1477 514.933 61.1477C515.047 61.1477 515.173 61.1534 515.314 61.1648C515.458 61.1723 515.577 61.1856 515.672 61.2045V63.0966C515.584 63.0663 515.446 63.0398 515.257 63.017C515.071 62.9905 514.891 62.9773 514.717 62.9773C514.342 62.9773 514.005 63.0587 513.706 63.2216C513.41 63.3807 513.177 63.6023 513.007 63.8864C512.836 64.1705 512.751 64.4981 512.751 64.8693V70H510.694ZM519.233 70.1761C518.68 70.1761 518.182 70.0777 517.739 69.8807C517.299 69.6799 516.951 69.3845 516.693 68.9943C516.44 68.6042 516.313 68.1231 516.313 67.5511C516.313 67.0587 516.404 66.6515 516.585 66.3295C516.767 66.0076 517.015 65.75 517.33 65.5568C517.644 65.3636 517.998 65.2178 518.392 65.1193C518.79 65.017 519.201 64.9432 519.625 64.8977C520.137 64.8447 520.551 64.7973 520.87 64.7557C521.188 64.7102 521.419 64.642 521.563 64.5511C521.71 64.4564 521.784 64.3106 521.784 64.1136V64.0795C521.784 63.6515 521.657 63.3201 521.404 63.0852C521.15 62.8504 520.784 62.733 520.307 62.733C519.803 62.733 519.404 62.8428 519.108 63.0625C518.817 63.2822 518.62 63.5417 518.517 63.8409L516.597 63.5682C516.748 63.0379 516.998 62.5947 517.347 62.2386C517.695 61.8788 518.121 61.6098 518.625 61.4318C519.129 61.25 519.686 61.1591 520.296 61.1591C520.716 61.1591 521.135 61.2083 521.551 61.3068C521.968 61.4053 522.349 61.5682 522.693 61.7955C523.038 62.0189 523.315 62.3239 523.523 62.7102C523.735 63.0966 523.841 63.5795 523.841 64.1591V70H521.864V68.8011H521.796C521.671 69.0436 521.495 69.2708 521.267 69.483C521.044 69.6913 520.762 69.8598 520.421 69.9886C520.084 70.1136 519.688 70.1761 519.233 70.1761ZM519.767 68.6648C520.18 68.6648 520.538 68.5833 520.841 68.4205C521.144 68.2538 521.377 68.0341 521.54 67.7614C521.707 67.4886 521.79 67.1913 521.79 66.8693V65.8409C521.726 65.8939 521.616 65.9432 521.46 65.9886C521.309 66.0341 521.138 66.0739 520.949 66.108C520.76 66.142 520.572 66.1723 520.387 66.1989C520.201 66.2254 520.04 66.2481 519.904 66.267C519.597 66.3087 519.322 66.3769 519.08 66.4716C518.837 66.5663 518.646 66.6989 518.506 66.8693C518.366 67.036 518.296 67.2519 518.296 67.517C518.296 67.8958 518.434 68.1818 518.71 68.375C518.987 68.5682 519.339 68.6648 519.767 68.6648ZM525.749 70V61.2727H527.715V62.7557H527.818C527.999 62.2557 528.3 61.8655 528.721 61.5852C529.141 61.3011 529.643 61.1591 530.227 61.1591C530.818 61.1591 531.316 61.303 531.721 61.5909C532.13 61.875 532.418 62.2633 532.585 62.7557H532.675C532.869 62.2708 533.194 61.8845 533.653 61.5966C534.115 61.3049 534.662 61.1591 535.295 61.1591C536.098 61.1591 536.753 61.4129 537.261 61.9205C537.768 62.428 538.022 63.1686 538.022 64.142V70H535.96V64.4602C535.96 63.9186 535.816 63.5227 535.528 63.2727C535.24 63.0189 534.888 62.892 534.471 62.892C533.975 62.892 533.586 63.0473 533.306 63.358C533.03 63.6648 532.891 64.0644 532.891 64.5568V70H530.874V64.375C530.874 63.9242 530.738 63.5644 530.465 63.2955C530.196 63.0265 529.844 62.892 529.408 62.892C529.113 62.892 528.844 62.9678 528.602 63.1193C528.359 63.267 528.166 63.4773 528.022 63.75C527.878 64.0189 527.806 64.3333 527.806 64.6932V70H525.749ZM545.238 64.3068V66H540V64.3068H545.238ZM547.242 70V61.2727H549.299V64.7955H550.049L552.674 61.2727H555.151L551.918 65.5568L555.185 70H552.696L550.304 66.7102H549.299V70H547.242ZM558.703 70.1761C558.15 70.1761 557.651 70.0777 557.208 69.8807C556.769 69.6799 556.42 69.3845 556.163 68.9943C555.909 68.6042 555.782 68.1231 555.782 67.5511C555.782 67.0587 555.873 66.6515 556.055 66.3295C556.237 66.0076 556.485 65.75 556.799 65.5568C557.114 65.3636 557.468 65.2178 557.862 65.1193C558.259 65.017 558.67 64.9432 559.095 64.8977C559.606 64.8447 560.021 64.7973 560.339 64.7557C560.657 64.7102 560.888 64.642 561.032 64.5511C561.18 64.4564 561.254 64.3106 561.254 64.1136V64.0795C561.254 63.6515 561.127 63.3201 560.873 63.0852C560.619 62.8504 560.254 62.733 559.776 62.733C559.273 62.733 558.873 62.8428 558.578 63.0625C558.286 63.2822 558.089 63.5417 557.987 63.8409L556.066 63.5682C556.218 63.0379 556.468 62.5947 556.816 62.2386C557.165 61.8788 557.591 61.6098 558.095 61.4318C558.598 61.25 559.155 61.1591 559.765 61.1591C560.186 61.1591 560.604 61.2083 561.021 61.3068C561.437 61.4053 561.818 61.5682 562.163 61.7955C562.507 62.0189 562.784 62.3239 562.992 62.7102C563.204 63.0966 563.311 63.5795 563.311 64.1591V70H561.333V68.8011H561.265C561.14 69.0436 560.964 69.2708 560.737 69.483C560.513 69.6913 560.231 69.8598 559.89 69.9886C559.553 70.1136 559.157 70.1761 558.703 70.1761ZM559.237 68.6648C559.65 68.6648 560.007 68.5833 560.311 68.4205C560.614 68.2538 560.846 68.0341 561.009 67.7614C561.176 67.4886 561.259 67.1913 561.259 66.8693V65.8409C561.195 65.8939 561.085 65.9432 560.93 65.9886C560.778 66.0341 560.608 66.0739 560.418 66.108C560.229 66.142 560.042 66.1723 559.856 66.1989C559.67 66.2254 559.509 66.2481 559.373 66.267C559.066 66.3087 558.792 66.3769 558.549 66.4716C558.307 66.5663 558.115 66.6989 557.975 66.8693C557.835 67.036 557.765 67.2519 557.765 67.517C557.765 67.8958 557.903 68.1818 558.18 68.375C558.456 68.5682 558.809 68.6648 559.237 68.6648ZM571.213 64.7841V66.4716H566.565V64.7841H571.213ZM567.202 61.2727V70H565.219V61.2727H567.202ZM572.56 61.2727V70H570.582V61.2727H572.56ZM576.992 70.1761C576.439 70.1761 575.941 70.0777 575.498 69.8807C575.058 69.6799 574.71 69.3845 574.452 68.9943C574.198 68.6042 574.071 68.1231 574.071 67.5511C574.071 67.0587 574.162 66.6515 574.344 66.3295C574.526 66.0076 574.774 65.75 575.089 65.5568C575.403 65.3636 575.757 65.2178 576.151 65.1193C576.549 65.017 576.96 64.9432 577.384 64.8977C577.895 64.8447 578.31 64.7973 578.628 64.7557C578.946 64.7102 579.178 64.642 579.321 64.5511C579.469 64.4564 579.543 64.3106 579.543 64.1136V64.0795C579.543 63.6515 579.416 63.3201 579.162 63.0852C578.909 62.8504 578.543 62.733 578.066 62.733C577.562 62.733 577.162 62.8428 576.867 63.0625C576.575 63.2822 576.378 63.5417 576.276 63.8409L574.356 63.5682C574.507 63.0379 574.757 62.5947 575.106 62.2386C575.454 61.8788 575.88 61.6098 576.384 61.4318C576.888 61.25 577.445 61.1591 578.054 61.1591C578.475 61.1591 578.893 61.2083 579.31 61.3068C579.727 61.4053 580.107 61.5682 580.452 61.7955C580.797 62.0189 581.073 62.3239 581.282 62.7102C581.494 63.0966 581.6 63.5795 581.6 64.1591V70H579.623V68.8011H579.554C579.429 69.0436 579.253 69.2708 579.026 69.483C578.803 69.6913 578.52 69.8598 578.179 69.9886C577.842 70.1136 577.446 70.1761 576.992 70.1761ZM577.526 68.6648C577.939 68.6648 578.297 68.5833 578.6 68.4205C578.903 68.2538 579.136 68.0341 579.299 67.7614C579.465 67.4886 579.549 67.1913 579.549 66.8693V65.8409C579.484 65.8939 579.375 65.9432 579.219 65.9886C579.068 66.0341 578.897 66.0739 578.708 66.108C578.518 66.142 578.331 66.1723 578.145 66.1989C577.96 66.2254 577.799 66.2481 577.662 66.267C577.356 66.3087 577.081 66.3769 576.839 66.4716C576.596 66.5663 576.405 66.6989 576.265 66.8693C576.125 67.036 576.054 67.2519 576.054 67.517C576.054 67.8958 576.193 68.1818 576.469 68.375C576.746 68.5682 577.098 68.6648 577.526 68.6648ZM582.906 70L582.894 68.3068H583.196C583.423 68.3068 583.614 68.2557 583.769 68.1534C583.925 68.0511 584.054 67.8807 584.156 67.642C584.258 67.3996 584.338 67.0739 584.394 66.6648C584.451 66.2557 584.491 65.7462 584.514 65.1364L584.667 61.2727H591.031V70H589.042V62.9602H586.536L586.4 65.7727C586.366 66.5 586.285 67.1307 586.156 67.6648C586.031 68.1951 585.853 68.6326 585.622 68.9773C585.394 69.322 585.108 69.5795 584.764 69.75C584.419 69.9167 584.012 70 583.542 70H582.906ZM593.908 73.2727C593.627 73.2727 593.368 73.25 593.129 73.2045C592.894 73.1629 592.707 73.1136 592.567 73.0568L593.044 71.4545C593.343 71.5417 593.61 71.5833 593.845 71.5795C594.08 71.5758 594.287 71.5019 594.465 71.358C594.646 71.2178 594.8 70.983 594.925 70.6534L595.101 70.1818L591.936 61.2727H594.118L596.129 67.8636H596.22L598.237 61.2727H600.425L596.93 71.0568C596.768 71.5189 596.552 71.9148 596.283 72.2443C596.014 72.5777 595.684 72.8314 595.294 73.0057C594.908 73.1837 594.446 73.2727 593.908 73.2727ZM608.014 58.3636L607.826 66.5795H605.997L605.815 58.3636H608.014ZM606.912 70.125C606.567 70.125 606.271 70.0038 606.025 69.7614C605.783 69.5189 605.662 69.2235 605.662 68.875C605.662 68.5341 605.783 68.2424 606.025 68C606.271 67.7576 606.567 67.6364 606.912 67.6364C607.249 67.6364 607.54 67.7576 607.787 68C608.037 68.2424 608.162 68.5341 608.162 68.875C608.162 69.1061 608.103 69.3163 607.985 69.5057C607.872 69.6951 607.72 69.8466 607.531 69.9602C607.345 70.0701 607.139 70.125 606.912 70.125Z" fill="#00416B"/>
        <path d="M651.002 37.8953C650.866 37.7781 650.701 37.7002 650.525 37.67C650.348 37.6398 650.166 37.6583 649.999 37.7238L621.5 48.8767C621.154 49.0124 620.86 49.2568 620.665 49.5733C620.469 49.8898 620.381 50.2614 620.414 50.6321C620.447 51.0029 620.6 51.3528 620.849 51.6294C621.098 51.9059 621.43 52.0942 621.796 52.1659L629.406 53.6608V62.125C629.406 62.5174 629.524 62.9008 629.743 63.226C629.963 63.5512 630.275 63.8034 630.639 63.9501C631.003 64.0969 631.402 64.1315 631.786 64.0496C632.17 63.9677 632.52 63.773 632.793 63.4905L636.539 59.605L642.386 64.7308C642.743 65.0467 643.203 65.2212 643.68 65.2216C643.888 65.2211 644.095 65.1884 644.293 65.1245C644.618 65.0217 644.91 64.8356 645.14 64.5847C645.371 64.3337 645.531 64.0268 645.606 63.6944L651.319 38.8614C651.359 38.6868 651.35 38.5046 651.295 38.3344C651.239 38.1641 651.138 38.0123 651.002 37.8953ZM622.101 50.5052C622.095 50.4906 622.095 50.4747 622.101 50.4602C622.107 50.4553 622.114 50.4515 622.122 50.4489L644.581 41.657L630.055 52.0633L622.122 50.5108L622.101 50.5052ZM631.578 62.3177C631.539 62.3579 631.489 62.3856 631.434 62.3974C631.38 62.4092 631.323 62.4044 631.271 62.3838C631.219 62.3631 631.175 62.3275 631.143 62.2814C631.111 62.2353 631.094 62.1809 631.094 62.125V54.828L635.269 58.4842L631.578 62.3177ZM643.962 63.3133C643.952 63.3608 643.929 63.4047 643.896 63.4403C643.863 63.476 643.821 63.502 643.774 63.5158C643.726 63.5325 643.675 63.5361 643.626 63.5262C643.576 63.5163 643.53 63.4933 643.493 63.4595L631.606 53.0322L649.234 40.3984L643.962 63.3133Z" fill="#EC8812"/>
    </g>
    <defs>
        <clipPath id="clip0_8419_13163">
            <rect width="768" height="105" fill="white"/>
        </clipPath>
    </defs>
</svg>
