<svg width="1718" height="104" viewBox="0 0 1718 104" fill="none" xmlns="http://www.w3.org/2000/svg">
    <g clip-path="url(#clip0_8325_38965)">
        <rect width="1718" height="104" fill="#EEEEEE"/>
        <path d="M263.952 74.017V62.0994H265.926C266.598 61.6165 267.214 60.9347 267.773 60.054C268.331 59.1638 268.81 57.9375 269.207 56.375C269.605 54.803 269.889 52.7481 270.06 50.2102L270.884 37.9091H290.131V62.0994H293.312V73.9886H287.403V67H269.861V74.017H263.952ZM273.028 62.0994H284.222V42.9801H276.423L275.969 50.2102C275.846 52.1326 275.642 53.8371 275.358 55.3239C275.083 56.8106 274.747 58.1127 274.349 59.2301C273.961 60.3381 273.521 61.2945 273.028 62.0994ZM296.538 67V45.1818H302.589V67H296.538ZM299.578 42.3693C298.678 42.3693 297.907 42.071 297.263 41.4744C296.628 40.8684 296.311 40.1439 296.311 39.3011C296.311 38.4678 296.628 37.7528 297.263 37.1562C297.907 36.5502 298.678 36.2472 299.578 36.2472C300.478 36.2472 301.245 36.5502 301.879 37.1562C302.523 37.7528 302.845 38.4678 302.845 39.3011C302.845 40.1439 302.523 40.8684 301.879 41.4744C301.245 42.071 300.478 42.3693 299.578 42.3693ZM305.914 60.821H311.781C311.809 61.5407 312.131 62.1089 312.747 62.5256C313.362 62.9422 314.158 63.1506 315.133 63.1506C316.118 63.1506 316.947 62.9233 317.619 62.4688C318.291 62.0047 318.628 61.3419 318.628 60.4801C318.628 59.9498 318.495 59.4905 318.23 59.1023C317.965 58.7045 317.595 58.392 317.122 58.1648C316.648 57.9375 316.099 57.8239 315.474 57.8239H312.335V53.8608H315.474C316.412 53.8608 317.131 53.643 317.633 53.2074C318.145 52.7718 318.4 52.2273 318.4 51.5739C318.4 50.8352 318.135 50.2434 317.605 49.7983C317.084 49.3437 316.379 49.1165 315.488 49.1165C314.589 49.1165 313.841 49.3201 313.244 49.7273C312.657 50.125 312.354 50.6458 312.335 51.2898H306.497C306.516 49.983 306.909 48.8513 307.676 47.8949C308.452 46.9384 309.494 46.1998 310.801 45.679C312.117 45.1581 313.59 44.8977 315.218 44.8977C316.999 44.8977 318.533 45.1487 319.821 45.6506C321.118 46.143 322.112 46.8485 322.804 47.767C323.504 48.6856 323.855 49.7794 323.855 51.0483C323.855 52.2036 323.476 53.1695 322.718 53.946C321.961 54.7225 320.9 55.2765 319.537 55.608V55.8352C320.436 55.892 321.251 56.1335 321.98 56.5597C322.709 56.9858 323.291 57.5729 323.727 58.321C324.163 59.0597 324.38 59.9356 324.38 60.9489C324.38 62.303 323.983 63.4631 323.187 64.429C322.401 65.3949 321.312 66.1383 319.92 66.6591C318.538 67.1705 316.951 67.4261 315.162 67.4261C313.419 67.4261 311.857 67.1752 310.474 66.6733C309.101 66.1619 308.007 65.4138 307.193 64.429C306.388 63.4441 305.962 62.2415 305.914 60.821ZM342.876 53.6761V58.4347H331.484V53.6761H342.876ZM333.473 45.1818V67H327.691V45.1818H333.473ZM346.669 45.1818V67H340.93V45.1818H346.669ZM357.185 67.4119C355.793 67.4119 354.552 67.1705 353.463 66.6875C352.374 66.1951 351.512 65.4706 350.878 64.5142C350.253 63.5483 349.94 62.3456 349.94 60.9062C349.94 59.6941 350.163 58.6761 350.608 57.8523C351.053 57.0284 351.659 56.3655 352.426 55.8636C353.193 55.3617 354.065 54.983 355.04 54.7273C356.025 54.4716 357.057 54.2917 358.137 54.1875C359.405 54.0549 360.428 53.9318 361.205 53.8182C361.981 53.6951 362.545 53.5152 362.895 53.2784C363.245 53.0417 363.421 52.6913 363.421 52.2273V52.142C363.421 51.2424 363.137 50.5464 362.568 50.054C362.01 49.5616 361.214 49.3153 360.182 49.3153C359.093 49.3153 358.226 49.5568 357.583 50.0398C356.939 50.5133 356.512 51.1098 356.304 51.8295L350.708 51.375C350.992 50.0492 351.55 48.9034 352.384 47.9375C353.217 46.9621 354.292 46.214 355.608 45.6932C356.934 45.1629 358.468 44.8977 360.21 44.8977C361.422 44.8977 362.583 45.0398 363.69 45.3239C364.808 45.608 365.797 46.0483 366.659 46.6449C367.53 47.2415 368.217 48.0085 368.719 48.946C369.221 49.8741 369.472 50.9867 369.472 52.2841V67H363.733V63.9744H363.563C363.212 64.6562 362.744 65.2576 362.156 65.7784C361.569 66.2898 360.864 66.6922 360.04 66.9858C359.216 67.2699 358.264 67.4119 357.185 67.4119ZM358.918 63.2358C359.808 63.2358 360.594 63.0606 361.276 62.7102C361.958 62.3504 362.493 61.8674 362.881 61.2614C363.269 60.6553 363.463 59.9687 363.463 59.2017V56.8864C363.274 57.0095 363.013 57.1231 362.682 57.2273C362.36 57.322 361.995 57.4119 361.588 57.4972C361.181 57.5729 360.774 57.6439 360.367 57.7102C359.959 57.767 359.59 57.8191 359.259 57.8665C358.548 57.9706 357.928 58.1364 357.398 58.3636C356.868 58.5909 356.456 58.8987 356.162 59.2869C355.869 59.6657 355.722 60.1392 355.722 60.7074C355.722 61.5312 356.02 62.161 356.617 62.5966C357.223 63.0227 357.99 63.2358 358.918 63.2358ZM379.548 59.017L387.403 45.1818H393.369V67H387.602V53.1222L379.775 67H373.766V45.1818H379.548V59.017ZM386.366 37.5682H390.585C390.575 39.2917 389.936 40.679 388.667 41.7301C387.407 42.7812 385.703 43.3068 383.553 43.3068C381.394 43.3068 379.685 42.7812 378.425 41.7301C377.166 40.679 376.536 39.2917 376.536 37.5682H380.727C380.717 38.2216 380.925 38.8087 381.352 39.3295C381.787 39.8504 382.521 40.1108 383.553 40.1108C384.557 40.1108 385.277 39.8551 385.712 39.3438C386.148 38.8324 386.366 38.2405 386.366 37.5682ZM395.628 49.9403V45.1818H415.401V49.9403H408.37V67H402.603V49.9403H395.628ZM427.831 67.4261C425.587 67.4261 423.655 66.9716 422.036 66.0625C420.426 65.1439 419.186 63.8466 418.314 62.1705C417.443 60.4848 417.008 58.4915 417.008 56.1903C417.008 53.946 417.443 51.9763 418.314 50.2812C419.186 48.5862 420.412 47.2652 421.993 46.3182C423.584 45.3712 425.45 44.8977 427.59 44.8977C429.029 44.8977 430.369 45.1297 431.61 45.5938C432.86 46.0483 433.949 46.7348 434.877 47.6534C435.814 48.572 436.544 49.7273 437.064 51.1193C437.585 52.5019 437.846 54.1212 437.846 55.9773V57.6392H419.422V53.8892H432.15C432.15 53.018 431.96 52.2462 431.581 51.5739C431.203 50.9015 430.677 50.3759 430.005 49.9972C429.342 49.6089 428.57 49.4148 427.689 49.4148C426.771 49.4148 425.956 49.6278 425.246 50.054C424.545 50.4706 423.996 51.0341 423.598 51.7443C423.201 52.4451 422.997 53.2263 422.988 54.0881V57.6534C422.988 58.733 423.187 59.6657 423.584 60.4517C423.991 61.2377 424.564 61.8438 425.303 62.2699C426.042 62.696 426.918 62.9091 427.931 62.9091C428.603 62.9091 429.219 62.8144 429.777 62.625C430.336 62.4356 430.814 62.1515 431.212 61.7727C431.61 61.3939 431.913 60.9299 432.121 60.3807L437.718 60.75C437.434 62.0947 436.851 63.2689 435.971 64.2727C435.099 65.267 433.972 66.0436 432.59 66.6023C431.217 67.1515 429.631 67.4261 427.831 67.4261ZM451.252 67.4261C449.018 67.4261 447.095 66.9527 445.485 66.0057C443.885 65.0492 442.654 63.7235 441.792 62.0284C440.94 60.3333 440.514 58.3826 440.514 56.1761C440.514 53.9413 440.945 51.9811 441.806 50.2955C442.678 48.6004 443.913 47.2794 445.514 46.3324C447.114 45.3759 449.018 44.8977 451.224 44.8977C453.127 44.8977 454.794 45.2434 456.224 45.9347C457.654 46.6259 458.786 47.5966 459.619 48.8466C460.452 50.0966 460.912 51.5644 460.997 53.25H455.287C455.126 52.161 454.699 51.285 454.008 50.6222C453.326 49.9498 452.431 49.6136 451.323 49.6136C450.386 49.6136 449.567 49.8693 448.866 50.3807C448.175 50.8826 447.635 51.6165 447.247 52.5824C446.858 53.5483 446.664 54.7178 446.664 56.0909C446.664 57.483 446.854 58.6667 447.233 59.642C447.621 60.6174 448.165 61.3608 448.866 61.8722C449.567 62.3835 450.386 62.6392 451.323 62.6392C452.015 62.6392 452.635 62.4972 453.184 62.2131C453.743 61.929 454.202 61.517 454.562 60.9773C454.931 60.428 455.173 59.7699 455.287 59.0028H460.997C460.902 60.6695 460.447 62.1373 459.633 63.4062C458.828 64.6657 457.715 65.6506 456.295 66.3608C454.875 67.071 453.194 67.4261 451.252 67.4261ZM477.255 67V49.9261H473.164C472.056 49.9261 471.213 50.1818 470.636 50.6932C470.058 51.2045 469.774 51.8106 469.784 52.5114C469.774 53.2216 470.049 53.8229 470.607 54.3153C471.176 54.7983 472.009 55.0398 473.107 55.0398H479.272V59.1307H473.107C471.242 59.1307 469.627 58.8466 468.264 58.2784C466.9 57.7102 465.849 56.9195 465.11 55.9062C464.372 54.8835 464.007 53.6951 464.016 52.3409C464.007 50.9205 464.372 49.6752 465.11 48.6051C465.849 47.5256 466.905 46.6875 468.278 46.0909C469.66 45.4848 471.289 45.1818 473.164 45.1818H482.894V67H477.255ZM463.391 67L469.457 55.6364H475.238L469.187 67H463.391ZM505.912 67.4261C503.677 67.4261 501.755 66.9527 500.145 66.0057C498.544 65.0492 497.313 63.7235 496.452 62.0284C495.599 60.3333 495.173 58.3826 495.173 56.1761C495.173 53.9413 495.604 51.9811 496.466 50.2955C497.337 48.6004 498.573 47.2794 500.173 46.3324C501.774 45.3759 503.677 44.8977 505.883 44.8977C507.787 44.8977 509.453 45.2434 510.883 45.9347C512.313 46.6259 513.445 47.5966 514.278 48.8466C515.112 50.0966 515.571 51.5644 515.656 53.25H509.946C509.785 52.161 509.359 51.285 508.667 50.6222C507.986 49.9498 507.091 49.6136 505.983 49.6136C505.045 49.6136 504.226 49.8693 503.525 50.3807C502.834 50.8826 502.294 51.6165 501.906 52.5824C501.518 53.5483 501.324 54.7178 501.324 56.0909C501.324 57.483 501.513 58.6667 501.892 59.642C502.28 60.6174 502.825 61.3608 503.525 61.8722C504.226 62.3835 505.045 62.6392 505.983 62.6392C506.674 62.6392 507.294 62.4972 507.844 62.2131C508.402 61.929 508.862 61.517 509.221 60.9773C509.591 60.428 509.832 59.7699 509.946 59.0028H515.656C515.561 60.6695 515.107 62.1373 514.292 63.4062C513.488 64.6657 512.375 65.6506 510.954 66.3608C509.534 67.071 507.853 67.4261 505.912 67.4261ZM529.074 67.4261C526.829 67.4261 524.897 66.9716 523.278 66.0625C521.668 65.1439 520.428 63.8466 519.557 62.1705C518.685 60.4848 518.25 58.4915 518.25 56.1903C518.25 53.946 518.685 51.9763 519.557 50.2812C520.428 48.5862 521.654 47.2652 523.236 46.3182C524.826 45.3712 526.692 44.8977 528.832 44.8977C530.271 44.8977 531.611 45.1297 532.852 45.5938C534.102 46.0483 535.191 46.7348 536.119 47.6534C537.057 48.572 537.786 49.7273 538.307 51.1193C538.827 52.5019 539.088 54.1212 539.088 55.9773V57.6392H520.664V53.8892H533.392C533.392 53.018 533.202 52.2462 532.824 51.5739C532.445 50.9015 531.919 50.3759 531.247 49.9972C530.584 49.6089 529.812 49.4148 528.932 49.4148C528.013 49.4148 527.199 49.6278 526.488 50.054C525.788 50.4706 525.238 51.0341 524.841 51.7443C524.443 52.4451 524.239 53.2263 524.23 54.0881V57.6534C524.23 58.733 524.429 59.6657 524.826 60.4517C525.234 61.2377 525.807 61.8438 526.545 62.2699C527.284 62.696 528.16 62.9091 529.173 62.9091C529.845 62.9091 530.461 62.8144 531.02 62.625C531.578 62.4356 532.057 62.1515 532.454 61.7727C532.852 61.3939 533.155 60.9299 533.363 60.3807L538.96 60.75C538.676 62.0947 538.093 63.2689 537.213 64.2727C536.342 65.267 535.215 66.0436 533.832 66.6023C532.459 67.1515 530.873 67.4261 529.074 67.4261ZM542.637 67V45.1818H548.688V53.6477H550.392L556.33 45.1818H563.432L555.719 56.0057L563.517 67H556.33L550.946 59.2585H548.688V67H542.637ZM565.674 75.1818V45.1818H571.64V48.8466H571.91C572.175 48.2595 572.559 47.6629 573.061 47.0568C573.572 46.4413 574.235 45.9299 575.049 45.5227C575.873 45.1061 576.896 44.8977 578.117 44.8977C579.708 44.8977 581.176 45.3144 582.521 46.1477C583.865 46.9716 584.94 48.2169 585.745 49.8835C586.55 51.5407 586.953 53.6193 586.953 56.1193C586.953 58.553 586.56 60.608 585.774 62.2841C584.997 63.9508 583.936 65.215 582.592 66.0767C581.257 66.929 579.76 67.3551 578.103 67.3551C576.929 67.3551 575.93 67.161 575.106 66.7727C574.292 66.3845 573.624 65.8968 573.103 65.3097C572.582 64.7131 572.185 64.1117 571.91 63.5057H571.725V75.1818H565.674ZM571.597 56.0909C571.597 57.3883 571.777 58.5199 572.137 59.4858C572.497 60.4517 573.018 61.2045 573.7 61.7443C574.382 62.2746 575.21 62.5398 576.186 62.5398C577.17 62.5398 578.004 62.2699 578.686 61.7301C579.367 61.1809 579.883 60.4233 580.234 59.4574C580.594 58.482 580.774 57.3598 580.774 56.0909C580.774 54.8314 580.598 53.7235 580.248 52.767C579.898 51.8106 579.382 51.0625 578.7 50.5227C578.018 49.983 577.18 49.7131 576.186 49.7131C575.201 49.7131 574.367 49.9735 573.686 50.4943C573.013 51.0152 572.497 51.7538 572.137 52.7102C571.777 53.6667 571.597 54.7936 571.597 56.0909ZM600.53 67.4261C598.286 67.4261 596.354 66.9716 594.734 66.0625C593.125 65.1439 591.884 63.8466 591.013 62.1705C590.142 60.4848 589.706 58.4915 589.706 56.1903C589.706 53.946 590.142 51.9763 591.013 50.2812C591.884 48.5862 593.11 47.2652 594.692 46.3182C596.283 45.3712 598.148 44.8977 600.288 44.8977C601.728 44.8977 603.068 45.1297 604.308 45.5938C605.558 46.0483 606.647 46.7348 607.575 47.6534C608.513 48.572 609.242 49.7273 609.763 51.1193C610.284 52.5019 610.544 54.1212 610.544 55.9773V57.6392H592.121V53.8892H604.848C604.848 53.018 604.659 52.2462 604.28 51.5739C603.901 50.9015 603.375 50.3759 602.703 49.9972C602.04 49.6089 601.268 49.4148 600.388 49.4148C599.469 49.4148 598.655 49.6278 597.945 50.054C597.244 50.4706 596.695 51.0341 596.297 51.7443C595.899 52.4451 595.696 53.2263 595.686 54.0881V57.6534C595.686 58.733 595.885 59.6657 596.283 60.4517C596.69 61.2377 597.263 61.8438 598.001 62.2699C598.74 62.696 599.616 62.9091 600.629 62.9091C601.302 62.9091 601.917 62.8144 602.476 62.625C603.035 62.4356 603.513 62.1515 603.911 61.7727C604.308 61.3939 604.611 60.9299 604.82 60.3807L610.416 60.75C610.132 62.0947 609.55 63.2689 608.669 64.2727C607.798 65.267 606.671 66.0436 605.288 66.6023C603.915 67.1515 602.329 67.4261 600.53 67.4261ZM612.41 49.9403V45.1818H632.182V49.9403H625.151V67H619.384V49.9403H612.41ZM641.232 59.017L649.087 45.1818H655.053V67H649.286V53.1222L641.459 67H635.451V45.1818H641.232V59.017ZM687.296 45.1818V67H681.558V45.1818H687.296ZM684.498 54.7557V59.5284C684.034 59.7367 683.456 59.9356 682.765 60.125C682.074 60.3049 681.349 60.4517 680.592 60.5653C679.834 60.679 679.124 60.7358 678.461 60.7358C675.327 60.7358 672.86 60.0919 671.061 58.804C669.261 57.5066 668.362 55.4375 668.362 52.5966V45.1534H674.072V52.5966C674.072 53.4394 674.214 54.107 674.498 54.5994C674.792 55.0919 675.256 55.447 675.89 55.6648C676.534 55.8731 677.391 55.9773 678.461 55.9773C679.455 55.9773 680.431 55.8731 681.387 55.6648C682.344 55.4564 683.381 55.1534 684.498 54.7557ZM701.452 67.4261C699.246 67.4261 697.338 66.9574 695.728 66.0199C694.128 65.0729 692.892 63.7566 692.021 62.071C691.149 60.3759 690.714 58.411 690.714 56.1761C690.714 53.9223 691.149 51.9527 692.021 50.267C692.892 48.572 694.128 47.2557 695.728 46.3182C697.338 45.3712 699.246 44.8977 701.452 44.8977C703.659 44.8977 705.562 45.3712 707.163 46.3182C708.772 47.2557 710.013 48.572 710.884 50.267C711.755 51.9527 712.191 53.9223 712.191 56.1761C712.191 58.411 711.755 60.3759 710.884 62.071C710.013 63.7566 708.772 65.0729 707.163 66.0199C705.562 66.9574 703.659 67.4261 701.452 67.4261ZM701.481 62.7386C702.485 62.7386 703.323 62.4545 703.995 61.8864C704.667 61.3087 705.174 60.5227 705.515 59.5284C705.865 58.5341 706.04 57.4025 706.04 56.1335C706.04 54.8646 705.865 53.733 705.515 52.7386C705.174 51.7443 704.667 50.9583 703.995 50.3807C703.323 49.803 702.485 49.5142 701.481 49.5142C700.468 49.5142 699.615 49.803 698.924 50.3807C698.242 50.9583 697.726 51.7443 697.376 52.7386C697.035 53.733 696.864 54.8646 696.864 56.1335C696.864 57.4025 697.035 58.5341 697.376 59.5284C697.726 60.5227 698.242 61.3087 698.924 61.8864C699.615 62.4545 700.468 62.7386 701.481 62.7386ZM714.447 67L714.419 62.1989H715.143C715.655 62.1989 716.095 62.0758 716.464 61.8295C716.843 61.5739 717.156 61.1619 717.402 60.5938C717.648 60.0256 717.842 59.2727 717.984 58.3352C718.126 57.3883 718.221 56.2235 718.268 54.8409L718.623 45.1818H735.214V67H729.447V49.9403H724.064L723.723 56.6023C723.638 58.4299 723.415 60.0019 723.055 61.3182C722.705 62.6345 722.217 63.714 721.592 64.5568C720.967 65.3902 720.214 66.0057 719.334 66.4034C718.453 66.8011 717.43 67 716.265 67H714.447ZM749.363 67.4261C747.157 67.4261 745.249 66.9574 743.639 66.0199C742.039 65.0729 740.803 63.7566 739.932 62.071C739.06 60.3759 738.625 58.411 738.625 56.1761C738.625 53.9223 739.06 51.9527 739.932 50.267C740.803 48.572 742.039 47.2557 743.639 46.3182C745.249 45.3712 747.157 44.8977 749.363 44.8977C751.57 44.8977 753.473 45.3712 755.074 46.3182C756.683 47.2557 757.924 48.572 758.795 50.267C759.666 51.9527 760.102 53.9223 760.102 56.1761C760.102 58.411 759.666 60.3759 758.795 62.071C757.924 63.7566 756.683 65.0729 755.074 66.0199C753.473 66.9574 751.57 67.4261 749.363 67.4261ZM749.392 62.7386C750.396 62.7386 751.234 62.4545 751.906 61.8864C752.578 61.3087 753.085 60.5227 753.426 59.5284C753.776 58.5341 753.951 57.4025 753.951 56.1335C753.951 54.8646 753.776 53.733 753.426 52.7386C753.085 51.7443 752.578 50.9583 751.906 50.3807C751.234 49.803 750.396 49.5142 749.392 49.5142C748.379 49.5142 747.526 49.803 746.835 50.3807C746.153 50.9583 745.637 51.7443 745.287 52.7386C744.946 53.733 744.775 54.8646 744.775 56.1335C744.775 57.4025 744.946 58.5341 745.287 59.5284C745.637 60.5227 746.153 61.3087 746.835 61.8864C747.526 62.4545 748.379 62.7386 749.392 62.7386ZM763.637 67V45.1818H772.941C775.63 45.1818 777.756 45.6932 779.318 46.7159C780.881 47.7386 781.662 49.1922 781.662 51.0767C781.662 52.2604 781.222 53.2453 780.341 54.0312C779.46 54.8172 778.239 55.3475 776.676 55.6222C777.983 55.7169 779.096 56.0152 780.014 56.517C780.943 57.0095 781.648 57.6487 782.131 58.4347C782.623 59.2206 782.87 60.0919 782.87 61.0483C782.87 62.2888 782.538 63.3542 781.875 64.2443C781.222 65.1345 780.261 65.8163 778.992 66.2898C777.732 66.7633 776.193 67 774.375 67H763.637ZM769.276 62.4688H774.375C775.218 62.4688 775.876 62.2699 776.35 61.8722C776.833 61.465 777.074 60.911 777.074 60.2102C777.074 59.4337 776.833 58.8229 776.35 58.3778C775.876 57.9328 775.218 57.7102 774.375 57.7102H769.276V62.4688ZM769.276 54.1591H773.068C773.675 54.1591 774.191 54.0739 774.617 53.9034C775.052 53.7235 775.384 53.4678 775.611 53.1364C775.848 52.8049 775.966 52.4119 775.966 51.9574C775.966 51.285 775.696 50.7595 775.157 50.3807C774.617 50.0019 773.878 49.8125 772.941 49.8125H769.276V54.1591ZM786.284 67V45.1818H792.335V67H786.284ZM789.323 42.3693C788.424 42.3693 787.652 42.071 787.008 41.4744C786.374 40.8684 786.056 40.1439 786.056 39.3011C786.056 38.4678 786.374 37.7528 787.008 37.1562C787.652 36.5502 788.424 36.2472 789.323 36.2472C790.223 36.2472 790.99 36.5502 791.624 37.1562C792.268 37.7528 792.59 38.4678 792.59 39.3011C792.59 40.1439 792.268 40.8684 791.624 41.4744C790.99 42.071 790.223 42.3693 789.323 42.3693ZM815.717 45.1818V67H809.978V45.1818H815.717ZM812.918 54.7557V59.5284C812.454 59.7367 811.877 59.9356 811.185 60.125C810.494 60.3049 809.77 60.4517 809.012 60.5653C808.254 60.679 807.544 60.7358 806.881 60.7358C803.747 60.7358 801.28 60.0919 799.481 58.804C797.682 57.5066 796.782 55.4375 796.782 52.5966V45.1534H802.492V52.5966C802.492 53.4394 802.634 54.107 802.918 54.5994C803.212 55.0919 803.676 55.447 804.31 55.6648C804.954 55.8731 805.811 55.9773 806.881 55.9773C807.876 55.9773 808.851 55.8731 809.808 55.6648C810.764 55.4564 811.801 55.1534 812.918 54.7557ZM829.873 67.4261C827.666 67.4261 825.758 66.9574 824.148 66.0199C822.548 65.0729 821.312 63.7566 820.441 62.071C819.57 60.3759 819.134 58.411 819.134 56.1761C819.134 53.9223 819.57 51.9527 820.441 50.267C821.312 48.572 822.548 47.2557 824.148 46.3182C825.758 45.3712 827.666 44.8977 829.873 44.8977C832.079 44.8977 833.983 45.3712 835.583 46.3182C837.193 47.2557 838.433 48.572 839.305 50.267C840.176 51.9527 840.611 53.9223 840.611 56.1761C840.611 58.411 840.176 60.3759 839.305 62.071C838.433 63.7566 837.193 65.0729 835.583 66.0199C833.983 66.9574 832.079 67.4261 829.873 67.4261ZM829.901 62.7386C830.905 62.7386 831.743 62.4545 832.415 61.8864C833.088 61.3087 833.594 60.5227 833.935 59.5284C834.286 58.5341 834.461 57.4025 834.461 56.1335C834.461 54.8646 834.286 53.733 833.935 52.7386C833.594 51.7443 833.088 50.9583 832.415 50.3807C831.743 49.803 830.905 49.5142 829.901 49.5142C828.888 49.5142 828.036 49.803 827.344 50.3807C826.662 50.9583 826.146 51.7443 825.796 52.7386C825.455 53.733 825.285 54.8646 825.285 56.1335C825.285 57.4025 825.455 58.5341 825.796 59.5284C826.146 60.5227 826.662 61.3087 827.344 61.8864C828.036 62.4545 828.888 62.7386 829.901 62.7386ZM844.146 67V45.1818H850.197V67H844.146ZM842.853 42.1989C842.039 42.1989 841.338 41.9148 840.751 41.3466C840.164 40.7689 839.87 40.0871 839.87 39.3011C839.87 38.4962 840.164 37.8144 840.751 37.2557C841.338 36.697 842.039 36.4176 842.853 36.4176C843.677 36.4176 844.373 36.697 844.941 37.2557C845.519 37.8144 845.808 38.4962 845.808 39.3011C845.808 40.0871 845.519 40.7689 844.941 41.3466C844.373 41.9148 843.677 42.1989 842.853 42.1989ZM851.547 42.1989C850.732 42.1989 850.031 41.9148 849.444 41.3466C848.857 40.7689 848.564 40.0871 848.564 39.3011C848.564 38.4962 848.857 37.8144 849.444 37.2557C850.031 36.697 850.732 36.4176 851.547 36.4176C852.37 36.4176 853.066 36.697 853.635 37.2557C854.212 37.8144 854.501 38.4962 854.501 39.3011C854.501 40.0871 854.212 40.7689 853.635 41.3466C853.066 41.9148 852.37 42.1989 851.547 42.1989ZM863.502 67V45.1818H882.579V67H876.798V49.9403H869.213V67H863.502ZM896.866 67.4261C894.632 67.4261 892.709 66.9527 891.099 66.0057C889.499 65.0492 888.268 63.7235 887.406 62.0284C886.554 60.3333 886.128 58.3826 886.128 56.1761C886.128 53.9413 886.559 51.9811 887.42 50.2955C888.292 48.6004 889.527 47.2794 891.128 46.3324C892.728 45.3759 894.632 44.8977 896.838 44.8977C898.741 44.8977 900.408 45.2434 901.838 45.9347C903.268 46.6259 904.4 47.5966 905.233 48.8466C906.066 50.0966 906.526 51.5644 906.611 53.25H900.901C900.74 52.161 900.313 51.285 899.622 50.6222C898.94 49.9498 898.045 49.6136 896.938 49.6136C896 49.6136 895.181 49.8693 894.48 50.3807C893.789 50.8826 893.249 51.6165 892.861 52.5824C892.473 53.5483 892.278 54.7178 892.278 56.0909C892.278 57.483 892.468 58.6667 892.847 59.642C893.235 60.6174 893.779 61.3608 894.48 61.8722C895.181 62.3835 896 62.6392 896.938 62.6392C897.629 62.6392 898.249 62.4972 898.798 62.2131C899.357 61.929 899.816 61.517 900.176 60.9773C900.545 60.428 900.787 59.7699 900.901 59.0028H906.611C906.516 60.6695 906.062 62.1373 905.247 63.4062C904.442 64.6657 903.33 65.6506 901.909 66.3608C900.489 67.071 898.808 67.4261 896.866 67.4261ZM915.866 59.017L923.721 45.1818H929.687V67H923.92V53.1222L916.094 67H910.085V45.1818H915.866V59.017ZM939.195 45.1818L943.201 52.8097L947.306 45.1818H953.513L947.192 56.0909L953.684 67H947.505L943.201 59.4574L938.968 67H932.718L939.195 56.0909L932.945 45.1818H939.195ZM965.784 67.4261C963.577 67.4261 961.669 66.9574 960.059 66.0199C958.459 65.0729 957.223 63.7566 956.352 62.071C955.481 60.3759 955.045 58.411 955.045 56.1761C955.045 53.9223 955.481 51.9527 956.352 50.267C957.223 48.572 958.459 47.2557 960.059 46.3182C961.669 45.3712 963.577 44.8977 965.784 44.8977C967.99 44.8977 969.894 45.3712 971.494 46.3182C973.104 47.2557 974.344 48.572 975.215 50.267C976.087 51.9527 976.522 53.9223 976.522 56.1761C976.522 58.411 976.087 60.3759 975.215 62.071C974.344 63.7566 973.104 65.0729 971.494 66.0199C969.894 66.9574 967.99 67.4261 965.784 67.4261ZM965.812 62.7386C966.816 62.7386 967.654 62.4545 968.326 61.8864C968.999 61.3087 969.505 60.5227 969.846 59.5284C970.197 58.5341 970.372 57.4025 970.372 56.1335C970.372 54.8646 970.197 53.733 969.846 52.7386C969.505 51.7443 968.999 50.9583 968.326 50.3807C967.654 49.803 966.816 49.5142 965.812 49.5142C964.799 49.5142 963.947 49.803 963.255 50.3807C962.573 50.9583 962.057 51.7443 961.707 52.7386C961.366 53.733 961.196 54.8646 961.196 56.1335C961.196 57.4025 961.366 58.5341 961.707 59.5284C962.057 60.5227 962.573 61.3087 963.255 61.8864C963.947 62.4545 964.799 62.7386 965.812 62.7386ZM978.779 67L978.75 62.1989H979.475C979.986 62.1989 980.426 62.0758 980.796 61.8295C981.174 61.5739 981.487 61.1619 981.733 60.5938C981.979 60.0256 982.173 59.2727 982.316 58.3352C982.458 57.3883 982.552 56.2235 982.6 54.8409L982.955 45.1818H999.546V67H993.779V49.9403H988.395L988.054 56.6023C987.969 58.4299 987.746 60.0019 987.387 61.3182C987.036 62.6345 986.548 63.714 985.923 64.5568C985.298 65.3902 984.546 66.0057 983.665 66.4034C982.784 66.8011 981.762 67 980.597 67H978.779ZM1013.69 67.4261C1011.49 67.4261 1009.58 66.9574 1007.97 66.0199C1006.37 65.0729 1005.13 63.7566 1004.26 62.071C1003.39 60.3759 1002.96 58.411 1002.96 56.1761C1002.96 53.9223 1003.39 51.9527 1004.26 50.267C1005.13 48.572 1006.37 47.2557 1007.97 46.3182C1009.58 45.3712 1011.49 44.8977 1013.69 44.8977C1015.9 44.8977 1017.8 45.3712 1019.4 46.3182C1021.01 47.2557 1022.26 48.572 1023.13 50.267C1024 51.9527 1024.43 53.9223 1024.43 56.1761C1024.43 58.411 1024 60.3759 1023.13 62.071C1022.26 63.7566 1021.01 65.0729 1019.4 66.0199C1017.8 66.9574 1015.9 67.4261 1013.69 67.4261ZM1013.72 62.7386C1014.73 62.7386 1015.56 62.4545 1016.24 61.8864C1016.91 61.3087 1017.42 60.5227 1017.76 59.5284C1018.11 58.5341 1018.28 57.4025 1018.28 56.1335C1018.28 54.8646 1018.11 53.733 1017.76 52.7386C1017.42 51.7443 1016.91 50.9583 1016.24 50.3807C1015.56 49.803 1014.73 49.5142 1013.72 49.5142C1012.71 49.5142 1011.86 49.803 1011.17 50.3807C1010.48 50.9583 1009.97 51.7443 1009.62 52.7386C1009.28 53.733 1009.11 54.8646 1009.11 56.1335C1009.11 57.4025 1009.28 58.5341 1009.62 59.5284C1009.97 60.5227 1010.48 61.3087 1011.17 61.8864C1011.86 62.4545 1012.71 62.7386 1013.72 62.7386ZM1042.91 45.1818V49.9403H1033.85V67H1027.97V45.1818H1042.91ZM1046.2 67V45.1818H1052.25V67H1046.2ZM1049.24 42.3693C1048.34 42.3693 1047.57 42.071 1046.93 41.4744C1046.29 40.8684 1045.97 40.1439 1045.97 39.3011C1045.97 38.4678 1046.29 37.7528 1046.93 37.1562C1047.57 36.5502 1048.34 36.2472 1049.24 36.2472C1050.14 36.2472 1050.91 36.5502 1051.54 37.1562C1052.19 37.7528 1052.51 38.4678 1052.51 39.3011C1052.51 40.1439 1052.19 40.8684 1051.54 41.4744C1050.91 42.071 1050.14 42.3693 1049.24 42.3693ZM1058.3 67V45.1818H1064.35V67H1058.3ZM1057.01 42.1989C1056.19 42.1989 1055.49 41.9148 1054.91 41.3466C1054.32 40.7689 1054.03 40.0871 1054.03 39.3011C1054.03 38.4962 1054.32 37.8144 1054.91 37.2557C1055.49 36.697 1056.19 36.4176 1057.01 36.4176C1057.83 36.4176 1058.53 36.697 1059.1 37.2557C1059.67 37.8144 1059.96 38.4962 1059.96 39.3011C1059.96 40.0871 1059.67 40.7689 1059.1 41.3466C1058.53 41.9148 1057.83 42.1989 1057.01 42.1989ZM1065.7 42.1989C1064.89 42.1989 1064.19 41.9148 1063.6 41.3466C1063.01 40.7689 1062.72 40.0871 1062.72 39.3011C1062.72 38.4962 1063.01 37.8144 1063.6 37.2557C1064.19 36.697 1064.89 36.4176 1065.7 36.4176C1066.53 36.4176 1067.22 36.697 1067.79 37.2557C1068.37 37.8144 1068.66 38.4962 1068.66 39.3011C1068.66 40.0871 1068.37 40.7689 1067.79 41.3466C1067.22 41.9148 1066.53 42.1989 1065.7 42.1989Z" fill="#EC8812"/>
        <path d="M1152.3 44.4545V59H1149.69V46.642H1143.33V59H1140.71V44.4545H1152.3ZM1155.14 63.0909V48.0909H1157.67V49.8949H1157.82C1157.95 49.6297 1158.14 49.348 1158.38 49.0497C1158.62 48.7467 1158.95 48.4886 1159.36 48.2756C1159.77 48.0578 1160.3 47.9489 1160.94 47.9489C1161.78 47.9489 1162.54 48.1643 1163.22 48.5952C1163.9 49.0213 1164.44 49.6534 1164.84 50.4915C1165.24 51.3248 1165.44 52.3475 1165.44 53.5597C1165.44 54.7576 1165.24 55.7756 1164.85 56.6136C1164.46 57.4517 1163.92 58.0909 1163.24 58.5312C1162.57 58.9716 1161.8 59.1918 1160.94 59.1918C1160.32 59.1918 1159.8 59.0876 1159.39 58.8793C1158.98 58.6709 1158.64 58.42 1158.39 58.1264C1158.15 57.8281 1157.96 57.5464 1157.82 57.2812H1157.71V63.0909H1155.14ZM1157.66 53.5455C1157.66 54.2509 1157.76 54.8688 1157.96 55.3991C1158.16 55.9295 1158.45 56.3437 1158.83 56.642C1159.22 56.9356 1159.68 57.0824 1160.23 57.0824C1160.79 57.0824 1161.27 56.9309 1161.65 56.6278C1162.04 56.3201 1162.33 55.901 1162.52 55.3707C1162.72 54.8357 1162.82 54.2273 1162.82 53.5455C1162.82 52.8684 1162.72 52.267 1162.53 51.7415C1162.33 51.2159 1162.04 50.804 1161.66 50.5057C1161.28 50.2074 1160.8 50.0582 1160.23 50.0582C1159.68 50.0582 1159.21 50.2027 1158.83 50.4915C1158.44 50.7803 1158.15 51.1851 1157.95 51.706C1157.76 52.2268 1157.66 52.84 1157.66 53.5455ZM1169.92 55.5199L1174.29 48.0909H1176.93V59H1174.44V51.5639L1170.09 59H1167.44V48.0909H1169.92V55.5199ZM1184.47 52.7784V54.4759H1180.03V52.7784H1184.47ZM1188.42 51.5284L1186 51.848C1185.86 51.3319 1185.62 50.9058 1185.26 50.5696C1184.9 50.2287 1184.39 50.0582 1183.74 50.0582C1183.17 50.0582 1182.68 50.2027 1182.28 50.4915C1181.89 50.7803 1181.59 51.1875 1181.39 51.7131C1181.18 52.2339 1181.08 52.8447 1181.08 53.5455C1181.08 54.2509 1181.18 54.8688 1181.38 55.3991C1181.58 55.9295 1181.88 56.3437 1182.27 56.642C1182.67 56.9356 1183.16 57.0824 1183.74 57.0824C1184.14 57.0824 1184.49 57.0137 1184.79 56.8764C1185.09 56.7344 1185.33 56.5402 1185.53 56.294C1185.73 56.0431 1185.87 55.7519 1185.96 55.4205L1188.4 55.7259C1188.27 56.4124 1187.99 57.0185 1187.57 57.544C1187.15 58.0649 1186.61 58.4744 1185.96 58.7727C1185.31 59.0663 1184.57 59.2131 1183.74 59.2131C1182.68 59.2131 1181.77 58.9716 1181 58.4886C1180.23 58.0057 1179.64 57.3381 1179.22 56.4858C1178.81 55.6335 1178.6 54.6534 1178.6 53.5455C1178.6 52.4517 1178.81 51.4858 1179.23 50.6477C1179.65 49.8049 1180.24 49.1444 1181.01 48.6662C1181.78 48.188 1182.69 47.9489 1183.74 47.9489C1184.57 47.9489 1185.31 48.098 1185.96 48.3963C1186.62 48.6899 1187.16 49.1042 1187.59 49.6392C1188.02 50.1742 1188.3 50.804 1188.42 51.5284ZM1189.53 62.1676V56.8835H1190.4C1190.63 56.7036 1190.82 56.4598 1190.98 56.152C1191.14 55.8395 1191.26 55.4725 1191.36 55.0511C1191.47 54.625 1191.55 54.1491 1191.62 53.6236C1191.69 53.0933 1191.75 52.5227 1191.8 51.9119L1192.11 48.0909H1199.99V56.8835H1201.68V62.1676H1199.2V59H1192.06V62.1676H1189.53ZM1193.04 56.8835H1197.54V50.1648H1194.34L1194.17 51.9119C1194.07 53.0672 1193.95 54.0568 1193.79 54.8807C1193.64 55.7045 1193.39 56.3722 1193.04 56.8835ZM1210.9 52.4801V54.5895H1205.09V52.4801H1210.9ZM1205.88 48.0909V59H1203.4V48.0909H1205.88ZM1212.58 48.0909V59H1210.11V48.0909H1212.58ZM1216.19 63.0909C1215.84 63.0909 1215.51 63.0625 1215.21 63.0057C1214.92 62.9536 1214.69 62.892 1214.51 62.821L1215.11 60.8182C1215.48 60.9271 1215.82 60.9792 1216.11 60.9744C1216.4 60.9697 1216.66 60.8774 1216.88 60.6974C1217.11 60.5223 1217.3 60.2287 1217.46 59.8168L1217.68 59.2273L1213.72 48.0909H1216.45L1218.96 56.3295H1219.08L1221.6 48.0909H1224.33L1219.97 60.321C1219.76 60.8987 1219.49 61.3935 1219.16 61.8054C1218.82 62.2221 1218.41 62.5393 1217.92 62.7571C1217.44 62.9796 1216.86 63.0909 1216.19 63.0909ZM1228.39 55.5199L1232.76 48.0909H1235.4V59H1232.92V51.5639L1228.56 59H1225.91V48.0909H1228.39V55.5199ZM1232.06 44.3409H1233.98C1233.98 45.1695 1233.68 45.8419 1233.08 46.358C1232.48 46.8693 1231.67 47.125 1230.65 47.125C1229.64 47.125 1228.83 46.8693 1228.23 46.358C1227.63 45.8419 1227.34 45.1695 1227.34 44.3409H1229.25C1229.25 44.6818 1229.36 44.9872 1229.56 45.2571C1229.78 45.5223 1230.14 45.6548 1230.65 45.6548C1231.15 45.6548 1231.51 45.5223 1231.72 45.2571C1231.94 44.992 1232.05 44.6866 1232.06 44.3409ZM1236.62 50.2003V48.0909H1246.17V50.2003H1242.64V59H1240.15V50.2003H1236.62ZM1252.39 59.2131C1251.3 59.2131 1250.36 58.9858 1249.56 58.5312C1248.77 58.072 1248.16 57.4233 1247.73 56.5852C1247.31 55.7424 1247.1 54.7505 1247.1 53.6094C1247.1 52.4872 1247.31 51.5024 1247.73 50.6548C1248.17 49.8026 1248.77 49.1397 1249.54 48.6662C1250.31 48.188 1251.22 47.9489 1252.26 47.9489C1252.93 47.9489 1253.57 48.0578 1254.16 48.2756C1254.76 48.4886 1255.29 48.8201 1255.75 49.2699C1256.22 49.7197 1256.58 50.2926 1256.85 50.9886C1257.11 51.6799 1257.24 52.5038 1257.24 53.4602V54.2486H1248.3V52.5156H1254.78C1254.78 52.0232 1254.67 51.5852 1254.46 51.2017C1254.25 50.8134 1253.96 50.508 1253.59 50.2855C1253.22 50.063 1252.79 49.9517 1252.29 49.9517C1251.77 49.9517 1251.31 50.0795 1250.91 50.3352C1250.51 50.5862 1250.2 50.9176 1249.98 51.3295C1249.76 51.7367 1249.65 52.1842 1249.64 52.6719V54.1847C1249.64 54.8191 1249.76 55.3636 1249.99 55.8182C1250.22 56.268 1250.55 56.6136 1250.97 56.8551C1251.38 57.0919 1251.87 57.2102 1252.43 57.2102C1252.8 57.2102 1253.14 57.1581 1253.44 57.054C1253.75 56.9451 1254.01 56.7865 1254.23 56.5781C1254.46 56.3698 1254.62 56.1117 1254.74 55.804L1257.14 56.0739C1256.99 56.7083 1256.7 57.2623 1256.27 57.7358C1255.85 58.2045 1255.31 58.5691 1254.65 58.8295C1253.99 59.0852 1253.24 59.2131 1252.39 59.2131ZM1263.98 59.2131C1262.89 59.2131 1261.95 58.974 1261.17 58.4957C1260.4 58.0175 1259.8 57.357 1259.38 56.5142C1258.96 55.6667 1258.75 54.6913 1258.75 53.5881C1258.75 52.4801 1258.96 51.5024 1259.39 50.6548C1259.82 49.8026 1260.42 49.1397 1261.19 48.6662C1261.98 48.188 1262.9 47.9489 1263.96 47.9489C1264.85 47.9489 1265.63 48.1122 1266.31 48.4389C1267 48.7609 1267.55 49.2178 1267.96 49.8097C1268.36 50.3968 1268.59 51.0833 1268.65 51.8693H1266.19C1266.09 51.3437 1265.86 50.9058 1265.48 50.5554C1265.11 50.2003 1264.62 50.0227 1264 50.0227C1263.47 50.0227 1263.01 50.1648 1262.61 50.4489C1262.22 50.7282 1261.91 51.1307 1261.68 51.6562C1261.47 52.1818 1261.36 52.8116 1261.36 53.5455C1261.36 54.2888 1261.47 54.928 1261.68 55.4631C1261.9 55.9934 1262.21 56.4029 1262.6 56.6918C1263 56.9759 1263.46 57.1179 1264 57.1179C1264.38 57.1179 1264.72 57.0469 1265.01 56.9048C1265.32 56.758 1265.57 56.5473 1265.77 56.2727C1265.98 55.9981 1266.12 55.6643 1266.19 55.2713H1268.65C1268.59 56.0431 1268.36 56.7273 1267.97 57.3239C1267.58 57.9157 1267.04 58.3797 1266.36 58.7159C1265.69 59.0473 1264.89 59.2131 1263.98 59.2131ZM1272.3 51.642H1275.52C1276.91 51.642 1277.99 51.9806 1278.75 52.6577C1279.51 53.3348 1279.9 54.2225 1279.9 55.321C1279.9 56.036 1279.72 56.6705 1279.38 57.2244C1279.04 57.7784 1278.54 58.214 1277.88 58.5312C1277.24 58.8438 1276.45 59 1275.52 59H1270.56V48.0909H1273.04V56.8906H1275.52C1276.08 56.8906 1276.54 56.7486 1276.9 56.4645C1277.26 56.1757 1277.44 55.8063 1277.44 55.3565C1277.44 54.883 1277.26 54.4972 1276.9 54.1989C1276.54 53.9006 1276.08 53.7514 1275.52 53.7514H1272.3V51.642ZM1285.7 62.1676V56.8835H1286.57C1286.8 56.7036 1286.99 56.4598 1287.15 56.152C1287.31 55.8395 1287.43 55.4725 1287.53 55.0511C1287.64 54.625 1287.72 54.1491 1287.79 53.6236C1287.85 53.0933 1287.91 52.5227 1287.97 51.9119L1288.28 48.0909H1296.16V56.8835H1297.85V62.1676H1295.37V59H1288.23V62.1676H1285.7ZM1289.21 56.8835H1293.7V50.1648H1290.51L1290.34 51.9119C1290.24 53.0672 1290.12 54.0568 1289.96 54.8807C1289.81 55.7045 1289.55 56.3722 1289.21 56.8835ZM1304.33 59.2131C1303.26 59.2131 1302.34 58.9787 1301.56 58.5099C1300.78 58.0412 1300.17 57.3854 1299.74 56.5426C1299.32 55.6998 1299.1 54.715 1299.1 53.5881C1299.1 52.4612 1299.32 51.474 1299.74 50.6264C1300.17 49.7789 1300.78 49.1207 1301.56 48.652C1302.34 48.1832 1303.26 47.9489 1304.33 47.9489C1305.4 47.9489 1306.32 48.1832 1307.1 48.652C1307.88 49.1207 1308.49 49.7789 1308.91 50.6264C1309.34 51.474 1309.56 52.4612 1309.56 53.5881C1309.56 54.715 1309.34 55.6998 1308.91 56.5426C1308.49 57.3854 1307.88 58.0412 1307.1 58.5099C1306.32 58.9787 1305.4 59.2131 1304.33 59.2131ZM1304.34 57.1534C1304.92 57.1534 1305.41 56.9948 1305.79 56.6776C1306.18 56.3556 1306.47 55.9247 1306.66 55.3849C1306.85 54.8452 1306.95 54.2438 1306.95 53.581C1306.95 52.9134 1306.85 52.3097 1306.66 51.7699C1306.47 51.2254 1306.18 50.7921 1305.79 50.4702C1305.41 50.1482 1304.92 49.9872 1304.34 49.9872C1303.75 49.9872 1303.26 50.1482 1302.87 50.4702C1302.48 50.7921 1302.19 51.2254 1301.99 51.7699C1301.8 52.3097 1301.71 52.9134 1301.71 53.581C1301.71 54.2438 1301.8 54.8452 1301.99 55.3849C1302.19 55.9247 1302.48 56.3556 1302.87 56.6776C1303.26 56.9948 1303.75 57.1534 1304.34 57.1534ZM1315.78 46.6634V44.4545H1327.38V46.6634H1322.88V59H1320.27V46.6634H1315.78ZM1332.55 59.2131C1331.46 59.2131 1330.51 58.9858 1329.72 58.5312C1328.93 58.072 1328.32 57.4233 1327.89 56.5852C1327.47 55.7424 1327.25 54.7505 1327.25 53.6094C1327.25 52.4872 1327.47 51.5024 1327.89 50.6548C1328.32 49.8026 1328.92 49.1397 1329.7 48.6662C1330.47 48.188 1331.37 47.9489 1332.42 47.9489C1333.09 47.9489 1333.72 48.0578 1334.32 48.2756C1334.92 48.4886 1335.45 48.8201 1335.91 49.2699C1336.37 49.7197 1336.74 50.2926 1337 50.9886C1337.27 51.6799 1337.4 52.5038 1337.4 53.4602V54.2486H1328.46V52.5156H1334.94C1334.93 52.0232 1334.83 51.5852 1334.62 51.2017C1334.41 50.8134 1334.12 50.508 1333.74 50.2855C1333.38 50.063 1332.94 49.9517 1332.45 49.9517C1331.93 49.9517 1331.46 50.0795 1331.07 50.3352C1330.67 50.5862 1330.36 50.9176 1330.14 51.3295C1329.92 51.7367 1329.81 52.1842 1329.8 52.6719V54.1847C1329.8 54.8191 1329.92 55.3636 1330.15 55.8182C1330.38 56.268 1330.71 56.6136 1331.12 56.8551C1331.54 57.0919 1332.03 57.2102 1332.59 57.2102C1332.96 57.2102 1333.3 57.1581 1333.6 57.054C1333.91 56.9451 1334.17 56.7865 1334.39 56.5781C1334.61 56.3698 1334.78 56.1117 1334.9 55.804L1337.3 56.0739C1337.14 56.7083 1336.86 57.2623 1336.43 57.7358C1336.01 58.2045 1335.47 58.5691 1334.81 58.8295C1334.15 59.0852 1333.4 59.2131 1332.55 59.2131ZM1341.95 44.4545V59H1339.38V44.4545H1341.95ZM1349.22 59.2131C1348.13 59.2131 1347.18 58.9858 1346.39 58.5312C1345.6 58.072 1344.99 57.4233 1344.56 56.5852C1344.14 55.7424 1343.92 54.7505 1343.92 53.6094C1343.92 52.4872 1344.14 51.5024 1344.56 50.6548C1344.99 49.8026 1345.59 49.1397 1346.37 48.6662C1347.14 48.188 1348.05 47.9489 1349.09 47.9489C1349.76 47.9489 1350.39 48.0578 1350.99 48.2756C1351.59 48.4886 1352.12 48.8201 1352.58 49.2699C1353.05 49.7197 1353.41 50.2926 1353.67 50.9886C1353.94 51.6799 1354.07 52.5038 1354.07 53.4602V54.2486H1345.13V52.5156H1351.61C1351.6 52.0232 1351.5 51.5852 1351.29 51.2017C1351.08 50.8134 1350.79 50.508 1350.41 50.2855C1350.05 50.063 1349.61 49.9517 1349.12 49.9517C1348.6 49.9517 1348.14 50.0795 1347.74 50.3352C1347.34 50.5862 1347.03 50.9176 1346.81 51.3295C1346.59 51.7367 1346.48 52.1842 1346.47 52.6719V54.1847C1346.47 54.8191 1346.59 55.3636 1346.82 55.8182C1347.05 56.268 1347.38 56.6136 1347.79 56.8551C1348.21 57.0919 1348.7 57.2102 1349.26 57.2102C1349.63 57.2102 1349.97 57.1581 1350.27 57.054C1350.58 56.9451 1350.84 56.7865 1351.06 56.5781C1351.28 56.3698 1351.45 56.1117 1351.57 55.804L1353.97 56.0739C1353.81 56.7083 1353.53 57.2623 1353.1 57.7358C1352.68 58.2045 1352.14 58.5691 1351.48 58.8295C1350.82 59.0852 1350.07 59.2131 1349.22 59.2131ZM1360.79 63.3182C1359.87 63.3182 1359.08 63.1927 1358.41 62.9418C1357.75 62.6955 1357.22 62.3641 1356.81 61.9474C1356.41 61.5308 1356.13 61.0691 1355.98 60.5625L1358.29 60.0014C1358.4 60.2145 1358.55 60.4252 1358.75 60.6335C1358.95 60.8466 1359.21 61.0218 1359.55 61.1591C1359.89 61.3011 1360.32 61.3722 1360.83 61.3722C1361.56 61.3722 1362.17 61.1946 1362.65 60.8395C1363.12 60.4891 1363.36 59.9115 1363.36 59.1065V57.0398H1363.24C1363.1 57.3049 1362.91 57.5772 1362.65 57.8565C1362.4 58.1359 1362.07 58.3703 1361.65 58.5597C1361.24 58.7491 1360.72 58.8438 1360.1 58.8438C1359.26 58.8438 1358.5 58.6473 1357.82 58.2543C1357.14 57.8565 1356.6 57.2647 1356.2 56.4787C1355.8 55.688 1355.6 54.6984 1355.6 53.5099C1355.6 52.312 1355.8 51.3011 1356.2 50.4773C1356.6 49.6487 1357.14 49.0213 1357.82 48.5952C1358.5 48.1643 1359.26 47.9489 1360.1 47.9489C1360.74 47.9489 1361.27 48.0578 1361.68 48.2756C1362.1 48.4886 1362.43 48.7467 1362.67 49.0497C1362.92 49.348 1363.11 49.6297 1363.24 49.8949H1363.38V48.0909H1365.91V59.1776C1365.91 60.1103 1365.69 60.8821 1365.25 61.4929C1364.8 62.1037 1364.19 62.5606 1363.42 62.8636C1362.65 63.1667 1361.77 63.3182 1360.79 63.3182ZM1360.81 56.8267C1361.36 56.8267 1361.82 56.6941 1362.21 56.429C1362.59 56.1638 1362.88 55.7827 1363.08 55.2855C1363.28 54.7884 1363.38 54.1918 1363.38 53.4957C1363.38 52.8092 1363.28 52.2079 1363.08 51.6918C1362.88 51.1757 1362.6 50.7756 1362.21 50.4915C1361.83 50.2027 1361.37 50.0582 1360.81 50.0582C1360.24 50.0582 1359.76 50.2074 1359.38 50.5057C1359 50.804 1358.71 51.2135 1358.51 51.7344C1358.32 52.2505 1358.22 52.8376 1358.22 53.4957C1358.22 54.1634 1358.32 54.7481 1358.51 55.25C1358.71 55.7472 1359 56.1354 1359.39 56.4148C1359.77 56.6894 1360.25 56.8267 1360.81 56.8267ZM1368.35 59V48.0909H1370.84V49.9091H1370.95C1371.15 49.2794 1371.49 48.794 1371.98 48.4531C1372.46 48.1075 1373.02 47.9347 1373.65 47.9347C1373.79 47.9347 1373.95 47.9418 1374.12 47.956C1374.3 47.9654 1374.45 47.982 1374.57 48.0057V50.3707C1374.46 50.3329 1374.29 50.2997 1374.05 50.2713C1373.82 50.2382 1373.59 50.2216 1373.38 50.2216C1372.91 50.2216 1372.49 50.3234 1372.11 50.527C1371.74 50.7259 1371.45 51.0028 1371.24 51.358C1371.03 51.7131 1370.92 52.1226 1370.92 52.5866V59H1368.35ZM1379.02 59.2202C1378.33 59.2202 1377.71 59.0971 1377.15 58.8509C1376.6 58.5999 1376.17 58.2306 1375.85 57.7429C1375.53 57.2552 1375.37 56.6539 1375.37 55.9389C1375.37 55.3234 1375.48 54.8144 1375.71 54.4119C1375.94 54.0095 1376.25 53.6875 1376.64 53.446C1377.03 53.2045 1377.48 53.0223 1377.97 52.8991C1378.47 52.7713 1378.98 52.679 1379.51 52.6222C1380.15 52.5559 1380.67 52.4967 1381.07 52.4446C1381.46 52.3878 1381.75 52.3026 1381.93 52.1889C1382.12 52.0705 1382.21 51.8883 1382.21 51.642V51.5994C1382.21 51.0644 1382.05 50.6501 1381.73 50.3565C1381.42 50.063 1380.96 49.9162 1380.36 49.9162C1379.73 49.9162 1379.23 50.0535 1378.86 50.3281C1378.5 50.6027 1378.25 50.9271 1378.13 51.3011L1375.73 50.9602C1375.92 50.2973 1376.23 49.7434 1376.66 49.2983C1377.1 48.8485 1377.63 48.5123 1378.26 48.2898C1378.89 48.0625 1379.59 47.9489 1380.35 47.9489C1380.87 47.9489 1381.4 48.0104 1381.92 48.1335C1382.44 48.2566 1382.92 48.4602 1383.35 48.7443C1383.78 49.0237 1384.12 49.4048 1384.38 49.8878C1384.65 50.3707 1384.78 50.9744 1384.78 51.6989V59H1382.31V57.5014H1382.22C1382.07 57.8045 1381.85 58.0885 1381.56 58.3537C1381.28 58.6141 1380.93 58.8248 1380.51 58.9858C1380.08 59.142 1379.59 59.2202 1379.02 59.2202ZM1379.69 57.331C1380.2 57.331 1380.65 57.2292 1381.03 57.0256C1381.41 56.8172 1381.7 56.5426 1381.9 56.2017C1382.11 55.8608 1382.22 55.4891 1382.22 55.0866V53.8011C1382.14 53.8674 1382 53.929 1381.81 53.9858C1381.62 54.0426 1381.4 54.0923 1381.17 54.1349C1380.93 54.1776 1380.69 54.2154 1380.46 54.2486C1380.23 54.2817 1380.03 54.3101 1379.86 54.3338C1379.48 54.3859 1379.13 54.4711 1378.83 54.5895C1378.53 54.7079 1378.29 54.8736 1378.11 55.0866C1377.94 55.295 1377.85 55.5649 1377.85 55.8963C1377.85 56.3698 1378.02 56.7273 1378.37 56.9688C1378.71 57.2102 1379.15 57.331 1379.69 57.331ZM1387.17 59V48.0909H1389.62V49.9446H1389.75C1389.98 49.3196 1390.36 48.8319 1390.88 48.4815C1391.41 48.1264 1392.03 47.9489 1392.76 47.9489C1393.5 47.9489 1394.12 48.1288 1394.63 48.4886C1395.14 48.8437 1395.5 49.3291 1395.71 49.9446H1395.82C1396.07 49.3385 1396.47 48.8556 1397.05 48.4957C1397.62 48.1312 1398.31 47.9489 1399.1 47.9489C1400.1 47.9489 1400.92 48.2661 1401.56 48.9006C1402.19 49.535 1402.51 50.4607 1402.51 51.6776V59H1399.93V52.0753C1399.93 51.3982 1399.75 50.9034 1399.39 50.5909C1399.03 50.2737 1398.59 50.1151 1398.07 50.1151C1397.45 50.1151 1396.96 50.3092 1396.61 50.6974C1396.27 51.081 1396.09 51.5805 1396.09 52.196V59H1393.57V51.9688C1393.57 51.4053 1393.4 50.9555 1393.06 50.6193C1392.73 50.2831 1392.28 50.1151 1391.74 50.1151C1391.37 50.1151 1391.03 50.2098 1390.73 50.3991C1390.43 50.5838 1390.19 50.8466 1390.01 51.1875C1389.83 51.5237 1389.74 51.9167 1389.74 52.3665V59H1387.17ZM1411.53 51.8835V54H1404.98V51.8835H1411.53ZM1414.03 59V48.0909H1416.6V52.4943H1417.54L1420.82 48.0909H1423.92L1419.88 53.446L1423.96 59H1420.85L1417.86 54.8878H1416.6V59H1414.03ZM1428.36 59.2202C1427.67 59.2202 1427.04 59.0971 1426.49 58.8509C1425.94 58.5999 1425.51 58.2306 1425.18 57.7429C1424.87 57.2552 1424.71 56.6539 1424.71 55.9389C1424.71 55.3234 1424.82 54.8144 1425.05 54.4119C1425.28 54.0095 1425.59 53.6875 1425.98 53.446C1426.37 53.2045 1426.81 53.0223 1427.31 52.8991C1427.8 52.7713 1428.32 52.679 1428.85 52.6222C1429.49 52.5559 1430.01 52.4967 1430.4 52.4446C1430.8 52.3878 1431.09 52.3026 1431.27 52.1889C1431.45 52.0705 1431.55 51.8883 1431.55 51.642V51.5994C1431.55 51.0644 1431.39 50.6501 1431.07 50.3565C1430.75 50.063 1430.3 49.9162 1429.7 49.9162C1429.07 49.9162 1428.57 50.0535 1428.2 50.3281C1427.84 50.6027 1427.59 50.9271 1427.46 51.3011L1425.06 50.9602C1425.25 50.2973 1425.56 49.7434 1426 49.2983C1426.44 48.8485 1426.97 48.5123 1427.6 48.2898C1428.23 48.0625 1428.92 47.9489 1429.69 47.9489C1430.21 47.9489 1430.73 48.0104 1431.26 48.1335C1431.78 48.2566 1432.25 48.4602 1432.68 48.7443C1433.11 49.0237 1433.46 49.4048 1433.72 49.8878C1433.99 50.3707 1434.12 50.9744 1434.12 51.6989V59H1431.65V57.5014H1431.56C1431.4 57.8045 1431.18 58.0885 1430.9 58.3537C1430.62 58.6141 1430.27 58.8248 1429.84 58.9858C1429.42 59.142 1428.93 59.2202 1428.36 59.2202ZM1429.03 57.331C1429.54 57.331 1429.99 57.2292 1430.37 57.0256C1430.75 56.8172 1431.04 56.5426 1431.24 56.2017C1431.45 55.8608 1431.55 55.4891 1431.55 55.0866V53.8011C1431.47 53.8674 1431.34 53.929 1431.14 53.9858C1430.95 54.0426 1430.74 54.0923 1430.5 54.1349C1430.27 54.1776 1430.03 54.2154 1429.8 54.2486C1429.57 54.2817 1429.37 54.3101 1429.2 54.3338C1428.81 54.3859 1428.47 54.4711 1428.17 54.5895C1427.86 54.7079 1427.62 54.8736 1427.45 55.0866C1427.27 55.295 1427.19 55.5649 1427.19 55.8963C1427.19 56.3698 1427.36 56.7273 1427.7 56.9688C1428.05 57.2102 1428.49 57.331 1429.03 57.331ZM1444 52.4801V54.5895H1438.19V52.4801H1444ZM1438.98 48.0909V59H1436.5V48.0909H1438.98ZM1445.68 48.0909V59H1443.21V48.0909H1445.68ZM1451.22 59.2202C1450.53 59.2202 1449.91 59.0971 1449.35 58.8509C1448.8 58.5999 1448.37 58.2306 1448.04 57.7429C1447.73 57.2552 1447.57 56.6539 1447.57 55.9389C1447.57 55.3234 1447.68 54.8144 1447.91 54.4119C1448.14 54.0095 1448.45 53.6875 1448.84 53.446C1449.23 53.2045 1449.68 53.0223 1450.17 52.8991C1450.67 52.7713 1451.18 52.679 1451.71 52.6222C1452.35 52.5559 1452.87 52.4967 1453.27 52.4446C1453.66 52.3878 1453.95 52.3026 1454.13 52.1889C1454.32 52.0705 1454.41 51.8883 1454.41 51.642V51.5994C1454.41 51.0644 1454.25 50.6501 1453.93 50.3565C1453.62 50.063 1453.16 49.9162 1452.56 49.9162C1451.93 49.9162 1451.43 50.0535 1451.06 50.3281C1450.7 50.6027 1450.45 50.9271 1450.32 51.3011L1447.92 50.9602C1448.11 50.2973 1448.43 49.7434 1448.86 49.2983C1449.3 48.8485 1449.83 48.5123 1450.46 48.2898C1451.09 48.0625 1451.79 47.9489 1452.55 47.9489C1453.07 47.9489 1453.6 48.0104 1454.12 48.1335C1454.64 48.2566 1455.11 48.4602 1455.54 48.7443C1455.98 49.0237 1456.32 49.4048 1456.58 49.8878C1456.85 50.3707 1456.98 50.9744 1456.98 51.6989V59H1454.51V57.5014H1454.42C1454.27 57.8045 1454.05 58.0885 1453.76 58.3537C1453.48 58.6141 1453.13 58.8248 1452.7 58.9858C1452.28 59.142 1451.79 59.2202 1451.22 59.2202ZM1451.89 57.331C1452.4 57.331 1452.85 57.2292 1453.23 57.0256C1453.61 56.8172 1453.9 56.5426 1454.1 56.2017C1454.31 55.8608 1454.42 55.4891 1454.42 55.0866V53.8011C1454.34 53.8674 1454.2 53.929 1454 53.9858C1453.81 54.0426 1453.6 54.0923 1453.36 54.1349C1453.13 54.1776 1452.89 54.2154 1452.66 54.2486C1452.43 54.2817 1452.23 54.3101 1452.06 54.3338C1451.67 54.3859 1451.33 54.4711 1451.03 54.5895C1450.72 54.7079 1450.49 54.8736 1450.31 55.0866C1450.14 55.295 1450.05 55.5649 1450.05 55.8963C1450.05 56.3698 1450.22 56.7273 1450.57 56.9688C1450.91 57.2102 1451.35 57.331 1451.89 57.331ZM1458.61 59L1458.6 56.8835H1458.97C1459.26 56.8835 1459.5 56.8196 1459.69 56.6918C1459.89 56.5639 1460.05 56.3509 1460.17 56.0526C1460.3 55.7495 1460.4 55.3423 1460.47 54.831C1460.54 54.3196 1460.59 53.6828 1460.62 52.9205L1460.81 48.0909H1468.77V59H1466.28V50.2003H1463.15L1462.98 53.7159C1462.94 54.625 1462.84 55.4134 1462.67 56.081C1462.52 56.7438 1462.3 57.2907 1462.01 57.7216C1461.72 58.1525 1461.37 58.4744 1460.93 58.6875C1460.5 58.8958 1459.99 59 1459.41 59H1458.61ZM1472.36 63.0909C1472.01 63.0909 1471.69 63.0625 1471.39 63.0057C1471.1 62.9536 1470.86 62.892 1470.69 62.821L1471.28 60.8182C1471.66 60.9271 1471.99 60.9792 1472.29 60.9744C1472.58 60.9697 1472.84 60.8774 1473.06 60.6974C1473.29 60.5223 1473.48 60.2287 1473.64 59.8168L1473.86 59.2273L1469.9 48.0909H1472.63L1475.14 56.3295H1475.25L1477.78 48.0909H1480.51L1476.14 60.321C1475.94 60.8987 1475.67 61.3935 1475.33 61.8054C1475 62.2221 1474.58 62.5393 1474.1 62.7571C1473.61 62.9796 1473.04 63.0909 1472.36 63.0909ZM1490 44.4545L1489.76 54.7244H1487.48L1487.25 44.4545H1490ZM1488.62 59.1562C1488.19 59.1562 1487.82 59.0047 1487.51 58.7017C1487.21 58.3987 1487.06 58.0294 1487.06 57.5938C1487.06 57.1676 1487.21 56.803 1487.51 56.5C1487.82 56.197 1488.19 56.0455 1488.62 56.0455C1489.04 56.0455 1489.41 56.197 1489.71 56.5C1490.03 56.803 1490.18 57.1676 1490.18 57.5938C1490.18 57.8826 1490.11 58.1454 1489.96 58.3821C1489.82 58.6188 1489.63 58.8082 1489.39 58.9503C1489.16 59.0876 1488.9 59.1562 1488.62 59.1562Z" fill="#00416B"/>
        <path d="M1551.78 30.0594C1551.57 29.8771 1551.31 29.7559 1551.04 29.7089C1550.76 29.6618 1550.48 29.6907 1550.22 29.7925L1505.89 47.1416C1505.35 47.3525 1504.89 47.7328 1504.59 48.2252C1504.28 48.7175 1504.15 49.2955 1504.2 49.8722C1504.25 50.4489 1504.49 50.9932 1504.88 51.4234C1505.26 51.8537 1505.78 52.1466 1506.35 52.2581L1518.19 54.5834V67.75C1518.19 68.3604 1518.37 68.9568 1518.71 69.4627C1519.05 69.9685 1519.54 70.3608 1520.1 70.589C1520.67 70.8173 1521.29 70.8712 1521.89 70.7438C1522.49 70.6164 1523.03 70.3135 1523.46 69.8741L1529.28 63.83L1538.38 71.8034C1538.93 72.2948 1539.65 72.5663 1540.39 72.5669C1540.71 72.5661 1541.04 72.5152 1541.34 72.4159C1541.85 72.256 1542.3 71.9665 1542.66 71.5761C1543.02 71.1858 1543.27 70.7083 1543.39 70.1912L1552.27 31.5622C1552.34 31.2906 1552.32 31.0071 1552.24 30.7423C1552.15 30.4775 1551.99 30.2414 1551.78 30.0594ZM1506.82 49.6747C1506.82 49.6521 1506.82 49.6273 1506.82 49.6047C1506.83 49.5971 1506.84 49.5911 1506.86 49.5872L1541.79 35.9109L1519.2 52.0984L1506.86 49.6834L1506.82 49.6747ZM1521.57 68.0497C1521.5 68.1122 1521.43 68.1554 1521.34 68.1738C1521.26 68.1921 1521.17 68.1847 1521.09 68.1525C1521.01 68.1204 1520.94 68.0649 1520.89 67.9932C1520.84 67.9216 1520.81 67.8369 1520.81 67.75V56.3991L1527.31 62.0866L1521.57 68.0497ZM1540.83 69.5984C1540.81 69.6724 1540.78 69.7407 1540.73 69.7961C1540.68 69.8515 1540.61 69.892 1540.54 69.9134C1540.46 69.9394 1540.38 69.945 1540.31 69.9296C1540.23 69.9142 1540.16 69.8784 1540.1 69.8259L1521.61 53.6056L1549.03 33.9531L1540.83 69.5984Z" fill="#EC8812"/>
        <path d="M1542.09 -29.7535C1542.09 -29.7535 1570.21 -1.40104 1621.35 14.158C1666.18 27.7975 1643.74 69.6135 1705.22 73.4246C1766.69 77.2357 1803.15 34.3473 1803.15 34.3473" stroke="#E99E45"/>
        <path d="M1584.72 -20.2747C1584.72 -20.2747 1591.99 37.814 1634.95 53.3871C1672.98 67.1759 1678.31 51.6455 1712.69 47.7493C1747.07 43.8532 1812.89 53.7284 1812.89 53.7284" stroke="#E99E45"/>
        <path d="M1585.48 -46.0633C1585.48 -46.0633 1605.48 -20.9001 1644.77 -9.99202C1679.21 -0.429783 1658.02 41.8755 1706.46 40.5705C1754.9 39.2654 1787.31 -5.21757 1787.31 -5.21757" stroke="#E99E45"/>
        <path d="M1572.97 -29.1116C1572.97 -29.1116 1596.45 -2.58172 1640.81 10.3193C1679.71 21.6287 1657.98 63.7244 1712.01 64.6116C1766.03 65.4988 1800.18 21.6991 1800.18 21.6991" stroke="#E99E45"/>
        <path d="M166.374 80.124L187.872 85.2738L185.378 55.1469L166.391 56.7188L166.374 80.124Z" fill="#F5C5C7"/>
        <path d="M181.753 63.7724C193.311 63.7724 202.68 54.4026 202.68 42.8442C202.68 31.2859 193.311 21.916 181.753 21.916C170.195 21.916 160.825 31.2859 160.825 42.8442C160.825 54.4026 170.195 63.7724 181.753 63.7724Z" fill="#F5C5C7"/>
        <path d="M203.84 131.749C203.673 131.806 203.508 131.857 203.341 131.908C203.292 131.922 203.244 131.939 203.196 131.954C201.423 132.504 199.624 132.995 197.805 133.432C191.169 135.032 184.237 135.878 177.113 135.878C175.11 135.878 173.124 135.812 171.158 135.679C169.146 135.546 167.154 135.344 165.185 135.075C164.385 134.967 163.591 134.851 162.799 134.72C160.544 134.354 158.314 133.897 156.118 133.361C155.377 133.182 154.639 132.992 153.905 132.788C153.652 132.723 153.399 132.652 153.15 132.581C152.114 132.288 151.084 131.979 150.063 131.647C149.995 131.627 149.924 131.605 149.856 131.582C148.942 131.287 148.034 130.975 147.132 130.649C146.321 130.356 145.515 130.05 144.712 129.732C142.927 129.028 141.174 128.268 139.449 127.451L140.113 124.443L142.414 114.025L147.41 91.3883L152.46 68.5137L165.73 68.8825H165.736L166.383 68.9024L186.564 69.4642L195.394 69.711L203.84 131.749Z" fill="#EC8812"/>
        <path d="M223.605 122.639C220.932 124.304 218.16 125.828 215.306 127.201C214.6 127.542 213.885 127.871 213.167 128.194C213.039 128.251 212.914 128.308 212.787 128.362C212.168 128.637 211.547 128.903 210.92 129.162L210.639 129.281C210.474 129.349 210.31 129.417 210.142 129.482C208.08 130.317 205.98 131.077 203.844 131.749C203.676 131.806 203.512 131.857 203.344 131.908L184.834 84.5446L183.583 81.3469L180.093 72.4121L178.936 69.4528L186.576 69.572L195.397 69.711C203.404 70.7353 210.043 76.4014 212.316 84.1445L223.608 122.639L223.605 122.639Z" fill="#EC8812"/>
        <path d="M167.072 52.4061C167.816 52.2812 168.559 52.1535 169.302 52.0287C169.478 48.0536 169.861 43.6188 172.837 40.9773C174.477 39.5217 176.849 38.6733 177.664 36.6361C178.339 34.9479 177.709 32.8738 178.651 31.319C179.641 29.6818 181.854 29.3896 183.767 29.2704C186.76 29.086 189.807 28.9044 192.721 29.6137C195.635 30.3259 198.446 32.0794 199.689 34.8089C200.072 35.6487 200.294 36.5539 200.515 37.4505C201.261 40.4836 202.404 46.2547 202.404 46.2547C202.404 46.2547 202.626 45.0602 203.256 42.7364C204.541 40.8978 206.11 39.2011 206.865 37.0901C207.773 34.5479 207.372 31.7077 206.482 29.1626C204.459 23.3716 199.766 18.4772 193.921 16.6159C188.074 14.7574 182.544 13.7048 178.174 18.0119C177.354 18.8205 176.617 19.7228 175.68 20.3924C173.95 21.6323 171.739 21.9444 169.787 22.8013C165.444 24.708 161.517 29.2931 160.538 33.935C159.559 38.5769 160.07 43.3862 160.586 48.1047C161.032 52.1734 162.964 56.7103 166.352 59.0086C166.491 56.926 166.63 54.8462 166.769 52.7636L167.069 52.4089H167.072V52.4061Z" fill="#2F2E43"/>
        <path d="M178.657 71.9723L178.453 72.3071L172.738 81.6477L164.266 95.5052L162.55 98.3113L156.291 108.548C156.291 108.548 154.259 111.406 150.832 115.069L150.821 115.08C149.575 116.408 148.148 117.841 146.568 119.279C146.556 119.293 146.545 119.305 146.531 119.313C144.602 121.072 142.445 122.84 140.113 124.443C139.154 125.104 138.167 125.734 137.157 126.324C136.949 126.222 136.745 126.114 136.541 126.009C126.832 120.967 118.178 114.175 111 106.049C118.493 94.0809 133.321 80.6603 142.874 72.6675C148.279 68.1419 155.499 66.4367 162.354 68.0767L165.73 68.8825L166.383 69.0385L178.657 71.9723Z" fill="#EC8812"/>
        <path d="M205.315 69.0924C201.635 67.7674 191.895 67.7617 187.525 69.2372C186.677 69.5237 186.164 70.3863 186.311 71.2687L186.484 72.3157C186.104 72.2589 185.732 72.1511 185.38 71.9894C184.339 71.5127 182.288 70.8658 180.217 71.8986C178.77 72.6193 177.751 73.9783 177.394 75.5587C176.54 79.3381 178.693 81.4292 178.693 81.4292L181.562 84.1218C183.965 86.3747 186.586 88.3835 189.387 90.1143L189.443 90.1483L188.422 84.0027C187.846 85.0156 186.544 85.3475 185.554 84.7347C183.051 83.1855 178.963 80.0815 179.459 76.5575C179.805 74.1003 181.17 73.5783 182.481 73.6889C183.948 73.8138 185.227 74.7359 185.854 76.0666C186.005 76.3844 186.252 76.6454 186.558 76.8157L187.296 77.2186L189.458 90.2448C189.554 90.8293 189.929 91.3343 190.459 91.5954C195.544 94.0894 201.031 92.7956 202.929 92.2139C203.363 92.0806 203.735 91.794 203.967 91.4024L204.376 90.7243C204.518 90.4916 204.603 90.2278 204.631 89.9582L206.518 70.9991C206.6 70.1621 206.104 69.379 205.312 69.0924L205.315 69.0924Z" fill="#00416B"/>
        <path d="M196.506 70.9055C201.227 70.9055 205.054 70.5447 205.054 70.0997C205.054 69.6547 201.227 69.2939 196.506 69.2939C191.784 69.2939 187.957 69.6547 187.957 70.0997C187.957 70.5447 191.784 70.9055 196.506 70.9055Z" fill="#DEDFE0"/>
        <path d="M179.428 86.2498C184.067 82.7003 185.903 77.3633 183.528 74.3302C181.156 71.297 175.473 71.7141 170.832 75.2665C168.959 76.6596 167.461 78.4925 166.471 80.612L147.019 95.9024L154.742 105.141L173.099 89.0843C175.422 88.6672 177.593 87.694 179.426 86.2498H179.428Z" fill="#F5C5C7"/>
        <path d="M166.559 99.5342L158.864 86.0001L130.863 99.1767L146.531 119.316L166.559 99.5342Z" fill="#EC8812"/>
        <path opacity="0.1" d="M149.776 90.276C149.776 90.276 129.365 105.22 130.12 105.138C130.875 105.056 140.938 99.5201 140.938 99.5201L149.776 90.276Z" fill="#272223"/>
        <path d="M84.6115 155.874C84.6115 155.874 74.3395 123.886 41.4292 94.1397C12.5794 68.0632 46.2536 42.7141 0.802197 18.7119C-44.6492 -5.29022 -89.4616 16.1154 -89.4616 16.1154" stroke="#E99E45"/>
        <path d="M55.7988 133.834C55.7988 133.834 73.209 85.4903 46.5574 58.5282C22.9592 34.6551 12.7414 45.0929 -15.0606 36.4282C-42.8625 27.7634 -89.2378 -2.5111 -89.2378 -2.5111" stroke="#E99E45"/>
        <path d="M45.0187 153.932C45.0187 153.932 39.6914 127.237 13.992 105.208C-8.53664 85.8968 24.379 59.7358 -13.1404 44.2232C-50.6598 28.7105 -92.9999 52.7622 -92.9999 52.7622" stroke="#E99E45"/>
        <path d="M61.2804 144.823C61.2804 144.823 53.8343 115.86 25.045 90.5239C-0.192304 68.3137 33.0484 42.5007 -7.86993 23.3502C-48.7882 4.19972 -92.1878 27.1176 -92.1878 27.1176" stroke="#E99E45"/>
    </g>
    <defs>
        <clipPath id="clip0_8325_38965">
            <rect width="1718" height="104" fill="white"/>
        </clipPath>
    </defs>
</svg>
