<svg width="1440" height="65" fill="none" xmlns="http://www.w3.org/2000/svg"><g clip-path="url(#a)"><path fill="#E1F3FC" d="M0 0h1440v65H0z"/><path d="M1302.23-23.166s16.24 21.98 50.02 37.265c29.62 13.4 9.06 40.045 51.43 48.21 42.36 8.164 72.81-17.949 72.81-17.949" stroke="#E99E45"/><path d="M1330.8-12.818s-1.78 40.486 26.3 55.042c24.86 12.889 30.41 2.723 54.81 3.156 24.4.433 69.08 13.149 69.08 13.149" stroke="#E99E45"/><path d="M1334.37-30.43s10.96 19.059 37.04 30.086c22.86 9.667 3.11 36.76 37.01 40.24 33.89 3.48 61.7-24.094 61.7-24.094" stroke="#E99E45"/><path d="M1323.66-19.938s13.22 20.31 42.6 33.163c25.76 11.267 5.66 38.167 43.18 43.654 37.53 5.488 66.47-21.46 66.47-21.46M165.948 124.369s-16.833-22.998-51.267-39.414c-30.185-14.39-9.905-41.514-52.882-50.739C18.822 24.992-11.47 51.382-11.47 51.382" stroke="#E99E45"/><path d="M136.875 113.149s1.039-41.767-27.616-57.322c-25.372-13.774-30.79-3.381-55.465-4.286C29.12 50.636-16.282 36.67-16.282 36.67" stroke="#E99E45"/><path d="M133.595 131.267s-11.439-19.884-38.006-31.758c-23.29-10.41-3.838-38.012-38.162-42.24C23.104 53.041-4.49 80.988-4.49 80.988" stroke="#E99E45"/><path d="M144.227 120.634s-13.75-21.218-43.688-35.038c-26.244-12.116-6.438-39.513-44.47-45.882-38.031-6.37-66.782 20.91-66.782 20.91" stroke="#E99E45"/><path d="M139.985 48.263v-8.938h1.481c.504-.363.966-.874 1.385-1.535.419-.667.778-1.587 1.076-2.759.298-1.179.511-2.72.639-4.623l.618-9.226h14.435v18.143h2.387v8.916h-4.432V43h-13.157v5.263h-4.432Zm6.808-8.938h8.395v-14.34h-5.849l-.341 5.423c-.092 1.441-.245 2.72-.458 3.835-.206 1.115-.458 2.091-.756 2.93-.292.83-.622 1.548-.991 2.152Zm27.305-1.343 4.432-11.346h3.452L175.601 43h-3.015l-6.233-16.364h3.441l4.304 11.346Zm-5.337-11.346V43h-4.336V26.636h4.336ZM179.66 43V26.636h4.282V43h-4.282Zm11.828-5.987 5.892-10.377h4.474V43h-4.325V32.592L191.659 43h-4.507V26.636h4.336v10.377Zm12.061-6.808v-3.569h14.83v3.57h-5.274V43h-4.325V30.205h-5.231Zm17.281 18.931v-22.5h4.474v2.749h.203a5.99 5.99 0 0 1 .863-1.342c.383-.462.88-.846 1.491-1.151.618-.313 1.385-.469 2.301-.469 1.193 0 2.294.313 3.303.938 1.008.618 1.814 1.552 2.418 2.802.604 1.242.906 2.802.906 4.677 0 1.825-.295 3.366-.885 4.623-.582 1.25-1.377 2.198-2.386 2.844-1.001.64-2.124.96-3.366.96-.881 0-1.63-.146-2.248-.438-.611-.29-1.112-.656-1.502-1.097a5.563 5.563 0 0 1-.895-1.353h-.139v8.757h-4.538Zm4.442-14.318c0 .973.135 1.822.405 2.546.27.725.661 1.29 1.172 1.694.511.398 1.133.597 1.864.597.739 0 1.364-.203 1.875-.607.512-.412.899-.98 1.162-1.705.269-.732.404-1.573.404-2.525 0-.944-.131-1.775-.394-2.493-.263-.717-.65-1.278-1.161-1.683s-1.14-.607-1.886-.607c-.738 0-1.363.195-1.875.586-.504.39-.891.944-1.161 1.662-.27.717-.405 1.562-.405 2.535Zm21.636 8.502c-1.655 0-3.086-.352-4.294-1.055a7.215 7.215 0 0 1-2.78-2.962c-.654-1.271-.98-2.745-.98-4.42 0-1.691.326-3.169.98-4.433.653-1.271 1.58-2.258 2.78-2.961 1.208-.71 2.639-1.066 4.294-1.066 1.654 0 3.082.355 4.282 1.066 1.208.703 2.138 1.69 2.792 2.961.653 1.265.98 2.742.98 4.432 0 1.676-.327 3.15-.98 4.421a7.198 7.198 0 0 1-2.792 2.962c-1.2.703-2.628 1.055-4.282 1.055Zm.021-3.516c.753 0 1.381-.213 1.886-.64.504-.433.884-1.022 1.14-1.768.262-.745.394-1.594.394-2.546 0-.952-.132-1.8-.394-2.546-.256-.746-.636-1.335-1.14-1.769-.505-.433-1.133-.65-1.886-.65-.76 0-1.399.217-1.918.65-.511.434-.898 1.023-1.161 1.769-.256.746-.383 1.594-.383 2.546 0 .952.127 1.8.383 2.546.263.746.65 1.335 1.161 1.769.519.426 1.158.639 1.918.639ZM268.102 43h-4.943l7.532-21.818h5.944L284.157 43h-4.944l-5.465-16.832h-.17L268.102 43Zm-.309-8.576h11.676v3.6h-11.676v-3.6Zm25.236 8.896c-1.676 0-3.118-.355-4.325-1.066a7.202 7.202 0 0 1-2.77-2.983c-.639-1.271-.959-2.734-.959-4.389 0-1.676.323-3.146.97-4.41.653-1.272 1.58-2.263 2.78-2.973 1.2-.717 2.628-1.076 4.283-1.076 1.427 0 2.677.26 3.75.778 1.072.518 1.921 1.246 2.546 2.184.625.937.969 2.038 1.033 3.302h-4.282c-.121-.816-.441-1.473-.959-1.97-.511-.505-1.183-.757-2.014-.757-.703 0-1.317.192-1.843.575-.518.377-.923.927-1.214 1.652-.291.724-.437 1.601-.437 2.631 0 1.044.142 1.932.426 2.663.291.732.7 1.29 1.225 1.673.526.384 1.14.575 1.843.575.519 0 .984-.106 1.396-.32a2.689 2.689 0 0 0 1.033-.926c.277-.412.459-.906.544-1.48h4.282c-.071 1.25-.412 2.35-1.022 3.302-.604.944-1.439 1.683-2.504 2.216-1.065.532-2.326.799-3.782.799Zm19.587-5.338 4.432-11.346h3.452L314.119 43h-3.015l-6.233-16.364h3.441l4.304 11.346Zm-5.337-11.346V43h-4.336V26.636h4.336ZM318.177 43V26.636h4.283V43h-4.283Zm12.16.309c-1.044 0-1.975-.181-2.792-.543a4.49 4.49 0 0 1-1.938-1.63c-.469-.725-.704-1.627-.704-2.706 0-.91.167-1.673.501-2.29a4.05 4.05 0 0 1 1.364-1.492 6.603 6.603 0 0 1 1.96-.853 14.962 14.962 0 0 1 2.322-.404c.952-.1 1.719-.192 2.302-.277.582-.093 1.005-.228 1.267-.405.263-.178.394-.44.394-.789v-.064c0-.674-.213-1.196-.639-1.566-.419-.369-1.015-.553-1.789-.553-.817 0-1.467.18-1.95.543-.483.355-.803.802-.959 1.342l-4.197-.34c.213-.995.632-1.854 1.257-2.579.625-.731 1.431-1.293 2.418-1.683.994-.398 2.145-.597 3.452-.597.909 0 1.779.107 2.61.32.838.213 1.58.543 2.226.99a4.806 4.806 0 0 1 1.545 1.726c.377.697.565 1.531.565 2.504V43h-4.304v-2.27h-.128a4.611 4.611 0 0 1-1.055 1.354c-.44.383-.969.685-1.587.905-.618.213-1.332.32-2.141.32Zm1.299-3.132c.668 0 1.257-.132 1.769-.394.511-.27.912-.632 1.204-1.087.291-.454.436-.97.436-1.545v-1.736a2.436 2.436 0 0 1-.585.255 10.75 10.75 0 0 1-.821.203c-.305.057-.611.11-.916.16l-.831.117a5.618 5.618 0 0 0-1.396.373c-.397.17-.706.401-.926.692-.221.284-.331.64-.331 1.066 0 .617.224 1.09.672 1.416.454.32 1.029.48 1.725.48Zm22.344-13.54v3.568h-6.797V43h-4.41V26.636h11.207ZM356.447 43V26.636h4.539V43h-4.539Zm2.28-18.473a2.466 2.466 0 0 1-1.736-.671c-.476-.455-.714-.998-.714-1.63 0-.625.238-1.161.714-1.609a2.445 2.445 0 0 1 1.736-.682c.675 0 1.25.228 1.726.682.483.448.725.984.725 1.609 0 .632-.242 1.175-.725 1.63-.476.447-1.051.671-1.726.671ZM363.362 43l-.021-3.6h.543c.384 0 .714-.093.991-.278.284-.192.519-.5.703-.927.185-.426.331-.99.437-1.694.107-.71.178-1.583.213-2.62l.267-7.245h12.443V43h-4.326V30.205h-4.037l-.256 4.997c-.064 1.37-.231 2.55-.501 3.537-.262.987-.628 1.797-1.097 2.429-.469.625-1.033 1.086-1.694 1.385-.66.298-1.427.447-2.301.447h-1.364Zm26.187.32c-1.654 0-3.085-.352-4.293-1.055a7.215 7.215 0 0 1-2.78-2.962c-.654-1.271-.981-2.745-.981-4.42 0-1.691.327-3.169.981-4.433.653-1.271 1.58-2.258 2.78-2.961 1.208-.71 2.639-1.066 4.293-1.066 1.655 0 3.083.355 4.283 1.066 1.208.703 2.138 1.69 2.791 2.961.654 1.265.98 2.742.98 4.432 0 1.676-.326 3.15-.98 4.421a7.19 7.19 0 0 1-2.791 2.962c-1.2.703-2.628 1.055-4.283 1.055Zm.022-3.516c.753 0 1.381-.213 1.885-.64.505-.433.885-1.022 1.14-1.768.263-.745.395-1.594.395-2.546 0-.952-.132-1.8-.395-2.546-.255-.746-.635-1.335-1.14-1.769-.504-.433-1.132-.65-1.885-.65-.76 0-1.399.217-1.918.65-.511.434-.898 1.023-1.161 1.769-.256.746-.384 1.594-.384 2.546 0 .952.128 1.8.384 2.546.263.746.65 1.335 1.161 1.769.519.426 1.158.639 1.918.639ZM400.254 43V26.636h6.978c2.017 0 3.612.384 4.784 1.15 1.172.768 1.758 1.858 1.758 3.271 0 .888-.331 1.627-.991 2.216-.661.59-1.577.988-2.749 1.194.98.07 1.815.294 2.504.67.696.37 1.225.85 1.587 1.439a3.62 3.62 0 0 1 .554 1.96c0 .93-.248 1.73-.746 2.397-.49.668-1.211 1.18-2.162 1.534-.945.355-2.099.533-3.463.533h-8.054Zm4.23-3.398h3.824c.633 0 1.126-.15 1.481-.448.362-.305.544-.72.544-1.246 0-.583-.182-1.04-.544-1.375-.355-.333-.848-.5-1.481-.5h-3.824v3.569Zm0-6.233h2.844c.455 0 .842-.064 1.162-.191.326-.135.575-.327.745-.576.178-.248.267-.543.267-.884 0-.504-.203-.898-.608-1.183-.404-.284-.958-.426-1.662-.426h-2.748v3.26Z" fill="#EC8812"/><path d="M437.5 36.597c-.516 0-.987-.126-1.413-.378a2.931 2.931 0 0 1-1.022-1.022 2.723 2.723 0 0 1-.377-1.413c0-.52.125-.99.377-1.413a2.878 2.878 0 0 1 1.022-1.016 2.694 2.694 0 0 1 1.413-.383c.52 0 .991.127 1.413.383.426.252.765.59 1.016 1.016.256.422.383.893.383 1.413 0 .516-.127.987-.383 1.413-.251.426-.59.767-1.016 1.022a2.708 2.708 0 0 1-1.413.378Zm19.278 2.582c-.843 0-1.595-.145-2.256-.435-.656-.29-1.178-.692-1.566-1.208a3.243 3.243 0 0 1-.626-1.809h1.61a1.9 1.9 0 0 0 .435 1.093c.256.303.59.537 1.004.703.413.167.871.25 1.374.25.562 0 1.061-.098 1.496-.294a2.457 2.457 0 0 0 1.022-.819c.247-.349.371-.754.371-1.214 0-.481-.119-.905-.358-1.272-.239-.37-.588-.66-1.048-.87-.46-.208-1.023-.313-1.688-.313H455.5v-1.406h1.048c.52 0 .976-.094 1.368-.281.397-.188.705-.452.927-.793.226-.34.339-.741.339-1.201 0-.444-.098-.83-.294-1.157a2.01 2.01 0 0 0-.831-.767c-.354-.184-.771-.275-1.253-.275-.452 0-.878.083-1.278.25a2.375 2.375 0 0 0-.972.709 1.848 1.848 0 0 0-.409 1.112h-1.534a3.111 3.111 0 0 1 .62-1.803c.388-.52.895-.925 1.521-1.214a4.917 4.917 0 0 1 2.078-.435c.809 0 1.504.164 2.083.492a3.46 3.46 0 0 1 1.336 1.285c.311.533.467 1.108.467 1.726 0 .737-.194 1.366-.582 1.886-.383.52-.905.88-1.566 1.08v.102c.827.136 1.472.488 1.937 1.055.464.562.697 1.26.697 2.09 0 .712-.194 1.35-.582 1.918-.383.562-.908 1.005-1.572 1.33-.665.323-1.422.485-2.27.485Zm9.773.051a3.991 3.991 0 0 1-1.694-.351 2.906 2.906 0 0 1-1.208-1.03c-.298-.451-.448-.997-.448-1.636 0-.562.111-1.018.333-1.368.221-.353.518-.63.888-.83.371-.201.78-.35 1.228-.448.451-.102.905-.184 1.361-.243.597-.077 1.08-.134 1.451-.173.375-.042.648-.113.818-.21.175-.099.262-.27.262-.512v-.051c0-.63-.172-1.12-.517-1.47-.341-.35-.859-.524-1.554-.524-.72 0-1.285.157-1.694.473-.409.315-.696.652-.863 1.01l-1.431-.512c.255-.596.596-1.061 1.022-1.393.431-.337.9-.571 1.407-.703a5.837 5.837 0 0 1 1.508-.205c.315 0 .678.038 1.087.115.413.072.812.224 1.195.454.388.23.71.577.965 1.042.256.464.384 1.086.384 1.866V39h-1.509v-1.33h-.076a2.67 2.67 0 0 1-.512.684c-.238.243-.556.45-.952.62-.396.17-.88.256-1.451.256Zm.23-1.355c.597 0 1.099-.117 1.508-.352a2.392 2.392 0 0 0 1.253-2.077v-1.38c-.064.076-.204.146-.422.21-.213.06-.46.113-.741.16a34 34 0 0 1-1.445.192 5.77 5.77 0 0 0-1.099.25c-.337.11-.609.278-.818.504-.205.222-.307.524-.307.908 0 .524.194.92.582 1.189.392.264.888.396 1.489.396Zm12.903-8.693v1.406h-4.551V39h-1.509v-9.818h6.06Zm4.401 10.048a3.995 3.995 0 0 1-1.694-.351 2.912 2.912 0 0 1-1.208-1.03c-.298-.451-.447-.997-.447-1.636 0-.562.111-1.018.332-1.368.222-.353.518-.63.889-.83.371-.201.78-.35 1.227-.448.452-.102.906-.184 1.362-.243.596-.077 1.08-.134 1.451-.173.375-.042.647-.113.818-.21.174-.099.262-.27.262-.512v-.051c0-.63-.173-1.12-.518-1.47-.341-.35-.859-.524-1.553-.524-.72 0-1.285.157-1.694.473-.409.315-.697.652-.863 1.01l-1.432-.512c.256-.596.597-1.061 1.023-1.393a3.83 3.83 0 0 1 1.406-.703 5.844 5.844 0 0 1 1.509-.205c.315 0 .677.038 1.086.115.414.072.812.224 1.196.454.387.23.709.577.965 1.042.256.464.383 1.086.383 1.866V39h-1.508v-1.33H487c-.102.213-.273.441-.511.684-.239.243-.556.45-.953.62-.396.17-.88.256-1.451.256Zm.23-1.355c.597 0 1.1-.117 1.509-.352a2.396 2.396 0 0 0 1.253-2.077v-1.38c-.064.076-.205.146-.422.21-.213.06-.46.113-.742.16a33.93 33.93 0 0 1-1.444.192 5.78 5.78 0 0 0-1.1.25 1.9 1.9 0 0 0-.818.504c-.204.222-.307.524-.307.908 0 .524.194.92.582 1.189.392.264.889.396 1.489.396ZM490.289 39v-1.406h.358c.294 0 .539-.058.735-.173.196-.12.354-.326.473-.62.124-.298.218-.712.282-1.24.068-.533.117-1.21.147-2.033l.179-4.346h6.545V39H497.5v-8.412h-3.605l-.154 3.503a15.841 15.841 0 0 1-.217 2.128c-.107.61-.271 1.121-.492 1.535a2.26 2.26 0 0 1-.87.933c-.362.209-.816.313-1.361.313h-.512Zm12.611-6.264h2.812c1.151 0 2.031.292 2.64.876.61.583.914 1.323.914 2.218 0 .588-.136 1.122-.409 1.604-.272.477-.673.859-1.201 1.144-.529.281-1.177.422-1.944.422h-4.116v-9.818h1.508v8.412h2.608c.597 0 1.087-.158 1.471-.473.383-.316.575-.72.575-1.215 0-.52-.192-.944-.575-1.272-.384-.328-.874-.492-1.471-.492H502.9v-1.406Zm15.054.665v1.406h-5.421V33.4h5.421Zm-5.063-4.22V39h-1.508v-9.818h1.508Zm6.213 0V39h-1.508v-9.818h1.508Zm5.464 10.05a3.987 3.987 0 0 1-1.693-.352 2.909 2.909 0 0 1-1.209-1.03c-.298-.451-.447-.997-.447-1.636 0-.562.111-1.018.332-1.368.222-.353.518-.63.889-.83.371-.201.78-.35 1.227-.448.452-.102.906-.184 1.362-.243.596-.077 1.08-.134 1.451-.173.375-.042.647-.113.818-.21.175-.099.262-.27.262-.512v-.051c0-.63-.173-1.12-.518-1.47-.341-.35-.858-.524-1.553-.524-.72 0-1.285.157-1.694.473-.409.315-.697.652-.863 1.01l-1.432-.512c.256-.596.597-1.061 1.023-1.393a3.83 3.83 0 0 1 1.406-.703 5.844 5.844 0 0 1 1.509-.205c.315 0 .677.038 1.086.115.414.072.812.224 1.196.454.388.23.709.577.965 1.042.256.464.383 1.086.383 1.866V39h-1.508v-1.33h-.077a2.64 2.64 0 0 1-.511.684c-.239.243-.556.45-.953.62-.396.17-.879.256-1.451.256Zm.231-1.356c.596 0 1.099-.117 1.508-.352a2.39 2.39 0 0 0 .933-.907c.213-.371.32-.76.32-1.17v-1.38c-.064.076-.205.146-.422.21-.213.06-.46.113-.741.16a34 34 0 0 1-1.445.192 5.752 5.752 0 0 0-1.099.25c-.337.11-.61.278-.819.504-.204.222-.306.524-.306.908 0 .524.193.92.581 1.189.392.264.889.396 1.49.396ZM536.524 39v-9.818h7.722V39h-1.509v-8.412h-4.704V39h-1.509Zm14.286.205c-.921 0-1.714-.218-2.378-.652-.665-.435-1.176-1.034-1.534-1.797-.358-.762-.537-1.634-.537-2.614 0-.997.183-1.877.549-2.64.371-.767.887-1.366 1.547-1.796.665-.435 1.441-.652 2.327-.652.69 0 1.312.128 1.866.384a3.577 3.577 0 0 1 1.362 1.073c.354.46.573.998.658 1.611h-1.508c-.115-.447-.371-.844-.767-1.189-.392-.35-.921-.524-1.585-.524-.589 0-1.104.154-1.547.46-.439.303-.782.731-1.029 1.285-.243.55-.365 1.195-.365 1.937 0 .758.12 1.419.358 1.981.243.563.584 1 1.023 1.31.443.312.963.467 1.56.467.392 0 .747-.068 1.067-.204.32-.137.59-.333.812-.588.221-.256.379-.563.473-.92h1.508a3.498 3.498 0 0 1-.632 1.565c-.333.46-.774.827-1.324 1.1-.545.268-1.18.403-1.904.403Zm7.394-2.43 4.73-7.593h1.739V39h-1.509v-7.594L558.46 39h-1.764v-9.818h1.508v7.594Zm10.177-7.593 2.352 4.014 2.352-4.014h1.739l-3.17 4.909 3.17 4.909h-1.739l-2.352-3.81-2.352 3.81h-1.739l3.12-4.91-3.12-4.908h1.739Zm12 10.023c-.886 0-1.664-.211-2.333-.633-.665-.422-1.185-1.012-1.56-1.77-.371-.76-.556-1.646-.556-2.66 0-1.023.185-1.915.556-2.678.375-.763.895-1.355 1.56-1.777.669-.422 1.447-.633 2.333-.633.886 0 1.662.21 2.327.633.669.422 1.189 1.014 1.559 1.777.375.763.563 1.655.563 2.678 0 1.014-.188 1.9-.563 2.66-.37.758-.89 1.348-1.559 1.77-.665.422-1.441.633-2.327.633Zm0-1.356c.673 0 1.227-.172 1.662-.517.434-.346.756-.8.965-1.362a5.208 5.208 0 0 0 .313-1.828c0-.656-.104-1.268-.313-1.835a3.099 3.099 0 0 0-.965-1.374c-.435-.35-.989-.524-1.662-.524-.673 0-1.227.175-1.662.524-.435.35-.756.808-.965 1.374a5.261 5.261 0 0 0-.313 1.835c0 .656.104 1.266.313 1.828.209.563.53 1.017.965 1.362.435.345.989.517 1.662.517ZM586.083 39v-1.406h.358c.294 0 .539-.058.735-.173.196-.12.354-.326.473-.62.124-.298.218-.712.281-1.24.069-.533.118-1.21.147-2.033l.179-4.346h6.546V39h-1.509v-8.412h-3.605l-.153 3.503a16.007 16.007 0 0 1-.217 2.128c-.107.61-.271 1.121-.493 1.535a2.252 2.252 0 0 1-.869.933c-.362.209-.816.313-1.361.313h-.512Zm15.295.205c-.886 0-1.664-.211-2.333-.633-.665-.422-1.184-1.012-1.559-1.77-.371-.76-.557-1.646-.557-2.66 0-1.023.186-1.915.557-2.678.375-.763.894-1.355 1.559-1.777.669-.422 1.447-.633 2.333-.633.887 0 1.662.21 2.327.633.669.422 1.189 1.014 1.56 1.777.375.763.562 1.655.562 2.678 0 1.014-.187 1.9-.562 2.66-.371.758-.891 1.348-1.56 1.77-.665.422-1.44.633-2.327.633Zm0-1.356c.674 0 1.228-.172 1.662-.517.435-.346.757-.8.965-1.362a5.209 5.209 0 0 0 .314-1.828c0-.656-.105-1.268-.314-1.835a3.083 3.083 0 0 0-.965-1.374c-.434-.35-.988-.524-1.662-.524-.673 0-1.227.175-1.662.524-.434.35-.756.808-.965 1.374a5.261 5.261 0 0 0-.313 1.835c0 .656.104 1.266.313 1.828.209.563.531 1.017.965 1.362.435.345.989.517 1.662.517Zm12.632-8.667v1.406h-4.552V39h-1.508v-9.818h6.06ZM616.032 39v-9.818h1.508V39h-1.508Zm.767-11.454c-.294 0-.548-.1-.761-.301a.964.964 0 0 1-.313-.722c0-.282.104-.522.313-.723.213-.2.467-.3.761-.3s.545.1.754.3c.213.2.32.441.32.723a.957.957 0 0 1-.32.722c-.209.2-.46.3-.754.3ZM626.029 39v-8.438h-2.608c-.588 0-1.05.137-1.387.41-.336.272-.505.647-.505 1.125 0 .468.152.837.454 1.105.307.269.727.403 1.259.403h3.171v1.406h-3.171c-.664 0-1.238-.117-1.719-.351a2.57 2.57 0 0 1-1.112-1.004c-.26-.439-.39-.959-.39-1.56 0-.604.136-1.124.409-1.56.273-.434.663-.768 1.17-1.003.511-.234 1.118-.351 1.821-.351h4.04V39h-1.432Zm-6.545 0 2.787-4.883h1.636L621.12 39h-1.636ZM641.5 36.597c-.516 0-.987-.126-1.413-.378a2.931 2.931 0 0 1-1.022-1.022 2.723 2.723 0 0 1-.377-1.413c0-.52.125-.99.377-1.413a2.878 2.878 0 0 1 1.022-1.016 2.694 2.694 0 0 1 1.413-.383c.52 0 .991.127 1.413.383.426.252.765.59 1.016 1.016.256.422.383.893.383 1.413 0 .516-.127.987-.383 1.413-.251.426-.59.767-1.016 1.022a2.708 2.708 0 0 1-1.413.378ZM656.585 39V25.91h7.901v1.405h-6.316v4.091h3.324c.938 0 1.728.154 2.372.46.647.307 1.138.74 1.47 1.298.337.558.505 1.217.505 1.975 0 .759-.168 1.428-.505 2.007-.332.58-.823 1.034-1.47 1.362-.644.328-1.434.492-2.372.492h-4.909Zm1.585-1.38h3.324c.597 0 1.102-.12 1.515-.359.418-.242.733-.554.946-.933a2.42 2.42 0 0 0 .326-1.214c0-.627-.241-1.166-.722-1.618-.482-.456-1.17-.684-2.065-.684h-3.324v4.807Zm9.896 1.38v-9.818h1.508V39h-1.508Zm.767-11.454c-.294 0-.548-.1-.761-.301a.968.968 0 0 1-.313-.722c0-.282.105-.522.313-.723.213-.2.467-.3.761-.3s.545.1.754.3c.213.2.32.441.32.723a.957.957 0 0 1-.32.722c-.209.2-.46.3-.754.3Zm2.711 8.948h1.611c.034.444.234.78.6 1.01.371.23.853.345 1.445.345.605 0 1.123-.123 1.553-.37.431-.252.646-.657.646-1.215 0-.328-.081-.613-.243-.856a1.599 1.599 0 0 0-.684-.576c-.294-.136-.641-.204-1.042-.204h-1.687v-1.355h1.687c.601 0 1.044-.137 1.33-.41.289-.272.434-.613.434-1.022 0-.439-.155-.79-.466-1.055-.311-.268-.752-.402-1.323-.402-.576 0-1.055.13-1.439.39-.383.255-.586.585-.607.99h-1.585c.017-.528.179-.995.486-1.4.306-.409.724-.728 1.253-.959.528-.234 1.133-.351 1.815-.351.69 0 1.289.121 1.796.364.511.239.906.565 1.183.978.281.41.421.874.421 1.394 0 .554-.155 1.001-.466 1.342a2.58 2.58 0 0 1-1.17.729v.102c.371.026.693.145.965.358.277.209.492.484.646.825.153.336.23.71.23 1.118 0 .597-.16 1.117-.479 1.56-.32.439-.759.78-1.317 1.023-.558.238-1.196.358-1.911.358-.695 0-1.317-.113-1.867-.34-.55-.23-.986-.547-1.31-.952a2.365 2.365 0 0 1-.505-1.419Zm15.899-3.093v1.406h-5.421V33.4h5.421Zm-5.063-4.22V39h-1.508v-9.818h1.508Zm6.214 0V39h-1.509v-9.818h1.509Zm6.691 10.024c-.946 0-1.762-.21-2.448-.627a4.205 4.205 0 0 1-1.579-1.764c-.366-.759-.55-1.64-.55-2.646s.184-1.892.55-2.66c.371-.77.886-1.372 1.547-1.802.665-.435 1.44-.652 2.327-.652.511 0 1.016.085 1.514.256.499.17.953.447 1.362.83.409.38.735.883.978 1.51.243.626.364 1.397.364 2.313v.64h-7.568v-1.305h6.034c0-.554-.111-1.048-.332-1.483a2.508 2.508 0 0 0-.933-1.029c-.401-.251-.874-.377-1.419-.377-.601 0-1.121.15-1.56.448a2.947 2.947 0 0 0-1.004 1.15c-.234.473-.351.98-.351 1.521v.87c0 .741.128 1.37.383 1.885.26.512.62.902 1.081 1.17.46.264.995.396 1.604.396.396 0 .754-.055 1.074-.166.324-.115.603-.285.837-.511.235-.23.416-.516.544-.857l1.457.41a3.23 3.23 0 0 1-.774 1.303c-.362.371-.809.66-1.342.87-.533.204-1.131.306-1.796.306Zm10.169 0c-.921 0-1.713-.218-2.378-.652-.665-.435-1.176-1.034-1.534-1.797-.358-.762-.537-1.634-.537-2.614 0-.997.183-1.877.55-2.64.37-.767.886-1.366 1.546-1.796.665-.435 1.441-.652 2.327-.652.69 0 1.313.128 1.867.384a3.574 3.574 0 0 1 1.361 1.073c.354.46.573.998.658 1.611h-1.508c-.115-.447-.371-.844-.767-1.189-.392-.35-.921-.524-1.585-.524-.588 0-1.104.154-1.547.46-.439.303-.782.731-1.029 1.285-.243.55-.365 1.195-.365 1.937 0 .758.12 1.419.358 1.981.243.563.584 1 1.023 1.31.443.312.963.467 1.56.467a2.69 2.69 0 0 0 1.067-.204c.32-.137.59-.333.812-.588.222-.256.379-.563.473-.92h1.508a3.498 3.498 0 0 1-.632 1.565c-.333.46-.774.827-1.323 1.1-.546.268-1.181.403-1.905.403ZM716.222 39v-9.818h7.722V39h-1.509v-8.412h-4.704V39h-1.509Zm14.285.205c-.92 0-1.713-.218-2.377-.652a4.24 4.24 0 0 1-1.534-1.797c-.358-.762-.537-1.634-.537-2.614 0-.997.183-1.877.549-2.64.371-.767.887-1.366 1.547-1.796.665-.435 1.441-.652 2.327-.652.69 0 1.312.128 1.866.384a3.577 3.577 0 0 1 1.362 1.073c.354.46.573.998.658 1.611h-1.508c-.115-.447-.371-.844-.767-1.189-.392-.35-.921-.524-1.586-.524-.588 0-1.103.154-1.546.46-.439.303-.782.731-1.03 1.285-.242.55-.364 1.195-.364 1.937 0 .758.119 1.419.358 1.981.243.563.584 1 1.023 1.31.443.312.963.467 1.559.467.392 0 .748-.068 1.068-.204.32-.137.59-.333.812-.588.221-.256.379-.563.473-.92h1.508a3.488 3.488 0 0 1-.633 1.565 3.53 3.53 0 0 1-1.323 1.1c-.545.268-1.18.403-1.905.403Zm7.395-2.43 4.73-7.593h1.739V39h-1.509v-7.594L738.158 39h-1.765v-9.818h1.509v7.594Zm10.177-7.593 2.352 4.014 2.352-4.014h1.739l-3.171 4.909L754.522 39h-1.739l-2.352-3.81-2.352 3.81h-1.739l3.119-4.91-3.119-4.908h1.739Zm12 10.023c-.887 0-1.664-.211-2.333-.633-.665-.422-1.185-1.012-1.56-1.77-.371-.76-.556-1.646-.556-2.66 0-1.023.185-1.915.556-2.678.375-.763.895-1.355 1.56-1.777.669-.422 1.446-.633 2.333-.633.886 0 1.662.21 2.326.633.67.422 1.189 1.014 1.56 1.777.375.763.563 1.655.563 2.678 0 1.014-.188 1.9-.563 2.66-.371.758-.89 1.348-1.56 1.77-.664.422-1.44.633-2.326.633Zm0-1.356c.673 0 1.227-.172 1.662-.517.434-.346.756-.8.965-1.362a5.208 5.208 0 0 0 .313-1.828c0-.656-.104-1.268-.313-1.835a3.099 3.099 0 0 0-.965-1.374c-.435-.35-.989-.524-1.662-.524-.674 0-1.228.175-1.662.524-.435.35-.757.808-.965 1.374a5.262 5.262 0 0 0-.314 1.835c0 .656.105 1.266.314 1.828.208.563.53 1.017.965 1.362.434.345.988.517 1.662.517ZM765.781 39v-1.406h.358c.294 0 .539-.058.735-.173.196-.12.354-.326.473-.62.124-.298.217-.712.281-1.24.069-.533.118-1.21.147-2.033l.179-4.346h6.546V39h-1.509v-8.412h-3.605l-.153 3.503a15.829 15.829 0 0 1-.218 2.128c-.106.61-.27 1.121-.492 1.535a2.252 2.252 0 0 1-.869.933c-.362.209-.816.313-1.362.313h-.511Zm15.295.205c-.886 0-1.664-.211-2.333-.633-.665-.422-1.185-1.012-1.56-1.77-.37-.76-.556-1.646-.556-2.66 0-1.023.186-1.915.556-2.678.375-.763.895-1.355 1.56-1.777.669-.422 1.447-.633 2.333-.633.887 0 1.662.21 2.327.633.669.422 1.189 1.014 1.56 1.777.375.763.562 1.655.562 2.678 0 1.014-.187 1.9-.562 2.66-.371.758-.891 1.348-1.56 1.77-.665.422-1.44.633-2.327.633Zm0-1.356c.673 0 1.227-.172 1.662-.517.435-.346.757-.8.965-1.362a5.209 5.209 0 0 0 .314-1.828c0-.656-.105-1.268-.314-1.835a3.083 3.083 0 0 0-.965-1.374c-.435-.35-.989-.524-1.662-.524-.673 0-1.227.175-1.662.524-.434.35-.756.808-.965 1.374a5.261 5.261 0 0 0-.313 1.835c0 .656.104 1.266.313 1.828.209.563.531 1.017.965 1.362.435.345.989.517 1.662.517Zm12.631-8.667v1.406h-4.551V39h-1.508v-9.818h6.059ZM795.73 39v-9.818h1.508V39h-1.508Zm.767-11.454c-.294 0-.548-.1-.761-.301a.964.964 0 0 1-.313-.722c0-.282.104-.522.313-.723.213-.2.467-.3.761-.3s.545.1.754.3c.213.2.319.441.319.723a.956.956 0 0 1-.319.722c-.209.2-.46.3-.754.3ZM805.727 39v-8.438h-2.608c-.588 0-1.05.137-1.387.41-.336.272-.505.647-.505 1.125 0 .468.152.837.454 1.105.307.269.727.403 1.259.403h3.171v1.406h-3.171c-.664 0-1.238-.117-1.719-.351a2.57 2.57 0 0 1-1.112-1.004c-.26-.439-.39-.959-.39-1.56 0-.604.136-1.124.409-1.56.273-.434.662-.768 1.17-1.003.511-.234 1.118-.351 1.821-.351h4.04V39h-1.432Zm-6.545 0 2.787-4.883h1.636L800.818 39h-1.636ZM821.5 36.597c-.516 0-.987-.126-1.413-.378a2.931 2.931 0 0 1-1.022-1.022 2.723 2.723 0 0 1-.377-1.413c0-.52.125-.99.377-1.413a2.878 2.878 0 0 1 1.022-1.016 2.694 2.694 0 0 1 1.413-.383c.52 0 .991.127 1.413.383.426.252.765.59 1.016 1.016.256.422.383.893.383 1.413 0 .516-.127.987-.383 1.413-.251.426-.59.767-1.016 1.022a2.708 2.708 0 0 1-1.413.378Zm24.878-10.688V39h-1.585V27.315h-6.597V39h-1.585V25.91h9.767Zm4.321 10.867 4.731-7.594h1.738V39h-1.508v-7.594L850.955 39h-1.764v-9.818h1.508v7.594Zm7.716-6.188v-1.406h7.977v1.406h-3.221V39h-1.509v-8.412h-3.247Zm12.377 8.642a3.995 3.995 0 0 1-1.694-.351 2.912 2.912 0 0 1-1.208-1.03c-.298-.451-.447-.997-.447-1.636 0-.562.111-1.018.332-1.368.222-.353.518-.63.889-.83.371-.201.78-.35 1.227-.448.452-.102.906-.184 1.362-.243.596-.077 1.08-.134 1.451-.173.375-.042.647-.113.818-.21.175-.099.262-.27.262-.512v-.051c0-.63-.173-1.12-.518-1.47-.341-.35-.859-.524-1.553-.524-.72 0-1.285.157-1.694.473-.409.315-.697.652-.863 1.01l-1.432-.512c.256-.596.597-1.061 1.023-1.393a3.83 3.83 0 0 1 1.406-.703 5.844 5.844 0 0 1 1.509-.205c.315 0 .677.038 1.086.115.414.072.812.224 1.196.454.387.23.709.577.965 1.042.256.464.383 1.086.383 1.866V39h-1.508v-1.33h-.077c-.102.213-.273.441-.511.684-.239.243-.556.45-.953.62-.396.17-.88.256-1.451.256Zm.23-1.355c.597 0 1.1-.117 1.509-.352a2.396 2.396 0 0 0 1.253-2.077v-1.38c-.064.076-.205.146-.422.21-.213.06-.46.113-.741.16a34 34 0 0 1-1.445.192 5.78 5.78 0 0 0-1.1.25 1.9 1.9 0 0 0-.818.504c-.204.222-.307.524-.307.908 0 .524.194.92.582 1.189.392.264.889.396 1.489.396Zm13.415-4.474v1.406h-5.421V33.4h5.421Zm-5.063-4.22V39h-1.508v-9.818h1.508Zm6.213 0V39h-1.508v-9.818h1.508Zm9.146 4.22v1.406h-5.42V33.4h5.42Zm-5.062-4.22V39h-1.509v-9.818h1.509Zm6.213 0V39h-1.509v-9.818h1.509ZM904.365 39v-8.438h-2.608c-.588 0-1.05.137-1.387.41-.337.272-.505.647-.505 1.125 0 .468.151.837.454 1.105.307.269.727.403 1.259.403h3.171v1.406h-3.171c-.665 0-1.238-.117-1.719-.351a2.564 2.564 0 0 1-1.112-1.004c-.26-.439-.39-.959-.39-1.56 0-.604.136-1.124.409-1.56a2.65 2.65 0 0 1 1.169-1.003c.512-.234 1.119-.351 1.822-.351h4.04V39h-1.432Zm-6.545 0 2.787-4.883h1.636L899.456 39h-1.636Zm14.401 2.813v-4.22h.818a3.73 3.73 0 0 0 .895-1.54c.11-.336.204-.745.281-1.227.077-.486.145-1.072.204-1.758l.333-3.886h6.238v8.412h1.509v4.218h-1.509V39h-7.261v2.813h-1.508Zm2.531-4.22h4.73v-7.005h-3.324l-.256 2.48a27.502 27.502 0 0 1-.396 2.691c-.158.767-.409 1.379-.754 1.835Zm10.541 5.089c-.256 0-.484-.022-.684-.064a1.82 1.82 0 0 1-.416-.115l.384-1.33c.366.094.69.128.971.103.282-.026.531-.152.748-.378.222-.221.424-.581.608-1.08l.281-.767-3.631-9.87h1.637l2.71 7.825h.102l2.71-7.824h1.637l-4.168 11.25c-.187.507-.42.927-.697 1.26a2.606 2.606 0 0 1-.965.747 2.973 2.973 0 0 1-1.227.243Zm8.868-13.5h1.508v8.412h3.708v-8.412h1.508v8.412h3.708v-8.412h1.508V39h-11.94v-9.818ZM948.676 39v-9.818h1.509V39h-1.509Zm.767-11.454c-.294 0-.547-.1-.761-.301a.968.968 0 0 1-.313-.722c0-.282.105-.522.313-.723.214-.2.467-.3.761-.3s.546.1.754.3c.213.2.32.441.32.723a.957.957 0 0 1-.32.722c-.208.2-.46.3-.754.3Zm7.645 3.042v-1.406h7.977v1.406h-3.222V39h-1.508v-8.412h-3.247Zm12.377 8.642a3.991 3.991 0 0 1-1.694-.351 2.906 2.906 0 0 1-1.208-1.03c-.299-.451-.448-.997-.448-1.636 0-.562.111-1.018.333-1.368.221-.353.517-.63.888-.83.371-.201.78-.35 1.227-.448.452-.102.906-.184 1.362-.243.597-.077 1.08-.134 1.451-.173.375-.042.648-.113.818-.21.175-.099.262-.27.262-.512v-.051c0-.63-.172-1.12-.518-1.47-.34-.35-.858-.524-1.553-.524-.72 0-1.285.157-1.694.473-.409.315-.696.652-.863 1.01l-1.431-.512c.255-.596.596-1.061 1.022-1.393a3.834 3.834 0 0 1 1.407-.703 5.837 5.837 0 0 1 1.508-.205c.315 0 .678.038 1.087.115.413.072.811.224 1.195.454.388.23.71.577.965 1.042.256.464.384 1.086.384 1.866V39h-1.509v-1.33h-.077a2.64 2.64 0 0 1-.511.684c-.239.243-.556.45-.952.62-.397.17-.88.256-1.451.256Zm.23-1.355c.596 0 1.099-.117 1.508-.352a2.392 2.392 0 0 0 1.253-2.077v-1.38c-.064.076-.204.146-.422.21-.213.06-.46.113-.741.16a34 34 0 0 1-1.445.192 5.77 5.77 0 0 0-1.099.25c-.337.11-.61.278-.818.504-.205.222-.307.524-.307.908 0 .524.194.92.581 1.189.393.264.889.396 1.49.396ZM981.625 39V25.91h7.901v1.405h-6.316v4.091h3.324c.938 0 1.728.154 2.372.46.647.307 1.137.74 1.47 1.298.337.558.505 1.217.505 1.975 0 .759-.168 1.428-.505 2.007-.333.58-.823 1.034-1.47 1.362-.644.328-1.434.492-2.372.492h-4.909Zm1.585-1.38h3.324c.597 0 1.102-.12 1.515-.359.418-.242.733-.554.946-.933a2.42 2.42 0 0 0 .326-1.214c0-.627-.241-1.166-.722-1.618-.482-.456-1.17-.684-2.065-.684h-3.324v4.807Zm13.884 1.585c-.886 0-1.664-.211-2.333-.633-.664-.422-1.184-1.012-1.559-1.77-.371-.76-.556-1.646-.556-2.66 0-1.023.185-1.915.556-2.678.375-.763.895-1.355 1.559-1.777.669-.422 1.447-.633 2.333-.633.887 0 1.662.21 2.327.633.669.422 1.189 1.014 1.559 1.777.38.763.56 1.655.56 2.678 0 1.014-.18 1.9-.56 2.66-.37.758-.89 1.348-1.559 1.77-.665.422-1.44.633-2.327.633Zm0-1.356c.674 0 1.228-.172 1.662-.517.435-.346.757-.8.966-1.362a5.23 5.23 0 0 0 .308-1.828c0-.656-.1-1.268-.308-1.835a3.093 3.093 0 0 0-.966-1.374c-.434-.35-.988-.524-1.662-.524-.673 0-1.227.175-1.661.524-.435.35-.757.808-.966 1.374a5.285 5.285 0 0 0-.313 1.835c0 .656.105 1.266.313 1.828.209.563.531 1.017.966 1.362.434.345.988.517 1.661.517Zm12.636-8.667v1.406h-4.56V39h-1.5v-9.818h6.06Zm4.4 10.048c-.62 0-1.19-.117-1.7-.351-.5-.24-.91-.582-1.2-1.03-.3-.451-.45-.997-.45-1.636 0-.562.11-1.018.33-1.368.22-.353.52-.63.89-.83.37-.201.78-.35 1.23-.448.45-.102.9-.184 1.36-.243.59-.077 1.08-.134 1.45-.173.37-.042.65-.113.82-.21.17-.099.26-.27.26-.512v-.051c0-.63-.17-1.12-.52-1.47-.34-.35-.86-.524-1.55-.524-.72 0-1.29.157-1.7.473-.41.315-.69.652-.86 1.01l-1.43-.512c.25-.596.6-1.061 1.02-1.393.43-.337.9-.571 1.41-.703a5.812 5.812 0 0 1 1.51-.205c.31 0 .67.038 1.08.115a3.5 3.5 0 0 1 1.2.454c.39.23.71.577.96 1.042.26.464.39 1.086.39 1.866V39h-1.51v-1.33h-.08c-.1.213-.27.441-.51.684-.24.243-.56.45-.95.62-.4.17-.88.256-1.45.256Zm.23-1.355c.59 0 1.1-.117 1.51-.352.41-.234.72-.537.93-.907.21-.371.32-.76.32-1.17v-1.38c-.07.076-.21.146-.42.21a7.6 7.6 0 0 1-.74.16c-.28.043-.55.081-.82.115-.26.03-.47.055-.63.077-.39.051-.76.134-1.1.25-.34.11-.61.278-.82.504-.2.222-.3.524-.3.908 0 .524.19.92.58 1.189.39.264.89.396 1.49.396ZM1034.5 36.597c-.52 0-.99-.126-1.41-.378a2.962 2.962 0 0 1-1.03-1.022 2.736 2.736 0 0 1-.37-1.413c0-.52.12-.99.37-1.413.26-.426.6-.765 1.03-1.016.42-.256.89-.383 1.41-.383.52 0 .99.127 1.41.383.43.252.77.59 1.02 1.016.25.422.38.893.38 1.413 0 .516-.13.987-.38 1.413-.25.426-.59.767-1.02 1.022-.42.252-.89.378-1.41.378Zm24.88-10.688V39h-1.59V27.315h-6.59V39h-1.59V25.91h9.77Zm2.81 16.773v-13.5h1.46v1.56h.18c.11-.171.26-.388.46-.652.2-.269.48-.508.85-.716.38-.213.89-.32 1.53-.32.82 0 1.55.207 2.18.62.63.413 1.12 1 1.48 1.758.35.758.53 1.653.53 2.685 0 1.04-.18 1.94-.53 2.703-.36.759-.85 1.347-1.47 1.764-.63.414-1.35.62-2.17.62-.63 0-1.13-.104-1.51-.313-.38-.213-.68-.453-.88-.722-.2-.273-.36-.498-.47-.677h-.13v5.19h-1.51Zm1.48-8.591c0 .741.11 1.395.33 1.962.22.563.53 1.004.95 1.323.42.316.93.473 1.54.473.63 0 1.15-.166 1.58-.498.42-.337.74-.788.95-1.355a5.26 5.26 0 0 0 .33-1.905c0-.69-.11-1.313-.32-1.867-.21-.558-.53-.999-.95-1.323-.42-.328-.95-.492-1.59-.492-.62 0-1.13.156-1.55.467-.42.306-.73.737-.95 1.29-.21.55-.32 1.192-.32 1.925Zm12.2 5.14c-.62 0-1.19-.118-1.7-.352a2.94 2.94 0 0 1-1.2-1.03c-.3-.451-.45-.997-.45-1.636 0-.562.11-1.018.33-1.368.22-.353.52-.63.89-.83.37-.201.78-.35 1.23-.448.45-.102.9-.184 1.36-.243.6-.077 1.08-.134 1.45-.173.38-.042.65-.113.82-.21.17-.099.26-.27.26-.512v-.051c0-.63-.17-1.12-.52-1.47-.34-.35-.86-.524-1.55-.524-.72 0-1.29.157-1.69.473-.41.315-.7.652-.87 1.01l-1.43-.512c.26-.596.6-1.061 1.02-1.393.43-.337.9-.571 1.41-.703a5.812 5.812 0 0 1 1.51-.205c.31 0 .68.038 1.08.115.42.072.82.224 1.2.454.39.23.71.577.97 1.042.25.464.38 1.086.38 1.866V39h-1.51v-1.33h-.08c-.1.213-.27.441-.51.684-.24.243-.55.45-.95.62-.4.17-.88.256-1.45.256Zm.23-1.356c.6 0 1.1-.117 1.51-.352.41-.234.72-.537.93-.907.21-.371.32-.76.32-1.17v-1.38c-.06.076-.2.146-.42.21-.21.06-.46.113-.74.16-.28.043-.55.081-.81.115-.26.03-.48.055-.64.077-.39.051-.76.134-1.1.25-.33.11-.61.278-.82.504-.2.222-.3.524-.3.908 0 .524.19.92.58 1.189.39.264.89.396 1.49.396Zm14.56-8.693v8.412h1.38v4.576h-1.5V39h-7.6v-9.818h1.51v8.412h4.71v-8.412h1.5Zm8.23 4.295v1.407h-5.19v-1.407h5.19Zm-3.91-4.295V39h-1.51v-9.818h1.51Zm6.93 10.023c-.89 0-1.66-.211-2.33-.633-.67-.422-1.19-1.012-1.56-1.77-.37-.76-.56-1.646-.56-2.66 0-1.023.19-1.915.56-2.678.37-.763.89-1.355 1.56-1.777.67-.422 1.44-.633 2.33-.633.89 0 1.66.21 2.33.633.67.422 1.19 1.014 1.56 1.777.37.763.56 1.655.56 2.678 0 1.014-.19 1.9-.56 2.66-.37.758-.89 1.348-1.56 1.77-.67.422-1.44.633-2.33.633Zm0-1.356c.67 0 1.23-.172 1.66-.517.44-.346.76-.8.97-1.362.21-.562.31-1.172.31-1.828 0-.656-.1-1.268-.31-1.835-.21-.566-.53-1.024-.97-1.374-.43-.35-.99-.524-1.66-.524-.67 0-1.23.175-1.66.524-.44.35-.76.808-.97 1.374a5.238 5.238 0 0 0-.31 1.835c0 .656.1 1.266.31 1.828.21.563.53 1.017.97 1.362.43.345.99.517 1.66.517Zm11.43-4.372v1.407h-5.19v-1.407h5.19Zm-3.91-4.295V39h-1.51v-9.818h1.51Zm6.92 10.023c-.88 0-1.66-.211-2.33-.633-.66-.422-1.18-1.012-1.56-1.77-.37-.76-.55-1.646-.55-2.66 0-1.023.18-1.915.55-2.678.38-.763.9-1.355 1.56-1.777.67-.422 1.45-.633 2.33-.633.89 0 1.67.21 2.33.633.67.422 1.19 1.014 1.56 1.777.38.763.56 1.655.56 2.678 0 1.014-.18 1.9-.56 2.66-.37.758-.89 1.348-1.56 1.77-.66.422-1.44.633-2.33.633Zm0-1.356c.68 0 1.23-.172 1.67-.517.43-.346.75-.8.96-1.362.21-.562.31-1.172.31-1.828 0-.656-.1-1.268-.31-1.835a3.13 3.13 0 0 0-.96-1.374c-.44-.35-.99-.524-1.67-.524-.67 0-1.22.175-1.66.524-.43.35-.75.808-.96 1.374a5.24 5.24 0 0 0-.32 1.835c0 .656.11 1.266.32 1.828.21.563.53 1.017.96 1.362.44.345.99.517 1.66.517Zm11-1.355h1.61c.03.444.23.78.6 1.01.37.23.85.345 1.44.345.61 0 1.13-.123 1.56-.37.43-.252.64-.657.64-1.215 0-.328-.08-.613-.24-.856a1.6 1.6 0 0 0-.68-.576c-.3-.136-.65-.204-1.05-.204h-1.68v-1.355h1.68c.6 0 1.05-.137 1.33-.41.29-.272.44-.613.44-1.022 0-.439-.16-.79-.47-1.055-.31-.268-.75-.402-1.32-.402-.58 0-1.06.13-1.44.39-.38.255-.59.585-.61.99h-1.58c.01-.528.18-.995.48-1.4.31-.409.73-.728 1.26-.959.52-.234 1.13-.351 1.81-.351.69 0 1.29.121 1.8.364.51.239.9.565 1.18.978.28.41.42.874.42 1.394 0 .554-.15 1.001-.47 1.342-.31.341-.7.584-1.16.729v.102c.37.026.69.145.96.358.28.209.49.484.65.825.15.336.23.71.23 1.118 0 .597-.16 1.117-.48 1.56-.32.439-.76.78-1.32 1.023-.56.238-1.2.358-1.91.358-.7 0-1.32-.113-1.87-.34-.55-.23-.98-.547-1.31-.952-.32-.409-.49-.882-.5-1.419ZM1141.56 39v-9.818h4.01c1.06 0 1.9.239 2.52.716.62.477.93 1.108.93 1.892 0 .596-.17 1.059-.53 1.387-.35.324-.8.543-1.36.658.36.051.72.18 1.06.384.34.204.63.486.85.843.23.354.34.789.34 1.305 0 .502-.13.952-.38 1.348-.26.396-.62.71-1.1.94-.48.23-1.05.345-1.71.345h-4.63Zm1.43-1.38h3.2c.52 0 .92-.124 1.22-.371.29-.248.44-.584.44-1.01 0-.508-.15-.906-.44-1.196-.3-.294-.7-.44-1.22-.44h-3.2v3.016Zm0-4.322h2.58c.41 0 .75-.055 1.04-.166.29-.115.52-.277.67-.486.16-.213.23-.464.23-.754 0-.413-.17-.737-.51-.971-.35-.24-.82-.358-1.43-.358h-2.58v2.735Zm8.49 5.702v-9.818h1.51V39h-1.51Zm.77-11.454c-.29 0-.55-.1-.76-.301a.958.958 0 0 1-.31-.722c0-.282.1-.522.31-.723.21-.2.47-.3.76-.3.3 0 .55.1.76.3.21.2.32.441.32.723 0 .281-.11.522-.32.722-.21.2-.46.3-.76.3Zm4.83 9.23 4.74-7.594h1.73V39h-1.5v-7.594L1157.34 39h-1.76v-9.818h1.5v7.594Zm3.74-10.867h1.4c0 .69-.23 1.255-.71 1.694-.48.439-1.13.658-1.94.658s-1.45-.22-1.93-.658c-.47-.439-.71-1.004-.71-1.694h1.41c0 .332.09.624.27.876.19.251.51.377.96.377.44 0 .76-.126.95-.377.2-.252.3-.544.3-.876Zm9.31 13.296c-.93 0-1.72-.218-2.38-.652-.67-.435-1.18-1.034-1.54-1.797-.35-.762-.53-1.634-.53-2.614 0-.997.18-1.877.55-2.64.37-.767.88-1.366 1.54-1.796.67-.435 1.44-.652 2.33-.652.69 0 1.31.128 1.87.384.55.255 1 .613 1.36 1.073.35.46.57.998.66 1.611h-1.51c-.12-.447-.37-.844-.77-1.189-.39-.35-.92-.524-1.58-.524-.59 0-1.11.154-1.55.46-.44.303-.78.731-1.03 1.285-.24.55-.37 1.195-.37 1.937 0 .758.12 1.419.36 1.981.25.563.59 1 1.03 1.31.44.312.96.467 1.56.467.39 0 .74-.068 1.06-.204.32-.137.59-.333.81-.588.23-.256.38-.563.48-.92h1.51a3.521 3.521 0 0 1-1.96 2.665c-.55.268-1.18.403-1.9.403Zm7.19-6.47h2.81c1.15 0 2.03.293 2.64.877.61.583.91 1.323.91 2.218 0 .588-.13 1.122-.41 1.604-.27.477-.67.859-1.2 1.144-.53.281-1.18.422-1.94.422h-4.12v-9.818h1.51v8.412h2.61c.59 0 1.08-.158 1.47-.473.38-.316.57-.72.57-1.215 0-.52-.19-.944-.57-1.272-.39-.328-.88-.492-1.47-.492h-2.81v-1.406ZM1185.8 39v-9.818h1.51v4.27h.99l3.53-4.27h1.95l-3.97 4.73 4.02 5.088h-1.95l-3.22-4.142h-1.35V39h-1.51Zm13.07.205c-.89 0-1.66-.211-2.33-.633-.67-.422-1.19-1.012-1.56-1.77-.37-.76-.56-1.646-.56-2.66 0-1.023.19-1.915.56-2.678.37-.763.89-1.355 1.56-1.777.67-.422 1.44-.633 2.33-.633.89 0 1.66.21 2.33.633.67.422 1.19 1.014 1.56 1.777.37.763.56 1.655.56 2.678 0 1.014-.19 1.9-.56 2.66-.37.758-.89 1.348-1.56 1.77-.67.422-1.44.633-2.33.633Zm0-1.356c.67 0 1.23-.172 1.66-.517.44-.346.76-.8.97-1.362.21-.562.31-1.172.31-1.828 0-.656-.1-1.268-.31-1.835-.21-.566-.53-1.024-.97-1.374-.43-.35-.99-.524-1.66-.524-.67 0-1.23.175-1.66.524-.44.35-.76.808-.97 1.374a5.238 5.238 0 0 0-.31 1.835c0 .656.1 1.266.31 1.828.21.563.53 1.017.97 1.362.43.345.99.517 1.66.517Zm6.57 1.151v-9.818h4.02c1.05 0 1.89.239 2.51.716.63.477.94 1.108.94 1.892 0 .596-.18 1.059-.53 1.387-.36.324-.81.543-1.36.658.36.051.71.18 1.05.384.35.204.63.486.86.843.22.354.34.789.34 1.305 0 .502-.13.952-.39 1.348-.25.396-.62.71-1.1.94-.47.23-1.05.345-1.71.345h-4.63Zm1.43-1.38h3.2c.52 0 .93-.124 1.22-.371.29-.248.44-.584.44-1.01 0-.508-.15-.906-.44-1.196-.29-.294-.7-.44-1.22-.44h-3.2v3.016Zm0-4.322h2.59c.4 0 .75-.055 1.04-.166.29-.115.51-.277.66-.486.16-.213.24-.464.24-.754 0-.413-.17-.737-.52-.971-.34-.24-.82-.358-1.42-.358h-2.59v2.735Zm10.01 3.478 4.73-7.594h1.74V39h-1.51v-7.594L1217.13 39h-1.76v-9.818h1.51v7.594Zm14.42.178 3.43-7.772h1.43L1231.91 39h-1.22l-4.17-9.818h1.4l3.38 7.773Zm-3.86-7.772V39h-1.51v-9.818h1.51Zm7.72 9.818v-9.818h1.51V39h-1.51Zm5.6-2.224 4.73-7.594h1.74V39h-1.51v-7.594L1241.01 39h-1.76v-9.818h1.51v7.594Z" fill="#000305"/><path d="M1285.34 16.164a16.343 16.343 0 0 0-15.1 10.084 16.392 16.392 0 0 0-.93 9.439c.63 3.169 2.19 6.08 4.47 8.364a16.343 16.343 0 0 0 17.81 3.541 16.385 16.385 0 0 0 7.33-6.016 16.373 16.373 0 0 0 2.75-9.076c0-4.331-1.73-8.483-4.79-11.546a16.339 16.339 0 0 0-11.54-4.79Zm0 30.75a14.422 14.422 0 0 1-13.32-8.898 14.39 14.39 0 0 1-.82-8.328 14.478 14.478 0 0 1 3.94-7.38 14.414 14.414 0 0 1 15.71-3.125 14.365 14.365 0 0 1 6.47 5.309 14.446 14.446 0 0 1 2.43 8.008c0 3.822-1.52 7.485-4.23 10.188a14.412 14.412 0 0 1-10.18 4.226Zm7.08-15.093a.96.96 0 0 1 0 1.358l-5.12 5.125a.992.992 0 0 1-.68.258.98.98 0 0 1-.66-.281.967.967 0 0 1-.28-.663c0-.249.09-.49.26-.672l3.48-3.485h-10.49a.96.96 0 0 1-.68-1.64c.18-.18.42-.282.68-.282h10.49l-3.48-3.485a.982.982 0 0 1-.26-.672c0-.249.11-.487.28-.663a.98.98 0 0 1 .66-.28c.25-.005.49.087.68.257l5.12 5.125Z" fill="#EC8812"/></g><defs><clipPath id="a"><path fill="#fff" d="M0 0h1440v65H0z"/></clipPath></defs></svg>