<svg width="375" height="68" viewBox="0 0 375 68" fill="none" xmlns="http://www.w3.org/2000/svg">
    <g clip-path="url(#clip0_8331_39051)">
        <rect width="375" height="68" fill="#EEEEEE"/>
        <path d="M95.2855 25.1051V21.5298H95.8778C96.0795 21.3849 96.2642 21.1804 96.4318 20.9162C96.5994 20.6491 96.7429 20.2812 96.8622 19.8125C96.9815 19.3409 97.0668 18.7244 97.1179 17.9631L97.3651 14.2727H103.139V21.5298H104.094V25.0966H102.321V23H97.0582V25.1051H95.2855ZM98.0085 21.5298H101.366V15.794H99.027L98.8906 17.9631C98.8537 18.5398 98.7926 19.0511 98.7074 19.4972C98.625 19.9432 98.5241 20.3338 98.4048 20.669C98.2884 21.0014 98.1563 21.2884 98.0085 21.5298ZM105.061 23V16.4545H106.877V23H105.061ZM105.973 15.6108C105.704 15.6108 105.472 15.5213 105.279 15.3423C105.088 15.1605 104.993 14.9432 104.993 14.6903C104.993 14.4403 105.088 14.2259 105.279 14.0469C105.472 13.8651 105.704 13.7741 105.973 13.7741C106.243 13.7741 106.473 13.8651 106.664 14.0469C106.857 14.2259 106.954 14.4403 106.954 14.6903C106.954 14.9432 106.857 15.1605 106.664 15.3423C106.473 15.5213 106.243 15.6108 105.973 15.6108ZM107.874 21.1463H109.634C109.643 21.3622 109.739 21.5327 109.924 21.6577C110.109 21.7827 110.347 21.8452 110.64 21.8452C110.935 21.8452 111.184 21.777 111.386 21.6406C111.587 21.5014 111.688 21.3026 111.688 21.044C111.688 20.8849 111.648 20.7472 111.569 20.6307C111.489 20.5114 111.379 20.4176 111.237 20.3494C111.095 20.2812 110.93 20.2472 110.742 20.2472H109.8V19.0582H110.742C111.023 19.0582 111.239 18.9929 111.39 18.8622C111.543 18.7315 111.62 18.5682 111.62 18.3722C111.62 18.1506 111.541 17.973 111.381 17.8395C111.225 17.7031 111.014 17.6349 110.747 17.6349C110.477 17.6349 110.252 17.696 110.073 17.8182C109.897 17.9375 109.806 18.0937 109.8 18.2869H108.049C108.055 17.8949 108.173 17.5554 108.403 17.2685C108.636 16.9815 108.948 16.7599 109.34 16.6037C109.735 16.4474 110.177 16.3693 110.666 16.3693C111.2 16.3693 111.66 16.4446 112.046 16.5952C112.435 16.7429 112.734 16.9545 112.941 17.2301C113.151 17.5057 113.256 17.8338 113.256 18.2145C113.256 18.5611 113.143 18.8509 112.916 19.0838C112.688 19.3168 112.37 19.483 111.961 19.5824V19.6506C112.231 19.6676 112.475 19.7401 112.694 19.8679C112.913 19.9957 113.087 20.1719 113.218 20.3963C113.349 20.6179 113.414 20.8807 113.414 21.1847C113.414 21.5909 113.295 21.9389 113.056 22.2287C112.82 22.5185 112.494 22.7415 112.076 22.8977C111.661 23.0511 111.185 23.1278 110.648 23.1278C110.126 23.1278 109.657 23.0526 109.242 22.902C108.83 22.7486 108.502 22.5241 108.258 22.2287C108.016 21.9332 107.889 21.5724 107.874 21.1463ZM118.963 19.0028V20.4304H115.545V19.0028H118.963ZM116.142 16.4545V23H114.407V16.4545H116.142ZM120.101 16.4545V23H118.379V16.4545H120.101ZM123.255 23.1236C122.838 23.1236 122.466 23.0511 122.139 22.9062C121.812 22.7585 121.554 22.5412 121.363 22.2543C121.176 21.9645 121.082 21.6037 121.082 21.1719C121.082 20.8082 121.149 20.5028 121.282 20.2557C121.416 20.0085 121.598 19.8097 121.828 19.6591C122.058 19.5085 122.319 19.3949 122.612 19.3182C122.907 19.2415 123.217 19.1875 123.541 19.1562C123.922 19.1165 124.228 19.0795 124.461 19.0455C124.694 19.0085 124.863 18.9545 124.969 18.8835C125.074 18.8125 125.126 18.7074 125.126 18.5682V18.5426C125.126 18.2727 125.041 18.0639 124.87 17.9162C124.703 17.7685 124.464 17.6946 124.155 17.6946C123.828 17.6946 123.568 17.767 123.375 17.9119C123.182 18.054 123.054 18.233 122.991 18.4489L121.312 18.3125C121.397 17.9148 121.565 17.571 121.815 17.2812C122.065 16.9886 122.388 16.7642 122.782 16.608C123.18 16.4489 123.64 16.3693 124.163 16.3693C124.527 16.3693 124.875 16.4119 125.207 16.4972C125.542 16.5824 125.839 16.7145 126.098 16.8935C126.359 17.0724 126.565 17.3026 126.716 17.5838C126.866 17.8622 126.942 18.196 126.942 18.5852V23H125.22V22.0923H125.169C125.064 22.2969 124.923 22.4773 124.747 22.6335C124.571 22.7869 124.359 22.9077 124.112 22.9957C123.865 23.081 123.579 23.1236 123.255 23.1236ZM123.775 21.8707C124.042 21.8707 124.278 21.8182 124.483 21.7131C124.687 21.6051 124.848 21.4602 124.964 21.2784C125.081 21.0966 125.139 20.8906 125.139 20.6605V19.9659C125.082 20.0028 125.004 20.0369 124.905 20.0682C124.808 20.0966 124.699 20.1236 124.576 20.1491C124.454 20.1719 124.332 20.1932 124.21 20.2131C124.088 20.2301 123.977 20.2457 123.878 20.2599C123.665 20.2912 123.478 20.3409 123.319 20.4091C123.16 20.4773 123.037 20.5696 122.949 20.6861C122.861 20.7997 122.817 20.9418 122.817 21.1122C122.817 21.3594 122.906 21.5483 123.085 21.679C123.267 21.8068 123.497 21.8707 123.775 21.8707ZM129.964 20.6051L132.321 16.4545H134.111V23H132.38V18.8366L130.032 23H128.23V16.4545H129.964V20.6051ZM132.01 14.1705H133.275C133.273 14.6875 133.081 15.1037 132.7 15.419C132.322 15.7344 131.811 15.892 131.166 15.892C130.518 15.892 130.005 15.7344 129.628 15.419C129.25 15.1037 129.061 14.6875 129.061 14.1705H130.318C130.315 14.3665 130.378 14.5426 130.505 14.6989C130.636 14.8551 130.856 14.9332 131.166 14.9332C131.467 14.9332 131.683 14.8565 131.814 14.7031C131.944 14.5497 132.01 14.3722 132.01 14.1705ZM134.789 17.8821V16.4545H140.72V17.8821H138.611V23H136.881V17.8821H134.789ZM144.449 23.1278C143.776 23.1278 143.197 22.9915 142.711 22.7188C142.228 22.4432 141.856 22.054 141.594 21.5511C141.333 21.0455 141.202 20.4474 141.202 19.7571C141.202 19.0838 141.333 18.4929 141.594 17.9844C141.856 17.4759 142.224 17.0795 142.698 16.7955C143.175 16.5114 143.735 16.3693 144.377 16.3693C144.809 16.3693 145.211 16.4389 145.583 16.5781C145.958 16.7145 146.285 16.9205 146.563 17.196C146.844 17.4716 147.063 17.8182 147.219 18.2358C147.376 18.6506 147.454 19.1364 147.454 19.6932V20.1918H141.927V19.0668H145.745C145.745 18.8054 145.688 18.5739 145.574 18.3722C145.461 18.1705 145.303 18.0128 145.101 17.8991C144.903 17.7827 144.671 17.7244 144.407 17.7244C144.131 17.7244 143.887 17.7884 143.674 17.9162C143.464 18.0412 143.299 18.2102 143.18 18.4233C143.06 18.6335 142.999 18.8679 142.996 19.1264V20.196C142.996 20.5199 143.056 20.7997 143.175 21.0355C143.297 21.2713 143.469 21.4531 143.691 21.581C143.912 21.7088 144.175 21.7727 144.479 21.7727C144.681 21.7727 144.866 21.7443 145.033 21.6875C145.201 21.6307 145.344 21.5455 145.464 21.4318C145.583 21.3182 145.674 21.179 145.736 21.0142L147.415 21.125C147.33 21.5284 147.155 21.8807 146.891 22.1818C146.63 22.4801 146.292 22.7131 145.877 22.8807C145.465 23.0455 144.989 23.1278 144.449 23.1278ZM151.476 23.1278C150.805 23.1278 150.229 22.9858 149.746 22.7017C149.265 22.4148 148.896 22.017 148.638 21.5085C148.382 21 148.254 20.4148 148.254 19.7528C148.254 19.0824 148.383 18.4943 148.642 17.9886C148.903 17.4801 149.274 17.0838 149.754 16.7997C150.234 16.5128 150.805 16.3693 151.467 16.3693C152.038 16.3693 152.538 16.473 152.967 16.6804C153.396 16.8878 153.736 17.179 153.986 17.554C154.236 17.929 154.373 18.3693 154.399 18.875H152.686C152.638 18.5483 152.51 18.2855 152.302 18.0866C152.098 17.8849 151.829 17.7841 151.497 17.7841C151.216 17.7841 150.97 17.8608 150.76 18.0142C150.552 18.1648 150.39 18.3849 150.274 18.6747C150.158 18.9645 150.099 19.3153 150.099 19.7273C150.099 20.1449 150.156 20.5 150.27 20.7926C150.386 21.0852 150.55 21.3082 150.76 21.4616C150.97 21.6151 151.216 21.6918 151.497 21.6918C151.704 21.6918 151.89 21.6491 152.055 21.5639C152.223 21.4787 152.361 21.3551 152.469 21.1932C152.579 21.0284 152.652 20.831 152.686 20.6009H154.399C154.371 21.1009 154.234 21.5412 153.99 21.9219C153.748 22.2997 153.415 22.5952 152.989 22.8082C152.562 23.0213 152.058 23.1278 151.476 23.1278ZM159.277 23V17.8778H158.049C157.717 17.8778 157.464 17.9545 157.291 18.108C157.117 18.2614 157.032 18.4432 157.035 18.6534C157.032 18.8665 157.115 19.0469 157.282 19.1946C157.453 19.3395 157.703 19.4119 158.032 19.4119H159.882V20.6392H158.032C157.473 20.6392 156.988 20.554 156.579 20.3835C156.17 20.2131 155.855 19.9759 155.633 19.6719C155.411 19.3651 155.302 19.0085 155.305 18.6023C155.302 18.1761 155.411 17.8026 155.633 17.4815C155.855 17.1577 156.171 16.9062 156.583 16.7273C156.998 16.5455 157.487 16.4545 158.049 16.4545H160.968V23H159.277ZM155.117 23L156.937 19.5909H158.671L156.856 23H155.117ZM98.6818 41.1278C98.0114 41.1278 97.4347 40.9858 96.9517 40.7017C96.4716 40.4148 96.1023 40.017 95.8438 39.5085C95.5881 39 95.4602 38.4148 95.4602 37.7528C95.4602 37.0824 95.5895 36.4943 95.848 35.9886C96.1094 35.4801 96.4801 35.0838 96.9602 34.7997C97.4403 34.5128 98.0114 34.3693 98.6733 34.3693C99.2443 34.3693 99.7443 34.473 100.173 34.6804C100.602 34.8878 100.942 35.179 101.192 35.554C101.442 35.929 101.58 36.3693 101.605 36.875H99.892C99.8438 36.5483 99.7159 36.2855 99.5085 36.0866C99.304 35.8849 99.0355 35.7841 98.7031 35.7841C98.4219 35.7841 98.1761 35.8608 97.9659 36.0142C97.7585 36.1648 97.5966 36.3849 97.4801 36.6747C97.3636 36.9645 97.3054 37.3153 97.3054 37.7273C97.3054 38.1449 97.3622 38.5 97.4759 38.7926C97.5923 39.0852 97.7557 39.3082 97.9659 39.4616C98.1761 39.6151 98.4219 39.6918 98.7031 39.6918C98.9105 39.6918 99.0966 39.6491 99.2614 39.5639C99.429 39.4787 99.5668 39.3551 99.6747 39.1932C99.7855 39.0284 99.858 38.831 99.892 38.6009H101.605C101.577 39.1009 101.44 39.5412 101.196 39.9219C100.955 40.2997 100.621 40.5952 100.195 40.8082C99.7685 41.0213 99.2642 41.1278 98.6818 41.1278ZM105.63 41.1278C104.957 41.1278 104.378 40.9915 103.892 40.7188C103.409 40.4432 103.037 40.054 102.775 39.5511C102.514 39.0455 102.383 38.4474 102.383 37.7571C102.383 37.0838 102.514 36.4929 102.775 35.9844C103.037 35.4759 103.405 35.0795 103.879 34.7955C104.356 34.5114 104.916 34.3693 105.558 34.3693C105.99 34.3693 106.392 34.4389 106.764 34.5781C107.139 34.7145 107.466 34.9205 107.744 35.196C108.025 35.4716 108.244 35.8182 108.4 36.2358C108.556 36.6506 108.635 37.1364 108.635 37.6932V38.1918H103.108V37.0668H106.926C106.926 36.8054 106.869 36.5739 106.755 36.3722C106.642 36.1705 106.484 36.0128 106.282 35.8991C106.083 35.7827 105.852 35.7244 105.588 35.7244C105.312 35.7244 105.068 35.7884 104.855 35.9162C104.645 36.0412 104.48 36.2102 104.36 36.4233C104.241 36.6335 104.18 36.8679 104.177 37.1264V38.196C104.177 38.5199 104.237 38.7997 104.356 39.0355C104.478 39.2713 104.65 39.4531 104.872 39.581C105.093 39.7088 105.356 39.7727 105.66 39.7727C105.862 39.7727 106.047 39.7443 106.214 39.6875C106.382 39.6307 106.525 39.5455 106.645 39.4318C106.764 39.3182 106.855 39.179 106.917 39.0142L108.596 39.125C108.511 39.5284 108.336 39.8807 108.072 40.1818C107.811 40.4801 107.473 40.7131 107.058 40.8807C106.646 41.0455 106.17 41.1278 105.63 41.1278ZM109.699 41V34.4545H111.515V36.9943H112.026L113.807 34.4545H115.938L113.624 37.7017L115.963 41H113.807L112.192 38.6776H111.515V41H109.699ZM116.611 43.4545V34.4545H118.4V35.554H118.481C118.561 35.3778 118.676 35.1989 118.826 35.017C118.98 34.8324 119.179 34.679 119.423 34.5568C119.67 34.4318 119.977 34.3693 120.343 34.3693C120.821 34.3693 121.261 34.4943 121.665 34.7443C122.068 34.9915 122.39 35.3651 122.632 35.8651C122.873 36.3622 122.994 36.9858 122.994 37.7358C122.994 38.4659 122.876 39.0824 122.64 39.5852C122.407 40.0852 122.089 40.4645 121.686 40.723C121.285 40.9787 120.836 41.1065 120.339 41.1065C119.987 41.1065 119.687 41.0483 119.44 40.9318C119.196 40.8153 118.995 40.669 118.839 40.4929C118.683 40.3139 118.564 40.1335 118.481 39.9517H118.426V43.4545H116.611ZM118.388 37.7273C118.388 38.1165 118.441 38.456 118.549 38.7457C118.657 39.0355 118.814 39.2614 119.018 39.4233C119.223 39.5824 119.471 39.6619 119.764 39.6619C120.059 39.6619 120.309 39.581 120.514 39.419C120.718 39.2543 120.873 39.027 120.978 38.7372C121.086 38.4446 121.14 38.108 121.14 37.7273C121.14 37.3494 121.088 37.017 120.983 36.7301C120.878 36.4432 120.723 36.2187 120.518 36.0568C120.314 35.8949 120.062 35.8139 119.764 35.8139C119.468 35.8139 119.218 35.892 119.014 36.0483C118.812 36.2045 118.657 36.4261 118.549 36.7131C118.441 37 118.388 37.3381 118.388 37.7273ZM127.067 41.1278C126.394 41.1278 125.814 40.9915 125.329 40.7188C124.846 40.4432 124.473 40.054 124.212 39.5511C123.951 39.0455 123.82 38.4474 123.82 37.7571C123.82 37.0838 123.951 36.4929 124.212 35.9844C124.473 35.4759 124.841 35.0795 125.316 34.7955C125.793 34.5114 126.353 34.3693 126.995 34.3693C127.427 34.3693 127.829 34.4389 128.201 34.5781C128.576 34.7145 128.902 34.9205 129.181 35.196C129.462 35.4716 129.681 35.8182 129.837 36.2358C129.993 36.6506 130.071 37.1364 130.071 37.6932V38.1918H124.545V37.0668H128.363C128.363 36.8054 128.306 36.5739 128.192 36.3722C128.079 36.1705 127.921 36.0128 127.719 35.8991C127.52 35.7827 127.289 35.7244 127.025 35.7244C126.749 35.7244 126.505 35.7884 126.292 35.9162C126.081 36.0412 125.917 36.2102 125.797 36.4233C125.678 36.6335 125.617 36.8679 125.614 37.1264V38.196C125.614 38.5199 125.674 38.7997 125.793 39.0355C125.915 39.2713 126.087 39.4531 126.309 39.581C126.53 39.7088 126.793 39.7727 127.097 39.7727C127.299 39.7727 127.483 39.7443 127.651 39.6875C127.819 39.6307 127.962 39.5455 128.081 39.4318C128.201 39.3182 128.292 39.179 128.354 39.0142L130.033 39.125C129.948 39.5284 129.773 39.8807 129.509 40.1818C129.248 40.4801 128.91 40.7131 128.495 40.8807C128.083 41.0455 127.607 41.1278 127.067 41.1278ZM130.631 35.8821V34.4545H136.563V35.8821H134.454V41H132.724V35.8821H130.631ZM139.278 38.6051L141.634 34.4545H143.424V41H141.694V36.8366L139.346 41H137.543V34.4545H139.278V38.6051ZM153.097 34.4545V41H151.376V34.4545H153.097ZM152.258 37.3267V38.7585C152.118 38.821 151.945 38.8807 151.738 38.9375C151.53 38.9915 151.313 39.0355 151.086 39.0696C150.859 39.1037 150.645 39.1207 150.447 39.1207C149.506 39.1207 148.766 38.9276 148.226 38.5412C147.687 38.152 147.417 37.5312 147.417 36.679V34.446H149.13V36.679C149.13 36.9318 149.172 37.1321 149.258 37.2798C149.346 37.4276 149.485 37.5341 149.675 37.5994C149.868 37.6619 150.126 37.6932 150.447 37.6932C150.745 37.6932 151.038 37.6619 151.324 37.5994C151.611 37.5369 151.922 37.446 152.258 37.3267ZM157.344 41.1278C156.682 41.1278 156.11 40.9872 155.627 40.706C155.147 40.4219 154.776 40.027 154.514 39.5213C154.253 39.0128 154.122 38.4233 154.122 37.7528C154.122 37.0767 154.253 36.4858 154.514 35.9801C154.776 35.4716 155.147 35.0767 155.627 34.7955C156.11 34.5114 156.682 34.3693 157.344 34.3693C158.006 34.3693 158.577 34.5114 159.057 34.7955C159.54 35.0767 159.912 35.4716 160.174 35.9801C160.435 36.4858 160.566 37.0767 160.566 37.7528C160.566 38.4233 160.435 39.0128 160.174 39.5213C159.912 40.027 159.54 40.4219 159.057 40.706C158.577 40.9872 158.006 41.1278 157.344 41.1278ZM157.353 39.7216C157.654 39.7216 157.905 39.6364 158.107 39.4659C158.308 39.2926 158.46 39.0568 158.563 38.7585C158.668 38.4602 158.72 38.1207 158.72 37.7401C158.72 37.3594 158.668 37.0199 158.563 36.7216C158.46 36.4233 158.308 36.1875 158.107 36.0142C157.905 35.8409 157.654 35.7543 157.353 35.7543C157.049 35.7543 156.793 35.8409 156.585 36.0142C156.381 36.1875 156.226 36.4233 156.121 36.7216C156.019 37.0199 155.968 37.3594 155.968 37.7401C155.968 38.1207 156.019 38.4602 156.121 38.7585C156.226 39.0568 156.381 39.2926 156.585 39.4659C156.793 39.6364 157.049 39.7216 157.353 39.7216ZM161.242 41L161.234 39.5597H161.451C161.605 39.5597 161.737 39.5227 161.848 39.4489C161.961 39.3722 162.055 39.2486 162.129 39.0781C162.203 38.9077 162.261 38.6818 162.304 38.4006C162.346 38.1165 162.375 37.767 162.389 37.3523L162.495 34.4545H167.473V41H165.742V35.8821H164.127L164.025 37.8807C164 38.429 163.933 38.9006 163.825 39.2955C163.72 39.6903 163.573 40.0142 163.386 40.267C163.198 40.517 162.973 40.7017 162.708 40.821C162.444 40.9403 162.137 41 161.788 41H161.242ZM171.717 41.1278C171.055 41.1278 170.483 40.9872 170 40.706C169.52 40.4219 169.149 40.027 168.888 39.5213C168.626 39.0128 168.496 38.4233 168.496 37.7528C168.496 37.0767 168.626 36.4858 168.888 35.9801C169.149 35.4716 169.52 35.0767 170 34.7955C170.483 34.5114 171.055 34.3693 171.717 34.3693C172.379 34.3693 172.95 34.5114 173.43 34.7955C173.913 35.0767 174.285 35.4716 174.547 35.9801C174.808 36.4858 174.939 37.0767 174.939 37.7528C174.939 38.4233 174.808 39.0128 174.547 39.5213C174.285 40.027 173.913 40.4219 173.43 40.706C172.95 40.9872 172.379 41.1278 171.717 41.1278ZM171.726 39.7216C172.027 39.7216 172.278 39.6364 172.48 39.4659C172.682 39.2926 172.834 39.0568 172.936 38.7585C173.041 38.4602 173.094 38.1207 173.094 37.7401C173.094 37.3594 173.041 37.0199 172.936 36.7216C172.834 36.4233 172.682 36.1875 172.48 36.0142C172.278 35.8409 172.027 35.7543 171.726 35.7543C171.422 35.7543 171.166 35.8409 170.959 36.0142C170.754 36.1875 170.599 36.4233 170.494 36.7216C170.392 37.0199 170.341 37.3594 170.341 37.7401C170.341 38.1207 170.392 38.4602 170.494 38.7585C170.599 39.0568 170.754 39.2926 170.959 39.4659C171.166 39.6364 171.422 39.7216 171.726 39.7216ZM175.999 41V34.4545H178.79C179.597 34.4545 180.235 34.608 180.704 34.9148C181.173 35.2216 181.407 35.6577 181.407 36.223C181.407 36.5781 181.275 36.8736 181.011 37.1094C180.746 37.3452 180.38 37.5043 179.911 37.5866C180.303 37.6151 180.637 37.7045 180.913 37.8551C181.191 38.0028 181.403 38.1946 181.548 38.4304C181.695 38.6662 181.769 38.9276 181.769 39.2145C181.769 39.5866 181.67 39.9062 181.471 40.1733C181.275 40.4403 180.986 40.6449 180.606 40.7869C180.228 40.929 179.766 41 179.221 41H175.999ZM177.691 39.6406H179.221C179.474 39.6406 179.671 39.581 179.813 39.4616C179.958 39.3395 180.031 39.1733 180.031 38.9631C180.031 38.7301 179.958 38.5469 179.813 38.4134C179.671 38.2798 179.474 38.2131 179.221 38.2131H177.691V39.6406ZM177.691 37.1477H178.829C179.011 37.1477 179.165 37.1222 179.293 37.071C179.424 37.017 179.523 36.9403 179.592 36.8409C179.663 36.7415 179.698 36.6236 179.698 36.4872C179.698 36.2855 179.617 36.1278 179.455 36.0142C179.293 35.9006 179.072 35.8438 178.79 35.8438H177.691V37.1477ZM182.793 41V34.4545H184.609V41H182.793ZM183.705 33.6108C183.435 33.6108 183.204 33.5213 183.011 33.3423C182.82 33.1605 182.725 32.9432 182.725 32.6903C182.725 32.4403 182.82 32.2259 183.011 32.0469C183.204 31.8651 183.435 31.7741 183.705 31.7741C183.975 31.7741 184.205 31.8651 184.396 32.0469C184.589 32.2259 184.685 32.4403 184.685 32.6903C184.685 32.9432 184.589 33.1605 184.396 33.3423C184.205 33.5213 183.975 33.6108 183.705 33.6108ZM191.623 34.4545V41H189.902V34.4545H191.623ZM190.784 37.3267V38.7585C190.645 38.821 190.471 38.8807 190.264 38.9375C190.057 38.9915 189.839 39.0355 189.612 39.0696C189.385 39.1037 189.172 39.1207 188.973 39.1207C188.032 39.1207 187.292 38.9276 186.753 38.5412C186.213 38.152 185.943 37.5312 185.943 36.679V34.446H187.656V36.679C187.656 36.9318 187.699 37.1321 187.784 37.2798C187.872 37.4276 188.011 37.5341 188.201 37.5994C188.395 37.6619 188.652 37.6932 188.973 37.6932C189.271 37.6932 189.564 37.6619 189.851 37.5994C190.137 37.5369 190.449 37.446 190.784 37.3267ZM195.87 41.1278C195.208 41.1278 194.636 40.9872 194.153 40.706C193.673 40.4219 193.302 40.027 193.041 39.5213C192.779 39.0128 192.649 38.4233 192.649 37.7528C192.649 37.0767 192.779 36.4858 193.041 35.9801C193.302 35.4716 193.673 35.0767 194.153 34.7955C194.636 34.5114 195.208 34.3693 195.87 34.3693C196.532 34.3693 197.103 34.5114 197.583 34.7955C198.066 35.0767 198.438 35.4716 198.7 35.9801C198.961 36.4858 199.092 37.0767 199.092 37.7528C199.092 38.4233 198.961 39.0128 198.7 39.5213C198.438 40.027 198.066 40.4219 197.583 40.706C197.103 40.9872 196.532 41.1278 195.87 41.1278ZM195.879 39.7216C196.18 39.7216 196.431 39.6364 196.633 39.4659C196.835 39.2926 196.987 39.0568 197.089 38.7585C197.194 38.4602 197.247 38.1207 197.247 37.7401C197.247 37.3594 197.194 37.0199 197.089 36.7216C196.987 36.4233 196.835 36.1875 196.633 36.0142C196.431 35.8409 196.18 35.7543 195.879 35.7543C195.575 35.7543 195.319 35.8409 195.112 36.0142C194.907 36.1875 194.752 36.4233 194.647 36.7216C194.545 37.0199 194.494 37.3594 194.494 37.7401C194.494 38.1207 194.545 38.4602 194.647 38.7585C194.752 39.0568 194.907 39.2926 195.112 39.4659C195.319 39.6364 195.575 39.7216 195.879 39.7216ZM200.152 41V34.4545H201.967V41H200.152ZM199.764 33.5597C199.52 33.5597 199.31 33.4744 199.134 33.304C198.957 33.1307 198.869 32.9261 198.869 32.6903C198.869 32.4489 198.957 32.2443 199.134 32.0767C199.31 31.9091 199.52 31.8253 199.764 31.8253C200.011 31.8253 200.22 31.9091 200.391 32.0767C200.564 32.2443 200.651 32.4489 200.651 32.6903C200.651 32.9261 200.564 33.1307 200.391 33.304C200.22 33.4744 200.011 33.5597 199.764 33.5597ZM202.372 33.5597C202.128 33.5597 201.918 33.4744 201.742 33.304C201.565 33.1307 201.477 32.9261 201.477 32.6903C201.477 32.4489 201.565 32.2443 201.742 32.0767C201.918 31.9091 202.128 31.8253 202.372 31.8253C202.619 31.8253 202.828 31.9091 202.999 32.0767C203.172 32.2443 203.259 32.4489 203.259 32.6903C203.259 32.9261 203.172 33.1307 202.999 33.304C202.828 33.4744 202.619 33.5597 202.372 33.5597ZM95.7244 59V52.4545H101.447V59H99.7131V53.8821H97.4375V59H95.7244ZM105.734 59.1278C105.063 59.1278 104.487 58.9858 104.004 58.7017C103.523 58.4148 103.154 58.017 102.896 57.5085C102.64 57 102.512 56.4148 102.512 55.7528C102.512 55.0824 102.641 54.4943 102.9 53.9886C103.161 53.4801 103.532 53.0838 104.012 52.7997C104.492 52.5128 105.063 52.3693 105.725 52.3693C106.296 52.3693 106.796 52.473 107.225 52.6804C107.654 52.8878 107.994 53.179 108.244 53.554C108.494 53.929 108.631 54.3693 108.657 54.875H106.944C106.896 54.5483 106.768 54.2855 106.56 54.0866C106.356 53.8849 106.087 53.7841 105.755 53.7841C105.474 53.7841 105.228 53.8608 105.018 54.0142C104.81 54.1648 104.648 54.3849 104.532 54.6747C104.416 54.9645 104.357 55.3153 104.357 55.7273C104.357 56.1449 104.414 56.5 104.528 56.7926C104.644 57.0852 104.808 57.3082 105.018 57.4616C105.228 57.6151 105.474 57.6918 105.755 57.6918C105.962 57.6918 106.148 57.6491 106.313 57.5639C106.481 57.4787 106.619 57.3551 106.727 57.1932C106.837 57.0284 106.91 56.831 106.944 56.6009H108.657C108.629 57.1009 108.492 57.5412 108.248 57.9219C108.006 58.2997 107.673 58.5952 107.246 58.8082C106.82 59.0213 106.316 59.1278 105.734 59.1278ZM111.434 56.6051L113.79 52.4545H115.58V59H113.85V54.8366L111.502 59H109.699V52.4545H111.434V56.6051ZM118.432 52.4545L119.634 54.7429L120.865 52.4545H122.728L120.831 55.7273L122.779 59H120.925L119.634 56.7372L118.364 59H116.489L118.432 55.7273L116.557 52.4545H118.432ZM126.409 59.1278C125.747 59.1278 125.174 58.9872 124.692 58.706C124.211 58.4219 123.841 58.027 123.579 57.5213C123.318 57.0128 123.187 56.4233 123.187 55.7528C123.187 55.0767 123.318 54.4858 123.579 53.9801C123.841 53.4716 124.211 53.0767 124.692 52.7955C125.174 52.5114 125.747 52.3693 126.409 52.3693C127.071 52.3693 127.642 52.5114 128.122 52.7955C128.605 53.0767 128.977 53.4716 129.238 53.9801C129.5 54.4858 129.63 55.0767 129.63 55.7528C129.63 56.4233 129.5 57.0128 129.238 57.5213C128.977 58.027 128.605 58.4219 128.122 58.706C127.642 58.9872 127.071 59.1278 126.409 59.1278ZM126.417 57.7216C126.719 57.7216 126.97 57.6364 127.172 57.4659C127.373 57.2926 127.525 57.0568 127.628 56.7585C127.733 56.4602 127.785 56.1207 127.785 55.7401C127.785 55.3594 127.733 55.0199 127.628 54.7216C127.525 54.4233 127.373 54.1875 127.172 54.0142C126.97 53.8409 126.719 53.7543 126.417 53.7543C126.113 53.7543 125.858 53.8409 125.65 54.0142C125.446 54.1875 125.291 54.4233 125.186 54.7216C125.084 55.0199 125.032 55.3594 125.032 55.7401C125.032 56.1207 125.084 56.4602 125.186 56.7585C125.291 57.0568 125.446 57.2926 125.65 57.4659C125.858 57.6364 126.113 57.7216 126.417 57.7216ZM130.307 59L130.299 57.5597H130.516C130.67 57.5597 130.802 57.5227 130.912 57.4489C131.026 57.3722 131.12 57.2486 131.194 57.0781C131.268 56.9077 131.326 56.6818 131.368 56.4006C131.411 56.1165 131.439 55.767 131.454 55.3523L131.56 52.4545H136.537V59H134.807V53.8821H133.192L133.09 55.8807C133.064 56.429 132.998 56.9006 132.89 57.2955C132.785 57.6903 132.638 58.0142 132.451 58.267C132.263 58.517 132.037 58.7017 131.773 58.821C131.509 58.9403 131.202 59 130.853 59H130.307ZM140.782 59.1278C140.12 59.1278 139.548 58.9872 139.065 58.706C138.585 58.4219 138.214 58.027 137.953 57.5213C137.691 57.0128 137.561 56.4233 137.561 55.7528C137.561 55.0767 137.691 54.4858 137.953 53.9801C138.214 53.4716 138.585 53.0767 139.065 52.7955C139.548 52.5114 140.12 52.3693 140.782 52.3693C141.444 52.3693 142.015 52.5114 142.495 52.7955C142.978 53.0767 143.35 53.4716 143.612 53.9801C143.873 54.4858 144.004 55.0767 144.004 55.7528C144.004 56.4233 143.873 57.0128 143.612 57.5213C143.35 58.027 142.978 58.4219 142.495 58.706C142.015 58.9872 141.444 59.1278 140.782 59.1278ZM140.791 57.7216C141.092 57.7216 141.343 57.6364 141.545 57.4659C141.747 57.2926 141.899 57.0568 142.001 56.7585C142.106 56.4602 142.159 56.1207 142.159 55.7401C142.159 55.3594 142.106 55.0199 142.001 54.7216C141.899 54.4233 141.747 54.1875 141.545 54.0142C141.343 53.8409 141.092 53.7543 140.791 53.7543C140.487 53.7543 140.231 53.8409 140.024 54.0142C139.819 54.1875 139.664 54.4233 139.559 54.7216C139.457 55.0199 139.406 55.3594 139.406 55.7401C139.406 56.1207 139.457 56.4602 139.559 56.7585C139.664 57.0568 139.819 57.2926 140.024 57.4659C140.231 57.6364 140.487 57.7216 140.791 57.7216ZM149.547 52.4545V53.8821H146.828V59H145.064V52.4545H149.547ZM150.534 59V52.4545H152.349V59H150.534ZM151.446 51.6108C151.176 51.6108 150.944 51.5213 150.751 51.3423C150.561 51.1605 150.466 50.9432 150.466 50.6903C150.466 50.4403 150.561 50.2259 150.751 50.0469C150.944 49.8651 151.176 49.7741 151.446 49.7741C151.716 49.7741 151.946 49.8651 152.136 50.0469C152.329 50.2259 152.426 50.4403 152.426 50.6903C152.426 50.9432 152.329 51.1605 152.136 51.3423C151.946 51.5213 151.716 51.6108 151.446 51.6108ZM154.164 59V52.4545H155.979V59H154.164ZM153.776 51.5597C153.532 51.5597 153.322 51.4744 153.145 51.304C152.969 51.1307 152.881 50.9261 152.881 50.6903C152.881 50.4489 152.969 50.2443 153.145 50.0767C153.322 49.9091 153.532 49.8253 153.776 49.8253C154.023 49.8253 154.232 49.9091 154.403 50.0767C154.576 50.2443 154.663 50.4489 154.663 50.6903C154.663 50.9261 154.576 51.1307 154.403 51.304C154.232 51.4744 154.023 51.5597 153.776 51.5597ZM156.384 51.5597C156.14 51.5597 155.93 51.4744 155.753 51.304C155.577 51.1307 155.489 50.9261 155.489 50.6903C155.489 50.4489 155.577 50.2443 155.753 50.0767C155.93 49.9091 156.14 49.8253 156.384 49.8253C156.631 49.8253 156.84 49.9091 157.011 50.0767C157.184 50.2443 157.27 50.4489 157.27 50.6903C157.27 50.9261 157.184 51.1307 157.011 51.304C156.84 51.4744 156.631 51.5597 156.384 51.5597Z" fill="#EC8812"/>
        <path d="M43.356 55.1093L58.2468 58.6764L56.5193 37.8085L43.3677 38.8973L43.356 55.1093Z" fill="#F5C5C7"/>
        <path d="M54.008 43.7831C62.0139 43.7831 68.5039 37.2929 68.5039 29.2868C68.5039 21.2807 62.0139 14.7905 54.008 14.7905C46.0022 14.7905 39.5122 21.2807 39.5122 29.2868C39.5122 37.2929 46.0022 43.7831 54.008 43.7831Z" fill="#F5C5C7"/>
        <path d="M69.3074 90.8686C69.1914 90.9079 69.0774 90.9433 68.9615 90.9787C68.9281 90.9885 68.8947 91.0003 68.8613 91.0101C67.633 91.3914 66.387 91.7314 65.1273 92.034C60.5305 93.1425 55.7293 93.7282 50.7945 93.7282C49.4071 93.7282 48.0314 93.683 46.6694 93.5906C45.2761 93.4982 43.8964 93.3587 42.5325 93.172C41.9783 93.0973 41.4281 93.0167 40.8797 92.9263C39.3174 92.6728 37.7727 92.3564 36.2515 91.9849C35.7386 91.8611 35.2276 91.7294 34.7186 91.5879C34.5437 91.5427 34.3688 91.4936 34.1959 91.4445C33.4785 91.242 32.7651 91.0278 32.0576 90.7979C32.0105 90.7841 31.9613 90.7684 31.9142 90.7527C31.2814 90.5483 30.6525 90.3321 30.0275 90.1061C29.4655 89.9036 28.9073 89.6914 28.3511 89.4713C27.115 88.9839 25.9005 88.4572 24.7056 87.8911L25.1654 85.8079L26.7593 78.5912L30.2201 62.9118L33.7183 47.0672L42.9099 47.3227H42.9138L43.3619 47.3365L57.3409 47.7256L63.4568 47.8966L69.3074 90.8686Z" fill="#EC8812"/>
        <path d="M82.9979 84.5579C81.1466 85.7115 79.2265 86.7669 77.2494 87.7182C76.7601 87.954 76.2648 88.182 75.7676 88.406C75.6792 88.4453 75.5927 88.4846 75.5043 88.522C75.0759 88.7126 74.6455 88.8974 74.2111 89.0762L74.0166 89.1588C73.9026 89.2059 73.7886 89.2531 73.6727 89.2983C72.2439 89.8761 70.7896 90.4028 69.3098 90.8686C69.1938 90.9079 69.0798 90.9433 68.9639 90.9787L56.1424 58.1713L55.2757 55.9564L52.8585 49.7676L52.0566 47.7177L57.3491 47.8003L63.4591 47.8966C69.0051 48.6061 73.6039 52.5308 75.1781 57.8942L82.9998 84.5579L82.9979 84.5579Z" fill="#EC8812"/>
        <path d="M43.8392 35.91C44.3541 35.8235 44.869 35.7351 45.3839 35.6486C45.5058 32.8952 45.7711 29.8234 47.8327 27.9936C48.9686 26.9854 50.6116 26.3978 51.1756 24.9867C51.6433 23.8173 51.207 22.3806 51.8595 21.3036C52.5454 20.1696 54.0783 19.9672 55.4029 19.8847C57.4763 19.7569 59.587 19.6311 61.6053 20.1225C63.6236 20.6158 65.5712 21.8303 66.432 23.721C66.6973 24.3027 66.8506 24.9297 67.0039 25.5507C67.5208 27.6517 68.3128 31.6492 68.3128 31.6492C68.3128 31.6492 68.4661 30.8217 68.9023 29.2121C69.7926 27.9386 70.8794 26.7633 71.4022 25.3011C72.0311 23.5402 71.754 21.5729 71.1369 19.81C69.7356 15.7987 66.4851 12.4085 62.4366 11.1193C58.3862 9.83199 54.5559 9.10285 51.5293 12.0862C50.9614 12.6463 50.4504 13.2713 49.8019 13.7351C48.6031 14.594 47.0721 14.8102 45.72 15.4037C42.7112 16.7244 39.9912 19.9004 39.3132 23.1157C38.6352 26.331 38.989 29.6622 39.3466 32.9306C39.6552 35.7488 40.9935 38.8914 43.3401 40.4833C43.4364 39.0408 43.5327 37.6002 43.629 36.1576L43.8373 35.912H43.8392V35.91Z" fill="#2F2E43"/>
        <path d="M51.8638 49.4629L51.7223 49.6948L47.7643 56.1647L41.896 65.7634L40.707 67.7071L36.3716 74.7981C36.3716 74.7981 34.9645 76.7771 32.5904 79.3144L32.5826 79.3222C31.7198 80.242 30.7313 81.2345 29.6366 82.2309C29.6288 82.2408 29.6209 82.2486 29.6111 82.2545C28.2747 83.473 26.7811 84.6974 25.1656 85.8078C24.5014 86.2658 23.8175 86.7021 23.1178 87.1109C22.9744 87.0401 22.8329 86.9654 22.6914 86.8927C15.9662 83.4003 9.97214 78.6953 5 73.0666C10.1903 64.7768 20.4608 55.4808 27.0779 49.9444C30.8217 46.8097 35.8233 45.6286 40.5714 46.7645L42.9101 47.3227L43.3621 47.4308L51.8638 49.4629Z" fill="#EC8812"/>
        <path d="M70.3291 47.4681C67.7801 46.5503 61.0333 46.5464 58.0068 47.5684C57.4192 47.7669 57.0635 48.3643 57.1657 48.9755L57.2856 49.7007C57.0222 49.6614 56.7648 49.5868 56.5211 49.4747C55.7998 49.1446 54.3789 48.6965 52.9443 49.4118C51.942 49.911 51.2365 50.8524 50.9888 51.9471C50.3973 54.565 51.8889 56.0134 51.8889 56.0134L53.8758 57.8785C55.5404 59.439 57.3563 60.8304 59.296 62.0293L59.3353 62.0529L58.6278 57.796C58.2289 58.4976 57.3268 58.7275 56.6409 58.303C54.9076 57.2299 52.0756 55.0799 52.4195 52.6389C52.6593 50.9369 53.6046 50.5753 54.5126 50.652C55.5286 50.7384 56.4149 51.3772 56.8493 52.2989C56.9534 52.519 57.1244 52.6998 57.3367 52.8178L57.8476 53.0968L59.3452 62.1197C59.412 62.5245 59.6714 62.8744 60.0389 63.0552C63.5607 64.7827 67.3615 63.8865 68.6763 63.4836C68.977 63.3913 69.2344 63.1928 69.3956 62.9215L69.6786 62.4518C69.7768 62.2907 69.8358 62.1079 69.8554 61.9212L71.1623 48.7888C71.2193 48.2091 70.8754 47.6666 70.3271 47.4681L70.3291 47.4681Z" fill="#00416B"/>
        <path d="M64.227 48.724C67.4973 48.724 70.1484 48.4741 70.1484 48.1658C70.1484 47.8576 67.4973 47.6077 64.227 47.6077C60.9567 47.6077 58.3057 47.8576 58.3057 48.1658C58.3057 48.4741 60.9567 48.724 64.227 48.724Z" fill="#DEDFE0"/>
        <path d="M52.398 59.3525C55.6112 56.8939 56.8828 53.1971 55.2378 51.0961C53.5949 48.9952 49.6584 49.2841 46.4433 51.7447C45.1462 52.7097 44.1085 53.9793 43.4226 55.4474L29.9487 66.0386L35.2982 72.4377L48.0135 61.3159C49.6231 61.027 51.1265 60.3528 52.3961 59.3525H52.398Z" fill="#F5C5C7"/>
        <path d="M43.4834 68.5542L38.1536 59.1796L18.7583 68.3066L29.6105 82.2565L43.4834 68.5542Z" fill="#EC8812"/>
        <path opacity="0.1" d="M31.8595 62.1413C31.8595 62.1413 17.7214 72.4927 18.2441 72.4357C18.7669 72.3787 25.7377 68.5444 25.7377 68.5444L31.8595 62.1413Z" fill="#272223"/>
        <path d="M246.321 41.1818V47H245.276V42.0568H242.73V47H241.685V41.1818H246.321ZM247.456 48.6364V42.6364H248.468V43.358H248.527C248.58 43.2519 248.655 43.1392 248.752 43.0199C248.848 42.8987 248.979 42.7955 249.144 42.7102C249.308 42.6231 249.519 42.5795 249.774 42.5795C250.112 42.5795 250.416 42.6657 250.686 42.8381C250.959 43.0085 251.175 43.2614 251.334 43.5966C251.495 43.9299 251.576 44.339 251.576 44.8239C251.576 45.303 251.497 45.7102 251.34 46.0455C251.183 46.3807 250.969 46.6364 250.698 46.8125C250.427 46.9886 250.12 47.0767 249.777 47.0767C249.527 47.0767 249.32 47.035 249.155 46.9517C248.99 46.8684 248.858 46.768 248.757 46.6506C248.659 46.5312 248.582 46.4186 248.527 46.3125H248.485V48.6364H247.456ZM248.465 44.8182C248.465 45.1004 248.505 45.3475 248.584 45.5597C248.666 45.7718 248.782 45.9375 248.933 46.0568C249.087 46.1742 249.273 46.233 249.49 46.233C249.718 46.233 249.908 46.1723 250.061 46.0511C250.215 45.928 250.33 45.7604 250.408 45.5483C250.487 45.3343 250.527 45.0909 250.527 44.8182C250.527 44.5473 250.488 44.3068 250.411 44.0966C250.333 43.8864 250.218 43.7216 250.064 43.6023C249.911 43.483 249.719 43.4233 249.49 43.4233C249.271 43.4233 249.084 43.4811 248.931 43.5966C248.777 43.7121 248.661 43.8741 248.581 44.0824C248.504 44.2907 248.465 44.536 248.465 44.8182ZM253.368 45.608L255.115 42.6364H256.172V47H255.177V44.0256L253.436 47H252.376V42.6364H253.368V45.608ZM259.188 44.5114V45.1903H257.412V44.5114H259.188ZM260.77 44.0114L259.798 44.1392C259.745 43.9328 259.647 43.7623 259.503 43.6278C259.359 43.4915 259.157 43.4233 258.898 43.4233C258.667 43.4233 258.472 43.4811 258.313 43.5966C258.155 43.7121 258.036 43.875 257.955 44.0852C257.873 44.2936 257.832 44.5379 257.832 44.8182C257.832 45.1004 257.872 45.3475 257.952 45.5597C258.033 45.7718 258.153 45.9375 258.31 46.0568C258.469 46.1742 258.665 46.233 258.898 46.233C259.057 46.233 259.196 46.2055 259.315 46.1506C259.435 46.0937 259.533 46.0161 259.611 45.9176C259.69 45.8172 259.748 45.7008 259.784 45.5682L260.761 45.6903C260.706 45.965 260.595 46.2074 260.426 46.4176C260.26 46.6259 260.046 46.7898 259.784 46.9091C259.525 47.0265 259.229 47.0852 258.898 47.0852C258.474 47.0852 258.107 46.9886 257.798 46.7955C257.492 46.6023 257.255 46.3352 257.088 45.9943C256.923 45.6534 256.841 45.2614 256.841 44.8182C256.841 44.3807 256.924 43.9943 257.091 43.6591C257.26 43.322 257.497 43.0578 257.804 42.8665C258.111 42.6752 258.475 42.5795 258.898 42.5795C259.227 42.5795 259.523 42.6392 259.784 42.7585C260.047 42.8759 260.264 43.0417 260.435 43.2557C260.607 43.4697 260.719 43.7216 260.77 44.0114ZM261.213 48.267V46.1534H261.559C261.652 46.0814 261.73 45.9839 261.792 45.8608C261.855 45.7358 261.906 45.589 261.946 45.4205C261.987 45.25 262.021 45.0597 262.048 44.8494C262.074 44.6373 262.098 44.4091 262.119 44.1648L262.244 42.6364H265.397V46.1534H266.073V48.267H265.079V47H262.224V48.267H261.213ZM262.616 46.1534H264.414V43.4659H263.136L263.068 44.1648C263.03 44.6269 262.98 45.0227 262.917 45.3523C262.855 45.6818 262.754 45.9489 262.616 46.1534ZM269.758 44.392V45.2358H267.435V44.392H269.758ZM267.753 42.6364V47H266.761V42.6364H267.753ZM270.432 42.6364V47H269.443V42.6364H270.432ZM271.875 48.6364C271.735 48.6364 271.605 48.625 271.486 48.6023C271.368 48.5814 271.275 48.5568 271.205 48.5284L271.443 47.7273C271.593 47.7708 271.726 47.7917 271.844 47.7898C271.961 47.7879 272.065 47.7509 272.154 47.679C272.244 47.6089 272.321 47.4915 272.384 47.3267L272.472 47.0909L270.889 42.6364H271.98L272.986 45.9318H273.031L274.04 42.6364H275.134L273.386 47.5284C273.305 47.7595 273.197 47.9574 273.063 48.1222C272.928 48.2888 272.763 48.4157 272.568 48.5028C272.375 48.5919 272.144 48.6364 271.875 48.6364ZM276.757 45.608L278.504 42.6364H279.561V47H278.566V44.0256L276.825 47H275.765V42.6364H276.757V45.608ZM278.223 41.1364H278.993C278.993 41.4678 278.872 41.7367 278.632 41.9432C278.393 42.1477 278.069 42.25 277.66 42.25C277.255 42.25 276.932 42.1477 276.691 41.9432C276.453 41.7367 276.334 41.4678 276.336 41.1364H277.101C277.101 41.2727 277.142 41.3949 277.226 41.5028C277.311 41.6089 277.456 41.6619 277.66 41.6619C277.861 41.6619 278.004 41.6089 278.089 41.5028C278.176 41.3968 278.221 41.2746 278.223 41.1364ZM280.048 43.4801V42.6364H283.866V43.4801H282.454V47H281.46V43.4801H280.048ZM286.357 47.0852C285.92 47.0852 285.542 46.9943 285.224 46.8125C284.908 46.6288 284.664 46.3693 284.494 46.0341C284.323 45.697 284.238 45.3002 284.238 44.8438C284.238 44.3949 284.323 44.0009 284.494 43.6619C284.666 43.321 284.907 43.0559 285.215 42.8665C285.524 42.6752 285.887 42.5795 286.303 42.5795C286.572 42.5795 286.826 42.6231 287.065 42.7102C287.305 42.7955 287.517 42.928 287.701 43.108C287.887 43.2879 288.033 43.517 288.139 43.7955C288.245 44.072 288.298 44.4015 288.298 44.7841V45.0994H284.721V44.4062H287.312C287.31 44.2093 287.267 44.0341 287.184 43.8807C287.101 43.7254 286.984 43.6032 286.835 43.5142C286.687 43.4252 286.515 43.3807 286.318 43.3807C286.107 43.3807 285.923 43.4318 285.764 43.5341C285.605 43.6345 285.481 43.767 285.392 43.9318C285.304 44.0947 285.26 44.2737 285.258 44.4688V45.0739C285.258 45.3277 285.304 45.5455 285.397 45.7273C285.49 45.9072 285.62 46.0455 285.786 46.142C285.953 46.2367 286.148 46.2841 286.372 46.2841C286.521 46.2841 286.657 46.2633 286.778 46.2216C286.899 46.178 287.004 46.1146 287.093 46.0312C287.182 45.9479 287.249 45.8447 287.295 45.7216L288.255 45.8295C288.195 46.0833 288.079 46.3049 287.909 46.4943C287.74 46.6818 287.524 46.8277 287.261 46.9318C286.998 47.0341 286.696 47.0852 286.357 47.0852ZM290.991 47.0852C290.556 47.0852 290.182 46.9896 289.869 46.7983C289.558 46.607 289.319 46.3428 289.15 46.0057C288.984 45.6667 288.9 45.2765 288.9 44.8352C288.9 44.392 288.986 44.0009 289.156 43.6619C289.326 43.321 289.567 43.0559 289.878 42.8665C290.19 42.6752 290.559 42.5795 290.986 42.5795C291.34 42.5795 291.653 42.6449 291.926 42.7756C292.2 42.9044 292.419 43.0871 292.582 43.3239C292.745 43.5587 292.838 43.8333 292.861 44.1477H291.878C291.838 43.9375 291.743 43.7623 291.593 43.6222C291.446 43.4801 291.248 43.4091 291 43.4091C290.789 43.4091 290.605 43.4659 290.446 43.5795C290.287 43.6913 290.163 43.8523 290.074 44.0625C289.986 44.2727 289.943 44.5246 289.943 44.8182C289.943 45.1155 289.986 45.3712 290.074 45.5852C290.161 45.7973 290.283 45.9612 290.44 46.0767C290.599 46.1903 290.786 46.2472 291 46.2472C291.151 46.2472 291.287 46.2187 291.406 46.1619C291.527 46.1032 291.629 46.0189 291.71 45.9091C291.791 45.7992 291.847 45.6657 291.878 45.5085H292.861C292.836 45.8172 292.745 46.0909 292.588 46.3295C292.431 46.5663 292.217 46.7519 291.946 46.8864C291.675 47.0189 291.357 47.0852 290.991 47.0852ZM294.321 44.0568H295.608C296.165 44.0568 296.596 44.1922 296.901 44.4631C297.205 44.7339 297.359 45.089 297.361 45.5284C297.359 45.8144 297.289 46.0682 297.151 46.2898C297.014 46.5114 296.815 46.6856 296.554 46.8125C296.294 46.9375 295.979 47 295.608 47H293.625V42.6364H294.616V46.1562H295.608C295.831 46.1562 296.015 46.0994 296.159 45.9858C296.303 45.8703 296.375 45.7225 296.375 45.5426C296.375 45.3532 296.303 45.1989 296.159 45.0795C296.015 44.9602 295.831 44.9006 295.608 44.9006H294.321V44.0568ZM299.68 48.267V46.1534H300.027C300.12 46.0814 300.197 45.9839 300.26 45.8608C300.322 45.7358 300.373 45.589 300.413 45.4205C300.455 45.25 300.489 45.0597 300.515 44.8494C300.542 44.6373 300.566 44.4091 300.586 44.1648L300.711 42.6364H303.865V46.1534H304.541V48.267H303.547V47H300.692V48.267H299.68ZM301.084 46.1534H302.882V43.4659H301.603L301.535 44.1648C301.497 44.6269 301.447 45.0227 301.385 45.3523C301.322 45.6818 301.222 45.9489 301.084 46.1534ZM307.132 47.0852C306.706 47.0852 306.337 46.9915 306.024 46.804C305.712 46.6165 305.469 46.3542 305.297 46.017C305.126 45.6799 305.041 45.286 305.041 44.8352C305.041 44.3845 305.126 43.9896 305.297 43.6506C305.469 43.3116 305.712 43.0483 306.024 42.8608C306.337 42.6733 306.706 42.5795 307.132 42.5795C307.558 42.5795 307.928 42.6733 308.24 42.8608C308.553 43.0483 308.794 43.3116 308.965 43.6506C309.137 43.9896 309.223 44.3845 309.223 44.8352C309.223 45.286 309.137 45.6799 308.965 46.017C308.794 46.3542 308.553 46.6165 308.24 46.804C307.928 46.9915 307.558 47.0852 307.132 47.0852ZM307.138 46.2614C307.369 46.2614 307.562 46.1979 307.717 46.071C307.873 45.9422 307.988 45.7699 308.064 45.554C308.142 45.3381 308.18 45.0975 308.18 44.8324C308.18 44.5653 308.142 44.3239 308.064 44.108C307.988 43.8902 307.873 43.7169 307.717 43.5881C307.562 43.4593 307.369 43.3949 307.138 43.3949C306.901 43.3949 306.704 43.4593 306.547 43.5881C306.392 43.7169 306.275 43.8902 306.197 44.108C306.122 44.3239 306.084 44.5653 306.084 44.8324C306.084 45.0975 306.122 45.3381 306.197 45.554C306.275 45.7699 306.392 45.9422 306.547 46.071C306.704 46.1979 306.901 46.2614 307.138 46.2614ZM241.318 54.0653V53.1818H245.96V54.0653H244.162V59H243.116V54.0653H241.318ZM248.029 59.0852C247.591 59.0852 247.213 58.9943 246.895 58.8125C246.579 58.6288 246.335 58.3693 246.165 58.0341C245.995 57.697 245.909 57.3002 245.909 56.8438C245.909 56.3949 245.995 56.0009 246.165 55.6619C246.337 55.321 246.578 55.0559 246.887 54.8665C247.195 54.6752 247.558 54.5795 247.975 54.5795C248.244 54.5795 248.497 54.6231 248.736 54.7102C248.977 54.7955 249.189 54.928 249.372 55.108C249.558 55.2879 249.704 55.517 249.81 55.7955C249.916 56.072 249.969 56.4015 249.969 56.7841V57.0994H246.392V56.4062H248.983C248.981 56.2093 248.939 56.0341 248.855 55.8807C248.772 55.7254 248.656 55.6032 248.506 55.5142C248.358 55.4252 248.186 55.3807 247.989 55.3807C247.779 55.3807 247.594 55.4318 247.435 55.5341C247.276 55.6345 247.152 55.767 247.063 55.9318C246.976 56.0947 246.931 56.2737 246.929 56.4688V57.0739C246.929 57.3277 246.976 57.5455 247.068 57.7273C247.161 57.9072 247.291 58.0455 247.458 58.142C247.624 58.2367 247.819 58.2841 248.043 58.2841C248.192 58.2841 248.328 58.2633 248.449 58.2216C248.57 58.178 248.675 58.1146 248.764 58.0312C248.853 57.9479 248.921 57.8447 248.966 57.7216L249.926 57.8295C249.866 58.0833 249.75 58.3049 249.58 58.4943C249.411 58.6818 249.195 58.8277 248.932 58.9318C248.669 59.0341 248.368 59.0852 248.029 59.0852ZM251.787 53.1818V59H250.759V53.1818H251.787ZM254.697 59.0852C254.259 59.0852 253.881 58.9943 253.563 58.8125C253.247 58.6288 253.004 58.3693 252.833 58.0341C252.663 57.697 252.577 57.3002 252.577 56.8438C252.577 56.3949 252.663 56.0009 252.833 55.6619C253.006 55.321 253.246 55.0559 253.555 54.8665C253.863 54.6752 254.226 54.5795 254.643 54.5795C254.912 54.5795 255.166 54.6231 255.404 54.7102C255.645 54.7955 255.857 54.928 256.041 55.108C256.226 55.2879 256.372 55.517 256.478 55.7955C256.584 56.072 256.637 56.4015 256.637 56.7841V57.0994H253.06V56.4062H255.651C255.649 56.2093 255.607 56.0341 255.523 55.8807C255.44 55.7254 255.324 55.6032 255.174 55.5142C255.026 55.4252 254.854 55.3807 254.657 55.3807C254.447 55.3807 254.262 55.4318 254.103 55.5341C253.944 55.6345 253.82 55.767 253.731 55.9318C253.644 56.0947 253.599 56.2737 253.597 56.4688V57.0739C253.597 57.3277 253.644 57.5455 253.737 57.7273C253.829 57.9072 253.959 58.0455 254.126 58.142C254.292 58.2367 254.488 58.2841 254.711 58.2841C254.861 58.2841 254.996 58.2633 255.117 58.2216C255.238 58.178 255.344 58.1146 255.433 58.0312C255.522 57.9479 255.589 57.8447 255.634 57.7216L256.595 57.8295C256.534 58.0833 256.418 58.3049 256.248 58.4943C256.079 58.6818 255.863 58.8277 255.6 58.9318C255.337 59.0341 255.036 59.0852 254.697 59.0852ZM259.325 60.7273C258.956 60.7273 258.638 60.6771 258.373 60.5767C258.108 60.4782 257.895 60.3456 257.734 60.179C257.573 60.0123 257.461 59.8277 257.399 59.625L258.325 59.4006C258.367 59.4858 258.427 59.5701 258.507 59.6534C258.586 59.7386 258.693 59.8087 258.828 59.8636C258.964 59.9205 259.135 59.9489 259.342 59.9489C259.634 59.9489 259.875 59.8778 260.066 59.7358C260.258 59.5956 260.353 59.3646 260.353 59.0426V58.2159H260.302C260.249 58.322 260.171 58.4309 260.069 58.5426C259.969 58.6544 259.835 58.7481 259.669 58.8239C259.504 58.8996 259.296 58.9375 259.046 58.9375C258.711 58.9375 258.407 58.8589 258.135 58.7017C257.864 58.5426 257.648 58.3059 257.487 57.9915C257.328 57.6752 257.248 57.2794 257.248 56.804C257.248 56.3248 257.328 55.9205 257.487 55.5909C257.648 55.2595 257.865 55.0085 258.137 54.8381C258.41 54.6657 258.714 54.5795 259.049 54.5795C259.305 54.5795 259.515 54.6231 259.68 54.7102C259.847 54.7955 259.979 54.8987 260.078 55.0199C260.176 55.1392 260.251 55.2519 260.302 55.358H260.359V54.6364H261.373V59.071C261.373 59.4441 261.284 59.7528 261.106 59.9972C260.928 60.2415 260.685 60.4242 260.376 60.5455C260.067 60.6667 259.717 60.7273 259.325 60.7273ZM259.333 58.1307C259.551 58.1307 259.737 58.0777 259.89 57.9716C260.044 57.8655 260.16 57.7131 260.24 57.5142C260.319 57.3153 260.359 57.0767 260.359 56.7983C260.359 56.5237 260.319 56.2831 260.24 56.0767C260.162 55.8703 260.046 55.7102 259.893 55.5966C259.742 55.4811 259.555 55.4233 259.333 55.4233C259.104 55.4233 258.913 55.483 258.76 55.6023C258.606 55.7216 258.491 55.8854 258.413 56.0938C258.335 56.3002 258.296 56.535 258.296 56.7983C258.296 57.0653 258.335 57.2992 258.413 57.5C258.493 57.6989 258.609 57.8542 258.762 57.9659C258.918 58.0758 259.108 58.1307 259.333 58.1307ZM262.347 59V54.6364H263.344V55.3636H263.39C263.469 55.1117 263.606 54.9176 263.799 54.7812C263.994 54.643 264.216 54.5739 264.466 54.5739C264.523 54.5739 264.587 54.5767 264.657 54.5824C264.729 54.5862 264.788 54.5928 264.836 54.6023V55.5483C264.792 55.5331 264.723 55.5199 264.628 55.5085C264.536 55.4953 264.446 55.4886 264.359 55.4886C264.171 55.4886 264.002 55.5294 263.853 55.6108C263.705 55.6903 263.589 55.8011 263.503 55.9432C263.418 56.0852 263.376 56.2491 263.376 56.4347V59H262.347ZM266.617 59.0881C266.34 59.0881 266.091 59.0388 265.869 58.9403C265.65 58.84 265.475 58.6922 265.347 58.4972C265.22 58.3021 265.156 58.0616 265.156 57.7756C265.156 57.5294 265.202 57.3258 265.293 57.1648C265.384 57.0038 265.508 56.875 265.665 56.7784C265.822 56.6818 265.999 56.6089 266.196 56.5597C266.395 56.5085 266.6 56.4716 266.813 56.4489C267.068 56.4223 267.276 56.3987 267.435 56.3778C267.594 56.3551 267.709 56.321 267.781 56.2756C267.855 56.2282 267.892 56.1553 267.892 56.0568V56.0398C267.892 55.8258 267.829 55.66 267.702 55.5426C267.575 55.4252 267.392 55.3665 267.154 55.3665C266.902 55.3665 266.702 55.4214 266.554 55.5312C266.408 55.6411 266.31 55.7708 266.259 55.9205L265.298 55.7841C265.374 55.5189 265.499 55.2973 265.673 55.1193C265.848 54.9394 266.061 54.8049 266.313 54.7159C266.565 54.625 266.843 54.5795 267.148 54.5795C267.358 54.5795 267.567 54.6042 267.776 54.6534C267.984 54.7027 268.174 54.7841 268.347 54.8977C268.519 55.0095 268.657 55.1619 268.761 55.3551C268.868 55.5483 268.921 55.7898 268.921 56.0795V59H267.932V58.4006H267.898C267.835 58.5218 267.747 58.6354 267.634 58.7415C267.522 58.8456 267.381 58.9299 267.21 58.9943C267.042 59.0568 266.844 59.0881 266.617 59.0881ZM266.884 58.3324C267.09 58.3324 267.269 58.2917 267.421 58.2102C267.572 58.1269 267.689 58.017 267.77 57.8807C267.853 57.7443 267.895 57.5956 267.895 57.4347V56.9205C267.863 56.947 267.808 56.9716 267.73 56.9943C267.654 57.017 267.569 57.0369 267.475 57.054C267.38 57.071 267.286 57.0862 267.193 57.0994C267.1 57.1127 267.02 57.1241 266.952 57.1335C266.798 57.1544 266.661 57.1884 266.54 57.2358C266.419 57.2831 266.323 57.3494 266.253 57.4347C266.183 57.518 266.148 57.6259 266.148 57.7585C266.148 57.9479 266.217 58.0909 266.355 58.1875C266.493 58.2841 266.67 58.3324 266.884 58.3324ZM269.875 59V54.6364H270.858V55.3778H270.909C271 55.1278 271.15 54.9328 271.36 54.7926C271.571 54.6506 271.822 54.5795 272.113 54.5795C272.409 54.5795 272.658 54.6515 272.86 54.7955C273.065 54.9375 273.209 55.1316 273.292 55.3778H273.338C273.434 55.1354 273.597 54.9422 273.826 54.7983C274.057 54.6525 274.331 54.5795 274.647 54.5795C275.049 54.5795 275.377 54.7064 275.63 54.9602C275.884 55.214 276.011 55.5843 276.011 56.071V59H274.98V56.2301C274.98 55.9593 274.908 55.7614 274.764 55.6364C274.62 55.5095 274.444 55.446 274.235 55.446C273.987 55.446 273.793 55.5237 273.653 55.679C273.515 55.8324 273.446 56.0322 273.446 56.2784V59H272.437V56.1875C272.437 55.9621 272.369 55.7822 272.233 55.6477C272.098 55.5133 271.922 55.446 271.704 55.446C271.556 55.446 271.422 55.4839 271.301 55.5597C271.18 55.6335 271.083 55.7386 271.011 55.875C270.939 56.0095 270.903 56.1667 270.903 56.3466V59H269.875ZM279.619 56.1534V57H277V56.1534H279.619ZM280.621 59V54.6364H281.649V56.3977H282.024L283.337 54.6364H284.575L282.959 56.7784L284.592 59H283.348L282.152 57.3551H281.649V59H280.621ZM286.351 59.0881C286.075 59.0881 285.826 59.0388 285.604 58.9403C285.384 58.84 285.21 58.6922 285.081 58.4972C284.954 58.3021 284.891 58.0616 284.891 57.7756C284.891 57.5294 284.937 57.3258 285.027 57.1648C285.118 57.0038 285.242 56.875 285.4 56.7784C285.557 56.6818 285.734 56.6089 285.931 56.5597C286.13 56.5085 286.335 56.4716 286.547 56.4489C286.803 56.4223 287.01 56.3987 287.169 56.3778C287.329 56.3551 287.444 56.321 287.516 56.2756C287.59 56.2282 287.627 56.1553 287.627 56.0568V56.0398C287.627 55.8258 287.563 55.66 287.437 55.5426C287.31 55.4252 287.127 55.3665 286.888 55.3665C286.636 55.3665 286.437 55.4214 286.289 55.5312C286.143 55.6411 286.044 55.7708 285.993 55.9205L285.033 55.7841C285.109 55.5189 285.234 55.2973 285.408 55.1193C285.582 54.9394 285.795 54.8049 286.047 54.7159C286.299 54.625 286.578 54.5795 286.883 54.5795C287.093 54.5795 287.302 54.6042 287.51 54.6534C287.719 54.7027 287.909 54.7841 288.081 54.8977C288.254 55.0095 288.392 55.1619 288.496 55.3551C288.602 55.5483 288.655 55.7898 288.655 56.0795V59H287.667V58.4006H287.633C287.57 58.5218 287.482 58.6354 287.368 58.7415C287.257 58.8456 287.115 58.9299 286.945 58.9943C286.776 59.0568 286.579 59.0881 286.351 59.0881ZM286.618 58.3324C286.825 58.3324 287.004 58.2917 287.155 58.2102C287.307 58.1269 287.423 58.017 287.505 57.8807C287.588 57.7443 287.63 57.5956 287.63 57.4347V56.9205C287.597 56.947 287.543 56.9716 287.465 56.9943C287.389 57.017 287.304 57.0369 287.209 57.054C287.115 57.071 287.021 57.0862 286.928 57.0994C286.835 57.1127 286.755 57.1241 286.687 57.1335C286.533 57.1544 286.396 57.1884 286.275 57.2358C286.153 57.2831 286.058 57.3494 285.988 57.4347C285.918 57.518 285.883 57.6259 285.883 57.7585C285.883 57.9479 285.952 58.0909 286.09 58.1875C286.228 58.2841 286.404 58.3324 286.618 58.3324ZM292.607 56.392V57.2358H290.283V56.392H292.607ZM290.601 54.6364V59H289.609V54.6364H290.601ZM293.28 54.6364V59H292.291V54.6364H293.28ZM295.496 59.0881C295.219 59.0881 294.97 59.0388 294.749 58.9403C294.529 58.84 294.355 58.6922 294.226 58.4972C294.099 58.3021 294.036 58.0616 294.036 57.7756C294.036 57.5294 294.081 57.3258 294.172 57.1648C294.263 57.0038 294.387 56.875 294.544 56.7784C294.701 56.6818 294.879 56.6089 295.076 56.5597C295.274 56.5085 295.48 56.4716 295.692 56.4489C295.948 56.4223 296.155 56.3987 296.314 56.3778C296.473 56.3551 296.589 56.321 296.661 56.2756C296.735 56.2282 296.772 56.1553 296.772 56.0568V56.0398C296.772 55.8258 296.708 55.66 296.581 55.5426C296.454 55.4252 296.272 55.3665 296.033 55.3665C295.781 55.3665 295.581 55.4214 295.433 55.5312C295.288 55.6411 295.189 55.7708 295.138 55.9205L294.178 55.7841C294.254 55.5189 294.379 55.2973 294.553 55.1193C294.727 54.9394 294.94 54.8049 295.192 54.7159C295.444 54.625 295.722 54.5795 296.027 54.5795C296.237 54.5795 296.447 54.6042 296.655 54.6534C296.863 54.7027 297.054 54.7841 297.226 54.8977C297.398 55.0095 297.537 55.1619 297.641 55.3551C297.747 55.5483 297.8 55.7898 297.8 56.0795V59H296.811V58.4006H296.777C296.715 58.5218 296.627 58.6354 296.513 58.7415C296.401 58.8456 296.26 58.9299 296.09 58.9943C295.921 59.0568 295.723 59.0881 295.496 59.0881ZM295.763 58.3324C295.969 58.3324 296.148 58.2917 296.3 58.2102C296.451 58.1269 296.568 58.017 296.649 57.8807C296.733 57.7443 296.774 57.5956 296.774 57.4347V56.9205C296.742 56.947 296.687 56.9716 296.61 56.9943C296.534 57.017 296.449 57.0369 296.354 57.054C296.259 57.071 296.165 57.0862 296.073 57.0994C295.98 57.1127 295.899 57.1241 295.831 57.1335C295.678 57.1544 295.54 57.1884 295.419 57.2358C295.298 57.2831 295.202 57.3494 295.132 57.4347C295.062 57.518 295.027 57.6259 295.027 57.7585C295.027 57.9479 295.096 58.0909 295.235 58.1875C295.373 58.2841 295.549 58.3324 295.763 58.3324ZM298.453 59L298.447 58.1534H298.598C298.711 58.1534 298.807 58.1278 298.885 58.0767C298.962 58.0256 299.027 57.9403 299.078 57.821C299.129 57.6998 299.169 57.5369 299.197 57.3324C299.226 57.1278 299.246 56.8731 299.257 56.5682L299.334 54.6364H302.515V59H301.521V55.4801H300.268L300.2 56.8864C300.183 57.25 300.142 57.5653 300.078 57.8324C300.015 58.0975 299.926 58.3163 299.811 58.4886C299.697 58.661 299.554 58.7898 299.382 58.875C299.21 58.9583 299.006 59 298.771 59H298.453ZM303.954 60.6364C303.814 60.6364 303.684 60.625 303.565 60.6023C303.447 60.5814 303.353 60.5568 303.283 60.5284L303.522 59.7273C303.672 59.7708 303.805 59.7917 303.923 59.7898C304.04 59.7879 304.143 59.7509 304.232 59.679C304.323 59.6089 304.4 59.4915 304.462 59.3267L304.55 59.0909L302.968 54.6364H304.059L305.065 57.9318H305.11L306.119 54.6364H307.212L305.465 59.5284C305.384 59.7595 305.276 59.9574 305.141 60.1222C305.007 60.2888 304.842 60.4157 304.647 60.5028C304.454 60.5919 304.223 60.6364 303.954 60.6364ZM311.007 53.1818L310.913 57.2898H309.998L309.908 53.1818H311.007ZM310.456 59.0625C310.283 59.0625 310.136 59.0019 310.013 58.8807C309.891 58.7595 309.831 58.6117 309.831 58.4375C309.831 58.267 309.891 58.1212 310.013 58C310.136 57.8788 310.283 57.8182 310.456 57.8182C310.624 57.8182 310.77 57.8788 310.893 58C311.018 58.1212 311.081 58.267 311.081 58.4375C311.081 58.553 311.051 58.6581 310.993 58.7528C310.936 58.8475 310.86 58.9233 310.765 58.9801C310.673 59.035 310.569 59.0625 310.456 59.0625Z" fill="#00416B"/>
        <path d="M342.557 41.3805C342.474 41.3089 342.373 41.2612 342.265 41.2428C342.157 41.2243 342.046 41.2356 341.944 41.2756L324.528 48.0913C324.316 48.1742 324.137 48.3236 324.017 48.517C323.897 48.7105 323.844 48.9375 323.864 49.1641C323.884 49.3906 323.978 49.6045 324.13 49.7735C324.282 49.9425 324.485 50.0576 324.708 50.1014L329.359 51.0149V56.1875C329.359 56.4273 329.431 56.6616 329.565 56.8603C329.7 57.0591 329.89 57.2132 330.112 57.3028C330.335 57.3925 330.579 57.4137 330.814 57.3636C331.048 57.3136 331.262 57.1946 331.429 57.0219L333.718 54.6475L337.291 57.7799C337.509 57.9729 337.791 58.0796 338.082 58.0798C338.209 58.0795 338.336 58.0595 338.457 58.0205C338.655 57.9577 338.834 57.844 338.975 57.6906C339.115 57.5373 339.214 57.3497 339.259 57.1466L342.75 41.9709C342.775 41.8642 342.77 41.7528 342.736 41.6488C342.701 41.5447 342.64 41.452 342.557 41.3805ZM324.895 49.0865C324.892 49.0776 324.892 49.0679 324.895 49.059C324.899 49.056 324.903 49.0537 324.908 49.0521L338.633 43.6793L329.755 50.0387L324.908 49.0899L324.895 49.0865ZM330.686 56.3052C330.663 56.3298 330.632 56.3468 330.599 56.354C330.565 56.3612 330.531 56.3583 330.499 56.3456C330.467 56.333 330.44 56.3112 330.421 56.2831C330.401 56.2549 330.391 56.2216 330.391 56.1875V51.7282L332.942 53.9626L330.686 56.3052ZM338.255 56.9137C338.248 56.9427 338.234 56.9695 338.214 56.9913C338.194 57.0131 338.168 57.029 338.14 57.0374C338.11 57.0476 338.079 57.0498 338.049 57.0438C338.019 57.0377 337.991 57.0237 337.968 57.003L330.703 50.6308L341.476 42.9102L338.255 56.9137Z" fill="#EC8812"/>
        <path d="M-8.90301 50.1248C-8.90301 50.1248 -0.776782 44.1769 5.02377 32.0099C10.1087 21.344 19.6929 28.5097 22.9523 13.3239C26.2117 -1.86183 16.8868 -12.5653 16.8868 -12.5653" stroke="#E99E45"/>
        <path d="M-4.93846 39.8517C-4.93846 39.8517 9.81966 40.2189 15.3162 30.0937C20.183 21.1285 16.5109 19.2143 16.8307 10.4953C17.1505 1.77629 22.0853 -14.266 22.0853 -14.266" stroke="#E99E45"/>
        <path d="M-11.3405 38.6927C-11.3405 38.6927 -4.31469 34.6508 -0.118912 25.2633C3.5592 17.0341 13.3123 23.9073 14.8064 11.7791C16.3005 -0.3492 6.4255 -10.0997 6.4255 -10.0997" stroke="#E99E45"/>
        <path d="M-7.58319 42.4497C-7.58319 42.4497 -0.0858369 37.5911 4.7976 27.0126C9.07852 17.7393 18.7593 24.7378 21.0098 11.2994C23.2604 -2.13903 13.6211 -12.2979 13.6211 -12.2979" stroke="#E99E45"/>
        <path d="M307.736 -10.6776C307.736 -10.6776 315.316 -0.321399 330.822 7.0709C344.414 13.5511 335.282 25.7655 354.635 29.9193C373.988 34.0731 387.629 22.1894 387.629 22.1894" stroke="#E99E45"/>
        <path d="M320.828 -5.62481C320.828 -5.62481 320.359 13.1831 333.263 20.188C344.689 26.3903 347.128 21.7105 358.24 22.1181C369.351 22.5256 389.796 28.8147 389.796 28.8147" stroke="#E99E45"/>
        <path d="M322.305 -13.7835C322.305 -13.7835 327.456 -4.82967 339.419 0.517485C349.907 5.20492 341.147 17.6344 356.604 19.5385C372.06 21.4427 384.486 8.85777 384.486 8.85777" stroke="#E99E45"/>
        <path d="M317.516 -8.99555C317.516 -8.99555 323.708 0.559171 337.19 6.78268C349.008 12.2383 340.089 24.5757 357.215 27.4438C374.341 30.3119 387.288 18.0275 387.288 18.0275" stroke="#E99E45"/>
    </g>
    <defs>
        <clipPath id="clip0_8331_39051">
            <rect width="375" height="68" fill="white"/>
        </clipPath>
    </defs>
</svg>
