<svg width="1440" height="65" viewBox="0 0 1440 65" fill="none" xmlns="http://www.w3.org/2000/svg">
    <g clip-path="url(#clip0_8331_39010)">
        <rect width="1440" height="65" fill="#EEEEEE"/>
        <path d="M1302.23 -35.4596C1302.23 -35.4596 1318.47 -13.4801 1352.25 1.806C1381.87 15.2062 1361.31 41.8505 1403.68 50.0153C1446.04 58.18 1476.49 32.0671 1476.49 32.0671" stroke="#E99E45"/>
        <path d="M1330.8 -25.1108C1330.8 -25.1108 1329.02 15.3743 1357.1 29.9307C1381.96 42.8194 1387.51 32.6531 1411.91 33.0866C1436.31 33.52 1480.99 46.2353 1480.99 46.2353" stroke="#E99E45"/>
        <path d="M1334.37 -42.7237C1334.37 -42.7237 1345.33 -23.6646 1371.41 -12.6374C1394.27 -2.97061 1374.52 24.1218 1408.42 27.6018C1442.31 31.0817 1470.12 3.50868 1470.12 3.50868" stroke="#E99E45"/>
        <path d="M1323.66 -32.2309C1323.66 -32.2309 1336.88 -11.9205 1366.26 0.93178C1392.02 12.1983 1371.92 39.0987 1409.44 44.5862C1446.97 50.0736 1475.91 23.1262 1475.91 23.1262" stroke="#E99E45"/>
        <path d="M78.0643 139.347C78.0643 139.347 75.4987 115.736 57.4884 89.5419C41.7001 66.5792 67.6373 55.4537 40.4649 30.8896C13.2924 6.32553 -19.5645 12.7494 -19.5645 12.7494" stroke="#E99E45"/>
        <path d="M61.7573 119.136C61.7573 119.136 79.9102 89.4265 65.7116 66.2605C53.1397 45.7486 44.8999 50.9915 27.4691 40.0569C10.0382 29.1222 -16.908 0.12608 -16.908 0.12608" stroke="#E99E45"/>
        <path d="M51.8411 130.845C51.8411 130.845 51.8707 111.729 37.6451 92.0895C25.1746 74.8733 50.7137 63.0581 27.7044 45.7049C4.69505 28.3516 -26.8643 37.0229 -26.8643 37.0229" stroke="#E99E45"/>
        <path d="M63.9451 127.602C63.9451 127.602 62.8627 106.559 47.0153 84.1112C33.1231 64.4326 58.8328 52.9129 34.0395 32.4698C9.24629 12.0266 -22.8691 19.7349 -22.8691 19.7349" stroke="#E99E45"/>
        <path d="M127.831 54.8445L143.295 58.5488L141.501 36.8782L127.843 38.0089L127.831 54.8445Z" fill="#F5C5C7"/>
        <path d="M138.893 43.0826C147.207 43.0826 153.947 36.3427 153.947 28.0287C153.947 19.7147 147.207 12.9748 138.893 12.9748C130.579 12.9748 123.84 19.7147 123.84 28.0287C123.84 36.3427 130.579 43.0826 138.893 43.0826Z" fill="#F5C5C7"/>
        <path d="M154.781 91.9793C154.661 92.0201 154.543 92.0568 154.422 92.0935C154.387 92.1038 154.353 92.116 154.318 92.1262C153.042 92.5221 151.749 92.8752 150.44 93.1895C145.667 94.3406 140.681 94.9488 135.556 94.9488C134.116 94.9488 132.687 94.9019 131.273 94.8059C129.826 94.71 128.393 94.5651 126.977 94.3712C126.401 94.2937 125.83 94.21 125.26 94.1161C123.638 93.8528 122.034 93.5242 120.454 93.1385C119.921 93.0099 119.391 92.8732 118.862 92.7262C118.68 92.6793 118.499 92.6283 118.319 92.5772C117.574 92.367 116.833 92.1446 116.099 91.9058C116.05 91.8915 115.999 91.8752 115.95 91.8588C115.293 91.6466 114.64 91.4221 113.991 91.1874C113.407 90.9772 112.827 90.7568 112.25 90.5282C110.966 90.022 109.705 89.4751 108.464 88.8873L108.941 86.7239L110.597 79.2296L114.191 62.947L117.823 46.493L127.368 46.7584H127.372L127.838 46.7726L142.354 47.1768L148.706 47.3543L154.781 91.9793Z" fill="#EC8812"/>
        <path d="M168.998 85.4258C167.076 86.6238 165.082 87.7198 163.029 88.7076C162.52 88.9525 162.006 89.1893 161.49 89.422C161.398 89.4628 161.308 89.5036 161.216 89.5424C160.771 89.7403 160.324 89.9322 159.873 90.1179L159.671 90.2036C159.553 90.2526 159.435 90.3016 159.314 90.3485C157.83 90.9486 156.32 91.4955 154.783 91.9792C154.663 92.0201 154.545 92.0568 154.424 92.0935L141.11 58.0243L140.21 55.7241L137.699 49.2973L136.867 47.1686L142.363 47.2543L148.708 47.3543C154.467 48.0911 159.243 52.1668 160.877 57.7365L169 85.4258L168.998 85.4258Z" fill="#EC8812"/>
        <path d="M128.334 34.9066C128.868 34.8168 129.403 34.725 129.938 34.6352C130.064 31.7758 130.34 28.5859 132.481 26.6858C133.66 25.6388 135.367 25.0285 135.952 23.5631C136.438 22.3488 135.985 20.8569 136.663 19.7384C137.375 18.5608 138.967 18.3506 140.342 18.2649C142.495 18.1322 144.687 18.0016 146.783 18.5118C148.879 19.0241 150.902 20.2854 151.796 22.2488C152.071 22.8529 152.23 23.5039 152.389 24.1489C152.926 26.3306 153.749 30.4819 153.749 30.4819C153.749 30.4819 153.908 29.6227 154.361 27.9511C155.285 26.6286 156.414 25.4081 156.957 23.8897C157.61 22.061 157.322 20.018 156.681 18.1873C155.226 14.0218 151.851 10.5012 147.647 9.16233C143.44 7.82552 139.463 7.06834 136.32 10.1665C135.73 10.7481 135.199 11.3972 134.526 11.8788C133.281 12.7707 131.691 12.9952 130.287 13.6116C127.162 14.9831 124.338 18.2812 123.634 21.6202C122.93 24.9591 123.297 28.4185 123.668 31.8126C123.989 34.7393 125.379 38.0027 127.815 39.6559C127.915 38.1578 128.015 36.6618 128.115 35.1638L128.332 34.9087H128.334V34.9066Z" fill="#2F2E43"/>
        <path d="M136.666 48.9809L136.52 49.2217L132.409 55.9405L126.315 65.9084L125.08 67.9269L120.578 75.2905C120.578 75.2905 119.117 77.3458 116.652 79.9806L116.644 79.9888C115.748 80.9439 114.721 81.9746 113.584 83.0093C113.576 83.0195 113.568 83.0277 113.558 83.0338C112.17 84.2992 110.619 85.5707 108.941 86.7238C108.252 87.1994 107.541 87.6525 106.815 88.077C106.666 88.0035 106.519 87.9259 106.372 87.8504C99.388 84.2237 93.1634 79.3377 88 73.4925C93.3899 64.8838 104.055 55.2302 110.927 49.4809C114.815 46.2256 120.009 44.999 124.94 46.1787L127.368 46.7583L127.838 46.8706L136.666 48.9809Z" fill="#EC8812"/>
        <path d="M155.842 46.9094C153.195 45.9562 146.189 45.9522 143.046 47.0134C142.436 47.2196 142.066 47.84 142.172 48.4748L142.297 49.2279C142.023 49.187 141.756 49.1095 141.503 48.9932C140.754 48.6503 139.278 48.1849 137.789 48.9278C136.748 49.4462 136.015 50.4238 135.758 51.5606C135.144 54.2792 136.693 55.7833 136.693 55.7833L138.756 57.7202C140.484 59.3407 142.37 60.7857 144.385 62.0306L144.425 62.0551L143.691 57.6345C143.276 58.3631 142.34 58.6019 141.627 58.161C139.827 57.0467 136.886 54.8139 137.244 52.279C137.493 50.5116 138.474 50.1361 139.417 50.2157C140.472 50.3055 141.393 50.9688 141.844 51.926C141.952 52.1546 142.129 52.3423 142.35 52.4648L142.88 52.7546L144.436 62.1245C144.505 62.5449 144.774 62.9082 145.156 63.096C148.813 64.89 152.76 63.9593 154.126 63.5409C154.438 63.445 154.705 63.2388 154.873 62.9572L155.166 62.4694C155.269 62.3021 155.33 62.1123 155.35 61.9184L156.707 48.2809C156.767 47.6788 156.409 47.1155 155.84 46.9094L155.842 46.9094Z" fill="#00416B"/>
        <path d="M149.505 48.2135C152.901 48.2135 155.654 47.954 155.654 47.6339C155.654 47.3138 152.901 47.0543 149.505 47.0543C146.109 47.0543 143.356 47.3138 143.356 47.6339C143.356 47.954 146.109 48.2135 149.505 48.2135Z" fill="#DEDFE0"/>
        <path d="M137.222 59.2509C140.559 56.6977 141.879 52.8587 140.171 50.6769C138.465 48.4951 134.377 48.7952 131.038 51.3504C129.691 52.3525 128.614 53.6709 127.901 55.1955L113.909 66.1941L119.464 72.8394L132.669 61.2897C134.34 60.9897 135.902 60.2897 137.22 59.2509H137.222Z" fill="#F5C5C7"/>
        <path d="M127.964 68.8065L122.429 59.0713L102.288 68.5493L113.558 83.0359L127.964 68.8065Z" fill="#EC8812"/>
        <path opacity="0.1" d="M115.893 62.147C115.893 62.147 101.211 72.8965 101.753 72.8374C102.296 72.7782 109.535 68.7963 109.535 68.7963L115.893 62.147Z" fill="#272223"/>
        <path d="M201.714 52.2628V43.3246H203.195C203.699 42.9624 204.161 42.451 204.58 41.7905C204.999 41.1229 205.357 40.2031 205.656 39.0312C205.954 37.8523 206.167 36.3111 206.295 34.4077L206.913 25.1818H221.348V43.3246H223.734V52.2415H219.303V47H206.146V52.2628H201.714ZM208.521 43.3246H216.916V28.9851H211.067L210.727 34.4077C210.634 35.8494 210.482 37.1278 210.268 38.2429C210.062 39.358 209.81 40.3345 209.512 41.1726C209.221 42.0036 208.891 42.7209 208.521 43.3246ZM226.154 47V30.6364H230.692V47H226.154ZM228.433 28.527C227.759 28.527 227.18 28.3033 226.697 27.8558C226.221 27.4013 225.983 26.858 225.983 26.2259C225.983 25.6009 226.221 25.0646 226.697 24.6172C227.18 24.1626 227.759 23.9354 228.433 23.9354C229.108 23.9354 229.683 24.1626 230.159 24.6172C230.642 25.0646 230.884 25.6009 230.884 26.2259C230.884 26.858 230.642 27.4013 230.159 27.8558C229.683 28.3033 229.108 28.527 228.433 28.527ZM233.186 42.3658H237.586C237.607 42.9055 237.849 43.3317 238.31 43.6442C238.772 43.9567 239.368 44.1129 240.1 44.1129C240.839 44.1129 241.46 43.9425 241.964 43.6016C242.469 43.2536 242.721 42.7564 242.721 42.1101C242.721 41.7124 242.621 41.3679 242.422 41.0767C242.224 40.7784 241.947 40.544 241.591 40.3736C241.236 40.2031 240.824 40.1179 240.356 40.1179H238.001V37.1456H240.356C241.059 37.1456 241.599 36.9822 241.975 36.6555C242.358 36.3288 242.55 35.9205 242.55 35.4304C242.55 34.8764 242.351 34.4325 241.954 34.0987C241.563 33.7578 241.034 33.5874 240.366 33.5874C239.692 33.5874 239.13 33.7401 238.683 34.0455C238.243 34.3437 238.015 34.7344 238.001 35.2173H233.623C233.637 34.2372 233.932 33.3885 234.507 32.6712C235.089 31.9538 235.871 31.3999 236.851 31.0092C237.838 30.6186 238.942 30.4233 240.164 30.4233C241.499 30.4233 242.65 30.6115 243.616 30.9879C244.589 31.3572 245.334 31.8864 245.853 32.5753C246.378 33.2642 246.641 34.0845 246.641 35.0362C246.641 35.9027 246.357 36.6271 245.789 37.2095C245.221 37.7919 244.425 38.2074 243.402 38.456V38.6264C244.077 38.669 244.688 38.8501 245.235 39.1697C245.782 39.4893 246.219 39.9297 246.545 40.4908C246.872 41.0447 247.035 41.7017 247.035 42.4616C247.035 43.4773 246.737 44.3473 246.14 45.0717C245.551 45.7962 244.734 46.3537 243.69 46.7443C242.653 47.1278 241.464 47.3196 240.121 47.3196C238.814 47.3196 237.643 47.1314 236.606 46.755C235.576 46.3714 234.755 45.8104 234.145 45.0717C233.541 44.3331 233.221 43.4311 233.186 42.3658ZM260.907 37.0071V40.576H252.363V37.0071H260.907ZM253.854 30.6364V47H249.518V30.6364H253.854ZM263.751 30.6364V47H259.447V30.6364H263.751ZM271.639 47.3089C270.595 47.3089 269.664 47.1278 268.847 46.7656C268.031 46.3963 267.384 45.853 266.908 45.1357C266.44 44.4112 266.205 43.5092 266.205 42.4297C266.205 41.5206 266.372 40.7571 266.706 40.1392C267.04 39.5213 267.494 39.0241 268.07 38.6477C268.645 38.2713 269.298 37.9872 270.03 37.7955C270.769 37.6037 271.543 37.4688 272.352 37.3906C273.304 37.2912 274.071 37.1989 274.654 37.1136C275.236 37.0213 275.658 36.8864 275.921 36.7088C276.184 36.5312 276.315 36.2685 276.315 35.9205V35.8565C276.315 35.1818 276.102 34.6598 275.676 34.2905C275.257 33.9212 274.661 33.7365 273.886 33.7365C273.07 33.7365 272.42 33.9176 271.937 34.2798C271.454 34.6349 271.134 35.0824 270.978 35.6222L266.781 35.2812C266.994 34.2869 267.413 33.4276 268.038 32.7031C268.663 31.9716 269.469 31.4105 270.456 31.0199C271.45 30.6222 272.601 30.4233 273.908 30.4233C274.817 30.4233 275.687 30.5298 276.518 30.7429C277.356 30.956 278.098 31.2862 278.744 31.7337C279.398 32.1811 279.913 32.7564 280.289 33.4595C280.666 34.1555 280.854 34.9901 280.854 35.9631V47H276.55V44.7308H276.422C276.159 45.2422 275.808 45.6932 275.367 46.0838C274.927 46.4673 274.398 46.7692 273.78 46.9893C273.162 47.2024 272.448 47.3089 271.639 47.3089ZM272.938 44.1768C273.606 44.1768 274.195 44.0455 274.707 43.7827C275.218 43.5128 275.619 43.1506 275.911 42.696C276.202 42.2415 276.347 41.7266 276.347 41.1513V39.4148C276.205 39.5071 276.01 39.5923 275.761 39.6705C275.52 39.7415 275.247 39.8089 274.941 39.8729C274.636 39.9297 274.33 39.983 274.025 40.0327C273.72 40.0753 273.443 40.1143 273.194 40.1499C272.661 40.228 272.196 40.3523 271.798 40.5227C271.401 40.6932 271.092 40.924 270.872 41.2152C270.651 41.4993 270.541 41.8544 270.541 42.2805C270.541 42.8984 270.765 43.3707 271.212 43.6974C271.667 44.017 272.242 44.1768 272.938 44.1768ZM288.411 41.0128L294.302 30.6364H298.776V47H294.451V36.5916L288.581 47H284.075V30.6364H288.411V41.0128ZM293.524 24.9261H296.688C296.681 26.2187 296.202 27.2592 295.25 28.0476C294.306 28.8359 293.027 29.2301 291.415 29.2301C289.796 29.2301 288.514 28.8359 287.569 28.0476C286.624 27.2592 286.152 26.2187 286.152 24.9261H289.295C289.288 25.4162 289.444 25.8565 289.764 26.2472C290.09 26.6378 290.641 26.8331 291.415 26.8331C292.168 26.8331 292.708 26.6413 293.034 26.2578C293.361 25.8743 293.524 25.4304 293.524 24.9261ZM300.471 34.2053V30.6364H315.301V34.2053H310.027V47H305.702V34.2053H300.471ZM324.624 47.3196C322.94 47.3196 321.491 46.9787 320.277 46.2969C319.07 45.608 318.139 44.6349 317.486 43.3778C316.832 42.1136 316.506 40.6186 316.506 38.8928C316.506 37.2095 316.832 35.7322 317.486 34.4609C318.139 33.1896 319.059 32.1989 320.245 31.4886C321.438 30.7784 322.837 30.4233 324.442 30.4233C325.522 30.4233 326.527 30.5973 327.457 30.9453C328.395 31.2862 329.212 31.8011 329.908 32.4901C330.611 33.179 331.158 34.0455 331.548 35.0895C331.939 36.1264 332.134 37.3409 332.134 38.733V39.9794H318.317V37.1669H327.862C327.862 36.5135 327.72 35.9347 327.436 35.4304C327.152 34.9261 326.758 34.532 326.254 34.2479C325.756 33.9567 325.178 33.8111 324.517 33.8111C323.828 33.8111 323.217 33.9709 322.685 34.2905C322.159 34.603 321.747 35.0256 321.449 35.5582C321.151 36.0838 320.998 36.6697 320.991 37.3161V39.9901C320.991 40.7997 321.14 41.4993 321.438 42.0888C321.744 42.6783 322.173 43.1328 322.727 43.4524C323.281 43.772 323.938 43.9318 324.698 43.9318C325.202 43.9318 325.664 43.8608 326.083 43.7188C326.502 43.5767 326.861 43.3636 327.159 43.0795C327.457 42.7955 327.685 42.4474 327.841 42.0355L332.038 42.3125C331.825 43.321 331.388 44.2017 330.728 44.9545C330.075 45.7003 329.229 46.2827 328.192 46.7017C327.163 47.1136 325.973 47.3196 324.624 47.3196ZM342.189 47.3196C340.513 47.3196 339.071 46.9645 337.864 46.2543C336.664 45.5369 335.74 44.5426 335.094 43.2713C334.455 42 334.135 40.5369 334.135 38.8821C334.135 37.206 334.458 35.7358 335.105 34.4716C335.758 33.2003 336.685 32.2095 337.885 31.4993C339.086 30.782 340.513 30.4233 342.168 30.4233C343.596 30.4233 344.846 30.6825 345.918 31.201C346.99 31.7195 347.839 32.4474 348.464 33.3849C349.089 34.3224 349.434 35.4233 349.498 36.6875H345.215C345.094 35.8707 344.775 35.2138 344.256 34.7166C343.745 34.2124 343.074 33.9602 342.243 33.9602C341.539 33.9602 340.925 34.152 340.4 34.5355C339.881 34.9119 339.476 35.4624 339.185 36.1868C338.894 36.9112 338.748 37.7884 338.748 38.8182C338.748 39.8622 338.89 40.75 339.174 41.4815C339.466 42.2131 339.874 42.7706 340.4 43.1541C340.925 43.5376 341.539 43.7294 342.243 43.7294C342.761 43.7294 343.226 43.6229 343.638 43.4098C344.057 43.1967 344.402 42.8878 344.672 42.483C344.949 42.071 345.13 41.5774 345.215 41.0021H349.498C349.427 42.2521 349.086 43.353 348.475 44.3047C347.871 45.2493 347.037 45.9879 345.971 46.5206C344.906 47.0533 343.645 47.3196 342.189 47.3196ZM361.691 47V34.1946H358.623C357.792 34.1946 357.16 34.3864 356.727 34.7699C356.294 35.1534 356.081 35.608 356.088 36.1335C356.081 36.6662 356.287 37.1172 356.706 37.4865C357.132 37.8487 357.757 38.0298 358.581 38.0298H363.204V41.098H358.581C357.181 41.098 355.97 40.8849 354.948 40.4588C353.925 40.0327 353.137 39.4396 352.583 38.6797C352.029 37.9126 351.755 37.0213 351.762 36.0057C351.755 34.9403 352.029 34.0064 352.583 33.2038C353.137 32.3942 353.929 31.7656 354.958 31.3182C355.995 30.8636 357.217 30.6364 358.623 30.6364H365.921V47H361.691ZM351.294 47L355.843 38.4773H360.179L355.64 47H351.294ZM383.184 47.3196C381.508 47.3196 380.066 46.9645 378.859 46.2543C377.658 45.5369 376.735 44.5426 376.089 43.2713C375.449 42 375.13 40.5369 375.13 38.8821C375.13 37.206 375.453 35.7358 376.099 34.4716C376.753 33.2003 377.68 32.2095 378.88 31.4993C380.08 30.782 381.508 30.4233 383.163 30.4233C384.59 30.4233 385.84 30.6825 386.913 31.201C387.985 31.7195 388.834 32.4474 389.459 33.3849C390.084 34.3224 390.428 35.4233 390.492 36.6875H386.209C386.089 35.8707 385.769 35.2138 385.251 34.7166C384.739 34.2124 384.068 33.9602 383.237 33.9602C382.534 33.9602 381.92 34.152 381.394 34.5355C380.876 34.9119 380.471 35.4624 380.18 36.1868C379.888 36.9112 379.743 37.7884 379.743 38.8182C379.743 39.8622 379.885 40.75 380.169 41.4815C380.46 42.2131 380.868 42.7706 381.394 43.1541C381.92 43.5376 382.534 43.7294 383.237 43.7294C383.756 43.7294 384.221 43.6229 384.633 43.4098C385.052 43.1967 385.396 42.8878 385.666 42.483C385.943 42.071 386.124 41.5774 386.209 41.0021H390.492C390.421 42.2521 390.08 43.353 389.469 44.3047C388.866 45.2493 388.031 45.9879 386.966 46.5206C385.9 47.0533 384.64 47.3196 383.184 47.3196ZM400.555 47.3196C398.872 47.3196 397.423 46.9787 396.209 46.2969C395.001 45.608 394.071 44.6349 393.417 43.3778C392.764 42.1136 392.437 40.6186 392.437 38.8928C392.437 37.2095 392.764 35.7322 393.417 34.4609C394.071 33.1896 394.991 32.1989 396.177 31.4886C397.37 30.7784 398.769 30.4233 400.374 30.4233C401.454 30.4233 402.459 30.5973 403.389 30.9453C404.326 31.2862 405.143 31.8011 405.839 32.4901C406.542 33.179 407.089 34.0455 407.48 35.0895C407.871 36.1264 408.066 37.3409 408.066 38.733V39.9794H394.248V37.1669H403.794C403.794 36.5135 403.652 35.9347 403.368 35.4304C403.084 34.9261 402.689 34.532 402.185 34.2479C401.688 33.9567 401.109 33.8111 400.449 33.8111C399.76 33.8111 399.149 33.9709 398.616 34.2905C398.091 34.603 397.679 35.0256 397.38 35.5582C397.082 36.0838 396.929 36.6697 396.922 37.3161V39.9901C396.922 40.7997 397.072 41.4993 397.37 42.0888C397.675 42.6783 398.105 43.1328 398.659 43.4524C399.213 43.772 399.87 43.9318 400.63 43.9318C401.134 43.9318 401.596 43.8608 402.015 43.7188C402.434 43.5767 402.792 43.3636 403.091 43.0795C403.389 42.7955 403.616 42.4474 403.773 42.0355L407.97 42.3125C407.757 43.321 407.32 44.2017 406.66 44.9545C406.006 45.7003 405.161 46.2827 404.124 46.7017C403.094 47.1136 401.905 47.3196 400.555 47.3196ZM410.727 47V30.6364H415.266V36.9858H416.544L420.997 30.6364H426.324L420.539 38.7543L426.388 47H420.997L416.96 41.1939H415.266V47H410.727ZM428.006 53.1364V30.6364H432.48V33.3849H432.682C432.881 32.9446 433.169 32.4972 433.545 32.0426C433.929 31.581 434.426 31.1974 435.037 30.892C435.655 30.5795 436.422 30.4233 437.338 30.4233C438.531 30.4233 439.632 30.7358 440.641 31.3608C441.649 31.9787 442.455 32.9126 443.059 34.1626C443.663 35.4055 443.964 36.9645 443.964 38.8395C443.964 40.6648 443.67 42.206 443.08 43.4631C442.498 44.7131 441.702 45.6612 440.694 46.3075C439.692 46.9467 438.57 47.2663 437.327 47.2663C436.447 47.2663 435.697 47.1207 435.079 46.8295C434.469 46.5384 433.968 46.1726 433.577 45.7322C433.187 45.2848 432.888 44.8338 432.682 44.3793H432.544V53.1364H428.006ZM432.448 38.8182C432.448 39.7912 432.583 40.6399 432.853 41.3643C433.123 42.0888 433.513 42.6534 434.025 43.0582C434.536 43.456 435.158 43.6548 435.889 43.6548C436.628 43.6548 437.253 43.4524 437.764 43.0476C438.276 42.6357 438.663 42.0675 438.925 41.343C439.195 40.6115 439.33 39.7699 439.33 38.8182C439.33 37.8736 439.199 37.0426 438.936 36.3253C438.673 35.608 438.286 35.0469 437.775 34.642C437.263 34.2372 436.635 34.0348 435.889 34.0348C435.151 34.0348 434.526 34.2301 434.014 34.6207C433.51 35.0114 433.123 35.5653 432.853 36.2827C432.583 37 432.448 37.8452 432.448 38.8182ZM454.147 47.3196C452.464 47.3196 451.015 46.9787 449.801 46.2969C448.593 45.608 447.663 44.6349 447.01 43.3778C446.356 42.1136 446.029 40.6186 446.029 38.8928C446.029 37.2095 446.356 35.7322 447.01 34.4609C447.663 33.1896 448.583 32.1989 449.769 31.4886C450.962 30.7784 452.361 30.4233 453.966 30.4233C455.046 30.4233 456.051 30.5973 456.981 30.9453C457.919 31.2862 458.735 31.8011 459.431 32.4901C460.135 33.179 460.681 34.0455 461.072 35.0895C461.463 36.1264 461.658 37.3409 461.658 38.733V39.9794H447.841V37.1669H457.386C457.386 36.5135 457.244 35.9347 456.96 35.4304C456.676 34.9261 456.282 34.532 455.777 34.2479C455.28 33.9567 454.701 33.8111 454.041 33.8111C453.352 33.8111 452.741 33.9709 452.208 34.2905C451.683 34.603 451.271 35.0256 450.973 35.5582C450.674 36.0838 450.522 36.6697 450.515 37.3161V39.9901C450.515 40.7997 450.664 41.4993 450.962 42.0888C451.267 42.6783 451.697 43.1328 452.251 43.4524C452.805 43.772 453.462 43.9318 454.222 43.9318C454.726 43.9318 455.188 43.8608 455.607 43.7188C456.026 43.5767 456.385 43.3636 456.683 43.0795C456.981 42.7955 457.208 42.4474 457.365 42.0355L461.562 42.3125C461.349 43.321 460.912 44.2017 460.252 44.9545C459.598 45.7003 458.753 46.2827 457.716 46.7017C456.686 47.1136 455.497 47.3196 454.147 47.3196ZM463.057 34.2053V30.6364H477.887V34.2053H472.613V47H468.288V34.2053H463.057ZM484.674 41.0128L490.565 30.6364H495.04V47H490.714V36.5916L484.844 47H480.338V30.6364H484.674V41.0128ZM519.222 30.6364V47H514.918V30.6364H519.222ZM517.123 37.8168V41.3963C516.775 41.5526 516.342 41.7017 515.824 41.8438C515.305 41.9787 514.762 42.0888 514.194 42.174C513.626 42.2592 513.093 42.3018 512.596 42.3018C510.245 42.3018 508.395 41.8189 507.045 40.853C505.696 39.88 505.021 38.3281 505.021 36.1974V30.6151H509.304V36.1974C509.304 36.8295 509.41 37.3303 509.623 37.6996C509.844 38.0689 510.192 38.3352 510.668 38.4986C511.15 38.6548 511.793 38.733 512.596 38.733C513.342 38.733 514.073 38.6548 514.79 38.4986C515.508 38.3423 516.285 38.1151 517.123 37.8168ZM529.839 47.3196C528.184 47.3196 526.753 46.968 525.546 46.2649C524.346 45.5547 523.419 44.5675 522.765 43.3033C522.112 42.032 521.785 40.5582 521.785 38.8821C521.785 37.1918 522.112 35.7145 522.765 34.4503C523.419 33.179 524.346 32.1918 525.546 31.4886C526.753 30.7784 528.184 30.4233 529.839 30.4233C531.494 30.4233 532.922 30.7784 534.122 31.4886C535.329 32.1918 536.26 33.179 536.913 34.4503C537.567 35.7145 537.893 37.1918 537.893 38.8821C537.893 40.5582 537.567 42.032 536.913 43.3033C536.26 44.5675 535.329 45.5547 534.122 46.2649C532.922 46.968 531.494 47.3196 529.839 47.3196ZM529.861 43.804C530.613 43.804 531.242 43.5909 531.746 43.1648C532.251 42.7315 532.631 42.142 532.886 41.3963C533.149 40.6506 533.28 39.8018 533.28 38.8501C533.28 37.8984 533.149 37.0497 532.886 36.304C532.631 35.5582 532.251 34.9687 531.746 34.5355C531.242 34.1023 530.613 33.8857 529.861 33.8857C529.101 33.8857 528.461 34.1023 527.943 34.5355C527.432 34.9687 527.045 35.5582 526.782 36.304C526.526 37.0497 526.398 37.8984 526.398 38.8501C526.398 39.8018 526.526 40.6506 526.782 41.3963C527.045 42.142 527.432 42.7315 527.943 43.1648C528.461 43.5909 529.101 43.804 529.861 43.804ZM539.585 47L539.564 43.3991H540.108C540.491 43.3991 540.821 43.3068 541.098 43.1222C541.382 42.9304 541.617 42.6214 541.801 42.1953C541.986 41.7692 542.132 41.2045 542.238 40.5014C542.345 39.7912 542.416 38.9176 542.451 37.8807L542.718 30.6364H555.161V47H550.835V34.2053H546.798L546.542 39.2017C546.478 40.5724 546.311 41.7514 546.041 42.7386C545.779 43.7259 545.413 44.5355 544.944 45.1676C544.475 45.7926 543.911 46.2543 543.25 46.5526C542.59 46.8509 541.823 47 540.949 47H539.585ZM565.773 47.3196C564.118 47.3196 562.687 46.968 561.479 46.2649C560.279 45.5547 559.352 44.5675 558.699 43.3033C558.045 42.032 557.719 40.5582 557.719 38.8821C557.719 37.1918 558.045 35.7145 558.699 34.4503C559.352 33.179 560.279 32.1918 561.479 31.4886C562.687 30.7784 564.118 30.4233 565.773 30.4233C567.427 30.4233 568.855 30.7784 570.055 31.4886C571.263 32.1918 572.193 33.179 572.846 34.4503C573.5 35.7145 573.826 37.1918 573.826 38.8821C573.826 40.5582 573.5 42.032 572.846 43.3033C572.193 44.5675 571.263 45.5547 570.055 46.2649C568.855 46.968 567.427 47.3196 565.773 47.3196ZM565.794 43.804C566.547 43.804 567.175 43.5909 567.679 43.1648C568.184 42.7315 568.564 42.142 568.819 41.3963C569.082 40.6506 569.214 39.8018 569.214 38.8501C569.214 37.8984 569.082 37.0497 568.819 36.304C568.564 35.5582 568.184 34.9687 567.679 34.5355C567.175 34.1023 566.547 33.8857 565.794 33.8857C565.034 33.8857 564.395 34.1023 563.876 34.5355C563.365 34.9687 562.978 35.5582 562.715 36.304C562.459 37.0497 562.331 37.8984 562.331 38.8501C562.331 39.8018 562.459 40.6506 562.715 41.3963C562.978 42.142 563.365 42.7315 563.876 43.1648C564.395 43.5909 565.034 43.804 565.794 43.804ZM576.477 47V30.6364H583.455C585.473 30.6364 587.067 31.0199 588.239 31.7869C589.411 32.554 589.997 33.6442 589.997 35.0575C589.997 35.9453 589.666 36.6839 589.006 37.2734C588.345 37.8629 587.429 38.2607 586.257 38.4666C587.237 38.5376 588.072 38.7614 588.761 39.1378C589.457 39.5071 589.986 39.9865 590.348 40.576C590.718 41.1655 590.902 41.8189 590.902 42.5362C590.902 43.4666 590.654 44.2656 590.156 44.9332C589.666 45.6009 588.946 46.1122 587.994 46.4673C587.049 46.8224 585.895 47 584.531 47H576.477ZM580.707 43.6016H584.531C585.164 43.6016 585.657 43.4524 586.012 43.1541C586.375 42.8487 586.556 42.4332 586.556 41.9077C586.556 41.3253 586.375 40.8672 586.012 40.5334C585.657 40.1996 585.164 40.0327 584.531 40.0327H580.707V43.6016ZM580.707 37.3693H583.551C584.006 37.3693 584.393 37.3054 584.713 37.1776C585.039 37.0426 585.288 36.8509 585.458 36.6023C585.636 36.3537 585.725 36.0589 585.725 35.718C585.725 35.2138 585.522 34.8196 585.117 34.5355C584.713 34.2514 584.159 34.1094 583.455 34.1094H580.707V37.3693ZM593.463 47V30.6364H598.001V47H593.463ZM595.742 28.527C595.068 28.527 594.489 28.3033 594.006 27.8558C593.53 27.4013 593.292 26.858 593.292 26.2259C593.292 25.6009 593.53 25.0646 594.006 24.6172C594.489 24.1626 595.068 23.9354 595.742 23.9354C596.417 23.9354 596.992 24.1626 597.468 24.6172C597.951 25.0646 598.193 25.6009 598.193 26.2259C598.193 26.858 597.951 27.4013 597.468 27.8558C596.992 28.3033 596.417 28.527 595.742 28.527ZM615.537 30.6364V47H611.233V30.6364H615.537ZM613.439 37.8168V41.3963C613.091 41.5526 612.657 41.7017 612.139 41.8438C611.621 41.9787 611.077 42.0888 610.509 42.174C609.941 42.2592 609.408 42.3018 608.911 42.3018C606.56 42.3018 604.71 41.8189 603.361 40.853C602.011 39.88 601.336 38.3281 601.336 36.1974V30.6151H605.619V36.1974C605.619 36.8295 605.726 37.3303 605.939 37.6996C606.159 38.0689 606.507 38.3352 606.983 38.4986C607.466 38.6548 608.108 38.733 608.911 38.733C609.657 38.733 610.388 38.6548 611.106 38.4986C611.823 38.3423 612.601 38.1151 613.439 37.8168ZM626.155 47.3196C624.5 47.3196 623.069 46.968 621.861 46.2649C620.661 45.5547 619.734 44.5675 619.081 43.3033C618.427 42.032 618.101 40.5582 618.101 38.8821C618.101 37.1918 618.427 35.7145 619.081 34.4503C619.734 33.179 620.661 32.1918 621.861 31.4886C623.069 30.7784 624.5 30.4233 626.155 30.4233C627.809 30.4233 629.237 30.7784 630.437 31.4886C631.645 32.1918 632.575 33.179 633.228 34.4503C633.882 35.7145 634.209 37.1918 634.209 38.8821C634.209 40.5582 633.882 42.032 633.228 43.3033C632.575 44.5675 631.645 45.5547 630.437 46.2649C629.237 46.968 627.809 47.3196 626.155 47.3196ZM626.176 43.804C626.929 43.804 627.557 43.5909 628.062 43.1648C628.566 42.7315 628.946 42.142 629.201 41.3963C629.464 40.6506 629.596 39.8018 629.596 38.8501C629.596 37.8984 629.464 37.0497 629.201 36.304C628.946 35.5582 628.566 34.9687 628.062 34.5355C627.557 34.1023 626.929 33.8857 626.176 33.8857C625.416 33.8857 624.777 34.1023 624.258 34.5355C623.747 34.9687 623.36 35.5582 623.097 36.304C622.841 37.0497 622.714 37.8984 622.714 38.8501C622.714 39.8018 622.841 40.6506 623.097 41.3963C623.36 42.142 623.747 42.7315 624.258 43.1648C624.777 43.5909 625.416 43.804 626.176 43.804ZM636.86 47V30.6364H641.398V47H636.86ZM635.89 28.3991C635.279 28.3991 634.754 28.1861 634.313 27.7599C633.873 27.3267 633.653 26.8153 633.653 26.2259C633.653 25.6222 633.873 25.1108 634.313 24.6918C634.754 24.2727 635.279 24.0632 635.89 24.0632C636.508 24.0632 637.03 24.2727 637.456 24.6918C637.889 25.1108 638.106 25.6222 638.106 26.2259C638.106 26.8153 637.889 27.3267 637.456 27.7599C637.03 28.1861 636.508 28.3991 635.89 28.3991ZM642.41 28.3991C641.799 28.3991 641.274 28.1861 640.833 27.7599C640.393 27.3267 640.173 26.8153 640.173 26.2259C640.173 25.6222 640.393 25.1108 640.833 24.6918C641.274 24.2727 641.799 24.0632 642.41 24.0632C643.028 24.0632 643.55 24.2727 643.976 24.6918C644.409 25.1108 644.626 25.6222 644.626 26.2259C644.626 26.8153 644.409 27.3267 643.976 27.7599C643.55 28.1861 643.028 28.3991 642.41 28.3991ZM651.377 47V30.6364H665.684V47H661.348V34.2053H655.659V47H651.377ZM676.4 47.3196C674.724 47.3196 673.282 46.9645 672.075 46.2543C670.874 45.5369 669.951 44.5426 669.305 43.2713C668.665 42 668.346 40.5369 668.346 38.8821C668.346 37.206 668.669 35.7358 669.315 34.4716C669.969 33.2003 670.896 32.2095 672.096 31.4993C673.296 30.782 674.724 30.4233 676.379 30.4233C677.806 30.4233 679.056 30.6825 680.129 31.201C681.201 31.7195 682.05 32.4474 682.675 33.3849C683.3 34.3224 683.644 35.4233 683.708 36.6875H679.425C679.305 35.8707 678.985 35.2138 678.467 34.7166C677.955 34.2124 677.284 33.9602 676.453 33.9602C675.75 33.9602 675.136 34.152 674.61 34.5355C674.092 34.9119 673.687 35.4624 673.396 36.1868C673.104 36.9112 672.959 37.7884 672.959 38.8182C672.959 39.8622 673.101 40.75 673.385 41.4815C673.676 42.2131 674.085 42.7706 674.61 43.1541C675.136 43.5376 675.75 43.7294 676.453 43.7294C676.972 43.7294 677.437 43.6229 677.849 43.4098C678.268 43.1967 678.612 42.8878 678.882 42.483C679.159 42.071 679.34 41.5774 679.425 41.0021H683.708C683.637 42.2521 683.296 43.353 682.685 44.3047C682.082 45.2493 681.247 45.9879 680.182 46.5206C679.116 47.0533 677.856 47.3196 676.4 47.3196ZM690.65 41.0128L696.541 30.6364H701.016V47H696.69V36.5916L690.82 47H686.314V30.6364H690.65V41.0128ZM708.146 30.6364L711.151 36.3572L714.229 30.6364H718.885L714.144 38.8182L719.013 47H714.379L711.151 41.343L707.976 47H703.288L708.146 38.8182L703.459 30.6364H708.146ZM728.088 47.3196C726.433 47.3196 725.002 46.968 723.794 46.2649C722.594 45.5547 721.667 44.5675 721.014 43.3033C720.36 42.032 720.034 40.5582 720.034 38.8821C720.034 37.1918 720.36 35.7145 721.014 34.4503C721.667 33.179 722.594 32.1918 723.794 31.4886C725.002 30.7784 726.433 30.4233 728.088 30.4233C729.743 30.4233 731.17 30.7784 732.37 31.4886C733.578 32.1918 734.508 33.179 735.162 34.4503C735.815 35.7145 736.142 37.1918 736.142 38.8821C736.142 40.5582 735.815 42.032 735.162 43.3033C734.508 44.5675 733.578 45.5547 732.37 46.2649C731.17 46.968 729.743 47.3196 728.088 47.3196ZM728.109 43.804C728.862 43.804 729.49 43.5909 729.995 43.1648C730.499 42.7315 730.879 42.142 731.135 41.3963C731.397 40.6506 731.529 39.8018 731.529 38.8501C731.529 37.8984 731.397 37.0497 731.135 36.304C730.879 35.5582 730.499 34.9687 729.995 34.5355C729.49 34.1023 728.862 33.8857 728.109 33.8857C727.349 33.8857 726.71 34.1023 726.191 34.5355C725.68 34.9687 725.293 35.5582 725.03 36.304C724.775 37.0497 724.647 37.8984 724.647 38.8501C724.647 39.8018 724.775 40.6506 725.03 41.3963C725.293 42.142 725.68 42.7315 726.191 43.1648C726.71 43.5909 727.349 43.804 728.109 43.804ZM737.834 47L737.813 43.3991H738.356C738.739 43.3991 739.07 43.3068 739.347 43.1222C739.631 42.9304 739.865 42.6214 740.05 42.1953C740.234 41.7692 740.38 41.2045 740.487 40.5014C740.593 39.7912 740.664 38.9176 740.7 37.8807L740.966 30.6364H753.409V47H749.084V34.2053H745.046L744.791 39.2017C744.727 40.5724 744.56 41.7514 744.29 42.7386C744.027 43.7259 743.661 44.5355 743.193 45.1676C742.724 45.7926 742.159 46.2543 741.499 46.5526C740.838 46.8509 740.071 47 739.198 47H737.834ZM764.021 47.3196C762.366 47.3196 760.935 46.968 759.728 46.2649C758.527 45.5547 757.6 44.5675 756.947 43.3033C756.294 42.032 755.967 40.5582 755.967 38.8821C755.967 37.1918 756.294 35.7145 756.947 34.4503C757.6 33.179 758.527 32.1918 759.728 31.4886C760.935 30.7784 762.366 30.4233 764.021 30.4233C765.676 30.4233 767.103 30.7784 768.304 31.4886C769.511 32.1918 770.441 33.179 771.095 34.4503C771.748 35.7145 772.075 37.1918 772.075 38.8821C772.075 40.5582 771.748 42.032 771.095 43.3033C770.441 44.5675 769.511 45.5547 768.304 46.2649C767.103 46.968 765.676 47.3196 764.021 47.3196ZM764.042 43.804C764.795 43.804 765.424 43.5909 765.928 43.1648C766.432 42.7315 766.812 42.142 767.068 41.3963C767.331 40.6506 767.462 39.8018 767.462 38.8501C767.462 37.8984 767.331 37.0497 767.068 36.304C766.812 35.5582 766.432 34.9687 765.928 34.5355C765.424 34.1023 764.795 33.8857 764.042 33.8857C763.282 33.8857 762.643 34.1023 762.125 34.5355C761.613 34.9687 761.226 35.5582 760.963 36.304C760.708 37.0497 760.58 37.8984 760.58 38.8501C760.58 39.8018 760.708 40.6506 760.963 41.3963C761.226 42.142 761.613 42.7315 762.125 43.1648C762.643 43.5909 763.282 43.804 764.042 43.804ZM785.933 30.6364V34.2053H779.136V47H774.726V30.6364H785.933ZM788.401 47V30.6364H792.939V47H788.401ZM790.68 28.527C790.006 28.527 789.427 28.3033 788.944 27.8558C788.468 27.4013 788.23 26.858 788.23 26.2259C788.23 25.6009 788.468 25.0646 788.944 24.6172C789.427 24.1626 790.006 23.9354 790.68 23.9354C791.355 23.9354 791.93 24.1626 792.406 24.6172C792.889 25.0646 793.131 25.6009 793.131 26.2259C793.131 26.858 792.889 27.4013 792.406 27.8558C791.93 28.3033 791.355 28.527 790.68 28.527ZM797.476 47V30.6364H802.014V47H797.476ZM796.506 28.3991C795.895 28.3991 795.37 28.1861 794.929 27.7599C794.489 27.3267 794.269 26.8153 794.269 26.2259C794.269 25.6222 794.489 25.1108 794.929 24.6918C795.37 24.2727 795.895 24.0632 796.506 24.0632C797.124 24.0632 797.646 24.2727 798.072 24.6918C798.505 25.1108 798.722 25.6222 798.722 26.2259C798.722 26.8153 798.505 27.3267 798.072 27.7599C797.646 28.1861 797.124 28.3991 796.506 28.3991ZM803.026 28.3991C802.415 28.3991 801.89 28.1861 801.449 27.7599C801.009 27.3267 800.789 26.8153 800.789 26.2259C800.789 25.6222 801.009 25.1108 801.449 24.6918C801.89 24.2727 802.415 24.0632 803.026 24.0632C803.644 24.0632 804.166 24.2727 804.592 24.6918C805.025 25.1108 805.242 25.6222 805.242 26.2259C805.242 26.8153 805.025 27.3267 804.592 27.7599C804.166 28.1861 803.644 28.3991 803.026 28.3991Z" fill="#EC8812"/>
        <path d="M947.972 25.4091V38.5H945.62V27.3778H939.893V38.5H937.54V25.4091H947.972ZM950.526 42.1818V28.6818H952.802V30.3054H952.936C953.056 30.0668 953.224 29.8132 953.441 29.5447C953.659 29.272 953.953 29.0398 954.323 28.848C954.694 28.652 955.167 28.554 955.742 28.554C956.501 28.554 957.185 28.7479 957.794 29.1357C958.408 29.5192 958.894 30.0881 959.252 30.8423C959.614 31.5923 959.795 32.5128 959.795 33.6037C959.795 34.6818 959.618 35.598 959.264 36.3523C958.911 37.1065 958.429 37.6818 957.82 38.0781C957.21 38.4744 956.52 38.6726 955.749 38.6726C955.186 38.6726 954.72 38.5788 954.349 38.3913C953.978 38.2038 953.68 37.978 953.454 37.7138C953.232 37.4453 953.06 37.1918 952.936 36.9531H952.84V42.1818H950.526ZM952.796 33.5909C952.796 34.2259 952.885 34.782 953.064 35.2592C953.247 35.7365 953.509 36.1094 953.85 36.3778C954.196 36.642 954.613 36.7741 955.103 36.7741C955.615 36.7741 956.043 36.6378 956.388 36.3651C956.733 36.0881 956.993 35.7109 957.168 35.2337C957.347 34.7521 957.436 34.2045 957.436 33.5909C957.436 32.9815 957.349 32.4403 957.174 31.9673C957 31.4943 956.74 31.1236 956.394 30.8551C956.049 30.5866 955.619 30.4524 955.103 30.4524C954.609 30.4524 954.189 30.5824 953.844 30.8423C953.499 31.1023 953.237 31.4666 953.058 31.9354C952.883 32.4041 952.796 32.956 952.796 33.5909ZM963.827 35.3679L967.758 28.6818H970.136V38.5H967.899V31.8075L963.981 38.5H961.596V28.6818H963.827V35.3679ZM976.922 32.9006V34.4283H972.927V32.9006H976.922ZM980.482 31.7756L978.296 32.0632C978.177 31.5987 977.955 31.2152 977.632 30.9126C977.308 30.6058 976.854 30.4524 976.27 30.4524C975.75 30.4524 975.311 30.5824 974.953 30.8423C974.6 31.1023 974.331 31.4687 974.148 31.9418C973.965 32.4105 973.873 32.9602 973.873 33.5909C973.873 34.2259 973.962 34.782 974.141 35.2592C974.325 35.7365 974.593 36.1094 974.947 36.3778C975.305 36.642 975.746 36.7741 976.27 36.7741C976.628 36.7741 976.941 36.7124 977.21 36.5888C977.478 36.4609 977.7 36.2862 977.874 36.0646C978.053 35.8388 978.183 35.5767 978.264 35.2784L980.463 35.5533C980.34 36.1712 980.088 36.7166 979.709 37.1896C979.334 37.6584 978.852 38.027 978.264 38.2955C977.681 38.5597 977.016 38.6918 976.27 38.6918C975.315 38.6918 974.491 38.4744 973.796 38.0398C973.106 37.6051 972.573 37.0043 972.198 36.2372C971.828 35.4702 971.642 34.5881 971.642 33.5909C971.642 32.6065 971.83 31.7372 972.205 30.983C972.584 30.2244 973.119 29.63 973.809 29.1996C974.499 28.7692 975.32 28.554 976.27 28.554C977.011 28.554 977.676 28.6882 978.264 28.9567C978.857 29.2209 979.345 29.5937 979.728 30.0753C980.116 30.5568 980.367 31.1236 980.482 31.7756ZM981.479 41.3509V36.5952H982.258C982.467 36.4332 982.642 36.2138 982.782 35.9368C982.923 35.6555 983.038 35.3253 983.128 34.946C983.221 34.5625 983.298 34.1342 983.358 33.6612C983.417 33.1839 983.471 32.6705 983.518 32.1207L983.799 28.6818H990.894V36.5952H992.415V41.3509H990.178V38.5H983.754V41.3509H981.479ZM984.636 36.5952H988.682V30.5483H985.806L985.653 32.1207C985.567 33.1605 985.454 34.0511 985.314 34.7926C985.173 35.5341 984.947 36.1349 984.636 36.5952ZM1000.71 32.6321V34.5305H995.478V32.6321H1000.71ZM996.194 28.6818V38.5H993.963V28.6818H996.194ZM1002.22 28.6818V38.5H999.997V28.6818H1002.22ZM1005.47 42.1818C1005.15 42.1818 1004.86 42.1563 1004.59 42.1051C1004.33 42.0582 1004.12 42.0028 1003.96 41.9389L1004.5 40.1364C1004.83 40.2344 1005.13 40.2813 1005.4 40.277C1005.66 40.2727 1005.9 40.1896 1006.1 40.0277C1006.3 39.87 1006.47 39.6058 1006.61 39.2351L1006.81 38.7045L1003.25 28.6818H1005.71L1007.97 36.0966H1008.07L1010.34 28.6818H1012.8L1008.87 39.6889C1008.69 40.2088 1008.44 40.6541 1008.14 41.0249C1007.84 41.3999 1007.47 41.6854 1007.03 41.8814C1006.59 42.0817 1006.07 42.1818 1005.47 42.1818ZM1016.45 35.3679L1020.38 28.6818H1022.76V38.5H1020.52V31.8075L1016.61 38.5H1014.22V28.6818H1016.45V35.3679ZM1019.75 25.3068H1021.48C1021.48 26.0526 1021.21 26.6577 1020.67 27.1222C1020.13 27.5824 1019.41 27.8125 1018.49 27.8125C1017.57 27.8125 1016.85 27.5824 1016.31 27.1222C1015.77 26.6577 1015.5 26.0526 1015.51 25.3068H1017.23C1017.23 25.6136 1017.32 25.8885 1017.51 26.1314C1017.7 26.37 1018.03 26.4893 1018.49 26.4893C1018.94 26.4893 1019.26 26.37 1019.45 26.1314C1019.65 25.8928 1019.75 25.6179 1019.75 25.3068ZM1023.86 30.5803V28.6818H1032.45V30.5803H1029.27V38.5H1027.04V30.5803H1023.86ZM1038.05 38.6918C1037.07 38.6918 1036.22 38.4872 1035.5 38.0781C1034.79 37.6648 1034.24 37.081 1033.86 36.3267C1033.48 35.5682 1033.29 34.6754 1033.29 33.6484C1033.29 32.6385 1033.48 31.7521 1033.86 30.9893C1034.25 30.2223 1034.79 29.6257 1035.48 29.1996C1036.18 28.7692 1037 28.554 1037.93 28.554C1038.54 28.554 1039.11 28.652 1039.65 28.848C1040.19 29.0398 1040.66 29.3381 1041.08 29.7429C1041.5 30.1477 1041.82 30.6634 1042.06 31.2898C1042.3 31.9119 1042.42 32.6534 1042.42 33.5142V34.2237H1034.37V32.6641H1040.2C1040.2 32.2209 1040.1 31.8267 1039.91 31.4815C1039.73 31.1321 1039.46 30.8572 1039.13 30.657C1038.8 30.4567 1038.41 30.3565 1037.96 30.3565C1037.49 30.3565 1037.08 30.4716 1036.72 30.7017C1036.36 30.9276 1036.08 31.2259 1035.88 31.5966C1035.68 31.9631 1035.58 32.3658 1035.58 32.8047V34.1662C1035.58 34.7372 1035.68 35.2273 1035.89 35.6364C1036.1 36.0412 1036.39 36.3523 1036.77 36.5696C1037.14 36.7827 1037.58 36.8892 1038.09 36.8892C1038.42 36.8892 1038.73 36.8423 1039 36.7486C1039.27 36.6506 1039.51 36.5078 1039.71 36.3203C1039.91 36.1328 1040.06 35.9006 1040.16 35.6236L1042.32 35.8665C1042.19 36.4375 1041.93 36.9361 1041.54 37.3622C1041.16 37.7841 1040.68 38.1122 1040.09 38.3466C1039.49 38.5767 1038.82 38.6918 1038.05 38.6918ZM1048.48 38.6918C1047.5 38.6918 1046.66 38.4766 1045.96 38.0462C1045.26 37.6158 1044.72 37.0213 1044.34 36.2628C1043.96 35.5 1043.78 34.6222 1043.78 33.6293C1043.78 32.6321 1043.97 31.7521 1044.35 30.9893C1044.73 30.2223 1045.28 29.6257 1045.97 29.1996C1046.68 28.7692 1047.51 28.554 1048.47 28.554C1049.26 28.554 1049.97 28.701 1050.58 28.995C1051.2 29.2848 1051.69 29.696 1052.06 30.2287C1052.43 30.7571 1052.64 31.375 1052.69 32.0824H1050.47C1050.39 31.6094 1050.17 31.2152 1049.84 30.8999C1049.5 30.5803 1049.06 30.4205 1048.5 30.4205C1048.03 30.4205 1047.61 30.5483 1047.25 30.804C1046.89 31.0554 1046.62 31.4176 1046.42 31.8906C1046.22 32.3636 1046.12 32.9304 1046.12 33.5909C1046.12 34.2599 1046.22 34.8352 1046.42 35.3168C1046.61 35.794 1046.89 36.1626 1047.24 36.4226C1047.6 36.6783 1048.02 36.8061 1048.5 36.8061C1048.84 36.8061 1049.14 36.7422 1049.41 36.6143C1049.69 36.4822 1049.91 36.2926 1050.1 36.0455C1050.28 35.7983 1050.41 35.4979 1050.47 35.1442H1052.69C1052.63 35.8388 1052.43 36.4545 1052.07 36.9915C1051.72 37.5241 1051.24 37.9418 1050.63 38.2443C1050.02 38.5426 1049.3 38.6918 1048.48 38.6918ZM1055.97 31.8778H1058.87C1060.12 31.8778 1061.09 32.1825 1061.78 32.7919C1062.46 33.4013 1062.81 34.2003 1062.81 35.1889C1062.81 35.8324 1062.65 36.4034 1062.34 36.902C1062.03 37.4006 1061.58 37.7926 1061 38.0781C1060.41 38.3594 1059.7 38.5 1058.87 38.5H1054.41V28.6818H1056.64V36.6016H1058.87C1059.37 36.6016 1059.78 36.4737 1060.11 36.218C1060.43 35.9581 1060.59 35.6257 1060.59 35.2209C1060.59 34.7947 1060.43 34.4474 1060.11 34.179C1059.78 33.9105 1059.37 33.7763 1058.87 33.7763H1055.97V31.8778ZM1068.03 41.3509V36.5952H1068.81C1069.02 36.4332 1069.19 36.2138 1069.33 35.9368C1069.47 35.6555 1069.59 35.3253 1069.68 34.946C1069.77 34.5625 1069.85 34.1342 1069.91 33.6612C1069.97 33.1839 1070.02 32.6705 1070.07 32.1207L1070.35 28.6818H1077.45V36.5952H1078.97V41.3509H1076.73V38.5H1070.31V41.3509H1068.03ZM1071.19 36.5952H1075.23V30.5483H1072.36L1072.2 32.1207C1072.12 33.1605 1072.01 34.0511 1071.87 34.7926C1071.72 35.5341 1071.5 36.1349 1071.19 36.5952ZM1084.8 38.6918C1083.84 38.6918 1083.01 38.4808 1082.3 38.0589C1081.6 37.6371 1081.06 37.0469 1080.67 36.2884C1080.28 35.5298 1080.09 34.6435 1080.09 33.6293C1080.09 32.6151 1080.28 31.7266 1080.67 30.9638C1081.06 30.201 1081.6 29.6087 1082.3 29.1868C1083.01 28.7649 1083.84 28.554 1084.8 28.554C1085.76 28.554 1086.59 28.7649 1087.29 29.1868C1087.99 29.6087 1088.54 30.201 1088.92 30.9638C1089.31 31.7266 1089.5 32.6151 1089.5 33.6293C1089.5 34.6435 1089.31 35.5298 1088.92 36.2884C1088.54 37.0469 1087.99 37.6371 1087.29 38.0589C1086.59 38.4808 1085.76 38.6918 1084.8 38.6918ZM1084.81 36.8381C1085.33 36.8381 1085.76 36.6953 1086.11 36.4098C1086.46 36.12 1086.72 35.7322 1086.89 35.2464C1087.07 34.7607 1087.16 34.2195 1087.16 33.6229C1087.16 33.022 1087.07 32.4787 1086.89 31.9929C1086.72 31.5028 1086.46 31.1129 1086.11 30.8232C1085.76 30.5334 1085.33 30.3885 1084.81 30.3885C1084.28 30.3885 1083.83 30.5334 1083.48 30.8232C1083.13 31.1129 1082.87 31.5028 1082.69 31.9929C1082.52 32.4787 1082.44 33.022 1082.44 33.6229C1082.44 34.2195 1082.52 34.7607 1082.69 35.2464C1082.87 35.7322 1083.13 36.12 1083.48 36.4098C1083.83 36.6953 1084.28 36.8381 1084.81 36.8381ZM1095.1 27.397V25.4091H1105.54V27.397H1101.5V38.5H1099.14V27.397H1095.1ZM1110.2 38.6918C1109.21 38.6918 1108.36 38.4872 1107.65 38.0781C1106.93 37.6648 1106.39 37.081 1106 36.3267C1105.62 35.5682 1105.43 34.6754 1105.43 33.6484C1105.43 32.6385 1105.62 31.7521 1106 30.9893C1106.39 30.2223 1106.93 29.6257 1107.63 29.1996C1108.32 28.7692 1109.14 28.554 1110.07 28.554C1110.68 28.554 1111.25 28.652 1111.79 28.848C1112.33 29.0398 1112.81 29.3381 1113.22 29.7429C1113.64 30.1477 1113.97 30.6634 1114.2 31.2898C1114.44 31.9119 1114.56 32.6534 1114.56 33.5142V34.2237H1106.51V32.6641H1112.34C1112.34 32.2209 1112.24 31.8267 1112.06 31.4815C1111.87 31.1321 1111.61 30.8572 1111.27 30.657C1110.94 30.4567 1110.55 30.3565 1110.11 30.3565C1109.63 30.3565 1109.22 30.4716 1108.86 30.7017C1108.5 30.9276 1108.22 31.2259 1108.02 31.5966C1107.83 31.9631 1107.73 32.3658 1107.72 32.8047V34.1662C1107.72 34.7372 1107.83 35.2273 1108.04 35.6364C1108.24 36.0412 1108.54 36.3523 1108.91 36.5696C1109.29 36.7827 1109.73 36.8892 1110.23 36.8892C1110.56 36.8892 1110.87 36.8423 1111.14 36.7486C1111.41 36.6506 1111.65 36.5078 1111.85 36.3203C1112.05 36.1328 1112.2 35.9006 1112.31 35.6236L1114.47 35.8665C1114.33 36.4375 1114.07 36.9361 1113.69 37.3622C1113.31 37.7841 1112.82 38.1122 1112.23 38.3466C1111.64 38.5767 1110.96 38.6918 1110.2 38.6918ZM1118.65 25.4091V38.5H1116.34V25.4091H1118.65ZM1125.2 38.6918C1124.22 38.6918 1123.36 38.4872 1122.65 38.0781C1121.94 37.6648 1121.39 37.081 1121.01 36.3267C1120.62 35.5682 1120.43 34.6754 1120.43 33.6484C1120.43 32.6385 1120.62 31.7521 1121.01 30.9893C1121.39 30.2223 1121.94 29.6257 1122.63 29.1996C1123.32 28.7692 1124.14 28.554 1125.08 28.554C1125.68 28.554 1126.25 28.652 1126.79 28.848C1127.33 29.0398 1127.81 29.3381 1128.22 29.7429C1128.64 30.1477 1128.97 30.6634 1129.21 31.2898C1129.45 31.9119 1129.57 32.6534 1129.57 33.5142V34.2237H1121.52V32.6641H1127.35C1127.34 32.2209 1127.25 31.8267 1127.06 31.4815C1126.87 31.1321 1126.61 30.8572 1126.27 30.657C1125.94 30.4567 1125.55 30.3565 1125.11 30.3565C1124.64 30.3565 1124.22 30.4716 1123.86 30.7017C1123.51 30.9276 1123.23 31.2259 1123.03 31.5966C1122.83 31.9631 1122.73 32.3658 1122.73 32.8047V34.1662C1122.73 34.7372 1122.83 35.2273 1123.04 35.6364C1123.25 36.0412 1123.54 36.3523 1123.91 36.5696C1124.29 36.7827 1124.73 36.8892 1125.23 36.8892C1125.57 36.8892 1125.87 36.8423 1126.15 36.7486C1126.42 36.6506 1126.65 36.5078 1126.86 36.3203C1127.06 36.1328 1127.21 35.9006 1127.31 35.6236L1129.47 35.8665C1129.33 36.4375 1129.07 36.9361 1128.69 37.3622C1128.31 37.7841 1127.82 38.1122 1127.23 38.3466C1126.64 38.5767 1125.96 38.6918 1125.2 38.6918ZM1135.61 42.3864C1134.78 42.3864 1134.07 42.2734 1133.47 42.0476C1132.87 41.826 1132.4 41.5277 1132.03 41.1527C1131.67 40.7777 1131.42 40.3622 1131.28 39.9062L1133.36 39.4013C1133.46 39.593 1133.59 39.7827 1133.77 39.9702C1133.95 40.1619 1134.19 40.3196 1134.49 40.4432C1134.8 40.571 1135.19 40.6349 1135.65 40.6349C1136.31 40.6349 1136.85 40.4751 1137.28 40.1555C1137.71 39.8402 1137.93 39.3203 1137.93 38.5959V36.7358H1137.81C1137.69 36.9744 1137.52 37.2195 1137.29 37.4709C1137.06 37.7223 1136.76 37.9332 1136.39 38.1037C1136.02 38.2741 1135.55 38.3594 1134.99 38.3594C1134.23 38.3594 1133.55 38.1825 1132.93 37.8288C1132.33 37.4709 1131.84 36.9382 1131.48 36.2308C1131.12 35.5192 1130.94 34.6286 1130.94 33.5589C1130.94 32.4808 1131.12 31.571 1131.48 30.8295C1131.84 30.0838 1132.33 29.5192 1132.94 29.1357C1133.55 28.7479 1134.24 28.554 1134.99 28.554C1135.57 28.554 1136.04 28.652 1136.41 28.848C1136.79 29.0398 1137.09 29.272 1137.31 29.5447C1137.53 29.8132 1137.7 30.0668 1137.81 30.3054H1137.94V28.6818H1140.22V38.6598C1140.22 39.4993 1140.02 40.1939 1139.62 40.7436C1139.22 41.2933 1138.67 41.7045 1137.98 41.9773C1137.28 42.25 1136.49 42.3864 1135.61 42.3864ZM1135.63 36.544C1136.12 36.544 1136.54 36.4247 1136.88 36.1861C1137.23 35.9474 1137.49 35.6044 1137.67 35.157C1137.85 34.7095 1137.94 34.1726 1137.94 33.5462C1137.94 32.9283 1137.85 32.3871 1137.67 31.9226C1137.5 31.4581 1137.24 31.098 1136.89 30.8423C1136.55 30.5824 1136.13 30.4524 1135.63 30.4524C1135.12 30.4524 1134.69 30.5866 1134.34 30.8551C1134 31.1236 1133.74 31.4922 1133.56 31.9609C1133.39 32.4254 1133.3 32.9538 1133.3 33.5462C1133.3 34.147 1133.39 34.6733 1133.56 35.125C1133.74 35.5724 1134 35.9219 1134.35 36.1733C1134.7 36.4205 1135.12 36.544 1135.63 36.544ZM1142.41 38.5V28.6818H1144.66V30.3182H1144.76C1144.94 29.7514 1145.24 29.3146 1145.68 29.0078C1146.12 28.6967 1146.62 28.5412 1147.18 28.5412C1147.31 28.5412 1147.45 28.5476 1147.61 28.5604C1147.77 28.5689 1147.91 28.5838 1148.01 28.6051V30.7337C1147.91 30.6996 1147.76 30.6697 1147.55 30.6442C1147.34 30.6143 1147.13 30.5994 1146.94 30.5994C1146.52 30.5994 1146.14 30.6911 1145.8 30.8743C1145.47 31.0533 1145.21 31.3026 1145.01 31.6222C1144.82 31.9418 1144.73 32.3104 1144.73 32.728V38.5H1142.41ZM1152.02 38.6982C1151.4 38.6982 1150.84 38.5874 1150.34 38.3658C1149.84 38.1399 1149.45 37.8075 1149.16 37.3686C1148.88 36.9297 1148.73 36.3885 1148.73 35.745C1148.73 35.1911 1148.84 34.733 1149.04 34.3707C1149.24 34.0085 1149.52 33.7188 1149.88 33.5014C1150.23 33.2841 1150.63 33.12 1151.07 33.0092C1151.52 32.8942 1151.98 32.8111 1152.46 32.7599C1153.04 32.7003 1153.5 32.647 1153.86 32.6001C1154.22 32.549 1154.48 32.4723 1154.64 32.37C1154.81 32.2635 1154.89 32.0994 1154.89 31.8778V31.8395C1154.89 31.358 1154.75 30.9851 1154.46 30.7209C1154.18 30.4567 1153.76 30.3246 1153.23 30.3246C1152.66 30.3246 1152.21 30.4482 1151.88 30.6953C1151.55 30.9425 1151.33 31.2344 1151.21 31.571L1149.05 31.2642C1149.22 30.6676 1149.5 30.169 1149.9 29.7685C1150.29 29.3636 1150.77 29.0611 1151.34 28.8608C1151.9 28.6562 1152.53 28.554 1153.21 28.554C1153.69 28.554 1154.16 28.6094 1154.63 28.7202C1155.1 28.831 1155.52 29.0142 1155.91 29.2699C1156.3 29.5213 1156.61 29.8643 1156.85 30.299C1157.08 30.7337 1157.2 31.277 1157.2 31.929V38.5H1154.98V37.1513H1154.9C1154.76 37.424 1154.56 37.6797 1154.31 37.9183C1154.06 38.1527 1153.74 38.3423 1153.35 38.4872C1152.98 38.6278 1152.53 38.6982 1152.02 38.6982ZM1152.62 36.9979C1153.08 36.9979 1153.49 36.9062 1153.83 36.723C1154.17 36.5355 1154.43 36.2884 1154.61 35.9815C1154.8 35.6747 1154.9 35.3402 1154.9 34.978V33.821C1154.82 33.8807 1154.7 33.9361 1154.52 33.9872C1154.35 34.0384 1154.16 34.0831 1153.95 34.1214C1153.74 34.1598 1153.53 34.1939 1153.32 34.2237C1153.11 34.2536 1152.93 34.2791 1152.77 34.3004C1152.43 34.3473 1152.12 34.424 1151.85 34.5305C1151.57 34.6371 1151.36 34.7862 1151.2 34.978C1151.04 35.1655 1150.96 35.4084 1150.96 35.7067C1150.96 36.1328 1151.12 36.4545 1151.43 36.6719C1151.74 36.8892 1152.14 36.9979 1152.62 36.9979ZM1159.35 38.5V28.6818H1161.56V30.3501H1161.68C1161.88 29.7876 1162.22 29.3487 1162.69 29.0334C1163.17 28.7138 1163.73 28.554 1164.39 28.554C1165.05 28.554 1165.61 28.7159 1166.07 29.0398C1166.53 29.3594 1166.85 29.7962 1167.04 30.3501H1167.14C1167.36 29.8047 1167.73 29.37 1168.24 29.0462C1168.76 28.718 1169.38 28.554 1170.09 28.554C1170.99 28.554 1171.73 28.8395 1172.3 29.4105C1172.87 29.9815 1173.16 30.8146 1173.16 31.9098V38.5H1170.84V32.2678C1170.84 31.6584 1170.67 31.2131 1170.35 30.9318C1170.03 30.6463 1169.63 30.5036 1169.16 30.5036C1168.6 30.5036 1168.17 30.6783 1167.85 31.0277C1167.54 31.3729 1167.38 31.8224 1167.38 32.3764V38.5H1165.12V32.1719C1165.12 31.6648 1164.96 31.2599 1164.66 30.9574C1164.35 30.6548 1163.96 30.5036 1163.47 30.5036C1163.13 30.5036 1162.83 30.5888 1162.56 30.7592C1162.29 30.9254 1162.07 31.1619 1161.91 31.4688C1161.74 31.7713 1161.66 32.125 1161.66 32.5298V38.5H1159.35ZM1181.27 32.0952V34H1175.38V32.0952H1181.27ZM1183.53 38.5V28.6818H1185.84V32.6449H1186.69L1189.64 28.6818H1192.43L1188.79 33.5014L1192.46 38.5H1189.67L1186.97 34.799H1185.84V38.5H1183.53ZM1196.42 38.6982C1195.8 38.6982 1195.24 38.5874 1194.74 38.3658C1194.25 38.1399 1193.85 37.8075 1193.56 37.3686C1193.28 36.9297 1193.14 36.3885 1193.14 35.745C1193.14 35.1911 1193.24 34.733 1193.44 34.3707C1193.65 34.0085 1193.93 33.7188 1194.28 33.5014C1194.63 33.2841 1195.03 33.12 1195.48 33.0092C1195.92 32.8942 1196.39 32.8111 1196.86 32.7599C1197.44 32.7003 1197.91 32.647 1198.26 32.6001C1198.62 32.549 1198.88 32.4723 1199.04 32.37C1199.21 32.2635 1199.29 32.0994 1199.29 31.8778V31.8395C1199.29 31.358 1199.15 30.9851 1198.86 30.7209C1198.58 30.4567 1198.17 30.3246 1197.63 30.3246C1197.06 30.3246 1196.61 30.4482 1196.28 30.6953C1195.95 30.9425 1195.73 31.2344 1195.62 31.571L1193.46 31.2642C1193.63 30.6676 1193.91 30.169 1194.3 29.7685C1194.69 29.3636 1195.17 29.0611 1195.74 28.8608C1196.3 28.6562 1196.93 28.554 1197.62 28.554C1198.09 28.554 1198.56 28.6094 1199.03 28.7202C1199.5 28.831 1199.93 29.0142 1200.31 29.2699C1200.7 29.5213 1201.01 29.8643 1201.25 30.299C1201.49 30.7337 1201.61 31.277 1201.61 31.929V38.5H1199.38V37.1513H1199.3C1199.16 37.424 1198.97 37.6797 1198.71 37.9183C1198.46 38.1527 1198.14 38.3423 1197.76 38.4872C1197.38 38.6278 1196.93 38.6982 1196.42 38.6982ZM1197.02 36.9979C1197.49 36.9979 1197.89 36.9062 1198.23 36.723C1198.57 36.5355 1198.83 36.2884 1199.02 35.9815C1199.2 35.6747 1199.3 35.3402 1199.3 34.978V33.821C1199.23 33.8807 1199.1 33.9361 1198.93 33.9872C1198.76 34.0384 1198.57 34.0831 1198.35 34.1214C1198.14 34.1598 1197.93 34.1939 1197.72 34.2237C1197.51 34.2536 1197.33 34.2791 1197.18 34.3004C1196.83 34.3473 1196.52 34.424 1196.25 34.5305C1195.98 34.6371 1195.76 34.7862 1195.6 34.978C1195.45 35.1655 1195.37 35.4084 1195.37 35.7067C1195.37 36.1328 1195.52 36.4545 1195.83 36.6719C1196.15 36.8892 1196.54 36.9979 1197.02 36.9979ZM1210.5 32.6321V34.5305H1205.27V32.6321H1210.5ZM1205.98 28.6818V38.5H1203.75V28.6818H1205.98ZM1212.01 28.6818V38.5H1209.79V28.6818H1212.01ZM1217 38.6982C1216.38 38.6982 1215.82 38.5874 1215.32 38.3658C1214.82 38.1399 1214.43 37.8075 1214.14 37.3686C1213.85 36.9297 1213.71 36.3885 1213.71 35.745C1213.71 35.1911 1213.81 34.733 1214.02 34.3707C1214.22 34.0085 1214.5 33.7188 1214.86 33.5014C1215.21 33.2841 1215.61 33.12 1216.05 33.0092C1216.5 32.8942 1216.96 32.8111 1217.44 32.7599C1218.01 32.7003 1218.48 32.647 1218.84 32.6001C1219.2 32.549 1219.46 32.4723 1219.62 32.37C1219.78 32.2635 1219.87 32.0994 1219.87 31.8778V31.8395C1219.87 31.358 1219.72 30.9851 1219.44 30.7209C1219.15 30.4567 1218.74 30.3246 1218.21 30.3246C1217.64 30.3246 1217.19 30.4482 1216.86 30.6953C1216.53 30.9425 1216.31 31.2344 1216.19 31.571L1214.03 31.2642C1214.2 30.6676 1214.48 30.169 1214.88 29.7685C1215.27 29.3636 1215.75 29.0611 1216.31 28.8608C1216.88 28.6562 1217.51 28.554 1218.19 28.554C1218.67 28.554 1219.14 28.6094 1219.61 28.7202C1220.07 28.831 1220.5 29.0142 1220.89 29.2699C1221.28 29.5213 1221.59 29.8643 1221.82 30.299C1222.06 30.7337 1222.18 31.277 1222.18 31.929V38.5H1219.96V37.1513H1219.88C1219.74 37.424 1219.54 37.6797 1219.29 37.9183C1219.03 38.1527 1218.72 38.3423 1218.33 38.4872C1217.95 38.6278 1217.51 38.6982 1217 38.6982ZM1217.6 36.9979C1218.06 36.9979 1218.47 36.9062 1218.81 36.723C1219.15 36.5355 1219.41 36.2884 1219.59 35.9815C1219.78 35.6747 1219.87 35.3402 1219.87 34.978V33.821C1219.8 33.8807 1219.68 33.9361 1219.5 33.9872C1219.33 34.0384 1219.14 34.0831 1218.93 34.1214C1218.71 34.1598 1218.5 34.1939 1218.3 34.2237C1218.09 34.2536 1217.91 34.2791 1217.75 34.3004C1217.41 34.3473 1217.1 34.424 1216.83 34.5305C1216.55 34.6371 1216.34 34.7862 1216.18 34.978C1216.02 35.1655 1215.94 35.4084 1215.94 35.7067C1215.94 36.1328 1216.1 36.4545 1216.41 36.6719C1216.72 36.8892 1217.12 36.9979 1217.6 36.9979ZM1223.65 38.5L1223.64 36.5952H1223.98C1224.23 36.5952 1224.45 36.5376 1224.62 36.4226C1224.8 36.3075 1224.94 36.1158 1225.06 35.8473C1225.17 35.5746 1225.26 35.2081 1225.33 34.7479C1225.39 34.2876 1225.43 33.7145 1225.46 33.0284L1225.63 28.6818H1232.79V38.5H1230.55V30.5803H1227.74L1227.58 33.7443C1227.54 34.5625 1227.45 35.272 1227.31 35.8729C1227.17 36.4695 1226.97 36.9616 1226.71 37.3494C1226.45 37.7372 1226.13 38.027 1225.74 38.2188C1225.35 38.4062 1224.9 38.5 1224.37 38.5H1223.65ZM1236.03 42.1818C1235.71 42.1818 1235.42 42.1563 1235.15 42.1051C1234.89 42.0582 1234.68 42.0028 1234.52 41.9389L1235.06 40.1364C1235.39 40.2344 1235.69 40.2813 1235.96 40.277C1236.22 40.2727 1236.45 40.1896 1236.65 40.0277C1236.86 39.87 1237.03 39.6058 1237.17 39.2351L1237.37 38.7045L1233.81 28.6818H1236.26L1238.53 36.0966H1238.63L1240.9 28.6818H1243.36L1239.43 39.6889C1239.25 40.2088 1239 40.6541 1238.7 41.0249C1238.4 41.3999 1238.03 41.6854 1237.59 41.8814C1237.15 42.0817 1236.63 42.1818 1236.03 42.1818ZM1251.9 25.4091L1251.69 34.652H1249.63L1249.42 25.4091H1251.9ZM1250.66 38.6406C1250.27 38.6406 1249.94 38.5043 1249.66 38.2315C1249.39 37.9588 1249.25 37.6264 1249.25 37.2344C1249.25 36.8509 1249.39 36.5227 1249.66 36.25C1249.94 35.9773 1250.27 35.8409 1250.66 35.8409C1251.04 35.8409 1251.36 35.9773 1251.64 36.25C1251.92 36.5227 1252.06 36.8509 1252.06 37.2344C1252.06 37.4943 1252 37.7308 1251.87 37.9439C1251.74 38.157 1251.57 38.3274 1251.35 38.4553C1251.15 38.5788 1250.91 38.6406 1250.66 38.6406Z" fill="#00416B"/>
        <path d="M1296 17.8953C1295.87 17.7781 1295.7 17.7002 1295.52 17.67C1295.35 17.6397 1295.17 17.6583 1295 17.7238L1266.5 28.8767C1266.15 29.0124 1265.86 29.2568 1265.66 29.5733C1265.47 29.8898 1265.38 30.2614 1265.41 30.6321C1265.45 31.0029 1265.6 31.3528 1265.85 31.6294C1266.1 31.9059 1266.43 32.0942 1266.8 32.1659L1274.41 33.6608V42.125C1274.41 42.5174 1274.52 42.9008 1274.74 43.226C1274.96 43.5512 1275.27 43.8034 1275.64 43.9501C1276 44.0968 1276.4 44.1315 1276.79 44.0496C1277.17 43.9677 1277.52 43.773 1277.79 43.4905L1281.54 39.605L1287.39 44.7308C1287.74 45.0466 1288.2 45.2212 1288.68 45.2216C1288.89 45.2211 1289.09 45.1883 1289.29 45.1245C1289.62 45.0217 1289.91 44.8356 1290.14 44.5847C1290.37 44.3337 1290.53 44.0268 1290.61 43.6944L1296.32 18.8614C1296.36 18.6868 1296.35 18.5046 1296.29 18.3344C1296.24 18.1641 1296.14 18.0123 1296 17.8953ZM1267.1 30.5052C1267.1 30.4906 1267.1 30.4747 1267.1 30.4602C1267.11 30.4553 1267.11 30.4515 1267.12 30.4489L1289.58 21.657L1275.05 32.0633L1267.12 30.5108L1267.1 30.5052ZM1276.58 42.3177C1276.54 42.3579 1276.49 42.3856 1276.43 42.3974C1276.38 42.4092 1276.32 42.4044 1276.27 42.3838C1276.22 42.3631 1276.17 42.3275 1276.14 42.2814C1276.11 42.2353 1276.09 42.1809 1276.09 42.125V34.828L1280.27 38.4842L1276.58 42.3177ZM1288.96 43.3133C1288.95 43.3608 1288.93 43.4047 1288.9 43.4403C1288.86 43.476 1288.82 43.502 1288.77 43.5158C1288.73 43.5325 1288.68 43.5361 1288.63 43.5262C1288.58 43.5163 1288.53 43.4933 1288.49 43.4595L1276.61 33.0322L1294.23 20.3984L1288.96 43.3133Z" fill="#EC8812"/>
    </g>
    <defs>
        <clipPath id="clip0_8331_39010">
            <rect width="1440" height="65" fill="white"/>
        </clipPath>
    </defs>
</svg>
