<svg width="375" height="68" fill="none" xmlns="http://www.w3.org/2000/svg"><g clip-path="url(#a)"><path fill="#E6F7FE" d="M0 0h375v68H0z"/><path d="M317.13-9.45s9.67 11.87 28.6 19.72c16.59 6.88 6.46 22 29.77 25.75 23.32 3.75 38.83-11.25 38.83-11.25" stroke="#E99E45"/><path d="M333.04-4.24s.6 22.44 16.4 29.99c14 6.68 16.62.95 29.88.75 13.26-.2 38 6.03 38 6.03" stroke="#E99E45"/><path d="M334.3-14.05s6.68 10.35 21.26 15.98c12.79 4.94 3.12 20.29 21.65 21.6 18.53 1.31 32.56-14.44 32.56-14.44" stroke="#E99E45"/><path d="M328.88-8.05s7.97 11 24.41 17.58c14.42 5.77 4.56 21.02 25.14 23.38 20.57 2.36 35.24-13.07 35.24-13.07M38.46 88.94s-4.3-9.1-15.15-17.1c-9.51-7.02-.66-15.07-14.96-21.14-14.29-6.08-26.57 1.05-26.57 1.05" stroke="#E99E45"/><path d="M29.12 83.1s3.16-14.42-5.74-21.73c-7.89-6.48-10.46-3.24-18.96-5.2s-23.32-9.84-23.32-9.84" stroke="#E99E45"/><path d="M26.78 89.17S24.14 81.5 15.7 75.6C8.33 70.44 16.92 62.16 5.3 58.4c-11.63-3.77-23.07 4.08-23.07 4.08" stroke="#E99E45"/><path d="M31.18 86.2s-3.36-8.3-12.82-15.09c-8.3-5.96.4-14.14-12.36-18.89-12.77-4.75-24.57 2.79-24.57 2.79" stroke="#E99E45"/><path d="M189.25 19.53c-.31 0-.6-.08-.86-.23a1.79 1.79 0 0 1-.63-.62 1.66 1.66 0 0 1-.23-.87c0-.32.08-.6.23-.86a1.76 1.76 0 0 1 1.49-.86 1.72 1.72 0 0 1 0 3.44Zm11.78 1.58a3.4 3.4 0 0 1-1.38-.27c-.4-.17-.72-.42-.96-.73a1.98 1.98 0 0 1-.38-1.11h.99c.02.26.1.48.26.67.16.18.36.33.62.43.25.1.53.15.84.15.34 0 .64-.06.91-.18.26-.12.47-.29.63-.5.15-.21.22-.46.22-.74 0-.3-.07-.56-.22-.78-.14-.23-.36-.4-.64-.53s-.62-.2-1.03-.2h-.64v-.85h.64c.32 0 .6-.06.84-.17.24-.12.43-.28.56-.49.14-.2.21-.45.21-.73 0-.27-.06-.5-.18-.7-.12-.2-.29-.37-.5-.48a1.65 1.65 0 0 0-.77-.17c-.28 0-.54.06-.78.16-.25.1-.44.24-.6.43-.15.19-.23.41-.25.68h-.94c.02-.42.15-.79.38-1.1.24-.32.55-.57.93-.74a3 3 0 0 1 2.55.03 2.12 2.12 0 0 1 1.1 1.84 1.8 1.8 0 0 1-1.31 1.81v.07c.5.08.9.3 1.18.64.28.34.42.77.42 1.28 0 .43-.11.82-.35 1.17-.23.34-.56.61-.96.81-.4.2-.87.3-1.39.3Zm5.97.03c-.38 0-.72-.07-1.03-.21a1.77 1.77 0 0 1-.74-.63c-.18-.28-.27-.61-.27-1 0-.35.06-.63.2-.84.13-.22.32-.38.54-.5.23-.13.48-.22.75-.28l.84-.15.88-.1c.23-.03.4-.07.5-.13.1-.06.16-.17.16-.32v-.03c0-.38-.1-.68-.32-.9-.2-.2-.52-.32-.94-.32-.44 0-.79.1-1.04.3-.25.19-.43.4-.53.61l-.87-.31a2.11 2.11 0 0 1 1.48-1.28 3.56 3.56 0 0 1 1.59-.06c.25.05.5.14.73.28.24.14.43.35.59.64.16.28.23.66.23 1.14V21h-.92v-.81h-.05c-.06.13-.16.27-.3.42a1.8 1.8 0 0 1-.59.37c-.24.1-.54.16-.89.16Zm.14-.83c.37 0 .68-.07.93-.21a1.47 1.47 0 0 0 .76-1.27v-.85c-.04.05-.12.1-.26.13a4.41 4.41 0 0 1-.95.17l-.38.05c-.24.03-.47.08-.67.15-.21.07-.38.17-.5.3a.79.79 0 0 0-.2.56c0 .32.13.57.36.73.24.16.55.24.91.24Zm7.89-5.31v.86h-2.78V21h-.92v-6h3.7Zm2.69 6.14c-.38 0-.73-.07-1.04-.21a1.78 1.78 0 0 1-.74-.63c-.18-.28-.27-.61-.27-1 0-.35.07-.63.2-.84.14-.22.32-.38.55-.5.23-.13.48-.22.75-.28.27-.06.55-.11.83-.15l.89-.1c.23-.03.4-.07.5-.13.1-.06.16-.17.16-.32v-.03c0-.38-.1-.68-.32-.9-.2-.2-.52-.32-.95-.32-.44 0-.78.1-1.03.3-.25.19-.43.4-.53.61l-.88-.31c.16-.37.37-.65.63-.85.26-.2.55-.35.86-.43a3.57 3.57 0 0 1 1.58-.06c.26.05.5.14.74.28.23.14.43.35.58.64.16.28.24.66.24 1.14V21h-.92v-.81h-.05c-.06.13-.17.27-.31.42a1.8 1.8 0 0 1-.58.37c-.25.1-.54.16-.9.16Zm.14-.83c.36 0 .67-.07.92-.21a1.47 1.47 0 0 0 .77-1.27v-.85c-.04.05-.13.1-.26.13a4.33 4.33 0 0 1-.95.17l-.39.05c-.24.03-.46.08-.67.15-.2.07-.37.17-.5.3a.79.79 0 0 0-.19.56c0 .32.12.57.36.73.24.16.54.24.9.24Zm3.65.69v-.86h.22c.18 0 .33-.03.45-.1.12-.08.21-.2.29-.38.07-.19.13-.44.17-.76.04-.33.07-.74.09-1.24l.1-2.66h4v6h-.91v-5.14h-2.2l-.1 2.14c-.02.5-.07.93-.13 1.3-.07.37-.17.69-.3.94-.14.25-.31.44-.53.57-.23.13-.5.19-.84.19h-.31Zm7.7-3.83h1.72c.7 0 1.25.18 1.62.54.37.35.56.8.56 1.35a1.8 1.8 0 0 1-.98 1.68 2.5 2.5 0 0 1-1.2.26h-2.51v-6h.92v5.14h1.6c.36 0 .66-.1.9-.29.23-.2.34-.44.34-.74a.98.98 0 0 0-.35-.78c-.23-.2-.53-.3-.9-.3h-1.71v-.86Zm9.2.4v.87h-3.3v-.86h3.3ZM235.33 15v6h-.92v-6h.92Zm3.8 0v6h-.92v-6h.92Zm3.34 6.14c-.38 0-.73-.07-1.04-.21a1.77 1.77 0 0 1-.73-.63c-.19-.28-.28-.61-.28-1 0-.35.07-.63.2-.84.14-.22.32-.38.55-.5.22-.13.47-.22.75-.28.27-.06.55-.11.83-.15l.89-.1c.23-.03.4-.07.5-.13.1-.06.16-.17.16-.32v-.03c0-.38-.1-.68-.32-.9-.2-.2-.53-.32-.95-.32-.44 0-.78.1-1.03.3-.25.19-.43.4-.53.61l-.88-.31c.16-.37.37-.65.63-.85.26-.2.55-.35.86-.43a3.56 3.56 0 0 1 1.58-.06c.26.05.5.14.73.28.24.14.44.35.6.64.15.28.23.66.23 1.14V21h-.92v-.81h-.05c-.06.13-.17.27-.31.42a1.8 1.8 0 0 1-.59.37c-.24.1-.53.16-.88.16Zm.14-.83c.36 0 .67-.07.92-.21a1.46 1.46 0 0 0 .77-1.27v-.85c-.04.05-.13.1-.26.13a4.33 4.33 0 0 1-.95.17l-.39.05c-.24.03-.46.08-.67.15-.2.07-.37.17-.5.3a.79.79 0 0 0-.19.56c0 .32.12.57.36.73.24.16.54.24.9.24Zm7.16.69v-6h4.72v6h-.92v-5.14h-2.87V21h-.93Zm8.74.13a2.6 2.6 0 0 1-1.46-.4 2.6 2.6 0 0 1-.94-1.1c-.22-.47-.32-1-.32-1.6 0-.6.1-1.15.33-1.61a2.54 2.54 0 0 1 2.37-1.5c.42 0 .8.08 1.14.24a2.05 2.05 0 0 1 1.23 1.64h-.92a1.42 1.42 0 0 0-1.44-1.05c-.36 0-.67.1-.94.28-.27.19-.48.45-.63.79a2.9 2.9 0 0 0-.22 1.18c0 .46.07.87.22 1.21.14.34.35.61.62.8.27.2.59.29.95.29.24 0 .46-.04.66-.13a1.34 1.34 0 0 0 .78-.92h.92a2.13 2.13 0 0 1-1.2 1.63 2.6 2.6 0 0 1-1.15.25Zm4.51-1.49 2.9-4.64h1.06v6h-.93v-4.64L263.18 21h-1.08v-6h.92v4.64Zm6.22-4.64 1.44 2.45 1.44-2.45h1.06l-1.94 3 1.94 3h-1.06l-1.44-2.33-1.44 2.33h-1.06l1.9-3-1.9-3h1.06Zm7.34 6.13c-.55 0-1.02-.13-1.43-.4-.4-.25-.72-.61-.95-1.07-.23-.47-.34-1-.34-1.63 0-.62.11-1.17.34-1.64.23-.46.54-.82.95-1.08.4-.26.88-.39 1.43-.39.54 0 1.01.13 1.42.39.4.26.72.62.95 1.08.23.47.35 1.02.35 1.64 0 .62-.12 1.16-.35 1.63-.23.46-.54.82-.95 1.08-.4.26-.88.39-1.42.39Zm0-.83c.4 0 .75-.1 1.01-.32.27-.21.46-.49.6-.83.12-.35.18-.72.18-1.12 0-.4-.06-.77-.19-1.12a1.9 1.9 0 0 0-.59-.84c-.26-.21-.6-.32-1.01-.32-.42 0-.75.1-1.02.32-.26.21-.46.5-.59.84a3.18 3.18 0 0 0 0 2.24c.13.34.33.62.59.83.27.21.6.32 1.02.32Zm3.48.7v-.86h.22c.18 0 .33-.03.45-.1.12-.08.21-.2.29-.38a3 3 0 0 0 .17-.76c.04-.33.07-.74.09-1.24l.1-2.66h4v6h-.91v-5.14h-2.2l-.1 2.14c-.02.5-.06.93-.13 1.3s-.17.69-.3.94c-.14.25-.31.44-.54.57-.22.13-.5.19-.83.19h-.3Zm9.35.13c-.54 0-1.02-.13-1.43-.4-.4-.25-.72-.61-.95-1.07-.23-.47-.34-1-.34-1.63 0-.62.11-1.17.34-1.64.23-.46.55-.82.95-1.08.41-.26.89-.39 1.43-.39.54 0 1.01.13 1.42.39.4.26.73.62.95 1.08.23.47.35 1.02.35 1.64 0 .62-.12 1.16-.35 1.63a2.6 2.6 0 0 1-.95 1.08c-.4.26-.88.39-1.42.39Zm0-.83c.4 0 .75-.1 1.01-.32.27-.21.47-.49.6-.83.12-.35.19-.72.19-1.12 0-.4-.07-.77-.2-1.12a1.88 1.88 0 0 0-.59-.84c-.26-.21-.6-.32-1.01-.32-.41 0-.75.1-1.02.32-.26.21-.46.5-.59.84-.13.35-.19.72-.19 1.12 0 .4.06.77.2 1.12.12.34.32.62.58.83.27.21.6.32 1.02.32Zm7.72-5.3v.86h-2.78V21h-.93v-6h3.7Zm1.23 6v-6h.92v6h-.92Zm.47-7a.65.65 0 0 1-.46-.18.59.59 0 0 1-.2-.45c0-.17.07-.31.2-.44a.65.65 0 0 1 .46-.18c.18 0 .33.06.46.18.13.13.2.27.2.45 0 .17-.07.31-.2.44a.64.64 0 0 1-.46.18Zm5.64 7v-5.16h-1.6c-.35 0-.63.09-.84.25-.2.17-.3.4-.3.7 0 .28.08.5.27.67.19.16.44.24.77.24h1.94v.86h-1.94c-.4 0-.76-.07-1.05-.21-.3-.15-.52-.35-.68-.62a1.84 1.84 0 0 1-.24-.95 1.62 1.62 0 0 1 .96-1.57c.32-.14.69-.21 1.12-.21h2.47v6h-.88Zm-4 0 1.7-2.98h1l-1.7 2.98h-1ZM189.25 36.53c-.31 0-.6-.08-.86-.23a1.79 1.79 0 0 1-.63-.62 1.66 1.66 0 0 1-.23-.87c0-.32.08-.6.23-.86a1.76 1.76 0 0 1 1.49-.86 1.72 1.72 0 0 1 0 3.44Zm15.2-6.53v8h-.97v-7.14h-4.03V38h-.97v-8h5.97Zm2.64 6.64L210 32h1.06v6h-.93v-4.64L207.25 38h-1.08v-6h.92v4.64Zm4.72-3.78V32h4.87v.86h-1.96V38h-.93v-5.14h-1.98Zm7.56 5.28c-.38 0-.72-.07-1.03-.21a1.77 1.77 0 0 1-.74-.63c-.18-.28-.27-.61-.27-1 0-.35.06-.63.2-.84.13-.22.32-.38.54-.5.23-.13.48-.22.75-.28l.83-.15.9-.1c.22-.03.39-.07.5-.13.1-.06.15-.17.15-.32v-.03c0-.38-.1-.68-.31-.9-.21-.2-.53-.32-.95-.32-.44 0-.79.1-1.04.3-.25.19-.43.4-.53.61l-.87-.31a2.1 2.1 0 0 1 1.48-1.28 3.57 3.57 0 0 1 1.59-.06c.25.05.5.14.73.28.24.14.43.35.59.64.16.28.23.66.23 1.14V38h-.92v-.81h-.05a1.8 1.8 0 0 1-.9.8c-.23.1-.53.15-.88.15Zm.14-.83c.37 0 .68-.07.93-.21a1.47 1.47 0 0 0 .76-1.27v-.85c-.04.05-.12.1-.26.13a4.33 4.33 0 0 1-.95.17l-.38.05c-.24.03-.47.08-.67.15-.21.07-.38.17-.5.3a.79.79 0 0 0-.2.56c0 .32.13.57.36.73.24.16.55.24.91.24Zm8.2-2.73v.86h-3.31v-.86h3.31Zm-3.1-2.58v6h-.91v-6h.92Zm3.8 0v6h-.92v-6h.92Zm5.6 2.58v.86h-3.32v-.86H234ZM230.9 32v6h-.92v-6h.92Zm3.8 0v6h-.93v-6h.93Zm5.18 6v-5.16h-1.6c-.35 0-.64.09-.84.25-.2.17-.31.4-.31.7 0 .28.1.5.28.67.19.16.44.24.77.24h1.93v.86h-1.93c-.41 0-.76-.07-1.05-.21-.3-.15-.52-.35-.68-.62a1.84 1.84 0 0 1-.24-.95c0-.37.08-.69.25-.95.16-.27.4-.47.71-.62.31-.14.69-.21 1.12-.21h2.46v6h-.87Zm-4 0 1.7-2.98h1L236.9 38h-1Zm8.8 1.72v-2.58h.5a2.3 2.3 0 0 0 .55-.94c.06-.2.12-.46.17-.75.05-.3.09-.66.12-1.08l.2-2.37h3.82v5.14h.92v2.58h-.92V38h-4.44v1.72h-.92Zm1.55-2.58h2.89v-4.28h-2.03l-.16 1.52c-.06.62-.15 1.17-.24 1.64-.1.47-.25.84-.46 1.12Zm6.44 3.11a2.01 2.01 0 0 1-.67-.1l.23-.82c.22.06.42.08.6.06.17-.02.32-.1.45-.23.14-.14.26-.36.37-.66l.18-.47-2.22-6.03h1l1.65 4.78h.06L256 32h1l-2.55 6.88c-.11.3-.25.56-.42.76-.17.21-.37.36-.6.46-.21.1-.46.15-.74.15ZM258.1 32h.92v5.14h2.27V32h.92v5.14h2.26V32h.92v6h-7.3v-6Zm8.87 6v-6h.92v6h-.92Zm.47-7a.65.65 0 0 1-.47-.18.59.59 0 0 1-.19-.45c0-.17.07-.31.2-.44a.65.65 0 0 1 .46-.18c.18 0 .33.06.46.18.13.13.2.27.2.45 0 .17-.07.31-.2.44a.64.64 0 0 1-.46.18Zm4.67 1.86V32h4.87v.86h-1.97V38h-.92v-5.14h-1.98Zm7.56 5.28c-.38 0-.72-.07-1.03-.21a1.78 1.78 0 0 1-.74-.63c-.18-.28-.27-.61-.27-1 0-.35.06-.63.2-.84.13-.22.32-.38.54-.5.23-.13.48-.22.75-.28l.83-.15.9-.1c.22-.03.39-.07.5-.13.1-.06.15-.17.15-.32v-.03c0-.38-.1-.68-.31-.9-.21-.2-.53-.32-.95-.32-.44 0-.79.1-1.04.3-.25.19-.43.4-.53.61l-.87-.31c.15-.37.36-.65.62-.85.27-.2.55-.35.86-.43a3.57 3.57 0 0 1 1.59-.06c.25.05.5.14.73.28.24.14.43.35.59.64.16.28.23.66.23 1.14V38h-.92v-.81h-.05c-.06.13-.16.27-.3.42a1.8 1.8 0 0 1-.59.37c-.24.1-.54.16-.89.16Zm.14-.83c.37 0 .68-.07.93-.21a1.47 1.47 0 0 0 .76-1.27v-.85c-.04.05-.12.1-.26.13a4.33 4.33 0 0 1-.95.17l-.38.05c-.24.03-.47.08-.68.15-.2.07-.37.17-.5.3a.79.79 0 0 0-.18.56c0 .32.12.57.35.73.24.16.55.24.91.24Zm7.3.69v-8h4.82v.86h-3.86v2.5h2.03c.58 0 1.06.1 1.45.28.4.19.7.45.9.8.2.33.31.74.31 1.2 0 .46-.1.87-.3 1.23-.21.35-.51.63-.9.83-.4.2-.88.3-1.46.3h-3Zm.96-.84h2.03c.37 0 .68-.08.93-.22a1.52 1.52 0 0 0 .78-1.31c0-.39-.15-.72-.44-1-.3-.27-.72-.41-1.27-.41h-2.03v2.94Zm8.49.97c-.54 0-1.02-.13-1.43-.4-.4-.25-.72-.61-.95-1.07-.23-.47-.34-1-.34-1.63 0-.62.11-1.17.34-1.64.23-.46.55-.82.95-1.08.41-.26.89-.39 1.43-.39.54 0 1.01.13 1.42.39.4.26.73.62.95 1.08.23.47.35 1.02.35 1.64 0 .62-.12 1.16-.35 1.63a2.6 2.6 0 0 1-.95 1.08c-.4.26-.88.38-1.42.38Zm0-.83c.4 0 .75-.1 1.01-.32.27-.21.47-.49.6-.83.12-.35.19-.72.19-1.12 0-.4-.07-.77-.2-1.12a1.88 1.88 0 0 0-.59-.84c-.26-.21-.6-.32-1.01-.32-.41 0-.75.1-1.02.32-.26.21-.46.5-.59.84-.13.35-.19.72-.19 1.12 0 .4.06.77.2 1.12.12.34.32.62.58.83.27.21.6.32 1.02.32Zm7.72-5.3v.86h-2.78V38h-.93v-6h3.7Zm2.69 6.14c-.38 0-.73-.07-1.04-.21-.3-.15-.56-.36-.74-.63-.18-.28-.27-.61-.27-1 0-.35.07-.63.2-.84.14-.22.32-.38.55-.5.22-.13.47-.22.75-.28.27-.06.55-.11.83-.15l.88-.1c.23-.03.4-.07.5-.13.11-.06.17-.17.17-.32v-.03c0-.38-.11-.68-.32-.9-.21-.2-.53-.32-.95-.32-.44 0-.79.1-1.04.3-.25.19-.42.4-.52.61l-.88-.31c.16-.37.37-.65.63-.85.26-.2.55-.35.86-.43a3.57 3.57 0 0 1 1.58-.06c.25.05.5.14.73.28.24.14.44.35.6.64.15.28.23.66.23 1.14V38h-.93v-.81h-.04a1.79 1.79 0 0 1-.9.8c-.24.1-.53.15-.88.15Zm.14-.83c.36 0 .67-.07.92-.21a1.46 1.46 0 0 0 .77-1.27v-.85c-.04.05-.13.1-.26.13a4.33 4.33 0 0 1-.95.17l-.39.05c-.24.03-.46.08-.67.15-.2.07-.37.17-.5.3a.79.79 0 0 0-.19.56c0 .32.12.57.36.73.24.16.54.24.9.24ZM189.25 53.53c-.31 0-.6-.08-.86-.23a1.79 1.79 0 0 1-.63-.62 1.66 1.66 0 0 1-.23-.87c0-.32.08-.6.23-.86a1.76 1.76 0 0 1 1.49-.86 1.72 1.72 0 0 1 0 3.44Zm15.2-6.53v8h-.97v-7.14h-4.03V55h-.97v-8h5.97Zm1.72 10.25V49h.9v.95h.1l.28-.4c.13-.16.3-.3.53-.43.23-.13.54-.2.93-.2a2.38 2.38 0 0 1 2.24 1.45c.21.47.32 1.02.32 1.65 0 .63-.1 1.18-.32 1.65a2.35 2.35 0 0 1-2.22 1.46 1.72 1.72 0 0 1-1.46-.63l-.3-.42h-.08v3.17h-.92Zm.9-5.25c0 .45.08.85.2 1.2.14.34.33.61.59.8.25.2.57.3.94.3.38 0 .7-.1.96-.3.26-.21.46-.49.59-.84.13-.34.2-.73.2-1.16 0-.42-.07-.8-.2-1.14a1.77 1.77 0 0 0-.58-.8c-.26-.21-.58-.31-.97-.31a1.54 1.54 0 0 0-1.53 1.07c-.13.34-.2.73-.2 1.18Zm7.46 3.14c-.38 0-.72-.07-1.03-.21a1.77 1.77 0 0 1-.74-.63c-.19-.28-.28-.61-.28-1 0-.35.07-.63.2-.84.14-.22.32-.38.55-.5.23-.13.48-.22.75-.28.28-.06.55-.11.83-.15l.89-.1c.23-.03.4-.07.5-.13.1-.06.16-.17.16-.32v-.03c0-.38-.1-.68-.32-.9-.2-.2-.52-.32-.95-.32-.44 0-.78.1-1.03.3-.25.19-.43.4-.53.61l-.87-.31a2.1 2.1 0 0 1 1.48-1.28 3.57 3.57 0 0 1 1.59-.06c.25.05.5.14.73.28.23.14.43.35.59.64.15.28.23.66.23 1.14V55h-.92v-.81h-.05a1.8 1.8 0 0 1-.9.8c-.23.1-.53.15-.88.15Zm.14-.83c.37 0 .67-.07.92-.21a1.47 1.47 0 0 0 .77-1.27v-.85c-.04.05-.13.1-.26.13a4.33 4.33 0 0 1-.95.17l-.39.05c-.23.03-.46.08-.67.15-.2.07-.37.17-.5.3a.79.79 0 0 0-.18.56c0 .32.11.57.35.73.24.16.54.24.91.24Zm8.9-5.31v5.14h.85v2.8h-.93V55h-4.64v-6h.93v5.14h2.87V49h.92Zm5.03 2.63v.85h-3.17v-.85h3.17ZM226.21 49v6h-.92v-6h.92Zm4.23 6.13c-.54 0-1.01-.13-1.42-.4-.4-.25-.73-.61-.95-1.07-.23-.47-.34-1-.34-1.63 0-.62.1-1.17.34-1.64.22-.46.54-.82.95-1.08.4-.26.88-.39 1.42-.39.55 0 1.02.13 1.43.39.4.26.72.62.95 1.08.23.47.34 1.02.34 1.64 0 .62-.11 1.16-.34 1.63a2.6 2.6 0 0 1-.95 1.08c-.41.26-.88.38-1.43.38Zm0-.83c.42 0 .75-.1 1.02-.32.27-.21.46-.49.59-.83a3.2 3.2 0 0 0 0-2.24 1.88 1.88 0 0 0-.59-.84c-.27-.21-.6-.32-1.02-.32-.4 0-.75.1-1.01.32-.27.21-.46.5-.6.84-.12.35-.18.72-.18 1.12 0 .4.06.77.19 1.12.13.34.32.62.59.83.26.21.6.32 1.01.32Zm6.99-2.67v.85h-3.17v-.85h3.17Zm-2.4-2.63v6h-.91v-6h.92Zm4.24 6.13c-.54 0-1.02-.13-1.42-.4-.41-.25-.73-.61-.96-1.07-.22-.47-.34-1-.34-1.63 0-.62.12-1.17.34-1.64.23-.46.55-.82.96-1.08.4-.26.88-.39 1.42-.39.54 0 1.02.13 1.42.39.41.26.73.62.96 1.08.23.47.34 1.02.34 1.64 0 .62-.11 1.16-.34 1.63a2.6 2.6 0 0 1-2.38 1.47Zm0-.83c.41 0 .75-.1 1.02-.32.26-.21.46-.49.59-.83.13-.35.19-.72.19-1.12 0-.4-.06-.77-.2-1.12a1.89 1.89 0 0 0-.58-.84c-.27-.21-.6-.32-1.02-.32-.4 0-.75.1-1.01.32-.27.21-.47.5-.6.84-.12.35-.19.72-.19 1.12 0 .4.07.77.2 1.12.12.34.32.62.59.83.26.21.6.32 1.01.32Zm6.72-.83h.98c.03.27.15.48.37.62.23.14.52.2.88.2.37 0 .69-.07.95-.22.27-.15.4-.4.4-.74a.92.92 0 0 0-.57-.88 1.5 1.5 0 0 0-.63-.12h-1.04v-.83h1.03c.37 0 .64-.08.82-.25a.82.82 0 0 0 .26-.63.8.8 0 0 0-.28-.64 1.2 1.2 0 0 0-.81-.25c-.35 0-.64.08-.88.24a.76.76 0 0 0-.37.6h-.97c.01-.31.11-.6.3-.85s.44-.44.76-.58c.33-.15.7-.22 1.11-.22.42 0 .79.08 1.1.22.31.15.55.35.72.6.17.25.26.54.26.85 0 .34-.1.62-.28.82-.2.21-.43.36-.72.45v.06c.23.02.42.09.59.22.17.13.3.3.4.5.09.21.13.44.13.69 0 .36-.1.68-.29.95-.2.27-.46.48-.8.63-.34.14-.73.22-1.17.22-.43 0-.8-.07-1.14-.21-.34-.14-.6-.34-.8-.58-.2-.25-.3-.54-.31-.87Zm8.68 1.53v-6h2.46c.64 0 1.16.15 1.54.44.38.29.57.67.57 1.15 0 .37-.11.65-.33.85-.21.2-.5.33-.83.4a1.7 1.7 0 0 1 1.17.75c.14.22.2.49.2.8a1.49 1.49 0 0 1-.9 1.4c-.3.14-.64.21-1.05.21h-2.83Zm.88-.84h1.95c.32 0 .57-.08.75-.23a.76.76 0 0 0 .27-.62.98.98 0 0 0-.27-.73 1 1 0 0 0-.75-.27h-1.95v1.85Zm0-2.64h1.58c.25 0 .46-.04.63-.1a.9.9 0 0 0 .41-.3c.1-.13.14-.29.14-.46 0-.26-.1-.45-.31-.6-.21-.14-.5-.22-.87-.22h-1.58v1.68Zm5.2 3.48v-6h.91v6h-.92Zm.46-7a.65.65 0 0 1-.46-.18.59.59 0 0 1-.2-.45c0-.17.07-.31.2-.44a.65.65 0 0 1 .46-.18c.18 0 .33.06.46.18.13.13.2.27.2.45 0 .17-.07.31-.2.44a.64.64 0 0 1-.46.18Zm2.95 5.64 2.9-4.64h1.06v6h-.93v-4.64L264.32 55h-1.08v-6h.92v4.64Zm2.28-6.64h.86c0 .42-.14.77-.43 1.04-.3.26-.7.4-1.2.4-.48 0-.88-.14-1.17-.4a1.35 1.35 0 0 1-.43-1.04h.86c0 .2.06.38.17.54.11.15.3.23.58.23.27 0 .47-.08.58-.23a.85.85 0 0 0 .18-.54Zm5.7 8.13a2.6 2.6 0 0 1-1.46-.4 2.6 2.6 0 0 1-.94-1.1c-.22-.47-.33-1-.33-1.6 0-.6.11-1.15.34-1.61.23-.47.54-.84.94-1.1.41-.27.88-.4 1.43-.4.42 0 .8.08 1.14.24a2.06 2.06 0 0 1 1.24 1.64h-.93a1.4 1.4 0 0 0-1.44-1.05c-.36 0-.67.1-.94.28-.27.19-.48.45-.63.79a2.9 2.9 0 0 0-.23 1.18c0 .46.08.87.22 1.21.15.34.36.61.63.8.27.2.59.29.95.29.24 0 .46-.04.65-.13a1.35 1.35 0 0 0 .79-.92h.92a2.14 2.14 0 0 1-1.2 1.63 2.6 2.6 0 0 1-1.16.24Zm4.39-3.96h1.72c.7 0 1.24.18 1.6.54.38.35.57.8.57 1.35a1.82 1.82 0 0 1-.98 1.68 2.5 2.5 0 0 1-1.2.26h-2.51v-6h.92v5.14h1.6c.36 0 .66-.1.9-.29.23-.2.35-.44.35-.74a.97.97 0 0 0-.36-.78c-.23-.2-.53-.3-.9-.3h-1.71v-.86ZM281.7 55v-6h.92v2.6h.61l2.16-2.6h1.19l-2.43 2.9 2.46 3.1h-1.2l-1.96-2.53h-.83V55h-.92Zm7.99.13c-.54 0-1.02-.13-1.43-.4-.4-.25-.72-.61-.95-1.07-.23-.47-.34-1-.34-1.63 0-.62.11-1.17.34-1.64.23-.46.55-.82.95-1.08.41-.26.89-.39 1.43-.39.54 0 1.01.13 1.42.39.4.26.73.62.95 1.08.23.47.35 1.02.35 1.64 0 .62-.12 1.16-.35 1.63a2.6 2.6 0 0 1-.95 1.08c-.4.26-.88.38-1.42.38Zm0-.83c.41 0 .75-.1 1.01-.32.27-.21.47-.49.6-.83.12-.35.19-.72.19-1.12 0-.4-.07-.77-.2-1.12a1.89 1.89 0 0 0-.59-.84c-.26-.21-.6-.32-1.01-.32-.41 0-.75.1-1.02.32-.26.21-.46.5-.59.84-.12.35-.19.72-.19 1.12 0 .4.07.77.2 1.12.12.34.32.62.58.83.27.21.6.32 1.02.32Zm4.01.7v-6h2.46c.64 0 1.16.15 1.54.44.38.29.57.67.57 1.15 0 .37-.11.65-.33.85-.21.2-.5.33-.83.4a1.7 1.7 0 0 1 1.17.75c.14.22.2.49.2.8 0 .3-.07.58-.23.82a1.6 1.6 0 0 1-.67.58c-.3.14-.64.21-1.05.21h-2.83Zm.88-.84h1.95c.32 0 .57-.08.75-.23a.76.76 0 0 0 .27-.62.98.98 0 0 0-.27-.73 1.01 1.01 0 0 0-.75-.27h-1.95v1.85Zm0-2.64h1.58c.25 0 .46-.04.63-.1a.9.9 0 0 0 .41-.3c.1-.13.15-.29.15-.46 0-.26-.11-.45-.32-.6-.21-.14-.5-.22-.87-.22h-1.58v1.68Zm6.11 2.12 2.9-4.64h1.06v6h-.93v-4.64L300.86 55h-1.08v-6h.92v4.64Zm8.82.11L311.6 49h.88l-2.6 6h-.75l-2.55-6h.86l2.07 4.75ZM307.16 49v6h-.93v-6h.93Zm4.71 6v-6h.93v6h-.93Zm3.43-1.36 2.89-4.64h1.06v6h-.92v-4.64L315.45 55h-1.07v-6h.92v4.64Z" fill="#02344A"/><path d="M361.5 46.13a8.37 8.37 0 1 0 0 16.74 8.37 8.37 0 0 0 0-16.74Zm0 15.75a7.38 7.38 0 1 1 0-14.77 7.38 7.38 0 0 1 0 14.77Zm3.63-7.73a.5.5 0 0 1 0 .7l-2.63 2.62a.5.5 0 0 1-.7-.7l1.8-1.78h-5.38a.5.5 0 0 1-.35-.84.5.5 0 0 1 .35-.14h5.37l-1.78-1.79a.5.5 0 0 1 .7-.7l2.62 2.63ZM13.94 46.8v-4.76h.79c.27-.2.51-.47.74-.82.22-.35.41-.84.57-1.47.16-.63.27-1.45.34-2.47l.33-4.92h7.7v9.68h1.27v4.76h-2.36V44H16.3v2.8h-2.36Zm3.63-4.76h4.47v-7.65h-3.11l-.19 2.9c-.05.76-.13 1.44-.24 2.04-.11.6-.24 1.12-.4 1.56a6 6 0 0 1-.53 1.15Zm14.56-.72 2.36-6.05h1.85L32.94 44h-1.62L28 35.27h1.84l2.3 6.05Zm-2.85-6.05V44h-2.3v-8.73h2.3ZM35.1 44v-8.73h2.28V44H35.1Zm6.3-3.2 3.15-5.53h2.38V44h-2.3v-5.55L41.5 44h-2.4v-8.73h2.3v5.54Zm6.44-3.62v-1.9h7.9v1.9h-2.8V44h-2.31v-6.82h-2.8Zm9.21 10.1v-12h2.39v1.46h.1c.11-.24.27-.47.47-.72.2-.24.47-.45.8-.61a3.28 3.28 0 0 1 4.28 1.74c.31.67.48 1.5.48 2.5 0 .97-.16 1.8-.48 2.46a3.27 3.27 0 0 1-3.07 2.03 2.8 2.8 0 0 1-1.2-.23c-.32-.16-.59-.35-.8-.59-.2-.23-.36-.48-.47-.72h-.08v4.67h-2.42Zm2.37-7.64c0 .52.08.97.22 1.35.14.4.35.7.62.9.28.22.6.33 1 .33s.73-.11 1-.33c.27-.22.48-.52.62-.9.14-.4.21-.85.21-1.35 0-.5-.07-.95-.2-1.33a1.98 1.98 0 0 0-.63-.9c-.27-.22-.6-.32-1-.32s-.73.1-1 .3c-.27.22-.48.51-.62.9-.14.38-.22.83-.22 1.35Zm11.54 4.53c-.88 0-1.64-.19-2.29-.56a3.85 3.85 0 0 1-1.48-1.58 5.09 5.09 0 0 1-.52-2.36c0-.9.17-1.69.52-2.36a3.8 3.8 0 0 1 1.48-1.58c.65-.38 1.41-.57 2.3-.57.87 0 1.64.19 2.28.57.64.37 1.14.9 1.48 1.58.35.67.53 1.46.53 2.36 0 .9-.18 1.68-.53 2.36-.34.67-.84 1.2-1.48 1.58-.64.37-1.4.56-2.29.56Zm.01-1.87c.4 0 .74-.12 1-.35.28-.23.48-.54.62-.94.14-.4.2-.85.2-1.36 0-.5-.06-.96-.2-1.35-.14-.4-.34-.72-.61-.95-.27-.23-.6-.34-1-.34-.41 0-.75.11-1.03.34-.27.23-.48.55-.62.95-.13.4-.2.85-.2 1.35 0 .51.07.96.2 1.36.14.4.35.71.62.94.28.23.62.35 1.02.35Zm11.3 1.7h-2.64l4.02-11.64h3.17l4 11.64H88.2l-2.91-8.98h-.1L82.28 44Zm-.17-4.57h6.23v1.92H82.1v-1.92Zm13.46 4.74c-.9 0-1.66-.19-2.3-.57a3.84 3.84 0 0 1-1.48-1.59 5.14 5.14 0 0 1-.52-2.34c0-.9.18-1.68.52-2.35.35-.68.84-1.2 1.48-1.59.64-.38 1.4-.57 2.29-.57.76 0 1.43.14 2 .41a3.34 3.34 0 0 1 1.9 2.93h-2.28a1.76 1.76 0 0 0-.5-1.05c-.28-.27-.64-.4-1.08-.4-.38 0-.7.1-.98.3-.28.2-.5.5-.65.88-.16.39-.23.86-.23 1.4 0 .56.07 1.04.22 1.43.16.39.38.68.66.89.28.2.6.3.98.3a1.44 1.44 0 0 0 1.3-.66c.14-.22.24-.48.28-.79h2.29a3.58 3.58 0 0 1-.55 1.76c-.32.5-.76.9-1.33 1.18-.57.29-1.24.43-2.02.43Zm10.45-2.85 2.36-6.05h1.84l-3.4 8.73h-1.61l-3.32-8.73h1.83l2.3 6.05Zm-2.85-6.05V44h-2.31v-8.73h2.31Zm5.81 8.73v-8.73h2.29V44h-2.29Zm6.49.16c-.56 0-1.05-.1-1.5-.28a2.4 2.4 0 0 1-1.02-.87 2.6 2.6 0 0 1-.38-1.45c0-.48.09-.89.27-1.22.17-.33.42-.6.72-.8.31-.2.66-.35 1.05-.45.4-.1.8-.17 1.24-.22l1.23-.14c.3-.05.53-.12.67-.22s.21-.23.21-.42v-.03c0-.36-.11-.64-.34-.84a1.4 1.4 0 0 0-.95-.3c-.44 0-.79.1-1.04.3-.26.19-.43.42-.52.71l-2.23-.18a3.04 3.04 0 0 1 1.96-2.27 5.58 5.58 0 0 1 3.23-.15c.45.11.84.29 1.19.53a2.56 2.56 0 0 1 1.12 2.25V44h-2.3v-1.21h-.06a2.46 2.46 0 0 1-1.41 1.2 3.5 3.5 0 0 1-1.14.17Zm.7-1.67c.35 0 .66-.07.93-.2.28-.15.5-.34.65-.59.15-.24.23-.51.23-.82v-.93c-.08.05-.18.1-.31.14a5.72 5.72 0 0 1-.93.2l-.44.06c-.29.04-.54.1-.75.2-.2.09-.37.21-.5.36a.9.9 0 0 0-.17.57c0 .33.12.58.36.76.24.17.55.25.92.25Zm11.9-7.22v1.9h-3.62V44h-2.35v-8.73h5.98Zm1.32 8.73v-8.73h2.42V44h-2.42Zm1.22-9.85c-.36 0-.67-.12-.93-.36a1.16 1.16 0 0 1-.38-.87c0-.33.13-.62.38-.86.26-.24.57-.36.93-.36.36 0 .67.12.92.36a1.15 1.15 0 0 1 0 1.73 1.3 1.3 0 0 1-.92.36Zm2.47 9.85-.01-1.92h.29c.2 0 .38-.05.53-.15.15-.1.28-.27.37-.5.1-.22.18-.52.24-.9.05-.37.1-.84.11-1.4l.14-3.86h6.64V44h-2.3v-6.82h-2.16l-.14 2.66a8.77 8.77 0 0 1-.27 1.89c-.14.52-.33.96-.58 1.3-.25.33-.55.57-.9.73-.36.16-.77.24-1.23.24h-.73Zm13.97.17c-.88 0-1.65-.19-2.3-.56a3.85 3.85 0 0 1-1.48-1.58 5.1 5.1 0 0 1-.52-2.36c0-.9.18-1.69.52-2.36a3.8 3.8 0 0 1 1.49-1.58c.64-.38 1.4-.57 2.29-.57.88 0 1.64.19 2.28.57.65.37 1.14.9 1.5 1.58.34.67.51 1.46.51 2.36 0 .9-.17 1.68-.52 2.36-.35.67-.84 1.2-1.49 1.58-.64.37-1.4.56-2.28.56Zm0-1.87c.41 0 .75-.12 1.02-.35.26-.23.47-.54.6-.94.14-.4.21-.85.21-1.36 0-.5-.07-.96-.2-1.35-.14-.4-.35-.72-.61-.95-.27-.23-.6-.34-1.01-.34-.4 0-.75.11-1.02.34-.28.23-.48.55-.62.95-.14.4-.2.85-.2 1.35 0 .51.06.96.2 1.36.14.4.34.71.62.94.27.23.61.35 1.02.35Zm5.7 1.7v-8.73h3.73c1.07 0 1.93.2 2.55.62.63.4.94.99.94 1.74 0 .47-.18.87-.53 1.18-.35.32-.84.53-1.47.64.53.04.97.16 1.34.36.37.2.65.45.84.76.2.32.3.67.3 1.05 0 .5-.13.92-.4 1.28-.26.35-.64.63-1.15.82-.5.19-1.12.28-1.85.28h-4.3Zm2.26-1.81h2.04c.34 0 .6-.08.8-.24.19-.16.28-.39.28-.67 0-.3-.1-.55-.29-.73a1.1 1.1 0 0 0-.79-.27H155v1.9Zm0-3.33h1.52c.24 0 .45-.03.62-.1.17-.07.3-.17.4-.3.1-.14.14-.3.14-.48 0-.27-.1-.48-.33-.63a1.52 1.52 0 0 0-.88-.23H155v1.74Z" fill="#EC8812"/><path d="M19.99 16.45V23H18.8v-5.56h-2.86V23h-1.18v-6.55h5.22Zm3.41 6.65c-.49 0-.9-.11-1.26-.33a2.15 2.15 0 0 1-.8-.89 2.95 2.95 0 0 1-.29-1.32c0-.5.1-.93.29-1.32.2-.38.46-.68.81-.89.35-.22.77-.32 1.25-.32.4 0 .75.07 1.06.22a1.8 1.8 0 0 1 1.05 1.54h-1.1a1.06 1.06 0 0 0-.33-.59.92.92 0 0 0-.67-.24c-.23 0-.44.06-.62.2-.18.12-.32.3-.42.54-.1.23-.14.52-.14.85 0 .33.04.62.14.86s.24.42.41.55c.18.13.4.2.63.2.17 0 .33-.04.46-.1a.92.92 0 0 0 .34-.29c.1-.12.16-.27.2-.45h1.1c-.03.35-.13.66-.3.93-.19.26-.43.47-.73.62-.3.15-.66.23-1.08.23Zm4.08-1.67 1.97-3.34h1.19V23h-1.12v-3.35L27.56 23h-1.2v-4.9h1.12v3.33Zm5.2-3.34 1 1.81 1-1.8h1.22l-1.48 2.45 1.5 2.45h-1.2l-1.05-1.77L32.64 23h-1.22l1.5-2.45-1.47-2.46h1.23Zm5.98 5a2.15 2.15 0 0 1-2.06-1.2c-.2-.38-.29-.82-.29-1.33 0-.5.1-.95.29-1.33.2-.38.47-.68.82-.89.35-.2.77-.31 1.24-.31.48 0 .9.1 1.25.31s.62.51.82.9c.19.37.29.82.29 1.32 0 .51-.1.95-.3 1.33-.19.38-.46.68-.8.89-.36.21-.78.32-1.26.32Zm.01-.92a1 1 0 0 0 .65-.22c.18-.14.3-.33.4-.58.08-.24.12-.51.12-.8 0-.3-.04-.58-.13-.82a1.29 1.29 0 0 0-.39-.59.99.99 0 0 0-.65-.22c-.27 0-.49.08-.66.22-.18.15-.3.34-.4.59-.08.24-.12.51-.12.81 0 .3.04.57.12.81.1.25.22.44.4.58.17.15.4.22.66.22Zm2.9.83v-.95h.16c.13 0 .24-.03.33-.09a.63.63 0 0 0 .21-.29c.06-.13.1-.32.14-.55.03-.23.05-.51.06-.86l.1-2.17h3.57V23h-1.12v-3.96h-1.4l-.08 1.58c-.02.41-.07.77-.14 1.07-.07.3-.17.54-.3.73-.13.2-.3.34-.48.44-.2.1-.43.14-.7.14h-.35Zm7.79.1c-.48 0-.9-.11-1.25-.32-.35-.21-.62-.5-.82-.89-.19-.38-.29-.82-.29-1.33 0-.5.1-.95.3-1.33.19-.38.46-.68.81-.89.35-.2.77-.31 1.25-.31s.9.1 1.24.31c.35.21.63.51.82.9.2.37.29.82.29 1.32 0 .51-.1.95-.3 1.33-.18.38-.46.68-.8.89-.36.21-.77.32-1.25.32Zm0-.93a1 1 0 0 0 .66-.22c.17-.14.3-.33.39-.58.08-.24.13-.51.13-.8 0-.3-.05-.58-.13-.82a1.29 1.29 0 0 0-.4-.59.99.99 0 0 0-.65-.22c-.26 0-.48.08-.66.22-.18.15-.3.34-.4.59-.08.24-.12.51-.12.81 0 .3.04.57.13.81.08.25.21.44.39.58.18.15.4.22.66.22Zm6.49-4.08v.95h-2.12V23H52.6v-4.9h3.25Zm1.38 4.02-.04.35a10.17 10.17 0 0 1-.6 2.14h-.78a698.85 698.85 0 0 0 .27-1.29c.05-.28.08-.56.1-.85l.02-.35h1.03Zm6.05.89v-3.97h-1.05a.91.91 0 0 0-.62.19.58.58 0 0 0-.2.46c-.01.18.06.33.2.45.13.12.33.18.58.18h1.45v.84h-1.45c-.4 0-.73-.06-1.02-.18-.28-.13-.5-.3-.66-.53a1.38 1.38 0 0 1-.23-.79c0-.31.08-.59.24-.82.15-.24.38-.42.67-.54.29-.13.64-.2 1.04-.2h2.13V23h-1.08Zm-3.18 0 1.38-2.52h1.14L61.24 23H60.1Zm5.33 0v-4.9h1.16v1.97h.42l1.48-1.98h1.4l-1.83 2.41L69.9 23h-1.4l-1.34-1.85h-.57V23h-1.16Zm6.15-1.57 1.97-3.34h1.19V23h-1.12v-3.35L71.66 23h-1.2v-4.9h1.12v3.33Zm5.37 0 1.97-3.34h1.19V23h-1.12v-3.35L77.03 23h-1.2v-4.9h1.12v3.33Zm1.65-5.03h.87c0 .38-.14.68-.41.91-.27.23-.63.35-1.1.35-.45 0-.81-.12-1.08-.35-.27-.23-.4-.53-.4-.9h.86c0 .15.04.28.14.4.1.13.26.18.49.18.22 0 .38-.05.48-.17.1-.12.15-.26.15-.42Zm6.89 6.7c-.5 0-.91-.11-1.27-.33a2.16 2.16 0 0 1-.8-.89 2.95 2.95 0 0 1-.28-1.32c0-.5.1-.93.28-1.32.2-.38.47-.68.81-.89.36-.22.77-.32 1.25-.32.4 0 .75.07 1.06.22a1.8 1.8 0 0 1 1.05 1.54h-1.1a1.06 1.06 0 0 0-.33-.59.92.92 0 0 0-.66-.24c-.24 0-.45.06-.63.2-.18.12-.31.3-.42.54-.1.23-.14.52-.14.85 0 .33.05.62.14.86.1.24.24.42.42.55.18.13.39.2.63.2.17 0 .32-.04.45-.1a.92.92 0 0 0 .35-.29c.09-.12.15-.27.18-.45h1.11c-.03.35-.13.66-.3.93-.18.26-.42.47-.73.62-.3.15-.66.23-1.07.23Zm2.96-.1v-4.9h4.15V23h-1.12v-3.96h-1.92V23h-1.11Zm5.25 1.84V18.1h1.13v.81h.07c.06-.12.14-.24.25-.38.11-.13.26-.25.44-.35.19-.1.43-.14.71-.14a1.87 1.87 0 0 1 1.76 1.14c.18.38.27.84.27 1.38 0 .54-.09 1-.27 1.38a1.86 1.86 0 0 1-1.76 1.16 1.43 1.43 0 0 1-1.15-.48 2.2 2.2 0 0 1-.25-.38h-.05v2.61H93.7Zm1.13-4.3c0 .32.04.6.13.84.1.24.23.42.4.56a1 1 0 0 0 .62.2 1 1 0 0 0 .65-.2c.17-.15.3-.33.39-.57.09-.24.13-.52.13-.82 0-.3-.04-.58-.13-.82a1.22 1.22 0 0 0-.4-.55c-.16-.14-.38-.2-.64-.2-.24 0-.45.06-.63.2-.17.12-.3.3-.39.54-.09.23-.13.5-.13.83Zm5.81 2.56c-.3 0-.59-.06-.84-.17a1.37 1.37 0 0 1-.59-.5 1.46 1.46 0 0 1-.21-.8c0-.28.05-.51.15-.7.1-.18.25-.32.42-.43.18-.1.38-.19.6-.25.22-.05.45-.1.7-.12l.7-.08c.17-.03.3-.06.38-.12.09-.05.13-.13.13-.24v-.02a.72.72 0 0 0-.22-.56c-.14-.13-.34-.2-.61-.2-.29 0-.51.06-.68.19a.92.92 0 0 0-.33.44l-1.08-.16a1.73 1.73 0 0 1 1.14-1.2 3.06 3.06 0 0 1 1.65-.07 2 2 0 0 1 .64.27c.2.13.35.3.47.52.11.22.17.49.17.81V23h-1.1v-.67h-.05a1.4 1.4 0 0 1-.77.66c-.19.07-.41.1-.67.1Zm.3-.85c.24 0 .44-.05.6-.14.18-.1.3-.22.4-.37.1-.15.14-.32.14-.5v-.58a.54.54 0 0 1-.18.08 8.93 8.93 0 0 1-.6.12l-.28.04c-.17.02-.33.06-.46.12a.77.77 0 0 0-.33.22.55.55 0 0 0-.11.36c0 .22.07.38.23.49.15.1.35.16.6.16Zm3.37.75v-4.9h2.06c.58 0 1.04.1 1.38.34.34.23.5.56.5.97 0 .28-.1.5-.28.68-.2.17-.45.28-.78.34.26.02.48.09.68.2.2.1.35.25.46.43.11.17.17.38.17.6 0 .28-.08.51-.22.71-.14.2-.34.36-.62.47-.26.1-.59.16-.97.16h-2.38Zm1.08-.91h1.3c.2 0 .38-.05.5-.15.12-.1.18-.24.18-.42 0-.2-.06-.36-.18-.47a.7.7 0 0 0-.5-.18h-1.3v1.22Zm0-1.97h1c.16 0 .3-.02.4-.06.12-.05.2-.12.27-.2a.51.51 0 0 0 .09-.3c0-.17-.07-.3-.21-.4a.98.98 0 0 0-.57-.14h-.98v1.1Zm3.53 4.3v-2.37h.4c.1-.08.19-.2.26-.33.07-.14.13-.3.17-.5a20.57 20.57 0 0 0 .2-1.41l.13-1.72h3.55v3.96h.76v2.38h-1.11V23h-3.22v1.43h-1.14Zm1.58-2.37h2.03v-3.03h-1.44l-.08.79c-.04.52-.1.97-.17 1.34-.07.37-.18.67-.34.9Zm4.67.95v-4.9h1.15V23h-1.15Zm.58-5.6a.67.67 0 0 1-.47-.19.59.59 0 0 1-.2-.44c0-.18.06-.32.2-.45a.67.67 0 0 1 .47-.18c.18 0 .34.06.47.18.13.13.2.27.2.45 0 .17-.07.32-.2.44a.67.67 0 0 1-.47.18Zm3.82 5.6v-4.9h4.14V23h-1.11v-3.96h-1.93V23h-1.1Zm7.38.1c-.48 0-.9-.11-1.24-.32-.35-.21-.63-.5-.82-.89a2.9 2.9 0 0 1-.29-1.33c0-.5.1-.95.29-1.33.2-.38.47-.68.82-.89.35-.2.76-.31 1.24-.31s.9.1 1.25.31.62.51.81.9c.2.37.3.82.3 1.32 0 .51-.1.95-.3 1.33-.19.38-.46.68-.81.89-.35.21-.77.32-1.25.32Zm0-.93a1 1 0 0 0 .66-.22c.18-.14.3-.33.4-.58.08-.24.12-.51.12-.8 0-.3-.04-.58-.13-.82a1.29 1.29 0 0 0-.39-.59.99.99 0 0 0-.65-.22c-.27 0-.49.08-.67.22-.17.15-.3.34-.39.59-.08.24-.13.51-.13.81 0 .3.05.57.13.81.09.25.22.44.4.58.17.15.4.22.66.22Zm7.35-4.08V23h-1.12v-4.9h1.12Zm-.52 2.22v.95a3.24 3.24 0 0 1-.93.25c-.18.02-.35.04-.53.04-.65 0-1.17-.15-1.55-.45-.38-.3-.57-.75-.57-1.38v-1.64h1.1v1.64a1 1 0 0 0 .11.5c.08.14.2.23.34.29.16.06.34.09.57.09.26 0 .5-.03.73-.08.23-.05.47-.12.73-.21Zm2.13 4.53a2.35 2.35 0 0 1-.75-.12l.27-.9c.17.05.32.07.45.07s.25-.05.35-.13c.1-.08.19-.2.26-.4l.1-.26-1.78-5h1.22l1.13 3.7h.06l1.13-3.7h1.23l-1.97 5.5c-.09.25-.2.48-.36.66-.15.19-.34.33-.56.43-.21.1-.47.15-.78.15Zm6.5-4.64v.76h-1.99v-.76h2Zm1.79-.56-1.1.14a1.16 1.16 0 0 0-.33-.57.95.95 0 0 0-.68-.23c-.26 0-.48.06-.66.2a1.2 1.2 0 0 0-.4.54c-.09.24-.13.51-.13.83 0 .31.04.6.13.83.1.24.22.42.4.56.18.13.4.2.66.2.18 0 .34-.03.47-.1a.92.92 0 0 0 .34-.26c.09-.11.15-.24.19-.4l1.1.15a1.88 1.88 0 0 1-1.1 1.37c-.3.13-.62.2-1 .2a2.17 2.17 0 0 1-2.04-1.23 3.01 3.01 0 0 1-.27-1.32c0-.5.1-.93.28-1.3a2.17 2.17 0 0 1 2.03-1.22c.37 0 .7.06 1 .2.3.13.54.32.73.56.2.24.32.52.38.85Zm3.13 3.36v-6.55h2.5c.47 0 .87.08 1.18.23.32.15.55.35.7.6.16.26.24.55.24.87 0 .27-.05.5-.15.69-.1.18-.24.34-.41.45-.17.12-.37.2-.58.26v.06a1.5 1.5 0 0 1 1.2.76c.13.23.2.51.2.85 0 .34-.08.64-.25.91-.16.27-.4.48-.74.64-.33.15-.74.23-1.25.23h-2.64Zm1.18-1h1.28c.43 0 .74-.07.93-.24a.8.8 0 0 0 .28-.64.98.98 0 0 0-.55-.9c-.18-.08-.39-.13-.63-.13h-1.3v1.92Zm0-2.76h1.17c.2 0 .4-.04.56-.11.16-.08.29-.19.38-.33.1-.14.15-.3.15-.5a.81.81 0 0 0-.27-.62c-.18-.17-.44-.25-.79-.25h-1.2v1.8Zm6 3.86c-.3 0-.59-.06-.84-.17a1.36 1.36 0 0 1-.59-.5 1.46 1.46 0 0 1-.21-.8c0-.28.05-.51.15-.7.1-.18.24-.32.42-.43.18-.1.38-.19.6-.25.22-.05.45-.1.7-.12l.7-.08c.17-.03.3-.06.38-.12.09-.05.13-.13.13-.24v-.02a.72.72 0 0 0-.22-.56c-.14-.13-.34-.2-.61-.2-.29 0-.51.06-.68.19a.92.92 0 0 0-.33.44l-1.08-.16a1.72 1.72 0 0 1 1.14-1.2 3.06 3.06 0 0 1 1.65-.07c.23.06.44.15.64.27.2.13.35.3.47.52.11.22.17.49.17.81V23H156v-.67h-.05a1.43 1.43 0 0 1-.77.66c-.19.07-.41.1-.67.1Zm.3-.85c.23 0 .44-.05.6-.14.18-.1.3-.22.4-.37.1-.15.14-.32.14-.5v-.58a.54.54 0 0 1-.19.08 8.93 8.93 0 0 1-.88.16c-.16.02-.32.06-.45.12a.77.77 0 0 0-.33.22.55.55 0 0 0-.11.36c0 .22.07.38.23.49.15.1.35.16.6.16Zm5.5.85c-.48 0-.9-.11-1.25-.33a2.15 2.15 0 0 1-.81-.89 2.94 2.94 0 0 1-.28-1.32c0-.5.1-.93.28-1.32a2.15 2.15 0 0 1 2.06-1.21c.4 0 .75.07 1.06.22a1.81 1.81 0 0 1 1.05 1.54h-1.1a1.06 1.06 0 0 0-.32-.59.92.92 0 0 0-.67-.24c-.24 0-.45.06-.63.2-.17.12-.31.3-.41.54-.1.23-.15.52-.15.85 0 .33.05.62.15.86.1.24.23.42.4.55.19.13.4.2.64.2.17 0 .32-.04.45-.1a.91.91 0 0 0 .35-.29c.09-.12.15-.27.19-.45h1.1c-.03.35-.13.66-.3.93-.18.26-.42.47-.73.62-.3.15-.66.23-1.07.23Z" fill="#02344A"/></g><defs><clipPath id="a"><path fill="#fff" d="M0 0h375v68H0z"/></clipPath></defs></svg>