<svg width="14" height="13" viewBox="0 0 14 13" fill="none" xmlns="http://www.w3.org/2000/svg">
<path d="M13.6316 11.6765H13.0175V6.53592C13.0175 6.30315 12.927 6.07992 12.7658 5.91532C12.6045 5.75073 12.3859 5.65826 12.1579 5.65826H8.59649V1.52073C8.59649 1.28796 8.50592 1.06472 8.34471 0.900127C8.18349 0.735534 7.96484 0.643066 7.73684 0.643066H1.84211C1.61411 0.643066 1.39546 0.735534 1.23424 0.900127C1.07303 1.06472 0.982456 1.28796 0.982456 1.52073V11.6765H0.368421C0.27071 11.6765 0.177 11.7161 0.107908 11.7867C0.0388156 11.8572 0 11.9529 0 12.0526C0 12.1524 0.0388156 12.2481 0.107908 12.3186C0.177 12.3892 0.27071 12.4288 0.368421 12.4288H13.6316C13.7293 12.4288 13.823 12.3892 13.8921 12.3186C13.9612 12.2481 14 12.1524 14 12.0526C14 11.9529 13.9612 11.8572 13.8921 11.7867C13.823 11.7161 13.7293 11.6765 13.6316 11.6765ZM12.1579 6.41054C12.1905 6.41054 12.2217 6.42375 12.2447 6.44727C12.2678 6.47078 12.2807 6.50267 12.2807 6.53592V11.6765H8.59649V6.41054H12.1579ZM1.7193 1.52073C1.7193 1.48747 1.73224 1.45558 1.75527 1.43207C1.7783 1.40856 1.80953 1.39535 1.84211 1.39535H7.73684C7.76941 1.39535 7.80065 1.40856 7.82368 1.43207C7.84671 1.45558 7.85965 1.48747 7.85965 1.52073V11.6765H6.63158V8.542C6.63158 8.44224 6.59276 8.34657 6.52367 8.27603C6.45458 8.20549 6.36087 8.16586 6.26316 8.16586H3.31579C3.21808 8.16586 3.12437 8.20549 3.05528 8.27603C2.98618 8.34657 2.94737 8.44224 2.94737 8.542V11.6765H1.7193V1.52073ZM5.89474 11.6765H3.68421V8.91814H5.89474V11.6765ZM2.94737 4.52984C2.94737 4.43009 2.98618 4.33441 3.05528 4.26387C3.12437 4.19333 3.21808 4.1537 3.31579 4.1537H4.42105V3.02529C4.42105 2.92553 4.45987 2.82985 4.52896 2.75931C4.59805 2.68877 4.69176 2.64915 4.78947 2.64915C4.88719 2.64915 4.98089 2.68877 5.04999 2.75931C5.11908 2.82985 5.15789 2.92553 5.15789 3.02529V4.1537H6.26316C6.36087 4.1537 6.45458 4.19333 6.52367 4.26387C6.59276 4.33441 6.63158 4.43009 6.63158 4.52984C6.63158 4.6296 6.59276 4.72528 6.52367 4.79581C6.45458 4.86635 6.36087 4.90598 6.26316 4.90598H5.15789V6.0344C5.15789 6.13416 5.11908 6.22983 5.04999 6.30037C4.98089 6.37091 4.88719 6.41054 4.78947 6.41054C4.69176 6.41054 4.59805 6.37091 4.52896 6.30037C4.45987 6.22983 4.42105 6.13416 4.42105 6.0344V4.90598H3.31579C3.21808 4.90598 3.12437 4.86635 3.05528 4.79581C2.98618 4.72528 2.94737 4.6296 2.94737 4.52984Z" fill="white"/>
</svg>
