<svg width="24" height="20" viewBox="0 0 24 20" fill="none" xmlns="http://www.w3.org/2000/svg">
<path d="M23.7503 10.0008C23.7503 10.1997 23.6713 10.3905 23.5306 10.5312C23.39 10.6718 23.1992 10.7508 23.0003 10.7508H2.81157L10.5303 18.4708C10.604 18.5395 10.6631 18.6223 10.7041 18.7143C10.7451 18.8063 10.7671 18.9056 10.7689 19.0063C10.7707 19.107 10.7522 19.207 10.7144 19.3004C10.6767 19.3938 10.6206 19.4786 10.5494 19.5499C10.4781 19.6211 10.3933 19.6772 10.2999 19.7149C10.2065 19.7527 10.1065 19.7712 10.0058 19.7694C9.90509 19.7676 9.80578 19.7456 9.71378 19.7046C9.62178 19.6636 9.53898 19.6045 9.47032 19.5308L0.470316 10.5308C0.329866 10.3902 0.250977 10.1996 0.250977 10.0008C0.250977 9.80207 0.329866 9.61145 0.470316 9.47082L9.47032 0.470823C9.61249 0.338343 9.80054 0.26622 9.99484 0.269648C10.1891 0.273076 10.3745 0.351788 10.5119 0.489201C10.6494 0.626614 10.7281 0.811999 10.7315 1.0063C10.7349 1.2006 10.6628 1.38865 10.5303 1.53082L2.81157 9.25082H23.0003C23.1992 9.25082 23.39 9.32984 23.5306 9.47049C23.6713 9.61115 23.7503 9.80191 23.7503 10.0008Z" fill="#02344A"/>
</svg>
