<svg width="297" height="210" viewBox="0 0 297 210" fill="none" xmlns="http://www.w3.org/2000/svg">
<g clip-path="url(#clip0_6945_17864)">
<path opacity="0.1" d="M98.9073 209.882C113.322 209.882 125.008 208.002 125.008 205.683C125.008 203.364 113.322 201.485 98.9073 201.485C84.4923 201.485 72.8066 203.364 72.8066 205.683C72.8066 208.002 84.4923 209.882 98.9073 209.882Z" fill="#007DCF"/>
<path opacity="0.1" d="M240.787 210C258.775 210 273.357 208.12 273.357 205.801C273.357 203.482 258.775 201.603 240.787 201.603C222.8 201.603 208.218 203.482 208.218 205.801C208.218 208.12 222.8 210 240.787 210Z" fill="#007DCF"/>
<path opacity="0.1" d="M4.20755 90.7351H31.393V127.847H6.19777C6.13081 128.228 6.06652 128.612 5.99688 128.996H31.393V158.926C31.3475 158.913 31.3073 158.896 31.2644 158.88C30.5466 158.596 29.8341 158.295 29.1215 157.974L28.6662 157.767C27.9519 157.429 27.2376 157.071 26.5233 156.694C26.2742 156.562 26.025 156.426 25.7786 156.286C21.8131 154.061 18.2107 151.242 15.0962 147.926C15.0051 147.838 14.9194 147.744 14.8283 147.658C14.3944 147.186 13.9685 146.708 13.556 146.22L13.1006 145.683C12.6131 145.085 12.1417 144.471 11.6836 143.848C11.6167 143.757 11.5524 143.666 11.4827 143.58C9.61986 140.993 8.07309 138.192 6.87547 135.236C6.83797 135.148 6.80582 135.051 6.771 134.968C6.40314 134.02 6.07723 133.063 5.7933 132.097C5.67008 131.692 5.55222 131.292 5.45043 130.871C5.41293 130.748 5.38079 130.627 5.35132 130.506C3.82986 124.558 3.65039 118.38 3.65039 112.244C3.65039 111.527 3.65039 110.808 3.65039 110.097C3.65039 107.616 3.67986 105.118 3.72271 102.623C3.72271 101.976 3.7495 101.333 3.76289 100.683C3.80039 99.036 3.85397 97.3887 3.92361 95.7414C3.93968 95.2826 3.96111 94.8265 3.98522 94.3704C3.98522 94.1075 3.99861 93.8446 4.0254 93.5817C4.08969 92.6265 4.14326 91.6795 4.20755 90.7351Z" fill="#007DCF"/>
<path opacity="0.1" d="M31.3924 49.4134H16.4805C18.9045 45.6133 21.553 41.9616 24.4119 38.478C26.6271 35.7521 28.9656 33.0961 31.3924 30.5366V49.4134Z" fill="#007DCF"/>
<path opacity="0.1" d="M31.3927 50.5615V89.5867H4.29297C4.29297 89.4741 4.31172 89.3587 4.31975 89.246C4.34386 88.9375 4.36797 88.629 4.39476 88.3231C4.42422 87.9636 4.45636 87.6014 4.49119 87.25C4.52601 86.8985 4.56351 86.4692 4.60369 86.0802C4.64387 85.6912 4.68137 85.2968 4.72691 84.9078C4.77244 84.5188 4.81262 84.1298 4.86084 83.7434C4.90905 83.3571 4.95191 82.9654 5.00281 82.5791C5.04299 82.2571 5.08584 81.9378 5.1287 81.6159C5.19031 81.1625 5.2546 80.7064 5.32424 80.2557C5.32424 80.1886 5.34299 80.1188 5.35371 80.0545C5.84261 76.7549 6.50877 73.4842 7.34929 70.2566C8.22911 66.8707 9.35262 63.5532 10.711 60.3299C12.1547 56.958 13.845 53.6975 15.7682 50.5749L31.3927 50.5615Z" fill="#007DCF"/>
<path opacity="0.1" d="M37.8828 90.7327V127.848H95.9476V90.7327H37.8828ZM37.8828 128.993V160.866C38.215 160.936 38.5444 161.003 38.8712 161.059C39.3159 161.145 39.7579 161.223 40.2105 161.29C40.2963 161.303 40.3847 161.317 40.4784 161.325C40.6552 161.354 40.8373 161.378 41.0141 161.402C41.4615 161.464 41.9061 161.515 42.3535 161.555C42.5651 161.577 42.7794 161.596 42.9937 161.612L43.5106 161.652C43.7919 161.673 44.0705 161.69 44.3464 161.698C44.5178 161.698 44.6892 161.714 44.866 161.719C44.9999 161.719 45.1339 161.719 45.2732 161.719C45.4125 161.719 45.6107 161.719 45.7794 161.719C46.0098 161.719 46.2402 161.719 46.4678 161.719H46.7759C47.0062 161.719 47.2366 161.719 47.4643 161.698H47.4804C47.6384 161.698 47.7991 161.698 47.9598 161.676C48.0044 161.679 48.0492 161.679 48.0938 161.676C48.2277 161.676 48.3616 161.676 48.4902 161.657H48.584L49.4813 161.588C49.776 161.561 50.0733 161.526 50.3733 161.494L50.984 161.421C53.4687 161.073 55.9257 160.549 58.3369 159.854C63.7531 158.341 69.0514 156.225 74.4649 154.674C81.4642 152.675 89.1974 151.693 95.961 154.137V128.993H37.8828ZM95.9476 49.4136V0.0029227C89.5905 -0.0660606 83.2506 0.678655 77.082 2.21898C62.3789 5.91868 49.1867 13.9432 37.8828 24.1918V49.4109H40.7972V50.5565H37.8828V89.5871H95.9476V50.5592H52.7626V49.4136H95.9476ZM170.529 32.7234C166.891 32.5946 163.275 31.4409 160.005 29.6595C153.75 26.2523 148.754 20.9911 143.172 16.5509C131.573 7.30305 117.189 1.72265 102.433 0.338283V49.4136H185.323L185.529 49.1963L170.529 32.7234ZM178.08 31.3819L186.086 40.1818V29.0746C183.405 29.4073 181.056 30.1988 178.091 31.3712L178.08 31.3819ZM186.086 168.78V128.993H169.026C168.981 128.824 168.935 128.653 168.882 128.481C168.932 128.653 168.975 128.824 169.023 128.993H102.443V157.767C103.075 158.237 103.7 158.73 104.318 159.232C104.985 159.769 105.644 160.335 106.306 160.89L106.973 161.443C107.292 161.711 107.613 161.979 107.937 162.232C108.58 162.754 109.229 163.269 109.885 163.777C110.209 164.045 110.541 164.287 110.87 164.539C116.101 168.544 121.619 172.159 127.379 175.353C128.67 176.069 129.973 176.767 131.287 177.449C132.163 177.897 133.044 178.342 133.928 178.774C135.257 179.423 136.596 180.049 137.946 180.652C150.393 186.248 163.554 190.088 177.054 192.062C180.052 192.506 183.062 192.855 186.084 193.109V168.778H186.352L186.086 168.78ZM102.443 50.5592V89.5871H186.097V50.5592H102.443ZM102.443 90.7327V127.848H186.097V90.7327H102.443ZM192.59 29.0264V41.4159L202.809 30.1854C199.423 29.6381 196.017 29.2472 192.59 29.0129V29.0264ZM192.59 90.7461V127.848H273.954V90.7327L192.59 90.7461ZM273.656 171.726L273.943 128.993H192.59V193.535C197.831 193.756 203.08 193.693 208.314 193.348H208.405C210.905 193.19 213.393 192.961 215.87 192.661H215.926C229.14 191.12 242.061 187.667 254.284 182.409M289.643 96.8443C289.337 96.1226 289.018 95.4062 288.694 94.698C288.089 93.3565 287.449 92.0526 286.79 90.7488H280.441V127.848H296.492C296.484 117.341 293.829 106.61 289.651 96.8308L289.643 96.8443ZM280.441 129.007V165.762C284.963 161.421 288.783 156.455 291.534 150.778C294.842 143.942 296.355 136.54 296.478 129.001L280.441 129.007ZM280.441 79.9314V89.5898H286.195C284.454 86.2649 282.536 83.0363 280.449 79.918L280.441 79.9314ZM225.261 36.3077C224.838 36.1467 224.415 35.9831 223.989 35.8248C219.497 34.1633 214.907 32.7817 210.245 31.6878L194.607 48.877L194.307 49.1963L194.508 49.4163H250.165C242.413 44.0721 234.057 39.6673 225.27 36.2943L225.261 36.3077ZM251.796 50.5726H193.731L192.59 51.6189V89.5871H202.592H202.608H273.964V71.1959C267.51 63.3769 260.059 56.4389 251.804 50.5592L251.796 50.5726Z" fill="#007DCF"/>
<path opacity="0.1" d="M31.3927 70.2458V89.5868H4.29297C4.29297 89.4741 4.31172 89.3587 4.31975 89.246C4.34386 88.9375 4.36797 88.629 4.39476 88.3231C4.42422 87.9636 4.45636 87.6014 4.49119 87.25C4.52601 86.8985 4.56351 86.4692 4.60369 86.0802C4.64387 85.6912 4.68137 85.2968 4.72691 84.9078C4.77244 84.5188 4.81262 84.1298 4.86084 83.7434C4.90905 83.3571 4.95191 82.9654 5.00281 82.5791C5.04299 82.2571 5.08584 81.9379 5.1287 81.6159C5.19031 81.1625 5.2546 80.7064 5.32424 80.2557C5.32424 80.1886 5.34299 80.1189 5.35371 80.0545C5.84261 76.755 6.50877 73.4843 7.34929 70.2566L31.3927 70.2458Z" fill="#007DCF"/>
<path opacity="0.1" d="M4.20755 90.7351H31.393V127.847H6.19777C6.13081 128.228 6.06652 128.612 5.99688 128.996H31.393V158.926C31.3475 158.913 31.3073 158.896 31.2644 158.88C30.5466 158.596 29.8341 158.295 29.1215 157.974L28.6662 157.767C27.9519 157.429 27.2376 157.071 26.5233 156.694C26.2742 156.562 26.025 156.426 25.7786 156.286C21.8131 154.061 18.2107 151.242 15.0962 147.926C15.0051 147.838 14.9194 147.744 14.8283 147.658C14.3944 147.186 13.9685 146.708 13.556 146.22L13.1006 145.683C12.6131 145.085 12.1417 144.471 11.6836 143.848C11.6167 143.757 11.5524 143.666 11.4827 143.58C9.61986 140.993 8.07309 138.192 6.87547 135.236C6.83797 135.148 6.80582 135.051 6.771 134.968C6.40314 134.02 6.07723 133.063 5.7933 132.097C5.67008 131.692 5.55222 131.292 5.45043 130.871C5.41293 130.748 5.38079 130.627 5.35132 130.506C3.82986 124.558 3.65039 118.38 3.65039 112.244C3.65039 111.527 3.65039 110.808 3.65039 110.097C3.65039 107.616 3.67986 105.118 3.72271 102.623C3.72271 101.976 3.7495 101.333 3.76289 100.683C3.80039 99.036 3.85397 97.3887 3.92361 95.7414C3.93968 95.2826 3.96111 94.8265 3.98522 94.3704C3.98522 94.1075 3.99861 93.8446 4.0254 93.5817C4.08969 92.6265 4.14326 91.6795 4.20755 90.7351Z" fill="#007DCF"/>
<path opacity="0.1" d="M58.3235 56.1474V89.5869H37.8828V56.1474H40.7972V44.8257H52.76V56.1474H58.3235Z" fill="#007DCF"/>
<path opacity="0.1" d="M58.3237 90.7324H37.8857V127.845H58.3237V90.7324Z" fill="#007DCF"/>
<path opacity="0.1" d="M37.8828 128.996H58.3235V159.849C55.9123 160.543 53.4553 161.065 50.9706 161.413L50.3599 161.488C50.0599 161.523 49.7626 161.552 49.4679 161.582C49.1733 161.611 48.8679 161.633 48.5706 161.652H48.4768C48.3482 161.652 48.209 161.668 48.0831 161.67H47.9464C47.7857 161.67 47.625 161.687 47.4643 161.692C47.2366 161.705 47.0089 161.708 46.7759 161.711C46.6768 161.711 46.583 161.711 46.4839 161.711C46.2536 161.711 46.0259 161.711 45.7955 161.711H45.2892C45.1526 161.711 45.0214 161.711 44.8794 161.711L44.3624 161.692C44.0946 161.692 43.8053 161.662 43.5267 161.644L43.0124 161.606L42.3722 161.547C41.9222 161.507 41.4749 161.456 41.0329 161.394L40.4972 161.319L40.2293 161.281C39.782 161.212 39.34 161.137 38.89 161.051C38.5605 160.994 38.2337 160.925 37.9016 160.858L37.8828 128.996Z" fill="#007DCF"/>
<path opacity="0.1" d="M186.097 52.1982H169.243V89.5842H186.097V52.1982Z" fill="#007DCF"/>
<path opacity="0.1" d="M186.1 90.7324V127.847H102.443V111.839H147.002V121.282H169.243V90.7324H186.1Z" fill="#007DCF"/>
<path opacity="0.1" d="M186.365 168.788H186.097V193.135C183.079 192.88 180.07 192.532 177.07 192.092C163.563 190.111 150.397 186.263 137.946 180.657C134.351 179.037 130.83 177.268 127.381 175.351C121.621 172.154 116.103 168.54 110.87 164.536C109.556 163.527 108.259 162.495 106.978 161.44C106.092 160.707 105.21 159.956 104.318 159.227C103.7 158.725 103.076 158.231 102.443 157.759V128.996H169.021C168.975 128.824 168.93 128.652 168.882 128.483C168.932 128.652 168.981 128.824 169.026 128.996H186.097V168.772C186.188 168.775 186.277 168.783 186.365 168.788Z" fill="#007DCF"/>
<path opacity="0.1" d="M230.054 49.4135H219.071V45.9955H223.995V35.814C224.421 35.9696 224.846 36.1297 225.27 36.2942V45.9955H230.054V49.4135Z" fill="#007DCF"/>
<path opacity="0.1" d="M256.514 89.5867H202.598C202.598 89.5867 202.598 89.5867 202.617 89.6002L202.593 89.5867H192.591V52.2008H195.425V79.8345H208.376V63.4689H219.074V50.5615H230.057V63.4796H240.755V79.8452H256.514V89.5867Z" fill="#007DCF"/>
<path opacity="0.1" d="M192.591 90.7324V127.847H256.514V90.7324H192.591ZM273.866 171.535L273.954 142.158H256.514V129.012H192.591V193.535C197.832 193.756 203.08 193.693 208.314 193.347H208.405C210.906 193.19 213.394 192.961 215.871 192.661H215.927C229.141 191.12 242.062 187.667 254.285 182.409" fill="#007DCF"/>
<path opacity="0.1" d="M281.577 128.996H296.489C296.358 136.532 294.847 143.934 291.542 150.77C288.791 156.45 284.968 161.416 280.452 165.754V142.144H281.577V128.996Z" fill="#007DCF"/>
<path opacity="0.1" d="M296.497 127.847H281.577V96.8306H289.651C293.829 106.61 296.484 117.341 296.497 127.847Z" fill="#007DCF"/>
<path opacity="0.1" d="M186.1 62.5916H177.07V74.3131H186.1V62.5916Z" fill="#007DCF"/>
<path opacity="0.1" d="M186.1 86.8879H177.07V89.5869H186.1V86.8879Z" fill="#007DCF"/>
<path opacity="0.1" d="M186.1 90.7324H177.07V98.6067H186.1V90.7324Z" fill="#007DCF"/>
<path opacity="0.1" d="M186.1 111.184H177.07V122.906H186.1V111.184Z" fill="#007DCF"/>
<path opacity="0.1" d="M186.1 135.48H177.07V147.202H186.1V135.48Z" fill="#007DCF"/>
<path opacity="0.1" d="M186.097 168.772C186.188 168.772 186.277 168.772 186.365 168.788H186.097V171.511H177.07V159.776H186.097V168.772Z" fill="#007DCF"/>
<path opacity="0.1" d="M186.097 184.067V193.122C183.079 192.866 180.07 192.518 177.07 192.078V184.067H186.097Z" fill="#007DCF"/>
<path opacity="0.1" d="M141.142 126.986H102.443V127.848H141.142V126.986Z" fill="#007DCF"/>
<path opacity="0.1" d="M141.142 128.993H102.443V132.293H141.142V128.993Z" fill="#007DCF"/>
<path opacity="0.1" d="M141.142 143.11H102.443V148.417H141.142V143.11Z" fill="#007DCF"/>
<path opacity="0.1" d="M141.139 159.234V164.541H110.87C109.556 163.536 108.257 162.504 106.975 161.445C106.089 160.713 105.21 159.961 104.315 159.234H141.139Z" fill="#007DCF"/>
<path opacity="0.1" d="M141.139 175.356V180.657H137.944C134.353 179.035 130.832 177.265 127.382 175.348L141.139 175.356Z" fill="#007DCF"/>
<path opacity="0.1" d="M215.934 94.3301H208.316V101.96H215.934V94.3301Z" fill="#007DCF"/>
<path opacity="0.1" d="M50.9891 58.7793H43.3711V66.4094H50.9891V58.7793Z" fill="#007DCF"/>
<path opacity="0.1" d="M50.9891 76.5024H43.3711V84.1326H50.9891V76.5024Z" fill="#007DCF"/>
<path opacity="0.1" d="M50.9891 94.2256H43.3711V101.856H50.9891V94.2256Z" fill="#007DCF"/>
<path opacity="0.1" d="M50.9891 111.946H43.3711V119.576H50.9891V111.946Z" fill="#007DCF"/>
<path opacity="0.1" d="M50.9891 129.669H43.3711V137.299H50.9891V129.669Z" fill="#007DCF"/>
<path opacity="0.1" d="M50.9891 147.392H43.3711V155.022H50.9891V147.392Z" fill="#007DCF"/>
<path opacity="0.1" d="M245.016 94.3301H237.398V101.96H245.016V94.3301Z" fill="#007DCF"/>
<path opacity="0.1" d="M215.934 113.151H208.316V120.781H215.934V113.151Z" fill="#007DCF"/>
<path opacity="0.1" d="M245.016 113.151H237.398V120.781H245.016V113.151Z" fill="#007DCF"/>
<path opacity="0.1" d="M215.934 131.968H208.316V139.598H215.934V131.968Z" fill="#007DCF"/>
<path opacity="0.1" d="M245.016 131.968H237.398V139.598H245.016V131.968Z" fill="#007DCF"/>
<path opacity="0.1" d="M215.934 150.789H208.316V158.419H215.934V150.789Z" fill="#007DCF"/>
<path opacity="0.1" d="M245.016 150.789H237.398V158.419H245.016V150.789Z" fill="#007DCF"/>
<path opacity="0.1" d="M215.934 169.609H208.316V177.239H215.934V169.609Z" fill="#007DCF"/>
<path opacity="0.1" d="M245.016 169.609H237.398V177.239H245.016V169.609Z" fill="#007DCF"/>
<path opacity="0.1" d="M208.316 193.347V188.427H215.932V192.647L208.316 193.347Z" fill="#007DCF"/>
<path opacity="0.1" d="M5.32129 80.0491V84.4141H31.3925V80.0491H5.32129ZM7.91957 84.1405H5.79273V80.3174H7.93564L7.91957 84.1405ZM10.5152 84.1405H8.37226V80.3174H10.5152V84.1405ZM13.1054 84.1405H10.9625V80.3174H13.1054V84.1405ZM15.701 84.1405H13.5608V80.3174H15.7037L15.701 84.1405ZM18.2939 84.1405H16.151V80.3174H18.2939V84.1405ZM20.8895 84.1405H18.7466V80.3174H20.8895V84.1405ZM23.4851 84.1405H21.3422V80.3174H23.4851V84.1405ZM26.078 84.1405H23.9351V80.3174H26.078V84.1405ZM28.671 84.1405H26.5281V80.3174H28.671V84.1405ZM31.2639 84.1405H29.121V80.3174H31.2639V84.1405Z" fill="#007DCF"/>
<path opacity="0.1" d="M5.32129 92.75V97.1151H31.3925V92.75H5.32129ZM7.91957 96.8387H5.79273V93.0263H7.93564L7.91957 96.8387ZM10.5152 96.8387H8.37226V93.0263H10.5152V96.8387ZM13.1054 96.8387H10.9625V93.0263H13.1054V96.8387ZM15.701 96.8387H13.5608V93.0263H15.7037L15.701 96.8387ZM18.2939 96.8387H16.151V93.0263H18.2939V96.8387ZM20.8895 96.8387H18.7466V93.0263H20.8895V96.8387ZM23.4851 96.8387H21.3422V93.0263H23.4851V96.8387ZM26.078 96.8387H23.9351V93.0263H26.078V96.8387ZM28.671 96.8387H26.5281V93.0263H28.671V96.8387ZM31.2639 96.8387H29.121V93.0263H31.2639V96.8387Z" fill="#007DCF"/>
<path opacity="0.1" d="M5.32129 105.456V109.829H31.3925V105.456H5.32129ZM7.91957 109.545H5.79273V105.73H7.93564L7.91957 109.545ZM10.5152 109.545H8.37226V105.73H10.5152V109.545ZM13.1054 109.545H10.9625V105.73H13.1054V109.545ZM15.701 109.545H13.5608V105.73H15.7037L15.701 109.545ZM18.2939 109.545H16.151V105.73H18.2939V109.545ZM20.8895 109.545H18.7466V105.73H20.8895V109.545ZM23.4851 109.545H21.3422V105.73H23.4851V109.545ZM26.078 109.545H23.9351V105.73H26.078V109.545ZM28.671 109.545H26.5281V105.73H28.671V109.545ZM31.2639 109.545H29.121V105.73H31.2639V109.545Z" fill="#007DCF"/>
<path opacity="0.1" d="M5.32129 118.162V122.522H31.3925V118.162H5.32129ZM7.91957 122.251H5.79273V118.433H7.93564L7.91957 122.251ZM10.5152 122.251H8.37226V118.433H10.5152V122.251ZM13.1054 122.251H10.9625V118.433H13.1054V122.251ZM15.701 122.251H13.5608V118.433H15.7037L15.701 122.251ZM18.2939 122.251H16.151V118.433H18.2939V122.251ZM20.8895 122.251H18.7466V118.433H20.8895V122.251ZM23.4851 122.251H21.3422V118.433H23.4851V122.251ZM26.078 122.251H23.9351V118.433H26.078V122.251ZM28.671 122.251H26.5281V118.433H28.671V122.251ZM31.2639 122.251H29.121V118.433H31.2639V122.251Z" fill="#007DCF"/>
<path opacity="0.1" d="M5.43359 130.866C5.53806 131.276 5.65592 131.687 5.77914 132.092V131.139H7.92204V134.954H6.77559C6.81041 135.043 6.84523 135.14 6.88006 135.223H31.3923V130.866H5.43359ZM10.523 134.954H8.38009V131.139H10.523V134.954ZM13.1132 134.954H10.9703V131.139H13.1132V134.954ZM15.7088 134.954H13.5606V131.139H15.7035L15.7088 134.954ZM18.3018 134.954H16.1589V131.139H18.3018V134.954ZM20.8974 134.954H18.7544V131.139H20.8974V134.954ZM23.493 134.954H21.35V131.139H23.493V134.954ZM26.0859 134.954H23.943V131.139H26.0859V134.954ZM28.6788 134.954H26.5359V131.139H28.6788V134.954ZM31.2717 134.954H29.1288V131.139H31.2717V134.954Z" fill="#007DCF"/>
<path opacity="0.1" d="M11.4873 143.572C11.5543 143.658 11.6186 143.754 11.6882 143.84H13.1052V145.672C13.2579 145.855 13.4079 146.037 13.5632 146.209V143.829H15.7062V147.658H14.8383C14.924 147.746 15.007 147.84 15.1061 147.926H31.4003V143.572H11.4873ZM18.2937 147.658H16.1508V143.845H18.2937V147.658ZM20.8893 147.658H18.7464V143.845H20.8893V147.658ZM23.4849 147.658H21.342V143.845H23.4849V147.658ZM26.0778 147.658H23.9349V143.845H26.0778V147.658ZM28.6708 147.658H26.5278V143.845H28.6708V147.658ZM31.2637 147.658H29.1208V143.845H31.2637V147.658Z" fill="#007DCF"/>
<path opacity="0.1" d="M25.7891 156.275C26.0328 156.415 26.2819 156.543 26.5337 156.683V156.549H28.6766V157.756L29.132 157.968V156.549H31.2749V158.869C31.316 158.89 31.3591 158.906 31.4035 158.918V156.275H25.7891Z" fill="#007DCF"/>
<path opacity="0.1" d="M168.882 128.481C168.933 128.652 168.976 128.824 169.024 128.993C168.981 128.824 168.936 128.652 168.882 128.481ZM40.8086 49.4053V50.5509H52.7741V49.4053H40.8086ZM168.882 128.481C168.933 128.652 168.976 128.824 169.024 128.993C168.981 128.824 168.936 128.652 168.882 128.481ZM168.882 128.481C168.933 128.652 168.976 128.824 169.024 128.993C168.981 128.824 168.936 128.652 168.882 128.481Z" fill="#007DCF"/>
<path d="M124.146 101.861C124.146 101.861 123.091 101.714 123.091 100.174C123.091 98.6336 122.335 95.7575 122.335 95.7575C122.335 95.7441 121.682 90.7486 120.779 89.9545C119.876 89.1603 118.717 84.4975 118.717 84.4975C118.717 84.4975 118.518 81.9675 118.114 81.4229C117.709 80.8783 117.163 79.5449 116.357 77.6427C115.55 75.7405 112.189 74.4232 112.189 74.4232C112.189 74.4232 106.111 70.8926 104.388 69.7416C104.232 69.647 104.086 69.5365 103.952 69.4116C103.652 69.0172 102.345 69.0092 102.345 69.0092C102.208 68.1453 102.077 67.1526 102.034 66.2539C102.034 66.1573 102.034 66.0607 102.021 65.9641C103.941 64.8271 105.388 63.0343 106.095 60.9149C106.127 60.813 106.154 60.7057 106.183 60.6037C106.298 60.5657 106.404 60.5041 106.494 60.4228C106.584 60.3415 106.656 60.2423 106.706 60.1315C106.861 59.7854 106.864 59.3803 107.056 59.0584C107.281 58.6774 107.71 58.4735 108.048 58.1864C108.899 57.4621 109.119 56.2413 109.079 55.1306C109.052 54.2319 108.907 53.3251 108.964 52.4317L108.98 52.2063C108.996 52.0721 109.014 51.938 109.039 51.8092C109.17 51.1439 109.456 50.5161 109.617 49.8561C109.778 49.1961 109.794 48.4529 109.419 47.8842C108.87 47.0498 107.726 46.8834 106.722 46.7976C105.583 46.701 104.565 46.8271 103.837 45.8801C103.496 45.3851 103.112 44.9209 102.69 44.493C102.54 44.3535 101.083 43.4628 101.083 43.4038C99.6608 42.744 98.0488 42.6202 96.5428 43.055C95.7874 43.275 95.0749 43.6345 94.3088 43.8142C92.6561 44.2059 90.7542 43.782 89.3506 44.7291C88.5685 45.2657 88.0997 46.1188 87.6604 46.9505C87.3033 47.6356 86.9407 48.3197 86.5729 49.0029C85.9809 50.1271 85.3782 51.27 85.1291 52.5148C85.0767 52.7857 85.0445 53.0601 85.0327 53.3358V53.3492C85.0327 53.4485 85.0327 53.5477 85.0327 53.647V53.7731C85.0327 53.867 85.0327 53.9582 85.0487 54.0414C85.0648 54.1246 85.0621 54.1514 85.0702 54.2077C85.0782 54.2641 85.0916 54.3902 85.1077 54.476C85.1237 54.5619 85.1559 54.7121 85.188 54.8301C85.2014 54.8811 85.2202 54.9294 85.2362 54.9777C85.263 55.0689 85.2952 55.1575 85.33 55.246C85.3487 55.2916 85.3675 55.3399 85.3889 55.3855C85.4291 55.4794 85.4773 55.5706 85.5255 55.6538C85.547 55.6914 85.563 55.7262 85.5845 55.7611C85.6592 55.8859 85.7415 56.0059 85.8309 56.1206C86.4041 56.8369 87.2479 57.293 87.872 57.9638C87.872 57.9906 87.872 58.0174 87.872 58.0416C87.872 58.1167 87.872 58.1891 87.872 58.2642C87.9051 59.7601 88.3026 61.2252 89.03 62.5321C89.7573 63.839 90.7924 64.9481 92.0453 65.7629C92.0453 65.8648 92.0587 65.9695 92.0641 66.0714C92.1163 66.8678 92.1065 67.667 92.0346 68.4619C91.9255 68.3332 91.789 68.2307 91.6351 68.162C91.4811 68.0933 91.3138 68.0601 91.1453 68.0648C91.0302 68.0592 90.9149 68.0691 90.8024 68.0943L90.7783 68.0755V68.0997C90.189 68.2446 89.4631 68.8589 88.7694 70.6055C88.7694 70.6055 86.6586 72.9879 85.0514 72.8886C83.4442 72.7894 79.3754 75.3676 79.3754 75.3676C79.3754 75.3676 75.4056 77.9486 74.5538 80.5778C74.0777 82.0687 73.5069 83.5276 72.8449 84.9455L67.9376 95.0734L67.0322 103.109C67.0322 103.109 67.5331 106.682 67.434 107.227C67.3349 107.771 69.4939 112.684 69.4939 112.684C69.4939 112.684 76.6271 125.237 79.5415 125.881L79.7504 125.733C79.8751 125.799 80.0073 125.848 80.1442 125.881L80.7442 125.457C80.7802 125.929 80.7649 126.404 80.6986 126.874C80.2968 128.113 80.8486 136.202 81.5504 137.788C82.2522 139.373 82.0031 160.163 82.0031 160.163L81.904 161.998C81.904 161.998 81.904 162.057 81.9281 162.159L81.904 162.594L81.9763 162.631C82.0514 163.213 82.027 163.804 81.904 164.378C81.6522 165.182 81.5504 167.458 81.5504 167.458C81.5504 167.458 79.5441 180.303 80.4951 182.884C81.446 185.465 82.2549 188.293 82.2549 188.293C82.2549 188.293 83.2594 191.512 82.3031 192.062C81.3469 192.612 78.628 193.535 79.1879 194.877C79.6968 196.116 81.6281 199.438 81.9147 199.923L81.8906 200.178L81.4969 204.452C81.5606 205.016 81.7134 205.567 81.9496 206.083C82.3808 207.014 83.2192 207.98 84.813 207.875C85.0809 207.856 85.3916 207.824 85.6916 207.784C88.6086 207.392 92.2007 206.088 92.2007 206.088C92.0142 205.97 91.8432 205.828 91.6917 205.667C91.5484 205.528 91.4348 205.361 91.3579 205.177C91.281 204.992 91.2424 204.794 91.2444 204.594C91.2873 203.816 89.8328 200.108 89.4712 199.196C89.4149 199.065 89.3854 198.99 89.3854 198.99C89.3854 198.99 92.7016 195.518 92.1498 192.441C92.1498 192.441 88.4801 190.294 89.6881 189.117C90.8962 187.939 93.0552 184.556 93.0552 184.556C93.0552 184.556 93.1543 171.906 93.0552 170.017C92.9518 168.706 93.0139 167.387 93.24 166.092C93.2802 165.896 93.3284 165.706 93.3793 165.518C95.05 165.768 96.7366 165.896 98.4258 165.902C99.0419 165.902 99.6687 165.902 100.301 165.864C100.301 166.043 100.309 166.236 100.325 166.443C100.464 169.577 100.724 175.072 100.936 177.113C101.236 180.04 102.894 187.928 102.894 187.928C102.894 187.928 99.7303 189.962 103.446 194.973C103.446 194.973 103.446 196.79 103.199 197.052C102.936 197.912 102.724 198.786 102.564 199.671C102.409 200.615 102.345 201.57 102.596 202.067C103.199 203.253 106.815 203.156 106.815 203.156L106.904 203.14C107.586 203.069 108.276 203.135 108.933 203.334C109.59 203.532 110.202 203.859 110.731 204.296C112.106 205.402 117.321 204.916 120.144 204.565C121.25 204.425 121.99 204.296 121.99 204.296C122.026 204.171 122.038 204.04 122.027 203.91C121.998 203.215 121.454 201.691 117.768 200.331C117.768 200.331 114.302 197.997 114.35 195.963H114.278H113.876C114.168 195.947 114.356 195.963 114.356 195.963C114.356 195.963 112.998 191 113.552 190.597C114.107 190.195 112.446 184.695 112.446 184.695C112.446 184.695 111.495 175.466 111.444 174.819C111.446 174.265 111.53 173.713 111.693 173.183L111.444 168.123C111.444 168.123 111.396 166.441 111.444 165.893C111.436 165.418 111.397 164.944 111.329 164.474C111.305 164.286 111.281 164.091 111.254 163.897C112.553 163.567 113.397 163.262 113.397 163.262L113.247 145.648C114.35 143.502 114.554 138.794 114.549 135.453C114.549 133.307 114.452 131.719 114.452 131.719L115.96 129.253C115.96 129.253 116.308 126.302 115.757 125.656C115.513 125.363 115.623 125.06 115.824 124.81C115.928 124.728 116.038 124.652 116.153 124.585C116.153 124.585 116.137 124.561 116.118 124.526C116.224 124.438 116.335 124.358 116.453 124.287C116.453 124.287 115.917 123.456 116.397 123.104C116.847 123.41 117.249 123.641 117.554 123.829C117.533 124.024 117.511 124.137 117.511 124.137L117.64 123.869C117.934 124.035 118.114 124.137 118.114 124.137C118.114 124.137 120.476 119.423 120.425 118.728C120.375 118.034 122.033 115.106 122.033 115.106C122.033 115.106 122.234 113.569 123.139 112.925C124.044 112.281 123.841 107.616 123.841 107.616C123.841 107.616 124.093 105.185 124.695 104.193C125.298 103.2 124.146 101.861 124.146 101.861ZM78.9414 99.7926L78.987 100.917C78.7191 100.485 78.5263 100.174 78.5263 100.174L78.9414 99.7926Z" fill="url(#paint0_linear_6945_17864)"/>
<path d="M118.242 122.101L117.664 124.569C117.664 124.569 113.03 122.2 112.194 119.19C111.358 116.18 113.592 115.037 113.592 115.037L117.91 116.869L118.242 122.101Z" fill="white"/>
<path opacity="0.1" d="M118.242 122.101L117.664 124.569C117.664 124.569 113.03 122.2 112.194 119.19C111.358 116.18 113.592 115.037 113.592 115.037L117.91 116.869L118.242 122.101Z" fill="black"/>
<path d="M92.2352 206.105C92.2352 206.105 87.9493 207.682 85.0028 207.881C83.4385 207.985 82.6162 207.025 82.1929 206.099C81.9617 205.585 81.8126 205.037 81.751 204.476L82.134 200.224L82.3376 197.959L88.5976 196.331L89.4842 199.046L89.5672 199.252C89.9235 200.159 91.3512 203.848 91.3083 204.618C91.3066 204.815 91.3446 205.011 91.4201 205.193C91.4956 205.375 91.607 205.54 91.7476 205.678C91.8914 205.84 92.0552 205.984 92.2352 206.105Z" fill="white"/>
<path d="M121.51 203.942C121.52 204.071 121.508 204.201 121.472 204.326C121.472 204.326 112.306 205.858 110.431 204.326C109.902 203.878 109.286 203.546 108.622 203.351C107.958 203.156 107.26 203.103 106.574 203.194C106.574 203.194 103.027 203.29 102.435 202.12C102.189 201.629 102.253 200.677 102.406 199.738C102.561 198.858 102.769 197.988 103.027 197.133L103.169 197.02L104.013 196.342L113.892 196.049H113.967C113.919 198.072 117.32 200.393 117.32 200.393C120.934 201.734 121.467 203.25 121.51 203.942Z" fill="white"/>
<path opacity="0.1" d="M121.51 203.942C121.52 204.071 121.506 204.201 121.47 204.326C121.47 204.326 112.307 205.858 110.431 204.326C109.903 203.879 109.287 203.547 108.624 203.352C107.96 203.157 107.263 203.103 106.577 203.194C106.577 203.194 103.028 203.29 102.438 202.12C102.192 201.627 102.254 200.677 102.406 199.738C103.772 199.875 105.929 200.216 106.775 201.029C108.056 202.265 110.225 203.499 111.556 203.596C112.598 203.663 118.832 203.862 121.51 203.942Z" fill="black"/>
<path opacity="0.1" d="M92.2348 206.105C92.2348 206.105 87.949 207.682 85.0025 207.881C83.4382 207.985 82.6159 207.025 82.1953 206.097C83.2855 206.464 84.7989 206.85 85.5945 206.496C86.5374 206.078 89.8803 205.807 91.7554 205.691C91.8981 205.848 92.0591 205.987 92.2348 206.105Z" fill="black"/>
<path d="M98.5947 78.976C95.0589 77.5996 90.5106 73.0522 91.6463 70.9273C91.8985 70.3911 92.0484 69.8124 92.0883 69.221C92.1613 68.4182 92.1721 67.6109 92.1204 66.8064C92.0408 65.4889 91.8825 64.1773 91.6463 62.8787C91.6463 62.8787 102.685 63.1282 102.042 64.7567C101.855 65.2342 101.825 66.0632 101.876 66.9915C101.927 67.9198 102.061 68.9688 102.2 69.8568C102.393 71.0749 102.586 72.0032 102.586 72.0032C102.586 72.0032 101.911 72.9502 101.514 73.0012C101.118 73.0522 103.668 80.9372 98.5947 78.976Z" fill="#CF6F80"/>
<path opacity="0.1" d="M89.5592 199.252L89.4762 199.344C86.1761 195.346 82.1849 200.328 82.1849 200.328L82.126 200.224L82.3296 197.959L88.5895 196.331L89.4762 199.046L89.5592 199.252Z" fill="black"/>
<path opacity="0.1" d="M113.969 196.331C113.969 196.331 111.559 196.28 110.273 197.417C108.987 198.555 102.773 197.664 103.041 197.417C103.12 197.295 103.168 197.155 103.18 197.01L104.024 196.331L113.903 196.038C113.94 196.218 113.969 196.331 113.969 196.331Z" fill="black"/>
<path d="M93.6654 164.938C93.4859 165.383 93.3495 165.844 93.2583 166.315C93.0349 167.604 92.9728 168.916 93.0734 170.221C93.1725 172.099 93.0734 184.684 93.0734 184.684C93.0734 184.684 90.9546 188.041 89.7734 189.224C88.5921 190.407 92.1841 192.532 92.1841 192.532C92.7199 195.59 89.4733 199.046 89.4733 199.046C86.1733 195.048 82.1821 200.033 82.1821 200.033C82.1821 200.033 80.0124 196.277 79.4713 194.936C78.9302 193.594 81.5901 192.666 82.525 192.121C83.4598 191.577 82.4794 188.365 82.4794 188.365C82.4794 188.365 81.6892 185.551 80.7517 182.983C79.8142 180.416 81.7857 167.635 81.7857 167.635C81.7857 167.635 81.8874 165.365 82.1312 164.573C82.2542 164.002 82.2787 163.414 82.2035 162.835C82.1875 162.639 82.1687 162.475 82.1553 162.365C82.1419 162.255 82.1312 162.204 82.1312 162.204L82.1687 162.14L83.508 159.64C83.508 159.64 94.3083 163.363 93.6654 164.938Z" fill="#007DCF"/>
<path d="M113.97 196.036C113.97 196.036 111.559 195.985 110.274 197.109C108.988 198.233 102.773 197.356 103.041 197.109C103.309 196.862 103.288 195.035 103.288 195.035C99.6422 190.05 102.752 188.027 102.752 188.027C102.752 188.027 101.123 180.18 100.829 177.269C100.623 175.235 100.368 169.77 100.231 166.65C100.173 165.308 100.138 164.386 100.138 164.386L103.116 163.785L103.499 163.707L110.683 162.263C110.683 162.263 110.882 163.605 111.016 164.702C111.082 165.171 111.12 165.643 111.128 166.116C111.08 166.653 111.128 168.332 111.128 168.332L111.372 173.368C111.213 173.896 111.131 174.445 111.128 174.996C111.176 175.638 112.111 184.818 112.111 184.818C112.111 184.818 113.737 190.297 113.183 190.691C112.628 191.086 113.97 196.036 113.97 196.036Z" fill="#007DCF"/>
<path opacity="0.1" d="M102.041 64.7567C101.854 65.2342 101.824 66.0632 101.875 66.9915C100.397 67.8833 98.6969 68.3393 96.9712 68.307C95.2455 68.2747 93.5639 67.7555 92.1196 66.8091C92.0401 65.4906 91.8818 64.1781 91.6455 62.8787C91.6455 62.8787 102.684 63.1228 102.041 64.7567Z" fill="black"/>
<path d="M106.309 58.8275C106.311 59.7943 106.159 60.7552 105.859 61.674C105.188 63.7328 103.812 65.4876 101.974 66.6284C100.136 67.7692 97.9544 68.2225 95.815 67.9082C93.6757 67.5939 91.7161 66.5322 90.2827 64.9108C88.8493 63.2893 88.0343 61.2126 87.9818 59.0475C87.9818 58.9724 87.9818 58.9026 87.9818 58.8275C87.961 57.6088 88.1827 56.3982 88.6339 55.2663C89.0852 54.1343 89.757 53.1037 90.6101 52.2345C91.4632 51.3653 92.4805 50.6749 93.6028 50.2037C94.7251 49.7324 95.9298 49.4897 97.1468 49.4897C98.3637 49.4897 99.5684 49.7324 100.691 50.2037C101.813 50.6749 102.83 51.3653 103.683 52.2345C104.537 53.1037 105.208 54.1343 105.66 55.2663C106.111 56.3982 106.333 57.6088 106.312 58.8275H106.309Z" fill="#CF6F80"/>
<path opacity="0.1" d="M98.5947 78.9762C95.0589 77.5998 90.5106 73.0523 91.6463 70.9275C91.8985 70.3913 92.0484 69.8126 92.0883 69.2212L96.9286 73.2053L99.9233 75.6655L102.2 69.8597C102.393 71.0777 102.586 72.006 102.586 72.006C102.586 72.006 101.911 72.9531 101.514 73.0041C101.118 73.055 103.668 80.9373 98.5947 78.9762Z" fill="black"/>
<path d="M111.111 96.5837L107.069 164.595L101.798 164.941L88.1475 125.505L90.3868 78.6862L90.8582 68.7944L96.928 73.7873L99.9254 76.2475L102.269 70.2727L106.627 74.077L111.111 96.5837Z" fill="#007DCF"/>
<path opacity="0.1" d="M93.6653 164.938C93.4858 165.383 93.3494 165.844 93.2582 166.315C89.4223 165.722 85.6969 164.556 82.2061 162.856L82.1338 162.819L82.1579 162.387L82.1713 162.162L83.5106 159.661C83.5106 159.661 94.3082 163.364 93.6653 164.938Z" fill="black"/>
<path opacity="0.1" d="M103.177 166.325C102.197 166.492 101.208 166.605 100.215 166.663C100.156 165.322 100.121 164.399 100.121 164.399L103.1 163.798L103.177 166.325Z" fill="black"/>
<path opacity="0.1" d="M110.999 164.716C109.094 165.212 106.153 165.77 103.52 165.421L103.482 163.72L110.667 162.277C110.667 162.277 110.865 163.605 110.999 164.716Z" fill="black"/>
<path opacity="0.1" d="M103.472 165.732C92.49 167.61 82.4317 162.226 82.4317 162.226L82.5281 160.401C82.5281 160.401 82.7773 139.719 82.0862 138.134C81.3951 136.548 80.8567 128.507 81.2478 127.273C81.6388 126.039 79.82 107.533 79.82 107.533L79.5254 100.02L68.7412 95.6447L73.5628 85.5785C74.214 84.1672 74.7741 82.7154 75.2396 81.2322C76.078 78.6191 79.9701 76.0516 79.9701 76.0516C79.9701 76.0516 83.9612 73.4868 85.5389 73.5833C87.1166 73.6799 89.1846 71.3136 89.1846 71.3136C90.7114 67.4154 92.0936 69.1807 92.0936 69.1807C92.0936 69.3658 92.0936 69.1807 92.0186 69.7576C91.4828 74.0367 100.681 87.5585 100.813 87.7973L101.688 109.169L102.575 136.215L103.472 165.732Z" fill="black"/>
<path d="M103.178 165.732C92.1953 167.61 82.1343 162.226 82.1343 162.226L82.2335 160.401C82.2335 160.401 82.4826 139.719 81.7888 138.133C81.095 136.548 80.5593 128.507 80.9531 127.273C81.3468 126.039 79.5254 107.533 79.5254 107.533L79.228 100.02L68.4385 95.6286L73.26 85.5624C73.9098 84.1505 74.4699 82.6988 74.9368 81.2161C75.7726 78.603 79.6673 76.0355 79.6673 76.0355C79.6673 76.0355 83.6585 73.4706 85.2335 73.5672C86.8086 73.6638 88.8791 71.2975 88.8791 71.2975C90.4086 67.3993 92.0935 69.1646 92.0935 69.1646C92.0935 69.3497 91.9328 69.4329 92.0185 69.7414C93.1971 73.8918 100.387 87.5424 100.518 87.7811L101.404 109.153L102.291 136.199L103.178 165.732Z" fill="white"/>
<path opacity="0.1" d="M100.218 88.3903C99.0365 87.8967 92.7792 80.7414 92.7792 80.7414V79.1129C92.5515 78.5763 91.1988 78.9036 90.1006 79.2792L90.572 69.3875L91.1078 69.8328C92.281 73.9805 100.081 88.1515 100.218 88.3903Z" fill="black"/>
<path d="M100.515 87.7973C99.3314 87.3036 93.0741 80.1484 93.0741 80.1484V78.5199C92.8465 77.9833 91.4937 78.3106 90.3955 78.6862L90.8696 68.7944L91.4054 69.2398C92.5813 73.3875 100.384 87.5612 100.515 87.7973Z" fill="white"/>
<path opacity="0.1" d="M82.4318 123.482C82.5791 123.482 90.0686 122.694 90.0686 122.694C90.0686 122.694 94.6035 131.625 94.3062 133.798C94.0089 135.971 93.4705 137.895 91.6463 137.554C89.8222 137.213 81.8291 137.822 81.8291 137.822L82.4318 123.482Z" fill="black"/>
<path d="M82.1339 122.889C82.2813 122.889 89.7707 122.101 89.7707 122.101C89.7707 122.101 94.303 131.035 94.0083 133.205C93.7137 135.376 93.1699 137.302 91.3485 136.961C89.527 136.62 81.5312 137.229 81.5312 137.229L82.1339 122.889Z" fill="white"/>
<path d="M87.7783 118.696C87.7783 118.696 94.6516 122.396 94.7989 123.525C94.9463 124.655 91.3007 123.032 90.5131 122.836C89.9948 122.711 89.4672 122.628 88.9354 122.589L83.6826 122.731L87.7783 118.696Z" fill="#CF6F80"/>
<path opacity="0.1" d="M98.2994 88.8518C98.6988 88.8518 99.0226 88.5275 99.0226 88.1275C99.0226 87.7274 98.6988 87.4031 98.2994 87.4031C97.9 87.4031 97.5762 87.7274 97.5762 88.1275C97.5762 88.5275 97.9 88.8518 98.2994 88.8518Z" fill="black"/>
<path d="M98.2994 88.5567C98.6988 88.5567 99.0226 88.2324 99.0226 87.8323C99.0226 87.4322 98.6988 87.1079 98.2994 87.1079C97.9 87.1079 97.5762 87.4322 97.5762 87.8323C97.5762 88.2324 97.9 88.5567 98.2994 88.5567Z" fill="#3F3D56"/>
<path opacity="0.1" d="M99.6314 120.209C100.031 120.209 100.355 119.885 100.355 119.485C100.355 119.085 100.031 118.76 99.6314 118.76C99.232 118.76 98.9082 119.085 98.9082 119.485C98.9082 119.885 99.232 120.209 99.6314 120.209Z" fill="black"/>
<path d="M99.6314 119.911C100.031 119.911 100.355 119.587 100.355 119.187C100.355 118.787 100.031 118.463 99.6314 118.463C99.232 118.463 98.9082 118.787 98.9082 119.187C98.9082 119.587 99.232 119.911 99.6314 119.911Z" fill="#3F3D56"/>
<path opacity="0.1" d="M99.0201 104.531C99.4195 104.531 99.7433 104.206 99.7433 103.806C99.7433 103.406 99.4195 103.082 99.0201 103.082C98.6207 103.082 98.2969 103.406 98.2969 103.806C98.2969 104.206 98.6207 104.531 99.0201 104.531Z" fill="black"/>
<path d="M99.0201 104.235C99.4195 104.235 99.7433 103.911 99.7433 103.511C99.7433 103.111 99.4195 102.787 99.0201 102.787C98.6207 102.787 98.2969 103.111 98.2969 103.511C98.2969 103.911 98.6207 104.235 99.0201 104.235Z" fill="#3F3D56"/>
<path d="M115.692 122.439C115.692 122.439 116.185 123.179 115.692 123.525C115.199 123.871 115.74 124.708 115.74 124.708C115.74 124.708 114.511 125.43 115.052 126.079C115.593 126.729 115.25 129.661 115.25 129.661L113.772 132.113C113.772 132.113 113.86 133.693 113.865 135.829C113.865 139.161 113.67 143.845 112.588 145.981L112.738 163.503C112.738 163.503 107.56 165.397 103.226 164.82L102.583 136.704C102.583 136.704 103.521 120.759 103.866 117.701C104.068 116.113 104.151 114.512 104.112 112.912C104.112 112.912 103.965 108.125 103.47 105.904C103.47 105.904 102.934 96.2805 102.88 93.6164C102.856 92.3421 102.923 88.6236 102.998 85.0875C103.081 81.2215 103.175 77.5755 103.175 77.5755L102.197 69.8273C102.197 69.8273 103.175 69.728 103.47 70.1224C103.602 70.2459 103.745 70.3564 103.898 70.4524C105.586 71.5953 111.548 75.1099 111.548 75.1099C111.548 75.1099 114.848 76.4245 115.639 78.3079C116.429 80.1913 116.978 81.5273 117.361 82.0639C117.744 82.6005 117.953 85.1224 117.953 85.1224C117.953 85.1224 119.089 89.7638 119.975 90.5499C120.862 91.336 121.51 96.3369 121.51 96.3369L113.675 102.507C113.675 102.507 112.987 112.772 112.839 113.169C112.692 113.566 115.692 122.439 115.692 122.439Z" fill="white"/>
<path d="M115.99 122.439C115.99 122.439 116.48 123.179 115.99 123.525C115.5 123.871 116.035 124.708 116.035 124.708C116.035 124.708 114.814 125.438 115.35 126.087C115.885 126.737 115.548 129.669 115.548 129.669L114.069 132.121C114.069 132.121 114.158 133.701 114.166 135.837C114.166 139.169 113.97 143.853 112.888 145.989L113.035 163.511C113.035 163.511 107.849 165.405 103.521 164.828L102.881 136.712C102.881 136.712 103.818 120.767 104.164 117.709C104.366 116.121 104.448 114.52 104.407 112.92C104.407 112.92 104.26 108.133 103.767 105.912C103.767 105.912 103.231 96.2886 103.175 93.6245C103.151 92.3501 103.221 88.6316 103.293 85.0956C103.376 81.2295 103.47 77.5835 103.47 77.5835L102.179 69.7307C102.179 69.7307 103.47 69.7307 103.767 70.1305C103.898 70.2554 104.042 70.366 104.196 70.4605C105.883 71.6034 111.849 75.1179 111.849 75.1179C111.849 75.1179 115.146 76.4326 115.936 78.3159C116.726 80.1993 117.276 81.5354 117.661 82.072C118.047 82.6086 118.251 85.1305 118.251 85.1305C118.251 85.1305 119.386 89.7719 120.273 90.5579C121.16 91.344 121.8 96.3342 121.8 96.3342L113.965 102.505C113.965 102.505 113.276 112.77 113.126 113.167C112.976 113.564 115.99 122.439 115.99 122.439Z" fill="white"/>
<path opacity="0.1" d="M106.606 79.8614L107.313 81.9272L103.59 85.6832C103.673 81.8199 103.767 78.1712 103.767 78.1712L102.476 70.3184C102.476 70.3184 103.767 70.3184 104.064 70.7181C104.194 70.8427 104.338 70.9525 104.493 71.0454L107.659 80.1941L106.606 79.8614Z" fill="black"/>
<path d="M106.309 79.2684L107.019 81.3342L103.296 85.0902C103.379 81.2242 103.472 77.5781 103.472 77.5781L102.179 69.7253C102.179 69.7253 103.472 69.7253 103.767 70.1251C103.899 70.2493 104.042 70.3598 104.196 70.4551L107.365 79.601L106.309 79.2684Z" fill="white"/>
<path opacity="0.1" d="M106.309 58.8275C106.311 59.7943 106.159 60.7552 105.859 61.6741C105.808 61.682 105.757 61.6796 105.707 61.6672C105.657 61.6547 105.611 61.6324 105.57 61.6016C105.5 59.187 104.313 56.92 102.854 54.991C102.444 54.4086 101.947 53.8928 101.38 53.4617C100.808 53.0309 100.095 52.8291 99.3821 52.8957C98.5785 53.0057 97.8687 53.553 97.057 53.6227C95.9856 53.7113 95.0266 52.9681 93.9632 52.9305C93.5309 52.9346 93.1044 53.0311 92.7123 53.2133C92.3201 53.3956 91.9713 53.6596 91.689 53.9876C91.1304 54.6495 90.7153 55.4207 90.4703 56.2519C90.0491 57.5125 89.8197 58.8293 89.7899 60.1582C89.7765 60.9094 89.7042 61.8511 89.0077 62.1248C89.0602 61.5723 88.9975 61.015 88.8236 60.488C88.6498 59.9611 88.3686 59.476 87.9979 59.0636L87.9818 59.0475C87.9818 58.9724 87.9818 58.9026 87.9818 58.8275C87.961 57.6088 88.1827 56.3982 88.6339 55.2663C89.0852 54.1343 89.757 53.1037 90.6101 52.2345C91.4632 51.3653 92.4805 50.6749 93.6028 50.2037C94.7251 49.7324 95.9298 49.4897 97.1468 49.4897C98.3637 49.4897 99.5684 49.7324 100.691 50.2037C101.813 50.6749 102.83 51.3653 103.683 52.2345C104.537 53.1037 105.208 54.1343 105.66 55.2663C106.111 56.3982 106.333 57.6088 106.312 58.8275H106.309Z" fill="black"/>
<path d="M100.94 44.2516C99.5485 43.5958 97.9654 43.4718 96.4886 43.9028C95.7466 44.1228 95.0474 44.4796 94.2948 44.6594C92.6876 45.0484 90.8125 44.6272 89.433 45.5689C88.6669 46.1055 88.2062 46.9533 87.7776 47.7769L86.7062 49.8213C86.1222 50.94 85.5329 52.0776 85.2892 53.309C85.0454 54.5405 85.1927 55.9195 85.9722 56.9094C86.5401 57.6311 87.3785 58.0845 87.9946 58.7633C88.3637 59.1762 88.6437 59.6609 88.817 60.1872C88.9903 60.7135 89.0532 61.27 89.0018 61.8218C89.7009 61.5535 89.7679 60.6091 89.7839 59.8579C89.8138 58.529 90.0431 57.2122 90.4643 55.9516C90.7088 55.1201 91.1239 54.3489 91.6831 53.6873C91.9655 53.3595 92.3144 53.0958 92.7065 52.9135C93.0986 52.7313 93.525 52.6347 93.9572 52.6302C95.0287 52.6678 95.9903 53.4083 97.0511 53.3197C97.8547 53.2527 98.5672 52.7027 99.3761 52.5954C100.089 52.5278 100.802 52.7297 101.374 53.1615C101.941 53.5918 102.437 54.1077 102.845 54.6907C104.307 56.6197 105.494 58.8814 105.564 61.3013C105.866 61.524 106.303 61.2342 106.453 60.8908C106.603 60.5474 106.608 60.145 106.799 59.8177C107.018 59.4394 107.439 59.2382 107.768 58.9538C108.604 58.2321 108.813 57.0168 108.781 55.9141C108.749 54.8114 108.534 53.6927 108.743 52.6088C108.869 51.9434 109.153 51.321 109.309 50.6637C109.464 50.0064 109.483 49.2686 109.116 48.7025C108.58 47.8708 107.452 47.7072 106.469 47.6293C105.352 47.5328 104.353 47.6562 103.641 46.7145C103.306 46.2231 102.93 45.7617 102.515 45.3355C102.374 45.196 100.94 44.3106 100.94 44.2516Z" fill="#512E4E"/>
<path opacity="0.1" d="M71.8264 100.828L69.0273 95.6448L68.1406 103.642C68.1406 103.642 68.6335 107.195 68.5344 107.739C68.4353 108.284 70.5541 113.167 70.5541 113.167C70.5541 113.167 77.5534 125.653 80.4115 126.297L90.0679 119.386L87.5072 116.129C87.5072 116.129 86.6205 115.783 86.3982 116.129C86.3982 116.129 81.6436 107.935 81.1508 107.342C80.6579 106.749 80.7543 105.566 80.7543 105.566C80.7543 105.566 80.015 104.777 80.2615 104.037C80.5079 103.296 78.8337 100.729 78.8337 100.729L80.3606 99.2989L71.8264 100.828Z" fill="black"/>
<path d="M69.1748 95.0544L68.4355 95.6447L67.5488 103.642C67.5488 103.642 68.0417 107.194 67.9426 107.739C67.8435 108.284 69.965 113.167 69.965 113.167C69.965 113.167 76.9616 125.653 79.8197 126.297L89.4788 119.386L86.9154 116.128C86.9154 116.128 86.0287 115.782 85.8064 116.128C85.8064 116.128 81.0518 107.935 80.559 107.342C80.0661 106.749 80.1652 105.566 80.1652 105.566C80.1652 105.566 79.4259 104.777 79.6723 104.037C79.9188 103.296 78.2419 100.729 78.2419 100.729L79.7688 99.2988L69.1748 95.0544Z" fill="white"/>
<path opacity="0.1" d="M115.052 126.385C115.588 127.037 115.25 129.964 115.25 129.964L113.772 132.416C113.772 132.416 113.86 133.999 113.866 136.132L111.38 136.91C111.155 136.98 110.917 136.996 110.685 136.955C110.453 136.914 110.235 136.819 110.047 136.676C109.86 136.534 109.709 136.348 109.608 136.136C109.506 135.923 109.457 135.689 109.465 135.453L109.893 121.607L115.692 123.828C115.2 124.172 115.741 125.014 115.741 125.014C115.741 125.014 114.511 125.733 115.052 126.385Z" fill="black"/>
<path d="M115.349 126.088C115.885 126.739 115.547 129.669 115.547 129.669L114.068 132.121C114.068 132.121 114.157 133.702 114.165 135.837L111.634 136.629C111.414 136.697 111.18 136.712 110.953 136.672C110.727 136.632 110.512 136.538 110.329 136.399C110.146 136.259 109.998 136.077 109.899 135.869C109.8 135.661 109.752 135.432 109.758 135.201L110.19 121.312L115.992 123.533C115.496 123.877 116.037 124.717 116.037 124.717C116.037 124.717 114.813 125.438 115.349 126.088Z" fill="white"/>
<path d="M117.27 119.487C117.27 119.487 116.876 122.007 115.891 122.154C114.905 122.302 114.463 126.23 113.48 126.09C112.497 125.951 113.148 122.439 113.183 121.757C113.217 121.076 112.111 118.253 112.939 117.612C113.767 116.971 116.386 117.612 116.386 117.612L117.27 119.487Z" fill="#CF6F80"/>
<path opacity="0.1" d="M119.367 100.088L121.226 96.3315C121.226 96.3315 121.966 99.1942 121.966 100.723C121.966 102.253 122.999 102.403 122.999 102.403C122.999 102.403 124.133 103.744 123.535 104.721C122.938 105.697 122.697 108.128 122.697 108.128C122.697 108.128 122.892 112.767 122.006 113.408C121.119 114.049 120.934 115.581 120.934 115.581C120.934 115.581 119.306 118.492 119.357 119.184C119.407 119.877 117.09 124.564 117.09 124.564C117.09 124.564 118.223 118.739 111.621 116.222C111.621 116.222 111.57 114.245 112.063 113.703C112.555 113.161 113.324 112.914 112.842 110.175C112.36 107.436 112.703 104.163 112.703 103.506C112.703 102.848 114.181 98.7488 114.181 98.7488L119.367 100.088Z" fill="black"/>
<path d="M120.17 95.7949L121.794 96.3315C121.794 96.3315 122.536 99.1941 122.536 100.723C122.536 102.253 123.57 102.403 123.57 102.403C123.57 102.403 124.703 103.744 124.105 104.721C123.508 105.697 123.27 108.128 123.27 108.128C123.27 108.128 123.465 112.767 122.578 113.408C121.692 114.049 121.494 115.581 121.494 115.581C121.494 115.581 119.868 118.492 119.919 119.184C119.969 119.876 117.65 124.563 117.65 124.563C117.65 124.563 118.786 118.739 112.18 116.222C112.18 116.222 112.132 114.245 112.625 113.703C113.118 113.161 113.886 112.914 113.404 110.175C112.922 107.436 113.265 104.163 113.265 103.506C113.265 102.848 114.743 98.7488 114.743 98.7488L120.17 95.7949Z" fill="white"/>
<path opacity="0.1" d="M84.3174 193.149C84.3174 193.149 86.9049 191.52 88.6032 192.703C90.3015 193.887 84.3174 193.149 84.3174 193.149Z" fill="black"/>
<path opacity="0.1" d="M104.423 188.113C104.423 188.113 106.713 187.818 108.636 189.892C110.56 191.966 104.423 188.113 104.423 188.113Z" fill="black"/>
<g opacity="0.1">
<path d="M107.774 58.3663C107.444 58.6507 107.021 58.8546 106.802 59.2329C106.614 59.5575 106.609 59.9573 106.459 60.306C106.309 60.6548 105.872 60.9392 105.569 60.7192C105.5 58.3046 104.31 56.0376 102.851 54.1059C102.442 53.5229 101.946 53.007 101.38 52.5767C100.807 52.1449 100.093 51.9431 99.379 52.0106C98.5754 52.1206 97.8683 52.6679 97.0566 52.7349C95.9852 52.8262 95.0236 52.083 93.9601 52.0454C93.528 52.0497 93.1017 52.1465 92.71 52.3293C92.3182 52.5121 91.97 52.7766 91.6887 53.1052C91.1295 53.7658 90.7143 54.5361 90.4699 55.3669C90.0489 56.6274 89.8196 57.9442 89.7895 59.2731C89.7734 60.0217 89.7038 60.9553 89.0127 61.2343C89.0288 61.4325 89.0288 61.6317 89.0127 61.8299C89.7091 61.5616 89.7788 60.6172 89.7949 59.866C89.8247 58.5371 90.0541 57.2203 90.4752 55.9598C90.7197 55.1282 91.1348 54.357 91.694 53.6954C91.9759 53.3677 92.3243 53.104 92.716 52.9217C93.1077 52.7394 93.5336 52.6429 93.9655 52.6384C95.037 52.6759 96.0013 53.4164 97.062 53.3279C97.8656 53.2608 98.5781 52.7108 99.3844 52.6035C100.098 52.536 100.812 52.7379 101.385 53.1696C101.952 53.6 102.448 54.1159 102.856 54.6988C104.316 56.6278 105.505 58.8895 105.575 61.3094C105.877 61.5321 106.314 61.2424 106.464 60.899C106.614 60.5555 106.619 60.1531 106.807 59.8258C107.027 59.4475 107.45 59.2463 107.779 58.9619C108.615 58.2402 108.824 57.0249 108.792 55.9222C108.792 55.8873 108.792 55.8525 108.792 55.8203C108.741 56.7754 108.486 57.7492 107.774 58.3663Z" fill="black"/>
<path d="M88.0003 58.1757C87.3842 57.4969 86.5431 57.0435 85.9779 56.3245C85.502 55.688 85.2302 54.9218 85.1984 54.1272C85.1141 55.1201 85.391 56.1101 85.9779 56.9147C86.5431 57.6364 87.3842 58.0898 88.0003 58.7686C88.5918 59.4325 88.9469 60.2741 89.0101 61.1617C89.0511 60.6215 88.9828 60.0786 88.8093 59.5655C88.6358 59.0524 88.3606 58.5797 88.0003 58.1757Z" fill="black"/>
<path d="M109.314 50.0761C109.156 50.7334 108.875 51.3585 108.746 52.0212C108.67 52.464 108.642 52.9138 108.663 53.3627C108.672 53.107 108.7 52.8523 108.746 52.6007C108.875 51.9354 109.156 51.3129 109.314 50.6556C109.406 50.2931 109.436 49.9175 109.402 49.5449C109.386 49.7239 109.356 49.9014 109.314 50.0761Z" fill="black"/>
</g>
<path opacity="0.1" d="M36.0537 204.057C50.4687 204.057 62.1544 202.178 62.1544 199.859C62.1544 197.54 50.4687 195.66 36.0537 195.66C21.6388 195.66 9.95312 197.54 9.95312 199.859C9.95312 202.178 21.6388 204.057 36.0537 204.057Z" fill="#007DCF"/>
<path d="M36.8943 119.426H35.2148V157.3H36.8943V119.426Z" fill="#535461"/>
<path d="M47.4488 157.185L47.3443 158.891L47.1943 161.306L47.1327 162.309L46.9854 164.724L46.9211 165.727L46.7711 168.142L45.0782 195.526C45.0046 196.704 44.4855 197.81 43.6266 198.618C42.7677 199.427 41.6335 199.877 40.4548 199.877H31.6528C30.4745 199.877 29.3406 199.427 28.4821 198.618C27.6236 197.81 27.1051 196.704 27.0322 195.526L25.3473 168.123L25.1973 165.708L25.1357 164.705L24.9857 162.29L24.9241 161.287L24.7741 158.872L24.667 157.166C24.6483 156.838 24.6969 156.509 24.8097 156.2C24.9225 155.891 25.0971 155.608 25.3229 155.369C25.5486 155.13 25.8207 154.94 26.1225 154.81C26.4243 154.681 26.7493 154.614 27.0777 154.615H45.0808C45.408 154.617 45.7312 154.687 46.0303 154.82C46.3294 154.953 46.5982 155.146 46.8201 155.386C47.042 155.627 47.2123 155.911 47.3204 156.22C47.4285 156.53 47.4722 156.858 47.4488 157.185Z" fill="#3F3D56"/>
<path d="M47.3436 158.891L47.1936 161.298H24.9127L24.7627 158.891H47.3436Z" fill="#9D9CB5"/>
<path d="M47.1323 162.301L46.985 164.71H25.1246L24.9746 162.301H47.1323Z" fill="#9D9CB5"/>
<path d="M46.921 165.716L46.7737 168.123H25.3365L25.1865 165.716H46.921Z" fill="#9D9CB5"/>
<path d="M22.1997 133.621C31.9794 140.709 36.0617 151.795 36.0617 151.795C36.0617 151.795 24.2757 151.39 14.4933 144.302C4.71093 137.213 0.636719 126.13 0.636719 126.13C0.636719 126.13 12.4174 126.533 22.1997 133.621Z" fill="#007DCF"/>
<path d="M0.628906 126.13C0.628906 126.13 12.8649 132.931 16.7891 138.563C20.7133 144.194 36.0619 151.795 36.0619 151.795" stroke="#535461" stroke-width="2" stroke-miterlimit="10"/>
<path d="M28.5132 119.343C33.8356 123.198 36.0616 129.232 36.0616 129.232C36.0616 129.232 29.6462 129.012 24.3211 125.156C18.996 121.301 16.7754 115.265 16.7754 115.265C16.7754 115.265 23.188 115.485 28.5132 119.343Z" fill="#007DCF"/>
<path d="M16.7754 115.265C16.7754 115.265 23.4345 118.967 25.5694 122.031C27.7042 125.095 36.0616 129.232 36.0616 129.232" stroke="#535461" stroke-width="2" stroke-miterlimit="10"/>
<path d="M43.789 128.926C37.6737 135.657 36.3799 144.455 36.3799 144.455C36.3799 144.455 45.0024 142.335 51.1124 135.601C57.2223 128.867 58.5215 120.073 58.5215 120.073C58.5215 120.073 49.9043 122.195 43.789 128.926Z" fill="#007DCF"/>
<path d="M58.5268 120.075C58.5268 120.075 50.5606 126.976 48.5355 131.73C46.5105 136.484 36.3799 144.455 36.3799 144.455" stroke="#535461" stroke-width="2" stroke-miterlimit="10"/>
<path d="M268.276 126.557C268.276 126.557 263.853 104.52 265.546 101.778C265.546 101.778 265.608 99.229 265.506 95.9801C265.506 95.8567 265.506 95.7332 265.506 95.6072C265.804 95.806 266.114 95.9853 266.435 96.1437C267.995 96.9463 269.786 97.1779 271.498 96.7984L270.159 95.304C269.837 94.9472 269.502 94.5608 269.433 94.0886C269.363 93.6165 269.556 93.1952 269.722 92.774C270.994 89.5546 271.061 85.5061 268.61 83.0486C266.54 80.9828 266.036 78.316 263.789 76.4299C262.147 75.0482 261.244 73.0226 260.392 71.0641C259.672 69.4088 258.946 67.74 258.533 65.9854C258.212 64.6145 258.083 63.1952 257.641 61.8565C257.199 60.5177 256.372 59.2165 255.078 58.6182C254.617 58.4063 254.106 58.2856 253.685 58.0039C253.133 57.6309 252.801 57.0246 252.402 56.4934C250.374 53.8105 243.584 55.3907 240.37 56.48C239.496 56.7543 238.686 57.2033 237.991 57.8L238.02 57.7517C238.044 57.7114 238.074 57.6712 238.101 57.6309C237.749 57.9159 237.445 58.2556 237.201 58.637C236.732 59.3802 236.536 60.2468 236.145 61.0516C235.674 62.004 233.051 64.6628 234.179 65.7333C234.258 65.8051 234.349 65.8632 234.447 65.905C234.87 66.0814 235.337 66.1281 235.786 66.0391L235.738 66.1545C235.353 67.0989 235.156 68.1096 235.157 69.1298C235.157 73.5378 238.786 77.1114 243.268 77.1114C244.11 77.1122 244.948 76.9828 245.751 76.7277C245.77 76.8297 245.786 76.9316 245.804 77.0336C245.804 77.0738 245.818 77.114 245.823 77.1543L245.681 77.3528C245.674 77.3406 245.666 77.3289 245.657 77.3179L241.452 83.2042C240.809 83.6576 237.107 86.3405 236.898 88.3526C236.678 90.5553 236.459 93.1335 236.459 93.1335L236.429 93.6862C236.245 93.84 236.031 93.9521 235.799 94.0146C235.568 94.0771 235.326 94.0887 235.09 94.0484C233.777 93.8338 233.777 98.8776 233.777 98.8776C233.777 98.8776 232.904 99.6824 232.304 98.9849C231.704 98.2874 230.118 100.651 230.118 100.651L220.181 101.08L219.953 101.094L219.417 99.4329C219.36 99.2578 219.235 99.1125 219.071 99.0286C218.907 98.9447 218.717 98.929 218.541 98.9849C218.5 98.9986 218.46 99.0156 218.421 99.0359L218.383 99.0573L218.314 99.1056L218.279 99.1378C218.26 99.1553 218.242 99.1741 218.225 99.1942L218.193 99.2317L218.177 99.2478C218.115 99.3335 218.074 99.4325 218.057 99.5368C218.041 99.6412 218.049 99.748 218.081 99.8488L218.541 101.273C216.623 101.66 214.663 102.749 216.262 105.748L208.156 104.249L210.779 106.454L224.316 109.252C224.137 109.574 224.255 110.041 224.815 110.698C227.225 113.534 231.618 114.304 233.386 114.503C233.853 115.549 234.436 116.539 235.125 117.454L234.972 120.279C234.972 120.279 230.496 141.812 229.676 142.904C230.09 142.434 230.469 141.935 230.809 141.409C229.51 145.833 227.694 151.889 227.217 152.796C226.451 154.244 225.741 160.106 226.615 160.482C226.883 160.597 227.649 160.541 228.742 160.458V160.943L228.693 179.345C228.693 179.345 228.913 190.632 228.31 191.708C227.708 192.784 227.547 195.04 227.547 195.04C227.547 195.04 225.136 199.491 223.226 201.281C223.213 201.294 223.199 201.307 223.183 201.318L223.124 200.9C223.124 200.9 220.829 203.802 215.75 203.639C215.75 203.639 212.694 205.63 217.226 205.737C221.758 205.844 227.547 205.576 227.547 205.576C227.547 205.576 231.589 199.405 234.975 200.21V204.886H236.011V200.135C236.492 199.818 236.904 199.407 237.221 198.926C237.538 198.445 237.754 197.904 237.857 197.337C237.946 196.752 237.881 196.154 237.668 195.602C237.456 195.05 237.104 194.564 236.646 194.19C236.441 194.004 236.276 193.777 236.162 193.524C236.048 193.271 235.988 192.997 235.985 192.719L235.947 192.752C235.947 192.658 235.923 192.561 235.912 192.462C235.615 190.047 235.243 185.065 236.558 181.379C238.361 176.324 238.907 169.284 237.594 165.094C237.171 163.754 236.823 162.392 236.552 161.013C236.52 160.839 236.491 160.672 236.464 160.517C237.361 160.638 238.25 160.818 239.124 161.053C242.164 161.893 248.815 162.049 254.494 162.003C254.507 162.159 254.523 162.322 254.542 162.486C254.643 163.624 254.855 164.749 255.174 165.845C255.887 167.991 256.214 177.454 256.214 177.454C256.214 177.454 257.132 185.234 256.632 188.4C256.364 190.16 256.096 191.928 255.943 193.704V193.739C255.943 193.739 254.438 198.032 253.337 200.363C253.31 200.422 253.281 200.481 253.254 200.537C252.96 200.564 252.671 200.628 252.394 200.728C252.394 200.728 250.918 203.679 249.447 204.167C247.977 204.656 248.464 206.263 251.794 205.672C255.123 205.082 260.151 204.599 260.151 204.599L260.368 201.589L261.391 200.307L261.124 203.309L262.214 203.094L262.069 199.443L263.743 197.345C263.743 197.345 265.766 195.542 262.76 191.995V192.073C262.728 192.022 262.699 191.968 262.664 191.917V191.901C262.166 191.129 261.769 189.688 262.495 187.131C263.808 182.511 264.571 178.318 264.571 178.318C264.571 178.318 267.501 167.085 263.979 161.77H264.134C263.773 161.022 263.518 160.227 263.376 159.409C263.358 159.312 263.342 159.213 263.328 159.111C265.934 158.961 268.493 158.489 270.579 157.469C270.571 157.458 269.315 130.801 268.276 126.557ZM235.186 107.965V108.018L234.651 108.045L235.186 107.965ZM233.349 108.219C233.261 108.239 233.178 108.278 233.108 108.335C232.877 108.661 232.733 109.04 232.687 109.437L231.851 109.25C231.851 109.25 231.265 109.124 230.421 108.981L230.022 108.579C231.12 108.488 232.261 108.354 233.349 108.219Z" fill="url(#paint1_linear_6945_17864)"/>
<path d="M261 199.48L260.682 203.282L261.75 203.067L261.59 198.944L261 199.48Z" fill="#1D2366"/>
<path d="M236.617 181.43C235.328 185.106 235.692 190.066 235.982 192.475C236.089 193.366 236.188 193.908 236.188 193.908C236.188 193.908 234.262 198.303 234.101 198.469C233.941 198.635 228.433 202.002 228.433 202.002L224.584 204.253C224.584 204.253 220.679 202.539 222.551 201.949C222.934 201.795 223.278 201.56 223.561 201.259C225.436 199.475 227.79 195.04 227.79 195.04C227.79 195.04 227.951 192.789 228.54 191.719C229.13 190.648 228.915 179.399 228.915 179.399L228.961 161.062V158.671L236.287 158.725C236.333 159.536 236.439 160.343 236.603 161.139C236.866 162.513 237.207 163.871 237.624 165.207C238.915 169.389 238.379 176.394 236.617 181.43Z" fill="#FFB0B1"/>
<path opacity="0.1" d="M236.188 193.908C236.188 193.908 234.262 198.303 234.101 198.469C233.941 198.635 228.433 202.002 228.433 202.002L224.584 204.253C224.584 204.253 220.679 202.539 222.551 201.949C222.934 201.795 223.278 201.56 223.561 201.259L223.727 202.432L225.01 202.378L235.992 192.481C236.089 193.366 236.188 193.908 236.188 193.908Z" fill="black"/>
<path d="M236.053 192.73L225.009 202.694L223.726 202.748L223.459 200.87C223.459 200.87 221.214 203.762 216.226 203.601C216.226 203.601 213.232 205.584 217.67 205.691C222.109 205.799 227.776 205.53 227.776 205.53C227.776 205.53 231.736 199.36 235.049 200.165V204.825H236.067V200.122C236.54 199.802 236.944 199.391 237.254 198.911C237.565 198.432 237.775 197.894 237.872 197.331C237.96 196.751 237.898 196.159 237.691 195.61C237.484 195.061 237.14 194.575 236.691 194.198C236.491 194.01 236.331 193.782 236.221 193.53C236.111 193.278 236.054 193.005 236.053 192.73Z" fill="#1D2366"/>
<path d="M262.018 187.161C261.306 189.709 261.694 191.145 262.182 191.915V191.931C262.807 192.881 263.242 193.945 263.462 195.062L263.505 195.303L258.48 202.641L255.753 203.714C255.753 203.714 251.368 202.214 252.169 201.785C252.37 201.68 252.683 201.122 253.042 200.352C254.114 198.032 255.592 193.75 255.592 193.75V193.715C255.748 191.947 255.994 190.184 256.267 188.43C256.758 185.272 255.857 177.521 255.857 177.521C255.857 177.521 255.536 168.096 254.84 165.952C254.525 164.862 254.316 163.745 254.215 162.615C254.071 161.273 254.039 160.168 254.039 160.168C254.039 160.168 256.926 156.144 262.219 160.49C262.643 160.837 263.015 161.241 263.326 161.692C266.982 166.902 264.038 178.379 264.038 178.379C264.038 178.379 263.301 182.554 262.018 187.161Z" fill="#FFB0B1"/>
<path opacity="0.1" d="M263.513 195.303L258.488 202.641L255.761 203.714C255.761 203.714 251.376 202.214 252.177 201.785C252.378 201.68 252.691 201.122 253.05 200.352C254.906 200.336 255.868 202.107 255.868 202.107L258.22 201.731C258.22 201.731 261.322 195.625 262.018 195.252C262.715 194.879 262.125 192.465 262.125 192.465V191.85C262.144 191.872 262.16 191.896 262.182 191.917V191.934C262.807 192.884 263.242 193.948 263.462 195.064L263.513 195.303Z" fill="black"/>
<path d="M256.028 202.265C256.028 202.265 254.689 199.802 252.123 200.712C252.123 200.712 250.679 203.663 249.235 204.141C247.792 204.618 248.274 206.228 251.536 205.64C254.799 205.053 259.717 204.567 259.717 204.567L259.931 201.565L263.247 197.334C263.247 197.334 265.224 195.539 262.283 192.006V192.62C262.283 192.62 262.872 195.035 262.176 195.408C261.479 195.781 258.388 201.89 258.388 201.89L256.028 202.265Z" fill="#1D2366"/>
<path opacity="0.1" d="M236.295 158.719C236.341 159.531 236.447 160.338 236.611 161.134C233.595 160.691 230.796 160.911 228.961 161.056V158.666L236.295 158.719Z" fill="black"/>
<path opacity="0.1" d="M263.622 162.36C263.622 162.36 259.336 162.569 254.226 162.612C254.081 161.271 254.049 160.165 254.049 160.165C254.049 160.165 256.936 156.141 262.229 160.487C262.653 160.834 263.025 161.239 263.336 161.689C263.419 161.918 263.514 162.142 263.622 162.36Z" fill="black"/>
<path d="M263.622 161.877C263.622 161.877 244.85 162.787 239.129 161.18C233.407 159.573 227.737 160.965 226.882 160.592C226.028 160.219 226.721 154.379 227.471 152.932C228.221 151.486 232.336 136.862 232.336 136.862L236.295 116.188L240.465 115.037L240.76 114.954L248.027 112.947L253.352 111.474C253.352 111.474 263.941 152.879 263.033 155.932C262.703 157.101 262.65 158.331 262.878 159.524C263.016 160.339 263.267 161.131 263.622 161.877Z" fill="#1D2366"/>
<path d="M222.495 102.049C222.495 102.049 218.745 106.073 221.584 108.316C224.423 110.559 226.29 108.531 226.29 108.531L222.495 102.049Z" fill="#C7DAF5"/>
<path opacity="0.1" d="M222.495 102.049C222.495 102.049 218.745 106.073 221.584 108.316C224.423 110.559 226.29 108.531 226.29 108.531L222.495 102.049Z" fill="black"/>
<path d="M252.793 75.5901C252.793 75.5901 252.354 76.0087 251.692 76.6257C250.749 77.5084 249.354 78.7989 248.116 79.8801C246.402 81.3744 244.987 82.4717 245.494 81.5354C246 80.5991 245.904 78.9679 245.652 77.4413C245.633 77.3394 245.617 77.2374 245.598 77.1382C245.39 76.017 245.113 74.9096 244.771 73.8221C244.771 73.8221 247.54 70.2378 249.072 68.8239C249.643 68.2873 250.042 68.0673 250.066 68.4403C250.093 68.942 250.468 70.05 250.934 71.2251C250.947 71.2626 250.961 71.2975 250.977 71.3351C251.288 72.1399 251.639 72.9663 251.947 73.6799C252.418 74.7745 252.793 75.5901 252.793 75.5901Z" fill="#FFB0B1"/>
<path opacity="0.1" d="M250.977 71.3351C250.717 72.7373 250.085 74.0437 249.148 75.1179C248.212 76.192 247.004 76.9945 245.652 77.4414C245.439 76.2166 245.144 75.0076 244.771 73.8221C244.771 73.8221 249.986 67.0747 250.066 68.4403C250.085 68.9581 250.492 70.1063 250.977 71.3351Z" fill="black"/>
<path opacity="0.1" d="M245.131 79.2444L245.806 78.292C245.806 78.292 246.254 81.0232 247.898 79.8186C249.543 78.6139 249.623 88.884 249.623 88.884L247.858 115.318L235.103 114.554L235.464 101.781L236.908 95.3417L240.479 85.9811L242.603 82.8878L245.131 79.2444Z" fill="black"/>
<path d="M249.624 89.0476L248.017 112.949L247.848 115.482L240.736 115.055L240.469 115.039L235.111 114.717L235.473 101.942L236.917 95.5026L240.487 86.142L242.612 83.0486L245.14 79.3919L245.815 78.4421C245.815 78.4421 246.262 81.1733 247.907 79.9687L247.942 79.9445C249.549 78.9251 249.624 89.0476 249.624 89.0476Z" fill="#1D2366"/>
<path d="M237.096 93.2651C237.096 93.2651 236.456 94.6066 235.17 94.3893C233.885 94.172 233.887 99.2185 233.887 99.2185C233.887 99.2185 233.033 100.023 232.443 99.3258C231.854 98.6282 230.301 100.986 230.301 100.986L220.566 101.416C220.566 101.416 224.898 103.398 224.049 109.397C224.049 109.397 238.754 108.485 239.237 107.093C239.719 105.7 237.096 93.2651 237.096 93.2651Z" fill="white"/>
<path opacity="0.03" d="M237.096 93.2651C237.096 93.2651 236.456 94.6066 235.17 94.3893C233.885 94.172 233.887 99.2185 233.887 99.2185C233.887 99.2185 233.033 100.023 232.443 99.3258C231.854 98.6282 230.301 100.986 230.301 100.986L220.566 101.416C220.566 101.416 224.898 103.398 224.049 109.397C224.049 109.397 238.754 108.485 239.237 107.093C239.719 105.7 237.096 93.2651 237.096 93.2651Z" fill="black"/>
<path d="M208.807 104.568L211.373 106.763L232.496 111.208L229.877 108.531L208.807 104.568Z" fill="white"/>
<path d="M245.172 80.0893C244.821 80.6259 243.817 83.3732 242.978 85.7717C242.279 87.7704 241.695 89.5277 241.695 89.5277C241.695 89.5277 240.332 98.4188 239.635 100.026C238.939 101.633 239.317 107.9 239.317 107.9L236.721 123.378C236.721 123.378 235.545 131.359 233.729 136.127C231.937 140.819 229.941 143.019 229.88 143.089C230.683 142 235.063 120.553 235.063 120.553L236.51 93.5037C236.51 93.5037 236.721 90.9335 236.935 88.7362C237.15 86.539 241.489 83.5395 241.489 83.5395L245.673 77.5808C246.094 78.1442 245.812 79.1262 245.172 80.0893Z" fill="white"/>
<path d="M234.262 114.852C234.262 114.852 228.101 114.583 225.117 110.994C222.133 107.404 232.015 109.561 232.015 109.561L234.583 110.151L234.262 114.852Z" fill="#FFB0B1"/>
<path opacity="0.1" d="M263.033 155.935C262.704 157.104 262.65 158.334 262.878 159.527C256.157 160.005 248.968 158.186 248.968 158.186C247.628 159.42 244.101 161.239 244.101 161.239L242.177 137.361C240.948 134.142 240.466 117.274 240.466 117.274C240.466 117.274 240.576 116.392 240.734 115.069C240.734 115.037 240.734 115.002 240.747 114.97C241.227 111.275 242.177 104.34 242.644 103.404C243.286 102.116 240.667 98.6899 240.667 98.6899L241.859 88.5084L242.003 87.2796C244.516 86.1555 246.442 82.5658 246.442 82.5658L247.92 79.9715C249.528 78.9385 249.611 89.0611 249.611 89.0611L248.003 112.963L253.329 111.49C253.329 111.49 263.941 152.881 263.033 155.935Z" fill="black"/>
<path d="M269.931 157.584C262.605 161.228 249.289 157.853 249.289 157.853C247.95 159.087 244.422 160.906 244.422 160.906L242.496 137.028C241.269 133.809 240.787 116.941 240.787 116.941C240.787 116.941 242.335 104.356 242.978 103.071C243.166 102.695 243.075 102.137 242.852 101.536C241.759 98.676 241.357 95.5972 241.679 92.5514L242.193 88.1756L242.335 86.9495C244.851 85.8227 246.777 82.233 246.777 82.233L248.116 79.8828L250.58 75.5526L251.748 73.5029L251.946 73.6827L253.46 75.0563C253.46 75.0563 254.103 75.5929 255.067 76.3978C257.164 78.1685 260.788 81.286 262.658 83.1935C264.303 84.873 264.823 91.4058 264.973 96.3235C265.072 99.5618 265.013 102.1 265.013 102.1C263.355 104.834 267.691 126.782 267.691 126.782C268.701 131.024 269.931 157.584 269.931 157.584Z" fill="white"/>
<path opacity="0.03" d="M255.868 82.1794C255.868 82.1794 250.84 91.7654 251.424 95.4087C252.008 99.0521 253.669 103.176 252.868 104.139C252.593 104.504 252.237 104.8 251.828 105.004C251.42 105.209 250.97 105.315 250.513 105.317C249.71 105.37 247.567 106.87 247.567 107.031C247.567 107.192 245.587 107.192 243.817 107.943C242.046 108.694 239.432 109.121 239.432 109.121C239.432 109.121 234.342 108.96 233.868 109.443C233.394 109.926 232.907 112.815 233.922 115.12C234.937 117.424 236.065 119.144 236.917 119.458C237.768 119.772 243.174 117.958 247.559 117.529C251.944 117.1 256.704 113.62 256.704 113.62C256.704 113.62 261.946 111.742 262.864 108.584C263.783 105.427 261.742 88.0711 261.742 88.0711C261.742 88.0711 260.199 79.9822 255.868 82.1794Z" fill="black"/>
<path opacity="0.03" d="M255.225 81.3745C255.225 81.3745 250.198 90.9631 250.787 94.6038C251.376 98.2445 253.032 102.371 252.228 103.337C251.954 103.702 251.599 103.998 251.19 104.203C250.782 104.407 250.332 104.514 249.876 104.514C249.072 104.568 246.93 106.068 246.93 106.229C246.93 106.39 244.95 106.39 243.179 107.138C241.409 107.887 238.795 108.316 238.795 108.316C238.795 108.316 233.705 108.155 233.234 108.638C232.762 109.121 232.269 112.013 233.287 114.315C234.305 116.617 235.43 118.339 236.282 118.653C237.134 118.967 242.539 117.153 246.924 116.727C251.309 116.3 256.069 112.815 256.069 112.815C256.069 112.815 261.309 110.937 262.217 107.782C263.125 104.627 261.094 87.2661 261.094 87.2661C261.094 87.2661 259.557 79.1799 255.225 81.3745Z" fill="black"/>
<path d="M255.71 81.6965C255.71 81.6965 250.682 91.2851 251.272 94.9258C251.861 98.5664 253.516 102.693 252.715 103.656C252.441 104.022 252.086 104.319 251.677 104.524C251.269 104.729 250.818 104.836 250.361 104.836C249.557 104.89 247.414 106.39 247.414 106.548C247.414 106.706 245.438 106.709 243.664 107.46C241.891 108.211 239.279 108.638 239.279 108.638C239.279 108.638 234.19 108.477 233.716 108.96C233.242 109.443 232.754 112.335 233.769 114.637C234.785 116.939 235.912 118.661 236.764 118.975C237.616 119.289 243.021 117.475 247.406 117.046C251.791 116.617 256.551 113.137 256.551 113.137C256.551 113.137 261.793 111.259 262.712 108.101C263.631 104.944 261.603 87.5881 261.603 87.5881C261.603 87.5881 260.039 79.5126 255.71 81.6965Z" fill="white"/>
<path opacity="0.1" d="M255.6 107.415C255.6 107.415 251.582 106.61 252.98 107.951C254.378 109.293 254.37 110.468 256.082 110.414C257.794 110.36 255.6 107.415 255.6 107.415Z" fill="black"/>
<path opacity="0.1" d="M262.39 136.277C262.39 136.277 260.574 137.509 264.049 140.347C267.523 143.186 262.39 136.277 262.39 136.277Z" fill="black"/>
<path opacity="0.1" d="M258.924 146.4C258.924 146.561 258.281 152.302 260.686 153.737C263.092 155.173 258.924 146.4 258.924 146.4Z" fill="black"/>
<path d="M220.732 101.402C218.793 101.469 214.604 102.062 216.776 106.122C218.697 109.714 221.924 107.313 223.74 105.491C223.297 103.793 222.221 102.329 220.732 101.402Z" fill="#FFB0B1"/>
<path opacity="0.1" d="M255.067 76.5613C253.01 77.9698 251.285 79.1584 250.947 79.4052C250.026 80.0893 248.269 84.1056 247.135 86.1553C246.233 87.8053 243.3 88.2292 242.193 88.3338L242.335 87.1077C244.851 85.9809 246.777 82.3912 246.777 82.3912L251.748 73.6611L253.46 75.2199C253.46 75.2199 254.103 75.7565 255.067 76.5613Z" fill="black"/>
<path d="M255.067 76.4004C253.01 77.809 251.285 78.9975 250.947 79.247C250.026 79.9284 248.269 83.9447 247.135 85.9944C246.233 87.6444 243.3 88.0683 242.193 88.1729L242.335 86.9469C244.851 85.82 246.777 82.2304 246.777 82.2304L251.748 73.5002L253.46 75.0536C253.46 75.0536 254.103 75.5848 255.067 76.4004Z" fill="#DCE7FF"/>
<path d="M251.107 69.5645C251.109 71.175 250.621 72.7478 249.709 74.0744C248.632 75.6429 247.03 76.7728 245.192 77.2592C243.355 77.7455 241.404 77.556 239.695 76.7251C237.985 75.8942 236.629 74.4769 235.873 72.7304C235.117 70.9839 235.012 69.0239 235.575 67.206C236.139 65.3881 237.334 63.8328 238.945 62.8223C240.556 61.8118 242.474 61.413 244.353 61.6983C246.232 61.9836 247.947 62.9341 249.186 64.3774C250.426 65.8206 251.107 67.6609 251.107 69.5645Z" fill="#FFB0B1"/>
<path opacity="0.1" d="M264.972 96.3263C263.885 95.656 262.999 94.7029 262.409 93.5683C261.962 92.6829 261.664 91.6607 260.901 91.0329C260.212 90.4695 259.294 90.3327 258.436 90.0805C255.619 89.2461 253.256 86.6706 253.168 83.7301C253.125 82.3457 253.556 80.9641 253.36 79.5931C253.249 78.8172 252.941 78.0828 252.466 77.4602C252.23 77.1624 251.971 76.8835 251.692 76.6258C251.317 76.2717 250.923 75.9283 250.58 75.5527C250.364 75.3201 250.175 75.0636 250.017 74.7881C249.89 74.5626 249.787 74.3243 249.709 74.0771C249.174 72.4352 249.661 70.4874 249.072 68.8267L249.04 68.7355C248.817 68.1452 248.365 67.555 247.735 67.5094C247.106 67.4638 246.567 67.987 245.967 68.2204C244.711 68.7087 243.356 67.877 242.308 67.0292C241.261 66.1814 240.08 65.2129 238.748 65.4007C237.867 65.5267 237.171 66.1277 236.359 66.4389C236.176 66.51 235.987 66.5648 235.794 66.6026C236.481 64.8869 237.743 63.4644 239.363 62.5794C240.983 61.6944 242.861 61.4022 244.673 61.753C246.485 62.1037 248.118 63.0756 249.293 64.5016C250.467 65.9276 251.109 67.7187 251.108 69.5672C251.109 70.1254 251.05 70.6821 250.934 71.2279C250.947 71.2654 250.96 71.3003 250.976 71.3379C251.287 72.1427 251.638 72.9691 251.946 73.6827L253.46 75.0564C253.46 75.0564 254.102 75.5929 255.067 76.3978C257.164 78.1685 260.788 81.286 262.658 83.1935C264.303 84.8784 264.817 91.4085 264.972 96.3263Z" fill="black"/>
<path d="M236.266 61.5372C236.649 60.7565 236.839 59.8818 237.297 59.1414C237.97 58.0682 239.143 57.3814 240.348 56.9655C243.496 55.879 250.147 54.3014 252.134 56.9655C252.525 57.5021 252.849 58.0977 253.39 58.468C253.803 58.7497 254.301 58.8704 254.754 59.0823C256.021 59.6779 256.83 60.9765 257.261 62.3018C257.692 63.6271 257.821 65.0491 258.137 66.4147C258.541 68.1666 259.251 69.8273 259.958 71.4773C260.792 73.425 261.675 75.4452 263.283 76.8216C265.476 78.6996 265.961 81.3583 267.997 83.4188C270.408 85.8656 270.33 89.9033 269.087 93.1093C268.924 93.5306 268.739 93.9705 268.803 94.4186C268.868 94.8666 269.2 95.2744 269.513 95.6312L270.831 97.1203C267.713 97.8741 264.185 96.243 262.734 93.3803C262.286 92.495 261.989 91.4755 261.223 90.845C260.537 90.2816 259.616 90.1474 258.761 89.8953C255.943 89.0582 253.581 86.4799 253.492 83.5395C253.449 82.1578 253.881 80.7761 253.685 79.4079C253.576 78.6267 253.267 77.8872 252.788 77.2616C252.051 76.2984 250.94 75.6518 250.34 74.5787C249.324 72.7838 250.096 70.4524 249.364 68.5261C249.139 67.9358 248.689 67.3456 248.06 67.3C247.431 67.2544 246.892 67.7776 246.289 68.011C245.036 68.4993 243.68 67.6702 242.633 66.8198C241.586 65.9693 240.404 65.0035 239.07 65.1939C238.189 65.3174 237.495 65.9183 236.684 66.2322C236.084 66.4629 234.868 66.6695 234.343 66.1625C233.234 65.1403 235.803 62.4923 236.266 61.5372Z" fill="#591D4B"/>
<path opacity="0.1" d="M263.477 92.4952C263.027 91.6098 262.733 90.5903 261.967 89.9625C261.281 89.3991 260.359 89.2623 259.502 89.0101C256.687 88.1757 254.324 85.5975 254.233 82.657C254.191 81.2753 254.622 79.891 254.429 78.5227C254.317 77.7466 254.008 77.0123 253.532 76.3898C252.792 75.4267 251.681 74.7801 251.083 73.7069C250.068 71.9148 250.84 69.5833 250.106 67.6543C249.883 67.0668 249.431 66.4766 248.804 66.4283C248.177 66.38 247.633 66.9085 247.033 67.1419C245.78 67.6302 244.422 66.7985 243.377 65.9507C242.332 65.1029 241.146 64.1344 239.814 64.3222C238.933 64.4483 238.237 65.0493 237.428 65.3605C236.828 65.5912 235.609 65.8005 235.084 65.2934C233.98 64.2203 236.549 61.5776 237.01 60.6279C237.393 59.8445 237.583 58.9725 238.044 58.2321C238.068 58.1918 238.095 58.1516 238.121 58.1113C237.777 58.3973 237.479 58.7359 237.24 59.1147C236.782 59.8552 236.592 60.7245 236.209 61.5105C235.745 62.4603 233.177 65.111 234.283 66.1761C234.819 66.6858 236.024 66.4766 236.624 66.2458C237.428 65.9319 238.129 65.331 239.011 65.2076C240.35 65.0171 241.529 65.9856 242.573 66.8334C243.618 67.6812 244.984 68.5129 246.232 68.0246C246.832 67.7912 247.357 67.2653 248 67.3136C248.643 67.3619 249.072 67.9495 249.305 68.5397C250.036 70.466 249.265 72.7974 250.28 74.5923C250.88 75.6467 251.991 76.3066 252.728 77.2752C253.207 77.9009 253.517 78.6404 253.625 79.4215C253.821 80.7897 253.39 82.1714 253.432 83.5531C253.521 86.5043 255.883 89.0718 258.701 89.9089C259.55 90.161 260.477 90.2952 261.163 90.8586C261.932 91.4891 262.234 92.5086 262.674 93.3939C264.126 96.2566 267.653 97.8878 270.771 97.1339L270.15 96.431C267.447 96.4712 264.712 94.9312 263.477 92.4952Z" fill="black"/>
<path opacity="0.1" d="M245.011 80.2504C244.661 80.787 243.656 83.5343 242.818 85.9328C242.033 85.6269 241.32 83.6765 241.32 83.6765L245.504 77.7151C245.933 78.3053 245.652 79.2846 245.011 80.2504Z" fill="black"/>
<path d="M245.172 80.0895C244.821 80.6261 243.816 83.3734 242.978 85.7719C242.193 85.4687 241.48 83.5156 241.48 83.5156L245.665 77.5569C246.093 78.1444 245.812 79.1264 245.172 80.0895Z" fill="#DCE7FF"/>
<path d="M220.845 107.498L218.525 100.171C218.497 100.085 218.487 99.9946 218.495 99.9048C218.502 99.815 218.527 99.7276 218.569 99.6476C218.61 99.5676 218.667 99.4965 218.735 99.4385C218.804 99.3805 218.884 99.3367 218.969 99.3095C219.142 99.2555 219.329 99.2721 219.49 99.3555C219.65 99.4389 219.771 99.5824 219.827 99.7549L222.146 107.074L221.916 108.606L220.845 107.498Z" fill="#BE8B87"/>
<path opacity="0.1" d="M218.745 99.5269C218.918 99.4721 219.105 99.4882 219.266 99.5716C219.427 99.6551 219.549 99.7992 219.604 99.9722L221.924 107.291L221.75 108.439L221.919 108.616L222.149 107.085L219.816 99.7656C219.761 99.5932 219.639 99.4496 219.479 99.3662C219.318 99.2828 219.131 99.2663 218.959 99.3203C218.814 99.3675 218.688 99.4619 218.603 99.5886C218.648 99.5641 218.696 99.5434 218.745 99.5269Z" fill="white"/>
<path d="M220.845 107.498L222.147 107.085L221.956 108.34L221.916 108.617L221.536 108.22L220.845 107.498Z" fill="#EFC8C4"/>
<path d="M221.536 108.219C221.559 108.191 221.587 108.167 221.619 108.15C221.638 108.138 221.66 108.131 221.682 108.131C221.704 108.131 221.726 108.138 221.745 108.15C221.763 108.172 221.779 108.196 221.791 108.222C221.808 108.252 221.832 108.277 221.861 108.296C221.89 108.315 221.923 108.327 221.957 108.332L221.917 108.6L221.536 108.219Z" fill="#727A9C"/>
<path d="M218.512 102.773C218.512 102.773 223.165 102.746 222.069 104.729C220.973 106.712 219.262 106.95 219.262 106.95L218.512 102.773Z" fill="#FFB0B1"/>
<rect x="148.5" y="33.7036" width="44.1404" height="41.4815" fill="#FDEB00"/>
<path d="M189.575 13.7959H189.374C181.381 13.7959 174.312 18.0322 170.246 24.2833C166.18 18.0322 159.111 13.7959 151.118 13.7959H150.917C144.918 13.8532 139.184 16.2792 134.962 20.5468C130.739 24.8144 128.368 30.5786 128.365 36.587C128.365 44.0481 131.628 54.6347 137.99 63.3461C150.11 79.9451 170.246 94.4675 170.246 94.4675C170.246 94.4675 190.381 79.9477 202.499 63.3461C208.864 54.6347 212.124 44.0481 212.124 36.587C212.12 30.5791 209.75 24.8152 205.528 20.5477C201.306 16.2802 195.573 13.8539 189.575 13.7959ZM186.701 64.6231C185.79 64.6196 184.902 64.3406 184.153 63.8225C183.404 63.3044 182.829 62.5716 182.503 61.7202H177.724C177.41 61.7183 177.104 61.6179 176.849 61.4332C176.594 61.2485 176.403 60.9887 176.302 60.69L174.834 56.2606L170.189 72.5162C170.099 72.8291 169.91 73.1042 169.65 73.3001C169.39 73.496 169.074 73.6022 168.748 73.6027H168.655C168.315 73.5863 167.992 73.4537 167.738 73.2271C167.485 73.0006 167.317 72.6937 167.262 72.3579L162.475 43.5222L158.977 60.5854C158.896 60.9095 158.71 61.1974 158.448 61.4031C158.185 61.6088 157.861 61.7204 157.528 61.7202H150.796C150.594 61.7288 150.393 61.6964 150.204 61.6249C150.015 61.5535 149.842 61.4445 149.697 61.3045C149.551 61.1645 149.435 60.9964 149.356 60.8104C149.276 60.6243 149.235 60.4241 149.235 60.2218C149.235 60.0196 149.276 59.8194 149.356 59.6333C149.435 59.4472 149.551 59.2792 149.697 59.1392C149.842 58.9992 150.015 58.8902 150.204 58.8188C150.393 58.7473 150.594 58.7149 150.796 58.7235H156.349L161.304 35.7821C161.386 35.4429 161.582 35.1426 161.86 34.9324C162.138 34.7223 162.48 34.6153 162.828 34.6299C163.176 34.6445 163.508 34.7796 163.768 35.0123C164.027 35.245 164.198 35.5607 164.251 35.9055L169.139 65.3207L173.302 50.7768C173.389 50.4704 173.572 50.2004 173.824 50.007C174.077 49.8136 174.385 49.7072 174.703 49.7036H174.732C175.047 49.7037 175.354 49.8034 175.609 49.9883C175.864 50.1733 176.054 50.4342 176.152 50.7338L178.807 58.7315H182.444C182.703 57.9445 183.174 57.2444 183.804 56.7084C184.435 56.1724 185.202 55.8214 186.019 55.6942C186.836 55.5669 187.673 55.6683 188.436 55.9872C189.2 56.3061 189.861 56.8301 190.346 57.5013C190.831 58.1725 191.121 58.9649 191.185 59.7909C191.248 60.617 191.083 61.4446 190.707 62.1825C190.33 62.9204 189.758 63.5398 189.052 63.9723C188.347 64.4049 187.536 64.6338 186.709 64.6338L186.701 64.6231Z" fill="#007DCF"/>
</g>
<defs>
<linearGradient id="paint0_linear_6945_17864" x1="95.9481" y1="207.889" x2="95.9481" y2="42.8001" gradientUnits="userSpaceOnUse">
<stop stop-color="#808080" stop-opacity="0.25"/>
<stop offset="0.54" stop-color="#808080" stop-opacity="0.12"/>
<stop offset="1" stop-color="#808080" stop-opacity="0.1"/>
</linearGradient>
<linearGradient id="paint1_linear_6945_17864" x1="239.818" y1="205.801" x2="239.818" y2="55.0232" gradientUnits="userSpaceOnUse">
<stop stop-color="#808080" stop-opacity="0.25"/>
<stop offset="0.54" stop-color="#808080" stop-opacity="0.12"/>
<stop offset="1" stop-color="#808080" stop-opacity="0.1"/>
</linearGradient>
<clipPath id="clip0_6945_17864">
<rect width="296" height="210" fill="white" transform="translate(0.5)"/>
</clipPath>
</defs>
</svg>
