<svg width="16" height="12" viewBox="0 0 16 12" fill="none" xmlns="http://www.w3.org/2000/svg">
    <path d="M15.8313 1.45595L5.83128 11.4559C5.74339 11.5437 5.62425 11.593 5.50003 11.593C5.37581 11.593 5.25667 11.5437 5.16878 11.4559L0.793776 7.08095C0.710976 6.99209 0.665899 6.87456 0.668042 6.75312C0.670184 6.63168 0.719379 6.51582 0.805262 6.42994C0.891146 6.34405 1.00701 6.29486 1.12845 6.29271C1.24989 6.29057 1.36742 6.33565 1.45628 6.41845L5.50003 10.4614L15.1688 0.793449C15.2576 0.710649 15.3752 0.665571 15.4966 0.667714C15.618 0.669856 15.7339 0.719052 15.8198 0.804935C15.9057 0.890818 15.9549 1.00668 15.957 1.12812C15.9592 1.24956 15.9141 1.36709 15.8313 1.45595Z" fill="#AADD77"/>
</svg>
