<svg width="24" height="27" viewBox="0 0 24 27" fill="none" xmlns="http://www.w3.org/2000/svg">
    <path d="M23.5076 19.6175C22.8001 18.4 21.7488 14.9662 21.7488 10.5C21.7488 7.91414 20.7216 5.43419 18.8931 3.60571C17.0646 1.77723 14.5847 0.75 11.9988 0.75C9.41295 0.75 6.933 1.77723 5.10452 3.60571C3.27604 5.43419 2.24881 7.91414 2.24881 10.5C2.24881 14.9675 1.19631 18.4 0.48881 19.6175C0.333579 19.8833 0.25121 20.1854 0.250013 20.4932C0.248817 20.801 0.328836 21.1037 0.481996 21.3707C0.635156 21.6377 0.856037 21.8596 1.12235 22.014C1.38866 22.1684 1.69099 22.2498 1.99881 22.25H7.30881C7.49097 23.3618 8.0624 24.3727 8.92105 25.1021C9.7797 25.8315 10.8697 26.232 11.9963 26.232C13.123 26.232 14.2129 25.8315 15.0716 25.1021C15.9302 24.3727 16.5016 23.3618 16.6838 22.25H21.9988C22.3064 22.2494 22.6084 22.1676 22.8744 22.0131C23.1404 21.8585 23.3609 21.6366 23.5137 21.3696C23.6666 21.1027 23.7464 20.8002 23.7451 20.4926C23.7438 20.185 23.6614 19.8831 23.5063 19.6175H23.5076ZM11.9988 24.75C11.2674 24.7498 10.5575 24.5029 9.98387 24.0492C9.41021 23.5955 9.00634 22.9616 8.83756 22.25H15.1601C14.9913 22.9616 14.5874 23.5955 14.0138 24.0492C13.4401 24.5029 12.7302 24.7498 11.9988 24.75ZM22.2126 20.625C22.192 20.6633 22.1613 20.6952 22.1238 20.7172C22.0863 20.7393 22.0435 20.7506 22.0001 20.75H1.99881C1.95534 20.7506 1.91254 20.7393 1.87507 20.7172C1.8376 20.6952 1.8069 20.6633 1.78631 20.625C1.76437 20.587 1.75282 20.5439 1.75282 20.5C1.75282 20.4561 1.76437 20.413 1.78631 20.375C2.73256 18.75 3.74881 14.9613 3.74881 10.5C3.74881 8.31196 4.618 6.21354 6.16518 4.66637C7.71236 3.11919 9.81077 2.25 11.9988 2.25C14.1868 2.25 16.2853 3.11919 17.8324 4.66637C19.3796 6.21354 20.2488 8.31196 20.2488 10.5C20.2488 14.96 21.2663 18.7437 22.2126 20.375C22.2345 20.413 22.2461 20.4561 22.2461 20.5C22.2461 20.5439 22.2345 20.587 22.2126 20.625Z" fill="#007DCF"/>
</svg>
