<svg width="18" height="20" viewBox="0 0 18 20" fill="none" xmlns="http://www.w3.org/2000/svg">
<path d="M16.5 2.1875H14.0625V1.25C14.0625 1.10082 14.0032 0.957742 13.8977 0.852252C13.7923 0.746763 13.6492 0.6875 13.5 0.6875C13.3508 0.6875 13.2077 0.746763 13.1023 0.852252C12.9968 0.957742 12.9375 1.10082 12.9375 1.25V2.1875H5.0625V1.25C5.0625 1.10082 5.00324 0.957742 4.89775 0.852252C4.79226 0.746763 4.64918 0.6875 4.5 0.6875C4.35082 0.6875 4.20774 0.746763 4.10225 0.852252C3.99676 0.957742 3.9375 1.10082 3.9375 1.25V2.1875H1.5C1.1519 2.1875 0.818064 2.32578 0.571922 2.57192C0.325781 2.81806 0.1875 3.1519 0.1875 3.5V18.5C0.1875 18.8481 0.325781 19.1819 0.571922 19.4281C0.818064 19.6742 1.1519 19.8125 1.5 19.8125H16.5C16.8481 19.8125 17.1819 19.6742 17.4281 19.4281C17.6742 19.1819 17.8125 18.8481 17.8125 18.5V3.5C17.8125 3.1519 17.6742 2.81806 17.4281 2.57192C17.1819 2.32578 16.8481 2.1875 16.5 2.1875ZM1.5 3.3125H3.9375V4.25C3.9375 4.39918 3.99676 4.54226 4.10225 4.64775C4.20774 4.75324 4.35082 4.8125 4.5 4.8125C4.64918 4.8125 4.79226 4.75324 4.89775 4.64775C5.00324 4.54226 5.0625 4.39918 5.0625 4.25V3.3125H12.9375V4.25C12.9375 4.39918 12.9968 4.54226 13.1023 4.64775C13.2077 4.75324 13.3508 4.8125 13.5 4.8125C13.6492 4.8125 13.7923 4.75324 13.8977 4.64775C14.0032 4.54226 14.0625 4.39918 14.0625 4.25V3.3125H16.5C16.5497 3.3125 16.5974 3.33225 16.6326 3.36742C16.6677 3.40258 16.6875 3.45027 16.6875 3.5V6.6875H1.3125V3.5C1.3125 3.45027 1.33225 3.40258 1.36742 3.36742C1.40258 3.33225 1.45027 3.3125 1.5 3.3125ZM16.5 18.6875H1.5C1.45027 18.6875 1.40258 18.6677 1.36742 18.6326C1.33225 18.5974 1.3125 18.5497 1.3125 18.5V7.8125H16.6875V18.5C16.6875 18.5497 16.6677 18.5974 16.6326 18.6326C16.5974 18.6677 16.5497 18.6875 16.5 18.6875Z" fill="#9CA3AF"/>
</svg>
