<svg width="14" height="8" viewBox="0 0 14 8" fill="none" xmlns="http://www.w3.org/2000/svg">
<path d="M13.5813 1.33128L7.33128 7.58128C7.24338 7.66906 7.12424 7.71836 7.00003 7.71836C6.87581 7.71836 6.75667 7.66906 6.66878 7.58128L0.418776 1.33128C0.335976 1.24242 0.290899 1.12489 0.293042 1.00345C0.295184 0.882012 0.344379 0.766146 0.430262 0.680263C0.516146 0.59438 0.632011 0.545184 0.753449 0.543042C0.874888 0.540899 0.992417 0.585977 1.08128 0.668777L7.00003 6.58675L12.9188 0.668777C13.0076 0.585977 13.1252 0.540899 13.2466 0.543042C13.368 0.545184 13.4839 0.59438 13.5698 0.680263C13.6557 0.766146 13.7049 0.882012 13.707 1.00345C13.7092 1.12489 13.6641 1.24242 13.5813 1.33128Z" fill="#8E68C0"/>
</svg>
