<svg width="20" height="21" viewBox="0 0 20 21" fill="none" xmlns="http://www.w3.org/2000/svg">
<path d="M10 0.9375C8.10872 0.9375 6.25991 1.49833 4.68736 2.54907C3.11482 3.59981 1.88917 5.09327 1.16541 6.84059C0.441643 8.58791 0.252274 10.5106 0.621245 12.3656C0.990216 14.2205 1.90096 15.9244 3.2383 17.2617C4.57564 18.599 6.27951 19.5098 8.13445 19.8788C9.9894 20.2477 11.9121 20.0584 13.6594 19.3346C15.4067 18.6108 16.9002 17.3852 17.9509 15.8126C19.0017 14.2401 19.5625 12.3913 19.5625 10.5C19.5595 7.96478 18.5511 5.53425 16.7584 3.74158C14.9658 1.94891 12.5352 0.940477 10 0.9375ZM10 18.9375C8.33122 18.9375 6.69992 18.4426 5.31238 17.5155C3.92484 16.5884 2.84338 15.2706 2.20477 13.7289C1.56616 12.1871 1.39907 10.4906 1.72463 8.85393C2.05019 7.21721 2.85379 5.71379 4.03379 4.53379C5.2138 3.35378 6.71722 2.55019 8.35393 2.22462C9.99064 1.89906 11.6871 2.06615 13.2289 2.70477C14.7706 3.34338 16.0884 4.42484 17.0155 5.81238C17.9427 7.19992 18.4375 8.83122 18.4375 10.5C18.435 12.737 17.5453 14.8817 15.9635 16.4635C14.3817 18.0453 12.237 18.935 10 18.9375ZM15.8125 10.5C15.8125 10.6492 15.7532 10.7923 15.6478 10.8977C15.5423 11.0032 15.3992 11.0625 15.25 11.0625H10C9.85082 11.0625 9.70775 11.0032 9.60226 10.8977C9.49677 10.7923 9.4375 10.6492 9.4375 10.5V5.25C9.4375 5.10082 9.49677 4.95774 9.60226 4.85225C9.70775 4.74676 9.85082 4.6875 10 4.6875C10.1492 4.6875 10.2923 4.74676 10.3978 4.85225C10.5032 4.95774 10.5625 5.10082 10.5625 5.25V9.9375H15.25C15.3992 9.9375 15.5423 9.99676 15.6478 10.1023C15.7532 10.2077 15.8125 10.3508 15.8125 10.5Z" fill="#5D4181"/>
</svg>
