<svg width="30" height="24" viewBox="0 0 30 24" fill="none" xmlns="http://www.w3.org/2000/svg">
<path d="M29 22.25H27.75V7C27.75 6.80109 27.671 6.61032 27.5303 6.46967C27.3897 6.32902 27.1989 6.25 27 6.25H19C18.8011 6.25 18.6103 6.32902 18.4697 6.46967C18.329 6.61032 18.25 6.80109 18.25 7V12.25H11.75V1C11.75 0.801088 11.671 0.610322 11.5303 0.46967C11.3897 0.329018 11.1989 0.25 11 0.25H3C2.80109 0.25 2.61032 0.329018 2.46967 0.46967C2.32902 0.610322 2.25 0.801088 2.25 1V22.25H1C0.801088 22.25 0.610322 22.329 0.46967 22.4697C0.329018 22.6103 0.25 22.8011 0.25 23C0.25 23.1989 0.329018 23.3897 0.46967 23.5303C0.610322 23.671 0.801088 23.75 1 23.75H29C29.1989 23.75 29.3897 23.671 29.5303 23.5303C29.671 23.3897 29.75 23.1989 29.75 23C29.75 22.8011 29.671 22.6103 29.5303 22.4697C29.3897 22.329 29.1989 22.25 29 22.25ZM19.75 7.75H26.25V22.25H19.75V7.75ZM18.25 13.75V22.25H11.75V13.75H18.25ZM3.75 1.75H10.25V22.25H3.75V1.75ZM7.75 5V7C7.75 7.19891 7.67098 7.38968 7.53033 7.53033C7.38968 7.67098 7.19891 7.75 7 7.75C6.80109 7.75 6.61032 7.67098 6.46967 7.53033C6.32902 7.38968 6.25 7.19891 6.25 7V5C6.25 4.80109 6.32902 4.61032 6.46967 4.46967C6.61032 4.32902 6.80109 4.25 7 4.25C7.19891 4.25 7.38968 4.32902 7.53033 4.46967C7.67098 4.61032 7.75 4.80109 7.75 5ZM7.75 11V13C7.75 13.1989 7.67098 13.3897 7.53033 13.5303C7.38968 13.671 7.19891 13.75 7 13.75C6.80109 13.75 6.61032 13.671 6.46967 13.5303C6.32902 13.3897 6.25 13.1989 6.25 13V11C6.25 10.8011 6.32902 10.6103 6.46967 10.4697C6.61032 10.329 6.80109 10.25 7 10.25C7.19891 10.25 7.38968 10.329 7.53033 10.4697C7.67098 10.6103 7.75 10.8011 7.75 11ZM7.75 17V19C7.75 19.1989 7.67098 19.3897 7.53033 19.5303C7.38968 19.671 7.19891 19.75 7 19.75C6.80109 19.75 6.61032 19.671 6.46967 19.5303C6.32902 19.3897 6.25 19.1989 6.25 19V17C6.25 16.8011 6.32902 16.6103 6.46967 16.4697C6.61032 16.329 6.80109 16.25 7 16.25C7.19891 16.25 7.38968 16.329 7.53033 16.4697C7.67098 16.6103 7.75 16.8011 7.75 17ZM14.25 19V17C14.25 16.8011 14.329 16.6103 14.4697 16.4697C14.6103 16.329 14.8011 16.25 15 16.25C15.1989 16.25 15.3897 16.329 15.5303 16.4697C15.671 16.6103 15.75 16.8011 15.75 17V19C15.75 19.1989 15.671 19.3897 15.5303 19.5303C15.3897 19.671 15.1989 19.75 15 19.75C14.8011 19.75 14.6103 19.671 14.4697 19.5303C14.329 19.3897 14.25 19.1989 14.25 19ZM22.25 19V17C22.25 16.8011 22.329 16.6103 22.4697 16.4697C22.6103 16.329 22.8011 16.25 23 16.25C23.1989 16.25 23.3897 16.329 23.5303 16.4697C23.671 16.6103 23.75 16.8011 23.75 17V19C23.75 19.1989 23.671 19.3897 23.5303 19.5303C23.3897 19.671 23.1989 19.75 23 19.75C22.8011 19.75 22.6103 19.671 22.4697 19.5303C22.329 19.3897 22.25 19.1989 22.25 19ZM22.25 13V11C22.25 10.8011 22.329 10.6103 22.4697 10.4697C22.6103 10.329 22.8011 10.25 23 10.25C23.1989 10.25 23.3897 10.329 23.5303 10.4697C23.671 10.6103 23.75 10.8011 23.75 11V13C23.75 13.1989 23.671 13.3897 23.5303 13.5303C23.3897 13.671 23.1989 13.75 23 13.75C22.8011 13.75 22.6103 13.671 22.4697 13.5303C22.329 13.3897 22.25 13.1989 22.25 13Z" fill="#FFF"/>
</svg>
