<svg width="26" height="24" viewBox="0 0 26 24" fill="none" xmlns="http://www.w3.org/2000/svg">
<path d="M26 2V18C26 18.5304 25.7893 19.0391 25.4142 19.4142C25.0392 19.7893 24.5305 20 24 20H7.37503L3.30004 23.52L3.28879 23.5287C2.92883 23.8339 2.47196 24.001 2.00004 24C1.70663 23.9995 1.4169 23.9346 1.15128 23.81C0.805791 23.6508 0.513478 23.3954 0.309313 23.0744C0.105147 22.7534 -0.00222636 22.3804 3.49965e-05 22V2C3.49965e-05 1.46957 0.210749 0.960859 0.585821 0.585786C0.960894 0.210714 1.4696 0 2.00004 0H24C24.5305 0 25.0392 0.210714 25.4142 0.585786C25.7893 0.960859 26 1.46957 26 2Z" fill="#5D4181"/>
</svg>
