<svg width="22" height="20" viewBox="0 0 22 20" fill="none" xmlns="http://www.w3.org/2000/svg">
<path d="M20.9375 13.4887C20.7263 13.7281 20.4666 13.9197 20.1757 14.051C19.8847 14.1822 19.5692 14.2501 19.25 14.25L14 14.25L14 15.75C14 16.7446 13.6049 17.6984 12.9017 18.4016C12.1984 19.1049 11.2446 19.5 10.25 19.5C10.1107 19.5001 9.97406 19.4614 9.8555 19.3882C9.73693 19.315 9.6411 19.2102 9.57875 19.0856L6.03687 12L2 12C1.60217 12 1.22064 11.842 0.939339 11.5607C0.658034 11.2794 0.499999 10.8978 0.499999 10.5L0.499998 2.25C0.499998 1.85217 0.658034 1.47064 0.939338 1.18934C1.22064 0.908035 1.60217 0.75 2 0.75L18.125 0.749998C18.6732 0.74981 19.2025 0.94974 19.6137 1.31224C20.0249 1.67475 20.2896 2.17489 20.3581 2.71875L21.4831 11.7187C21.523 12.0356 21.495 12.3573 21.4009 12.6625C21.3068 12.9677 21.1488 13.2493 20.9375 13.4887ZM2 10.5L5.75 10.5L5.75 2.25L2 2.25L2 10.5ZM19.9944 11.9062L18.8694 2.90625C18.8465 2.72496 18.7583 2.55825 18.6212 2.43741C18.4842 2.31658 18.3077 2.24994 18.125 2.25L7.25 2.25L7.25 11.0728L10.6916 17.9569C11.2016 17.8548 11.6606 17.5791 11.9903 17.1767C12.32 16.7744 12.5001 16.2702 12.5 15.75L12.5 13.5C12.5 13.3011 12.579 13.1103 12.7197 12.9697C12.8603 12.829 13.0511 12.75 13.25 12.75L19.25 12.75C19.3564 12.75 19.4616 12.7274 19.5587 12.6837C19.6557 12.6399 19.7423 12.576 19.8127 12.4962C19.8831 12.4164 19.9357 12.3225 19.967 12.2208C19.9984 12.1191 20.0077 12.0118 19.9944 11.9062Z" fill="#000305"/>
</svg>
