<svg width="19" height="24" viewBox="0 0 19 24" fill="none" xmlns="http://www.w3.org/2000/svg">
    <path d="M9.47356 1.66707C9.1577 1.96332 8.85601 2.51644 8.75275 2.98144C8.68594 3.28332 8.67379 3.46894 8.68594 3.98457C8.70416 4.72519 8.7892 7.02769 8.86411 8.84082C8.92283 10.2696 8.77098 11.4283 8.40247 12.3752C8.26276 12.7314 8.14735 12.9452 8.02587 13.0764C7.70596 13.4158 7.37188 13.8846 7.1451 14.3102C6.74825 15.0583 6.5397 15.8439 6.50123 16.7364L6.48706 17.0439L7.08234 17.0402L7.67761 17.0346L7.68976 16.7533C7.70596 16.4346 7.7991 15.8383 7.88819 15.4971C8.05421 14.8633 8.34375 14.2914 8.75275 13.7814C8.92283 13.5714 9.35613 13.1571 9.51608 13.0539L9.61327 12.9902L9.84814 13.2039C10.6115 13.8977 11.144 14.7621 11.3606 15.6583C11.4315 15.9564 11.5145 16.5208 11.5287 16.8058L11.5408 17.0439L12.13 17.0402L12.7192 17.0346L12.7132 16.7908C12.699 16.0652 12.535 15.3471 12.2353 14.6721C12.0004 14.1489 11.5874 13.5283 11.1926 13.1083C11.1318 13.0427 11.065 12.9489 11.0448 12.9021C11.0265 12.8552 10.9739 12.7333 10.9294 12.6321C10.6702 12.0489 10.4778 11.3158 10.3928 10.5752C10.3138 9.89832 10.3037 9.34144 10.3503 8.29707C10.3665 7.92582 10.3989 7.10269 10.4211 6.46894C10.4434 5.83519 10.4758 4.93707 10.494 4.47394C10.5285 3.56082 10.5183 3.33019 10.4394 2.98332C10.324 2.49207 10.0547 1.99707 9.73071 1.68019L9.59707 1.55082L9.47356 1.66707Z" fill="#FFFFFF"/>
    <path d="M2.90918 11.0064V18.3939H4.75777H6.60839L6.66509 18.5946C6.84326 19.2339 7.18545 19.8808 7.63089 20.4246C8.09658 20.9927 8.7688 21.5496 9.41267 21.9058L9.60704 22.0127L9.81357 21.9039C10.4919 21.5421 11.1398 21.0058 11.6318 20.3946C11.8626 20.1114 12.0003 19.8977 12.1744 19.5658C12.3546 19.2208 12.4437 18.9996 12.5409 18.6564L12.6138 18.3939H14.4644H16.313V11.0064V3.61894H16.2725C16.1429 3.61894 15.5396 4.00144 15.082 4.37644C14.4016 4.93144 13.7719 5.71707 13.367 6.51394C12.9843 7.26582 12.7353 8.13207 12.6401 9.04707C12.545 9.93582 12.5186 10.1664 12.4457 10.7158C12.3668 11.3158 12.2959 11.8877 12.2271 12.5083L12.1906 12.8402L12.4154 12.8477C12.6685 12.8571 12.792 12.8908 12.9965 13.0052C13.3994 13.2321 13.6201 13.6183 13.5593 13.9821C13.5047 14.3027 13.2678 14.5614 12.8142 14.7939C12.7677 14.8183 12.7333 14.8483 12.7373 14.8577C12.794 14.9796 12.9438 15.4914 12.9944 15.7258C13.0066 15.7914 13.0248 15.8439 13.0329 15.8439C13.0653 15.8439 13.4136 15.7071 13.5189 15.6527C13.9987 15.4014 14.3369 15.0564 14.5252 14.6252C14.6487 14.3458 14.6811 14.1789 14.6831 13.8377C14.6831 13.4646 14.6487 13.3202 14.4826 13.0033C14.2943 12.6452 14.0392 12.3789 13.6748 12.1558C13.5249 12.0639 13.4662 12.0171 13.446 11.9702C13.4196 11.9139 13.4277 11.8333 13.5189 11.1527C13.6221 10.3764 13.695 9.76145 13.7517 9.23457C13.7679 9.06957 13.8023 8.82957 13.8246 8.70019C13.9521 7.95957 14.2842 7.09894 14.679 6.48769C14.8208 6.26832 15.1548 5.79395 15.169 5.79395C15.1751 5.79395 15.1791 8.41707 15.1791 11.6252V17.4564H12.9013H10.6235V17.9252V18.3939H10.994C11.1985 18.3939 11.3706 18.3996 11.3767 18.4052C11.3949 18.4221 11.2795 18.8046 11.1904 19.0258C11.0183 19.4477 10.747 19.8771 10.425 20.2314C10.336 20.3289 10.2448 20.4264 10.2205 20.4452L10.178 20.4808L10.1821 18.8514L10.1881 17.2221L10.257 17.0927C10.3845 16.8508 10.6721 16.6446 11.0142 16.5452C11.1074 16.5189 11.1297 16.5039 11.1297 16.4721C11.1297 16.3258 11.0001 15.6077 10.9677 15.5739C10.9474 15.5552 10.7146 15.6246 10.5607 15.6958C10.4068 15.7671 10.0727 15.9771 9.81762 16.1608L9.60907 16.3127L9.37217 16.1402C9.10491 15.9471 8.82347 15.7708 8.65946 15.6939C8.50558 15.6227 8.27476 15.5552 8.25451 15.5739C8.22212 15.6058 8.07633 16.4046 8.08848 16.4946C8.08848 16.5002 8.15935 16.5302 8.24439 16.5583C8.59872 16.6783 8.84169 16.8583 8.9652 17.0927L9.03404 17.2221L9.03809 18.8439L9.04416 20.4658L8.91053 20.3383C8.66756 20.1039 8.38814 19.7271 8.20592 19.3914C8.05204 19.1064 7.80704 18.4389 7.84551 18.4052C7.85159 18.3996 8.02369 18.3939 8.22819 18.3939H8.59872V17.9252V17.4564H6.32088H4.04304V11.6252C4.04304 8.41707 4.04709 5.79395 4.05114 5.79395C4.06329 5.79395 4.39737 6.27394 4.54922 6.50644C4.83471 6.94332 5.1202 7.60145 5.27813 8.18457C5.36925 8.5202 5.43201 8.90644 5.50086 9.54394C5.53528 9.85894 5.60817 10.4608 5.66486 10.8846C5.72155 11.3064 5.77217 11.7246 5.77622 11.8127C5.78837 12.0058 5.78837 12.0058 5.5211 12.1708C4.84079 12.5889 4.44191 13.3277 4.52898 14.0102C4.63629 14.8708 5.1445 15.4746 6.02324 15.7877C6.10828 15.8196 6.1832 15.8439 6.18927 15.8439C6.19534 15.8439 6.21357 15.7783 6.22774 15.6977C6.25811 15.5289 6.3715 15.1146 6.43224 14.9552C6.45451 14.8933 6.47273 14.8427 6.47273 14.8389C6.47273 14.8371 6.39782 14.7921 6.3067 14.7396C5.83089 14.4733 5.64866 14.2239 5.65474 13.8471C5.65879 13.5677 5.76205 13.3671 5.99692 13.1664C6.26014 12.9452 6.47273 12.8608 6.80277 12.8477C6.99917 12.8402 7.01942 12.8364 7.01942 12.8046C7.01942 12.7314 6.87363 11.5052 6.78657 10.8377C6.67521 9.98269 6.64281 9.71644 6.60434 9.29082C6.5274 8.48644 6.40794 7.91644 6.17915 7.28457C5.68308 5.90457 4.77195 4.75332 3.52065 3.92457C3.27363 3.76144 3.01244 3.61894 2.95575 3.61894H2.90918V11.0064Z" fill="#FFFFFF"/>
</svg>
