<svg width="32" height="32" viewBox="0 0 32 32" fill="none" xmlns="http://www.w3.org/2000/svg">
<path d="M16 0.0625C12.8479 0.0625 9.76651 0.997218 7.14561 2.74845C4.5247 4.49969 2.48195 6.98879 1.27568 9.90098C0.0694052 12.8132 -0.24621 16.0177 0.368742 19.1093C0.983694 22.2008 2.50159 25.0406 4.73049 27.2695C6.95939 29.4984 9.79918 31.0163 12.8908 31.6313C15.9823 32.2462 19.1868 31.9306 22.099 30.7243C25.0112 29.5181 27.5003 27.4753 29.2516 24.8544C31.0028 22.2335 31.9375 19.1521 31.9375 16C31.9325 11.7746 30.2518 7.72375 27.264 4.73597C24.2763 1.74818 20.2254 0.0674623 16 0.0625ZM16.9375 30.0312V19.4375H21C21.2486 19.4375 21.4871 19.3387 21.6629 19.1629C21.8387 18.9871 21.9375 18.7486 21.9375 18.5C21.9375 18.2514 21.8387 18.0129 21.6629 17.8371C21.4871 17.6613 21.2486 17.5625 21 17.5625H16.9375V13.5C16.9375 12.7541 17.2338 12.0387 17.7613 11.5113C18.2887 10.9838 19.0041 10.6875 19.75 10.6875H22.25C22.4986 10.6875 22.7371 10.5887 22.9129 10.4129C23.0887 10.2371 23.1875 9.99864 23.1875 9.75C23.1875 9.50136 23.0887 9.2629 22.9129 9.08709C22.7371 8.91127 22.4986 8.8125 22.25 8.8125H19.75C18.5068 8.8125 17.3145 9.30636 16.4354 10.1854C15.5564 11.0645 15.0625 12.2568 15.0625 13.5V17.5625H11C10.7514 17.5625 10.5129 17.6613 10.3371 17.8371C10.1613 18.0129 10.0625 18.2514 10.0625 18.5C10.0625 18.7486 10.1613 18.9871 10.3371 19.1629C10.5129 19.3387 10.7514 19.4375 11 19.4375H15.0625V30.0312C11.4222 29.788 8.01896 28.1395 5.57142 25.4339C3.12387 22.7283 1.82365 19.1774 1.94533 15.531C2.06701 11.8847 3.60107 8.42831 6.22355 5.89189C8.84602 3.35546 12.3516 1.93753 16 1.93753C19.6484 1.93753 23.154 3.35546 25.7765 5.89189C28.3989 8.42831 29.933 11.8847 30.0547 15.531C30.1764 19.1774 28.8761 22.7283 26.4286 25.4339C23.9811 28.1395 20.5778 29.788 16.9375 30.0312Z" fill="#E6F7FE"/>
</svg>
