<svg width="25" height="24" viewBox="0 0 25 24" fill="none" xmlns="http://www.w3.org/2000/svg">
<path d="M17.1875 7.5C17.1875 7.35082 17.2468 7.20774 17.3523 7.10225C17.4577 6.99676 17.6008 6.9375 17.75 6.9375H20.75C20.8992 6.9375 21.0423 6.99676 21.1477 7.10225C21.2532 7.20774 21.3125 7.35082 21.3125 7.5C21.3125 7.64918 21.2532 7.79226 21.1477 7.89775C21.0423 8.00324 20.8992 8.0625 20.75 8.0625H17.75C17.6008 8.0625 17.4577 8.00324 17.3523 7.89775C17.2468 7.79226 17.1875 7.64918 17.1875 7.5ZM4.25 8.0625H14.1875V9.75C14.1875 9.89918 14.2468 10.0423 14.3523 10.1477C14.4577 10.2532 14.6008 10.3125 14.75 10.3125C14.8992 10.3125 15.0423 10.2532 15.1477 10.1477C15.2532 10.0423 15.3125 9.89918 15.3125 9.75V5.25C15.3125 5.10082 15.2532 4.95774 15.1477 4.85225C15.0423 4.74676 14.8992 4.6875 14.75 4.6875C14.6008 4.6875 14.4577 4.74676 14.3523 4.85225C14.2468 4.95774 14.1875 5.10082 14.1875 5.25V6.9375H4.25C4.10082 6.9375 3.95774 6.99676 3.85225 7.10225C3.74676 7.20774 3.6875 7.35082 3.6875 7.5C3.6875 7.64918 3.74676 7.79226 3.85225 7.89775C3.95774 8.00324 4.10082 8.0625 4.25 8.0625ZM20.75 15.9375H11.75C11.6008 15.9375 11.4577 15.9968 11.3523 16.1023C11.2468 16.2077 11.1875 16.3508 11.1875 16.5C11.1875 16.6492 11.2468 16.7923 11.3523 16.8977C11.4577 17.0032 11.6008 17.0625 11.75 17.0625H20.75C20.8992 17.0625 21.0423 17.0032 21.1477 16.8977C21.2532 16.7923 21.3125 16.6492 21.3125 16.5C21.3125 16.3508 21.2532 16.2077 21.1477 16.1023C21.0423 15.9968 20.8992 15.9375 20.75 15.9375ZM8.75 13.6875C8.60082 13.6875 8.45774 13.7468 8.35225 13.8523C8.24676 13.9577 8.1875 14.1008 8.1875 14.25V15.9375H4.25C4.10082 15.9375 3.95774 15.9968 3.85225 16.1023C3.74676 16.2077 3.6875 16.3508 3.6875 16.5C3.6875 16.6492 3.74676 16.7923 3.85225 16.8977C3.95774 17.0032 4.10082 17.0625 4.25 17.0625H8.1875V18.75C8.1875 18.8992 8.24676 19.0423 8.35225 19.1477C8.45774 19.2532 8.60082 19.3125 8.75 19.3125C8.89918 19.3125 9.04226 19.2532 9.14775 19.1477C9.25324 19.0423 9.3125 18.8992 9.3125 18.75V14.25C9.3125 14.1008 9.25324 13.9577 9.14775 13.8523C9.04226 13.7468 8.89918 13.6875 8.75 13.6875Z" fill="#02344A"/>
</svg>
