<svg width="40" height="40" viewBox="0 0 40 40" fill="none" xmlns="http://www.w3.org/2000/svg">
<path d="M38.75 32.8125H37.1875V20C37.1875 19.4198 36.957 18.8634 36.5468 18.4532C36.1366 18.043 35.5802 17.8125 35 17.8125H25.9375V7.5C25.9375 6.91984 25.707 6.36344 25.2968 5.9532C24.8866 5.54297 24.3302 5.3125 23.75 5.3125H8.75C8.16984 5.3125 7.61344 5.54297 7.2032 5.9532C6.79297 6.36344 6.5625 6.91984 6.5625 7.5V32.8125H5C4.75136 32.8125 4.5129 32.9113 4.33709 33.0871C4.16127 33.2629 4.0625 33.5014 4.0625 33.75C4.0625 33.9986 4.16127 34.2371 4.33709 34.4129C4.5129 34.5887 4.75136 34.6875 5 34.6875H38.75C38.9986 34.6875 39.2371 34.5887 39.4129 34.4129C39.5887 34.2371 39.6875 33.9986 39.6875 33.75C39.6875 33.5014 39.5887 33.2629 39.4129 33.0871C39.2371 32.9113 38.9986 32.8125 38.75 32.8125ZM35 19.6875C35.0829 19.6875 35.1624 19.7204 35.221 19.779C35.2796 19.8376 35.3125 19.9171 35.3125 20V32.8125H25.9375V19.6875H35ZM8.4375 7.5C8.4375 7.41712 8.47042 7.33763 8.52903 7.27903C8.58763 7.22042 8.66712 7.1875 8.75 7.1875H23.75C23.8329 7.1875 23.9124 7.22042 23.971 7.27903C24.0296 7.33763 24.0625 7.41712 24.0625 7.5V32.8125H20.9375V25C20.9375 24.7514 20.8387 24.5129 20.6629 24.3371C20.4871 24.1613 20.2486 24.0625 20 24.0625H12.5C12.2514 24.0625 12.0129 24.1613 11.8371 24.3371C11.6613 24.5129 11.5625 24.7514 11.5625 25V32.8125H8.4375V7.5ZM19.0625 32.8125H13.4375V25.9375H19.0625V32.8125ZM11.5625 15C11.5625 14.7514 11.6613 14.5129 11.8371 14.3371C12.0129 14.1613 12.2514 14.0625 12.5 14.0625H15.3125V11.25C15.3125 11.0014 15.4113 10.7629 15.5871 10.5871C15.7629 10.4113 16.0014 10.3125 16.25 10.3125C16.4986 10.3125 16.7371 10.4113 16.9129 10.5871C17.0887 10.7629 17.1875 11.0014 17.1875 11.25V14.0625H20C20.2486 14.0625 20.4871 14.1613 20.6629 14.3371C20.8387 14.5129 20.9375 14.7514 20.9375 15C20.9375 15.2486 20.8387 15.4871 20.6629 15.6629C20.4871 15.8387 20.2486 15.9375 20 15.9375H17.1875V18.75C17.1875 18.9986 17.0887 19.2371 16.9129 19.4129C16.7371 19.5887 16.4986 19.6875 16.25 19.6875C16.0014 19.6875 15.7629 19.5887 15.5871 19.4129C15.4113 19.2371 15.3125 18.9986 15.3125 18.75V15.9375H12.5C12.2514 15.9375 12.0129 15.8387 11.8371 15.6629C11.6613 15.4871 11.5625 15.2486 11.5625 15Z" fill="#002238"/>
</svg>
