<svg width="26" height="25" viewBox="0 0 26 25" fill="none" xmlns="http://www.w3.org/2000/svg">
<path d="M11.875 16.2351V16.1136C11.8835 15.321 11.9624 14.6903 12.1115 14.2216C12.2649 13.7528 12.4822 13.3736 12.7635 13.0838C13.0447 12.794 13.3835 12.5298 13.7798 12.2912C14.0355 12.1293 14.2656 11.9482 14.4702 11.7479C14.6747 11.5476 14.8366 11.3175 14.956 11.0575C15.0753 10.7976 15.1349 10.5099 15.1349 10.1946C15.1349 9.81534 15.0455 9.48722 14.8665 9.21023C14.6875 8.93324 14.4489 8.72017 14.1506 8.57102C13.8565 8.41761 13.5284 8.34091 13.1662 8.34091C12.8381 8.34091 12.5249 8.40909 12.2266 8.54545C11.9283 8.68182 11.6811 8.89489 11.4851 9.18466C11.2891 9.47017 11.1761 9.83878 11.1463 10.2905H9.20312C9.23295 9.52344 9.42685 8.87571 9.7848 8.3473C10.1428 7.81463 10.6158 7.41193 11.2038 7.1392C11.7962 6.86648 12.4503 6.73011 13.1662 6.73011C13.9503 6.73011 14.6364 6.87713 15.2244 7.17116C15.8125 7.46094 16.2685 7.8679 16.5923 8.39205C16.9205 8.91193 17.0845 9.51918 17.0845 10.2138C17.0845 10.6911 17.0099 11.1214 16.8608 11.505C16.7116 11.8842 16.4986 12.223 16.2216 12.5213C15.9489 12.8196 15.6207 13.0838 15.2372 13.3139C14.875 13.5398 14.581 13.7741 14.3551 14.017C14.1335 14.2599 13.9716 14.5476 13.8693 14.88C13.767 15.2124 13.7116 15.6236 13.7031 16.1136V16.2351H11.875ZM12.8402 20.1214C12.4908 20.1214 12.1903 19.9979 11.9389 19.7507C11.6875 19.4993 11.5618 19.1967 11.5618 18.843C11.5618 18.4936 11.6875 18.1953 11.9389 17.9482C12.1903 17.6967 12.4908 17.571 12.8402 17.571C13.1854 17.571 13.4837 17.6967 13.7351 17.9482C13.9908 18.1953 14.1186 18.4936 14.1186 18.843C14.1186 19.0774 14.0589 19.2926 13.9396 19.4886C13.8246 19.6804 13.6712 19.8338 13.4794 19.9489C13.2876 20.0639 13.0746 20.1214 12.8402 20.1214Z" fill="#02344A"/>
<circle cx="13" cy="12.5" r="12" stroke="#02344A"/>
</svg>
