<svg width="32" height="32" viewBox="0 0 32 32" fill="none" xmlns="http://www.w3.org/2000/svg">
<path d="M16 8.8125C14.5784 8.8125 13.1888 9.23404 12.0068 10.0238C10.8249 10.8136 9.90362 11.9361 9.35962 13.2495C8.81561 14.5628 8.67327 16.008 8.95061 17.4022C9.22794 18.7964 9.91248 20.0771 10.9177 21.0823C11.9229 22.0875 13.2036 22.7721 14.5978 23.0494C15.992 23.3267 17.4372 23.1844 18.7505 22.6404C20.0639 22.0964 21.1864 21.1751 21.9762 19.9932C22.766 18.8112 23.1875 17.4216 23.1875 16C23.185 14.0945 22.427 12.2678 21.0796 10.9204C19.7322 9.57303 17.9055 8.81498 16 8.8125ZM16 21.3125C14.9493 21.3125 13.9222 21.0009 13.0485 20.4172C12.1749 19.8334 11.494 19.0037 11.0919 18.033C10.6898 17.0623 10.5846 15.9941 10.7896 14.9636C10.9946 13.9331 11.5005 12.9865 12.2435 12.2435C12.9865 11.5005 13.9331 10.9946 14.9636 10.7896C15.9941 10.5846 17.0623 10.6898 18.033 11.0919C19.0037 11.494 19.8334 12.1749 20.4172 13.0485C21.0009 13.9222 21.3125 14.9493 21.3125 16C21.3125 17.409 20.7528 18.7602 19.7565 19.7565C18.7602 20.7528 17.409 21.3125 16 21.3125ZM23.5 0.0625H8.5C6.263 0.0649814 4.11833 0.954727 2.53653 2.53653C0.954727 4.11833 0.0649814 6.263 0.0625 8.5V23.5C0.0649814 25.737 0.954727 27.8817 2.53653 29.4635C4.11833 31.0453 6.263 31.935 8.5 31.9375H23.5C25.737 31.935 27.8817 31.0453 29.4635 29.4635C31.0453 27.8817 31.935 25.737 31.9375 23.5V8.5C31.935 6.263 31.0453 4.11833 29.4635 2.53653C27.8817 0.954727 25.737 0.0649814 23.5 0.0625ZM30.0625 23.5C30.0625 25.2405 29.3711 26.9097 28.1404 28.1404C26.9097 29.3711 25.2405 30.0625 23.5 30.0625H8.5C6.75952 30.0625 5.09032 29.3711 3.85961 28.1404C2.6289 26.9097 1.9375 25.2405 1.9375 23.5V8.5C1.9375 6.75952 2.6289 5.09032 3.85961 3.85961C5.09032 2.6289 6.75952 1.9375 8.5 1.9375H23.5C25.2405 1.9375 26.9097 2.6289 28.1404 3.85961C29.3711 5.09032 30.0625 6.75952 30.0625 8.5V23.5ZM25.6875 7.875C25.6875 8.18403 25.5959 8.48613 25.4242 8.74308C25.2525 9.00003 25.0085 9.2003 24.7229 9.31856C24.4374 9.43682 24.1233 9.46777 23.8202 9.40748C23.5171 9.34719 23.2387 9.19837 23.0201 8.97985C22.8016 8.76133 22.6528 8.48292 22.5925 8.17983C22.5322 7.87673 22.5632 7.56257 22.6814 7.27706C22.7997 6.99155 23 6.74752 23.2569 6.57583C23.5139 6.40414 23.816 6.3125 24.125 6.3125C24.5394 6.3125 24.9368 6.47712 25.2299 6.77015C25.5229 7.06317 25.6875 7.4606 25.6875 7.875Z" fill="#E6F7FE"/>
</svg>
