<svg width="1440" height="642" viewBox="0 0 1440 642" fill="none" xmlns="http://www.w3.org/2000/svg" xmlns:xlink="http://www.w3.org/1999/xlink">
<g clip-path="url(#clip0_3187_13645)">
<rect width="1440" height="642" fill="white"/>
<g filter="url(#filter0_f_3187_13645)">
<path d="M1486.5 195.999C1629.27 195.999 1664.5 -31.5111 1664.5 -174.001C1664.5 -316.49 2004.81 -402.931 1807.5 -494.501C1715.93 -536.997 1645.03 -525.648 1549 -494.501C1320.89 -420.51 1228 -204.49 1228 -62.0009C1228 80.4885 1343.73 195.999 1486.5 195.999Z" fill="#52C7F9"/>
</g>
<g filter="url(#filter1_f_3187_13645)">
<path d="M788.544 14.009C867.062 -76.9814 933.485 -223.543 931.534 -343.712C925.32 -726.375 75.226 -377.188 -106.519 -40.3815C-261.187 246.248 -415.972 817.336 -91.1599 841.33C114.822 856.546 338.328 789.572 426.861 602.965C479.407 492.211 458.456 309.93 532.058 211.898C589.633 135.212 725.896 86.609 788.544 14.009Z" fill="#B5E7FD"/>
</g>
<g filter="url(#filter2_f_3187_13645)">
<circle cx="1320" cy="560" r="120" fill="#0094FF"/>
</g>
</g>
<defs>
<filter id="filter0_f_3187_13645" x="828" y="-922.279" width="1441.03" height="1518.28" filterUnits="userSpaceOnUse" color-interpolation-filters="sRGB">
<feFlood flood-opacity="0" result="BackgroundImageFix"/>
<feBlend mode="normal" in="SourceGraphic" in2="BackgroundImageFix" result="shape"/>
<feGaussianBlur stdDeviation="200" result="effect1_foregroundBlur_3187_13645"/>
</filter>
<filter id="filter1_f_3187_13645" x="-682.278" y="-910.768" width="2013.85" height="2154.18" filterUnits="userSpaceOnUse" color-interpolation-filters="sRGB">
<feFlood flood-opacity="0" result="BackgroundImageFix"/>
<feBlend mode="normal" in="SourceGraphic" in2="BackgroundImageFix" result="shape"/>
<feGaussianBlur stdDeviation="200" result="effect1_foregroundBlur_3187_13645"/>
</filter>
<filter id="filter2_f_3187_13645" x="900" y="140" width="840" height="840" filterUnits="userSpaceOnUse" color-interpolation-filters="sRGB">
<feFlood flood-opacity="0" result="BackgroundImageFix"/>
<feBlend mode="normal" in="SourceGraphic" in2="BackgroundImageFix" result="shape"/>
<feGaussianBlur stdDeviation="150" result="effect1_foregroundBlur_3187_13645"/>
</filter>
<pattern id="pattern0_3187_13645" patternContentUnits="objectBoundingBox" width="1" height="1">
<use xlink:href="#image0_3187_13645" transform="scale(0.001)"/>
</pattern>
<clipPath id="clip0_3187_13645">
<rect width="1440" height="642" fill="white"/>
</clipPath>
</defs>
</svg>
