<svg width="22" height="20" viewBox="0 0 22 20" fill="none" xmlns="http://www.w3.org/2000/svg">
<path d="M20.9375 6.51125C20.7263 6.27193 20.4666 6.08028 20.1757 5.94903C19.8847 5.81778 19.5692 5.74994 19.25 5.75H14V4.25C14 3.25544 13.6049 2.30161 12.9017 1.59835C12.1984 0.895088 11.2446 0.5 10.25 0.5C10.1107 0.4999 9.97406 0.538617 9.8555 0.611808C9.73693 0.684999 9.6411 0.789771 9.57875 0.914375L6.03687 8H2C1.60218 8 1.22064 8.15804 0.93934 8.43934C0.658035 8.72064 0.5 9.10218 0.5 9.5V17.75C0.5 18.1478 0.658035 18.5294 0.93934 18.8107C1.22064 19.092 1.60218 19.25 2 19.25H18.125C18.6732 19.2502 19.2025 19.0503 19.6137 18.6878C20.0249 18.3253 20.2896 17.8251 20.3581 17.2812L21.4831 8.28125C21.523 7.9644 21.495 7.64268 21.4009 7.3375C21.3068 7.03232 21.1488 6.75066 20.9375 6.51125ZM2 9.5H5.75V17.75H2V9.5Z" fill="#000305"/>
</svg>
