<svg width="131" height="30" viewBox="0 0 131 30" fill="none" xmlns="http://www.w3.org/2000/svg">
<path d="M2.4529 20.6055V27.4974H9.16576C10.3065 28.2107 11.5044 28.7977 12.7509 29.2586C11.7646 29.42 10.7639 29.4993 9.76045 29.4993H0.508789V20.0009C0.508789 18.9765 0.585998 17.955 0.740382 16.9453C1.18924 18.2192 1.76103 19.4432 2.4529 20.6055Z" fill="white"/>
<path d="M9.44611 3.46094H9.7549C10.8613 3.46094 11.9592 3.5754 13.0341 3.80142C8.81429 5.58016 5.46643 9.01731 3.73389 13.3497C3.51089 12.2461 3.39941 11.1248 3.39941 9.99474V9.666C4.16562 8.4156 5.06616 7.25324 6.08109 6.21124C7.09031 5.17511 8.22533 4.24758 9.44611 3.46094Z" fill="white"/>
<path d="M28.7494 0.5V9.99839C28.7494 11.0198 28.6722 12.0384 28.5206 13.0422C28.0718 11.7683 27.5 10.5414 26.8081 9.37612V2.49596H20.0981C18.9631 1.78858 17.7652 1.20152 16.5244 0.74069C17.5079 0.582188 18.5029 0.5 19.5006 0.5H28.7494Z" fill="white"/>
<path d="M25.5359 16.6504C25.756 17.7482 25.8646 18.8694 25.8646 19.9965V20.34C25.1013 21.5904 24.2007 22.7468 23.1915 23.7859C22.1823 24.822 21.053 25.7437 19.838 26.5304H19.5091C18.4113 26.5304 17.3192 26.4159 16.2471 26.1869C18.317 25.3122 20.221 24.009 21.8135 22.3682C23.4116 20.7303 24.681 18.7755 25.5359 16.6504Z" fill="white"/>
<path d="M14.5147 1.11641C12.9623 0.708411 11.3613 0.5 9.75166 0.5H0.5V9.99839C0.5 11.648 0.70302 13.2946 1.10614 14.8885C1.57787 16.7641 2.32406 18.5546 3.3247 20.2159C4.1052 21.5103 5.0286 22.7079 6.06927 23.7792C7.11279 24.8506 8.28216 25.8016 9.54582 26.6029C11.1697 27.6332 12.9251 28.3993 14.7606 28.8836C16.3073 29.2887 17.9025 29.4971 19.5064 29.4971H28.7581V19.9987C28.7581 18.3491 28.5551 16.7024 28.1548 15.1086C27.6831 13.2271 26.9341 11.4308 25.9335 9.76943C25.153 8.47794 24.2323 7.28037 23.1917 6.21195C22.1482 5.14059 20.976 4.19252 19.7152 3.39414C18.097 2.36388 16.3444 1.59778 14.5147 1.11641ZM9.75166 2.49596C11.4613 2.49596 13.151 2.75426 14.7749 3.26499C17.408 4.09272 19.8409 5.60142 21.8108 7.62379C23.7835 9.64322 25.253 12.144 26.0592 14.8562C26.5538 16.5175 26.8054 18.2464 26.8054 19.9987V27.5011H19.5064C17.8082 27.5011 16.1243 27.2428 14.5032 26.7292C9.09406 25.0238 4.87142 20.6914 3.20464 15.1438C2.70432 13.4766 2.44984 11.7448 2.44984 10.0013V2.49888H9.75166V2.49596Z" fill="white"/>
<path d="M14.6287 19.9542C17.294 19.9542 19.4546 17.736 19.4546 14.9996C19.4546 12.2632 17.294 10.0449 14.6287 10.0449C11.9634 10.0449 9.80273 12.2632 9.80273 14.9996C9.80273 17.736 11.9634 19.9542 14.6287 19.9542Z" fill="white"/>
<path d="M37.5453 22.0184C37.1507 21.8335 37.0021 21.3345 37.1823 20.9324C37.3938 20.5302 37.8769 20.3424 38.2715 20.5596C41.5364 23.1044 46.4653 22.3912 46.4967 19.7524C46.5282 18.4785 45.1359 17.5158 42.7458 16.9904C38.12 15.9337 37.5739 13.6677 37.6968 12.4584C37.8483 10.3773 40.0555 8.91849 42.9287 9.04471C44.5326 9.10635 45.8621 9.57305 47.1029 10.4419C47.526 10.6591 47.6775 11.1551 47.466 11.5279C47.2544 11.93 46.7712 12.1179 46.3767 11.9007C43.2919 9.63468 39.5437 10.7824 39.4208 12.6139C39.3007 13.2362 39.6924 14.7244 43.0803 15.4405C47.5546 16.4972 48.2207 18.546 48.2207 19.7553C48.2207 21.6808 46.5882 23.7296 42.9287 23.759C40.3585 23.7883 38.3315 22.579 37.5453 22.0184Z" fill="white"/>
<path d="M50.0361 16.4289C50.0361 12.393 53.241 9.07031 57.2035 9.07031C61.1346 9.07031 64.371 12.393 64.371 16.4289C64.371 20.4971 61.1346 23.7875 57.2035 23.7875C53.241 23.7875 50.0361 20.4971 50.0361 16.4289ZM62.7671 16.4289C62.7671 13.2618 60.2884 10.717 57.2035 10.717C54.1501 10.717 51.6686 13.2618 51.6686 16.4289C51.6686 19.5637 54.1473 22.1115 57.2035 22.1115C60.2855 22.1115 62.7671 19.5667 62.7671 16.4289Z" fill="white"/>
<path d="M74.8012 2.80137C74.8012 3.26807 74.4382 3.64084 73.9836 3.64084L73.5004 3.67314C70.8101 3.67314 68.48 5.31979 68.3599 9.10622H73.1087C73.5318 9.10622 73.8635 9.44671 73.8635 9.88113C73.8635 10.3155 73.5318 10.6883 73.1087 10.6883H68.3599V22.8577C68.3599 23.3244 67.9969 23.6972 67.5423 23.6972C67.0591 23.6972 66.7246 23.3244 66.7246 22.8577V9.38507C66.7246 3.98427 70.324 1.96484 73.4975 1.96484H73.9807C74.4381 1.96484 74.8012 2.33467 74.8012 2.80137Z" fill="white"/>
<path d="M84.9927 22.8568C84.9927 23.3235 84.6296 23.6962 84.175 23.6962H83.6918C80.5155 23.6962 76.9189 21.6475 76.9189 16.2437V2.80041C76.9189 2.33371 77.2505 1.96094 77.7366 1.96094C78.1911 1.96094 78.5543 2.33371 78.5543 2.80041V9.10234H83.303C83.7261 9.10234 84.0578 9.44281 84.0578 9.87722C84.0578 10.3439 83.7261 10.6844 83.303 10.6844H78.5543V16.2408C78.5543 20.2151 80.9444 21.985 83.6947 21.985L84.1778 22.0173C84.6296 22.0173 84.9927 22.3901 84.9927 22.8568Z" fill="white"/>
<path d="M87.0176 22.4846C87.0176 21.833 87.5322 21.3047 88.1669 21.3047C88.833 21.3047 89.3448 21.833 89.3448 22.4846C89.3448 23.1685 88.8302 23.7262 88.1669 23.7262C87.5322 23.7262 87.0176 23.1685 87.0176 22.4846Z" fill="white"/>
<path d="M93.49 9.84728V17.3292C93.49 19.9063 95.5455 22.0167 98.0557 22.0167C100.566 22.0167 102.621 19.9063 102.621 17.3292V9.84728C102.621 9.35123 102.985 9.00781 103.439 9.00781C103.894 9.00781 104.257 9.34829 104.257 9.84728V17.3292C104.257 20.8367 101.475 23.6927 98.0586 23.6927C94.6421 23.6927 91.8604 20.8367 91.8604 17.3292V9.84728C91.8604 9.35123 92.2234 9.00781 92.678 9.00781C93.1268 9.01075 93.49 9.35123 93.49 9.84728Z" fill="white"/>
<path d="M120.916 16.5541V16.5864V22.9206C120.916 23.3873 120.584 23.7278 120.161 23.7278C119.738 23.7278 119.406 23.3873 119.406 22.9206V20.6547C118.106 22.4246 116.11 23.7895 113.751 23.7895C109.789 23.7895 106.584 20.4991 106.584 16.4309C106.584 12.3949 109.789 9.07227 113.751 9.07227C117.682 9.07227 120.919 12.3949 120.919 16.4309V16.5541H120.916ZM119.315 16.4279C119.315 13.2608 116.836 10.716 113.751 10.716C110.698 10.716 108.188 13.2608 108.188 16.4279C108.188 19.5627 110.698 22.1105 113.751 22.1105C116.833 22.1105 119.315 19.5657 119.315 16.4279Z" fill="white"/>
</svg>
