<svg width="6103" height="1600" viewBox="0 0 6103 1600" fill="none" xmlns="http://www.w3.org/2000/svg">
<path d="M543.568 675.25C543.237 675.624 543.238 675.625 543.238 675.625L543.242 675.628L543.255 675.64L543.309 675.688L543.521 675.876L543.8 676.123C543.954 676.259 544.138 676.422 544.351 676.612C545.077 677.257 546.143 678.206 547.501 679.42C550.215 681.847 554.094 685.332 558.752 689.565C568.068 698.031 580.499 709.486 592.96 721.443C605.423 733.403 617.91 745.858 627.342 756.327C632.058 761.563 636.002 766.292 638.795 770.208C640.192 772.167 641.295 773.913 642.061 775.41C642.833 776.918 643.242 778.131 643.298 779.035C643.44 781.311 641.897 783.239 638.724 784.855C635.564 786.464 630.94 787.676 625.297 788.559C614.021 790.323 598.842 790.749 583.595 790.528C568.354 790.308 553.071 789.443 541.596 788.633C535.859 788.228 531.075 787.836 527.725 787.546C526.051 787.401 524.734 787.282 523.837 787.198C523.389 787.157 523.045 787.124 522.813 787.102L522.551 787.076L522.485 787.07L522.468 787.068L522.464 787.068C522.463 787.068 522.463 787.068 522.414 787.565L522.463 787.068L522.453 787.067L522.449 787.067L522.438 787.066L522.394 787.062L522.22 787.048C522.065 787.036 521.836 787.018 521.534 786.993C520.93 786.943 520.038 786.869 518.886 786.769C516.583 786.57 513.241 786.271 509.086 785.87C500.777 785.069 489.221 783.862 476.231 782.239C450.241 778.992 418.543 774.085 395.625 767.443C378.309 762.423 354.803 750.486 335.597 739.782C326.001 734.433 317.489 729.399 311.377 725.702C308.321 723.854 305.865 722.339 304.173 721.288C303.327 720.762 302.673 720.352 302.229 720.073C302.008 719.933 301.839 719.827 301.726 719.755L301.598 719.674L301.578 719.662C273.925 697.537 258.618 678.829 249.973 663.791C241.34 648.776 239.336 637.398 238.333 629.882C238.091 618.423 242.332 604.688 250.583 592.937C258.836 581.183 271.077 571.449 286.799 567.955L286.824 567.949L286.849 567.941C300.342 563.444 320.899 561.42 360.14 565.945L360.142 565.946L360.239 565.97C360.325 565.991 360.454 566.023 360.623 566.066C360.961 566.15 361.461 566.277 362.107 566.444C363.401 566.778 365.281 567.273 367.627 567.918C372.321 569.207 378.877 571.093 386.33 573.483C401.243 578.265 419.715 585.052 434.025 593.086C459.478 607.374 486.776 628.003 507.721 645.07C518.191 653.601 527.069 661.239 533.329 666.744C536.459 669.496 538.935 671.715 540.628 673.245C541.474 674.01 542.124 674.604 542.563 675.005C542.783 675.206 542.949 675.359 543.061 675.462L543.187 675.578L543.218 675.607L543.226 675.614L543.228 675.616C543.228 675.616 543.228 675.616 543.233 675.612L543.229 675.617L543.237 675.624L543.568 675.25ZM669.756 706.229L669.756 706.236L670.256 706.232C669.756 706.236 669.756 706.236 669.756 706.236V706.237L669.756 706.242L669.757 706.259L669.757 706.326L669.759 706.592C669.761 706.826 669.763 707.171 669.766 707.615C669.771 708.503 669.779 709.787 669.786 711.372C669.801 714.543 669.815 718.917 669.813 723.732C669.81 733.365 669.744 744.754 669.493 751.802C669.474 752.33 669.361 752.707 669.194 752.972C669.032 753.23 668.8 753.413 668.477 753.527C667.797 753.767 666.718 753.695 665.208 753.228C662.219 752.302 657.932 749.956 652.748 746.573C642.401 739.819 628.651 729.047 614.907 717.674C601.166 706.304 587.446 694.347 577.159 685.231C572.016 680.673 567.732 676.826 564.733 674.119C563.234 672.765 562.057 671.696 561.254 670.966C560.853 670.601 560.545 670.32 560.338 670.131L560.103 669.917L560.044 669.862L560.029 669.849L560.028 669.848L560.026 669.846L560.025 669.845L560.016 669.837L559.976 669.799L559.818 669.649C559.76 669.595 559.692 669.529 559.612 669.453C559.496 669.344 559.358 669.211 559.197 669.057C558.651 668.535 557.848 667.762 556.819 666.759C554.761 664.754 551.798 661.829 548.18 658.155C540.944 650.806 531.092 640.458 520.623 628.464C499.671 604.459 476.305 573.914 466.47 547.626C458.147 525.379 452.863 494.836 449.662 469.826C448.061 457.327 446.982 446.221 446.303 438.239C445.964 434.249 445.725 431.04 445.57 428.829C445.493 427.723 445.437 426.867 445.4 426.288C445.392 426.155 445.384 426.037 445.378 425.934C445.37 425.811 445.364 425.71 445.359 425.629L445.349 425.462L445.347 425.433L445.349 425.403L445.357 425.237C445.365 425.09 445.376 424.871 445.391 424.584C445.422 424.008 445.47 423.158 445.537 422.059C445.671 419.863 445.881 416.675 446.189 412.71C446.804 404.781 447.807 393.747 449.356 381.331C452.456 356.485 457.739 326.15 466.467 304.065C474.218 284.451 488.041 260.856 499.94 242.146C505.888 232.796 511.35 224.673 515.325 218.887C517.313 215.995 518.928 213.687 520.047 212.103C520.606 211.31 521.041 210.699 521.336 210.286C521.484 210.079 521.596 209.922 521.672 209.817L521.758 209.698L521.774 209.675C558.408 166.944 582.926 145.421 599.21 134.41C607.351 128.906 613.428 126.033 617.927 124.45C621.648 123.141 624.292 122.711 626.181 122.405C626.576 122.34 626.937 122.282 627.269 122.221C635.543 120.717 643.35 120.621 649.945 123.891C656.515 127.148 661.984 133.799 665.475 146.019L667.288 156.026L669.756 407.808C669.901 546.869 669.901 681.158 669.756 706.229Z" fill="white" stroke="white"/>
<path d="M715.557 644.598L715.557 644.597L715.572 644.447L715.583 644.297L715.583 644.297L715.584 644.289L715.587 644.252L715.6 644.091C715.611 643.946 715.629 643.726 715.653 643.434C715.701 642.85 715.773 641.978 715.871 640.848C716.066 638.587 716.36 635.293 716.755 631.192C717.545 622.983 718.735 611.566 720.333 598.74C723.563 572.834 728.35 542.109 734.637 520.369C739.139 504.803 750.291 482.582 760.98 463.36C766.213 453.95 771.146 445.592 774.771 439.585C776.581 436.585 778.061 434.18 779.083 432.533C779.57 431.747 779.953 431.135 780.217 430.713C801.224 404.52 818.4 390.724 831.369 383.252C843.602 376.204 852.682 374.427 859.019 373.54C866.895 373.572 877.25 376.662 886.48 383.157C895.83 389.737 903.032 399.096 905.595 410.654L905.762 411.408L906.006 412.141C909.471 422.561 911.743 440.412 907.458 478.264C907.392 478.524 907.312 478.839 907.217 479.207C906.901 480.435 906.426 482.243 905.804 484.511C904.559 489.053 902.734 495.409 900.425 502.628C895.735 517.286 889.314 534.642 882.025 547.655C868.382 572.012 848.422 598.547 831.557 619.291C823.181 629.592 815.681 638.329 810.282 644.483C807.584 647.558 805.415 649.984 803.928 651.631C803.185 652.455 802.613 653.084 802.231 653.502C802.04 653.711 801.897 653.867 801.804 653.969L801.701 654.08L801.679 654.104L801.676 654.107L801.675 654.109L801.557 654.236L801.442 654.367L802.135 654.978C801.442 654.367 801.442 654.367 801.442 654.367L801.439 654.37L801.429 654.381L801.385 654.431L801.204 654.636C801.043 654.819 800.801 655.092 800.484 655.45C799.85 656.165 798.914 657.219 797.714 658.564C795.314 661.254 791.863 665.103 787.669 669.728C779.274 678.987 767.939 691.314 756.13 703.649C744.275 716.03 732.133 728.219 722.079 737.296C719.109 739.978 716.415 742.302 714.038 744.235C714.013 744.085 713.989 743.932 713.965 743.777C712.402 733.761 711.955 719.588 712.172 704.52C712.386 689.649 713.231 674.657 714.029 663.331C714.427 657.682 714.811 652.975 715.095 649.689C715.237 648.047 715.354 646.762 715.434 645.893C715.474 645.458 715.506 645.128 715.527 644.91L715.55 644.667L715.555 644.61L715.557 644.598L715.557 644.598ZM1268.19 653.843C1268.21 653.861 1268.24 653.879 1268.26 653.896C1310.11 689.895 1330.39 713.324 1340.31 728.035C1345.24 735.337 1347.49 740.311 1348.59 743.446C1349.45 745.889 1349.68 747.281 1349.97 749.025C1350.04 749.505 1350.13 750.011 1350.23 750.573C1351.54 757.792 1351.02 761.826 1349.83 764.232C1348.97 765.981 1346.53 769.329 1337.41 772.061L1329.39 773.518L1079.47 775.973C940.706 776.118 806.818 776.118 781.869 775.973L781.768 775.972L781.667 775.973L781.666 775.973L781.663 775.973L781.647 775.973L781.582 775.974L781.321 775.976C781.091 775.977 780.75 775.979 780.311 775.982C779.432 775.988 778.159 775.995 776.586 776.002C773.439 776.017 769.1 776.031 764.325 776.03C762.048 776.029 759.689 776.025 757.324 776.015C763.58 767.122 772.223 756.149 781.548 744.854C792.749 731.288 804.562 717.701 813.6 707.48C818.113 702.376 821.921 698.126 824.597 695.155C825.935 693.67 826.99 692.506 827.707 691.716C828.066 691.32 828.34 691.019 828.524 690.817L828.682 690.642L828.73 690.591L828.812 690.505C828.931 690.379 829.115 690.185 829.362 689.927C829.854 689.411 830.596 688.639 831.565 687.642C833.504 685.648 836.351 682.757 839.938 679.217C847.121 672.129 857.228 662.484 868.925 652.253C892.805 631.364 921.574 609.595 945.128 600.763C965.656 593.066 994.718 587.941 1019.51 584.76C1031.73 583.192 1042.6 582.133 1050.41 581.467C1054.31 581.135 1057.44 580.901 1059.58 580.751C1060.65 580.676 1061.48 580.622 1062.02 580.587C1062.03 580.587 1062.03 580.587 1062.03 580.587C1062.57 580.616 1063.38 580.662 1064.44 580.726C1066.56 580.856 1069.66 581.061 1073.53 581.362C1081.27 581.964 1092.05 582.945 1104.16 584.46C1128.77 587.536 1157.49 592.653 1177.72 600.664C1195.93 607.877 1218.5 621.063 1237.04 632.884C1246.2 638.718 1254.15 644.081 1259.82 647.983C1262.65 649.932 1264.9 651.513 1266.44 652.6C1267.21 653.143 1267.8 653.563 1268.19 653.843ZM748.781 790.096C748.711 790.406 748.665 790.463 748.746 790.203C748.756 790.17 748.768 790.134 748.781 790.096ZM705.771 750.046C705.773 750.043 705.824 750.019 705.92 749.984C705.817 750.032 705.768 750.05 705.771 750.046Z" stroke="white" stroke-width="30"/>
<path d="M1128.17 970.08C1126.16 954.97 1120.14 924.253 1064.93 879.931C1064.93 879.931 1005.69 842.151 971.055 832.078C925.296 818.769 844.563 812.435 844.563 812.435C844.563 812.435 722.315 800.347 723.597 820.997C724.597 837.114 823.481 924.751 823.481 924.751C823.481 924.751 881.598 978.731 932.405 1007.35C961.016 1023.47 1006.19 1034.55 1006.19 1034.55C1045.34 1039.08 1065.92 1037.07 1079.48 1032.53C1111.1 1025.48 1128.67 993.248 1128.17 970.08Z" fill="white"/>
<path d="M900.782 1052.2C881.11 999.438 807.419 929.787 807.419 929.787C807.419 929.787 698.159 829.401 697.492 848.18C696.99 862.297 697.229 893.768 697.229 893.768C697.084 918.842 697.084 1053.13 697.229 1192.19L699.689 1444.02L701.507 1454.1C708.516 1478.74 723.593 1481.29 740.158 1478.27C747.709 1476.89 772.534 1476.15 845.593 1390.63C845.593 1390.63 885.295 1335.44 900.782 1296.12C918.227 1251.82 921.864 1174.57 921.864 1174.57C921.864 1174.57 917.414 1096.81 900.782 1052.2Z" fill="white"/>
<path d="M651.922 955.399L651.922 955.4L651.907 955.55L651.895 955.7L651.895 955.701L651.894 955.709L651.891 955.746L651.879 955.906C651.867 956.051 651.849 956.271 651.825 956.564C651.777 957.148 651.705 958.019 651.607 959.149C651.412 961.41 651.117 964.704 650.721 968.805C649.929 977.013 648.737 988.431 647.134 1001.26C643.898 1027.16 639.1 1057.88 632.8 1079.62C628.289 1095.19 617.113 1117.41 606.4 1136.63C601.156 1146.04 596.212 1154.4 592.579 1160.4C590.764 1163.4 589.281 1165.81 588.257 1167.45C587.769 1168.24 587.386 1168.85 587.12 1169.27C566.067 1195.47 548.85 1209.27 535.848 1216.74C523.578 1223.79 514.468 1225.57 508.112 1226.46C500.202 1226.43 489.811 1223.33 480.553 1216.83C471.176 1210.25 463.96 1200.89 461.394 1189.34L461.226 1188.58L460.981 1187.85C457.51 1177.44 455.232 1159.59 459.527 1121.74C459.593 1121.48 459.673 1121.17 459.768 1120.8C460.085 1119.57 460.561 1117.76 461.183 1115.5C462.431 1110.96 464.26 1104.6 466.575 1097.38C471.275 1082.72 477.709 1065.37 485.014 1052.36C498.687 1028 518.692 1001.47 535.594 980.722C543.989 970.421 551.505 961.683 556.917 955.529C559.621 952.454 561.795 950.029 563.284 948.381C564.029 947.558 564.602 946.929 564.985 946.511C565.177 946.301 565.32 946.145 565.414 946.044L565.516 945.932L565.539 945.908L565.542 945.905L565.543 945.904L565.661 945.776L565.776 945.645L564.481 944.501C565.776 945.645 565.776 945.645 565.777 945.645L565.779 945.643L565.789 945.631L565.833 945.581L566.015 945.376C566.176 945.194 566.418 944.921 566.736 944.563C567.372 943.847 568.31 942.793 569.512 941.448C571.918 938.759 575.377 934.909 579.58 930.284C587.993 921.025 599.354 908.698 611.19 896.363C623.07 883.982 635.24 871.793 645.316 862.715C648.319 860.01 651.039 857.669 653.437 855.726C653.464 855.891 653.491 856.058 653.517 856.228C655.084 866.242 655.531 880.412 655.314 895.479C655.099 910.35 654.252 925.341 653.453 936.666C653.054 942.316 652.669 947.022 652.384 950.308C652.242 951.95 652.125 953.235 652.044 954.104C652.004 954.539 651.973 954.869 651.952 955.087L651.928 955.33L651.923 955.386L651.922 955.398L651.922 955.399ZM97.9973 946.148C97.9712 946.129 97.946 946.111 97.9216 946.094C55.9818 910.093 35.6533 886.663 25.706 871.952C20.7688 864.65 18.514 859.677 17.4119 856.544C16.553 854.103 16.3238 852.713 16.0364 850.97C15.9573 850.49 15.8738 849.984 15.7715 849.421C14.4596 842.206 14.976 838.179 16.1655 835.78C17.0316 834.033 19.4792 830.677 28.6354 827.941L36.683 826.483L287.17 824.027C426.237 823.882 560.425 823.882 585.429 824.027L585.53 824.028L585.63 824.027L585.631 824.027L585.635 824.027L585.651 824.027L585.716 824.026L585.978 824.025C586.208 824.023 586.55 824.021 586.99 824.018C587.871 824.012 589.147 824.005 590.723 823.998C593.877 823.983 598.226 823.969 603.012 823.971C605.302 823.971 607.676 823.976 610.055 823.985C603.786 832.876 595.128 843.844 585.786 855.133C574.561 868.699 562.721 882.286 553.663 892.508C549.14 897.612 545.323 901.862 542.641 904.832C541.3 906.317 540.243 907.482 539.524 908.272C539.165 908.667 538.89 908.969 538.706 909.171L538.547 909.345L538.499 909.397L538.417 909.483C538.297 909.609 538.113 909.803 537.866 910.061C537.372 910.577 536.629 911.349 535.658 912.346C533.714 914.34 530.861 917.232 527.266 920.771C520.067 927.859 509.936 937.505 498.213 947.737C474.281 968.624 445.444 990.398 421.829 999.233C401.248 1006.93 372.116 1012.06 347.269 1015.24C335.019 1016.81 324.123 1017.87 316.294 1018.53C312.383 1018.87 309.247 1019.1 307.101 1019.25C306.029 1019.32 305.204 1019.38 304.655 1019.41C304.652 1019.41 304.649 1019.41 304.646 1019.41C304.103 1019.38 303.287 1019.34 302.225 1019.27C300.1 1019.14 296.992 1018.94 293.116 1018.64C285.354 1018.04 274.552 1017.05 262.41 1015.54C237.75 1012.46 208.957 1007.35 188.678 999.332C170.421 992.117 147.797 978.929 129.212 967.108C120.038 961.274 112.062 955.91 106.383 952.008C103.546 950.059 101.289 948.478 99.7493 947.391C98.9797 946.848 98.39 946.428 97.9973 946.148ZM618.625 809.896C618.694 809.586 618.74 809.529 618.66 809.788C618.65 809.821 618.638 809.857 618.625 809.896ZM661.671 849.959C661.67 849.962 661.619 849.985 661.522 850.021C661.624 849.973 661.673 849.956 661.671 849.959Z" stroke="white" stroke-width="30"/>
<path d="M1701.98 1121.64C1699.22 1120.66 1694.95 1118.67 1692.48 1117.22C1687.02 1114.02 1677.8 1104.51 1674.22 1098.38C1668.1 1087.9 1668.49 1106.4 1668.5 825.924L1668.51 527.385L1716.95 598.885L1765.39 588.945L1765.43 872.884C1765.46 1011.68 1765.14 1079.98 1764.43 1084.37C1762.02 1099.19 1752.11 1111.61 1736.75 1119.07C1729.42 1122.62 1728.38 1122.85 1717.99 1123.13C1709.4 1123.36 1705.9 1123.03 1701.98 1121.64H1701.98ZM2085.37 1121.13C2072.25 1116.55 2059.75 1103.68 2055.52 1090.4L2053.44 1083.88L2053.72 800.833L2053.99 517.781L2057.74 510.201C2064.58 496.348 2079.3 485.464 2094.34 483.136C2114.06 480.084 2132.78 489.098 2143.03 506.58C2150.09 518.624 2149.49 491.285 2149.47 804.169L2149.44 1086.88L2147.11 1092.55C2143.75 1100.74 2138.33 1107.59 2130.68 1113.35C2121.01 1120.63 2115.18 1122.64 2102.49 1123.08C2093.5 1123.39 2091.04 1123.11 2085.37 1121.13ZM2305.78 1121.93C2295.13 1118.6 2282.24 1107.78 2277.3 1098.01C2271.49 1086.5 2271.53 1087.26 2271.51 987.818C2271.5 926.075 2271.84 894.841 2272.59 890.818C2275.14 876.964 2285.33 864.255 2299.7 856.984C2306.73 853.43 2308.28 853.042 2317.2 852.612C2339.18 851.554 2354.3 860.456 2364.2 880.282L2367.99 887.884V988.384V1088.88L2365.3 1094.64C2363.81 1097.8 2360.23 1102.9 2357.33 1105.96C2345.3 1118.69 2335.07 1123.37 2319.49 1123.3C2314.27 1123.27 2308.1 1122.66 2305.78 1121.93ZM2781.49 1122.29C2756.31 1120.1 2725.76 1113.43 2701.99 1104.93C2673.93 1094.9 2637.92 1074.78 2611.49 1054.37C2598.65 1044.45 2577.67 1023.26 2574.18 1016.68C2572.33 1013.19 2571.03 1008.62 2570.26 1002.86C2568.18 987.279 2598.63 906.967 2608.51 896.137C2611.5 911.5 2619 910 2625.5 926C2630.37 938 2630.57 937.445 2637.75 941C2642 946 2644.26 953.03 2651.01 959.379C2684.58 990.986 2731.05 1016.51 2776.99 1024.04C2794.08 1026.84 2830.6 1026.56 2847.99 1023.49C2892.56 1015.62 2928 997.474 2966.81 962.644C2979.53 951.229 2988.46 947.418 3002.53 947.396C3022.26 947.365 3036.73 956.576 3046.16 975.153L3049.99 982.709V995.797C3049.99 1008.36 3049.87 1009.14 3046.89 1015.38C3042.53 1024.55 3036.48 1031.5 3022.84 1043.02C2996.91 1064.91 2977.69 1077.73 2950.99 1090.91C2914.03 1109.15 2878.63 1118.93 2837.19 1122.33C2822.63 1123.53 2795.57 1123.51 2781.49 1122.29ZM3462.68 1121.82C3455.56 1119.91 3449.8 1116.4 3443.89 1110.39C3438.64 1105.05 3432.26 1095.25 3430.25 1089.44C3428.62 1084.77 3427.89 799.536 3429.48 792.062C3432.27 778.939 3442.1 766.863 3455.53 760.074C3480.51 747.44 3507.27 756.948 3520.16 783.036L3523.99 790.78L3524.25 937.281C3524.54 1097.96 3524.87 1088.31 3518.7 1099.72C3513.79 1108.78 3500.17 1119.05 3489.19 1121.98C3482.56 1123.74 3469.53 1123.67 3462.68 1121.82ZM4131.49 1122.75C4096.08 1119.71 4066.98 1113.15 4037.99 1101.68C3982.26 1079.63 3934.19 1042.66 3896 992.464C3884.05 976.757 3868.59 949.39 3859.11 927.13C3850.1 906.002 3839.76 869.673 3837.04 849.593L3836.45 845.301L3843.09 850.389C3858.64 862.306 3874.38 866.896 3891.07 864.378C3905.34 862.226 3916.91 855.97 3927.81 844.505C3931.01 841.139 3933.83 838.385 3934.06 838.385C3934.3 838.385 3934.49 839.239 3934.49 840.283C3934.49 841.327 3936.11 848.64 3938.09 856.533C3948.72 898.924 3966.3 930.225 3996.46 960.434C4015.51 979.52 4033.11 992.233 4055.99 1003.44C4085.38 1017.84 4110.67 1024.15 4149.49 1026.78C4166.58 1026.28 4172.08 1025.71 4177.08 1028.25C4200.81 1023.78 4238.08 1043.5 4238.08 1063.78C4238.08 1080.05 4230.33 1097.7 4217.58 1107.28C4207.37 1114.96 4168.51 1122.7 4150.99 1122.93C4142.74 1123.04 4133.97 1122.96 4131.49 1122.75ZM4991.08 1122.28C4981.38 1119.52 4971.36 1111.35 4965.32 1101.99C4959.99 1093.75 4957.49 1085.09 4957.49 1074.88C4957.49 1058.91 4964.01 1046.11 4976.79 1036.99C4988.68 1028.51 4989.61 1028.28 5021.49 1025.94C5051.95 1023.7 5077.05 1016.91 5103.45 1003.77C5136.83 987.159 5158.86 969.178 5183.59 938.354C5199.45 918.594 5214.96 886.944 5221.87 860.212C5226.29 843.133 5229.49 819.059 5229.49 802.935C5229.49 789.416 5234.16 778.437 5244.02 768.752C5258.91 754.139 5280.82 750.362 5298.94 759.285C5311.62 765.526 5323.77 782.584 5325.45 796.52C5326.45 804.699 5324.99 835.216 5322.95 849.12C5317.83 884.009 5308.24 914.991 5293.46 944.452C5275.23 980.766 5246.44 1018.69 5219.5 1041.87C5193.78 1064 5178.9 1074.18 5153.24 1087.21C5117.33 1105.44 5087.29 1115.38 5051.49 1120.89C5037.22 1123.09 4997.35 1124.07 4991.08 1122.28ZM5414.49 1122.29C5397.46 1118.96 5379.83 1101.29 5375.89 1083.59C5372.52 1068.42 5375.16 1055.94 5387.08 1030.72C5390.16 1024.21 5441.05 915.185 5500.16 788.442C5559.27 661.699 5608.4 556.525 5609.32 554.723L5628.88 512.783L5637.08 553.783C5640.05 560.779 5661.2 576.875 5674.08 604.283C5686.96 631.692 5681.08 652.783 5680.82 653.425C5680.07 655.326 5613.4 795.9 5541.49 950.384C5504.5 1029.86 5472.91 1096.8 5471.3 1099.15C5458.29 1118.11 5437.16 1126.71 5414.49 1122.29ZM5912.83 1122.02C5901.19 1119.06 5890.86 1111.63 5883.51 1100.93C5881.64 1098.2 5876.2 1087.63 5871.43 1077.43C5866.65 1067.23 5852.51 1037.06 5840.01 1010.38C5827.51 983.71 5793.2 910.134 5763.77 846.885C5709.14 729.499 5690.21 688.9 5656.75 617.385C5636.41 573.929 5627.53 554.19 5625.51 548.003C5623.56 542.013 5624.66 523.322 5627.37 516.281C5633.92 499.276 5650.89 485.836 5669.16 483.186C5690.37 480.11 5709.02 488.815 5720.99 507.385C5723.3 510.96 5776.84 624.81 5839.98 760.385C5903.13 895.959 5959.18 1016.11 5964.54 1027.38C5975.45 1050.32 5978.39 1058.66 5979.17 1068.88C5980.17 1082.13 5974.99 1096.34 5965.69 1105.87C5959.92 1111.78 5949.68 1118.55 5942.99 1120.89C5936.48 1123.17 5919.78 1123.79 5912.83 1122.02ZM4567.99 1121.72C4559.58 1119.78 4548.54 1115.02 4545.04 1111.28C4544.93 1111.2 4560.12 1114.15 4564.44 1109.68C4584.21 1089.27 4588.9 1061.31 4576.73 1036.48C4574.17 1031.25 4570.66 1026.51 4564.76 1020.32L4547.06 1016.75L4554.08 1012.78L4562.21 1009.31C4570.1 1006.26 4588.27 1005.96 4596.49 1008.75C4628.25 1019.51 4645.16 1051.41 4635.55 1082.46C4630.14 1099.95 4614.08 1115.34 4595.56 1120.79C4590.47 1122.28 4573.32 1122.87 4567.99 1121.72ZM4959.49 1120.69C4944.79 1118.22 4920.28 1112.6 4910.29 1109.4C4873.47 1097.63 4832.65 1076.26 4806.68 1055.16C4796.28 1046.72 4770.9 1021.83 4762.03 1011.38C4739.32 984.638 4719.72 952.625 4708.07 923.25C4700.72 904.704 4691.25 867.69 4688.58 849.283L4685.99 815.885L4708.08 827.783C4723.14 840.068 4717.01 831.283 4734.5 831.283C4752.77 831.283 4749.77 831.702 4763.08 818.783L4781.04 798.783L4782.58 823.783L4785.11 843.385C4787.08 857.283 4798.65 890.136 4807.12 906.273C4825.51 941.276 4857.45 975.068 4891.88 995.923C4909.72 1006.73 4936.67 1017.13 4957.99 1021.42C4964.04 1022.64 5021.49 1025.94 5023.21 1025.81C5023.41 1025.98 4987.18 1037.77 4983.08 1041.78C4974.91 1049.77 4970.28 1047.18 4966.58 1057.28C4963.3 1066.23 4957.31 1073.15 4959.58 1082.78C4961.62 1091.45 4964.18 1101.47 4970.13 1108.28C4972.66 1111.17 4999.53 1122.95 4999.08 1122.88C4998.58 1123.28 4960.87 1120.92 4959.49 1120.69ZM4194.08 1107.28C4202.82 1096.6 4213.62 1096.39 4215.68 1085.38C4217.17 1077.46 4216.09 1063.1 4213.45 1055.53C4210.51 1047.09 4202.78 1035.72 4195.52 1029.15L4155.08 1027.17L4200.81 1021.56C4223.91 1016.87 4246.89 1007.8 4269.33 994.523C4286.8 984.184 4296.53 976.567 4311.54 961.493C4327.88 945.079 4340.25 929.061 4350.25 911.38C4358.65 896.521 4370.43 864.837 4373 850.208C4373.9 845.08 4377.54 789.783 4377.49 789.097C4377.42 788.031 4401.17 814.598 4404.58 818.283C4416.76 831.44 4413.37 834.635 4430.08 834.783C4445.3 834.918 4448.75 831.383 4460.08 822.283C4463.21 819.768 4474.61 805.283 4474.61 805.283C4474.61 805.283 4472.75 844.454 4468.97 864.715C4461.18 906.595 4444.25 946.664 4417.69 986.098C4398.91 1013.99 4360.03 1051.86 4330.49 1071.03C4307.33 1086.06 4273.34 1102.11 4249.19 1109.41C4236.94 1113.11 4214.08 1118.78 4202 1119.98L4150.99 1122.93L4194.08 1107.28ZM4542.73 1109.38C4537.08 1104.28 4529.61 1094.48 4525.79 1085.38C4523.28 1079.41 4523.06 1077.79 4523.03 1065.38C4522.99 1049.85 4524.43 1043.88 4530.51 1034.47C4534.29 1028.63 4542.74 1019.58 4547.06 1016.75C4550.08 1016.28 4562.21 1014.58 4567.08 1018.28C4575.62 1024.79 4584.04 1029.75 4588.08 1041.78C4590.16 1047.97 4593.08 1069.81 4593.08 1077.78C4593.08 1088.93 4590.39 1100.23 4585.58 1109.38C4581.86 1116.45 4552.75 1113.38 4549.77 1113.38C4548.66 1113.38 4545.08 1111.78 4542.73 1109.38ZM2549.87 989.58C2519.34 946.166 2501.19 901.672 2493.31 850.916C2490.72 834.165 2489.68 790.383 2491.43 771.614C2497.3 708.922 2522.51 648.605 2563.85 598.385C2574.37 585.597 2600.69 559.835 2611.99 551.254C2658.88 515.659 2709.36 493.635 2761.71 485.934C2820.31 477.315 2883.19 485.083 2934.32 507.257C2976.26 525.449 3028.53 562.502 3042.56 583.995C3052.55 599.307 3054.05 616.754 3046.72 632.385C3043.32 639.64 3032.73 650.226 3024.94 654.158C3013.39 659.991 2998.19 660.891 2986.36 656.445C2979.2 653.755 2968.53 646.221 2961.61 638.967C2945.2 621.773 2907.92 599.671 2879.71 590.413C2836.32 576.177 2783.86 576.183 2741.15 590.429C2707.79 601.554 2675.67 622.083 2649.49 649.017C2628.93 670.164 2621.21 681.173 2608.9 706.859C2588.4 749.628 2581.98 795.981 2590.03 843.115C2592.68 858.637 2593.01 870.637 2608.51 896.137L2624 922L2651.5 960L2617.08 951.829C2599.07 950.802 2596.87 954.371 2584.08 967.283C2571.5 979.988 2571.85 989.105 2570.72 1004.19L2587.87 1032.78L2549.87 989.58ZM5521.58 964.283C5525.66 955.102 5541.59 887.851 5545.6 879.783L5555.58 870.384H5676.78L5791.58 869.783L5807.49 886.283C5811.1 893.846 5819.03 906.383 5823.58 916.283C5828.13 926.183 5833.3 948.109 5838.58 959.283C5843.86 970.458 5829.58 974.545 5829.58 974.783C5829.58 975.021 5748.57 975.384 5676.55 975.384L5524.58 974.952L5521.58 964.283ZM2271.72 690.732L2271.99 519.885L2274.23 514.407C2280.91 498.069 2295.89 485.999 2313.01 483.163C2322.13 481.651 2333.72 483.388 2342.13 487.525C2350.57 491.684 2359.09 500.769 2364.16 511.036L2367.99 518.78L2368.25 690.309L2368.51 1066.88L2363.25 1020.09C2356.67 1013.67 2348.89 967.062 2340.49 963.978C2334.83 961.9 2332.24 930.478 2320.49 930.478C2310.11 930.478 2305.72 902.399 2301.49 903.799C2294.06 906.26 2284.21 884.546 2277.22 890.818L2271.45 1004.49L2271.72 690.732ZM3879.58 885.283C3865.4 882.492 3844.42 870.803 3837.85 854.783C3835.44 848.921 3834.6 773.62 3837.37 755.385C3845.43 702.257 3865.6 654.98 3899.43 609.916C3917.24 586.2 3932.73 570.401 3958.49 549.696C3990.3 524.13 4033.35 503.021 4075.37 492.395C4086.93 489.473 4151.08 482.283 4154.08 482.623C4156.41 482.623 4181.44 501.929 4177.08 506.783C4171.16 513.367 4138.59 521.238 4136.58 530.783C4132.25 551.337 4119.88 546.819 4136.58 562.283C4142.01 567.315 4157.16 578.735 4155.08 579.17C4129.08 579.651 4065.08 594.783 4056.91 601.848C4012.08 624.783 3971.35 664.893 3950.52 712.303C3938.23 740.267 3931.58 813.283 3935.87 847.283C3935.17 862.62 3933.35 859.339 3927.81 868.783C3918.6 884.507 3899.74 889.25 3879.58 885.283ZM4413.99 849.999C4406.27 848.121 4398.91 843.588 4392.56 836.796C4380.88 824.309 4379.27 819.32 4377.57 790.385C4375.68 758.101 4367.1 727.158 4352.32 699.385C4329.54 656.561 4295.73 623.544 4253.06 602.456C4224.02 588.109 4195.85 581.136 4160.02 579.433C4140.16 578.489 4135.88 577.25 4125.2 569.355C4105.79 555.004 4100.43 525.742 4113.48 505.399C4120.44 494.552 4133.65 485.564 4145.99 483.27C4149.89 482.545 4157.43 482.394 4167.49 482.837C4215.58 484.953 4251.69 494.018 4292.99 514.345C4351.32 543.049 4396.93 584.651 4429.94 639.269C4457.1 684.202 4472.12 734.255 4474.37 787.33C4475.26 808.528 4474.47 815.963 4470.41 824.206C4464.46 836.279 4449.96 847.498 4436.69 850.275C4429.98 851.681 4420.43 851.565 4413.99 849.999ZM4717.37 849.13C4705.28 844.912 4694.98 835.077 4688.79 821.853L4685.99 815.885L4685.73 668.651C4685.46 521.755 4685.46 521.403 4687.54 515.234C4691.27 504.169 4699.7 494.724 4711.95 487.869C4724.14 481.053 4741.82 480.823 4754.99 487.31C4763.34 491.418 4772.11 500.802 4777.16 511.036L4780.99 518.78L4781.26 663.744C4781.49 791.65 4781.34 809.424 4779.98 814.796C4776.11 830.104 4768.17 839.751 4753.78 846.655C4745.41 850.674 4744.51 850.883 4734.5 851.155C4725.62 851.396 4722.97 851.083 4717.37 849.13ZM1892.4 769.136C1876.75 763.68 1863.66 747.918 1861.42 731.84C1859.52 718.13 1862.2 706.708 1870 695.385C1872.85 691.245 1904.35 659.103 1956.73 606.885L2065.49 498.384L2091.49 541.156L2121.5 579.923L1988.68 712.604C1939.2 761.956 1937.62 763.424 1929.91 767.099C1922.36 770.7 1921.46 770.889 1910.49 771.156C1900.61 771.397 1898.06 771.113 1892.4 769.136ZM5305.58 768.752C5299.7 762.691 5288.87 763.047 5281.08 760.357C5271.28 756.974 5268.35 762.419 5258.58 765.783C5250.73 768.485 5248.5 768.806 5241.58 775.283L5229.49 802.935V644.232C5229.49 515.226 5229.32 519.728 5234.72 508.385C5237.87 501.764 5248.74 491.424 5256.52 487.647C5269.91 481.147 5286.15 481.054 5299.14 487.404C5312.11 493.746 5323.57 510.437 5325.54 525.885C5326.2 531.041 5326.46 574.861 5326.28 649.183L5325.45 796.52L5305.58 768.752ZM3428.49 671.521V579.385H3313.7C3189.04 579.385 3193.72 579.58 3181.96 573.888C3159.3 562.915 3149.53 531.783 3161.43 508.493C3166.97 497.664 3182.41 486.056 3194.36 483.742C3203.2 482.03 3476.86 481.783 3486.06 483.478C3502.3 486.471 3516.81 499.505 3522.41 516.157C3524.47 522.262 3524.49 523.483 3524.49 642.961L3524.04 815.783L3501.08 777.783C3494.48 771.669 3498.57 774.659 3490.08 771.783C3481.57 768.9 3479.03 770.69 3470.08 773.783C3462.23 776.496 3462.44 771.313 3455.53 777.783L3428.7 840.283L3428.49 671.521ZM1761.82 644.88C1683.52 566.743 1676.39 559.356 1673.6 553.445C1669.48 544.738 1668.14 537.547 1668.76 527.385C1669.62 513.05 1674.99 502.758 1686.24 493.876C1704.15 479.731 1725.11 478.797 1744.14 491.296C1749.16 494.593 1834.89 579.722 1886 632.152L1898.93 645.42L1886.39 658.152C1858.9 686.082 1854.69 691.449 1849.78 704.832C1848.96 707.061 1848 713.61 1847.64 719.385L1873.99 756.861L1761.82 644.88ZM3463.09 548.135C3462.72 518.674 3486.24 516.528 3484.1 510.662C3481.4 503.259 3499.61 494.847 3493.08 487.635L3341.85 482.385H3634.76C3711.15 482.385 3755.13 482.747 3758.6 483.405C3771.11 485.778 3782.27 493.7 3789.78 505.537C3807.24 533.049 3792.67 569.591 3760.95 577.853C3755.85 579.183 3740.8 579.385 3646.86 579.385H3428.41L3463.09 548.135Z" fill="white"/>
<rect x="1776.02" y="518.687" width="233.286" height="96.6734" transform="rotate(44.9567 1776.02 518.687)" fill="white"/>
</svg>
