<svg width="6106" height="1600" viewBox="0 0 6106 1600" fill="none" xmlns="http://www.w3.org/2000/svg">
<path d="M238.282 629.497C240.298 644.623 246.335 675.374 301.778 719.745C301.778 719.745 361.263 757.567 396.041 767.651C441.988 780.975 523.054 787.316 523.054 787.316C523.054 787.316 645.808 799.417 644.52 778.744C643.516 762.609 544.223 674.876 544.223 674.876C544.223 674.876 485.866 620.836 434.85 592.185C406.121 576.05 360.759 564.957 360.759 564.957C321.445 560.419 300.78 562.436 287.172 566.974C255.418 574.033 237.777 606.303 238.282 629.497Z" fill="#FDEB00"/>
<path d="M466.604 547.286C486.357 600.107 560.352 669.834 560.352 669.834C560.352 669.834 670.063 770.331 670.733 751.531C671.237 737.399 670.997 705.892 670.997 705.892C671.143 680.791 671.143 546.352 670.997 407.138L668.527 155.031L666.701 144.946C659.664 120.276 644.524 117.719 627.891 120.744C620.309 122.123 595.381 122.867 522.021 208.477C522.021 208.477 482.154 263.732 466.604 303.097C449.087 347.441 445.435 424.785 445.435 424.785C445.435 424.785 449.903 502.628 466.604 547.286Z" fill="#FDEB00"/>
<path d="M859.233 358.011C844.107 360.027 813.356 366.065 768.985 421.507C768.985 421.507 731.163 480.993 721.078 515.77C707.755 561.718 701.414 642.784 701.414 642.784C701.414 642.784 689.313 765.537 709.985 764.25C726.12 763.245 813.854 663.953 813.854 663.953C813.854 663.953 867.894 605.596 896.545 554.58C912.68 525.851 923.773 480.489 923.773 480.489C928.311 441.175 926.294 420.51 921.756 406.901C914.697 375.148 882.427 357.507 859.233 358.011Z" fill="#007DCF"/>
<path d="M941.443 586.334C888.623 606.086 818.896 680.082 818.896 680.082C818.896 680.082 718.399 789.793 737.199 790.463C751.331 790.967 782.837 790.727 782.837 790.727C807.938 790.872 942.378 790.872 1081.59 790.727L1333.7 788.257L1343.78 786.43C1368.45 779.393 1371.01 764.253 1367.99 747.621C1366.61 740.038 1365.86 715.111 1280.25 641.75C1280.25 641.75 1225 601.884 1185.63 586.334C1141.29 568.816 1063.94 565.164 1063.94 565.164C1063.94 565.164 986.101 569.633 941.443 586.334Z" fill="#007DCF"/>
<path d="M1130.72 970.504C1128.7 955.377 1122.66 924.626 1067.22 880.255C1067.22 880.255 1007.74 842.433 972.959 832.349C927.012 819.026 845.946 812.685 845.946 812.685C845.946 812.685 723.192 800.583 724.48 821.256C725.484 837.391 824.777 925.124 824.777 925.124C824.777 925.124 883.134 979.164 934.15 1007.82C962.879 1023.95 1008.24 1035.04 1008.24 1035.04C1047.55 1039.58 1068.22 1037.56 1081.83 1033.03C1113.58 1025.97 1131.22 993.698 1130.72 970.504Z" fill="#FDEB00"/>
<path d="M902.396 1052.71C882.643 999.894 808.648 930.166 808.648 930.166C808.648 930.166 698.937 829.669 698.267 848.469C697.763 862.602 698.003 894.108 698.003 894.108C697.857 919.209 697.857 1053.65 698.003 1192.86L700.473 1444.97L702.299 1455.05C709.336 1479.72 724.476 1482.28 741.109 1479.26C748.691 1477.88 773.619 1477.13 846.979 1391.52C846.979 1391.52 886.846 1336.27 902.396 1296.9C919.913 1252.56 923.565 1175.21 923.565 1175.21C923.565 1175.21 919.097 1097.37 902.396 1052.71Z" fill="#FDEB00"/>
<path d="M509.767 1241.99C524.893 1239.97 555.644 1233.94 600.015 1178.49C600.015 1178.49 637.837 1119.01 647.922 1084.23C661.245 1038.28 667.586 957.216 667.586 957.216C667.586 957.216 679.687 834.463 659.015 835.75C642.879 836.755 555.146 936.047 555.146 936.047C555.146 936.047 501.106 994.404 472.455 1045.42C456.32 1074.15 445.227 1119.51 445.227 1119.51C440.689 1158.83 442.706 1179.49 447.244 1193.1C454.303 1224.85 486.573 1242.49 509.767 1241.99Z" fill="#007DCF"/>
<path d="M427.557 1013.67C480.377 993.914 550.104 919.918 550.104 919.918C550.104 919.918 650.601 810.207 631.801 809.537C617.669 809.033 586.163 809.273 586.163 809.273C561.062 809.128 426.622 809.128 287.408 809.273L35.3011 811.743L25.2167 813.57C0.545867 820.607 -2.01079 835.747 1.01452 852.379C2.39366 859.962 3.13775 884.889 88.7477 958.25C88.7477 958.25 144.003 998.116 183.367 1013.67C227.711 1031.18 305.056 1034.84 305.056 1034.84C305.056 1034.84 382.899 1030.37 427.557 1013.67Z" fill="#007DCF"/>
<path d="M1704.98 1121.64C1702.22 1120.66 1697.95 1118.67 1695.48 1117.22C1690.02 1114.02 1680.8 1104.51 1677.22 1098.38C1671.1 1087.9 1671.49 1106.39 1671.5 825.923L1671.51 527.384L1719.95 598.884L1768.39 588.944L1768.43 872.884C1768.46 1011.68 1768.14 1079.98 1767.43 1084.36C1765.02 1099.19 1755.11 1111.61 1739.75 1119.07C1732.43 1122.62 1731.38 1122.85 1720.99 1123.13C1712.4 1123.36 1708.9 1123.03 1704.98 1121.64H1704.98ZM2088.37 1121.13C2075.25 1116.55 2062.75 1103.68 2058.52 1090.4L2056.44 1083.88L2056.72 800.832L2056.99 517.78L2060.74 510.2C2067.58 496.347 2082.3 485.463 2097.34 483.135C2117.06 480.083 2135.78 489.097 2146.03 506.579C2153.09 518.623 2152.49 491.284 2152.47 804.169L2152.44 1086.88L2150.11 1092.55C2146.75 1100.73 2141.33 1107.59 2133.68 1113.35C2124.01 1120.63 2118.19 1122.64 2105.49 1123.08C2096.5 1123.39 2094.04 1123.11 2088.37 1121.13ZM2308.78 1121.93C2298.13 1118.6 2285.24 1107.78 2280.3 1098.01C2274.49 1086.5 2274.53 1087.26 2274.51 987.817C2274.5 926.074 2274.84 894.84 2275.59 890.817C2278.14 876.963 2288.33 864.254 2302.7 856.983C2309.73 853.429 2311.28 853.041 2320.2 852.612C2342.18 851.553 2357.3 860.455 2367.2 880.281L2370.99 887.884V988.384V1088.88L2368.3 1094.64C2366.81 1097.8 2363.23 1102.89 2360.33 1105.96C2348.3 1118.69 2338.07 1123.37 2322.49 1123.3C2317.27 1123.27 2311.1 1122.66 2308.78 1121.93ZM2784.49 1122.28C2759.31 1120.1 2728.76 1113.43 2704.99 1104.93C2676.93 1094.9 2640.92 1074.78 2614.49 1054.37C2601.65 1044.45 2580.67 1023.26 2577.18 1016.68C2575.33 1013.19 2574.03 1008.62 2573.26 1002.86C2571.18 987.278 2601.63 906.966 2611.51 896.136C2614.5 911.499 2622 909.999 2628.5 925.999C2633.38 937.999 2633.57 937.444 2640.75 940.999C2645 945.999 2647.26 953.029 2654.01 959.378C2687.58 990.985 2734.05 1016.51 2779.99 1024.04C2797.08 1026.84 2833.6 1026.56 2850.99 1023.49C2895.56 1015.62 2931 997.473 2969.81 962.643C2982.53 951.228 2991.46 947.418 3005.53 947.395C3025.26 947.364 3039.73 956.575 3049.16 975.152L3052.99 982.708V995.796C3052.99 1008.36 3052.87 1009.14 3049.89 1015.38C3045.53 1024.55 3039.48 1031.49 3025.84 1043.02C2999.91 1064.91 2980.69 1077.73 2953.99 1090.9C2917.03 1109.15 2881.63 1118.93 2840.19 1122.33C2825.63 1123.53 2798.57 1123.51 2784.49 1122.28ZM3465.68 1121.82C3458.57 1119.91 3452.8 1116.4 3446.89 1110.38C3441.64 1105.05 3435.26 1095.25 3433.25 1089.44C3431.62 1084.77 3430.89 799.535 3432.48 792.061C3435.27 778.938 3445.1 766.862 3458.53 760.073C3483.51 747.439 3510.27 756.947 3523.16 783.035L3526.99 790.779L3527.26 937.28C3527.54 1097.96 3527.87 1088.31 3521.7 1099.72C3516.79 1108.78 3503.17 1119.05 3492.19 1121.98C3485.56 1123.74 3472.53 1123.67 3465.68 1121.82ZM4134.49 1122.75C4099.08 1119.71 4069.98 1113.15 4040.99 1101.68C3985.26 1079.63 3937.19 1042.66 3899 992.463C3887.05 976.756 3871.59 949.389 3862.11 927.129C3853.11 906.001 3842.76 869.672 3840.04 849.592L3839.45 845.3L3846.09 850.388C3861.64 862.305 3877.38 866.895 3894.07 864.377C3908.34 862.225 3919.91 855.969 3930.81 844.504C3934.01 841.138 3936.83 838.384 3937.06 838.384C3937.3 838.384 3937.49 839.238 3937.49 840.282C3937.49 841.326 3939.11 848.639 3941.09 856.532C3951.72 898.923 3969.31 930.224 3999.46 960.433C4018.51 979.519 4036.11 992.232 4058.99 1003.44C4088.38 1017.83 4113.67 1024.15 4152.49 1026.78C4169.58 1026.28 4175.08 1025.71 4180.08 1028.25C4203.82 1023.78 4241.08 1043.5 4241.08 1063.78C4241.08 1080.05 4233.33 1097.7 4220.58 1107.28C4210.37 1114.96 4171.51 1122.7 4153.99 1122.93C4145.74 1123.04 4136.97 1122.96 4134.49 1122.75ZM4994.08 1122.28C4984.38 1119.52 4974.36 1111.34 4968.32 1101.99C4962.99 1093.75 4960.49 1085.09 4960.49 1074.88C4960.49 1058.91 4967.01 1046.11 4979.79 1036.99C4991.68 1028.51 4992.61 1028.28 5024.49 1025.94C5054.95 1023.7 5080.05 1016.91 5106.45 1003.77C5139.83 987.158 5161.86 969.177 5186.6 938.353C5202.45 918.593 5217.96 886.943 5224.87 860.211C5229.29 843.132 5232.49 819.058 5232.49 802.934C5232.49 789.415 5237.16 778.436 5247.02 768.751C5261.91 754.138 5283.82 750.361 5301.94 759.284C5314.62 765.525 5326.77 782.583 5328.45 796.519C5329.45 804.698 5327.99 835.215 5325.95 849.119C5320.83 884.008 5311.24 914.99 5296.46 944.451C5278.24 980.765 5249.44 1018.69 5222.5 1041.87C5196.78 1064 5181.9 1074.18 5156.24 1087.21C5120.34 1105.44 5090.29 1115.38 5054.49 1120.89C5040.22 1123.09 5000.35 1124.07 4994.08 1122.28ZM5417.49 1122.29C5400.46 1118.96 5382.83 1101.29 5378.9 1083.59C5375.52 1068.42 5378.16 1055.94 5390.09 1030.71C5393.16 1024.21 5444.05 915.184 5503.16 788.441C5562.28 661.698 5611.4 556.524 5612.32 554.722L5631.88 512.782L5640.08 553.782C5643.05 560.778 5664.2 576.874 5677.08 604.282C5689.96 631.691 5684.08 652.782 5683.83 653.424C5683.07 655.325 5616.4 795.899 5544.49 950.384C5507.5 1029.86 5475.91 1096.8 5474.3 1099.15C5461.29 1118.11 5440.16 1126.71 5417.49 1122.29ZM5915.83 1122.02C5904.19 1119.06 5893.86 1111.63 5886.52 1100.93C5884.64 1098.2 5879.21 1087.63 5874.43 1077.43C5869.65 1067.23 5855.51 1037.06 5843.01 1010.38C5830.51 983.709 5796.2 910.133 5766.77 846.884C5712.14 729.498 5693.21 688.899 5659.75 617.384C5639.41 573.928 5630.53 554.189 5628.51 548.002C5626.56 542.012 5627.66 523.321 5630.37 516.28C5636.92 499.275 5653.89 485.835 5672.16 483.185C5693.37 480.109 5712.02 488.814 5723.99 507.384C5726.3 510.959 5779.84 624.809 5842.99 760.384C5906.13 895.958 5962.18 1016.11 5967.54 1027.38C5978.45 1050.32 5981.39 1058.66 5982.17 1068.88C5983.17 1082.12 5977.99 1096.33 5968.69 1105.87C5962.92 1111.78 5952.68 1118.55 5945.99 1120.89C5939.48 1123.17 5922.78 1123.79 5915.83 1122.02ZM4570.99 1121.72C4562.58 1119.78 4551.54 1115.02 4548.04 1111.28C4547.93 1111.2 4563.12 1114.15 4567.44 1109.68C4587.21 1089.27 4591.9 1061.31 4579.73 1036.48C4577.17 1031.25 4573.66 1026.51 4567.76 1020.31L4550.06 1016.75L4557.08 1012.78L4565.21 1009.31C4573.1 1006.26 4591.27 1005.96 4599.49 1008.75C4631.25 1019.51 4648.16 1051.41 4638.55 1082.46C4633.14 1099.95 4617.08 1115.34 4598.56 1120.79C4593.47 1122.28 4576.32 1122.86 4570.99 1121.72ZM4962.49 1120.69C4947.79 1118.22 4923.28 1112.6 4913.29 1109.4C4876.47 1097.63 4835.65 1076.26 4809.68 1055.16C4799.28 1046.72 4773.9 1021.83 4765.03 1011.38C4742.32 984.637 4722.72 952.624 4711.08 923.249C4703.72 904.703 4694.26 867.689 4691.58 849.282L4688.99 815.884L4711.08 827.782C4726.14 840.067 4720.01 831.282 4737.5 831.282C4755.77 831.282 4752.77 831.701 4766.08 818.782L4784.04 798.782L4785.58 823.782L4788.11 843.384C4790.08 857.282 4801.65 890.135 4810.12 906.272C4828.51 941.275 4860.46 975.067 4894.88 995.922C4912.72 1006.73 4939.67 1017.13 4960.99 1021.42C4967.04 1022.64 5024.49 1025.94 5026.21 1025.8C5026.41 1025.98 4990.18 1037.77 4986.08 1041.78C4977.91 1049.77 4973.28 1047.18 4969.58 1057.28C4966.3 1066.23 4960.31 1073.15 4962.58 1082.78C4964.62 1091.45 4967.18 1101.47 4973.13 1108.28C4975.66 1111.17 5002.54 1122.95 5002.08 1122.88C5001.58 1123.28 4963.87 1120.92 4962.49 1120.69ZM4197.08 1107.28C4205.82 1096.6 4216.62 1096.39 4218.68 1085.38C4220.17 1077.46 4219.09 1063.1 4216.45 1055.53C4213.51 1047.08 4205.78 1035.72 4198.52 1029.15L4158.08 1027.17L4203.82 1021.56C4226.91 1016.87 4249.89 1007.8 4272.33 994.522C4289.8 984.183 4299.53 976.566 4314.54 961.492C4330.88 945.078 4343.25 929.06 4353.25 911.379C4361.65 896.52 4373.43 864.836 4376 850.207C4376.9 845.079 4380.54 789.782 4380.49 789.096C4380.42 788.03 4404.17 814.597 4407.58 818.282C4419.76 831.439 4416.37 834.634 4433.08 834.782C4448.3 834.917 4451.75 831.382 4463.08 822.282C4466.21 819.768 4477.61 805.282 4477.61 805.282C4477.61 805.282 4475.75 844.453 4471.98 864.714C4464.18 906.594 4447.25 946.663 4420.69 986.097C4401.91 1013.99 4363.03 1051.86 4333.49 1071.03C4310.33 1086.06 4276.34 1102.11 4252.19 1109.41C4239.94 1113.11 4217.08 1118.78 4205 1119.98L4153.99 1122.93L4197.08 1107.28ZM4545.73 1109.38C4540.08 1104.28 4532.61 1094.48 4528.79 1085.38C4526.28 1079.41 4526.06 1077.79 4526.03 1065.38C4525.99 1049.85 4527.43 1043.88 4533.52 1034.47C4537.29 1028.63 4545.74 1019.58 4550.06 1016.75C4553.08 1016.28 4565.21 1014.58 4570.08 1018.28C4578.62 1024.78 4587.04 1029.75 4591.08 1041.78C4593.16 1047.97 4596.08 1069.81 4596.08 1077.78C4596.08 1088.93 4593.39 1100.22 4588.58 1109.38C4584.86 1116.45 4555.76 1113.38 4552.77 1113.38C4551.66 1113.38 4548.08 1111.78 4545.73 1109.38ZM2552.88 989.579C2522.34 946.165 2504.19 901.671 2496.31 850.915C2493.72 834.164 2492.68 790.382 2494.43 771.613C2500.3 708.921 2525.51 648.604 2566.85 598.384C2577.37 585.596 2603.69 559.834 2614.99 551.253C2661.88 515.658 2712.36 493.634 2764.71 485.933C2823.31 477.314 2886.19 485.082 2937.32 507.256C2979.27 525.449 3031.53 562.501 3045.56 583.994C3055.55 599.306 3057.05 616.753 3049.72 632.384C3046.32 639.639 3035.73 650.225 3027.94 654.157C3016.39 659.99 3001.19 660.89 2989.36 656.444C2982.2 653.754 2971.53 646.22 2964.61 638.966C2948.2 621.772 2910.92 599.67 2882.71 590.412C2839.33 576.176 2786.86 576.182 2744.15 590.428C2710.79 601.553 2678.67 622.082 2652.49 649.016C2631.93 670.163 2624.21 681.172 2611.9 706.858C2591.4 749.627 2584.98 795.98 2593.03 843.114C2595.68 858.636 2596.01 870.636 2611.51 896.136L2627 921.999L2654.5 959.999L2620.08 951.828C2602.07 950.801 2599.87 954.37 2587.08 967.282C2574.5 979.987 2574.85 989.104 2573.72 1004.19L2590.87 1032.78L2552.88 989.579ZM5524.58 964.282C5528.66 955.101 5544.59 887.85 5548.6 879.782L5558.58 870.384H5679.78L5794.58 869.782L5810.49 886.282C5814.1 893.845 5822.03 906.382 5826.58 916.282C5831.13 926.182 5836.3 948.108 5841.58 959.282C5846.86 970.457 5832.58 974.544 5832.58 974.782C5832.58 975.02 5751.57 975.384 5679.55 975.384L5527.58 974.951L5524.58 964.282ZM2274.72 690.731L2274.99 519.884L2277.23 514.406C2283.91 498.068 2298.89 485.998 2316.01 483.162C2325.13 481.65 2336.72 483.387 2345.13 487.524C2353.57 491.683 2362.09 500.768 2367.16 511.035L2370.99 518.779L2371.25 690.308L2371.51 1066.88L2366.25 1020.09C2359.67 1013.67 2351.89 967.061 2343.49 963.977C2337.83 961.899 2335.24 930.477 2323.49 930.477C2313.11 930.477 2308.72 902.398 2304.49 903.798C2297.06 906.259 2287.21 884.545 2280.22 890.817L2274.45 1004.49L2274.72 690.731ZM3882.58 885.282C3868.4 882.491 3847.43 870.802 3840.85 854.782C3838.44 848.92 3837.6 773.619 3840.37 755.384C3848.43 702.256 3868.6 654.979 3902.43 609.915C3920.24 586.199 3935.73 570.4 3961.49 549.695C3993.3 524.129 4036.35 503.021 4078.37 492.394C4089.93 489.472 4154.08 482.282 4157.08 482.622C4159.41 482.622 4184.44 501.928 4180.08 506.782C4174.16 513.366 4141.59 521.237 4139.58 530.782C4135.25 551.336 4122.88 546.818 4139.58 562.282C4145.01 567.314 4160.17 578.734 4158.08 579.169C4132.08 579.65 4068.08 594.782 4059.91 601.847C4015.08 624.782 3974.35 664.892 3953.52 712.302C3941.23 740.266 3934.58 813.282 3938.87 847.282C3938.17 862.619 3936.35 859.338 3930.81 868.782C3921.6 884.506 3902.74 889.249 3882.58 885.282ZM4416.99 849.998C4409.27 848.12 4401.91 843.587 4395.56 836.795C4383.88 824.308 4382.27 819.319 4380.57 790.384C4378.68 758.1 4370.1 727.157 4355.32 699.384C4332.54 656.56 4298.73 623.543 4256.06 602.455C4227.02 588.108 4198.85 581.135 4163.02 579.432C4143.16 578.488 4138.88 577.249 4128.2 569.354C4108.79 555.003 4103.43 525.741 4116.48 505.398C4123.44 494.551 4136.65 485.564 4148.99 483.269C4152.89 482.544 4160.43 482.393 4170.49 482.836C4218.58 484.952 4254.69 494.017 4295.99 514.344C4354.32 543.048 4399.93 584.65 4432.94 639.268C4460.1 684.201 4475.12 734.254 4477.37 787.329C4478.26 808.527 4477.47 815.962 4473.41 824.205C4467.47 836.278 4452.96 847.497 4439.69 850.274C4432.98 851.68 4423.43 851.564 4416.99 849.998ZM4720.37 849.129C4708.28 844.911 4697.98 835.076 4691.79 821.852L4688.99 815.884L4688.73 668.65C4688.46 521.754 4688.46 521.402 4690.54 515.233C4694.27 504.168 4702.7 494.723 4714.95 487.868C4727.14 481.052 4744.82 480.822 4757.99 487.309C4766.34 491.417 4775.11 500.801 4780.16 511.035L4783.99 518.779L4784.26 663.743C4784.49 791.649 4784.34 809.423 4782.98 814.795C4779.11 830.103 4771.17 839.75 4756.78 846.654C4748.41 850.673 4747.51 850.882 4737.5 851.154C4728.62 851.395 4725.97 851.082 4720.37 849.129ZM1895.4 769.135C1879.75 763.679 1866.66 747.917 1864.42 731.839C1862.52 718.129 1865.2 706.707 1873 695.384C1875.85 691.244 1907.35 659.102 1959.73 606.884L2068.49 498.383L2094.49 541.155L2124.5 579.922L1991.68 712.603C1942.2 761.955 1940.62 763.423 1932.91 767.098C1925.36 770.699 1924.46 770.888 1913.49 771.155C1903.61 771.396 1901.06 771.112 1895.4 769.135ZM5308.58 768.751C5302.7 762.69 5291.87 763.046 5284.08 760.356C5274.28 756.973 5271.35 762.418 5261.58 765.782C5253.74 768.484 5251.5 768.805 5244.58 775.282L5232.49 802.934V644.231C5232.49 515.225 5232.32 519.727 5237.72 508.384C5240.87 501.763 5251.74 491.423 5259.52 487.646C5272.91 481.146 5289.15 481.053 5302.14 487.403C5315.11 493.745 5326.57 510.436 5328.54 525.884C5329.2 531.04 5329.46 574.86 5329.28 649.182L5328.45 796.519L5308.58 768.751ZM3431.49 671.52V579.384H3316.7C3192.04 579.384 3196.72 579.579 3184.96 573.887C3162.3 562.914 3152.53 531.782 3164.43 508.492C3169.97 497.663 3185.41 486.055 3197.36 483.741C3206.2 482.029 3479.86 481.782 3489.06 483.477C3505.31 486.47 3519.81 499.504 3525.42 516.156C3527.47 522.261 3527.49 523.482 3527.49 642.96L3527.04 815.782L3504.08 777.782C3497.48 771.668 3501.57 774.658 3493.08 771.782C3484.57 768.899 3482.03 770.689 3473.08 773.782C3465.23 776.495 3465.44 771.312 3458.53 777.782L3431.7 840.282L3431.49 671.52ZM1764.82 644.879C1686.52 566.742 1679.39 559.355 1676.6 553.444C1672.48 544.737 1671.14 537.546 1671.76 527.384C1672.62 513.049 1677.99 502.757 1689.24 493.875C1707.15 479.73 1728.11 478.796 1747.14 491.295C1752.16 494.592 1837.89 579.722 1889 632.151L1901.93 645.419L1889.39 658.151C1861.9 686.081 1857.69 691.448 1852.78 704.831C1851.96 707.06 1851 713.609 1850.64 719.384L1876.99 756.86L1764.82 644.879ZM3466.09 548.134C3465.72 518.673 3489.24 516.527 3487.1 510.661C3484.4 503.258 3502.61 494.846 3496.08 487.634L3344.85 482.384H3637.76C3714.15 482.384 3758.13 482.746 3761.6 483.404C3774.11 485.777 3785.27 493.699 3792.78 505.536C3810.24 533.048 3795.67 569.59 3763.95 577.852C3758.85 579.182 3743.8 579.384 3649.86 579.384H3431.41L3466.09 548.134Z" fill="#007DCF"/>
<rect x="1779.02" y="518.688" width="233.286" height="96.6734" transform="rotate(44.9567 1779.02 518.688)" fill="#007DCF"/>
</svg>
