<svg width="24" height="25" viewBox="0 0 24 25" fill="none" xmlns="http://www.w3.org/2000/svg">
    <path d="M21.3459 5.30668C21.2785 5.25407 21.2 5.21752 21.1163 5.19981C21.0327 5.1821 20.9461 5.1837 20.8631 5.20449L15.0656 6.65387L9.25312 3.74762C9.13294 3.68767 8.99526 3.6727 8.865 3.70543L2.865 5.20543C2.7432 5.23554 2.63497 5.30551 2.55751 5.4042C2.48005 5.5029 2.43781 5.62466 2.4375 5.75012V19.2501C2.4375 19.3356 2.45699 19.42 2.49451 19.4969C2.53202 19.5738 2.58657 19.641 2.654 19.6936C2.72143 19.7463 2.79997 19.7828 2.88364 19.8005C2.96732 19.8182 3.05392 19.8166 3.13687 19.7957L8.93438 18.3464L14.7469 21.2526C14.8671 21.3126 15.0047 21.3275 15.135 21.2948L21.135 19.7948C21.2568 19.7647 21.365 19.6947 21.4425 19.596C21.52 19.4973 21.5622 19.3756 21.5625 19.2501V5.75012C21.5625 5.6646 21.543 5.58022 21.5054 5.50338C21.4679 5.42654 21.4134 5.35927 21.3459 5.30668ZM9.5625 5.16043L14.4375 7.59793V19.8398L9.5625 17.4023V5.16043ZM3.5625 6.19168L8.4375 4.97293V17.3114L3.5625 18.5301V6.19168ZM20.4375 18.8114L15.5625 20.0301V7.68887L20.4375 6.47012V18.8114Z" fill="#02344A"/>
</svg>
