<svg width="24" height="24" viewBox="0 0 24 24" fill="none" xmlns="http://www.w3.org/2000/svg">
<path d="M22.3529 4.25H17.4118V3C17.4118 2.27065 17.1391 1.57118 16.6537 1.05546C16.1683 0.539731 15.51 0.25 14.8235 0.25H9.17647C8.49003 0.25 7.8317 0.539731 7.34631 1.05546C6.86092 1.57118 6.58824 2.27065 6.58824 3V4.25H1.64706C1.21023 4.25 0.791296 4.43437 0.482412 4.76256C0.173529 5.09075 0 5.53587 0 6V22C0 22.4641 0.173529 22.9092 0.482412 23.2374C0.791296 23.5656 1.21023 23.75 1.64706 23.75H22.3529C22.7898 23.75 23.2087 23.5656 23.5176 23.2374C23.8265 22.9092 24 22.4641 24 22V6C24 5.53587 23.8265 5.09075 23.5176 4.76256C23.2087 4.43437 22.7898 4.25 22.3529 4.25ZM8 3C8 2.66848 8.12395 2.35054 8.34458 2.11612C8.56521 1.8817 8.86445 1.75 9.17647 1.75H14.8235C15.1355 1.75 15.4348 1.8817 15.6554 2.11612C15.8761 2.35054 16 2.66848 16 3V4.25H8V3ZM22.5882 22C22.5882 22.0663 22.5634 22.1299 22.5193 22.1768C22.4752 22.2237 22.4153 22.25 22.3529 22.25H1.64706C1.58465 22.25 1.52481 22.2237 1.48068 22.1768C1.43655 22.1299 1.41176 22.0663 1.41176 22V6C1.41176 5.9337 1.43655 5.87011 1.48068 5.82322C1.52481 5.77634 1.58465 5.75 1.64706 5.75H22.3529C22.4153 5.75 22.4752 5.77634 22.5193 5.82322C22.5634 5.87011 22.5882 5.9337 22.5882 6V22ZM15.5294 14C15.5294 14.1989 15.455 14.3897 15.3227 14.5303C15.1903 14.671 15.0107 14.75 14.8235 14.75H12.7059V17C12.7059 17.1989 12.6315 17.3897 12.4991 17.5303C12.3668 17.671 12.1872 17.75 12 17.75C11.8128 17.75 11.6332 17.671 11.5009 17.5303C11.3685 17.3897 11.2941 17.1989 11.2941 17V14.75H9.17647C8.98926 14.75 8.80972 14.671 8.67734 14.5303C8.54496 14.3897 8.47059 14.1989 8.47059 14C8.47059 13.8011 8.54496 13.6103 8.67734 13.4697C8.80972 13.329 8.98926 13.25 9.17647 13.25H11.2941V11C11.2941 10.8011 11.3685 10.6103 11.5009 10.4697C11.6332 10.329 11.8128 10.25 12 10.25C12.1872 10.25 12.3668 10.329 12.4991 10.4697C12.6315 10.6103 12.7059 10.8011 12.7059 11V13.25H14.8235C15.0107 13.25 15.1903 13.329 15.3227 13.4697C15.455 13.6103 15.5294 13.8011 15.5294 14Z" fill="white"/>
</svg>
