<svg width="247" height="167" viewBox="0 0 247 167" fill="none" xmlns="http://www.w3.org/2000/svg">
<g clip-path="url(#clip0_7196_8769)">
<path d="M225.522 58.4313C225.264 58.6441 225.006 58.8477 224.741 59.0482H159.518C159.033 58.8477 158.549 58.6421 158.067 58.4313C151.182 55.4252 144.773 51.4223 139.045 46.5504C135.242 43.3181 131.743 39.9808 129.207 36.8533C125.668 32.489 122.409 27.7329 120.893 22.3137C119.38 16.8946 119.832 10.6827 123.211 6.18881C124.258 4.80643 125.544 3.62472 127.008 2.70043C127.251 2.54621 127.497 2.39817 127.749 2.25937C131.801 -0.0230382 136.914 -0.578222 141.477 0.603079C148.01 2.29638 153.44 7.02467 157.314 12.5703C161.188 18.1129 163.703 24.4789 166.181 30.7741C168.696 19.5378 176.311 9.47363 186.599 4.35672C196.883 -0.760199 209.661 -0.698511 219.727 4.84404C222.894 6.59854 225.755 8.85918 228.197 11.5371C228.44 11.7992 228.677 12.0676 228.911 12.339C233.82 18.0419 236.892 25.3456 237.144 32.8776C237.467 42.5809 232.984 52.3274 225.522 58.4313Z" fill="#F2F2F2"/>
<path d="M162.126 59.048H161.203C161.191 58.8413 161.176 58.6377 161.157 58.4311C160.835 54.3966 160.16 50.3984 159.14 46.4824C156.801 37.5421 152.805 29.1233 147.362 21.6658C141.934 14.1844 135.091 7.84797 127.224 3.01787C127.166 2.9848 127.117 2.93899 127.079 2.88395C127.042 2.8289 127.018 2.76606 127.008 2.70019C126.993 2.61406 127.003 2.52541 127.036 2.44457C127.069 2.36374 127.125 2.29405 127.196 2.24362C127.267 2.19319 127.351 2.1641 127.438 2.15975C127.525 2.1554 127.612 2.17596 127.688 2.21903C127.709 2.2313 127.729 2.24468 127.749 2.25913C132.207 4.98461 136.344 8.20434 140.084 11.8576C146.774 18.4045 152.169 26.1624 155.983 34.7218C159.348 42.2182 161.409 50.2371 162.077 58.4311C162.095 58.6377 162.11 58.8444 162.126 59.048Z" fill="white"/>
<path d="M228.911 12.3388C228.904 12.3422 228.897 12.3443 228.889 12.345C228.216 12.4683 227.539 12.5979 226.869 12.7367C221.367 13.8702 215.981 15.5108 210.78 17.6377C205.592 19.7615 200.602 22.3419 195.868 25.3485C191.128 28.3536 186.659 31.7675 182.51 35.5515C178.361 39.3301 174.555 43.4711 171.137 47.9259C168.582 51.2636 166.26 54.7736 164.185 58.4311C164.069 58.6347 163.955 58.8413 163.841 59.048H162.787C162.897 58.8413 163.011 58.6347 163.128 58.4311C165.637 53.9495 168.515 49.6856 171.73 45.6836C175.286 41.2544 179.228 37.1515 183.509 33.4233C187.763 29.7161 192.328 26.385 197.154 23.4671C202 20.5374 207.094 18.0437 212.379 16.0153C217.507 14.0487 222.801 12.5498 228.197 11.5369C228.348 11.5091 228.495 11.4813 228.646 11.4536C229.221 11.3487 229.467 12.2185 228.911 12.3388Z" fill="white"/>
<path d="M61.277 60.8819C62.9172 57.7757 63.1879 53.7301 61.1485 50.8719C59.9345 49.1705 58.0389 48.0537 56.05 47.4237C54.061 46.7938 51.9628 46.6086 49.8827 46.4555C47.8236 46.304 45.7278 46.1827 43.7164 46.6499C41.7049 47.1171 39.7566 48.2584 38.7767 50.0816C37.1214 53.1614 38.6293 57.1106 37.4135 60.3901C36.2977 63.3998 33.1223 65.1593 30.0007 65.8693C26.8791 66.5794 23.621 66.5038 20.4978 67.207C17.3747 67.9102 14.1939 69.6534 13.0584 72.6556C12.2373 74.8265 12.6453 77.3272 13.7273 79.3799C14.8093 81.4326 16.5038 83.0944 18.3025 84.5558C20.9859 86.7359 24.1253 88.6031 27.5732 88.792C31.2062 88.9912 34.7584 87.2563 37.3732 84.7183C39.988 82.1802 41.7682 78.9005 43.1904 75.5409C44.0927 73.4096 44.9452 71.1159 46.7533 69.6767C48.0819 68.6192 49.7718 68.1559 51.4106 67.7176L53.2663 67.2214C54.9479 66.7801 56.5217 65.9982 57.8908 64.9239C59.2599 63.8497 60.3955 62.5057 61.2276 60.9748C61.2441 60.9439 61.2606 60.9129 61.277 60.8819Z" fill="#2F2E41"/>
<path d="M46.642 163.058H42.873L41.0796 148.473H46.643L46.642 163.058Z" fill="#FFB8B8"/>
<path d="M40.1805 161.978H47.4499V166.569H35.6035C35.6035 165.966 35.7219 165.369 35.9519 164.812C36.1819 164.255 36.5191 163.749 36.9441 163.322C37.3691 162.896 37.8737 162.558 38.429 162.327C38.9843 162.096 39.5795 161.978 40.1805 161.978Z" fill="#2F2E41"/>
<path d="M78.0024 163.058H74.2333L72.4399 148.473H78.0033L78.0024 163.058Z" fill="#FFB8B8"/>
<path d="M71.5409 161.978H78.8103V166.569H66.9639C66.9639 165.966 67.0823 165.369 67.3123 164.812C67.5423 164.255 67.8794 163.749 68.3044 163.322C68.7295 162.896 69.234 162.558 69.7893 162.327C70.3446 162.096 70.9398 161.978 71.5409 161.978Z" fill="#2F2E41"/>
<path d="M53.8878 151.466C53.8353 151.465 53.7827 151.463 53.7304 151.457L38.3955 149.809C38.1918 149.787 37.9951 149.722 37.8185 149.618C37.6419 149.513 37.4894 149.373 37.3712 149.205C37.2531 149.037 37.1719 148.846 37.133 148.644C37.0942 148.442 37.0987 148.235 37.1462 148.035L50.7241 96.2272C50.7877 95.9636 50.9234 95.723 51.116 95.5327C51.3086 95.3424 51.5504 95.2098 51.8141 95.15L64.4099 91.6277C64.6624 91.572 64.9252 91.585 65.1711 91.6654C65.4169 91.7458 65.6369 91.8906 65.8083 92.0848C73.9068 101.248 80.0097 121.562 84.6328 147.166C84.6677 147.36 84.663 147.558 84.619 147.749C84.575 147.941 84.4927 148.121 84.377 148.279C84.2613 148.438 84.1147 148.571 83.9461 148.671C83.7775 148.77 83.5904 148.835 83.3963 148.86L70.8314 150.469C70.475 150.515 70.1141 150.426 69.8199 150.219C69.5257 150.012 69.3194 149.702 69.2416 149.35L63.1283 122.008C63.0721 121.757 62.9314 121.532 62.7298 121.372C62.5281 121.212 62.2779 121.126 62.0208 121.129C61.7637 121.132 61.5155 121.224 61.3176 121.388C61.1197 121.553 60.9843 121.781 60.9338 122.034L55.2981 150.302C55.2343 150.63 55.0587 150.926 54.8013 151.138C54.544 151.35 54.221 151.466 53.8878 151.466Z" fill="#2F2E41"/>
<path d="M51.5553 67.9956C55.7258 67.9956 59.1066 64.604 59.1066 60.4202C59.1066 56.2364 55.7258 52.8447 51.5553 52.8447C47.3848 52.8447 44.0039 56.2364 44.0039 60.4202C44.0039 64.604 47.3848 67.9956 51.5553 67.9956Z" fill="#FFB8B8"/>
<path d="M51.3444 96.373C51.0269 96.3727 50.7185 96.2671 50.467 96.0727C50.2156 95.8783 50.0353 95.6059 49.9543 95.298L45.4114 78.1769C45.0835 76.9467 45.2193 75.6384 45.7928 74.5023C46.3663 73.3662 47.3372 72.4821 48.5198 72.0192C52.1766 70.5872 55.6606 70.056 58.8749 70.4396C61.7317 70.7812 65.2559 87.7484 65.0228 88.1104L66.1502 91.5031C66.2141 91.6955 66.237 91.8993 66.2174 92.1011C66.1977 92.303 66.136 92.4984 66.0362 92.6748C65.9364 92.8512 65.8008 93.0046 65.6381 93.125C65.4754 93.2454 65.2893 93.3301 65.0919 93.3737L51.6577 96.3384C51.5548 96.3613 51.4497 96.3729 51.3444 96.373Z" fill="#CCCCCC"/>
<path d="M55.4156 113.882C55.4803 113.545 55.4706 113.198 55.3872 112.865C55.3037 112.532 55.1485 112.222 54.9325 111.956C54.7165 111.69 54.445 111.474 54.1371 111.325C53.8292 111.175 53.4923 111.096 53.1503 111.091L50.533 103.173L47.8579 106.577L50.7535 113.574C50.7836 114.151 51.0237 114.697 51.4282 115.108C51.8328 115.519 52.3736 115.767 52.9483 115.805C53.5229 115.843 54.0915 115.669 54.5463 115.314C55.001 114.96 55.3104 114.45 55.4156 113.882Z" fill="#FFB8B8"/>
<path d="M89.0655 94.8539C88.9088 94.5489 88.6874 94.282 88.4168 94.0721C88.1461 93.8622 87.8329 93.7144 87.4992 93.6391C87.1655 93.5637 86.8194 93.5627 86.4852 93.6361C86.1511 93.7095 85.837 93.8555 85.5652 94.0638L78.6304 89.4614L78.624 93.7961L85.2104 97.5021C85.5895 97.937 86.1145 98.2173 86.6859 98.2898C87.2572 98.3624 87.8353 98.2222 88.3104 97.8958C88.7856 97.5694 89.125 97.0794 89.2641 96.5188C89.4033 95.9582 89.3326 95.3658 89.0655 94.8539Z" fill="#FFB8B8"/>
<path d="M49.9282 110.224C49.6249 110.224 49.3294 110.128 49.0835 109.95C48.8377 109.772 48.6541 109.52 48.5589 109.231L42.4231 96.2104C42.1714 95.4474 42.0433 94.6488 42.0435 93.845L43.8882 76.9209C43.8881 75.9733 44.2485 75.0614 44.8959 74.3714C45.5433 73.6814 46.4287 73.2653 47.3716 73.208C48.3144 73.1507 49.2435 73.4566 49.9691 74.0631C50.6948 74.6697 51.1623 75.5313 51.2763 76.4719L48.4539 95.7894L52.9577 107.646C53.029 107.961 52.9926 108.291 52.8544 108.584C52.7163 108.876 52.4843 109.113 52.1957 109.257L50.573 110.071C50.3728 110.172 50.1521 110.224 49.9282 110.224Z" fill="#CCCCCC"/>
<path d="M82.6983 96.5635C82.4724 96.5636 82.2496 96.5103 82.048 96.4081L69.8459 90.2249C69.1306 89.8628 68.4777 89.3879 67.9123 88.8183L56.0025 76.8319C55.3358 76.1608 54.9494 75.2597 54.9224 74.3125C54.8954 73.3654 55.2298 72.4436 55.8572 71.7354C56.4847 71.0271 57.3579 70.5858 58.2987 70.5016C59.2395 70.4173 60.1769 70.6964 60.9195 71.2819L73.821 85.6558L84.0478 92.1699C84.3202 92.3428 84.5269 92.6024 84.6347 92.9073C84.7424 93.2121 84.7451 93.5444 84.6421 93.8508L84.0656 95.5767C83.9694 95.8641 83.7857 96.114 83.5404 96.2911C83.2951 96.4681 83.0005 96.5634 82.6983 96.5635Z" fill="#CCCCCC"/>
<path d="M42.9658 56.5038C44.2485 58.1872 46.0924 59.3511 48.1603 59.7828C50.2563 60.2173 52.4377 59.9038 54.3278 58.8963C55.8486 58.072 57.0657 56.8348 58.2577 55.6167C58.7551 55.1083 59.285 54.522 59.26 53.8285C59.2212 52.754 57.9336 52.1666 56.8284 51.9323C53.2009 51.1731 49.4264 51.5989 46.0575 53.1474C44.5572 53.8466 42.9939 55.1115 43.2192 56.6839" fill="#2F2E41"/>
<path d="M241.273 58.4312H93.0807C91.6951 58.4331 90.3668 58.9862 89.387 59.9691C88.4073 60.952 87.856 62.2845 87.854 63.6745V121.043C87.856 122.433 88.4073 123.766 89.387 124.749C90.3668 125.732 91.6951 126.285 93.0807 126.287H241.273C242.659 126.285 243.987 125.732 244.967 124.749C245.947 123.766 246.498 122.433 246.5 121.043V63.6745C246.498 62.2845 245.947 60.952 244.967 59.9691C243.987 58.9862 242.659 58.4331 241.273 58.4312ZM245.885 121.043C245.883 122.27 245.397 123.446 244.532 124.313C243.668 125.18 242.496 125.668 241.273 125.67H93.0807C91.858 125.668 90.6859 125.18 89.8213 124.313C88.9568 123.446 88.4704 122.27 88.4689 121.043V63.6745C88.4704 62.448 88.9568 61.2721 89.8213 60.4047C90.6859 59.5374 91.858 59.0495 93.0807 59.048H241.273C242.496 59.0495 243.668 59.5374 244.532 60.4047C245.397 61.2721 245.883 62.448 245.885 63.6745V121.043Z" fill="#3F3D56"/>
<path d="M119.987 110.248C116.46 110.248 113.012 109.199 110.08 107.233C107.147 105.267 104.862 102.474 103.512 99.2048C102.163 95.936 101.809 92.339 102.497 88.8689C103.185 85.3987 104.884 82.2112 107.378 79.7093C109.872 77.2075 113.049 75.5037 116.508 74.8135C119.967 74.1232 123.553 74.4775 126.811 75.8315C130.07 77.1855 132.855 79.4784 134.814 82.4202C136.774 85.3621 137.819 88.8208 137.819 92.3589C137.814 97.1017 135.934 101.649 132.59 105.003C129.247 108.356 124.715 110.243 119.987 110.248ZM119.987 75.0866C116.582 75.0866 113.253 76.0996 110.422 77.9975C107.59 79.8954 105.383 82.593 104.08 85.7491C102.777 88.9052 102.436 92.3781 103.101 95.7285C103.765 99.079 105.405 102.157 107.813 104.572C110.22 106.988 113.288 108.633 116.628 109.299C119.968 109.966 123.43 109.624 126.576 108.316C129.722 107.009 132.411 104.795 134.303 101.955C136.195 99.1145 137.204 95.775 137.204 92.3589C137.199 87.7796 135.384 83.3893 132.156 80.1513C128.928 76.9132 124.552 75.0918 119.987 75.0866Z" fill="#3F3D56"/>
<path d="M228.049 80.9468H157.027C156.034 80.9474 155.08 81.3334 154.365 82.0239C153.65 82.7145 153.229 83.6559 153.19 84.6511C153.185 84.7013 153.183 84.7517 153.184 84.8022C153.185 85.8243 153.591 86.8041 154.311 87.5268C155.031 88.2495 156.008 88.6562 157.027 88.6576H228.049C229.068 88.6576 230.045 88.2514 230.766 87.5284C231.487 86.8054 231.892 85.8247 231.892 84.8022C231.892 83.7797 231.487 82.799 230.766 82.076C230.045 81.353 229.068 80.9468 228.049 80.9468Z" fill="#007DCF"/>
<path d="M228.049 96.0601H157.027C156.034 96.0606 155.08 96.4466 154.365 97.1372C153.65 97.8277 153.229 98.7692 153.19 99.7643C153.185 99.8145 153.183 99.865 153.184 99.9155C153.185 100.938 153.591 101.917 154.311 102.64C155.031 103.363 156.008 103.769 157.027 103.771H228.049C229.068 103.771 230.045 103.365 230.766 102.642C231.487 101.919 231.892 100.938 231.892 99.9155C231.892 98.893 231.487 97.9123 230.766 97.1893C230.045 96.4663 229.068 96.0601 228.049 96.0601Z" fill="#007DCF"/>
<path d="M117.998 100.175C117.5 100.176 117.016 100.015 116.618 99.7153L116.593 99.6967L111.396 95.7049C111.155 95.5199 110.953 95.2891 110.801 95.0258C110.65 94.7624 110.551 94.4717 110.511 94.1701C110.471 93.8686 110.491 93.5621 110.569 93.2682C110.648 92.9744 110.783 92.6988 110.967 92.4574C111.152 92.2159 111.382 92.0133 111.644 91.861C111.907 91.7087 112.197 91.6098 112.497 91.5698C112.798 91.5299 113.103 91.5498 113.396 91.6283C113.689 91.7068 113.964 91.8425 114.205 92.0275L117.571 94.617L125.526 84.2091C125.711 83.9677 125.941 83.7652 126.203 83.613C126.466 83.4608 126.756 83.362 127.056 83.3222C127.357 83.2824 127.662 83.3023 127.955 83.381C128.248 83.4596 128.523 83.5953 128.763 83.7804L128.714 83.8478L128.765 83.7814C129.25 84.1557 129.568 84.7078 129.648 85.3166C129.728 85.9254 129.564 86.5413 129.192 87.0291L119.835 99.2712C119.618 99.5533 119.34 99.7816 119.021 99.9383C118.703 100.095 118.353 100.176 117.998 100.175Z" fill="#007DCF"/>
<path d="M117.947 167H0.807453C0.725911 167 0.647709 166.968 0.590051 166.91C0.532392 166.852 0.5 166.774 0.5 166.692C0.5 166.61 0.532392 166.531 0.590051 166.474C0.647709 166.416 0.725911 166.383 0.807453 166.383H117.947C118.029 166.383 118.107 166.416 118.164 166.474C118.222 166.531 118.255 166.61 118.255 166.692C118.255 166.774 118.222 166.852 118.164 166.91C118.107 166.968 118.029 167 117.947 167Z" fill="#3F3D56"/>
<path d="M210.569 44.5361C204.147 43.6498 197.624 43.7974 191.248 44.9731C184.89 46.1391 178.752 48.292 173.055 51.3541C169.853 53.08 166.814 55.094 163.976 57.3715C163.512 57.7431 164.169 58.394 164.628 58.0257C169.609 54.0512 175.192 50.9028 181.165 48.7001C187.091 46.5013 193.32 45.2336 199.632 44.9418C203.203 44.7772 206.782 44.9401 210.324 45.4283C210.442 45.4566 210.566 45.439 210.671 45.379C210.777 45.319 210.855 45.2212 210.892 45.1052C210.923 44.9869 210.907 44.8608 210.847 44.7543C210.787 44.6477 210.687 44.5693 210.569 44.5361Z" fill="white"/>
</g>
<defs>
<clipPath id="clip0_7196_8769">
<rect width="246" height="167" fill="white" transform="translate(0.5)"/>
</clipPath>
</defs>
</svg>
