<svg width="22" height="18" viewBox="0 0 22 18" fill="none" xmlns="http://www.w3.org/2000/svg">
<path d="M21.25 16.6875H20.3125V9C20.3125 8.6519 20.1742 8.31806 19.9281 8.07192C19.6819 7.82578 19.3481 7.6875 19 7.6875H13.5625V1.5C13.5625 1.1519 13.4242 0.818064 13.1781 0.571922C12.9319 0.325781 12.5981 0.1875 12.25 0.1875H3.25C2.9019 0.1875 2.56806 0.325781 2.32192 0.571922C2.07578 0.818064 1.9375 1.1519 1.9375 1.5V16.6875H1C0.850816 16.6875 0.707742 16.7468 0.602252 16.8523C0.496763 16.9577 0.4375 17.1008 0.4375 17.25C0.4375 17.3992 0.496763 17.5423 0.602252 17.6477C0.707742 17.7532 0.850816 17.8125 1 17.8125H21.25C21.3992 17.8125 21.5423 17.7532 21.6477 17.6477C21.7532 17.5423 21.8125 17.3992 21.8125 17.25C21.8125 17.1008 21.7532 16.9577 21.6477 16.8523C21.5423 16.7468 21.3992 16.6875 21.25 16.6875ZM19 8.8125C19.0497 8.8125 19.0974 8.83225 19.1326 8.86742C19.1677 8.90258 19.1875 8.95027 19.1875 9V16.6875H13.5625V8.8125H19ZM3.0625 1.5C3.0625 1.45027 3.08225 1.40258 3.11742 1.36742C3.15258 1.33225 3.20027 1.3125 3.25 1.3125H12.25C12.2997 1.3125 12.3474 1.33225 12.3826 1.36742C12.4177 1.40258 12.4375 1.45027 12.4375 1.5V16.6875H10.5625V12C10.5625 11.8508 10.5032 11.7077 10.3977 11.6023C10.2923 11.4968 10.1492 11.4375 10 11.4375H5.5C5.35082 11.4375 5.20774 11.4968 5.10225 11.6023C4.99676 11.7077 4.9375 11.8508 4.9375 12V16.6875H3.0625V1.5ZM9.4375 16.6875H6.0625V12.5625H9.4375V16.6875ZM4.9375 6C4.9375 5.85082 4.99676 5.70774 5.10225 5.60225C5.20774 5.49676 5.35082 5.4375 5.5 5.4375H7.1875V3.75C7.1875 3.60082 7.24676 3.45774 7.35225 3.35225C7.45774 3.24676 7.60082 3.1875 7.75 3.1875C7.89918 3.1875 8.04226 3.24676 8.14775 3.35225C8.25324 3.45774 8.3125 3.60082 8.3125 3.75V5.4375H10C10.1492 5.4375 10.2923 5.49676 10.3977 5.60225C10.5032 5.70774 10.5625 5.85082 10.5625 6C10.5625 6.14918 10.5032 6.29226 10.3977 6.39775C10.2923 6.50324 10.1492 6.5625 10 6.5625H8.3125V8.25C8.3125 8.39918 8.25324 8.54226 8.14775 8.64775C8.04226 8.75324 7.89918 8.8125 7.75 8.8125C7.60082 8.8125 7.45774 8.75324 7.35225 8.64775C7.24676 8.54226 7.1875 8.39918 7.1875 8.25V6.5625H5.5C5.35082 6.5625 5.20774 6.50324 5.10225 6.39775C4.99676 6.29226 4.9375 6.14918 4.9375 6Z" fill="#007DCF"/>
</svg>
