<svg width="135" height="163" viewBox="0 0 135 163" fill="none" xmlns="http://www.w3.org/2000/svg">
<g clip-path="url(#clip0_6947_17970)">
<path d="M108.275 56.3201H94.9568V51.8934C94.9568 44.4735 100.925 38.4494 108.275 38.4494L108.275 56.3201Z" fill="#2F2E41"/>
<path d="M105.324 48.0562L107.614 58.453L94.1953 56.2039L99.6635 46.3711L105.324 48.0562Z" fill="#A0616A"/>
<path opacity="0.1" d="M105.324 48.0562L107.614 58.453L94.1953 56.2039L99.6635 46.3711L105.324 48.0562Z" fill="black"/>
<path d="M92.459 89.4858H105.324V70.2661H92.459V89.4858Z" fill="#A0616A"/>
<path d="M113.686 105.199L110.856 120.523C110.856 120.523 112.657 131.172 107.254 142.08L103.651 153.249L98.248 152.469C98.248 152.469 101.593 144.158 101.593 140.522C101.593 136.886 102.365 122.861 102.365 122.861L101.979 106.857L113.686 105.199Z" fill="#2F2E41"/>
<path d="M97.4763 152.21C97.4763 152.21 103.652 149.872 104.166 153.249L103.909 154.807C103.909 154.807 106.225 161.82 102.88 162.339C99.5348 162.859 96.4471 163.638 96.1898 162.079C95.9325 160.521 95.9365 158.576 96.5778 157.211C97.219 155.846 97.4763 152.21 97.4763 152.21Z" fill="#2F2E41"/>
<path d="M94.2086 102.822L92.7053 118.336C92.7053 118.336 88.0414 128.059 90.2261 140.054L90.6092 151.793L96.0141 152.562C96.0141 152.562 95.091 143.639 96.0929 140.146C97.0947 136.654 100.217 122.965 100.217 122.965L104.997 107.701L94.2086 102.822Z" fill="#2F2E41"/>
<path d="M96.8271 152.529C96.8271 152.529 91.5394 148.55 90.1149 151.649L89.9327 153.218C89.9327 153.218 85.7762 159.304 88.8461 160.742C91.9159 162.18 94.6671 163.795 95.3436 162.37C96.0201 160.946 96.5522 159.076 96.3123 157.585C96.0724 156.094 96.8271 152.529 96.8271 152.529Z" fill="#2F2E41"/>
<path d="M110.599 80.655C116.65 86.3554 117.099 95.3746 113.558 106.108C113.558 106.108 102.236 113.9 94.0026 104.03L89.8857 84.0315L110.599 80.655Z" fill="#2F2E41"/>
<path d="M100.435 52.8644L106.868 53.9033L106.353 70.2661L113.558 84.8108L104.295 89.4859C104.295 89.4859 97.0904 75.7204 95.8038 67.1494C94.5173 58.5784 95.2892 52.345 95.2892 52.345L100.435 52.8644Z" fill="#007DCF"/>
<path d="M95.5458 53.3837L89.1132 54.4226L89.6278 70.7854L88.084 85.8495L91.6862 90.0052C91.6862 90.0052 98.8908 76.2397 100.177 67.6687C101.464 59.0977 100.692 52.8643 100.692 52.8643L95.5458 53.3837Z" fill="#007DCF"/>
<path d="M103.266 53.7735L104.681 53.3839C104.681 53.3839 109.698 52.7346 110.47 54.8124C111.242 56.8902 110.985 69.0974 110.985 69.0974C110.985 69.0974 112.312 84.0797 107.146 84.2505C101.979 84.4212 103.008 71.9543 103.008 71.9543L103.266 53.7735Z" fill="#007DCF"/>
<path d="M103.078 50.9095C106.756 50.9095 109.738 47.9 109.738 44.1876C109.738 40.4751 106.756 37.4656 103.078 37.4656C99.4004 37.4656 96.4189 40.4751 96.4189 44.1876C96.4189 47.9 99.4004 50.9095 103.078 50.9095Z" fill="#A0616A"/>
<path d="M94.7745 54.2928L93.3593 53.9032C93.3593 53.9032 88.3419 53.2539 87.57 55.3317C86.798 57.4095 87.0554 69.6166 87.0554 69.6166C87.0554 69.6166 85.7277 84.599 90.8943 84.7697C96.061 84.9405 95.0318 72.4736 95.0318 72.4736L94.7745 54.2928Z" fill="#007DCF"/>
<path d="M99.2314 53.4388C97.8028 53.0729 96.1832 54.6131 95.6134 56.8798C95.3735 57.7821 95.3511 58.7292 95.5482 59.642L94.9343 62.2186L94.8892 62.2162L90.0472 73.7348C88.9213 76.413 89.0403 79.4877 90.4763 82.0102C91.3305 83.5108 92.4518 84.5197 93.7685 83.4899C95.9532 81.7811 97.3802 71.9972 98.0318 66.3769L99.5383 60.664C100.143 59.9563 100.571 59.1128 100.786 58.2039C101.356 55.9381 100.66 53.8046 99.2314 53.4388Z" fill="#A0616A"/>
<path d="M90.3296 49.6259C90.6684 48.5862 91.337 47.6761 91.6362 46.6241C92.0335 45.2274 92.8792 48.326 92.9617 46.8752C93.1185 44.1178 97.2877 37.0248 99.6679 35.6623C102.048 34.2998 103.415 34.7106 105.84 35.9902C105.84 35.9902 107.017 36.0658 108.482 36.796C109.948 37.5263 111.267 38.6959 111.837 40.242C112.289 41.4674 112.239 42.8132 112.39 44.1119C112.81 47.7298 114.819 51.1707 114.388 54.7874C114.253 55.9158 113.829 57.0826 112.915 57.7463C112.001 58.41 110.524 58.3378 109.922 57.3771C109.717 57.0493 109.63 56.6604 109.454 56.3156C109.278 55.9708 108.96 55.6494 108.576 55.6601C107.999 55.6763 107.705 56.4582 107.933 56.9939C108.16 57.5297 108.695 57.8531 109.198 58.1409C108.001 58.6841 106.518 58.5149 105.471 57.7161C104.425 56.9172 103.86 55.5218 104.053 54.2121C104.324 52.3665 106.988 52.7485 107.302 50.9097C107.53 49.5712 108.332 47.3314 108.114 45.9912C107.895 44.6509 106.846 46.2737 107.951 45.4993C106.735 46.0912 104.134 42.0424 102.86 41.5889C101.587 41.1355 100.508 40.1535 99.9287 38.9223C98.5783 40.8983 97.3903 40.3617 96.9067 42.7122C96.423 45.0626 96.8702 50.4026 98.8617 51.7149C98.0647 52.2638 97.4294 53.0487 97.0554 53.9465C96.8436 54.4551 96.7062 55.0116 96.3546 55.434C95.6831 56.2407 94.4431 56.2898 93.4547 55.9506C92.2292 55.53 91.1814 54.6062 90.6037 53.437C90.0259 52.2677 89.9252 50.8671 90.3296 49.6259Z" fill="#2F2E41"/>
<path d="M0 162.624C0 162.795 0.136379 162.933 0.306208 162.933H134.694C134.864 162.933 135 162.795 135 162.624C135 162.453 134.864 162.315 134.694 162.315H0.306208C0.136379 162.315 0 162.453 0 162.624Z" fill="#3F3D56"/>
<path d="M87.4935 0.259766H34.574C28.5729 0.259766 23.708 5.17041 23.708 11.228V151.593C23.708 157.65 28.5729 162.561 34.5739 162.561H87.4935C93.4946 162.561 98.3595 157.65 98.3595 151.593V11.228C98.3595 5.17041 93.4946 0.259766 87.4935 0.259766Z" fill="white"/>
<path d="M87.493 162.821H34.5735C28.4401 162.821 23.4502 157.784 23.4502 151.593V11.228C23.4502 5.03689 28.4401 0 34.5735 0H87.493C93.6264 0 98.6163 5.03689 98.6163 11.228V151.593C98.6163 157.784 93.6264 162.821 87.493 162.821ZM34.5735 0.519453C28.7238 0.519453 23.9648 5.32325 23.9648 11.228V151.593C23.9648 157.497 28.7238 162.301 34.5735 162.301H87.493C93.3427 162.301 98.1017 157.497 98.1017 151.593V11.228C98.1017 5.32325 93.3427 0.519453 87.493 0.519453H34.5735Z" fill="#3F3D56"/>
<path d="M19.3346 24.5615C18.87 24.5615 18.4922 24.9429 18.4922 25.4118V32.2144C18.4922 32.6834 18.87 33.0648 19.3346 33.0648C19.7992 33.0648 20.177 32.6834 20.177 32.2144V25.4118C20.177 24.9429 19.7992 24.5615 19.3346 24.5615Z" fill="#3F3D56"/>
<path d="M91.327 22.7161H70.0561C69.1539 22.7161 68.4199 21.9752 68.4199 21.0645C68.4199 20.1538 69.1539 19.4128 70.0561 19.4128H91.327C92.2292 19.4128 92.9632 20.1538 92.9632 21.0645C92.9632 21.9752 92.2292 22.7161 91.327 22.7161Z" fill="#E6E6E6"/>
<path d="M71.3717 35.7043H50.6954C50.1741 35.7043 49.75 35.2762 49.75 34.75C49.75 34.2238 50.1741 33.7959 50.6954 33.7959H71.3717C71.8929 33.7959 72.3169 34.2238 72.3169 34.75C72.3169 35.2762 71.8929 35.7043 71.3717 35.7043Z" fill="#007DCF"/>
<path d="M20.1529 40.4138C29.3754 40.4138 36.8517 33.0261 36.8517 23.9129C36.8517 14.7998 29.3754 7.41211 20.1529 7.41211C10.9304 7.41211 3.4541 14.7998 3.4541 23.9129C3.4541 33.0261 10.9304 40.4138 20.1529 40.4138Z" fill="#007DCF"/>
<path d="M25.8208 15.5899C23.5976 19.6761 21.3745 23.7623 19.1513 27.8485C17.7345 25.3215 16.3253 22.79 14.9049 20.265C14.4144 19.3929 13.0801 20.1773 13.5719 21.0515C15.2184 23.9786 16.8479 26.9154 18.4944 29.8425C18.7759 30.343 19.5488 30.3546 19.8275 29.8425C22.2696 25.3538 24.7117 20.8651 27.1538 16.3764C27.6323 15.4969 26.2997 14.7097 25.8208 15.5899Z" fill="white"/>
<path d="M42.148 3.80713H30.3435C30.2994 3.80713 30.2637 3.8432 30.2637 3.8877V5.27486C30.2637 5.31936 30.2994 5.35543 30.3435 5.35543H42.148C42.1921 5.35543 42.2278 5.31936 42.2278 5.27486V3.8877C42.2278 3.8432 42.1921 3.80713 42.148 3.80713Z" fill="#E6E6E6"/>
<path d="M81.9097 5.35522C82.5874 5.35522 83.1368 4.80066 83.1368 4.11657C83.1368 3.43249 82.5874 2.87793 81.9097 2.87793C81.232 2.87793 80.6826 3.43249 80.6826 4.11657C80.6826 4.80066 81.232 5.35522 81.9097 5.35522Z" fill="#E6E6E6"/>
<path d="M85.2837 5.35522C85.9614 5.35522 86.5108 4.80066 86.5108 4.11657C86.5108 3.43249 85.9614 2.87793 85.2837 2.87793C84.606 2.87793 84.0566 3.43249 84.0566 4.11657C84.0566 4.80066 84.606 5.35522 85.2837 5.35522Z" fill="#E6E6E6"/>
<path d="M88.6587 5.35522C89.3364 5.35522 89.8858 4.80066 89.8858 4.11657C89.8858 3.43249 89.3364 2.87793 88.6587 2.87793C87.981 2.87793 87.4316 3.43249 87.4316 4.11657C87.4316 4.80066 87.981 5.35522 88.6587 5.35522Z" fill="#E6E6E6"/>
<path d="M34.4453 40.8123C34.4453 40.9837 34.5817 41.1213 34.7515 41.1213H87.3163C87.4861 41.1213 87.6225 40.9837 87.6225 40.8123C87.6225 40.6408 87.4861 40.5032 87.3163 40.5032H34.7515C34.5817 40.5032 34.4453 40.6408 34.4453 40.8123Z" fill="#3F3D56"/>
<path d="M82.2756 65.1047H50.7306C50.2093 65.1047 49.7852 64.6766 49.7852 64.1504C49.7852 63.6242 50.2093 63.1963 50.7306 63.1963H82.2756C82.7969 63.1963 83.2208 63.6242 83.2208 64.1504C83.2208 64.6766 82.7969 65.1047 82.2756 65.1047Z" fill="#007DCF"/>
<path d="M82.2756 78.8703H50.7306C50.2093 78.8703 49.7852 78.4422 49.7852 77.916C49.7852 77.3899 50.2093 76.9619 50.7306 76.9619H82.2756C82.7969 76.9619 83.2208 77.3899 83.2208 77.916C83.2208 78.4422 82.7969 78.8703 82.2756 78.8703Z" fill="#007DCF"/>
<path d="M82.2756 92.6357H50.7306C50.2093 92.6357 49.7852 92.2076 49.7852 91.6814C49.7852 91.1552 50.2093 90.7273 50.7306 90.7273H82.2756C82.7969 90.7273 83.2208 91.1552 83.2208 91.6814C83.2208 92.2076 82.7969 92.6357 82.2756 92.6357Z" fill="#007DCF"/>
<path d="M41.1624 66.3701C42.4414 66.3701 43.4782 65.3236 43.4782 64.0326C43.4782 62.7416 42.4414 61.6951 41.1624 61.6951C39.8835 61.6951 38.8467 62.7416 38.8467 64.0326C38.8467 65.3236 39.8835 66.3701 41.1624 66.3701Z" fill="#007DCF"/>
<path d="M40.9053 67.9285V67.409C42.8206 67.409 44.3789 65.8361 44.3789 63.9027C44.3789 61.9693 42.8206 60.3964 40.9053 60.3964V59.877C43.1044 59.877 44.8935 61.6829 44.8935 63.9027C44.8935 66.1226 43.1044 67.9285 40.9053 67.9285Z" fill="#3F3D56"/>
<path d="M41.1624 80.1355C42.4414 80.1355 43.4782 79.089 43.4782 77.798C43.4782 76.507 42.4414 75.4604 41.1624 75.4604C39.8835 75.4604 38.8467 76.507 38.8467 77.798C38.8467 79.089 39.8835 80.1355 41.1624 80.1355Z" fill="#007DCF"/>
<path d="M40.9053 81.6941V81.1746C42.8206 81.1746 44.3789 79.6018 44.3789 77.6683C44.3789 75.735 42.8206 74.162 40.9053 74.162V73.6426C43.1044 73.6426 44.8935 75.4485 44.8935 77.6683C44.8935 79.8882 43.1044 81.6941 40.9053 81.6941Z" fill="#3F3D56"/>
<path d="M41.1624 93.9012C42.4414 93.9012 43.4782 92.8546 43.4782 91.5636C43.4782 90.2726 42.4414 89.2261 41.1624 89.2261C39.8835 89.2261 38.8467 90.2726 38.8467 91.5636C38.8467 92.8546 39.8835 93.9012 41.1624 93.9012Z" fill="#007DCF"/>
<path d="M40.9053 95.4595V94.94C42.8206 94.94 44.3789 93.3672 44.3789 91.4337C44.3789 89.5002 42.8206 87.9274 40.9053 87.9274V87.408C43.1044 87.408 44.8935 89.2139 44.8935 91.4337C44.8935 93.6536 43.1044 95.4595 40.9053 95.4595Z" fill="#3F3D56"/>
<path d="M98.8086 52.9195C100.237 52.5536 101.857 54.0938 102.427 56.3605C102.667 57.2628 102.689 58.21 102.492 59.1228L103.106 61.6994L103.151 61.697L107.993 73.2155C109.119 75.8937 109 78.9684 107.564 81.4909C106.71 82.9916 105.588 84.0004 104.272 82.9706C102.087 81.2618 100.66 71.4779 100.008 65.8576L98.5017 60.1447C97.897 59.4371 97.4691 58.5935 97.2536 57.6846C96.6837 55.4188 97.38 53.2854 98.8086 52.9195Z" fill="#A0616A"/>
<path d="M104.309 59.2314L98.8916 63.1185L101.6 80.3368L104.997 84.7716L108.954 83.3901L110.112 75.2506L108.75 67.3791L104.309 59.2314Z" fill="#007DCF"/>
</g>
<defs>
<clipPath id="clip0_6947_17970">
<rect width="135" height="163" fill="white"/>
</clipPath>
</defs>
</svg>
