<svg width="231" height="202" viewBox="0 0 231 202" fill="none" xmlns="http://www.w3.org/2000/svg">
<g clip-path="url(#clip0_6955_18639)">
<path d="M11.5981 68.8354L0.508089 62.5672C0.358497 55.8608 1.84251 49.2192 4.83127 43.219C7.38812 54.8646 20.844 60.4052 27.0524 70.5733C28.9645 73.7595 30.1376 77.3367 30.4848 81.0397C30.8319 84.7427 30.3443 88.4767 29.0579 91.9649L29.7873 100.994C24.0556 99.2713 18.7642 96.3221 14.2777 92.3496C9.79114 88.3771 6.21615 83.4757 3.79902 77.9832C2.47344 74.8885 1.54149 71.6385 1.02518 68.3101C6.19583 68.8622 11.5981 68.8354 11.5981 68.8354Z" fill="#F2F2F2"/>
<path d="M210.96 182.871L211.3 175.198C214.845 173.296 218.799 172.292 222.818 172.272C217.286 176.811 217.978 185.56 214.227 191.664C213.042 193.558 211.448 195.161 209.563 196.354C207.677 197.546 205.548 198.297 203.334 198.552L198.705 201.396C198.069 197.843 198.209 194.193 199.115 190.699C200.021 187.204 201.671 183.949 203.951 181.156C205.246 179.602 206.73 178.217 208.37 177.036C209.478 179.97 210.96 182.871 210.96 182.871Z" fill="#F2F2F2"/>
<path d="M199.031 197.448L194.839 197.447L192.845 181.222L199.032 181.222L199.031 197.448Z" fill="#FFB6B6"/>
<path d="M200.1 201.525L186.583 201.525V201.353C186.584 199.953 187.138 198.61 188.125 197.62C189.111 196.63 190.449 196.074 191.845 196.074L194.314 194.194L198.921 196.074L200.1 196.074L200.1 201.525Z" fill="#2F2E41"/>
<path d="M179.556 197.448L175.364 197.447L173.37 181.222L179.557 181.222L179.556 197.448Z" fill="#FFB6B6"/>
<path d="M180.625 201.525L167.108 201.525V201.353C167.108 199.953 167.663 198.61 168.649 197.62C169.636 196.63 170.974 196.074 172.369 196.074L174.839 194.194L179.445 196.074L180.625 196.074L180.625 201.525Z" fill="#2F2E41"/>
<path d="M177.741 108.74L205.008 109.424C210.186 112.247 210.265 118.356 208.568 125.609C208.568 125.609 209.141 129.92 207.995 131.07C206.85 132.219 206.277 132.219 206.85 134.231C207.423 136.243 204.396 139.529 204.764 139.898C205.131 140.267 205.991 142.279 205.991 142.279L203.127 158.661C203.127 158.661 201.122 187.114 200.549 187.688C199.976 188.263 199.403 187.688 199.976 189.125C200.549 190.562 201.122 189.988 200.549 190.562C200.042 191.111 199.564 191.687 199.117 192.287H192.193C192.193 192.287 191.671 189.413 191.671 189.125C191.671 188.838 191.098 187.114 191.098 186.826C191.098 186.539 191.604 186.031 191.604 186.031C191.779 185.446 191.897 184.847 191.957 184.239C191.957 183.665 193.675 161.535 193.675 161.535L190.239 132.794L181.933 160.96C181.933 160.96 181.933 185.677 181.36 186.251C180.787 186.826 180.787 186.539 181.074 187.688C181.36 188.838 182.506 188.551 181.647 189.413C180.787 190.275 180.501 188.838 180.787 190.275L181.074 191.712L172.482 191.835C172.482 191.835 171.336 189.413 171.909 188.551C172.482 187.688 172.447 187.924 171.749 186.513C171.05 185.102 170.763 184.814 171.05 184.527C171.336 184.24 171.336 182.711 171.336 182.711L172.768 155.212C172.768 155.212 173.055 126.184 173.055 125.322C173.076 124.878 172.995 124.435 172.817 124.029V122.858L173.914 118.711L177.741 108.74Z" fill="#2F2E41"/>
<path d="M194.121 51.8451C198.8 51.8451 202.593 48.0389 202.593 43.3436C202.593 38.6483 198.8 34.842 194.121 34.842C189.442 34.842 185.649 38.6483 185.649 43.3436C185.649 48.0389 189.442 51.8451 194.121 51.8451Z" fill="#FFB6B6"/>
<path d="M189.885 57.4641C188.06 58.5529 186.968 60.5535 186.341 62.5894C185.181 66.3584 184.482 70.2553 184.261 74.1939L183.599 85.9854L175.401 111.093C182.506 117.126 209.214 112.464 209.214 112.464C209.214 112.464 210.034 112.19 209.214 111.367C208.395 110.544 207.596 111.273 208.416 110.45C209.236 109.628 208.671 110.544 208.398 109.721C208.124 108.899 208.398 109.447 208.671 109.173C208.944 108.899 206.555 106.431 206.555 106.431L208.742 92.0187L211.474 62.9489C208.195 58.8352 201.6 56.4103 201.6 56.4103L199.895 53.332L191.375 54.0161L189.885 57.4641Z" fill="#E6E6E6"/>
<path d="M188.723 38.3543C189.051 38.3569 189.377 38.3999 189.694 38.4823C190.32 38.6332 190.955 38.7401 191.596 38.8022C193.557 38.9874 195.4 39.8267 196.83 41.1862C198.26 42.5457 199.195 44.3469 199.485 46.3021C199.978 45.8714 201.098 45.0791 202.016 45.8154C202.03 45.8271 202.038 45.8331 202.07 45.8178C202.68 45.5275 203.763 41.9546 203.795 38.8087C203.813 37.139 203.551 35.0069 202.205 34.3317L202.134 34.2961L202.115 34.2188C202.026 33.8432 201.021 33.2021 199.275 32.703C196.103 31.7962 191.373 30.0297 188.71 32.6294C188.509 33.5059 187.853 35.3815 187.191 35.5941C186.457 35.8294 185.824 36.0325 185.724 36.9353C185.641 38.2201 185.647 39.5091 185.742 40.7931C185.991 40.0074 186.479 39.3198 187.137 38.8269C187.605 38.5107 188.159 38.3457 188.723 38.3543Z" fill="#2F2E41"/>
<path d="M172.954 85.3291L186.793 76.4353L179.823 67.1372L172.94 75.6331L151.496 76.953C150.931 76.3935 150.217 76.0107 149.44 75.8514C148.663 75.6922 147.857 75.7632 147.119 76.0559C146.382 76.3486 145.745 76.8503 145.287 77.4999C144.829 78.1494 144.568 78.9187 144.538 79.7141C144.508 80.5094 144.709 81.2963 145.117 81.9789C145.525 82.6614 146.122 83.2102 146.835 83.5582C147.549 83.9062 148.347 84.0384 149.134 83.9387C149.921 83.839 150.662 83.5118 151.267 82.9968L172.954 85.3291Z" fill="#FFB6B6"/>
<path d="M199.637 64.0213C200.441 68.8992 185.273 78.2138 185.273 78.2138C185.273 77.0689 176.22 85.7122 175.811 84.7627C174.65 82.064 173.833 75.672 172.21 74.6489C171.282 74.0639 177.8 68.5675 177.8 68.5675C177.8 68.5675 181.211 65.1185 185.688 60.7682C186.931 59.5148 188.47 58.5973 190.161 58.1011C191.853 57.605 193.642 57.5464 195.362 57.9307C195.362 57.9307 198.834 59.1435 199.637 64.0213Z" fill="#E6E6E6"/>
<path d="M228.162 87.6637L219.008 73.9678L209.892 81.1577L218.502 87.883L220.271 109.37C219.726 109.948 219.359 110.672 219.217 111.455C219.075 112.238 219.163 113.046 219.47 113.78C219.777 114.513 220.29 115.142 220.947 115.588C221.604 116.034 222.376 116.278 223.169 116.292C223.962 116.305 224.742 116.086 225.413 115.663C226.085 115.239 226.619 114.629 226.95 113.906C227.282 113.183 227.397 112.378 227.281 111.591C227.165 110.804 226.823 110.067 226.297 109.472L228.162 87.6637Z" fill="#FFB6B6"/>
<path d="M206.368 61.3441C211.211 60.435 220.812 75.4552 220.812 75.4552C219.671 75.4797 228.474 84.3793 227.537 84.8093C224.873 86.0316 218.522 86.9862 217.537 88.636C216.974 89.5795 211.36 83.1571 211.36 83.1571C211.36 83.1571 207.851 79.8073 203.422 75.4078C202.147 74.1873 201.2 72.6629 200.67 70.9765C200.14 69.2901 200.044 67.4965 200.39 65.7627C200.39 65.7627 201.525 62.2532 206.368 61.3441Z" fill="#E6E6E6"/>
<path d="M230.5 201.593C230.5 201.646 230.49 201.699 230.469 201.749C230.449 201.798 230.419 201.843 230.381 201.881C230.344 201.919 230.299 201.949 230.25 201.969C230.2 201.99 230.148 202 230.094 202H134.562C134.455 202 134.352 201.957 134.276 201.881C134.199 201.804 134.157 201.701 134.157 201.593C134.157 201.485 134.199 201.381 134.276 201.305C134.352 201.229 134.455 201.186 134.562 201.186H230.094C230.148 201.186 230.2 201.196 230.25 201.217C230.299 201.237 230.344 201.267 230.381 201.305C230.419 201.343 230.449 201.388 230.469 201.437C230.49 201.486 230.5 201.539 230.5 201.593Z" fill="#CCCCCC"/>
<path d="M142.001 78.2529H26.0595C24.2481 78.255 22.5115 78.978 21.2307 80.2633C19.9498 81.5487 19.2293 83.2914 19.2273 85.1091V157.546C19.2294 159.364 19.9498 161.107 21.2307 162.392C22.5115 163.677 24.2482 164.4 26.0595 164.402H142C143.812 164.4 145.549 163.677 146.829 162.392C148.11 161.107 148.831 159.364 148.833 157.546V85.1091C148.831 83.2914 148.11 81.5486 146.829 80.2633C145.549 78.978 143.812 78.255 142.001 78.2529Z" fill="#007DCF"/>
<path d="M142.001 78.2529H26.0595C24.2481 78.255 22.5115 78.978 21.2307 80.2633C19.9498 81.5487 19.2293 83.2914 19.2273 85.1091V157.546C19.2294 159.364 19.9498 161.107 21.2307 162.392C22.5115 163.677 24.2482 164.4 26.0595 164.402H142C143.812 164.4 145.549 163.677 146.829 162.392C148.11 161.107 148.831 159.364 148.833 157.546V85.1091C148.831 83.2914 148.11 81.5486 146.829 80.2633C145.549 78.978 143.812 78.255 142.001 78.2529ZM144.243 130.285C144.215 137.66 141.308 144.73 136.146 149.978C130.983 155.227 123.977 158.236 116.629 158.36C104.865 158.514 123.138 158.574 108.949 158.574C76.5047 158.574 42.6738 158.263 30.0511 158.061C28.3903 158.026 26.8088 157.342 25.6441 156.153C24.4794 154.965 23.8238 153.367 23.8174 151.7V85.1145C23.8181 84.5176 24.0543 83.9452 24.4744 83.5226C24.8945 83.1 25.4642 82.8615 26.0591 82.8594H141.996C142.591 82.8601 143.161 83.0971 143.582 83.5185C144.003 83.94 144.241 84.5117 144.243 85.1084V130.285Z" fill="#3F3D56"/>
<path d="M127.728 36.5413H39.3936C38.6121 36.5424 37.8499 36.7855 37.2111 37.2375C36.5724 37.6895 36.0883 38.3283 35.8248 39.0667L22.1821 77.4762C21.9784 78.0494 21.915 78.6634 21.9969 79.2665C22.0789 79.8695 22.3039 80.444 22.6531 80.9416C23.0023 81.4393 23.4654 81.8455 24.0035 82.1262C24.5417 82.4069 25.1391 82.5539 25.7456 82.5548L144.217 82.7658H144.222C144.849 82.7658 145.467 82.6096 146.019 82.3113C146.571 82.013 147.04 81.5819 147.385 81.0567C147.73 80.5314 147.94 79.9284 147.996 79.3018C148.052 78.6751 147.952 78.0443 147.705 77.466L131.211 38.8456C130.919 38.1613 130.434 37.5781 129.815 37.1685C129.196 36.7588 128.47 36.5407 127.728 36.5413Z" fill="#3F3D56"/>
<path d="M148.012 78.3001C148.011 78.8152 147.907 79.3248 147.705 79.7982L131.212 109.527C130.918 110.21 130.432 110.792 129.813 111.201C129.194 111.61 128.47 111.828 127.729 111.829H39.3951C38.6133 111.828 37.8507 111.585 37.2114 111.134C36.5722 110.682 36.0874 110.043 35.8232 109.305L22.1831 79.788C22.0159 79.3177 21.9427 78.819 21.9677 78.3203C21.9926 77.8217 22.1153 77.3329 22.3287 76.8818C22.542 76.4308 22.8418 76.0263 23.211 75.6916C23.5802 75.3569 24.0115 75.0985 24.4803 74.9312C24.8858 74.7843 25.3136 74.709 25.7448 74.7089L40.2165 74.6815L46.1232 74.6713L123.847 74.5345L129.757 74.5242L144.218 74.4968H144.222C145.227 74.497 146.191 74.8978 146.901 75.611C147.612 76.3242 148.011 77.2915 148.012 78.3001Z" fill="#3F3D56"/>
<path d="M34.7515 132.589C36.5031 132.589 60.5573 134.064 60.5573 135.822C60.5573 137.58 36.5031 138.954 34.7515 138.954C33.9103 138.954 33.1036 138.619 32.5088 138.022C31.914 137.425 31.5798 136.616 31.5798 135.772C31.5798 134.928 31.914 134.118 32.5088 133.521C33.1036 132.924 33.9103 132.589 34.7515 132.589Z" fill="#3F3D56"/>
<path d="M122.227 13.175H47.7453C45.7492 13.1774 43.8355 13.9741 42.4241 15.3905C41.0126 16.8069 40.2186 18.7273 40.2163 20.7304V111.829H127.728C128.447 111.831 129.151 111.626 129.756 111.237V20.7304C129.754 18.7273 128.96 16.8069 127.549 15.3905C126.137 13.9741 124.224 13.1774 122.227 13.175Z" fill="#E6E6E6"/>
<path d="M93.7987 19.3008H52.9806C51.163 19.3026 49.4203 20.0277 48.1347 21.3171C46.8492 22.6065 46.1257 24.355 46.123 26.1789V111.829H123.846V49.4538C123.837 41.4595 120.669 33.7954 115.036 28.1426C109.403 22.4898 101.765 19.31 93.7987 19.3008Z" fill="white"/>
<path d="M110.605 104.222H59.3644C58.9215 104.222 58.4967 104.399 58.1835 104.713C57.8703 105.027 57.6943 105.454 57.6943 105.898C57.6943 106.343 57.8703 106.769 58.1835 107.083C58.4967 107.397 58.9215 107.574 59.3644 107.574H110.605C111.048 107.574 111.473 107.397 111.786 107.083C112.099 106.769 112.275 106.343 112.275 105.898C112.275 105.454 112.099 105.027 111.786 104.713C111.473 104.399 111.048 104.222 110.605 104.222Z" fill="#E4E4E4"/>
<path d="M110.605 97.5938H59.3644C58.921 97.5937 58.4958 97.7705 58.1823 98.0851C57.8688 98.3997 57.6926 98.8264 57.6926 99.2714C57.6926 99.7163 57.8688 100.143 58.1823 100.458C58.4958 100.772 58.921 100.949 59.3644 100.949H110.605C111.049 100.949 111.474 100.772 111.787 100.458C112.101 100.143 112.277 99.7163 112.277 99.2714C112.277 98.8264 112.101 98.3997 111.787 98.0851C111.474 97.7705 111.049 97.5938 110.605 97.5938Z" fill="#E4E4E4"/>
<path d="M81.5765 90.9688H59.3644C58.9215 90.9688 58.4967 91.1453 58.1835 91.4596C57.8703 91.7739 57.6943 92.2002 57.6943 92.6447C57.6943 93.0892 57.8703 93.5154 58.1835 93.8297C58.4967 94.144 58.9215 94.3206 59.3644 94.3206H81.5765C82.0194 94.3206 82.4442 94.144 82.7574 93.8297C83.0706 93.5154 83.2465 93.0892 83.2465 92.6447C83.2465 92.2002 83.0706 91.7739 82.7574 91.4596C82.4442 91.1453 82.0194 90.9688 81.5765 90.9688Z" fill="#E4E4E4"/>
<path d="M110.605 77.0894H59.3644C58.921 77.0894 58.4958 77.2661 58.1823 77.5807C57.8688 77.8953 57.6926 78.3221 57.6926 78.767C57.6926 79.2119 57.8688 79.6386 58.1823 79.9533C58.4958 80.2679 58.921 80.4446 59.3644 80.4446H110.605C111.049 80.4446 111.474 80.2679 111.787 79.9533C112.101 79.6386 112.277 79.2119 112.277 78.767C112.277 78.3221 112.101 77.8953 111.787 77.5807C111.474 77.2661 111.049 77.0894 110.605 77.0894Z" fill="#E4E4E4"/>
<path d="M110.605 70.4644H59.3644C58.9215 70.4644 58.4967 70.6409 58.1835 70.9552C57.8703 71.2695 57.6943 71.6958 57.6943 72.1403C57.6943 72.5848 57.8703 73.011 58.1835 73.3253C58.4967 73.6396 58.9215 73.8162 59.3644 73.8162H110.605C111.048 73.8162 111.473 73.6396 111.786 73.3253C112.099 73.011 112.275 72.5848 112.275 72.1403C112.275 71.6958 112.099 71.2695 111.786 70.9552C111.473 70.6409 111.048 70.4644 110.605 70.4644Z" fill="#E4E4E4"/>
<path d="M81.5765 63.8359H59.3644C58.921 63.8359 58.4958 64.0127 58.1823 64.3273C57.8688 64.6419 57.6926 65.0686 57.6926 65.5136C57.6926 65.9585 57.8688 66.3852 58.1823 66.6998C58.4958 67.0145 58.921 67.1912 59.3644 67.1912H81.5765C82.0198 67.1912 82.4451 67.0145 82.7586 66.6998C83.0721 66.3852 83.2483 65.9585 83.2483 65.5136C83.2483 65.0686 83.0721 64.6419 82.7586 64.3273C82.4451 64.0127 82.0198 63.8359 81.5765 63.8359Z" fill="#E4E4E4"/>
<path d="M110.605 49.9565H59.3644C58.921 49.9565 58.4958 50.1333 58.1823 50.4479C57.8688 50.7625 57.6926 51.1892 57.6926 51.6342C57.6926 52.0791 57.8688 52.5058 58.1823 52.8204C58.4958 53.1351 58.921 53.3118 59.3644 53.3118H110.605C111.049 53.3118 111.474 53.1351 111.787 52.8204C112.101 52.5058 112.277 52.0791 112.277 51.6342C112.277 51.1892 112.101 50.7625 111.787 50.4479C111.474 50.1333 111.049 49.9565 110.605 49.9565Z" fill="#007DCF"/>
<path d="M110.605 43.3315H59.3644C58.921 43.3315 58.4958 43.5083 58.1823 43.8229C57.8688 44.1375 57.6926 44.5642 57.6926 45.0092C57.6926 45.4541 57.8688 45.8808 58.1823 46.1954C58.4958 46.5101 58.921 46.6868 59.3644 46.6868H110.605C111.049 46.6868 111.474 46.5101 111.787 46.1954C112.101 45.8808 112.277 45.4541 112.277 45.0092C112.277 44.5642 112.101 44.1375 111.787 43.8229C111.474 43.5083 111.049 43.3315 110.605 43.3315Z" fill="#007DCF"/>
<path d="M81.5765 36.7029H59.3644C58.921 36.7029 58.4958 36.8796 58.1823 37.1943C57.8688 37.5089 57.6926 37.9356 57.6926 38.3805C57.6926 38.8255 57.8688 39.2522 58.1823 39.5668C58.4958 39.8814 58.921 40.0582 59.3644 40.0582H81.5765C82.0198 40.0582 82.4451 39.8814 82.7586 39.5668C83.0721 39.2522 83.2483 38.8255 83.2483 38.3805C83.2483 37.9356 83.0721 37.5089 82.7586 37.1943C82.4451 36.8796 82.0198 36.7029 81.5765 36.7029Z" fill="#007DCF"/>
<path d="M126.964 26.1053C134.148 26.1053 139.971 20.2615 139.971 13.0527C139.971 5.84388 134.148 0 126.964 0C119.781 0 113.957 5.84388 113.957 13.0527C113.957 20.2615 119.781 26.1053 126.964 26.1053Z" fill="#007DCF"/>
<path d="M125.19 19.8459C124.965 19.8459 124.744 19.7934 124.543 19.6926C124.342 19.5917 124.167 19.4453 124.032 19.265L120.484 14.517C120.369 14.3645 120.286 14.1908 120.238 14.0059C120.191 13.8209 120.18 13.6284 120.206 13.4393C120.233 13.2501 120.297 13.0682 120.394 12.9038C120.49 12.7393 120.619 12.5957 120.771 12.4811C120.923 12.3665 121.096 12.2832 121.281 12.2359C121.465 12.1887 121.657 12.1784 121.846 12.2057C122.034 12.2329 122.215 12.2972 122.379 12.3949C122.542 12.4926 122.685 12.6216 122.799 12.7748L125.12 15.8808L131.083 6.90559C131.296 6.58518 131.627 6.36276 132.003 6.28723C132.38 6.21171 132.77 6.28929 133.09 6.5029C133.409 6.7165 133.631 7.04864 133.706 7.42624C133.781 7.80385 133.704 8.19599 133.491 8.51639L126.394 19.1993C126.265 19.3925 126.093 19.552 125.89 19.6644C125.688 19.7769 125.461 19.8389 125.23 19.8454C125.217 19.8457 125.203 19.8459 125.19 19.8459Z" fill="white"/>
</g>
<defs>
<clipPath id="clip0_6955_18639">
<rect width="230" height="202" fill="white" transform="translate(0.5)"/>
</clipPath>
</defs>
</svg>
