<svg width="25" height="24" viewBox="0 0 25 24" fill="none" xmlns="http://www.w3.org/2000/svg">
    <path d="M21.5394 9.76875C21.1737 9.38719 20.7959 8.99344 20.6441 8.62687C20.5034 8.28656 20.4959 7.78312 20.4875 7.25062C20.4744 6.37125 20.4594 5.37563 19.7919 4.70813C19.1244 4.04063 18.125 4.02562 17.2494 4.0125C16.7169 4.00406 16.2181 3.99656 15.8731 3.85594C15.5066 3.70406 15.1128 3.32625 14.7313 2.96062C14.1088 2.36437 13.4038 1.6875 12.5 1.6875C11.5962 1.6875 10.8912 2.36437 10.2687 2.96062C9.88719 3.32625 9.49344 3.70406 9.12687 3.85594C8.78656 3.99656 8.28312 4.00406 7.75062 4.0125C6.87125 4.02562 5.87563 4.04063 5.20813 4.70813C4.54063 5.37563 4.52562 6.375 4.5125 7.25062C4.50406 7.78312 4.49656 8.28187 4.35594 8.62687C4.20406 8.99344 3.82625 9.38719 3.46062 9.76875C2.86437 10.3912 2.1875 11.0962 2.1875 12C2.1875 12.9038 2.86437 13.6088 3.46062 14.2313C3.82625 14.6128 4.20406 15.0066 4.35594 15.3731C4.49656 15.7134 4.50406 16.2169 4.5125 16.7494C4.52562 17.6288 4.54063 18.6244 5.20813 19.2919C5.87563 19.9594 6.875 19.9744 7.75062 19.9875C8.28312 19.9959 8.78187 20.0034 9.12687 20.1441C9.49344 20.2959 9.88719 20.6737 10.2687 21.0394C10.8912 21.6356 11.5962 22.3125 12.5 22.3125C13.4038 22.3125 14.1088 21.6356 14.7313 21.0394C15.1128 20.6737 15.5066 20.2959 15.8731 20.1441C16.2134 20.0034 16.7169 19.9959 17.2494 19.9875C18.1288 19.9744 19.1244 19.9594 19.7919 19.2919C20.4594 18.6244 20.4744 17.6288 20.4875 16.7494C20.4959 16.2169 20.5034 15.7181 20.6441 15.3731C20.7959 15.0066 21.1737 14.6128 21.5394 14.2313C22.1356 13.6088 22.8125 12.9038 22.8125 12C22.8125 11.0962 22.1356 10.3912 21.5394 9.76875ZM20.7275 13.4531C20.2897 13.9087 19.8369 14.3812 19.6025 14.9437C19.3794 15.4819 19.37 16.1175 19.3606 16.7325C19.3503 17.43 19.3391 18.1519 18.995 18.4969C18.6509 18.8419 17.9281 18.8522 17.2306 18.8625C16.6156 18.8719 15.98 18.8813 15.4419 19.1044C14.8794 19.3369 14.4106 19.7897 13.9503 20.2294C13.4581 20.6981 12.9491 21.1894 12.4981 21.1894C12.0472 21.1894 11.5381 20.7009 11.045 20.2294C10.5894 19.7916 10.1169 19.3387 9.55438 19.1044C9.01625 18.8813 8.38062 18.8719 7.76562 18.8625C7.06812 18.8522 6.34625 18.8409 6.00125 18.4969C5.65625 18.1528 5.64594 17.43 5.63562 16.7325C5.62625 16.1175 5.61688 15.4819 5.39375 14.9437C5.16125 14.3812 4.70844 13.9125 4.26875 13.4522C3.80094 12.96 3.3125 12.4509 3.3125 12C3.3125 11.5491 3.80094 11.04 4.2725 10.5469C4.71031 10.0913 5.16313 9.61875 5.3975 9.05625C5.62063 8.51813 5.63 7.8825 5.63937 7.2675C5.64969 6.57 5.66094 5.84812 6.005 5.50313C6.34906 5.15813 7.07188 5.14781 7.76937 5.1375C8.38438 5.12812 9.02 5.11875 9.55813 4.89563C10.1206 4.66313 10.5894 4.21031 11.0497 3.77063C11.54 3.30094 12.0491 2.8125 12.5 2.8125C12.9509 2.8125 13.46 3.30094 13.9531 3.7725C14.4087 4.21031 14.8812 4.66313 15.4437 4.8975C15.9819 5.12063 16.6175 5.13 17.2325 5.13937C17.93 5.14969 18.6519 5.16094 18.9969 5.505C19.3419 5.84906 19.3522 6.57188 19.3625 7.26937C19.3719 7.88438 19.3813 8.52 19.6044 9.05813C19.8369 9.62063 20.2897 10.0894 20.7294 10.5497C21.1981 11.0419 21.6894 11.5509 21.6894 12.0019C21.6894 12.4528 21.1991 12.96 20.7275 13.4531ZM16.6475 9.3525C16.7528 9.45797 16.812 9.60094 16.812 9.75C16.812 9.89906 16.7528 10.042 16.6475 10.1475L11.3975 15.3975C11.292 15.5028 11.1491 15.562 11 15.562C10.8509 15.562 10.708 15.5028 10.6025 15.3975L8.3525 13.1475C8.25314 13.0409 8.19905 12.8998 8.20162 12.7541C8.20419 12.6084 8.26322 12.4693 8.36628 12.3663C8.46934 12.2632 8.60838 12.2042 8.75411 12.2016C8.89983 12.199 9.04087 12.2531 9.1475 12.3525L11 14.2041L15.8525 9.3525C15.958 9.24716 16.1009 9.18799 16.25 9.18799C16.3991 9.18799 16.542 9.24716 16.6475 9.3525Z" fill="white"/>
</svg>
