<svg width="20" height="19" viewBox="0 0 20 19" fill="none" xmlns="http://www.w3.org/2000/svg">
<path d="M19.4486 1.21941C19.348 0.985841 19.1807 0.787108 18.9678 0.648047C18.7549 0.508986 18.5057 0.435763 18.2514 0.437531H1.7514C1.49731 0.438017 1.24883 0.512244 1.03611 0.651202C0.823387 0.790161 0.655573 0.987876 0.553033 1.22035C0.450493 1.45283 0.417636 1.71007 0.45845 1.96086C0.499264 2.21164 0.611994 2.44519 0.782958 2.63316L0.788583 2.63972L7.1889 9.47316V16.75C7.189 16.9876 7.25357 17.2207 7.37572 17.4244C7.49788 17.6281 7.67304 17.7949 7.88253 17.9069C8.09203 18.0189 8.32799 18.072 8.56526 18.0604C8.80254 18.0489 9.03222 17.9731 9.22983 17.8413L12.2298 15.8416C12.4096 15.7217 12.5569 15.5593 12.6588 15.3687C12.7607 15.1782 12.814 14.9655 12.8139 14.7494V9.47316L19.2198 2.62941C19.392 2.44267 19.5054 2.20946 19.5461 1.95878C19.5867 1.70809 19.5528 1.45098 19.4486 1.21941ZM18.393 1.87003L11.8408 8.86566C11.7432 8.96987 11.6889 9.10728 11.6889 9.25003V14.7494C11.689 14.7804 11.6814 14.8109 11.6669 14.8382C11.6523 14.8655 11.6312 14.8888 11.6055 14.906L8.60546 16.9057C8.57725 16.9245 8.54446 16.9353 8.51059 16.937C8.47671 16.9386 8.44302 16.9311 8.4131 16.9151C8.38319 16.8991 8.35816 16.8753 8.34069 16.8463C8.32322 16.8172 8.31396 16.7839 8.3139 16.75V9.25003C8.31388 9.10728 8.25959 8.96987 8.16202 8.86566L1.61358 1.87378C1.58995 1.84689 1.57451 1.8138 1.56909 1.77841C1.56366 1.74303 1.56848 1.70683 1.58298 1.6741C1.59747 1.64136 1.62103 1.61346 1.65088 1.59369C1.68072 1.57392 1.7156 1.56311 1.7514 1.56253H18.2514C18.288 1.56124 18.3241 1.57125 18.3548 1.59122C18.3855 1.61118 18.4093 1.64012 18.423 1.67409C18.4384 1.70594 18.4439 1.74174 18.4385 1.77674C18.4331 1.81174 18.4173 1.84428 18.393 1.87003Z" fill="#02344A"/>
</svg>
