<svg width="24" height="25" viewBox="0 0 24 25" fill="none" xmlns="http://www.w3.org/2000/svg">
<path d="M20.4375 15.5C20.4375 15.6854 20.3825 15.8667 20.2795 16.0208C20.1765 16.175 20.0301 16.2952 19.8588 16.3661C19.6875 16.4371 19.499 16.4557 19.3171 16.4195C19.1352 16.3833 18.9682 16.294 18.8371 16.1629C18.706 16.0318 18.6167 15.8648 18.5805 15.6829C18.5443 15.501 18.5629 15.3125 18.6339 15.1412C18.7048 14.9699 18.825 14.8235 18.9792 14.7205C19.1333 14.6175 19.3146 14.5625 19.5 14.5625C19.7486 14.5625 19.9871 14.6613 20.1629 14.8371C20.3387 15.0129 20.4375 15.2514 20.4375 15.5ZM20.0297 19.0231C19.901 20.0679 19.395 21.0297 18.6068 21.7276C17.8187 22.4254 16.8027 22.8113 15.75 22.8125H13.5C12.3567 22.811 11.2607 22.3562 10.4522 21.5478C9.64382 20.7393 9.18899 19.6433 9.1875 18.5V14.5353C7.75007 14.3956 6.41616 13.7257 5.44563 12.6562C4.4751 11.5867 3.93748 10.1942 3.9375 8.75V4.25C3.9375 4.10082 3.99676 3.95774 4.10225 3.85225C4.20774 3.74676 4.35082 3.6875 4.5 3.6875H6.75C6.89918 3.6875 7.04226 3.74676 7.14775 3.85225C7.25324 3.95774 7.3125 4.10082 7.3125 4.25C7.3125 4.39918 7.25324 4.54226 7.14775 4.64775C7.04226 4.75324 6.89918 4.8125 6.75 4.8125H5.0625V8.75C5.0625 9.9932 5.55636 11.1855 6.43544 12.0646C7.31451 12.9436 8.5068 13.4375 9.75 13.4375H9.81281C12.3628 13.4038 14.4375 11.2662 14.4375 8.67219V4.8125H12.75C12.6008 4.8125 12.4577 4.75324 12.3523 4.64775C12.2468 4.54226 12.1875 4.39918 12.1875 4.25C12.1875 4.10082 12.2468 3.95774 12.3523 3.85225C12.4577 3.74676 12.6008 3.6875 12.75 3.6875H15C15.1492 3.6875 15.2923 3.74676 15.3977 3.85225C15.5032 3.95774 15.5625 4.10082 15.5625 4.25V8.67219C15.5625 11.7125 13.2488 14.2447 10.3125 14.5334V18.5C10.3125 19.3454 10.6483 20.1561 11.2461 20.7539C11.8439 21.3517 12.6546 21.6875 13.5 21.6875H15.75C16.5067 21.6865 17.2384 21.4168 17.8147 20.9264C18.3909 20.4359 18.7742 19.7568 18.8963 19.01C18.0137 18.8573 17.2211 18.3778 16.6763 17.667C16.1314 16.9561 15.8743 16.0662 15.9561 15.1743C16.0379 14.2824 16.4526 13.4541 17.1177 12.8542C17.7828 12.2544 18.6494 11.927 19.5449 11.9374C20.4405 11.9478 21.2993 12.2951 21.9503 12.9102C22.6013 13.5253 22.9968 14.363 23.0579 15.2565C23.119 16.1501 22.8413 17.0338 22.2802 17.7318C21.719 18.4299 20.9155 18.8909 20.0297 19.0231ZM21.9375 15.5C21.9375 15.0179 21.7945 14.5466 21.5267 14.1458C21.2589 13.745 20.8782 13.4325 20.4328 13.248C19.9874 13.0636 19.4973 13.0153 19.0245 13.1093C18.5516 13.2034 18.1173 13.4355 17.7764 13.7764C17.4355 14.1173 17.2034 14.5516 17.1093 15.0245C17.0153 15.4973 17.0636 15.9874 17.248 16.4328C17.4325 16.8782 17.745 17.2589 18.1458 17.5267C18.5466 17.7945 19.0179 17.9375 19.5 17.9375C20.1465 17.9375 20.7665 17.6807 21.2236 17.2236C21.6807 16.7665 21.9375 16.1465 21.9375 15.5Z" fill="#02344A"/>
</svg>
