<svg width="24" height="25" viewBox="0 0 24 25" fill="none" xmlns="http://www.w3.org/2000/svg">
    <path d="M21.4865 20.4687C20.0043 17.9075 17.6774 16.1103 14.9736 15.3481C16.2882 14.6799 17.3393 13.5885 17.9576 12.2498C18.5759 10.911 18.7254 9.40311 18.3818 7.9691C18.0382 6.53508 17.2217 5.25856 16.0639 4.34537C14.9061 3.43218 13.4745 2.93555 11.9999 2.93555C10.5253 2.93555 9.09368 3.43218 7.93587 4.34537C6.77806 5.25856 5.96155 6.53508 5.61799 7.9691C5.27444 9.40311 5.42386 10.911 6.04217 12.2498C6.66048 13.5885 7.71164 14.6799 9.02615 15.3481C6.3224 16.1094 3.99552 17.9065 2.51333 20.4687C2.47264 20.5328 2.44531 20.6043 2.43299 20.6792C2.42068 20.7541 2.42364 20.8306 2.44169 20.9043C2.45974 20.978 2.4925 21.0473 2.53802 21.108C2.58353 21.1687 2.64086 21.2195 2.70654 21.2575C2.77222 21.2955 2.8449 21.3197 2.92021 21.3289C2.99552 21.338 3.0719 21.3319 3.14476 21.3107C3.21762 21.2896 3.28545 21.2539 3.34417 21.2059C3.4029 21.1579 3.45129 21.0985 3.48646 21.0312C5.2874 17.9197 8.46927 16.0625 11.9999 16.0625C15.5305 16.0625 18.7124 17.9197 20.5133 21.0312C20.5485 21.0985 20.5969 21.1579 20.6556 21.2059C20.7143 21.2539 20.7822 21.2896 20.855 21.3107C20.9279 21.3319 21.0043 21.338 21.0796 21.3289C21.1549 21.3197 21.2276 21.2955 21.2933 21.2575C21.3589 21.2195 21.4163 21.1687 21.4618 21.108C21.5073 21.0473 21.5401 20.978 21.5581 20.9043C21.5762 20.8306 21.5791 20.7541 21.5668 20.6792C21.5545 20.6043 21.5272 20.5328 21.4865 20.4687ZM6.5624 9.49998C6.5624 8.42455 6.8813 7.37326 7.47878 6.47907C8.07626 5.58488 8.92548 4.88794 9.91906 4.47639C10.9126 4.06484 12.0059 3.95716 13.0607 4.16696C14.1155 4.37677 15.0843 4.89464 15.8448 5.65509C16.6052 6.41554 17.1231 7.38441 17.3329 8.43918C17.5427 9.49395 17.435 10.5873 17.0235 11.5808C16.6119 12.5744 15.915 13.4236 15.0208 14.0211C14.1266 14.6186 13.0753 14.9375 11.9999 14.9375C10.5583 14.9357 9.17628 14.3623 8.15692 13.343C7.13757 12.3236 6.56413 10.9416 6.5624 9.49998Z" fill="#02344A"/>
</svg>
