<svg width="16" height="16" viewBox="0 0 16 16" fill="none" xmlns="http://www.w3.org/2000/svg">
<path d="M15.6498 14.7885C15.7097 14.8443 15.7577 14.9116 15.791 14.9864C15.8243 15.0611 15.8422 15.1418 15.8437 15.2236C15.8451 15.3054 15.83 15.3867 15.7994 15.4626C15.7688 15.5385 15.7231 15.6074 15.6653 15.6653C15.6074 15.7231 15.5385 15.7688 15.4626 15.7994C15.3867 15.83 15.3054 15.8451 15.2236 15.8437C15.1418 15.8422 15.0611 15.8243 14.9864 15.791C14.9116 15.7577 14.8443 15.7097 14.7885 15.6498L7.90667 8.76894L1.0248 15.6498C0.909283 15.7574 0.756495 15.816 0.598625 15.8133C0.440755 15.8105 0.29013 15.7465 0.178482 15.6349C0.0668337 15.5232 0.00288036 15.3726 9.49385e-05 15.2147C-0.00269049 15.0569 0.0559094 14.9041 0.163549 14.7885L7.04441 7.90667L0.163549 1.0248C0.0559094 0.909283 -0.00269049 0.756495 9.49385e-05 0.598625C0.00288036 0.440755 0.0668337 0.29013 0.178482 0.178482C0.29013 0.0668337 0.440755 0.00288036 0.598625 9.49385e-05C0.756495 -0.00269049 0.909283 0.0559094 1.0248 0.163549L7.90667 7.04441L14.7885 0.163549C14.9041 0.0559094 15.0569 -0.00269049 15.2147 9.49385e-05C15.3726 0.00288036 15.5232 0.0668337 15.6349 0.178482C15.7465 0.29013 15.8105 0.440755 15.8133 0.598625C15.816 0.756495 15.7574 0.909283 15.6498 1.0248L8.76894 7.90667L15.6498 14.7885Z" fill="#007DCF"/>
</svg>
