<svg width="25" height="24" viewBox="0 0 25 24" fill="none" xmlns="http://www.w3.org/2000/svg">
<path d="M21.5 4.6875H3.5C3.1519 4.6875 2.81806 4.82578 2.57192 5.07192C2.32578 5.31806 2.1875 5.6519 2.1875 6V18C2.1875 18.3481 2.32578 18.6819 2.57192 18.9281C2.81806 19.1742 3.1519 19.3125 3.5 19.3125H21.5C21.8481 19.3125 22.1819 19.1742 22.4281 18.9281C22.6742 18.6819 22.8125 18.3481 22.8125 18V6C22.8125 5.6519 22.6742 5.31806 22.4281 5.07192C22.1819 4.82578 21.8481 4.6875 21.5 4.6875ZM3.5 5.8125H21.5C21.5497 5.8125 21.5974 5.83225 21.6326 5.86742C21.6677 5.90258 21.6875 5.95027 21.6875 6V8.4375H3.3125V6C3.3125 5.95027 3.33225 5.90258 3.36742 5.86742C3.40258 5.83225 3.45027 5.8125 3.5 5.8125ZM21.5 18.1875H3.5C3.45027 18.1875 3.40258 18.1677 3.36742 18.1326C3.33225 18.0974 3.3125 18.0497 3.3125 18V9.5625H21.6875V18C21.6875 18.0497 21.6677 18.0974 21.6326 18.1326C21.5974 18.1677 21.5497 18.1875 21.5 18.1875ZM19.8125 15.75C19.8125 15.8992 19.7532 16.0423 19.6477 16.1477C19.5423 16.2532 19.3992 16.3125 19.25 16.3125H16.25C16.1008 16.3125 15.9577 16.2532 15.8523 16.1477C15.7468 16.0423 15.6875 15.8992 15.6875 15.75C15.6875 15.6008 15.7468 15.4577 15.8523 15.3523C15.9577 15.2468 16.1008 15.1875 16.25 15.1875H19.25C19.3992 15.1875 19.5423 15.2468 19.6477 15.3523C19.7532 15.4577 19.8125 15.6008 19.8125 15.75ZM13.8125 15.75C13.8125 15.8992 13.7532 16.0423 13.6477 16.1477C13.5423 16.2532 13.3992 16.3125 13.25 16.3125H11.75C11.6008 16.3125 11.4577 16.2532 11.3523 16.1477C11.2468 16.0423 11.1875 15.8992 11.1875 15.75C11.1875 15.6008 11.2468 15.4577 11.3523 15.3523C11.4577 15.2468 11.6008 15.1875 11.75 15.1875H13.25C13.3992 15.1875 13.5423 15.2468 13.6477 15.3523C13.7532 15.4577 13.8125 15.6008 13.8125 15.75Z" fill="#000305"/>
</svg>
