<svg width="19" height="16" viewBox="0 0 19 16" fill="none" xmlns="http://www.w3.org/2000/svg">
<path d="M18.1475 8.39714L11.3975 15.1471C11.2909 15.2465 11.1498 15.3006 11.0041 15.298C10.8584 15.2955 10.7193 15.2364 10.6163 15.1334C10.5132 15.0303 10.4542 14.8913 10.4516 14.7455C10.449 14.5998 10.5031 14.4588 10.6025 14.3521L16.3916 8.56214H1.25C1.10082 8.56214 0.957742 8.50288 0.852252 8.39739C0.746763 8.2919 0.6875 8.14883 0.6875 7.99964C0.6875 7.85046 0.746763 7.70738 0.852252 7.60189C0.957742 7.4964 1.10082 7.43714 1.25 7.43714H16.3916L10.6025 1.64714C10.5031 1.54051 10.449 1.39947 10.4516 1.25375C10.4542 1.10802 10.5132 0.968984 10.6163 0.865924C10.7193 0.762864 10.8584 0.703831 11.0041 0.70126C11.1498 0.698688 11.2909 0.752781 11.3975 0.852141L18.1475 7.60214C18.2528 7.70761 18.312 7.85058 18.312 7.99964C18.312 8.1487 18.2528 8.29167 18.1475 8.39714Z" fill="white"/>
</svg>
