<svg width="25" height="25" viewBox="0 0 25 25" fill="none" xmlns="http://www.w3.org/2000/svg">
<path d="M12.5 2.9375C10.6087 2.9375 8.75991 3.49833 7.18736 4.54907C5.61482 5.59981 4.38917 7.09327 3.66541 8.84059C2.94164 10.5879 2.75227 12.5106 3.12125 14.3656C3.49022 16.2205 4.40096 17.9244 5.7383 19.2617C7.07564 20.599 8.77951 21.5098 10.6345 21.8788C12.4894 22.2477 14.4121 22.0584 16.1594 21.3346C17.9067 20.6108 19.4002 19.3852 20.4509 17.8126C21.5017 16.2401 22.0625 14.3913 22.0625 12.5C22.0595 9.96478 21.0511 7.53425 19.2584 5.74158C17.4658 3.94891 15.0352 2.94048 12.5 2.9375ZM12.5 20.9375C10.8312 20.9375 9.19992 20.4426 7.81238 19.5155C6.42484 18.5884 5.34338 17.2706 4.70477 15.7289C4.06616 14.1871 3.89907 12.4906 4.22463 10.8539C4.55019 9.21721 5.35379 7.71379 6.53379 6.53379C7.7138 5.35378 9.21722 4.55019 10.8539 4.22462C12.4906 3.89906 14.1871 4.06615 15.7289 4.70477C17.2706 5.34338 18.5884 6.42484 19.5155 7.81238C20.4427 9.19992 20.9375 10.8312 20.9375 12.5C20.935 14.737 20.0453 16.8817 18.4635 18.4635C16.8817 20.0453 14.737 20.935 12.5 20.9375ZM18.3125 12.5C18.3125 12.6492 18.2532 12.7923 18.1478 12.8977C18.0423 13.0032 17.8992 13.0625 17.75 13.0625H12.5C12.3508 13.0625 12.2077 13.0032 12.1023 12.8977C11.9968 12.7923 11.9375 12.6492 11.9375 12.5V7.25C11.9375 7.10082 11.9968 6.95774 12.1023 6.85225C12.2077 6.74676 12.3508 6.6875 12.5 6.6875C12.6492 6.6875 12.7923 6.74676 12.8978 6.85225C13.0032 6.95774 13.0625 7.10082 13.0625 7.25V11.9375H17.75C17.8992 11.9375 18.0423 11.9968 18.1478 12.1023C18.2532 12.2077 18.3125 12.3508 18.3125 12.5Z" fill="#02344A"/>
</svg>
