<svg width="27" height="24" viewBox="0 0 27 24" fill="none" xmlns="http://www.w3.org/2000/svg">
<path d="M26.5 2V18C26.5 18.5304 26.2893 19.0391 25.9142 19.4142C25.5392 19.7893 25.0305 20 24.5 20H7.87503L3.80004 23.52L3.78879 23.5287C3.42883 23.8339 2.97196 24.001 2.50004 24C2.20663 23.9995 1.9169 23.9346 1.65128 23.81C1.30579 23.6508 1.01348 23.3954 0.809313 23.0744C0.605147 22.7534 0.497774 22.3804 0.500035 22V2C0.500035 1.46957 0.710749 0.960859 1.08582 0.585786C1.46089 0.210714 1.9696 0 2.50004 0H24.5C25.0305 0 25.5392 0.210714 25.9142 0.585786C26.2893 0.960859 26.5 1.46957 26.5 2Z" fill="#21B7F8"/>
</svg>
