<svg width="21" height="20" viewBox="0 0 21 20" fill="none" xmlns="http://www.w3.org/2000/svg">
<path d="M18.1484 5.84207L14.657 2.35066C14.5555 2.24909 14.4349 2.16851 14.3022 2.11354C14.1695 2.05857 14.0272 2.03027 13.8836 2.03027C13.74 2.03027 13.5977 2.05857 13.465 2.11354C13.3323 2.16851 13.2117 2.24909 13.1102 2.35066L3.47656 11.985C3.37479 12.0865 3.2941 12.207 3.23912 12.3398C3.18415 12.4725 3.15599 12.6148 3.15625 12.7585V16.2499C3.15625 16.54 3.27149 16.8182 3.4766 17.0233C3.68172 17.2284 3.95992 17.3436 4.25 17.3436H7.74141C7.88508 17.3439 8.02739 17.3157 8.16013 17.2608C8.29288 17.2058 8.41343 17.1251 8.51485 17.0233L18.1484 7.38895C18.25 7.28738 18.3306 7.1668 18.3856 7.03409C18.4405 6.90139 18.4688 6.75915 18.4688 6.61551C18.4688 6.47187 18.4405 6.32963 18.3856 6.19692C18.3306 6.06422 18.25 5.94364 18.1484 5.84207ZM7.85156 16.36C7.8224 16.3894 7.78278 16.406 7.74141 16.4061H4.25C4.20856 16.4061 4.16882 16.3897 4.13952 16.3604C4.11021 16.3311 4.09375 16.2913 4.09375 16.2499V12.7585C4.09393 12.7171 4.1105 12.6775 4.13985 12.6483L11.125 5.66238L14.8367 9.37488L7.85156 16.36ZM17.4852 6.72645L15.5 8.7116L11.7883 4.99988L13.7734 3.01395C13.788 2.99942 13.8052 2.98789 13.8242 2.98003C13.8431 2.97217 13.8635 2.96812 13.884 2.96812C13.9045 2.96812 13.9249 2.97217 13.9438 2.98003C13.9628 2.98789 13.98 2.99942 13.9945 3.01395L17.4852 6.50535C17.4997 6.51986 17.5112 6.5371 17.5191 6.55606C17.5269 6.57503 17.531 6.59537 17.531 6.6159C17.531 6.63643 17.5269 6.65677 17.5191 6.67573C17.5112 6.6947 17.4997 6.71193 17.4852 6.72645Z" fill="white"/>
</svg>
