<svg width="105" height="104" viewBox="0 0 105 104" fill="none" xmlns="http://www.w3.org/2000/svg">
<path d="M89.0625 65C89.0625 65.8035 88.8242 66.5889 88.3778 67.257C87.9314 67.9251 87.297 68.4458 86.5546 68.7533C85.8123 69.0607 84.9955 69.1412 84.2075 68.9844C83.4194 68.8277 82.6955 68.4408 82.1274 67.8726C81.5592 67.3045 81.1723 66.5806 81.0156 65.7926C80.8588 65.0045 80.9393 64.1877 81.2467 63.4454C81.5542 62.703 82.0749 62.0685 82.743 61.6222C83.4111 61.1758 84.1965 60.9375 85 60.9375C86.0774 60.9375 87.1108 61.3655 87.8726 62.1274C88.6345 62.8892 89.0625 63.9226 89.0625 65ZM87.2953 80.2669C86.7376 84.7944 84.5449 88.9621 81.1296 91.9861C77.7142 95.0101 73.3117 96.6821 68.75 96.6875H59C54.0457 96.6811 49.2963 94.7101 45.7931 91.2069C42.2899 87.7038 40.3189 82.9543 40.3125 78V60.8197C34.0837 60.2141 28.3033 57.3112 24.0977 52.6768C19.8921 48.0424 17.5624 42.0082 17.5625 35.75V16.25C17.5625 15.6035 17.8193 14.9835 18.2764 14.5264C18.7335 14.0693 19.3535 13.8125 20 13.8125H29.75C30.3965 13.8125 31.0165 14.0693 31.4736 14.5264C31.9307 14.9835 32.1875 15.6035 32.1875 16.25C32.1875 16.8965 31.9307 17.5165 31.4736 17.9736C31.0165 18.4307 30.3965 18.6875 29.75 18.6875H22.4375V35.75C22.4375 41.1372 24.5776 46.3038 28.3869 50.1131C32.1962 53.9224 37.3628 56.0625 42.75 56.0625H43.0222C54.0722 55.9162 63.0625 46.6537 63.0625 35.4128V18.6875H55.75C55.1035 18.6875 54.4835 18.4307 54.0264 17.9736C53.5693 17.5165 53.3125 16.8965 53.3125 16.25C53.3125 15.6035 53.5693 14.9835 54.0264 14.5264C54.4835 14.0693 55.1035 13.8125 55.75 13.8125H65.5C66.1465 13.8125 66.7665 14.0693 67.2236 14.5264C67.6807 14.9835 67.9375 15.6035 67.9375 16.25V35.4128C67.9375 48.5875 57.9113 59.5603 45.1875 60.8116V78C45.1875 81.6633 46.6427 85.1766 49.2331 87.7669C51.8234 90.3573 55.3367 91.8125 59 91.8125H68.75C72.029 91.8082 75.1998 90.6393 77.6969 88.5142C80.194 86.3891 81.8551 83.4461 82.3838 80.21C78.5596 79.5482 75.1249 77.4703 72.7639 74.3901C70.4028 71.3099 69.2886 67.4534 69.643 63.5886C69.9975 59.7238 71.7947 56.1343 74.6767 53.5349C77.5587 50.9356 81.314 49.5172 85.1948 49.5621C89.0755 49.607 92.797 51.1121 95.618 53.7774C98.439 56.4428 100.153 60.073 100.418 63.9449C100.682 67.8169 99.4791 71.6466 97.0474 74.6713C94.6156 77.696 91.1338 79.6939 87.2953 80.2669ZM95.5625 65C95.5625 62.9109 94.943 60.8688 93.7824 59.1318C92.6218 57.3948 90.9721 56.041 89.0421 55.2415C87.112 54.4421 84.9883 54.2329 82.9394 54.6405C80.8904 55.048 79.0084 56.054 77.5312 57.5312C76.054 59.0084 75.048 60.8904 74.6405 62.9394C74.2329 64.9883 74.4421 67.112 75.2415 69.0421C76.041 70.9721 77.3948 72.6218 79.1318 73.7824C80.8688 74.943 82.9109 75.5625 85 75.5625C87.8013 75.5625 90.488 74.4497 92.4688 72.4688C94.4497 70.488 95.5625 67.8013 95.5625 65Z" fill="#02344A"/>
</svg>
