<svg width="520" height="369" viewBox="0 0 520 369" fill="none" xmlns="http://www.w3.org/2000/svg">
<g clip-path="url(#clip0_8396_11495)">
<path opacity="0.1" d="M172.878 368.793C198.202 368.793 218.731 365.489 218.731 361.415C218.731 357.34 198.202 354.037 172.878 354.037C147.555 354.037 127.026 357.34 127.026 361.415C127.026 365.489 147.555 368.793 172.878 368.793Z" fill="#007DCF"/>
<path opacity="0.1" d="M422.126 369C453.726 369 479.343 365.697 479.343 361.622C479.343 357.548 453.726 354.245 422.126 354.245C390.526 354.245 364.909 357.548 364.909 361.622C364.909 365.697 390.526 369 422.126 369Z" fill="#007DCF"/>
<path opacity="0.1" d="M6.51248 159.435H54.2708V224.646H10.0088C9.89118 225.316 9.77824 225.99 9.6559 226.664H54.2708V279.256C54.1908 279.232 54.1202 279.204 54.0449 279.176C52.7837 278.676 51.532 278.148 50.2803 277.582L49.4803 277.219C48.2255 276.625 46.9706 275.997 45.7158 275.333C45.2781 275.102 44.8405 274.862 44.4076 274.617C37.4412 270.707 31.1125 265.754 25.6412 259.927C25.4812 259.772 25.3306 259.607 25.1706 259.456C24.4083 258.626 23.6601 257.787 22.9354 256.929L22.1354 255.986C21.279 254.935 20.4508 253.855 19.6461 252.762C19.5285 252.602 19.4155 252.441 19.2932 252.29C16.0206 247.745 13.3033 242.822 11.1994 237.629C11.1335 237.474 11.077 237.304 11.0158 237.158C10.3696 235.492 9.79707 233.811 9.29826 232.114C9.0818 231.402 8.87475 230.699 8.69593 229.959C8.63005 229.742 8.57358 229.53 8.52182 229.318C5.84897 218.867 5.53369 208.01 5.53369 197.228C5.53369 195.97 5.53369 194.706 5.53369 193.457C5.53369 189.096 5.58545 184.707 5.66075 180.323C5.66075 179.187 5.7078 178.056 5.73133 176.915C5.79721 174.02 5.89133 171.126 6.01367 168.231C6.04191 167.425 6.07955 166.624 6.12191 165.822C6.12191 165.36 6.14543 164.898 6.19249 164.436C6.30543 162.758 6.39954 161.094 6.51248 159.435Z" fill="#007DCF"/>
<path opacity="0.1" d="M54.2709 86.8264H28.0742C32.3326 80.1491 36.9855 73.7326 42.0078 67.6113C45.8995 62.8217 50.0075 58.1546 54.2709 53.6572V86.8264Z" fill="#007DCF"/>
<path opacity="0.1" d="M54.2708 88.8438V157.417H6.66309C6.66309 157.219 6.69603 157.016 6.71014 156.818C6.75249 156.276 6.79484 155.734 6.8419 155.196C6.89366 154.565 6.95013 153.928 7.01131 153.311C7.07248 152.693 7.13836 151.939 7.20895 151.255C7.27953 150.572 7.34541 149.879 7.42541 149.195C7.50541 148.511 7.57599 147.828 7.6607 147.149C7.7454 146.47 7.82069 145.782 7.9101 145.103C7.98069 144.537 8.05597 143.976 8.13127 143.411C8.2395 142.614 8.35244 141.813 8.47478 141.021C8.47478 140.903 8.50772 140.78 8.52655 140.667C9.38543 134.869 10.5557 129.122 12.0323 123.451C13.5779 117.501 15.5517 111.672 17.938 106.008C20.4742 100.083 23.4437 94.354 26.8224 88.8673L54.2708 88.8438Z" fill="#007DCF"/>
<path opacity="0.1" d="M65.6729 159.43V224.646H167.679V159.43H65.6729ZM65.6729 226.659V282.664C66.2564 282.787 66.8352 282.904 67.4093 283.003C68.1904 283.154 68.9669 283.291 69.7621 283.409C69.9127 283.432 70.068 283.456 70.2327 283.47C70.5433 283.522 70.8633 283.564 71.1738 283.607C71.9597 283.715 72.7408 283.805 73.5267 283.876C73.8984 283.913 74.2749 283.946 74.6514 283.975L75.5596 284.045C76.0536 284.083 76.543 284.111 77.0277 284.125C77.3289 284.125 77.6301 284.154 77.9406 284.163C78.1759 284.163 78.4112 284.163 78.6559 284.163C78.9006 284.163 79.2488 284.163 79.5453 284.163C79.95 284.163 80.3547 284.163 80.7547 284.163H81.2958C81.7005 284.163 82.1052 284.163 82.5052 284.125H82.5334C82.8111 284.125 83.0934 284.125 83.3757 284.088C83.4541 284.092 83.5327 284.092 83.611 284.088C83.8463 284.088 84.0816 284.088 84.3075 284.055H84.4722L86.0486 283.932C86.5662 283.885 87.0885 283.824 87.6156 283.767L88.6885 283.64C93.0534 283.027 97.3698 282.107 101.606 280.887C111.121 278.228 120.429 274.508 129.939 271.784C142.235 268.272 155.82 266.546 167.702 270.841V226.659H65.6729ZM167.679 86.8264V0.00477985C156.511 -0.116434 145.373 1.19214 134.536 3.89872C108.707 10.3996 85.531 24.4998 65.6729 42.5081V86.8217H70.7927V88.8346H65.6729V157.417H167.679V88.8393H91.8131V86.8264H167.679ZM298.7 57.4993C292.309 57.273 285.957 55.2459 280.211 52.1156C269.223 46.1286 260.447 36.884 250.64 29.082C230.265 12.8321 204.995 3.02659 179.071 0.594056V86.8264H324.689L325.052 86.4445L298.7 57.4993ZM311.965 55.1422L326.031 70.6048V51.088C321.32 51.6725 317.193 53.0632 311.984 55.1233L311.965 55.1422ZM326.031 296.571V226.659H296.06C295.98 226.362 295.9 226.061 295.806 225.759C295.895 226.061 295.97 226.362 296.055 226.659H179.09V277.219C180.2 278.044 181.297 278.912 182.384 279.793C183.556 280.736 184.713 281.731 185.876 282.706L187.047 283.678C187.607 284.149 188.172 284.62 188.741 285.064C189.871 285.981 191.011 286.886 192.162 287.779C192.732 288.25 193.315 288.675 193.894 289.118C203.083 296.156 212.776 302.507 222.895 308.121C225.164 309.378 227.452 310.605 229.761 311.803C231.3 312.59 232.848 313.372 234.401 314.131C236.735 315.272 239.088 316.372 241.459 317.431C263.325 327.264 286.447 334.012 310.163 337.481C315.43 338.26 320.718 338.873 326.026 339.319V296.566H326.496L326.031 296.571ZM179.09 88.8393V157.417H326.049V88.8393H179.09ZM179.09 159.43V224.646H326.049V159.43H179.09ZM337.456 51.0031V72.7733L355.408 53.0396C349.46 52.0779 343.476 51.3912 337.456 50.9795V51.0031ZM337.456 159.453V224.646H480.392V159.43L337.456 159.453ZM479.87 301.747L480.373 226.659H337.456V340.069C346.663 340.456 355.884 340.346 365.078 339.739H365.238C369.63 339.462 374.002 339.06 378.353 338.532H378.452C401.666 335.826 424.364 329.758 445.838 320.519M507.953 170.169C507.417 168.901 506.857 167.642 506.288 166.398C505.224 164.04 504.099 161.749 502.942 159.458H491.789V224.646H519.986C519.972 206.185 515.308 187.329 507.967 170.145L507.953 170.169ZM491.789 226.683V291.267C499.732 283.64 506.443 274.914 511.276 264.939C517.087 252.927 519.746 239.92 519.962 226.673L491.789 226.683ZM491.789 140.45V157.422H501.897C498.839 151.579 495.47 145.906 491.803 140.427L491.789 140.45ZM394.852 63.7975C394.108 63.5146 393.365 63.227 392.616 62.9489C384.725 60.0295 376.662 57.6018 368.471 55.6796L340.999 85.8835L340.472 86.4445L340.825 86.8311H438.601C424.983 77.4406 410.302 69.7008 394.866 63.7739L394.852 63.7975ZM441.466 88.8629H339.461L337.456 90.7015V157.417H355.027H355.055H480.411V125.101C469.071 111.362 455.983 99.1708 441.48 88.8393L441.466 88.8629Z" fill="#007DCF"/>
<path opacity="0.1" d="M54.2708 123.432V157.417H6.66309C6.66309 157.219 6.69603 157.016 6.71014 156.818C6.75249 156.276 6.79484 155.734 6.8419 155.196C6.89366 154.565 6.95013 153.928 7.01131 153.311C7.07248 152.693 7.13836 151.939 7.20895 151.255C7.27953 150.572 7.34541 149.879 7.42541 149.195C7.50541 148.512 7.57599 147.828 7.6607 147.149C7.7454 146.47 7.82069 145.782 7.9101 145.103C7.98069 144.538 8.05597 143.977 8.13127 143.411C8.2395 142.614 8.35244 141.813 8.47478 141.021C8.47478 140.903 8.50772 140.78 8.52655 140.667C9.38543 134.87 10.5557 129.122 12.0323 123.451L54.2708 123.432Z" fill="#007DCF"/>
<path opacity="0.1" d="M6.51248 159.435H54.2708V224.646H10.0088C9.89118 225.316 9.77824 225.99 9.6559 226.664H54.2708V279.256C54.1908 279.232 54.1202 279.204 54.0449 279.176C52.7837 278.676 51.532 278.148 50.2803 277.582L49.4803 277.219C48.2255 276.625 46.9706 275.997 45.7158 275.333C45.2781 275.102 44.8405 274.862 44.4076 274.617C37.4412 270.707 31.1125 265.754 25.6412 259.927C25.4812 259.772 25.3306 259.607 25.1706 259.456C24.4083 258.626 23.6601 257.787 22.9354 256.929L22.1354 255.986C21.279 254.935 20.4508 253.855 19.6461 252.762C19.5285 252.602 19.4155 252.441 19.2932 252.29C16.0206 247.745 13.3033 242.822 11.1994 237.629C11.1335 237.474 11.077 237.304 11.0158 237.158C10.3696 235.492 9.79707 233.811 9.29826 232.114C9.0818 231.402 8.87475 230.699 8.69593 229.959C8.63005 229.742 8.57358 229.53 8.52182 229.318C5.84897 218.867 5.53369 208.01 5.53369 197.228C5.53369 195.97 5.53369 194.706 5.53369 193.457C5.53369 189.096 5.58545 184.707 5.66075 180.323C5.66075 179.187 5.7078 178.056 5.73133 176.915C5.79721 174.02 5.89133 171.126 6.01367 168.231C6.04191 167.425 6.07955 166.624 6.12191 165.822C6.12191 165.36 6.14543 164.898 6.19249 164.436C6.30543 162.758 6.39954 161.094 6.51248 159.435Z" fill="#007DCF"/>
<path opacity="0.1" d="M101.582 98.6591V157.417H65.6729V98.6591H70.7927V78.7651H91.8084V98.6591H101.582Z" fill="#007DCF"/>
<path opacity="0.1" d="M101.582 159.43H65.6777V224.641H101.582V159.43Z" fill="#007DCF"/>
<path opacity="0.1" d="M65.6729 226.664H101.582V280.877C97.3463 282.097 93.0299 283.015 88.665 283.626L87.5921 283.758C87.065 283.819 86.5427 283.871 86.0251 283.923C85.5074 283.975 84.971 284.012 84.4486 284.045H84.2839C84.0581 284.045 83.8134 284.074 83.5922 284.078H83.3522C83.0699 284.078 82.7875 284.107 82.5052 284.116C82.1052 284.14 81.7052 284.144 81.2958 284.149C81.1217 284.149 80.957 284.149 80.7829 284.149C80.3782 284.149 79.9782 284.149 79.5735 284.149H78.6841C78.4442 284.149 78.2136 284.149 77.9642 284.149L77.056 284.116C76.5854 284.116 76.0772 284.064 75.5878 284.031L74.6843 283.965L73.5596 283.862C72.7691 283.791 71.9832 283.701 71.2068 283.593L70.2656 283.461L69.7951 283.395C69.0092 283.272 68.2328 283.14 67.4422 282.989C66.8634 282.89 66.2893 282.768 65.7058 282.65L65.6729 226.664Z" fill="#007DCF"/>
<path opacity="0.1" d="M326.049 91.7197H296.441V157.412H326.049V91.7197Z" fill="#007DCF"/>
<path opacity="0.1" d="M326.054 159.43V224.646H179.09V196.516H257.369V213.11H296.441V159.43H326.054Z" fill="#007DCF"/>
<path opacity="0.1" d="M326.52 296.585H326.049V339.367C320.747 338.917 315.461 338.306 310.191 337.533C286.463 334.053 263.332 327.291 241.459 317.441C235.144 314.593 228.958 311.485 222.9 308.116C212.781 302.5 203.086 296.149 193.894 289.113C191.585 287.341 189.306 285.527 187.057 283.673C185.499 282.386 183.951 281.066 182.384 279.784C181.297 278.902 180.2 278.035 179.09 277.205V226.664H296.05C295.97 226.362 295.89 226.061 295.806 225.764C295.895 226.061 295.98 226.362 296.06 226.664H326.049V296.557C326.209 296.562 326.364 296.576 326.52 296.585Z" fill="#007DCF"/>
<path opacity="0.1" d="M403.27 86.8265H383.977V80.8206H392.626V62.9302C393.375 63.2036 394.122 63.4849 394.866 63.774V80.8206H403.27V86.8265Z" fill="#007DCF"/>
<path opacity="0.1" d="M449.753 157.417H355.037C355.037 157.417 355.037 157.417 355.07 157.44L355.027 157.417H337.456V91.7241H342.435V140.28H365.187V111.524H383.981V88.8438H403.275V111.543H422.069V140.299H449.753V157.417Z" fill="#007DCF"/>
<path opacity="0.1" d="M337.456 159.43V224.646H449.753V159.43H337.456ZM480.237 301.412L480.392 249.792H449.753V226.692H337.456V340.069C346.663 340.456 355.884 340.346 365.079 339.739H365.239C369.631 339.462 374.002 339.06 378.353 338.532H378.452C401.666 335.825 424.364 329.758 445.838 320.519" fill="#007DCF"/>
<path opacity="0.1" d="M493.784 226.664H519.981C519.751 239.906 517.097 252.913 511.29 264.925C506.457 274.905 499.742 283.631 491.808 291.253V249.768H493.784V226.664Z" fill="#007DCF"/>
<path opacity="0.1" d="M519.996 224.646H493.785V170.145H507.968C515.309 187.328 519.972 206.185 519.996 224.646Z" fill="#007DCF"/>
<path opacity="0.1" d="M326.054 109.982H310.191V130.579H326.054V109.982Z" fill="#007DCF"/>
<path opacity="0.1" d="M326.054 152.674H310.191V157.417H326.054V152.674Z" fill="#007DCF"/>
<path opacity="0.1" d="M326.054 159.43H310.191V173.266H326.054V159.43Z" fill="#007DCF"/>
<path opacity="0.1" d="M326.054 195.366H310.191V215.963H326.054V195.366Z" fill="#007DCF"/>
<path opacity="0.1" d="M326.054 238.058H310.191V258.654H326.054V238.058Z" fill="#007DCF"/>
<path opacity="0.1" d="M326.049 296.557C326.209 296.557 326.364 296.557 326.52 296.585H326.049V301.37H310.191V280.75H326.049V296.557Z" fill="#007DCF"/>
<path opacity="0.1" d="M326.049 323.433V339.343C320.747 338.894 315.461 338.282 310.191 337.509V323.433H326.049Z" fill="#007DCF"/>
<path opacity="0.1" d="M247.073 223.133H179.09V224.646H247.073V223.133Z" fill="#007DCF"/>
<path opacity="0.1" d="M247.073 226.659H179.09V232.458H247.073V226.659Z" fill="#007DCF"/>
<path opacity="0.1" d="M247.073 251.465H179.09V260.79H247.073V251.465Z" fill="#007DCF"/>
<path opacity="0.1" d="M247.069 279.798V289.123H193.894C191.585 287.356 189.305 285.543 187.052 283.682C185.495 282.395 183.951 281.075 182.379 279.798H247.069Z" fill="#007DCF"/>
<path opacity="0.1" d="M247.069 308.125V317.441H241.455C235.146 314.59 228.961 311.48 222.9 308.111L247.069 308.125Z" fill="#007DCF"/>
<path opacity="0.1" d="M378.466 165.751H365.083V179.159H378.466V165.751Z" fill="#007DCF"/>
<path opacity="0.1" d="M88.698 103.284H75.3149V116.691H88.698V103.284Z" fill="#007DCF"/>
<path opacity="0.1" d="M88.698 134.426H75.3149V147.833H88.698V134.426Z" fill="#007DCF"/>
<path opacity="0.1" d="M88.698 165.568H75.3149V178.975H88.698V165.568Z" fill="#007DCF"/>
<path opacity="0.1" d="M88.698 196.705H75.3149V210.112H88.698V196.705Z" fill="#007DCF"/>
<path opacity="0.1" d="M88.698 227.847H75.3149V241.254H88.698V227.847Z" fill="#007DCF"/>
<path opacity="0.1" d="M88.698 258.989H75.3149V272.396H88.698V258.989Z" fill="#007DCF"/>
<path opacity="0.1" d="M429.556 165.751H416.173V179.159H429.556V165.751Z" fill="#007DCF"/>
<path opacity="0.1" d="M378.466 198.822H365.083V212.229H378.466V198.822Z" fill="#007DCF"/>
<path opacity="0.1" d="M429.556 198.822H416.173V212.229H429.556V198.822Z" fill="#007DCF"/>
<path opacity="0.1" d="M378.466 231.887H365.083V245.294H378.466V231.887Z" fill="#007DCF"/>
<path opacity="0.1" d="M429.556 231.887H416.173V245.294H429.556V231.887Z" fill="#007DCF"/>
<path opacity="0.1" d="M378.466 264.958H365.083V278.365H378.466V264.958Z" fill="#007DCF"/>
<path opacity="0.1" d="M429.556 264.958H416.173V278.365H429.556V264.958Z" fill="#007DCF"/>
<path opacity="0.1" d="M378.466 298.027H365.083V311.435H378.466V298.027Z" fill="#007DCF"/>
<path opacity="0.1" d="M429.556 298.027H416.173V311.435H429.556V298.027Z" fill="#007DCF"/>
<path opacity="0.1" d="M365.083 339.739V331.093H378.461V338.508L365.083 339.739Z" fill="#007DCF"/>
<path opacity="0.1" d="M8.47021 140.658V148.328H54.2709V140.658H8.47021ZM13.0348 147.847H9.29842V141.129H13.063L13.0348 147.847ZM17.5946 147.847H13.83V141.129H17.5946V147.847ZM22.145 147.847H18.3804V141.129H22.145V147.847ZM26.7048 147.847H22.945V141.129H26.7096L26.7048 147.847ZM31.26 147.847H27.4954V141.129H31.26V147.847ZM35.8198 147.847H32.0552V141.129H35.8198V147.847ZM40.3797 147.847H36.6151V141.129H40.3797V147.847ZM44.9348 147.847H41.1702V141.129H44.9348V147.847ZM49.4899 147.847H45.7253V141.129H49.4899V147.847ZM54.045 147.847H50.2805V141.129H54.045V147.847Z" fill="#007DCF"/>
<path opacity="0.1" d="M8.47021 162.975V170.645H54.2709V162.975H8.47021ZM13.0348 170.16H9.29842V163.461H13.063L13.0348 170.16ZM17.5946 170.16H13.83V163.461H17.5946V170.16ZM22.145 170.16H18.3804V163.461H22.145V170.16ZM26.7048 170.16H22.945V163.461H26.7096L26.7048 170.16ZM31.26 170.16H27.4954V163.461H31.26V170.16ZM35.8198 170.16H32.0552V163.461H35.8198V170.16ZM40.3797 170.16H36.6151V163.461H40.3797V170.16ZM44.9348 170.16H41.1702V163.461H44.9348V170.16ZM49.4899 170.16H45.7253V163.461H49.4899V170.16ZM54.045 170.16H50.2805V163.461H54.045V170.16Z" fill="#007DCF"/>
<path opacity="0.1" d="M8.47021 185.301V192.985H54.2709V185.301H8.47021ZM13.0348 192.486H9.29842V185.782H13.063L13.0348 192.486ZM17.5946 192.486H13.83V185.782H17.5946V192.486ZM22.145 192.486H18.3804V185.782H22.145V192.486ZM26.7048 192.486H22.945V185.782H26.7096L26.7048 192.486ZM31.26 192.486H27.4954V185.782H31.26V192.486ZM35.8198 192.486H32.0552V185.782H35.8198V192.486ZM40.3797 192.486H36.6151V185.782H40.3797V192.486ZM44.9348 192.486H41.1702V185.782H44.9348V192.486ZM49.4899 192.486H45.7253V185.782H49.4899V192.486ZM54.045 192.486H50.2805V185.782H54.045V192.486Z" fill="#007DCF"/>
<path opacity="0.1" d="M8.47021 207.628V215.289H54.2709V207.628H8.47021ZM13.0348 214.812H9.29842V208.104H13.063L13.0348 214.812ZM17.5946 214.812H13.83V208.104H17.5946V214.812ZM22.145 214.812H18.3804V208.104H22.145V214.812ZM26.7048 214.812H22.945V208.104H26.7096L26.7048 214.812ZM31.26 214.812H27.4954V208.104H31.26V214.812ZM35.8198 214.812H32.0552V208.104H35.8198V214.812ZM40.3797 214.812H36.6151V208.104H40.3797V214.812ZM44.9348 214.812H41.1702V208.104H44.9348V214.812ZM49.4899 214.812H45.7253V208.104H49.4899V214.812ZM54.045 214.812H50.2805V208.104H54.045V214.812Z" fill="#007DCF"/>
<path opacity="0.1" d="M8.66797 229.95C8.85149 230.671 9.05854 231.392 9.275 232.104V230.431H13.0396V237.134H11.0255C11.0867 237.29 11.1479 237.459 11.2091 237.606H54.271V229.95H8.66797ZM17.6088 237.134H13.8443V230.431H17.6088V237.134ZM22.1592 237.134H18.3947V230.431H22.1592V237.134ZM26.7191 237.134H22.9451V230.431H26.7097L26.7191 237.134ZM31.2742 237.134H27.5096V230.431H31.2742V237.134ZM35.834 237.134H32.0695V230.431H35.834V237.134ZM40.3939 237.134H36.6293V230.431H40.3939V237.134ZM44.949 237.134H41.1844V230.431H44.949V237.134ZM49.5041 237.134H45.7396V230.431H49.5041V237.134ZM54.0593 237.134H50.2947V230.431H54.0593V237.134Z" fill="#007DCF"/>
<path opacity="0.1" d="M19.3027 252.276C19.4204 252.427 19.5333 252.597 19.6557 252.748H22.145V255.968C22.4132 256.288 22.6767 256.609 22.9497 256.91V252.729H26.7142V259.456H25.1896C25.3402 259.612 25.486 259.777 25.6601 259.928H54.285V252.276H19.3027ZM31.2599 259.456H27.4954V252.757H31.2599V259.456ZM35.8198 259.456H32.0552V252.757H35.8198V259.456ZM40.3796 259.456H36.615V252.757H40.3796V259.456ZM44.9347 259.456H41.1702V252.757H44.9347V259.456ZM49.4899 259.456H45.7253V252.757H49.4899V259.456ZM54.045 259.456H50.2804V252.757H54.045V259.456Z" fill="#007DCF"/>
<path opacity="0.1" d="M44.4268 274.598C44.855 274.843 45.2926 275.07 45.7349 275.315V275.079H49.4995V277.2L50.2995 277.573V275.079H54.0641V279.157C54.1363 279.193 54.2119 279.221 54.2899 279.242V274.598H44.4268Z" fill="#007DCF"/>
<path opacity="0.1" d="M295.806 225.759C295.895 226.06 295.97 226.362 296.055 226.659C295.98 226.362 295.9 226.06 295.806 225.759ZM70.8115 86.812V88.825H91.8319V86.812H70.8115ZM295.806 225.759C295.895 226.06 295.97 226.362 296.055 226.659C295.98 226.362 295.9 226.06 295.806 225.759ZM295.806 225.759C295.895 226.06 295.97 226.362 296.055 226.659C295.98 226.362 295.9 226.06 295.806 225.759Z" fill="#007DCF"/>
<path d="M217.216 178.984C217.216 178.984 215.362 178.725 215.362 176.019C215.362 173.313 214.035 168.259 214.035 168.259C214.035 168.236 212.886 159.458 211.3 158.063C209.715 156.667 207.677 148.474 207.677 148.474C207.677 148.474 207.329 144.028 206.618 143.071C205.908 142.114 204.948 139.771 203.531 136.429C202.115 133.087 196.209 130.772 196.209 130.772C196.209 130.772 185.532 124.568 182.506 122.546C182.231 122.38 181.974 122.185 181.739 121.966C181.212 121.273 178.916 121.259 178.916 121.259C178.676 119.741 178.445 117.996 178.37 116.417C178.37 116.248 178.37 116.078 178.346 115.908C181.72 113.91 184.262 110.76 185.504 107.036C185.56 106.857 185.607 106.668 185.659 106.489C185.861 106.422 186.047 106.314 186.205 106.171C186.363 106.028 186.49 105.854 186.577 105.659C186.85 105.051 186.854 104.339 187.193 103.774C187.588 103.104 188.341 102.746 188.934 102.242C190.431 100.969 190.817 98.8238 190.746 96.8721C190.699 95.2928 190.445 93.6994 190.544 92.1296L190.572 91.7336C190.6 91.4979 190.633 91.2622 190.675 91.0359C190.906 89.8668 191.409 88.7637 191.692 87.604C191.974 86.4443 192.002 85.1384 191.344 84.139C190.379 82.6729 188.37 82.3806 186.605 82.2298C184.605 82.0601 182.817 82.2816 181.537 80.6175C180.938 79.7477 180.264 78.9322 179.523 78.1803C179.259 77.9351 176.699 76.37 176.699 76.2663C174.201 75.107 171.369 74.8894 168.723 75.6535C167.396 76.04 166.144 76.6717 164.799 76.9876C161.895 77.6758 158.554 76.931 156.088 78.5951C154.714 79.538 153.891 81.0371 153.119 82.4985C152.492 83.7022 151.855 84.9043 151.209 86.1049C150.169 88.0801 149.11 90.0884 148.672 92.2757C148.58 92.7517 148.524 93.2339 148.503 93.7183V93.7419C148.503 93.9163 148.503 94.0907 148.503 94.2651V94.4867C148.503 94.6517 148.503 94.812 148.531 94.9581C148.559 95.1043 148.555 95.1514 148.569 95.2504C148.583 95.3494 148.606 95.571 148.635 95.7218C148.663 95.8727 148.719 96.1367 148.776 96.3441C148.799 96.4337 148.832 96.5185 148.86 96.6034C148.907 96.7637 148.964 96.9192 149.025 97.0748C149.058 97.155 149.091 97.2398 149.129 97.32C149.199 97.485 149.284 97.6452 149.369 97.7914C149.406 97.8574 149.434 97.9187 149.472 97.9799C149.603 98.1992 149.748 98.4101 149.905 98.6116C150.912 99.8703 152.394 100.672 153.491 101.85C153.491 101.897 153.491 101.945 153.491 101.987C153.491 102.119 153.491 102.246 153.491 102.378C153.549 105.007 154.247 107.581 155.525 109.877C156.803 112.174 158.621 114.123 160.822 115.555C160.822 115.734 160.846 115.918 160.855 116.097C160.947 117.496 160.93 118.9 160.803 120.297C160.612 120.071 160.372 119.891 160.102 119.77C159.831 119.649 159.537 119.591 159.241 119.599C159.039 119.589 158.836 119.607 158.639 119.651L158.597 119.618V119.661C157.561 119.915 156.286 120.995 155.067 124.064C155.067 124.064 151.359 128.25 148.536 128.075C145.712 127.901 138.564 132.431 138.564 132.431C138.564 132.431 131.59 136.966 130.094 141.586C129.258 144.206 128.255 146.77 127.092 149.261L118.471 167.057L116.88 181.176C116.88 181.176 117.76 187.456 117.586 188.413C117.412 189.37 121.205 198.001 121.205 198.001C121.205 198.001 133.736 220.059 138.856 221.191L139.223 220.931C139.442 221.046 139.674 221.133 139.915 221.191L140.969 220.446C141.032 221.276 141.005 222.11 140.889 222.935C140.183 225.113 141.152 239.326 142.385 242.112C143.618 244.898 143.181 281.429 143.181 281.429L143.006 284.653C143.006 284.653 143.006 284.757 143.049 284.936L143.006 285.7L143.134 285.766C143.265 286.789 143.223 287.826 143.006 288.835C142.564 290.249 142.385 294.247 142.385 294.247C142.385 294.247 138.861 316.818 140.531 321.353C142.202 325.888 143.623 330.857 143.623 330.857C143.623 330.857 145.388 336.514 143.708 337.481C142.028 338.447 137.251 340.069 138.235 342.426C139.129 344.604 142.522 350.44 143.025 351.293L142.983 351.741L142.291 359.251C142.403 360.242 142.672 361.21 143.086 362.117C143.844 363.753 145.317 365.45 148.117 365.266C148.587 365.233 149.133 365.177 149.66 365.106C154.785 364.418 161.095 362.126 161.095 362.126C160.768 361.918 160.467 361.669 160.201 361.386C159.949 361.142 159.75 360.849 159.615 360.525C159.479 360.2 159.412 359.852 159.415 359.501C159.491 358.134 156.935 351.619 156.3 350.016C156.201 349.785 156.15 349.653 156.15 349.653C156.15 349.653 161.975 343.553 161.006 338.145C161.006 338.145 154.559 334.374 156.681 332.304C158.804 330.235 162.596 324.29 162.596 324.29C162.596 324.29 162.77 302.063 162.596 298.744C162.415 296.44 162.524 294.123 162.921 291.847C162.992 291.503 163.076 291.168 163.166 290.838C166.101 291.277 169.064 291.502 172.031 291.512C173.114 291.512 174.215 291.512 175.325 291.446C175.325 291.761 175.339 292.1 175.368 292.465C175.612 297.971 176.069 307.626 176.441 311.213C176.968 316.356 179.88 330.216 179.88 330.216C179.88 330.216 174.323 333.789 180.85 342.596C180.85 342.596 180.85 345.787 180.417 346.249C179.955 347.759 179.582 349.296 179.302 350.85C179.029 352.51 178.916 354.188 179.358 355.06C180.417 357.144 186.77 356.974 186.77 356.974L186.925 356.946C188.124 356.821 189.336 356.937 190.491 357.286C191.645 357.635 192.719 358.21 193.649 358.977C196.063 360.92 205.225 360.066 210.185 359.449C212.129 359.204 213.427 358.977 213.427 358.977C213.49 358.757 213.513 358.527 213.493 358.299C213.442 357.078 212.486 354.4 206.011 352.01C206.011 352.01 199.922 347.908 200.007 344.335H199.88H199.174C199.687 344.307 200.016 344.335 200.016 344.335C200.016 344.335 197.63 335.614 198.604 334.907C199.579 334.2 196.661 324.535 196.661 324.535C196.661 324.535 194.99 308.319 194.901 307.182C194.905 306.207 195.052 305.238 195.339 304.307L194.901 295.416C194.901 295.416 194.816 292.46 194.901 291.498C194.887 290.663 194.819 289.831 194.699 289.004C194.656 288.674 194.614 288.33 194.567 287.991C196.849 287.411 198.332 286.874 198.332 286.874L198.068 255.925C200.007 252.153 200.364 243.88 200.355 238.011C200.355 234.239 200.186 231.449 200.186 231.449L202.835 227.116C202.835 227.116 203.447 221.931 202.477 220.795C202.049 220.281 202.242 219.748 202.595 219.31C202.778 219.164 202.972 219.032 203.174 218.914C203.174 218.914 203.145 218.871 203.113 218.81C203.298 218.655 203.494 218.515 203.701 218.39C203.701 218.39 202.76 216.929 203.602 216.311C204.393 216.849 205.098 217.254 205.635 217.584C205.597 217.928 205.56 218.126 205.56 218.126L205.785 217.655C206.303 217.947 206.618 218.126 206.618 218.126C206.618 218.126 210.769 209.843 210.679 208.622C210.59 207.401 213.503 202.258 213.503 202.258C213.503 202.258 213.856 199.557 215.446 198.426C217.037 197.294 216.679 189.096 216.679 189.096C216.679 189.096 217.121 184.825 218.18 183.081C219.239 181.337 217.216 178.984 217.216 178.984ZM137.802 175.35L137.882 177.325C137.411 176.566 137.073 176.019 137.073 176.019L137.802 175.35Z" fill="url(#paint0_linear_8396_11495)"/>
<path d="M206.844 214.548L205.828 218.885C205.828 218.885 197.687 214.723 196.219 209.433C194.751 204.144 198.675 202.136 198.675 202.136L206.261 205.356L206.844 214.548Z" fill="white"/>
<path opacity="0.1" d="M206.844 214.548L205.828 218.885C205.828 218.885 197.687 214.723 196.219 209.433C194.751 204.144 198.675 202.136 198.675 202.136L206.261 205.356L206.844 214.548Z" fill="black"/>
<path d="M161.156 362.155C161.156 362.155 153.627 364.927 148.451 365.276C145.703 365.46 144.258 363.772 143.515 362.146C143.109 361.241 142.847 360.279 142.738 359.294L143.411 351.822L143.769 347.843L154.766 344.981L156.324 349.752L156.47 350.115C157.095 351.708 159.604 358.19 159.528 359.543C159.525 359.89 159.592 360.233 159.725 360.553C159.857 360.873 160.053 361.163 160.3 361.406C160.553 361.691 160.84 361.943 161.156 362.155Z" fill="white"/>
<path d="M212.585 358.355C212.604 358.582 212.582 358.811 212.519 359.029C212.519 359.029 196.416 361.721 193.122 359.029C192.194 358.243 191.111 357.66 189.944 357.317C188.777 356.975 187.552 356.88 186.346 357.04C186.346 357.04 180.116 357.21 179.076 355.154C178.643 354.292 178.756 352.618 179.024 350.968C179.298 349.422 179.662 347.894 180.116 346.391L180.365 346.193L181.848 345L199.202 344.486H199.334C199.249 348.041 205.226 352.118 205.226 352.118C211.574 354.475 212.51 357.139 212.585 358.355Z" fill="white"/>
<path opacity="0.1" d="M212.585 358.355C212.602 358.583 212.578 358.811 212.515 359.03C212.515 359.03 196.416 361.721 193.122 359.03C192.194 358.244 191.112 357.661 189.946 357.318C188.78 356.976 187.556 356.881 186.351 357.04C186.351 357.04 180.116 357.21 179.081 355.154C178.648 354.287 178.756 352.618 179.024 350.968C181.424 351.209 185.212 351.807 186.699 353.236C188.948 355.409 192.76 357.578 195.099 357.747C196.929 357.865 207.88 358.214 212.585 358.355Z" fill="black"/>
<path opacity="0.1" d="M161.157 362.155C161.157 362.155 153.627 364.927 148.451 365.276C145.703 365.46 144.258 363.772 143.52 362.141C145.435 362.787 148.093 363.465 149.491 362.843C151.147 362.108 157.02 361.632 160.314 361.429C160.565 361.704 160.848 361.948 161.157 362.155Z" fill="black"/>
<path d="M172.328 138.772C166.117 136.354 158.126 128.363 160.121 124.629C160.565 123.687 160.828 122.67 160.898 121.631C161.026 120.221 161.045 118.802 160.954 117.388C160.815 115.073 160.536 112.769 160.121 110.487C160.121 110.487 179.514 110.925 178.384 113.787C178.055 114.626 178.003 116.083 178.093 117.714C178.182 119.345 178.417 121.188 178.662 122.748C179.001 124.889 179.34 126.52 179.34 126.52C179.34 126.52 178.154 128.184 177.457 128.274C176.761 128.363 181.241 142.218 172.328 138.772Z" fill="#CF6F80"/>
<path opacity="0.1" d="M156.455 350.115L156.309 350.275C150.512 343.251 143.5 352.005 143.5 352.005L143.397 351.822L143.755 347.843L154.752 344.981L156.309 349.752L156.455 350.115Z" fill="black"/>
<path opacity="0.1" d="M199.339 344.981C199.339 344.981 195.103 344.892 192.845 346.89C190.586 348.889 179.669 347.324 180.139 346.89C180.279 346.675 180.363 346.429 180.384 346.174L181.866 344.981L199.221 344.467C199.287 344.783 199.339 344.981 199.339 344.981Z" fill="black"/>
<path d="M163.669 289.82C163.354 290.602 163.114 291.411 162.954 292.239C162.562 294.504 162.453 296.81 162.629 299.103C162.803 302.403 162.629 324.517 162.629 324.517C162.629 324.517 158.907 330.414 156.832 332.493C154.757 334.572 161.067 338.306 161.067 338.306C162.008 343.68 156.305 349.752 156.305 349.752C150.507 342.728 143.496 351.487 143.496 351.487C143.496 351.487 139.684 344.887 138.734 342.53C137.783 340.173 142.456 338.542 144.098 337.585C145.741 336.628 144.018 330.985 144.018 330.985C144.018 330.985 142.63 326.04 140.983 321.528C139.336 317.017 142.799 294.558 142.799 294.558C142.799 294.558 142.978 290.57 143.407 289.179C143.623 288.176 143.666 287.142 143.534 286.124C143.505 285.78 143.472 285.493 143.449 285.299C143.425 285.106 143.407 285.017 143.407 285.017L143.472 284.903L145.825 280.51C145.825 280.51 164.799 287.053 163.669 289.82Z" fill="#007DCF"/>
<path d="M199.339 344.463C199.339 344.463 195.104 344.373 192.845 346.348C190.586 348.323 179.669 346.782 180.14 346.348C180.61 345.915 180.572 342.704 180.572 342.704C174.168 333.945 179.631 330.391 179.631 330.391C179.631 330.391 176.77 316.602 176.253 311.487C175.89 307.913 175.443 298.31 175.203 292.828C175.1 290.471 175.039 288.849 175.039 288.849L180.271 287.793L180.944 287.656L193.565 285.12C193.565 285.12 193.913 287.477 194.148 289.405C194.266 290.229 194.332 291.058 194.346 291.89C194.261 292.833 194.346 295.784 194.346 295.784L194.774 304.632C194.495 305.56 194.35 306.524 194.346 307.494C194.431 308.62 196.073 324.752 196.073 324.752C196.073 324.752 198.929 334.379 197.955 335.072C196.981 335.765 199.339 344.463 199.339 344.463Z" fill="#007DCF"/>
<path opacity="0.1" d="M178.384 113.787C178.055 114.626 178.003 116.083 178.092 117.714C175.495 119.281 172.509 120.082 169.477 120.025C166.445 119.968 163.491 119.056 160.954 117.393C160.814 115.076 160.536 112.77 160.121 110.487C160.121 110.487 179.513 110.916 178.384 113.787Z" fill="black"/>
<path d="M185.88 103.368C185.884 105.067 185.617 106.756 185.09 108.37C183.911 111.988 181.493 115.071 178.265 117.076C175.036 119.08 171.203 119.877 167.445 119.324C163.687 118.772 160.244 116.906 157.726 114.057C155.208 111.208 153.776 107.559 153.684 103.755C153.684 103.623 153.684 103.5 153.684 103.368C153.647 101.227 154.037 99.0996 154.83 97.1106C155.622 95.1216 156.802 93.3106 158.301 91.7833C159.8 90.256 161.587 89.043 163.559 88.2149C165.53 87.3869 167.647 86.9604 169.785 86.9604C171.922 86.9604 174.039 87.3869 176.01 88.2149C177.982 89.043 179.769 90.256 181.268 91.7833C182.767 93.3106 183.947 95.1216 184.74 97.1106C185.532 99.0996 185.922 101.227 185.885 103.368H185.88Z" fill="#CF6F80"/>
<path opacity="0.1" d="M172.328 138.772C166.117 136.354 158.126 128.363 160.121 124.63C160.565 123.687 160.828 122.671 160.898 121.631L169.401 128.632L174.662 132.955L178.662 122.753C179.001 124.894 179.34 126.525 179.34 126.525C179.34 126.525 178.154 128.189 177.457 128.278C176.761 128.368 181.241 142.218 172.328 138.772Z" fill="black"/>
<path d="M194.318 169.712L187.217 289.217L177.956 289.825L153.976 220.531L157.91 138.263L158.738 120.882L169.401 129.655L174.667 133.978L178.784 123.479L186.44 130.164L194.318 169.712Z" fill="#007DCF"/>
<path opacity="0.1" d="M163.669 289.82C163.354 290.601 163.114 291.411 162.954 292.239C156.215 291.196 149.671 289.148 143.538 286.162L143.411 286.096L143.453 285.337L143.477 284.941L145.83 280.547C145.83 280.547 164.799 287.053 163.669 289.82Z" fill="black"/>
<path opacity="0.1" d="M180.379 292.257C178.657 292.551 176.919 292.749 175.175 292.851C175.071 290.494 175.01 288.872 175.01 288.872L180.243 287.816L180.379 292.257Z" fill="black"/>
<path opacity="0.1" d="M194.12 289.429C190.774 290.301 185.608 291.281 180.982 290.669L180.916 287.68L193.537 285.144C193.537 285.144 193.885 287.477 194.12 289.429Z" fill="black"/>
<path opacity="0.1" d="M180.897 291.215C161.604 294.515 143.934 285.054 143.934 285.054L144.103 281.848C144.103 281.848 144.541 245.507 143.327 242.72C142.113 239.934 141.167 225.806 141.854 223.637C142.541 221.469 139.346 188.95 139.346 188.95L138.828 175.75L119.883 168.061L128.353 150.374C129.497 147.894 130.481 145.343 131.299 142.737C132.772 138.145 139.609 133.634 139.609 133.634C139.609 133.634 146.621 129.127 149.392 129.297C152.164 129.466 155.797 125.308 155.797 125.308C158.479 118.459 160.907 121.561 160.907 121.561C160.907 121.886 160.907 121.561 160.775 122.574C159.834 130.093 175.994 153.853 176.224 154.272L177.763 191.826L179.321 239.35L180.897 291.215Z" fill="black"/>
<path d="M180.379 291.215C161.086 294.515 143.411 285.054 143.411 285.054L143.585 281.848C143.585 281.848 144.023 245.506 142.804 242.72C141.586 239.934 140.644 225.806 141.336 223.637C142.028 221.469 138.828 188.95 138.828 188.95L138.306 175.75L119.351 168.033L127.821 150.345C128.963 147.864 129.947 145.314 130.767 142.708C132.235 138.117 139.077 133.605 139.077 133.605C139.077 133.605 146.089 129.098 148.856 129.268C151.623 129.438 155.26 125.28 155.26 125.28C157.947 118.43 160.907 121.532 160.907 121.532C160.907 121.857 160.625 122.004 160.775 122.546C162.846 129.839 175.476 153.825 175.707 154.244L177.264 191.797L178.822 239.321L180.379 291.215Z" fill="white"/>
<path opacity="0.1" d="M175.18 155.315C173.105 154.447 162.112 141.874 162.112 141.874V139.013C161.712 138.07 159.336 138.645 157.406 139.305L158.234 121.924L159.176 122.706C161.237 129.995 174.94 154.895 175.18 155.315Z" fill="black"/>
<path d="M175.702 154.273C173.622 153.405 162.63 140.832 162.63 140.832V137.971C162.23 137.028 159.853 137.603 157.924 138.263L158.757 120.882L159.698 121.664C161.764 128.953 175.471 153.858 175.702 154.273Z" fill="white"/>
<path opacity="0.1" d="M143.934 216.976C144.193 216.976 157.35 215.59 157.35 215.59C157.35 215.59 165.317 231.284 164.794 235.102C164.272 238.921 163.326 242.301 160.121 241.702C156.917 241.104 142.875 242.174 142.875 242.174L143.934 216.976Z" fill="black"/>
<path d="M143.411 215.934C143.67 215.934 156.827 214.548 156.827 214.548C156.827 214.548 164.789 230.247 164.272 234.06C163.754 237.874 162.799 241.259 159.599 240.66C156.399 240.062 142.353 241.132 142.353 241.132L143.411 215.934Z" fill="white"/>
<path d="M153.326 208.566C153.326 208.566 165.401 215.067 165.66 217.051C165.919 219.036 159.514 216.184 158.131 215.84C157.22 215.62 156.293 215.475 155.359 215.406L146.131 215.656L153.326 208.566Z" fill="#CF6F80"/>
<path opacity="0.1" d="M171.81 156.125C172.512 156.125 173.081 155.555 173.081 154.852C173.081 154.149 172.512 153.58 171.81 153.58C171.108 153.58 170.54 154.149 170.54 154.852C170.54 155.555 171.108 156.125 171.81 156.125Z" fill="black"/>
<path d="M171.81 155.607C172.512 155.607 173.081 155.037 173.081 154.334C173.081 153.631 172.512 153.061 171.81 153.061C171.108 153.061 170.54 153.631 170.54 154.334C170.54 155.037 171.108 155.607 171.81 155.607Z" fill="#3F3D56"/>
<path opacity="0.1" d="M174.149 211.225C174.851 211.225 175.42 210.655 175.42 209.952C175.42 209.249 174.851 208.679 174.149 208.679C173.447 208.679 172.878 209.249 172.878 209.952C172.878 210.655 173.447 211.225 174.149 211.225Z" fill="black"/>
<path d="M174.149 210.701C174.851 210.701 175.42 210.132 175.42 209.429C175.42 208.726 174.851 208.156 174.149 208.156C173.447 208.156 172.878 208.726 172.878 209.429C172.878 210.132 173.447 210.701 174.149 210.701Z" fill="#3F3D56"/>
<path opacity="0.1" d="M173.076 183.675C173.778 183.675 174.347 183.105 174.347 182.402C174.347 181.699 173.778 181.129 173.076 181.129C172.374 181.129 171.806 181.699 171.806 182.402C171.806 183.105 172.374 183.675 173.076 183.675Z" fill="black"/>
<path d="M173.076 183.157C173.778 183.157 174.347 182.587 174.347 181.884C174.347 181.181 173.778 180.611 173.076 180.611C172.374 180.611 171.806 181.181 171.806 181.884C171.806 182.587 172.374 183.157 173.076 183.157Z" fill="#3F3D56"/>
<path d="M202.365 215.142C202.365 215.142 203.23 216.444 202.365 217.052C201.499 217.66 202.449 219.131 202.449 219.131C202.449 219.131 200.289 220.399 201.24 221.54C202.191 222.68 201.588 227.833 201.588 227.833L198.991 232.142C198.991 232.142 199.146 234.919 199.155 238.671C199.155 244.526 198.812 252.757 196.911 256.51L197.174 287.298C197.174 287.298 188.078 290.626 180.464 289.613L179.335 240.208C179.335 240.208 180.982 212.191 181.589 206.817C181.944 204.027 182.089 201.214 182.022 198.402C182.022 198.402 181.763 189.992 180.892 186.089C180.892 186.089 179.951 169.179 179.857 164.498C179.815 162.258 179.932 155.725 180.064 149.511C180.21 142.718 180.375 136.311 180.375 136.311L178.657 122.697C178.657 122.697 180.375 122.522 180.892 123.215C181.124 123.432 181.376 123.627 181.645 123.795C184.61 125.803 195.085 131.979 195.085 131.979C195.085 131.979 200.882 134.289 202.27 137.598C203.659 140.908 204.623 143.255 205.296 144.198C205.969 145.141 206.336 149.573 206.336 149.573C206.336 149.573 208.331 157.728 209.889 159.109C211.447 160.491 212.585 169.278 212.585 169.278L198.821 180.121C198.821 180.121 197.612 198.157 197.353 198.855C197.094 199.553 202.365 215.142 202.365 215.142Z" fill="white"/>
<path d="M202.887 215.142C202.887 215.142 203.748 216.443 202.887 217.051C202.026 217.66 202.967 219.13 202.967 219.13C202.967 219.13 200.821 220.413 201.762 221.554C202.703 222.694 202.11 227.847 202.11 227.847L199.513 232.156C199.513 232.156 199.668 234.932 199.682 238.685C199.682 244.54 199.339 252.771 197.437 256.524L197.696 287.312C197.696 287.312 188.586 290.64 180.982 289.627L179.857 240.222C179.857 240.222 181.504 212.205 182.111 206.831C182.467 204.041 182.61 201.228 182.539 198.416C182.539 198.416 182.28 190.006 181.415 186.103C181.415 186.103 180.473 169.193 180.375 164.512C180.332 162.272 180.455 155.738 180.582 149.525C180.727 142.732 180.892 136.325 180.892 136.325L178.624 122.527C178.624 122.527 180.892 122.527 181.415 123.229C181.644 123.449 181.897 123.643 182.167 123.809C185.132 125.817 195.612 131.993 195.612 131.993C195.612 131.993 201.404 134.303 202.793 137.612C204.181 140.922 205.145 143.269 205.823 144.212C206.501 145.155 206.858 149.586 206.858 149.586C206.858 149.586 208.854 157.742 210.411 159.123C211.969 160.505 213.093 169.273 213.093 169.273L199.329 180.116C199.329 180.116 198.12 198.152 197.856 198.85C197.593 199.548 202.887 215.142 202.887 215.142Z" fill="white"/>
<path opacity="0.1" d="M186.403 140.328L187.645 143.958L181.104 150.558C181.25 143.769 181.415 137.358 181.415 137.358L179.146 123.56C179.146 123.56 181.415 123.56 181.937 124.262C182.166 124.481 182.419 124.674 182.69 124.837L188.252 140.913L186.403 140.328Z" fill="black"/>
<path d="M185.88 139.286L187.127 142.916L180.586 149.516C180.732 142.723 180.897 136.316 180.897 136.316L178.624 122.518C178.624 122.518 180.897 122.518 181.415 123.22C181.645 123.438 181.898 123.632 182.167 123.8L187.734 139.871L185.88 139.286Z" fill="white"/>
<path opacity="0.1" d="M185.88 103.368C185.884 105.067 185.617 106.756 185.09 108.37C185.001 108.384 184.91 108.38 184.823 108.358C184.736 108.336 184.654 108.297 184.582 108.243C184.459 104 182.375 100.016 179.81 96.6269C179.09 95.6035 178.217 94.6972 177.222 93.9398C176.216 93.1828 174.964 92.8282 173.712 92.9451C172.3 93.1384 171.053 94.1001 169.627 94.2227C167.745 94.3782 166.06 93.0724 164.192 93.0064C163.432 93.0136 162.683 93.183 161.994 93.5033C161.305 93.8236 160.693 94.2874 160.197 94.8638C159.215 96.0269 158.486 97.3819 158.056 98.8426C157.316 101.058 156.913 103.371 156.86 105.706C156.837 107.026 156.71 108.681 155.486 109.162C155.578 108.191 155.468 107.212 155.163 106.286C154.858 105.36 154.364 104.508 153.712 103.783L153.684 103.755C153.684 103.623 153.684 103.5 153.684 103.368C153.647 101.227 154.037 99.0996 154.83 97.1106C155.622 95.1216 156.802 93.3106 158.301 91.7833C159.8 90.256 161.587 89.043 163.559 88.2149C165.53 87.3869 167.647 86.9604 169.785 86.9604C171.922 86.9604 174.039 87.3869 176.01 88.2149C177.982 89.043 179.769 90.256 181.268 91.7833C182.767 93.3106 183.947 95.1216 184.74 97.1106C185.532 99.0996 185.922 101.227 185.885 103.368H185.88Z" fill="black"/>
<path d="M176.45 77.7561C174.005 76.6038 171.224 76.3859 168.629 77.1433C167.326 77.5298 166.097 78.1568 164.775 78.4727C161.952 79.1562 158.658 78.4161 156.234 80.0708C154.888 81.0136 154.079 82.5033 153.326 83.9506L151.444 87.5428C150.418 89.5086 149.383 91.5075 148.955 93.6713C148.526 95.8351 148.785 98.2582 150.154 99.9978C151.152 101.266 152.625 102.063 153.707 103.255C154.356 103.981 154.848 104.833 155.152 105.757C155.456 106.682 155.567 107.66 155.477 108.629C156.705 108.158 156.822 106.499 156.851 105.179C156.903 102.844 157.306 100.53 158.046 98.3148C158.475 96.8537 159.205 95.4985 160.187 94.336C160.683 93.7601 161.296 93.2966 161.985 92.9764C162.674 92.6561 163.423 92.4864 164.182 92.4786C166.065 92.5446 167.754 93.8457 169.617 93.6901C171.029 93.5723 172.281 92.6059 173.702 92.4173C174.955 92.2985 176.207 92.6533 177.212 93.412C178.207 94.1682 179.079 95.0748 179.796 96.0991C182.365 99.4886 184.45 103.463 184.572 107.715C185.104 108.106 185.871 107.597 186.134 106.994C186.398 106.39 186.407 105.683 186.741 105.108C187.127 104.443 187.866 104.09 188.445 103.59C189.913 102.322 190.28 100.186 190.224 98.2488C190.167 96.3112 189.791 94.3454 190.158 92.4409C190.379 91.2718 190.878 90.1781 191.151 89.0231C191.424 87.8681 191.457 86.5717 190.812 85.577C189.871 84.1156 187.89 83.828 186.163 83.6913C184.2 83.5216 182.445 83.7384 181.193 82.0838C180.606 81.2203 179.945 80.4095 179.217 79.6607C178.968 79.4155 176.45 77.8598 176.45 77.7561Z" fill="#512E4E"/>
<path opacity="0.1" d="M125.304 177.169L120.386 168.062L118.829 182.115C118.829 182.115 119.694 188.356 119.52 189.313C119.346 190.27 123.068 198.85 123.068 198.85C123.068 198.85 135.364 220.79 140.385 221.921L157.35 209.778L152.851 204.055C152.851 204.055 151.293 203.446 150.903 204.055C150.903 204.055 142.55 189.657 141.684 188.615C140.818 187.574 140.988 185.495 140.988 185.495C140.988 185.495 139.689 184.109 140.122 182.808C140.555 181.506 137.614 176.995 137.614 176.995L140.296 174.482L125.304 177.169Z" fill="black"/>
<path d="M120.645 167.024L119.346 168.062L117.789 182.115C117.789 182.115 118.654 188.356 118.48 189.313C118.306 190.27 122.033 198.85 122.033 198.85C122.033 198.85 134.324 220.79 139.345 221.921L156.314 209.778L151.811 204.055C151.811 204.055 150.253 203.446 149.863 204.055C149.863 204.055 141.51 189.657 140.644 188.616C139.778 187.574 139.952 185.495 139.952 185.495C139.952 185.495 138.654 184.109 139.087 182.808C139.52 181.506 136.574 176.995 136.574 176.995L139.256 174.482L120.645 167.024Z" fill="white"/>
<path opacity="0.1" d="M201.24 222.077C202.181 223.223 201.588 228.366 201.588 228.366L198.99 232.675C198.99 232.675 199.146 235.456 199.155 239.204L194.788 240.571C194.394 240.694 193.975 240.722 193.568 240.65C193.161 240.579 192.776 240.411 192.447 240.16C192.118 239.91 191.853 239.584 191.675 239.21C191.497 238.836 191.411 238.425 191.424 238.011L192.177 213.681L202.364 217.585C201.499 218.188 202.449 219.668 202.449 219.668C202.449 219.668 200.289 220.932 201.24 222.077Z" fill="black"/>
<path d="M201.762 221.554C202.703 222.699 202.11 227.847 202.11 227.847L199.513 232.156C199.513 232.156 199.668 234.933 199.682 238.685L195.235 240.076C194.849 240.196 194.439 240.222 194.04 240.152C193.642 240.082 193.266 239.917 192.943 239.672C192.621 239.426 192.362 239.108 192.188 238.742C192.013 238.376 191.929 237.973 191.941 237.568L192.699 213.163L202.891 217.066C202.021 217.669 202.971 219.145 202.971 219.145C202.971 219.145 200.821 220.413 201.762 221.554Z" fill="white"/>
<path d="M205.136 209.957C205.136 209.957 204.444 214.383 202.713 214.643C200.981 214.902 200.205 221.803 198.478 221.558C196.751 221.313 197.894 215.142 197.955 213.945C198.016 212.747 196.073 207.788 197.527 206.661C198.981 205.535 203.583 206.661 203.583 206.661L205.136 209.957Z" fill="#CF6F80"/>
<path opacity="0.1" d="M208.821 175.868L212.086 169.269C212.086 169.269 213.385 174.299 213.385 176.986C213.385 179.673 215.201 179.937 215.201 179.937C215.201 179.937 217.192 182.294 216.143 184.01C215.093 185.726 214.67 189.997 214.67 189.997C214.67 189.997 215.013 198.148 213.456 199.274C211.898 200.401 211.573 203.093 211.573 203.093C211.573 203.093 208.712 208.208 208.802 209.424C208.891 210.64 204.821 218.876 204.821 218.876C204.821 218.876 206.811 208.642 195.212 204.22C195.212 204.22 195.122 200.745 195.988 199.793C196.854 198.841 198.204 198.407 197.357 193.594C196.51 188.781 197.113 183.029 197.113 181.874C197.113 180.719 199.71 173.516 199.71 173.516L208.821 175.868Z" fill="black"/>
<path d="M210.232 168.326L213.084 169.269C213.084 169.269 214.387 174.299 214.387 176.986C214.387 179.673 216.204 179.937 216.204 179.937C216.204 179.937 218.194 182.294 217.145 184.01C216.096 185.726 215.677 189.997 215.677 189.997C215.677 189.997 216.02 198.148 214.463 199.274C212.905 200.401 212.557 203.093 212.557 203.093C212.557 203.093 209.701 208.208 209.79 209.424C209.879 210.64 205.804 218.876 205.804 218.876C205.804 218.876 207.799 208.642 196.195 204.22C196.195 204.22 196.11 200.745 196.976 199.793C197.842 198.841 199.193 198.407 198.346 193.594C197.499 188.781 198.101 183.029 198.101 181.874C198.101 180.719 200.698 173.516 200.698 173.516L210.232 168.326Z" fill="white"/>
<path opacity="0.1" d="M147.247 339.39C147.247 339.39 151.792 336.529 154.776 338.607C157.759 340.686 147.247 339.39 147.247 339.39Z" fill="black"/>
<path opacity="0.1" d="M182.567 330.542C182.567 330.542 186.591 330.023 189.969 333.667C193.348 337.311 182.567 330.542 182.567 330.542Z" fill="black"/>
<g opacity="0.1">
<path d="M188.454 102.558C187.876 103.057 187.132 103.416 186.746 104.08C186.417 104.651 186.407 105.353 186.144 105.966C185.88 106.579 185.113 107.079 184.582 106.692C184.459 102.449 182.37 98.4656 179.805 95.0714C179.088 94.0471 178.217 93.1406 177.222 92.3843C176.215 91.6257 174.961 91.271 173.707 91.3896C172.295 91.5829 171.053 92.5446 169.627 92.6624C167.745 92.8227 166.055 91.5169 164.187 91.4509C163.428 91.4585 162.679 91.6285 161.991 91.9497C161.303 92.2708 160.691 92.7357 160.197 93.313C159.214 94.4737 158.485 95.8274 158.056 97.2871C157.316 99.5021 156.913 101.816 156.86 104.151C156.832 105.466 156.71 107.107 155.496 107.597C155.524 107.945 155.524 108.295 155.496 108.644C156.719 108.172 156.841 106.513 156.87 105.193C156.922 102.858 157.325 100.544 158.065 98.3289C158.494 96.8678 159.224 95.5126 160.206 94.3501C160.701 93.7744 161.313 93.3109 162.001 92.9906C162.69 92.6704 163.438 92.5006 164.196 92.4927C166.079 92.5587 167.773 93.8599 169.636 93.7043C171.048 93.5864 172.3 92.62 173.716 92.4314C174.971 92.3129 176.224 92.6676 177.231 93.4261C178.226 94.1824 179.098 95.0889 179.815 96.1133C182.379 99.5028 184.469 103.477 184.591 107.729C185.123 108.12 185.89 107.611 186.153 107.008C186.417 106.404 186.426 105.697 186.756 105.122C187.142 104.457 187.885 104.104 188.464 103.604C189.932 102.336 190.299 100.2 190.243 98.2629C190.243 98.2016 190.243 98.1404 190.243 98.0838C190.153 99.762 189.706 101.473 188.454 102.558Z" fill="black"/>
<path d="M153.717 102.223C152.634 101.03 151.157 100.233 150.164 98.9698C149.328 97.8514 148.85 96.5051 148.795 95.1089C148.647 96.8536 149.133 98.5931 150.164 100.007C151.157 101.275 152.634 102.072 153.717 103.264C154.756 104.431 155.38 105.91 155.491 107.47C155.563 106.52 155.443 105.566 155.138 104.665C154.833 103.763 154.35 102.933 153.717 102.223Z" fill="black"/>
<path d="M191.16 87.9905C190.883 89.1455 190.388 90.2439 190.163 91.4083C190.029 92.1864 189.98 92.9768 190.017 93.7654C190.032 93.3162 190.081 92.8687 190.163 92.4266C190.388 91.2575 190.883 90.1638 191.16 89.0088C191.322 88.3718 191.375 87.7118 191.316 87.0571C191.286 87.3716 191.234 87.6836 191.16 87.9905Z" fill="black"/>
</g>
<path opacity="0.1" d="M62.4589 358.558C87.7825 358.558 108.311 355.255 108.311 351.18C108.311 347.106 87.7825 343.802 62.4589 343.802C37.1353 343.802 16.6064 347.106 16.6064 351.18C16.6064 355.255 37.1353 358.558 62.4589 358.558Z" fill="#007DCF"/>
<path d="M63.9363 209.848H60.9858V276.399H63.9363V209.848Z" fill="#535461"/>
<path d="M82.4771 276.196L82.2936 279.194L82.0301 283.437L81.9218 285.2L81.663 289.443L81.5501 291.206L81.2866 295.449L78.3126 343.567C78.1833 345.637 77.2714 347.58 75.7625 349.001C74.2536 350.421 72.2611 351.212 70.1905 351.213H54.7275C52.6574 351.212 50.6654 350.421 49.1573 349C47.6492 347.58 46.7383 345.637 46.6102 343.567L43.6503 295.416L43.3868 291.173L43.2785 289.41L43.015 285.167L42.9068 283.404L42.6433 279.161L42.455 276.163C42.4224 275.586 42.5077 275.008 42.7058 274.465C42.904 273.923 43.2108 273.426 43.6073 273.006C44.0039 272.586 44.4819 272.252 45.0121 272.024C45.5422 271.796 46.1132 271.679 46.6902 271.68H78.3173C78.892 271.685 79.4597 271.808 79.9852 272.041C80.5107 272.274 80.983 272.613 81.3728 273.036C81.7626 273.459 82.0617 273.958 82.2516 274.501C82.4415 275.045 82.5183 275.622 82.4771 276.196Z" fill="#3F3D56"/>
<path d="M82.2937 279.194L82.0301 283.423H42.888L42.6245 279.194H82.2937Z" fill="#9D9CB5"/>
<path d="M81.9217 285.186L81.6629 289.419H43.2596L42.9961 285.186H81.9217Z" fill="#9D9CB5"/>
<path d="M81.5498 291.188L81.291 295.416H43.6312L43.3677 291.188H81.5498Z" fill="#9D9CB5"/>
<path d="M38.1212 234.791C55.3018 247.246 62.4733 266.725 62.4733 266.725C62.4733 266.725 41.7681 266.013 24.5829 253.558C7.39762 241.103 0.240234 221.629 0.240234 221.629C0.240234 221.629 20.936 222.336 38.1212 234.791Z" fill="#007DCF"/>
<path d="M0.226074 221.629C0.226074 221.629 21.7218 233.579 28.6156 243.475C35.5095 253.37 62.4732 266.725 62.4732 266.725" stroke="#535461" stroke-width="2" stroke-miterlimit="10"/>
<path d="M49.2122 209.702C58.5625 216.477 62.4729 227.079 62.4729 227.079C62.4729 227.079 51.2027 226.692 41.8478 219.918C32.4928 213.144 28.5918 202.537 28.5918 202.537C28.5918 202.537 39.8573 202.923 49.2122 209.702Z" fill="#007DCF"/>
<path d="M28.5918 202.537C28.5918 202.537 40.2902 209.042 44.0406 214.426C47.7911 219.809 62.4729 227.079 62.4729 227.079" stroke="#535461" stroke-width="2" stroke-miterlimit="10"/>
<path d="M76.0492 226.541C65.3061 238.369 63.0332 253.827 63.0332 253.827C63.0332 253.827 78.1809 250.103 88.9146 238.27C99.6483 226.438 101.931 210.984 101.931 210.984C101.931 210.984 86.7923 214.713 76.0492 226.541Z" fill="#007DCF"/>
<path d="M101.94 210.989C101.94 210.989 87.9452 223.114 84.3877 231.468C80.8302 239.821 63.0332 253.827 63.0332 253.827" stroke="#535461" stroke-width="2" stroke-miterlimit="10"/>
<path d="M470.416 222.379C470.416 222.379 462.647 183.656 465.621 178.838C465.621 178.838 465.729 174.36 465.55 168.651C465.55 168.434 465.55 168.217 465.55 167.996C466.073 168.345 466.619 168.66 467.183 168.938C469.923 170.349 473.069 170.756 476.077 170.089L473.724 167.463C473.159 166.836 472.571 166.157 472.449 165.327C472.326 164.498 472.665 163.757 472.957 163.017C475.192 157.36 475.31 150.247 471.004 145.928C467.367 142.298 466.482 137.612 462.534 134.298C459.649 131.871 458.063 128.311 456.567 124.87C455.301 121.961 454.026 119.029 453.301 115.946C452.736 113.537 452.511 111.043 451.734 108.691C450.958 106.338 449.504 104.052 447.231 103.001C446.421 102.628 445.523 102.416 444.784 101.921C443.814 101.266 443.231 100.2 442.53 99.2671C438.968 94.5529 427.039 97.3295 421.392 99.2435C419.857 99.7255 418.435 100.515 417.213 101.563L417.265 101.478C417.307 101.407 417.359 101.337 417.406 101.266C416.788 101.767 416.254 102.363 415.825 103.034C415.001 104.34 414.658 105.862 413.971 107.277C413.143 108.95 408.536 113.622 410.517 115.503C410.656 115.629 410.815 115.731 410.987 115.805C411.731 116.115 412.55 116.197 413.34 116.04L413.256 116.243C412.579 117.902 412.232 119.678 412.234 121.471C412.234 129.216 418.611 135.496 426.483 135.496C427.963 135.497 429.435 135.27 430.845 134.822C430.878 135.001 430.907 135.18 430.94 135.359C430.94 135.43 430.963 135.5 430.973 135.571L430.723 135.92C430.711 135.899 430.696 135.878 430.681 135.859L423.293 146.202C422.163 146.998 415.66 151.713 415.293 155.248C414.907 159.119 414.521 163.649 414.521 163.649L414.47 164.62C414.147 164.89 413.769 165.087 413.363 165.197C412.957 165.307 412.532 165.327 412.117 165.257C409.811 164.879 409.811 173.742 409.811 173.742C409.811 173.742 408.277 175.156 407.223 173.931C406.169 172.705 403.383 176.858 403.383 176.858L385.925 177.613L385.525 177.636L384.584 174.718C384.482 174.41 384.264 174.155 383.976 174.007C383.688 173.86 383.353 173.832 383.045 173.931C382.972 173.955 382.901 173.985 382.833 174.02L382.767 174.058L382.645 174.143L382.584 174.199C382.55 174.23 382.519 174.263 382.49 174.298L382.433 174.364L382.405 174.393C382.296 174.543 382.224 174.717 382.195 174.901C382.165 175.084 382.179 175.272 382.235 175.449L383.045 177.952C379.676 178.631 376.231 180.545 379.04 185.815L364.801 183.18L369.408 187.055L393.19 191.972C392.875 192.538 393.082 193.358 394.066 194.513C398.301 199.496 406.018 200.849 409.124 201.198C409.944 203.036 410.969 204.775 412.178 206.383L411.91 211.347C411.91 211.347 404.046 249.184 402.606 251.102C403.333 250.277 403.999 249.4 404.597 248.477C402.315 256.25 399.124 266.89 398.287 268.484C396.941 271.029 395.694 281.33 397.228 281.99C397.698 282.193 399.044 282.094 400.964 281.947V282.801L400.88 315.135C400.88 315.135 401.265 334.968 400.207 336.859C399.148 338.749 398.865 342.714 398.865 342.714C398.865 342.714 394.63 350.534 391.275 353.679C391.252 353.703 391.227 353.725 391.2 353.745L391.096 353.009C391.096 353.009 387.064 358.11 378.141 357.823C378.141 357.823 372.772 361.321 380.734 361.509C388.696 361.698 398.865 361.226 398.865 361.226C398.865 361.226 405.966 350.384 411.914 351.798V360.015H413.736V351.666C414.58 351.109 415.303 350.386 415.86 349.541C416.418 348.695 416.798 347.746 416.978 346.749C417.134 345.721 417.019 344.671 416.646 343.701C416.273 342.732 415.655 341.876 414.851 341.219C414.49 340.892 414.2 340.494 414 340.049C413.8 339.605 413.694 339.123 413.688 338.636L413.623 338.692C413.623 338.527 413.58 338.358 413.561 338.183C413.039 333.94 412.385 325.186 414.695 318.709C417.862 309.827 418.822 297.457 416.517 290.094C415.773 287.74 415.161 285.346 414.686 282.923C414.63 282.617 414.578 282.325 414.531 282.051C416.107 282.265 417.668 282.58 419.204 282.994C424.545 284.469 436.229 284.743 446.205 284.663C446.228 284.936 446.257 285.224 446.29 285.511C446.467 287.51 446.839 289.487 447.4 291.414C448.652 295.185 449.226 311.812 449.226 311.812C449.226 311.812 450.84 325.483 449.96 331.046C449.49 334.138 449.019 337.245 448.751 340.366V340.427C448.751 340.427 446.106 347.97 444.172 352.067C444.125 352.17 444.073 352.274 444.026 352.373C443.511 352.42 443.003 352.533 442.516 352.708C442.516 352.708 439.923 357.893 437.339 358.751C434.756 359.609 435.612 362.433 441.462 361.396C447.311 360.359 456.143 359.51 456.143 359.51L456.525 354.221L458.322 351.968L457.852 357.243L459.767 356.866L459.513 350.45L462.454 346.763C462.454 346.763 466.007 343.595 460.727 337.363V337.5C460.67 337.41 460.618 337.316 460.557 337.226V337.198C459.682 335.84 458.986 333.309 460.261 328.816C462.567 320.698 463.908 313.33 463.908 313.33C463.908 313.33 469.056 293.591 462.868 284.253H463.141C462.507 282.938 462.058 281.542 461.809 280.104C461.778 279.934 461.749 279.76 461.724 279.581C466.303 279.317 470.797 278.487 474.463 276.696C474.449 276.677 472.242 229.837 470.416 222.379ZM412.286 189.709V189.803L411.345 189.851L412.286 189.709ZM409.058 190.157C408.903 190.191 408.758 190.261 408.635 190.36C408.23 190.933 407.976 191.6 407.896 192.297L406.428 191.967C406.428 191.967 405.397 191.746 403.915 191.496L403.214 190.789C405.143 190.628 407.148 190.393 409.058 190.157Z" fill="url(#paint1_linear_8396_11495)"/>
<path d="M457.635 350.516L457.075 357.196L458.953 356.818L458.67 349.573L457.635 350.516Z" fill="#1D2366"/>
<path d="M414.799 318.798C412.536 325.257 413.176 333.973 413.684 338.207C413.872 339.772 414.046 340.724 414.046 340.724C414.046 340.724 410.663 348.446 410.38 348.738C410.098 349.031 400.423 354.947 400.423 354.947L393.661 358.902C393.661 358.902 386.8 355.89 390.089 354.853C390.761 354.582 391.367 354.169 391.863 353.641C395.157 350.506 399.294 342.713 399.294 342.713C399.294 342.713 399.576 338.758 400.611 336.877C401.647 334.996 401.27 315.23 401.27 315.23L401.35 283.008V278.808L414.22 278.902C414.301 280.328 414.487 281.746 414.775 283.145C415.237 285.559 415.836 287.945 416.568 290.291C418.836 297.641 417.895 309.95 414.799 318.798Z" fill="#FFB0B1"/>
<path opacity="0.1" d="M414.046 340.724C414.046 340.724 410.663 348.446 410.38 348.738C410.098 349.031 400.423 354.947 400.423 354.947L393.661 358.902C393.661 358.902 386.8 355.89 390.089 354.853C390.761 354.583 391.367 354.169 391.863 353.641L392.155 355.701L394.409 355.607L413.703 338.216C413.872 339.772 414.046 340.724 414.046 340.724Z" fill="black"/>
<path d="M413.811 338.655L394.409 356.163L392.155 356.257L391.685 352.957C391.685 352.957 387.741 358.039 378.979 357.757C378.979 357.757 373.718 361.24 381.516 361.429C389.313 361.617 399.27 361.146 399.27 361.146C399.27 361.146 406.225 350.303 412.046 351.718V359.906H413.834V351.642C414.666 351.082 415.375 350.358 415.92 349.516C416.466 348.673 416.835 347.729 417.006 346.739C417.161 345.72 417.051 344.679 416.688 343.714C416.324 342.75 415.719 341.895 414.931 341.233C414.579 340.902 414.298 340.503 414.105 340.06C413.913 339.616 413.812 339.138 413.811 338.655Z" fill="#1D2366"/>
<path d="M459.423 328.868C458.172 333.346 458.854 335.868 459.71 337.221V337.25C460.809 338.92 461.573 340.789 461.96 342.751L462.035 343.175L453.207 356.069L448.417 357.955C448.417 357.955 440.713 355.319 442.12 354.565C442.473 354.381 443.024 353.401 443.654 352.048C445.537 347.97 448.134 340.446 448.134 340.446V340.385C448.407 337.278 448.84 334.181 449.32 331.098C450.181 325.549 448.6 311.93 448.6 311.93C448.6 311.93 448.035 295.369 446.812 291.602C446.26 289.687 445.892 287.723 445.716 285.738C445.461 283.38 445.405 281.438 445.405 281.438C445.405 281.438 450.478 274.367 459.776 282.004C460.52 282.613 461.174 283.324 461.72 284.116C468.143 293.271 462.971 313.438 462.971 313.438C462.971 313.438 461.677 320.774 459.423 328.868Z" fill="#FFB0B1"/>
<path opacity="0.1" d="M462.049 343.176L453.221 356.069L448.431 357.955C448.431 357.955 440.728 355.319 442.135 354.565C442.488 354.381 443.038 353.401 443.669 352.048C446.93 352.019 448.619 355.131 448.619 355.131L452.751 354.471C452.751 354.471 458.2 343.741 459.423 343.086C460.647 342.431 459.612 338.188 459.612 338.188V337.108C459.645 337.146 459.673 337.189 459.71 337.226V337.255C460.809 338.925 461.573 340.794 461.96 342.756L462.049 343.176Z" fill="black"/>
<path d="M448.901 355.409C448.901 355.409 446.549 351.081 442.041 352.679C442.041 352.679 439.504 357.865 436.968 358.704C434.431 359.543 435.278 362.372 441.01 361.339C446.742 360.307 455.381 359.454 455.381 359.454L455.758 354.179L461.583 346.744C461.583 346.744 465.056 343.59 459.889 337.382V338.461C459.889 338.461 460.925 342.704 459.701 343.359C458.478 344.015 453.047 354.749 453.047 354.749L448.901 355.409Z" fill="#1D2366"/>
<path opacity="0.1" d="M414.234 278.893C414.316 280.319 414.501 281.737 414.79 283.135C409.491 282.358 404.574 282.744 401.35 282.999V278.798L414.234 278.893Z" fill="black"/>
<path opacity="0.1" d="M462.242 285.29C462.242 285.29 454.713 285.658 445.734 285.733C445.48 283.376 445.424 281.434 445.424 281.434C445.424 281.434 450.497 274.363 459.795 282C460.539 282.609 461.193 283.32 461.739 284.111C461.884 284.513 462.052 284.907 462.242 285.29Z" fill="black"/>
<path d="M462.242 284.441C462.242 284.441 429.264 286.039 419.213 283.216C409.162 280.392 399.2 282.839 397.699 282.183C396.197 281.528 397.416 271.265 398.734 268.724C400.051 266.183 407.279 240.486 407.279 240.486L414.234 204.158L421.561 202.136L422.079 201.99L434.845 198.464L444.2 195.875C444.2 195.875 462.802 268.63 461.207 273.995C460.628 276.049 460.534 278.21 460.934 280.307C461.178 281.739 461.618 283.13 462.242 284.441Z" fill="#1D2366"/>
<path d="M389.99 179.314C389.99 179.314 383.402 186.386 388.391 190.327C393.379 194.268 396.658 190.704 396.658 190.704L389.99 179.314Z" fill="#C7DAF5"/>
<path opacity="0.1" d="M389.99 179.314C389.99 179.314 383.402 186.386 388.391 190.327C393.379 194.268 396.658 190.704 396.658 190.704L389.99 179.314Z" fill="black"/>
<path d="M443.217 132.823C443.217 132.823 442.445 133.558 441.283 134.642C439.626 136.193 437.175 138.461 435 140.361C431.989 142.986 429.504 144.915 430.394 143.269C431.283 141.624 431.114 138.758 430.671 136.075C430.638 135.896 430.61 135.717 430.577 135.543C430.211 133.573 429.725 131.627 429.123 129.716C429.123 129.716 433.989 123.418 436.68 120.933C437.683 119.991 438.384 119.604 438.426 120.259C438.473 121.141 439.132 123.088 439.951 125.153C439.974 125.219 439.998 125.28 440.026 125.346C440.572 126.76 441.188 128.212 441.73 129.466C442.558 131.39 443.217 132.823 443.217 132.823Z" fill="#FFB0B1"/>
<path opacity="0.1" d="M440.026 125.346C439.569 127.81 438.46 130.106 436.814 131.993C435.168 133.88 433.047 135.291 430.671 136.076C430.297 133.924 429.78 131.799 429.123 129.716C429.123 129.716 438.285 117.86 438.426 120.26C438.459 121.169 439.174 123.187 440.026 125.346Z" fill="black"/>
<path opacity="0.1" d="M429.759 139.243L430.945 137.57C430.945 137.57 431.731 142.369 434.62 140.252C437.509 138.136 437.65 156.182 437.65 156.182L434.549 202.631L412.141 201.287L412.776 178.843L415.312 167.529L421.585 151.081L425.317 145.645L429.759 139.243Z" fill="black"/>
<path d="M437.65 156.469L434.826 198.468L434.53 202.918L422.036 202.169L421.566 202.141L412.154 201.575L412.79 179.126L415.326 167.812L421.599 151.364L425.33 145.928L429.772 139.503L430.958 137.834C430.958 137.834 431.744 142.633 434.633 140.516L434.695 140.474C437.518 138.683 437.65 156.469 437.65 156.469Z" fill="#1D2366"/>
<path d="M415.641 163.88C415.641 163.88 414.517 166.237 412.258 165.855C409.999 165.473 410.004 174.341 410.004 174.341C410.004 174.341 408.503 175.755 407.468 174.529C406.432 173.304 403.703 177.447 403.703 177.447L386.603 178.202C386.603 178.202 394.212 181.685 392.72 192.226C392.72 192.226 418.554 190.624 419.401 188.177C420.248 185.73 415.641 163.88 415.641 163.88Z" fill="white"/>
<path opacity="0.03" d="M415.641 163.88C415.641 163.88 414.517 166.237 412.258 165.855C409.999 165.473 410.004 174.341 410.004 174.341C410.004 174.341 408.503 175.755 407.468 174.529C406.432 173.304 403.703 177.447 403.703 177.447L386.603 178.202C386.603 178.202 394.212 181.685 392.72 192.226C392.72 192.226 418.554 190.624 419.401 188.177C420.248 185.73 415.641 163.88 415.641 163.88Z" fill="black"/>
<path d="M365.944 183.741L370.452 187.597L407.562 195.409L402.959 190.704L365.944 183.741Z" fill="white"/>
<path d="M429.829 140.729C429.213 141.671 427.448 146.499 425.975 150.713C424.747 154.225 423.721 157.313 423.721 157.313C423.721 157.313 421.326 172.936 420.103 175.76C418.879 178.584 419.543 189.596 419.543 189.596L414.983 216.792C414.983 216.792 412.917 230.817 409.726 239.194C406.578 247.439 403.073 251.305 402.964 251.428C404.376 249.514 412.07 211.828 412.07 211.828L414.611 164.3C414.611 164.3 414.983 159.783 415.359 155.922C415.736 152.062 423.359 146.791 423.359 146.791L430.709 136.321C431.448 137.311 430.954 139.036 429.829 140.729Z" fill="white"/>
<path d="M410.663 201.81C410.663 201.81 399.839 201.339 394.597 195.031C389.355 188.724 406.714 192.514 406.714 192.514L411.227 193.551L410.663 201.81Z" fill="#FFB0B1"/>
<path opacity="0.1" d="M461.207 273.999C460.627 276.054 460.534 278.215 460.934 280.312C449.127 281.151 436.497 277.954 436.497 277.954C434.144 280.123 427.947 283.319 427.947 283.319L424.568 241.363C422.408 235.706 421.561 206.067 421.561 206.067C421.561 206.067 421.754 204.517 422.032 202.192C422.032 202.136 422.032 202.075 422.055 202.018C422.897 195.527 424.568 183.34 425.387 181.695C426.516 179.432 421.914 173.412 421.914 173.412L424.008 155.522L424.262 153.363C428.676 151.387 432.059 145.08 432.059 145.08L434.657 140.521C437.48 138.706 437.626 156.493 437.626 156.493L434.803 198.492L444.158 195.904C444.158 195.904 462.802 268.634 461.207 273.999Z" fill="black"/>
<path d="M473.324 276.899C460.454 283.3 437.062 277.37 437.062 277.37C434.709 279.539 428.512 282.735 428.512 282.735L425.128 240.778C422.973 235.121 422.126 205.483 422.126 205.483C422.126 205.483 424.846 183.369 425.975 181.111C426.305 180.451 426.145 179.47 425.754 178.414C423.834 173.388 423.128 167.978 423.693 162.626L424.596 154.937L424.846 152.783C429.265 150.803 432.648 144.495 432.648 144.495L435.001 140.366L439.33 132.757L441.382 129.155L441.73 129.471L444.389 131.885C444.389 131.885 445.518 132.828 447.212 134.242C450.897 137.353 457.264 142.831 460.548 146.183C463.437 149.134 464.35 160.613 464.614 169.254C464.788 174.944 464.684 179.404 464.684 179.404C461.772 184.208 469.39 222.775 469.39 222.775C471.164 230.228 473.324 276.899 473.324 276.899Z" fill="white"/>
<path opacity="0.03" d="M448.619 144.401C448.619 144.401 439.786 161.245 440.812 167.647C441.838 174.048 444.756 181.294 443.349 182.987C442.865 183.628 442.24 184.148 441.523 184.507C440.805 184.866 440.014 185.054 439.212 185.056C437.801 185.15 434.036 187.786 434.036 188.068C434.036 188.351 430.559 188.351 427.448 189.671C424.338 190.991 419.745 191.741 419.745 191.741C419.745 191.741 410.804 191.458 409.971 192.307C409.138 193.155 408.282 198.232 410.065 202.282C411.849 206.331 413.83 209.353 415.326 209.905C416.823 210.456 426.319 207.269 434.022 206.515C441.725 205.761 450.087 199.647 450.087 199.647C450.087 199.647 459.296 196.347 460.91 190.798C462.524 185.249 458.939 154.753 458.939 154.753C458.939 154.753 456.228 140.54 448.619 144.401Z" fill="black"/>
<path opacity="0.03" d="M447.49 142.987C447.49 142.987 438.657 159.835 439.692 166.233C440.728 172.63 443.636 179.88 442.224 181.577C441.742 182.219 441.118 182.74 440.401 183.099C439.684 183.459 438.894 183.646 438.092 183.647C436.681 183.741 432.916 186.376 432.916 186.659C432.916 186.942 429.439 186.942 426.328 188.257C423.218 189.573 418.625 190.327 418.625 190.327C418.625 190.327 409.684 190.044 408.856 190.893C408.028 191.741 407.162 196.823 408.95 200.868C410.738 204.913 412.714 207.939 414.211 208.491C415.707 209.042 425.203 205.856 432.907 205.106C440.61 204.356 448.972 198.233 448.972 198.233C448.972 198.233 458.176 194.933 459.772 189.389C461.367 183.845 457.8 153.339 457.8 153.339C457.8 153.339 455.099 139.131 447.49 142.987Z" fill="black"/>
<path d="M448.342 143.552C448.342 143.552 439.509 160.401 440.544 166.798C441.579 173.195 444.488 180.446 443.081 182.138C442.599 182.782 441.974 183.304 441.257 183.664C440.539 184.024 439.747 184.212 438.944 184.212C437.533 184.307 433.768 186.942 433.768 187.22C433.768 187.498 430.295 187.503 427.18 188.823C424.065 190.143 419.477 190.893 419.477 190.893C419.477 190.893 410.536 190.61 409.703 191.458C408.87 192.307 408.014 197.389 409.797 201.433C411.581 205.478 413.562 208.505 415.058 209.056C416.555 209.608 426.051 206.421 433.754 205.667C441.457 204.913 449.819 198.798 449.819 198.798C449.819 198.798 459.028 195.498 460.642 189.95C462.256 184.401 458.694 153.905 458.694 153.905C458.694 153.905 455.946 139.715 448.342 143.552Z" fill="white"/>
<path opacity="0.1" d="M448.149 188.743C448.149 188.743 441.09 187.329 443.546 189.686C446.003 192.043 445.989 194.108 448.996 194.014C452.003 193.919 448.149 188.743 448.149 188.743Z" fill="black"/>
<path opacity="0.1" d="M460.078 239.458C460.078 239.458 456.887 241.622 462.99 246.61C469.094 251.598 460.078 239.458 460.078 239.458Z" fill="black"/>
<path opacity="0.1" d="M453.988 257.245C453.988 257.528 452.859 267.616 457.084 270.138C461.31 272.661 453.988 257.245 453.988 257.245Z" fill="black"/>
<path d="M386.894 178.178C383.487 178.296 376.128 179.338 379.944 186.471C383.318 192.783 388.988 188.564 392.179 185.363C391.401 182.378 389.509 179.807 386.894 178.178Z" fill="#FFB0B1"/>
<path opacity="0.1" d="M447.212 134.529C443.598 137.004 440.567 139.093 439.974 139.526C438.356 140.728 435.269 147.786 433.278 151.387C431.692 154.286 426.54 155.031 424.596 155.215L424.846 153.061C429.264 151.081 432.648 144.773 432.648 144.773L441.381 129.433L444.388 132.172C444.388 132.172 445.518 133.115 447.212 134.529Z" fill="black"/>
<path d="M447.212 134.246C443.598 136.721 440.567 138.81 439.974 139.248C438.356 140.446 435.269 147.503 433.278 151.104C431.692 154.004 426.54 154.749 424.596 154.932L424.846 152.778C429.264 150.798 432.648 144.49 432.648 144.49L441.381 129.15L444.388 131.88C444.388 131.88 445.518 132.813 447.212 134.246Z" fill="#DCE7FF"/>
<path d="M440.257 122.235C440.259 125.065 439.402 127.828 437.801 130.159C435.909 132.915 433.094 134.901 429.866 135.756C426.638 136.61 423.211 136.277 420.207 134.817C417.204 133.357 414.822 130.867 413.494 127.798C412.166 124.729 411.981 121.285 412.971 118.091C413.961 114.896 416.061 112.163 418.891 110.388C421.72 108.612 425.091 107.912 428.392 108.413C431.693 108.914 434.705 110.584 436.882 113.12C439.059 115.656 440.256 118.89 440.257 122.235Z" fill="#FFB0B1"/>
<path opacity="0.1" d="M464.614 169.259C462.703 168.081 461.146 166.407 460.11 164.413C459.325 162.857 458.802 161.061 457.461 159.958C456.252 158.968 454.638 158.728 453.132 158.284C448.181 156.818 444.031 152.293 443.876 147.126C443.8 144.693 444.558 142.266 444.215 139.857C444.019 138.493 443.478 137.203 442.643 136.109C442.228 135.586 441.773 135.095 441.283 134.643C440.624 134.02 439.932 133.417 439.33 132.757C438.951 132.348 438.619 131.898 438.342 131.413C438.118 131.017 437.937 130.599 437.801 130.164C436.859 127.279 437.716 123.857 436.681 120.938L436.624 120.778C436.234 119.741 435.438 118.704 434.333 118.624C433.227 118.544 432.281 119.463 431.227 119.873C429.02 120.731 426.639 119.27 424.799 117.78C422.959 116.29 420.884 114.588 418.545 114.918C416.997 115.14 415.773 116.196 414.347 116.743C414.025 116.868 413.693 116.964 413.354 117.03C414.561 114.016 416.778 111.516 419.625 109.961C422.471 108.406 425.769 107.893 428.952 108.509C432.136 109.125 435.005 110.833 437.068 113.339C439.131 115.844 440.259 118.992 440.257 122.24C440.259 123.22 440.156 124.199 439.951 125.158C439.975 125.224 439.998 125.285 440.026 125.351C440.572 126.765 441.189 128.217 441.73 129.471L444.389 131.885C444.389 131.885 445.518 132.828 447.212 134.242C450.897 137.353 457.263 142.831 460.548 146.183C463.437 149.144 464.341 160.618 464.614 169.259Z" fill="black"/>
<path d="M414.183 108.13C414.856 106.758 415.19 105.221 415.994 103.92C417.175 102.035 419.237 100.828 421.354 100.097C426.883 98.1877 438.568 95.4158 442.059 100.097C442.746 101.04 443.316 102.086 444.266 102.737C444.991 103.232 445.866 103.444 446.661 103.817C448.887 104.863 450.308 107.145 451.066 109.474C451.824 111.802 452.05 114.301 452.605 116.7C453.315 119.779 454.562 122.697 455.805 125.596C457.268 129.019 458.821 132.568 461.644 134.987C465.498 138.287 466.35 142.959 469.927 146.579C474.162 150.878 474.025 157.973 471.842 163.607C471.555 164.347 471.23 165.12 471.343 165.907C471.456 166.695 472.039 167.411 472.59 168.038L474.905 170.655C469.428 171.979 463.23 169.113 460.68 164.083C459.894 162.527 459.372 160.736 458.026 159.628C456.821 158.638 455.202 158.402 453.701 157.959C448.751 156.488 444.6 151.958 444.445 146.791C444.37 144.363 445.127 141.936 444.784 139.531C444.593 138.159 444.05 136.859 443.208 135.76C441.913 134.068 439.961 132.931 438.906 131.046C437.123 127.892 438.478 123.795 437.194 120.411C436.798 119.373 436.008 118.336 434.902 118.256C433.796 118.176 432.85 119.095 431.791 119.505C429.589 120.363 427.208 118.907 425.368 117.412C423.528 115.918 421.453 114.221 419.11 114.555C417.561 114.772 416.343 115.828 414.917 116.38C413.863 116.785 411.726 117.148 410.804 116.257C408.856 114.461 413.369 109.808 414.183 108.13Z" fill="#591D4B"/>
<path opacity="0.1" d="M461.988 162.527C461.197 160.971 460.68 159.18 459.334 158.077C458.129 157.087 456.51 156.847 455.005 156.403C450.059 154.937 445.908 150.407 445.748 145.24C445.673 142.812 446.431 140.38 446.092 137.976C445.895 136.612 445.352 135.322 444.516 134.228C443.217 132.535 441.264 131.399 440.215 129.514C438.431 126.364 439.786 122.268 438.497 118.878C438.106 117.846 437.311 116.809 436.21 116.724C435.109 116.639 434.154 117.568 433.1 117.978C430.897 118.836 428.511 117.374 426.676 115.885C424.841 114.395 422.756 112.693 420.418 113.023C418.869 113.245 417.646 114.301 416.225 114.848C415.171 115.253 413.03 115.621 412.107 114.73C410.169 112.844 414.681 108.201 415.491 106.532C416.164 105.155 416.498 103.623 417.307 102.322C417.349 102.251 417.397 102.181 417.444 102.11C416.838 102.612 416.316 103.207 415.895 103.873C415.091 105.174 414.757 106.701 414.084 108.083C413.27 109.752 408.757 114.409 410.7 116.281C411.641 117.176 413.759 116.809 414.813 116.403C416.225 115.852 417.458 114.796 419.006 114.579C421.359 114.244 423.429 115.946 425.265 117.436C427.1 118.925 429.5 120.387 431.693 119.529C432.747 119.119 433.669 118.195 434.798 118.28C435.928 118.364 436.681 119.397 437.09 120.434C438.375 123.819 437.019 127.915 438.803 131.069C439.857 132.922 441.81 134.082 443.104 135.783C443.946 136.883 444.489 138.182 444.68 139.555C445.024 141.959 444.266 144.387 444.341 146.815C444.497 152 448.647 156.512 453.598 157.983C455.089 158.426 456.717 158.662 457.922 159.651C459.273 160.759 459.804 162.551 460.576 164.106C463.127 169.136 469.324 172.003 474.802 170.678L473.71 169.443C468.962 169.514 464.157 166.808 461.988 162.527Z" fill="black"/>
<path opacity="0.1" d="M429.547 141.012C428.93 141.954 427.166 146.782 425.693 150.996C424.314 150.459 423.062 147.032 423.062 147.032L430.413 136.557C431.166 137.594 430.672 139.314 429.547 141.012Z" fill="black"/>
<path d="M429.829 140.729C429.213 141.671 427.448 146.499 425.975 150.713C424.596 150.181 423.345 146.749 423.345 146.749L430.695 136.278C431.448 137.311 430.954 139.036 429.829 140.729Z" fill="#DCE7FF"/>
<path d="M387.092 188.889L383.017 176.014C382.969 175.864 382.95 175.705 382.964 175.547C382.977 175.389 383.021 175.236 383.094 175.095C383.166 174.955 383.266 174.83 383.387 174.728C383.507 174.626 383.647 174.549 383.798 174.501C384.101 174.406 384.43 174.435 384.712 174.582C384.994 174.728 385.206 174.981 385.304 175.284L389.379 188.144L388.974 190.836L387.092 188.889Z" fill="#BE8B87"/>
<path opacity="0.1" d="M383.403 174.883C383.707 174.787 384.036 174.815 384.319 174.962C384.603 175.109 384.816 175.362 384.913 175.666L388.988 188.526L388.683 190.544L388.979 190.855L389.384 188.163L385.285 175.303C385.188 175 384.975 174.747 384.693 174.601C384.411 174.454 384.082 174.425 383.779 174.52C383.524 174.603 383.304 174.769 383.153 174.992C383.233 174.949 383.317 174.912 383.403 174.883Z" fill="white"/>
<path d="M387.092 188.889L389.379 188.163L389.045 190.369L388.974 190.855L388.306 190.157L387.092 188.889Z" fill="#EFC8C4"/>
<path d="M388.306 190.157C388.345 190.107 388.395 190.065 388.452 190.034C388.485 190.014 388.523 190.002 388.562 190.002C388.601 190.002 388.64 190.014 388.673 190.034C388.705 190.073 388.732 190.116 388.753 190.162C388.784 190.214 388.826 190.258 388.877 190.292C388.927 190.325 388.984 190.347 389.044 190.355L388.974 190.826L388.306 190.157Z" fill="#727A9C"/>
<path d="M382.993 180.587C382.993 180.587 391.167 180.54 389.242 184.024C387.318 187.508 384.311 187.927 384.311 187.927L382.993 180.587Z" fill="#FFB0B1"/>
<rect x="260" y="59.2222" width="77.5439" height="72.8889" fill="#FDEB00"/>
<path d="M332.158 24.2412H331.805C317.763 24.2412 305.345 31.6849 298.201 42.6691C291.058 31.6849 278.64 24.2412 264.598 24.2412H264.245C253.707 24.3418 243.634 28.6047 236.216 36.1035C228.798 43.6022 224.633 53.7309 224.627 64.2884C224.627 77.3986 230.359 96.0009 241.535 111.308C262.828 140.475 298.201 165.993 298.201 165.993C298.201 165.993 333.574 140.479 354.863 111.308C366.043 96.0009 371.77 77.3986 371.77 64.2884C371.765 53.7317 367.601 43.6037 360.184 36.1051C352.766 28.6065 342.695 24.3431 332.158 24.2412ZM327.108 113.552C325.509 113.546 323.949 113.055 322.633 112.145C321.317 111.235 320.307 109.947 319.735 108.451H311.34C310.787 108.448 310.249 108.271 309.801 107.947C309.353 107.622 309.017 107.166 308.841 106.641L306.262 98.8577L298.102 127.421C297.944 127.971 297.611 128.454 297.154 128.799C296.698 129.143 296.142 129.329 295.571 129.33H295.406C294.81 129.301 294.242 129.069 293.796 128.67C293.351 128.272 293.055 127.733 292.959 127.143L284.55 76.4747L278.404 106.457C278.263 107.027 277.936 107.532 277.475 107.894C277.013 108.255 276.444 108.451 275.859 108.451H264.033C263.679 108.466 263.325 108.409 262.993 108.284C262.661 108.158 262.358 107.967 262.102 107.721C261.845 107.475 261.642 107.179 261.502 106.852C261.363 106.525 261.291 106.174 261.291 105.818C261.291 105.463 261.363 105.111 261.502 104.784C261.642 104.457 261.845 104.162 262.102 103.916C262.358 103.67 262.661 103.478 262.993 103.353C263.325 103.227 263.679 103.17 264.033 103.185H273.788L282.494 62.8742C282.636 62.2782 282.982 61.7504 283.47 61.3811C283.958 61.0118 284.559 60.8239 285.171 60.8495C285.782 60.8751 286.365 61.1127 286.821 61.5215C287.277 61.9304 287.577 62.4851 287.67 63.091L296.258 114.778L303.57 89.2219C303.723 88.6836 304.045 88.2092 304.488 87.8693C304.932 87.5295 305.473 87.3424 306.032 87.3362H306.083C306.636 87.3364 307.175 87.5115 307.623 87.8365C308.071 88.1616 308.405 88.62 308.577 89.1464L313.241 103.2H319.631C320.085 101.817 320.912 100.586 322.02 99.6447C323.129 98.7029 324.475 98.0861 325.911 97.8625C327.347 97.6389 328.817 97.8171 330.158 98.3774C331.499 98.9377 332.66 99.8584 333.512 101.038C334.364 102.217 334.874 103.61 334.986 105.061C335.098 106.513 334.807 107.967 334.146 109.263C333.485 110.56 332.48 111.648 331.24 112.408C330.001 113.168 328.576 113.571 327.123 113.571L327.108 113.552Z" fill="#007DCF"/>
</g>
<defs>
<linearGradient id="paint0_linear_8396_11495" x1="167.679" y1="365.29" x2="167.679" y2="75.2056" gradientUnits="userSpaceOnUse">
<stop stop-color="#808080" stop-opacity="0.25"/>
<stop offset="0.54" stop-color="#808080" stop-opacity="0.12"/>
<stop offset="1" stop-color="#808080" stop-opacity="0.1"/>
</linearGradient>
<linearGradient id="paint1_linear_8396_11495" x1="420.422" y1="361.622" x2="420.422" y2="96.6837" gradientUnits="userSpaceOnUse">
<stop stop-color="#808080" stop-opacity="0.25"/>
<stop offset="0.54" stop-color="#808080" stop-opacity="0.12"/>
<stop offset="1" stop-color="#808080" stop-opacity="0.1"/>
</linearGradient>
<clipPath id="clip0_8396_11495">
<rect width="520" height="369" fill="white"/>
</clipPath>
</defs>
</svg>
