<svg width="24" height="25" viewBox="0 0 24 25" fill="none" xmlns="http://www.w3.org/2000/svg">
    <path d="M12 2.9375C10.1087 2.9375 8.25991 3.49833 6.68736 4.54907C5.11482 5.59981 3.88917 7.09327 3.16541 8.84059C2.44164 10.5879 2.25227 12.5106 2.62125 14.3656C2.99022 16.2205 3.90096 17.9244 5.2383 19.2617C6.57564 20.599 8.27951 21.5098 10.1345 21.8788C11.9894 22.2477 13.9121 22.0584 15.6594 21.3346C17.4067 20.6108 18.9002 19.3852 19.9509 17.8126C21.0017 16.2401 21.5625 14.3913 21.5625 12.5C21.5595 9.96478 20.5511 7.53425 18.7584 5.74158C16.9658 3.94891 14.5352 2.94048 12 2.9375ZM12 20.9375C10.3312 20.9375 8.69992 20.4426 7.31238 19.5155C5.92484 18.5884 4.84338 17.2706 4.20477 15.7289C3.56616 14.1871 3.39907 12.4906 3.72463 10.8539C4.05019 9.21721 4.85379 7.71379 6.03379 6.53379C7.2138 5.35378 8.71722 4.55019 10.3539 4.22462C11.9906 3.89906 13.6871 4.06615 15.2289 4.70477C16.7706 5.34338 18.0884 6.42484 19.0155 7.81238C19.9427 9.19992 20.4375 10.8312 20.4375 12.5C20.435 14.737 19.5453 16.8817 17.9635 18.4635C16.3817 20.0453 14.237 20.935 12 20.9375ZM17.8125 12.5C17.8125 12.6492 17.7532 12.7923 17.6478 12.8977C17.5423 13.0032 17.3992 13.0625 17.25 13.0625H12C11.8508 13.0625 11.7077 13.0032 11.6023 12.8977C11.4968 12.7923 11.4375 12.6492 11.4375 12.5V7.25C11.4375 7.10082 11.4968 6.95774 11.6023 6.85225C11.7077 6.74676 11.8508 6.6875 12 6.6875C12.1492 6.6875 12.2923 6.74676 12.3978 6.85225C12.5032 6.95774 12.5625 7.10082 12.5625 7.25V11.9375H17.25C17.3992 11.9375 17.5423 11.9968 17.6478 12.1023C17.7532 12.2077 17.8125 12.3508 17.8125 12.5Z" fill="#000305"/>
</svg>
