<svg width="24" height="20" viewBox="0 0 24 20" fill="none" xmlns="http://www.w3.org/2000/svg">
<path d="M23.7493 9.99985C23.7493 10.1988 23.6703 10.3895 23.5297 10.5302C23.389 10.6708 23.1983 10.7498 22.9993 10.7498H2.81059L10.5293 18.4698C10.603 18.5385 10.6621 18.6213 10.7031 18.7133C10.7441 18.8053 10.7662 18.9046 10.7679 19.0053C10.7697 19.106 10.7512 19.2061 10.7135 19.2994C10.6757 19.3928 10.6196 19.4777 10.5484 19.5489C10.4772 19.6201 10.3923 19.6762 10.2989 19.714C10.2055 19.7517 10.1055 19.7702 10.0048 19.7684C9.90411 19.7667 9.8048 19.7446 9.7128 19.7036C9.6208 19.6626 9.538 19.6035 9.46934 19.5298L0.46934 10.5298C0.328889 10.3892 0.25 10.1986 0.25 9.99985C0.25 9.8011 0.328889 9.61047 0.46934 9.46985L9.46934 0.469846C9.61152 0.337366 9.79956 0.265243 9.99386 0.268672C10.1882 0.2721 10.3735 0.350812 10.511 0.488225C10.6484 0.625638 10.7271 0.811023 10.7305 1.00532C10.7339 1.19963 10.6618 1.38767 10.5293 1.52985L2.81059 9.24985H22.9993C23.1983 9.24985 23.389 9.32886 23.5297 9.46952C23.6703 9.61017 23.7493 9.80093 23.7493 9.99985Z" fill="#007DCF"/>
</svg>
