<svg width="20" height="20" viewBox="0 0 20 20" fill="none" xmlns="http://www.w3.org/2000/svg">
<path d="M19.3982 18.6023L14.5814 13.7854C15.955 12.2057 16.6616 10.1545 16.5523 8.06398C16.4429 5.9735 15.5262 4.00712 13.9954 2.57934C12.4645 1.15157 10.4391 0.373953 8.34608 0.410406C6.25305 0.446859 4.25594 1.29454 2.77573 2.77475C1.29551 4.25497 0.447835 6.25208 0.411382 8.3451C0.374929 10.4381 1.15255 12.4635 2.58032 13.9944C4.00809 15.5253 5.97447 16.442 8.06496 16.5513C10.1554 16.6606 12.2067 15.954 13.7864 14.5804L18.6032 19.3973C18.7099 19.4966 18.8509 19.5507 18.9966 19.5481C19.1424 19.5456 19.2814 19.4865 19.3845 19.3835C19.4875 19.2804 19.5465 19.1414 19.5491 18.9957C19.5517 18.8499 19.4976 18.7089 19.3982 18.6023ZM1.56324 8.49976C1.56324 7.12765 1.97011 5.78636 2.73242 4.64549C3.49472 3.50463 4.57821 2.61543 5.84587 2.09035C7.11353 1.56526 8.50843 1.42788 9.85418 1.69556C11.1999 1.96325 12.4361 2.62398 13.4063 3.59421C14.3765 4.56443 15.0372 5.80058 15.3049 7.14632C15.5726 8.49206 15.4352 9.88696 14.9102 11.1546C14.3851 12.4223 13.4959 13.5058 12.355 14.2681C11.2141 15.0304 9.87284 15.4373 8.50074 15.4373C6.66148 15.435 4.8982 14.7034 3.59765 13.4028C2.2971 12.1023 1.56547 10.339 1.56324 8.49976Z" fill="#D1D5DB"/>
</svg>
