<svg width="40" height="40" viewBox="0 0 40 40" fill="none" xmlns="http://www.w3.org/2000/svg">
<path d="M20 4.0625C16.8479 4.0625 13.7665 4.99722 11.1456 6.74845C8.5247 8.49969 6.48195 10.9888 5.27568 13.901C4.06941 16.8132 3.75379 20.0177 4.36874 23.1093C4.98369 26.2008 6.50159 29.0406 8.73049 31.2695C10.9594 33.4984 13.7992 35.0163 16.8908 35.6313C19.9823 36.2462 23.1868 35.9306 26.099 34.7243C29.0112 33.5181 31.5003 31.4753 33.2516 28.8544C35.0028 26.2335 35.9375 23.1521 35.9375 20C35.9325 15.7746 34.2518 11.7238 31.264 8.73597C28.2763 5.74818 24.2254 4.06746 20 4.0625ZM20.9375 34.0312V23.4375H25C25.2486 23.4375 25.4871 23.3387 25.6629 23.1629C25.8387 22.9871 25.9375 22.7486 25.9375 22.5C25.9375 22.2514 25.8387 22.0129 25.6629 21.8371C25.4871 21.6613 25.2486 21.5625 25 21.5625H20.9375V17.5C20.9375 16.7541 21.2338 16.0387 21.7613 15.5113C22.2887 14.9838 23.0041 14.6875 23.75 14.6875H26.25C26.4986 14.6875 26.7371 14.5887 26.9129 14.4129C27.0887 14.2371 27.1875 13.9986 27.1875 13.75C27.1875 13.5014 27.0887 13.2629 26.9129 13.0871C26.7371 12.9113 26.4986 12.8125 26.25 12.8125H23.75C22.5068 12.8125 21.3145 13.3064 20.4354 14.1854C19.5564 15.0645 19.0625 16.2568 19.0625 17.5V21.5625H15C14.7514 21.5625 14.5129 21.6613 14.3371 21.8371C14.1613 22.0129 14.0625 22.2514 14.0625 22.5C14.0625 22.7486 14.1613 22.9871 14.3371 23.1629C14.5129 23.3387 14.7514 23.4375 15 23.4375H19.0625V34.0312C15.4222 33.788 12.019 32.1395 9.57142 29.4339C7.12387 26.7283 5.82365 23.1774 5.94533 19.531C6.06701 15.8847 7.60107 12.4283 10.2235 9.89189C12.846 7.35546 16.3516 5.93753 20 5.93753C23.6484 5.93753 27.154 7.35546 29.7765 9.89189C32.3989 12.4283 33.933 15.8847 34.0547 19.531C34.1764 23.1774 32.8761 26.7283 30.4286 29.4339C27.9811 32.1395 24.5778 33.788 20.9375 34.0312Z" fill="#E1F3FC"/>
</svg>
