<svg width="131" height="30" viewBox="0 0 131 30" fill="none" xmlns="http://www.w3.org/2000/svg">
<path d="M2.45193 20.6055V27.4974H9.16478C10.3055 28.2107 11.5034 28.7977 12.7499 29.2586C11.7636 29.42 10.763 29.4993 9.75947 29.4993H0.507812V20.0009C0.507812 18.9765 0.585021 17.955 0.739406 16.9453C1.18826 18.2192 1.76006 19.4432 2.45193 20.6055Z" fill="white"/>
<path d="M9.44513 3.46094H9.75392C10.8603 3.46094 11.9582 3.5754 13.0332 3.80142C8.81331 5.58016 5.46545 9.01731 3.73291 13.3497C3.50992 12.2461 3.39844 11.1248 3.39844 9.99474V9.666C4.16464 8.4156 5.06518 7.25324 6.08012 6.21124C7.08933 5.17511 8.22435 4.24758 9.44513 3.46094Z" fill="white"/>
<path d="M28.7484 0.5V9.99839C28.7484 11.0198 28.6712 12.0384 28.5197 13.0422C28.0708 11.7683 27.499 10.5414 26.8071 9.37612V2.49596H20.0972C18.9621 1.78858 17.7642 1.20152 16.5234 0.74069C17.5069 0.582188 18.5019 0.5 19.4997 0.5H28.7484Z" fill="white"/>
<path d="M25.5349 16.6504C25.755 17.7482 25.8636 18.8694 25.8636 19.9965V20.34C25.1003 21.5904 24.1998 22.7468 23.1905 23.7859C22.1813 24.822 21.052 25.7437 19.837 26.5304H19.5082C18.4103 26.5304 17.3182 26.4159 16.2461 26.1869C18.316 25.3122 20.2201 24.009 21.8125 22.3682C23.4107 20.7303 24.6801 18.7755 25.5349 16.6504Z" fill="white"/>
<path d="M14.5147 1.11641C12.9623 0.708411 11.3613 0.5 9.75166 0.5H0.5V9.99839C0.5 11.648 0.70302 13.2946 1.10614 14.8885C1.57787 16.7641 2.32406 18.5546 3.3247 20.2159C4.1052 21.5103 5.0286 22.7079 6.06927 23.7792C7.11279 24.8506 8.28216 25.8016 9.54582 26.6029C11.1697 27.6332 12.9251 28.3993 14.7606 28.8836C16.3073 29.2887 17.9025 29.4971 19.5064 29.4971H28.7581V19.9987C28.7581 18.3491 28.5551 16.7024 28.1548 15.1086C27.6831 13.2271 26.9341 11.4308 25.9335 9.76943C25.153 8.47794 24.2323 7.28037 23.1917 6.21195C22.1482 5.14059 20.976 4.19252 19.7152 3.39414C18.097 2.36388 16.3444 1.59778 14.5147 1.11641ZM9.75166 2.49596C11.4613 2.49596 13.151 2.75426 14.7749 3.26499C17.408 4.09272 19.8409 5.60142 21.8108 7.62379C23.7835 9.64322 25.253 12.144 26.0592 14.8562C26.5538 16.5175 26.8054 18.2464 26.8054 19.9987V27.5011H19.5064C17.8082 27.5011 16.1243 27.2428 14.5032 26.7292C9.09406 25.0238 4.87142 20.6914 3.20464 15.1438C2.70432 13.4766 2.44984 11.7448 2.44984 10.0013V2.49888H9.75166V2.49596Z" fill="white"/>
<path d="M14.6307 19.9542C17.296 19.9542 19.4566 17.736 19.4566 14.9996C19.4566 12.2632 17.296 10.0449 14.6307 10.0449C11.9654 10.0449 9.80469 12.2632 9.80469 14.9996C9.80469 17.736 11.9654 19.9542 14.6307 19.9542Z" fill="white"/>
<path d="M37.5482 22.0184C37.1537 21.8335 37.0051 21.3345 37.1852 20.9324C37.3968 20.5302 37.8799 20.3424 38.2744 20.5596C41.5393 23.1044 46.4682 22.3912 46.4997 19.7524C46.5311 18.4785 45.1388 17.5158 42.7487 16.9904C38.1229 15.9337 37.5768 13.6677 37.6997 12.4584C37.8513 10.3773 40.0584 8.91849 42.9317 9.04471C44.5356 9.10635 45.865 9.57305 47.1058 10.4419C47.5289 10.6591 47.6805 11.1551 47.4689 11.5279C47.2573 11.93 46.7742 12.1179 46.3796 11.9007C43.2948 9.63468 39.5467 10.7824 39.4237 12.6139C39.3036 13.2362 39.6953 14.7244 43.0832 15.4405C47.5575 16.4972 48.2236 18.546 48.2236 19.7553C48.2236 21.6808 46.5912 23.7296 42.9317 23.759C40.3615 23.7883 38.3344 22.579 37.5482 22.0184Z" fill="white"/>
<path d="M50.0391 16.4289C50.0391 12.393 53.2439 9.07031 57.2065 9.07031C61.1375 9.07031 64.3739 12.393 64.3739 16.4289C64.3739 20.4971 61.1375 23.7875 57.2065 23.7875C53.2439 23.7875 50.0391 20.4971 50.0391 16.4289ZM62.7701 16.4289C62.7701 13.2618 60.2913 10.717 57.2065 10.717C54.1531 10.717 51.6715 13.2618 51.6715 16.4289C51.6715 19.5637 54.1502 22.1115 57.2065 22.1115C60.2884 22.1115 62.7701 19.5667 62.7701 16.4289Z" fill="white"/>
<path d="M74.8032 2.80137C74.8032 3.26807 74.4401 3.64084 73.9855 3.64084L73.5023 3.67314C70.812 3.67314 68.482 5.31979 68.3619 9.10622H73.1107C73.5338 9.10622 73.8654 9.44671 73.8654 9.88113C73.8654 10.3155 73.5338 10.6883 73.1107 10.6883H68.3619V22.8577C68.3619 23.3244 67.9988 23.6972 67.5443 23.6972C67.0611 23.6972 66.7266 23.3244 66.7266 22.8577V9.38507C66.7266 3.98427 70.326 1.96484 73.4994 1.96484H73.9827C74.4401 1.96484 74.8032 2.33467 74.8032 2.80137Z" fill="white"/>
<path d="M84.9956 22.8568C84.9956 23.3235 84.6325 23.6962 84.1779 23.6962H83.6948C80.5184 23.6962 76.9219 21.6475 76.9219 16.2437V2.80041C76.9219 2.33371 77.2535 1.96094 77.7395 1.96094C78.1941 1.96094 78.5572 2.33371 78.5572 2.80041V9.10234H83.3059C83.729 9.10234 84.0607 9.44281 84.0607 9.87722C84.0607 10.3439 83.729 10.6844 83.3059 10.6844H78.5572V16.2408C78.5572 20.2151 80.9473 21.985 83.6976 21.985L84.1808 22.0173C84.6325 22.0173 84.9956 22.3901 84.9956 22.8568Z" fill="white"/>
<path d="M87.0234 22.4846C87.0234 21.833 87.5381 21.3047 88.1727 21.3047C88.8389 21.3047 89.3507 21.833 89.3507 22.4846C89.3507 23.1685 88.836 23.7262 88.1727 23.7262C87.5381 23.7262 87.0234 23.1685 87.0234 22.4846Z" fill="white"/>
<path d="M93.4929 9.84728V17.3292C93.4929 19.9063 95.5485 22.0167 98.0586 22.0167C100.569 22.0167 102.624 19.9063 102.624 17.3292V9.84728C102.624 9.35123 102.988 9.00781 103.442 9.00781C103.897 9.00781 104.26 9.34829 104.26 9.84728V17.3292C104.26 20.8367 101.478 23.6927 98.0615 23.6927C94.645 23.6927 91.8633 20.8367 91.8633 17.3292V9.84728C91.8633 9.35123 92.2263 9.00781 92.6809 9.00781C93.1298 9.01075 93.4929 9.35123 93.4929 9.84728Z" fill="white"/>
<path d="M120.918 16.5541V16.5864V22.9206C120.918 23.3873 120.586 23.7278 120.163 23.7278C119.74 23.7278 119.408 23.3873 119.408 22.9206V20.6547C118.108 22.4246 116.112 23.7895 113.753 23.7895C109.791 23.7895 106.586 20.4991 106.586 16.4309C106.586 12.3949 109.791 9.07227 113.753 9.07227C117.684 9.07227 120.921 12.3949 120.921 16.4309V16.5541H120.918ZM119.317 16.4279C119.317 13.2608 116.838 10.716 113.753 10.716C110.7 10.716 108.19 13.2608 108.19 16.4279C108.19 19.5627 110.7 22.1105 113.753 22.1105C116.835 22.1105 119.317 19.5657 119.317 16.4279Z" fill="white"/>
</svg>
