<svg width="1369" height="1362" viewBox="0 0 1369 1362" fill="none" xmlns="http://www.w3.org/2000/svg">
<path d="M238.282 510.497C240.298 525.623 246.335 556.374 301.778 600.745C301.778 600.745 361.263 638.567 396.041 648.651C441.988 661.975 523.054 668.316 523.054 668.316C523.054 668.316 645.808 680.417 644.52 659.744C643.516 643.609 544.223 555.876 544.223 555.876C544.223 555.876 485.866 501.836 434.85 473.185C406.121 457.05 360.759 445.957 360.759 445.957C321.445 441.419 300.78 443.436 287.172 447.974C255.418 455.033 237.777 487.303 238.282 510.497Z" fill="#FDEB00"/>
<path d="M466.604 428.286C486.357 481.107 560.352 550.834 560.352 550.834C560.352 550.834 670.063 651.331 670.733 632.531C671.237 618.399 670.997 586.892 670.997 586.892C671.143 561.791 671.143 427.352 670.997 288.138L668.527 36.0308L666.701 25.9464C659.664 1.27562 644.524 -1.28103 627.891 1.74427C620.309 3.12342 595.381 3.8675 522.021 89.4774C522.021 89.4774 482.154 144.732 466.604 184.097C449.087 228.441 445.435 305.785 445.435 305.785C445.435 305.785 449.903 383.628 466.604 428.286Z" fill="#FDEB00"/>
<path d="M859.233 239.011C844.107 241.027 813.356 247.065 768.985 302.507C768.985 302.507 731.163 361.993 721.078 396.77C707.755 442.718 701.414 523.784 701.414 523.784C701.414 523.784 689.313 646.537 709.985 645.25C726.12 644.245 813.854 544.953 813.854 544.953C813.854 544.953 867.894 486.596 896.545 435.58C912.68 406.851 923.773 361.489 923.773 361.489C928.311 322.175 926.294 301.51 921.756 287.901C914.697 256.148 882.427 238.507 859.233 239.011Z" fill="#007DCF"/>
<path d="M941.443 467.334C888.623 487.086 818.896 561.082 818.896 561.082C818.896 561.082 718.399 670.793 737.199 671.463C751.331 671.967 782.837 671.727 782.837 671.727C807.938 671.872 942.378 671.872 1081.59 671.727L1333.7 669.257L1343.78 667.43C1368.45 660.393 1371.01 645.253 1367.99 628.621C1366.61 621.038 1365.86 596.111 1280.25 522.75C1280.25 522.75 1225 482.884 1185.63 467.334C1141.29 449.816 1063.94 446.164 1063.94 446.164C1063.94 446.164 986.101 450.633 941.443 467.334Z" fill="#007DCF"/>
<path d="M1130.72 851.504C1128.7 836.377 1122.66 805.626 1067.22 761.255C1067.22 761.255 1007.74 723.433 972.959 713.349C927.012 700.026 845.946 693.685 845.946 693.685C845.946 693.685 723.192 681.583 724.48 702.256C725.484 718.391 824.777 806.124 824.777 806.124C824.777 806.124 883.134 860.164 934.15 888.816C962.879 904.95 1008.24 916.043 1008.24 916.043C1047.55 920.581 1068.22 918.564 1081.83 914.026C1113.58 906.967 1131.22 874.698 1130.72 851.504Z" fill="#FDEB00"/>
<path d="M902.396 933.714C882.643 880.894 808.648 811.166 808.648 811.166C808.648 811.166 698.937 710.669 698.267 729.469C697.763 743.602 698.003 775.108 698.003 775.108C697.857 800.209 697.857 934.648 698.003 1073.86L700.473 1325.97L702.299 1336.05C709.336 1360.72 724.476 1363.28 741.109 1360.26C748.691 1358.88 773.619 1358.13 846.979 1272.52C846.979 1272.52 886.846 1217.27 902.396 1177.9C919.913 1133.56 923.565 1056.21 923.565 1056.21C923.565 1056.21 919.097 978.372 902.396 933.714Z" fill="#FDEB00"/>
<path d="M509.767 1122.99C524.893 1120.97 555.644 1114.94 600.015 1059.49C600.015 1059.49 637.837 1000.01 647.922 965.23C661.245 919.282 667.586 838.216 667.586 838.216C667.586 838.216 679.687 715.463 659.015 716.75C642.879 717.755 555.146 817.047 555.146 817.047C555.146 817.047 501.106 875.404 472.455 926.42C456.32 955.149 445.227 1000.51 445.227 1000.51C440.689 1039.83 442.706 1060.49 447.244 1074.1C454.303 1105.85 486.573 1123.49 509.767 1122.99Z" fill="#007DCF"/>
<path d="M427.557 894.666C480.377 874.914 550.104 800.918 550.104 800.918C550.104 800.918 650.601 691.207 631.801 690.537C617.669 690.033 586.163 690.273 586.163 690.273C561.062 690.128 426.622 690.128 287.408 690.273L35.3011 692.743L25.2167 694.57C0.545867 701.607 -2.01079 716.747 1.01452 733.379C2.39366 740.962 3.13775 765.889 88.7477 839.25C88.7477 839.25 144.003 879.116 183.367 894.666C227.711 912.184 305.056 915.836 305.056 915.836C305.056 915.836 382.899 911.367 427.557 894.666Z" fill="#007DCF"/>
</svg>
