<svg width="24" height="25" viewBox="0 0 24 25" fill="none" xmlns="http://www.w3.org/2000/svg">
    <path d="M12 6.6875C11.2954 6.6875 10.6066 6.89644 10.0208 7.28789C9.43493 7.67934 8.97832 8.23573 8.70868 8.88669C8.43904 9.53765 8.36849 10.254 8.50595 10.945C8.64341 11.6361 8.98271 12.2708 9.48093 12.7691C9.97916 13.2673 10.6139 13.6066 11.305 13.744C11.996 13.8815 12.7123 13.811 13.3633 13.5413C14.0143 13.2717 14.5707 12.8151 14.9621 12.2292C15.3536 11.6434 15.5625 10.9546 15.5625 10.25C15.5625 9.30517 15.1872 8.39903 14.5191 7.73093C13.851 7.06283 12.9448 6.6875 12 6.6875ZM12 12.6875C11.5179 12.6875 11.0466 12.5445 10.6458 12.2767C10.245 12.0089 9.93253 11.6282 9.74804 11.1828C9.56356 10.7374 9.51528 10.2473 9.60934 9.77447C9.70339 9.30164 9.93554 8.86732 10.2764 8.52643C10.6173 8.18554 11.0516 7.95339 11.5245 7.85934C11.9973 7.76528 12.4874 7.81356 12.9328 7.99804C13.3782 8.18253 13.7589 8.49495 14.0267 8.8958C14.2945 9.29664 14.4375 9.76791 14.4375 10.25C14.4375 10.8965 14.1807 11.5165 13.7236 11.9736C13.2665 12.4307 12.6465 12.6875 12 12.6875ZM12 2.1875C9.86245 2.18998 7.81317 3.04022 6.30169 4.55169C4.79022 6.06317 3.93998 8.11245 3.9375 10.25C3.9375 13.1478 5.28188 16.2256 7.82531 19.1506C8.97329 20.4773 10.2653 21.6722 11.6775 22.7131C11.772 22.7793 11.8846 22.8148 12 22.8148C12.1154 22.8148 12.228 22.7793 12.3225 22.7131C13.7347 21.6722 15.0267 20.4773 16.1747 19.1506C18.7181 16.2256 20.0625 13.1506 20.0625 10.25C20.06 8.11245 19.2098 6.06317 17.6983 4.55169C16.1868 3.04022 14.1375 2.18998 12 2.1875ZM12 21.5478C10.5938 20.4622 5.0625 15.8394 5.0625 10.25C5.0625 8.41006 5.79341 6.64548 7.09445 5.34445C8.39548 4.04341 10.1601 3.3125 12 3.3125C13.8399 3.3125 15.6045 4.04341 16.9056 5.34445C18.2066 6.64548 18.9375 8.41006 18.9375 10.25C18.9375 15.8394 13.4062 20.4622 12 21.5478Z" fill="#000305"/>
</svg>
