<svg width="76" height="55" viewBox="0 0 76 55" fill="none" xmlns="http://www.w3.org/2000/svg">
<g clip-path="url(#clip0_10028_37138)">
<path opacity="0.1" d="M44.0763 9.69969C39.2682 9.52963 34.6852 7.94991 30.3156 6.22192C25.9459 4.49392 21.6149 2.579 16.9194 1.66335C13.9004 1.07377 10.4478 0.990849 8.01575 2.63803C5.67487 4.22267 4.91874 6.95837 4.51202 9.49661C4.20612 11.4066 4.02866 13.4164 4.86488 15.2048C5.44699 16.4458 6.48002 17.4894 7.19471 18.6784C9.6806 22.8153 7.92322 27.9171 5.22879 31.9598C3.96513 33.8572 2.49914 35.6625 1.52412 37.68C0.5491 39.6975 0.0974971 42.0088 0.950986 44.0663C1.79688 46.1042 3.81183 47.6376 5.99527 48.7149C10.4298 50.901 15.655 51.5265 20.7504 51.8848C32.0294 52.6698 43.3692 52.3297 54.678 51.9895C58.8632 51.8631 63.0672 51.7359 67.1841 51.076C69.4704 50.7099 71.8313 50.1294 73.4913 48.7282C75.5981 46.9489 76.1208 43.937 74.7087 41.7059C72.3402 37.9646 65.792 37.0349 64.1361 33.0195C63.2253 30.8095 64.161 28.3471 65.4854 26.2973C68.3255 21.9004 73.0874 18.0424 73.338 13.0158C73.5107 9.56336 71.2216 6.10667 67.6819 4.47284C63.9724 2.7589 58.828 2.97534 56.0915 5.80801C53.2734 8.72642 48.321 9.84937 44.0763 9.69969Z" fill="#3B3B3B"/>
<path d="M17.228 50.9502C17.228 50.9502 13.4301 48.0283 12.7126 44.3116C12.4217 42.7506 11.6413 41.3276 10.4885 40.2562C9.93698 39.7522 9.34134 39.3005 8.70898 38.907" stroke="#535461" stroke-width="2" stroke-miterlimit="10"/>
<path d="M8.24503 36.5655C8.57786 37.0236 8.7284 38.9653 8.7284 38.9653C8.7284 38.9653 6.94891 38.252 6.61539 37.7945C6.45524 37.5746 6.38749 37.299 6.42705 37.0282C6.46661 36.7574 6.61024 36.5138 6.82635 36.3508C7.04245 36.1878 7.31332 36.1189 7.57938 36.1591C7.84543 36.1994 8.08487 36.3455 8.24503 36.5655Z" fill="#007DCF"/>
<path d="M11.4354 38.089C11.4699 38.6575 10.5605 40.3707 10.5605 40.3707C10.5605 40.3707 9.44665 38.7868 9.41144 38.2183C9.39804 37.9472 9.49013 37.6818 9.66774 37.4793C9.84535 37.2769 10.0942 37.1539 10.3603 37.1369C10.6264 37.1199 10.8885 37.2103 11.0895 37.3885C11.2906 37.5667 11.4146 37.8184 11.4347 38.089H11.4354Z" fill="#007DCF"/>
<path d="M14.5303 42.4683C14.2789 42.9771 12.6431 43.989 12.6431 43.989C12.6431 43.989 12.4684 42.0495 12.7197 41.5408C12.8435 41.3015 13.0545 41.1212 13.3076 41.0388C13.5606 40.9563 13.8353 40.9782 14.0726 41.0998C14.3099 41.2213 14.4908 41.4329 14.5764 41.6888C14.662 41.9448 14.6454 42.2247 14.5303 42.4683Z" fill="#007DCF"/>
<path d="M16.1382 46.3165C15.9745 46.8611 14.5306 48.1394 14.5306 48.1394C14.5306 48.1394 14.0355 46.2582 14.1992 45.7128C14.2778 45.4512 14.4554 45.232 14.6929 45.1036C14.9303 44.9752 15.2081 44.948 15.4653 45.028C15.7224 45.1081 15.9377 45.2888 16.0639 45.5304C16.1901 45.7721 16.2168 46.0548 16.1382 46.3165Z" fill="#007DCF"/>
<path d="M8.91391 41.7481C9.46633 41.8239 11.2127 41.0214 11.2127 41.0214C11.2127 41.0214 9.73908 39.779 9.1839 39.7031C8.91743 39.6667 8.64766 39.7395 8.43392 39.9055C8.22018 40.0714 8.07999 40.317 8.04419 40.5882C8.00839 40.8594 8.0799 41.1339 8.243 41.3514C8.40611 41.569 8.64744 41.7116 8.91391 41.7481Z" fill="#007DCF"/>
<path d="M10.8518 46.2251C11.4042 46.1289 12.8315 44.8323 12.8315 44.8323C12.8315 44.8323 11.0596 44.0959 10.5079 44.1922C10.3758 44.2142 10.2493 44.2626 10.1357 44.3347C10.0221 44.4067 9.92367 44.501 9.84604 44.6119C9.76842 44.7229 9.71316 44.8485 9.68347 44.9813C9.65377 45.1141 9.65022 45.2516 9.67301 45.3858C9.69581 45.5201 9.7445 45.6484 9.81629 45.7634C9.88807 45.8783 9.98152 45.9777 10.0912 46.0558C10.201 46.1338 10.3248 46.1889 10.4556 46.218C10.5863 46.2471 10.7215 46.2495 10.8532 46.2251H10.8518Z" fill="#007DCF"/>
<path d="M13.321 50.3142C13.881 50.3142 15.5038 49.2819 15.5038 49.2819C15.5038 49.2819 13.8803 48.251 13.3203 48.251C13.0515 48.251 12.7936 48.3597 12.6035 48.5532C12.4134 48.7466 12.3066 49.009 12.3066 49.2826C12.3066 49.5562 12.4134 49.8186 12.6035 50.0121C12.7936 50.2055 13.0515 50.3142 13.3203 50.3142H13.321Z" fill="#007DCF"/>
<path d="M54.123 25.6782C54.123 25.6782 56.4639 21.4583 59.9925 20.2426C61.4742 19.7419 62.7564 18.7657 63.6468 17.4606C64.0644 16.8366 64.4247 16.1749 64.7233 15.4838" stroke="#535461" stroke-width="2" stroke-miterlimit="10"/>
<path d="M66.9385 14.7108C66.5367 15.1071 64.666 15.5175 64.666 15.5175C64.666 15.5175 65.1252 13.6272 65.5271 13.2302C65.7211 13.0453 65.9786 12.9454 66.2443 12.9519C66.5099 12.9584 66.7625 13.0708 66.9475 13.2649C67.1325 13.459 67.2353 13.7193 67.2336 13.9897C67.2319 14.2602 67.126 14.5191 66.9385 14.7108Z" fill="#007DCF"/>
<path d="M65.8798 18.1281C65.3274 18.2392 63.541 17.5491 63.541 17.5491C63.541 17.5491 64.9359 16.2139 65.4848 16.105C65.6167 16.0752 65.753 16.0726 65.8858 16.0971C66.0187 16.1217 66.1453 16.1731 66.2584 16.2482C66.3715 16.3232 66.4687 16.4206 66.5443 16.5344C66.6199 16.6482 66.6724 16.7763 66.6987 16.9111C66.725 17.0458 66.7246 17.1846 66.6975 17.3192C66.6704 17.4538 66.6171 17.5816 66.5409 17.6949C66.4646 17.8083 66.3668 17.905 66.2533 17.9794C66.1398 18.0538 66.0128 18.1044 65.8798 18.1281Z" fill="#007DCF"/>
<path d="M62.03 21.8301C61.501 21.6439 60.2988 20.1288 60.2988 20.1288C60.2988 20.1288 62.1632 19.6945 62.6936 19.8807C62.821 19.9237 62.9387 19.9921 63.04 20.0818C63.1412 20.1715 63.224 20.2808 63.2834 20.4033C63.3428 20.5258 63.3777 20.6591 63.3861 20.7954C63.3945 20.9318 63.3762 21.0685 63.3322 21.1975C63.2883 21.3266 63.2196 21.4456 63.1301 21.5474C63.0407 21.6493 62.9322 21.732 62.811 21.7909C62.6899 21.8497 62.5585 21.8835 62.4244 21.8902C62.2903 21.8969 62.1562 21.8765 62.03 21.8301Z" fill="#007DCF"/>
<path d="M58.4918 23.9635C57.9394 23.8708 56.5059 22.5813 56.5059 22.5813C56.5059 22.5813 58.2729 21.8322 58.8246 21.9249C59.0902 21.9694 59.3275 22.1194 59.4844 22.3419C59.6413 22.5644 59.7049 22.8413 59.6612 23.1115C59.6175 23.3817 59.4702 23.6233 59.2515 23.7829C59.0328 23.9426 58.7608 24.0073 58.4953 23.9628L58.4918 23.9635Z" fill="#007DCF"/>
<path d="M61.9824 16.0713C61.9817 16.6412 62.9975 18.2947 62.9975 18.2947C62.9975 18.2947 64.0119 16.6433 64.0119 16.0741C64.0154 15.9364 63.9918 15.7994 63.9425 15.6711C63.8931 15.5429 63.8191 15.426 63.7246 15.3273C63.6302 15.2286 63.5173 15.1502 63.3926 15.0967C63.2679 15.0431 63.1339 15.0156 62.9985 15.0156C62.8632 15.0156 62.7292 15.0431 62.6045 15.0967C62.4798 15.1502 62.3669 15.2286 62.2725 15.3273C62.178 15.426 62.1039 15.5429 62.0546 15.6711C62.0053 15.7994 61.9817 15.9364 61.9852 16.0741L61.9824 16.0713Z" fill="#007DCF"/>
<path d="M57.8785 18.6193C58.0456 19.1632 59.4985 20.4316 59.4985 20.4316C59.4985 20.4316 59.9819 18.5469 59.8134 18.003C59.726 17.751 59.5459 17.5434 59.3111 17.4238C59.0763 17.3042 58.805 17.282 58.5545 17.3619C58.3039 17.4417 58.0935 17.6174 57.9677 17.852C57.8419 18.0865 57.8104 18.3616 57.8799 18.6193H57.8785Z" fill="#007DCF"/>
<path d="M54.2274 21.653C54.302 22.2152 55.5228 23.7169 55.5228 23.7169C55.5228 23.7169 56.3107 21.9425 56.2361 21.3782C56.2213 21.2415 56.1798 21.1092 56.114 20.989C56.0482 20.8689 55.9595 20.7633 55.853 20.6786C55.7466 20.5938 55.6245 20.5316 55.4941 20.4956C55.3637 20.4596 55.2275 20.4504 55.0935 20.4688C54.9595 20.4871 54.8305 20.5325 54.7141 20.6023C54.5976 20.6721 54.4961 20.7649 54.4154 20.8752C54.3347 20.9856 54.2765 21.1112 54.2442 21.2448C54.2119 21.3784 54.2062 21.5172 54.2274 21.653Z" fill="#007DCF"/>
<path opacity="0.25" d="M66.9385 14.7108C66.5367 15.1071 64.666 15.5175 64.666 15.5175C64.666 15.5175 65.1252 13.6272 65.5271 13.2302C65.7211 13.0453 65.9786 12.9454 66.2443 12.9519C66.5099 12.9584 66.7625 13.0708 66.9475 13.2649C67.1325 13.459 67.2353 13.7193 67.2336 13.9897C67.2319 14.2602 67.126 14.5191 66.9385 14.7108Z" fill="black"/>
<path opacity="0.25" d="M65.8798 18.1281C65.3274 18.2392 63.541 17.5491 63.541 17.5491C63.541 17.5491 64.9359 16.2139 65.4848 16.105C65.6167 16.0752 65.753 16.0726 65.8858 16.0971C66.0187 16.1217 66.1453 16.1731 66.2584 16.2482C66.3715 16.3232 66.4687 16.4206 66.5443 16.5344C66.6199 16.6482 66.6724 16.7763 66.6987 16.9111C66.725 17.0458 66.7246 17.1846 66.6975 17.3192C66.6704 17.4538 66.6171 17.5816 66.5409 17.6949C66.4646 17.8083 66.3668 17.905 66.2533 17.9794C66.1398 18.0538 66.0128 18.1044 65.8798 18.1281Z" fill="black"/>
<path opacity="0.25" d="M62.03 21.8301C61.501 21.6439 60.2988 20.1288 60.2988 20.1288C60.2988 20.1288 62.1632 19.6945 62.6936 19.8807C62.821 19.9237 62.9387 19.9921 63.04 20.0818C63.1412 20.1715 63.224 20.2808 63.2834 20.4033C63.3428 20.5258 63.3777 20.6591 63.3861 20.7954C63.3945 20.9318 63.3762 21.0685 63.3322 21.1975C63.2883 21.3266 63.2196 21.4456 63.1301 21.5474C63.0407 21.6493 62.9322 21.732 62.811 21.7909C62.6899 21.8497 62.5585 21.8835 62.4244 21.8902C62.2903 21.8969 62.1562 21.8765 62.03 21.8301Z" fill="black"/>
<path opacity="0.25" d="M58.4918 23.9635C57.9394 23.8708 56.5059 22.5813 56.5059 22.5813C56.5059 22.5813 58.2729 21.8322 58.8246 21.9249C59.0902 21.9694 59.3275 22.1194 59.4844 22.3419C59.6413 22.5644 59.7049 22.8413 59.6612 23.1115C59.6175 23.3817 59.4702 23.6233 59.2515 23.7829C59.0328 23.9426 58.7608 24.0073 58.4953 23.9628L58.4918 23.9635Z" fill="black"/>
<path opacity="0.25" d="M61.9824 16.0713C61.9817 16.6412 62.9975 18.2947 62.9975 18.2947C62.9975 18.2947 64.0119 16.6433 64.0119 16.0741C64.0154 15.9364 63.9918 15.7994 63.9425 15.6711C63.8931 15.5429 63.8191 15.426 63.7246 15.3273C63.6302 15.2286 63.5173 15.1502 63.3926 15.0967C63.2679 15.0431 63.1339 15.0156 62.9985 15.0156C62.8632 15.0156 62.7292 15.0431 62.6045 15.0967C62.4798 15.1502 62.3669 15.2286 62.2725 15.3273C62.178 15.426 62.1039 15.5429 62.0546 15.6711C62.0053 15.7994 61.9817 15.9364 61.9852 16.0741L61.9824 16.0713Z" fill="black"/>
<path opacity="0.25" d="M57.8785 18.6193C58.0456 19.1632 59.4985 20.4316 59.4985 20.4316C59.4985 20.4316 59.9819 18.5469 59.8134 18.003C59.726 17.751 59.5459 17.5434 59.3111 17.4238C59.0763 17.3042 58.805 17.282 58.5545 17.3619C58.3039 17.4417 58.0935 17.6174 57.9677 17.852C57.8419 18.0865 57.8104 18.3616 57.8799 18.6193H57.8785Z" fill="black"/>
<path opacity="0.25" d="M54.2274 21.653C54.302 22.2152 55.5228 23.7169 55.5228 23.7169C55.5228 23.7169 56.3107 21.9425 56.2361 21.3782C56.2213 21.2415 56.1798 21.1092 56.114 20.989C56.0482 20.8689 55.9595 20.7633 55.853 20.6786C55.7466 20.5938 55.6245 20.5316 55.4941 20.4956C55.3637 20.4596 55.2275 20.4504 55.0935 20.4688C54.9595 20.4871 54.8305 20.5325 54.7141 20.6023C54.5976 20.6721 54.4961 20.7649 54.4154 20.8752C54.3347 20.9856 54.2765 21.1112 54.2442 21.2448C54.2119 21.3784 54.2062 21.5172 54.2274 21.653Z" fill="black"/>
<path d="M54.2578 25.5946C54.2578 25.5946 54.7177 20.7711 57.4563 18.2061C58.6114 17.1372 59.395 15.716 59.6895 14.1556C59.8235 13.4139 59.8903 12.6611 59.889 11.9069" stroke="#535461" stroke-width="2" stroke-miterlimit="10"/>
<path d="M61.6056 10.2794C61.3985 10.8079 59.8489 11.9547 59.8489 11.9547C59.8489 11.9547 59.5161 10.037 59.7253 9.50854C59.826 9.25479 60.0217 9.05215 60.2692 8.94521C60.5168 8.83826 60.7959 8.83577 61.0453 8.93828C61.2946 9.04078 61.4937 9.23989 61.5988 9.4918C61.7039 9.74371 61.7063 10.0278 61.6056 10.2815V10.2794Z" fill="#007DCF"/>
<path d="M61.9994 13.8436C61.5415 14.1711 59.6309 14.2786 59.6309 14.2786C59.6309 14.2786 60.3752 12.4839 60.8331 12.1564C60.9416 12.0737 61.0654 12.014 61.1971 11.9809C61.3287 11.9478 61.4656 11.9418 61.5995 11.9635C61.7334 11.9851 61.8617 12.0339 61.9768 12.1069C62.0919 12.18 62.1914 12.2757 62.2694 12.3886C62.3475 12.5015 62.4025 12.6291 62.4312 12.764C62.4599 12.8989 62.4617 13.0383 62.4365 13.1739C62.4113 13.3095 62.3597 13.4386 62.2846 13.5535C62.2095 13.6684 62.1125 13.7669 61.9994 13.8429V13.8436Z" fill="#007DCF"/>
<path d="M59.9522 18.8175C59.3942 18.8653 57.6914 17.9743 57.6914 17.9743C57.6914 17.9743 59.2244 16.8077 59.7823 16.7599C60.0503 16.737 60.3162 16.8234 60.5215 16.9999C60.7269 17.1765 60.855 17.4289 60.8775 17.7016C60.9 17.9743 60.8152 18.2449 60.6417 18.4539C60.4681 18.6629 60.2201 18.7932 59.9522 18.8161V18.8175Z" fill="#007DCF"/>
<path d="M57.569 22.225C57.0269 22.3656 55.2012 21.7844 55.2012 21.7844C55.2012 21.7844 56.518 20.3712 57.0601 20.2279C57.3203 20.1592 57.5967 20.1985 57.8284 20.3373C58.0602 20.476 58.2283 20.7027 58.2958 20.9675C58.3632 21.2323 58.3246 21.5136 58.1883 21.7494C58.052 21.9853 57.8292 22.1563 57.569 22.225Z" fill="#007DCF"/>
<path d="M57.6163 13.571C57.8428 14.0917 59.4268 15.1872 59.4268 15.1872C59.4268 15.1872 59.6962 13.259 59.4697 12.7382C59.3568 12.4946 59.1548 12.3056 58.9068 12.2115C58.6588 12.1174 58.3845 12.1258 58.1425 12.2348C57.9004 12.3438 57.7099 12.5449 57.6116 12.7949C57.5133 13.045 57.515 13.3243 57.6163 13.5731V13.571Z" fill="#007DCF"/>
<path d="M54.8786 17.592C55.248 18.0199 57.0807 18.5807 57.0807 18.5807C57.0807 18.5807 56.7713 16.6588 56.4019 16.2308C56.3147 16.1268 56.2081 16.0415 56.0882 15.9799C55.9683 15.9182 55.8376 15.8814 55.7036 15.8716C55.5697 15.8618 55.4351 15.8792 55.3078 15.9227C55.1805 15.9663 55.063 16.0352 54.962 16.1253C54.8611 16.2155 54.7788 16.3252 54.7199 16.4481C54.661 16.5709 54.6266 16.7044 54.6189 16.8409C54.6111 16.9774 54.6301 17.114 54.6747 17.243C54.7192 17.3719 54.7886 17.4905 54.8786 17.592Z" fill="#007DCF"/>
<path d="M52.7464 21.8729C53.0392 22.3578 54.7524 23.2257 54.7524 23.2257C54.7524 23.2257 54.7669 21.2784 54.4762 20.7929C54.3315 20.5686 54.1066 20.4106 53.8493 20.3523C53.5921 20.294 53.3226 20.3399 53.098 20.4804C52.8735 20.6209 52.7115 20.8449 52.6465 21.1048C52.5815 21.3648 52.6186 21.6403 52.7499 21.8729H52.7464Z" fill="#007DCF"/>
<path d="M50.7363 6.70469C50.851 6.27673 50.9891 5.84667 51.0857 5.41309C50.9697 5.84667 50.8309 6.27814 50.7363 6.70469Z" fill="url(#paint0_linear_10028_37138)"/>
<path d="M50.2211 10.8269C50.2115 10.81 50.2046 10.7931 50.197 10.7777C50.197 10.7706 50.1901 10.765 50.1873 10.758C50.1722 10.7652 50.1568 10.7715 50.141 10.777C50.1106 10.7889 50.0796 10.8001 50.0478 10.8093C50.016 10.8184 50.0029 10.8233 49.9788 10.829C49.9587 10.836 49.9382 10.8414 49.9173 10.8451L49.9228 10.8578C49.9484 10.8521 49.9732 10.8472 49.9988 10.8402L50.0057 10.9273C50.0347 10.9273 50.0616 10.9231 50.0879 10.9231C50.1003 10.9224 50.1127 10.9224 50.1251 10.9231C50.179 10.9231 50.226 10.9231 50.2632 10.9231C50.2487 10.8915 50.2336 10.8585 50.2211 10.8269ZM64.2388 33.5339C63.9142 33.0891 63.2665 28.3148 63.2665 28.3148C63.2665 28.3148 61.9925 24.92 62.3398 23.5651C62.6872 22.2103 61.3911 18.7437 61.3911 18.7437C61.3911 18.7437 60.5348 18.365 60.4885 17.8028C60.4885 17.8028 56.9924 16.6784 56.8288 15.8352C56.6962 15.1437 54.5279 14.6476 53.749 14.4908C53.5115 13.5155 53.2726 12.6054 53.0965 12.1086C53.0488 11.954 53.0039 11.8205 52.9625 11.7151C52.6649 10.9421 51.7451 10.8718 51.0781 10.9337C51.0492 10.8019 50.9955 10.6771 50.9199 10.5661C50.9089 10.528 50.8871 10.494 50.8571 10.4685C50.8428 10.456 50.8275 10.4448 50.8115 10.4347C50.7995 10.412 50.7836 10.3915 50.7646 10.3743C50.7456 10.3569 50.7248 10.3418 50.7024 10.3293C50.6864 10.3205 50.6698 10.3127 50.6527 10.3061C50.6127 10.2906 50.5713 10.2791 50.5291 10.2717C50.4799 10.2614 50.4301 10.2548 50.3799 10.252C50.5018 10.1978 50.6105 10.1169 50.6983 10.0152C50.758 9.94379 50.8024 9.86051 50.8288 9.77066C50.8507 9.69593 50.8605 9.61809 50.8578 9.54016C50.8399 9.57228 50.8191 9.60262 50.7956 9.63082C50.8246 9.31951 50.6631 9.00328 50.5705 8.69338C50.4584 8.28994 50.4376 7.86587 50.5098 7.45308C50.6023 6.83047 50.8316 6.20083 50.9869 5.56697C50.9873 5.56347 50.9873 5.55993 50.9869 5.55643C51.0684 5.24164 51.1188 4.91937 51.1375 4.5944C51.1644 3.93876 50.9993 3.28453 50.7342 2.68721C50.4987 2.15806 50.1514 1.63735 49.6197 1.42231C49.2247 1.25998 48.7821 1.28598 48.3567 1.25928C47.4024 1.19885 46.4923 0.857323 45.5849 0.546719C44.6776 0.236116 43.744 -0.0463786 42.789 0.007731C41.834 0.0618407 40.8514 0.530556 40.4157 1.39069C40.2776 1.65913 40.1982 1.95779 40.0331 2.21006C39.7238 2.68581 39.17 2.92403 38.708 3.2522C38.246 3.58037 37.8393 4.04628 37.6722 4.60213C37.581 4.90161 37.5681 5.22013 37.6349 5.52621C37.65 5.59534 37.6693 5.6634 37.6929 5.73C37.7585 5.91568 37.8607 6.08572 37.9933 6.22964C38.0933 6.336 38.2083 6.4267 38.3344 6.49878C38.4928 6.58814 38.6624 6.65528 38.8385 6.69835C38.8323 6.71944 38.8261 6.74192 38.8192 6.76371C38.8081 6.79955 38.7985 6.83398 38.7881 6.87263C38.7653 6.95906 38.7439 7.0469 38.726 7.13545C38.7252 7.14175 38.7252 7.14812 38.726 7.15442C38.6411 7.55413 38.5985 7.96191 38.5989 8.37083C38.5988 8.56423 38.6084 8.7575 38.6279 8.94988C38.9041 11.8015 41.2174 14.0509 44.0755 14.1971C44.1735 14.202 44.2723 14.2048 44.3724 14.2048C44.418 14.2048 44.4628 14.2048 44.5105 14.2048C44.5554 14.2653 44.5996 14.3271 44.6417 14.3875C44.6838 14.448 44.7225 14.5098 44.7591 14.5703L44.6589 14.4648L44.5588 14.3714C44.5317 14.4093 44.5014 14.4448 44.4684 14.4775C44.4031 14.4541 44.3364 14.4349 44.2688 14.4199C43.9822 14.3552 43.5458 14.3313 42.9713 14.5077C42.4431 14.6686 41.7974 14.9996 41.042 15.6286L37.3608 17.8773L35.3693 19.1098L34.6519 20.8948C34.6519 20.8948 34.1126 23.0156 33.5125 25.4456C33.489 25.4526 33.4662 25.4596 33.4434 25.4681C33.3948 25.4624 33.346 25.4596 33.297 25.4596C32.9489 25.4588 32.614 25.5953 32.3626 25.8405C32.1113 26.0857 31.9631 26.4204 31.9491 26.7744C30.7559 28.2502 30.6882 29.7259 30.9686 30.4033C30.994 30.4668 31.0259 30.5273 31.0639 30.5839C31.2476 30.8537 31.5908 31.5494 31.9388 32.2908C31.9298 32.352 31.9243 32.4033 31.9215 32.4419C31.9209 32.4545 31.9209 32.4672 31.9215 32.4798C31.9215 32.4798 32.1287 35.6639 31.4382 36.5767C31.2869 36.7756 31.3097 37.037 31.4382 37.3265C31.9008 38.368 33.73 39.7586 33.73 39.7586C33.73 39.7586 35.9238 39.7467 37.146 39.6111C37.1426 39.7362 37.1398 39.8605 37.1371 39.9821C37.1094 41.2105 37.1094 42.24 37.1094 42.24L37.0639 43.5281C37.0639 43.5281 36.6495 46.2427 36.4424 46.9911C36.3119 47.4605 36.4624 51.8068 36.5936 55.0021H58.2084C58.4625 53.1118 58.1042 47.3684 58.1042 47.3684C58.1042 47.3684 57.7637 45.8836 57.7513 44.5892C57.7506 44.5877 57.7503 44.5862 57.7503 44.5846C57.7503 44.583 57.7506 44.5815 57.7513 44.58C57.7513 44.4669 57.7513 44.3566 57.7554 44.2483L57.9122 44.2427L58.1939 44.2329H58.2195C58.2195 44.2329 58.2264 44.2062 58.2423 44.1626C58.2795 44.0541 58.3304 43.9509 58.3935 43.8555C58.5136 43.6749 58.7015 43.4978 58.9839 43.4859C59.1399 43.4796 59.3816 43.351 59.6544 43.1612C59.6562 43.1617 59.6581 43.1617 59.6599 43.1612C60.3939 42.656 61.3641 41.7235 61.5996 41.5703C61.9235 41.3594 63.4744 39.954 63.4744 39.954C63.4744 39.954 63.7057 39.6561 63.9522 39.297L63.9612 39.2843C64.2678 38.8346 64.5937 38.297 64.5136 38.1276C64.3755 37.8241 64.6061 37.0981 64.6061 37.0981C65.3264 35.7566 64.5633 33.9788 64.2388 33.5339ZM50.8861 11.9196C50.8927 11.9406 50.8969 11.9623 50.8985 11.9842C50.8813 11.961 50.864 11.9365 50.8467 11.914L50.8302 11.8915L50.8184 11.8746L50.8447 11.8381C50.8447 11.8381 50.8447 11.8381 50.8447 11.843C50.8629 11.8658 50.8769 11.8917 50.8861 11.9196ZM50.6541 11.297C50.5788 11.3124 50.5194 11.3265 50.4808 11.337C50.4317 11.2485 50.3848 11.1599 50.3427 11.07C50.4534 11.1354 50.5576 11.2114 50.6541 11.297ZM50.5243 11.408C50.5241 11.4066 50.5241 11.4052 50.5243 11.4038L50.5298 11.408C50.5581 11.427 50.5857 11.4452 50.6113 11.4642C50.6341 11.4811 50.6548 11.4972 50.6755 11.5141C50.6617 11.5387 50.6465 11.564 50.6313 11.5844C50.6071 11.5457 50.5843 11.5085 50.5622 11.4698C50.5484 11.4544 50.536 11.4333 50.5243 11.408ZM50.11 10.5408C50.2434 10.5274 50.3777 10.5274 50.5112 10.5408C50.5298 10.5408 50.5464 10.5444 50.5629 10.5472C50.6004 10.5531 50.6372 10.5627 50.6727 10.576C50.7543 10.6922 50.8046 10.8281 50.8184 10.9702L50.7811 10.9758L50.7445 10.9829C50.6755 10.9948 50.6064 11.0067 50.5526 11.018L50.4835 11.0327C50.3917 11.0531 50.3385 11.0686 50.3364 11.0693C50.3275 11.0503 50.3185 11.0327 50.3088 11.0145C50.2936 10.9843 50.2777 10.9533 50.2639 10.9231C50.2501 10.8929 50.2322 10.8585 50.2177 10.8269C50.208 10.81 50.2011 10.7931 50.1935 10.7777C50.1935 10.7706 50.1866 10.765 50.1838 10.758C50.1798 10.7505 50.1764 10.7428 50.1735 10.7348C50.1314 10.6477 50.0927 10.5605 50.0554 10.4748C50.0513 10.4664 50.0478 10.4572 50.0444 10.4488L50.0968 10.4453V10.4635L50.11 10.5408ZM33.6347 54.1335C33.6292 53.0872 33.5546 51.9551 33.3475 50.8926C33.2591 50.4407 33.1679 49.9889 33.0754 49.5448C33.0519 49.4337 33.0291 49.3241 33.0063 49.2145L32.7937 49.2433H32.7743C32.1943 46.4598 31.588 44.0073 31.588 44.0073C31.588 44.0073 30.3837 39.3279 30.5232 38.9547C30.5412 38.9062 30.5184 38.7755 30.4673 38.5837C30.1759 37.5198 28.9592 34.588 28.5338 33.5859C28.5338 33.5817 28.5304 33.5768 28.529 33.5733C28.4599 33.4053 28.4102 33.2922 28.395 33.2592L28.4951 31.7638L28.5007 31.6738L28.5138 31.4827L28.5083 31.4778L28.5138 31.3892C28.5138 31.3892 27.4628 30.5122 25.6826 29.8791C25.6136 29.8538 25.5404 29.8292 25.4679 29.8053C25.557 29.2002 25.675 28.5172 25.829 27.8517C25.8435 27.785 25.8594 27.7203 25.876 27.655C25.8905 27.5896 25.907 27.5264 25.9236 27.4624C25.9499 27.3584 25.9782 27.2558 26.0072 27.1546C26.1032 27.1237 26.1978 27.0893 26.291 27.0527L26.3269 27.0387C27.4753 26.5839 28.4229 25.7211 28.9942 24.61C29.5655 23.4988 29.7218 22.2147 29.4342 20.9952C29.2703 20.3037 28.9675 19.6541 28.5449 19.0874C28.5131 19.0438 28.4793 19.0002 28.4454 18.9574C28.4116 18.9145 28.3708 18.8667 28.3329 18.8231C28.5324 18.3614 28.7679 17.9222 28.7872 17.4732C28.7907 17.4163 28.7907 17.3593 28.7872 17.3024V17.2954C28.7617 17.0066 28.636 16.7143 28.3432 16.4072C27.9158 15.9567 27.3074 15.7283 26.6991 15.6187C26.0907 15.5091 25.4706 15.5063 24.8588 15.4325C23.8444 15.3088 22.8563 14.9905 21.8419 14.8928C20.5925 14.7751 19.3345 14.9931 18.1939 15.5253C17.4391 15.8766 16.6747 16.4908 16.6292 17.3334C16.5919 18.0298 17.0683 18.6973 16.9482 19.3853C16.8287 20.0613 16.152 20.5933 16.2114 21.277C16.2342 21.5441 16.3688 21.783 16.5373 21.9959C16.5953 22.0662 16.6568 22.1365 16.7203 22.2067C16.9661 22.4717 17.2368 22.7261 17.3742 23.0598C17.3798 23.0739 17.3853 23.088 17.3901 23.102C17.5068 23.4316 17.4543 23.8483 17.1657 24.0373C17.1673 24.0386 17.1685 24.0403 17.1691 24.0423C17.1733 24.0479 17.1774 24.0521 17.1809 24.0577C17.1813 24.0566 17.1813 24.0553 17.1809 24.0542C17.2832 24.1777 17.4212 24.2652 17.5752 24.3044L17.6339 24.3226C17.5862 24.3753 17.5413 24.4302 17.4958 24.4878L17.4661 24.5278C17.39 24.632 17.3208 24.7411 17.2589 24.8546C17.2237 24.9178 17.1899 24.9811 17.1615 25.0443C17.0669 25.2371 16.9984 25.4421 16.9578 25.6536C16.884 26.1188 16.9882 26.6037 16.8764 27.059C16.7383 27.6212 16.3012 28.0527 16.0546 28.5748C15.5878 29.5586 15.8523 30.7132 15.9462 31.7996C16.074 33.2753 15.8668 34.7574 15.6603 36.2233C15.5508 37.0028 15.4412 37.7831 15.3317 38.564C15.0554 40.5241 14.7792 42.4843 14.503 44.4444C14.4022 45.1626 14.2827 45.9201 13.8125 46.4746H13.8173C13.8173 46.4746 13.8173 46.4788 13.8125 46.4802C13.9537 46.543 14.1038 46.5824 14.2572 46.5968C14.8711 46.6594 15.5215 46.3572 16.074 46.0269C16.5114 45.7697 16.9258 45.4736 17.3121 45.1422C17.2555 45.353 17.1947 45.5828 17.1298 45.8302C17.13 45.8325 17.13 45.8349 17.1298 45.8372C16.3502 48.8589 15.0962 54.3985 15.0962 54.3985C15.0962 54.3985 14.9822 54.6395 14.8345 54.9986H34.3073C34.0794 54.7175 33.8674 54.4484 33.7017 54.2312L33.6347 54.1335ZM19.2165 26.1933C19.2214 26.1849 19.2248 26.1771 19.2297 26.1694C19.2297 26.1919 19.2297 26.2137 19.2297 26.2347C19.2297 26.2558 19.2297 26.2748 19.2297 26.2945C19.2297 26.3142 19.2297 26.312 19.2297 26.3219C19.2297 26.3507 19.2235 26.3795 19.2186 26.4083C19.2186 26.4083 19.2186 26.4118 19.2186 26.4146L19.2877 26.4406L19.3678 26.4744C19.841 26.6646 20.3202 26.8367 20.8054 26.9909C20.8552 27.007 20.9056 27.0225 20.956 27.0373L20.9663 27.1244C20.9788 27.2136 20.9905 27.3043 21.0016 27.3949C21.0016 27.3949 21.0016 27.3992 21.0016 27.402C21.0326 27.6528 21.063 27.903 21.0899 28.1476C21.0899 28.1476 19.8221 27.6557 19.838 28.4026C19.8373 28.416 19.8373 28.4294 19.838 28.4427C19.8366 28.4605 19.8366 28.4783 19.838 28.4961C19.8498 29.078 20.0286 29.423 20.0645 29.6001C20.0624 29.6074 20.0586 29.6142 20.0535 29.6198C20.0228 29.6876 20.0123 29.7631 20.0231 29.8369C20.0219 29.9626 20.0316 30.0882 20.0521 30.2122C20.0148 30.2353 19.9782 30.2585 19.9416 30.2824C19.914 30.3 19.8877 30.3197 19.8608 30.3394C19.6914 29.7414 19.4698 29.16 19.1986 28.6022C19.0087 28.2045 18.7953 27.7899 18.7974 27.3535C18.7974 27.3254 18.7974 27.2966 18.8009 27.2678C18.8086 27.1413 18.8322 27.0163 18.8713 26.896C18.8872 26.8503 18.9044 26.8054 18.9238 26.7611C18.9689 26.6559 19.0194 26.5532 19.075 26.4533C19.1109 26.3872 19.1489 26.3219 19.1855 26.2558C19.1972 26.2362 19.2083 26.2158 19.2193 26.1961L19.2165 26.1933ZM50.2211 10.8269C50.2115 10.81 50.2046 10.7931 50.197 10.7777C50.197 10.7706 50.1901 10.765 50.1873 10.758C50.1722 10.7652 50.1568 10.7715 50.141 10.777C50.1106 10.7889 50.0796 10.8001 50.0478 10.8093C50.016 10.8184 50.0029 10.8233 49.9788 10.829L49.9173 10.8451L49.9228 10.8578C49.9484 10.8521 49.9732 10.8472 49.9988 10.8402L50.0057 10.9273C50.0347 10.9273 50.0616 10.9231 50.0879 10.9231H50.1251C50.179 10.9231 50.226 10.9231 50.2632 10.9231C50.2487 10.8915 50.2336 10.8585 50.2211 10.8269Z" fill="url(#paint1_linear_10028_37138)"/>
<path d="M35.1345 21.1484L34.7202 21.3347C34.7202 21.3347 32.0195 32.0118 32.0195 32.8748C32.0195 33.7377 37.7461 38.5394 37.7461 38.5394L38.6396 32.4018C38.6396 32.4018 37.3566 18.327 35.1345 21.1484Z" fill="#E8F5FF"/>
<path d="M47.6956 17.7522L45.303 16.4816C45.1689 15.9002 44.9311 15.3488 44.6014 14.8548C44.2513 14.3404 43.7859 13.8352 43.2058 13.5717C41.7399 12.9027 49.4068 9.39117 49.4068 9.39117C49.5275 9.81301 49.6697 10.2282 49.8328 10.635C50.2278 11.6272 50.8831 12.9104 51.7276 13.2758C53.1632 13.8977 47.6956 17.7522 47.6956 17.7522Z" fill="#FFC1C7"/>
<path opacity="0.1" d="M49.8328 10.635C49.5052 11.8075 48.824 12.8456 47.8853 13.6028C46.9466 14.36 45.7979 14.7979 44.6014 14.8548C44.2513 14.3404 43.7859 13.8352 43.2058 13.5717C41.7399 12.9027 49.4068 9.39117 49.4068 9.39117C49.5275 9.813 49.6697 10.2282 49.8328 10.635Z" fill="black"/>
<path d="M50.0485 8.86203C50.0487 10.0119 49.7139 11.1361 49.0863 12.0924C48.4587 13.0486 47.5666 13.794 46.5227 14.2342C45.4788 14.6744 44.3301 14.7897 43.2219 14.5655C42.1136 14.3413 41.0956 13.7876 40.2965 12.9745C39.4975 12.1615 38.9533 11.1255 38.7328 9.9977C38.5124 8.86988 38.6255 7.70086 39.058 6.63849C39.4904 5.57612 40.2227 4.66812 41.1623 4.02933C42.1019 3.39055 43.2065 3.04967 44.3365 3.04981C45.0875 3.04627 45.8318 3.19419 46.5263 3.48502C47.2208 3.77585 47.8519 4.20383 48.383 4.74424C48.9141 5.28465 49.3347 5.92679 49.6206 6.63356C49.9064 7.34033 50.0519 8.09773 50.0485 8.86203Z" fill="#FFC1C7"/>
<path d="M50.8734 17.0059L49.3155 20.705L47.9414 23.1603H43.5428L42.2598 19.8034L42.7797 16.3222H46.1391L48.3081 16.1978L49.0407 15.949L49.513 16.2217L50.8734 17.0059Z" fill="#575A89"/>
<path opacity="0.1" d="M50.3367 12.0749C50.3367 12.0749 51.3082 12.2857 50.4382 13.0116C49.5681 13.7375 46.5664 16.046 46.5664 16.046C46.5664 16.046 47.6208 17.0017 47.4026 18.1211L50.896 16.1394L51.5175 12.9688C51.5175 12.9688 51.5872 12.0159 50.3367 12.0749Z" fill="black"/>
<path opacity="0.1" d="M47.2527 16.046L45.0306 16.4191C45.0306 16.4191 45.4891 18.1443 45.2599 18.6341C45.2529 18.6493 45.2472 18.6651 45.2426 18.6812L44.3359 21.1751L45.0154 23.1336L47.3673 19.8695L46.5656 18.6341C46.5656 18.6341 47.4129 17.4915 47.917 17.0951C48.4211 16.6988 47.2527 16.046 47.2527 16.046Z" fill="black"/>
<path d="M47.2527 15.9497L45.0306 16.3221C45.0306 16.3221 45.4891 18.0473 45.2599 18.5371C45.2529 18.5524 45.2472 18.5681 45.2426 18.5842L44.3359 21.0782L45.0154 23.0367L47.3673 19.7704L46.5656 18.535C46.5656 18.535 47.4129 17.3924 47.917 16.9961C48.4211 16.5997 47.2527 15.9497 47.2527 15.9497Z" fill="#DCE6F2"/>
<path d="M50.4299 11.8887C50.4299 11.8887 51.4015 12.0995 50.5307 12.8254C49.66 13.5513 46.5664 16.046 46.5664 16.046C46.5664 16.046 47.712 16.8154 47.4945 17.9342L50.9878 15.9532L51.6093 12.7825C51.6093 12.7825 51.6784 11.8296 50.4299 11.8887Z" fill="#575A89"/>
<path opacity="0.1" d="M44.7534 15.0748C44.7534 15.0748 44.9654 15.4782 45.901 16.2055C45.901 16.2055 44.3432 17.0487 44.9391 18.2342L42.5561 17.6018L42.1895 16.436L44.7534 15.0748Z" fill="black"/>
<path d="M44.6609 14.9821C44.6609 14.9821 44.8729 15.3854 45.8085 16.1127C45.8085 16.1127 44.2507 16.9518 44.8466 18.1408L42.4643 17.5083L42.0977 16.3432L44.6609 14.9821Z" fill="#575A89"/>
<path opacity="0.1" d="M50.8734 17.0059L49.3155 20.705L47.9442 23.1603H43.5428L42.2598 19.8034L42.779 16.3221H43.7133C43.6981 17.1345 43.9895 18.0888 43.9709 18.4437C43.9391 19.0269 44.8258 22.1737 44.8258 22.1737C44.8258 22.1737 46.6812 19.1197 47.4138 18.8477C47.8744 18.677 48.8501 17.2561 49.5124 16.2216L50.8734 17.0059Z" fill="black"/>
<path d="M57.0092 36.472L56.8511 36.6744C56.8511 36.6744 57.9967 42.526 57.6797 43.8548C57.6259 44.0943 57.5951 44.3386 57.5879 44.5842V44.5948C57.532 45.9468 57.9332 47.7015 57.9332 47.7015C57.9332 47.7015 58.2536 52.8736 58.0713 55.0007H36.6222C36.4965 51.8553 36.3612 47.7802 36.4841 47.3284C36.6912 46.5828 37.1055 43.878 37.1055 43.878L37.1511 42.5962C37.1511 42.5962 37.1511 41.3573 37.1884 39.9772C37.2043 39.3567 37.2278 38.7053 37.2616 38.1276C37.3051 37.401 37.3659 36.7889 37.4494 36.4882C37.5009 36.2602 37.5305 36.0277 37.5378 35.7939C37.5378 35.7721 37.5378 35.7496 37.542 35.7271C37.542 35.6569 37.5489 35.581 37.5516 35.503C37.5516 35.4812 37.5516 35.4594 37.5516 35.4327C37.5647 34.9801 37.5599 34.4433 37.5454 33.8867C37.5454 33.8565 37.5454 33.8256 37.5454 33.7946C37.5337 33.3772 37.5164 32.9514 37.4971 32.5466C37.437 31.2817 37.359 30.2122 37.359 30.2122L34.7246 21.3297L35.4345 19.5504L37.4045 18.3221L41.0471 16.0839C42.8238 14.5977 43.9935 14.7761 44.4396 14.9392C44.4829 14.9542 44.5253 14.9718 44.5667 14.9919C44.5805 14.9989 44.5915 15.0045 44.6019 15.0109C44.6161 15.0177 44.6297 15.0257 44.6426 15.0348C44.5205 15.0946 44.4143 15.1835 44.3333 15.2941C44.2419 15.4199 44.1768 15.5633 44.142 15.7157C44.1187 15.8101 44.1023 15.9062 44.093 16.0031C44.084 16.105 44.0805 16.2104 44.0805 16.3165C44.0855 16.5492 44.1051 16.7814 44.1392 17.0115C44.1392 17.0157 44.1392 17.0213 44.1392 17.027C44.162 17.1914 44.1903 17.3523 44.2179 17.5034C44.2176 17.506 44.2176 17.5086 44.2179 17.5111C44.2497 17.6875 44.2815 17.8506 44.3029 17.9911C44.307 18.0164 44.3105 18.0396 44.3139 18.0614C44.3292 18.1543 44.3363 18.2483 44.3353 18.3425C44.3431 18.5698 44.3732 18.7958 44.4251 19.0171C44.4431 19.1098 44.4638 19.2089 44.4866 19.3122C44.5176 19.4528 44.5515 19.606 44.5881 19.762C44.6081 19.8477 44.6295 19.9362 44.6516 20.0241C44.6599 20.0592 44.6689 20.0944 44.6771 20.1302L44.691 20.1857C44.838 20.7809 44.9976 21.3733 45.0956 21.7317C45.1536 21.9425 45.1902 22.0725 45.1902 22.0725C45.1902 22.0725 46.2301 20.3614 47.0601 19.3874C47.0726 19.3734 47.0836 19.36 47.0954 19.3474C47.1775 19.2511 47.2583 19.1632 47.3357 19.0859C47.5048 18.9145 47.6568 18.7922 47.779 18.7472C47.805 18.7375 47.8302 18.7255 47.8543 18.7114C48.194 18.5153 48.7423 17.8035 49.2553 17.0579C49.3057 16.9876 49.3548 16.911 49.4045 16.8386C49.5184 16.6714 49.6289 16.5034 49.7332 16.3425C49.8133 16.2195 49.8899 16.1001 49.9624 15.9862C50.3077 15.4395 50.5508 15.0319 50.5508 15.0319L51.03 15.0102L51.1135 15.0059H51.1695L53.3453 14.9033C53.3453 14.9033 53.4392 14.9195 53.5939 14.9511C53.6022 14.9511 53.6105 14.9511 53.6194 14.9567C54.3915 15.1128 56.5362 15.6068 56.6674 16.2919C56.8276 17.131 60.2872 18.2504 60.2872 18.2504C60.3327 18.8126 61.18 19.1829 61.18 19.1829C61.18 19.1829 62.463 22.6333 62.1198 23.9853C61.7808 25.3205 63.0023 28.6233 63.0348 28.7161L62.8007 29.0168L57.0092 36.472Z" fill="#E8F5FF"/>
<path opacity="0.1" d="M50.3355 11.8296C50.3355 11.8296 52.4534 11.2183 52.9347 12.4768C53.416 13.7354 54.4925 18.8182 54.4925 18.8182C54.4925 18.8182 51.6972 19.3544 50.9646 18.8182C50.5348 18.5 50.003 18.3585 49.4751 18.4219L47.8945 19.5174L47.4277 19.3769C47.4277 19.3769 49.9564 15.5513 50.5061 14.2512C51.0558 12.9512 51.2415 12.37 50.3355 11.8296Z" fill="black"/>
<path d="M50.2429 11.5485C50.2429 11.5485 52.3622 10.9372 52.8455 12.1958C53.3289 13.4543 54.4033 18.5371 54.4033 18.5371C54.4033 18.5371 51.6088 19.0733 50.8754 18.5371C50.446 18.2189 49.9143 18.0773 49.3867 18.1408L47.8047 19.2363L47.3379 19.0958C47.3379 19.0958 49.8666 15.2702 50.4163 13.9701C50.9659 12.6701 51.1489 12.0903 50.2429 11.5485Z" fill="#E8F5FF"/>
<path opacity="0.1" d="M36.0267 31.8256C36.0267 31.8256 37.6073 32.222 37.9056 33.1313C38.2039 34.0406 36.7372 34.0638 36.7372 34.0638C36.7372 34.0638 35.8437 32.4553 36.0267 31.8256Z" fill="black"/>
<path opacity="0.1" d="M41.9142 38.5394C41.9142 38.5394 38.0431 46.606 38.9366 47.3755C39.8302 48.1449 41.9142 38.5394 41.9142 38.5394Z" fill="black"/>
<path opacity="0.1" d="M47.252 32.5951C47.252 32.5951 50.3448 40.4304 49.7261 41.6405C49.1074 42.8506 51.0547 41.6405 51.0547 41.6405L47.252 32.5951Z" fill="black"/>
<path d="M51.5596 40.3349C51.5596 40.3349 41.1134 40.8479 44.1607 44.1584C47.2079 47.4689 53.4613 44.299 53.4613 44.299L51.5596 40.3349Z" fill="#FFC1C7"/>
<path opacity="0.1" d="M50.0486 8.86203C50.0496 9.6245 49.9024 10.3796 49.6156 11.084C49.5197 11.0953 49.4237 11.1023 49.3312 11.1065C49.193 10.798 49.2669 10.4418 49.2697 10.1023C49.2725 9.76292 49.1495 9.36378 48.8284 9.27242C48.1883 9.08901 47.7464 10.3068 47.1153 10.0869C46.6319 9.91963 46.7583 9.17334 46.48 8.74257C46.2597 8.40175 45.8184 8.30548 45.4753 8.09185C44.7454 7.63578 44.7675 6.90636 44.4284 6.21628C44.0735 5.49318 43.3236 5.70681 42.6724 6.13336C42.178 6.45802 41.7513 6.893 41.2223 7.15161C40.7645 7.37648 40.2501 7.45799 39.7425 7.46994C39.4301 7.48226 39.1175 7.44865 38.8145 7.37015C39.1709 6.00644 40.0026 4.82122 41.1544 4.0355C42.3062 3.24979 43.6995 2.91722 45.0745 3.09983C46.4494 3.28244 47.7122 3.96775 48.6273 5.02796C49.5424 6.08817 50.0473 7.4509 50.0479 8.86203H50.0486Z" fill="black"/>
<path d="M42.6742 5.94715C42.1791 6.27181 41.753 6.70609 41.2241 6.9661C40.7663 7.19027 40.2518 7.27178 39.7443 7.28373C39.1228 7.29778 38.4537 7.18675 38.029 6.72998C37.6389 6.30835 37.5457 5.65974 37.7107 5.1067C37.8757 4.55365 38.2714 4.09477 38.7361 3.76239C39.2008 3.43 39.7401 3.20021 40.0481 2.72447C40.2111 2.47289 40.2898 2.17634 40.4251 1.9086C40.8581 1.05199 41.8317 0.588188 42.7729 0.530565C43.7141 0.472942 44.647 0.758247 45.5433 1.06745C46.4396 1.37664 47.3428 1.71676 48.2888 1.78071C48.7101 1.80741 49.1479 1.78071 49.5387 1.94304C50.0642 2.16018 50.4088 2.67949 50.6435 3.20794C50.9066 3.80385 51.0703 4.45457 51.0427 5.10529C50.9847 6.49457 50.0828 7.85785 50.4792 9.18881C50.5841 9.54369 50.781 9.9077 50.676 10.2626C50.5227 10.7805 49.866 10.8985 49.335 10.9231C49.1969 10.6146 49.2708 10.2577 49.2735 9.91894C49.2763 9.58023 49.1534 9.18038 48.833 9.08903C48.1922 8.90702 47.7502 10.1227 47.1205 9.90348C46.6406 9.73553 46.7649 8.98994 46.4859 8.55917C46.2656 8.21765 45.8237 8.12208 45.4812 7.90845C44.7513 7.45238 44.7734 6.72296 44.4343 6.03288C44.0766 5.30627 43.326 5.5199 42.6742 5.94715Z" fill="#99607E"/>
<path d="M32.5444 32.6878L32.0175 32.8748C32.0175 32.8748 32.2247 36.0454 31.5342 36.9548C30.8436 37.8641 33.8019 40.1248 33.8019 40.1248C33.8019 40.1248 37.8566 40.1016 37.9712 39.7734C38.0859 39.4452 37.7641 33.8986 37.7641 33.8986C37.7641 33.8986 35.5876 33.0357 35.7705 31.6605C35.7705 31.6605 35.1063 34.9007 34.1216 34.7609C33.1369 34.621 32.0189 33.7841 32.5444 32.6878Z" fill="#E8F5FF"/>
<path opacity="0.1" d="M34.3021 35.7419C35.0698 35.7419 35.6922 35.1627 35.6922 34.4482C35.6922 33.7337 35.0698 33.1544 34.3021 33.1544C33.5344 33.1544 32.9121 33.7337 32.9121 34.4482C32.9121 35.1627 33.5344 35.7419 34.3021 35.7419Z" fill="black"/>
<path d="M35.8209 32.7813C35.8209 32.7813 35.5447 24.2025 33.1403 26.1139C30.7359 28.0253 30.7124 30.3112 31.1703 30.9866C31.6281 31.6619 33.0961 35.0427 33.0961 35.0427C33.3258 35.1781 33.5837 35.2563 33.8487 35.2707C34.1137 35.2851 34.3784 35.2355 34.6209 35.1258C34.8634 35.0161 35.077 34.8495 35.244 34.6396C35.4111 34.4297 35.5269 34.1825 35.582 33.9183L35.8209 32.7813Z" fill="#FFC1C7"/>
<path opacity="0.1" d="M50.8197 11.051C50.8085 11.0133 50.7869 10.9797 50.7575 10.954C50.6388 10.8437 50.3833 10.8051 49.998 10.8388L50.0139 11.0243C50.5276 10.9793 50.6291 11.0833 50.6422 11.1009V11.1185L50.6581 11.1417C50.7222 11.2293 50.7675 11.3295 50.7913 11.436C50.8151 11.5425 50.8168 11.6529 50.7962 11.7601C50.6837 12.3328 49.9924 12.7889 49.9855 12.7938L49.969 12.8036L49.9586 12.8198C49.6603 13.2702 47.9733 14.5414 47.5321 14.8703L47.4934 14.8253C47.2959 14.9996 45.56 16.5463 45.4661 17.1387C45.4053 17.5104 44.9937 17.6545 44.8446 17.6946C44.6871 17.573 44.1762 17.1591 43.9103 16.6953C43.661 16.2589 44.6644 15.4072 44.7527 15.0748L44.6146 14.9307C44.6001 14.9842 43.3116 16.2097 43.67 16.8358C43.9573 17.3383 44.4821 17.7683 44.6657 17.9103C44.607 18.4528 44.2418 21.6382 43.6804 22.393C42.9829 23.3311 42.3967 28.059 42.4616 29.7097C42.5189 31.1763 42.1426 33.9464 40.8858 35.1361C40.6682 35.3511 40.4057 35.5134 40.1179 35.6107C39.8301 35.708 39.5245 35.738 39.2237 35.6983H39.2085H39.1933C39.1754 35.6983 37.3524 35.888 35.8208 34.574C34.5675 33.5009 33.8576 31.7497 33.7099 29.3675H33.6795L33.6671 28.6739C34.0069 28.6199 34.3129 28.434 34.5208 28.1552C34.7288 27.8764 34.8225 27.5265 34.7822 27.1789C34.7419 26.8313 34.5708 26.5131 34.3048 26.2912C34.0389 26.0693 33.6987 25.961 33.3559 25.9889C33.0131 26.0169 32.6942 26.179 32.4664 26.4412C32.2385 26.7033 32.1194 27.0452 32.134 27.3949C32.1486 27.7446 32.2959 28.0749 32.5448 28.3164C32.7937 28.5579 33.1249 28.6919 33.4689 28.6901H33.4841L33.4965 29.3794L33.4357 29.3836C33.5876 31.8432 34.3334 33.6625 35.6454 34.7862C36.6426 35.6271 37.9164 36.0513 39.2092 35.9731C39.3009 35.9833 39.3931 35.9884 39.4854 35.9885C40.078 35.9916 40.6482 35.7583 41.0736 35.3385C42.3974 34.0842 42.7999 31.2121 42.7371 29.6957C42.668 27.9466 43.2833 23.3887 43.9006 22.5588C44.5055 21.7443 44.8722 18.5709 44.9364 17.956C45.1553 17.8934 45.6504 17.696 45.7347 17.183C45.7954 16.8119 46.9548 15.6686 47.6681 15.0355L47.6467 15.0102C48.0307 14.7249 49.2246 13.8254 49.8164 13.2477C50 13.0685 50.1823 12.8893 50.3729 12.7186C50.6022 12.512 50.8936 12.1838 50.9702 11.7959C50.9964 11.6679 50.9965 11.5357 50.9706 11.4076C50.9447 11.2795 50.8934 11.1582 50.8197 11.051Z" fill="black"/>
<path d="M44.6436 17.866C44.6146 17.8456 43.9268 17.3446 43.5822 16.7417C43.2246 16.1155 44.5131 14.8907 44.5269 14.8373L44.665 14.9813C44.5773 15.313 43.574 16.1654 43.8232 16.6011C44.1374 17.1513 44.7989 17.6327 44.8059 17.6376L44.6436 17.866Z" fill="#353146"/>
<path d="M47.4437 15.0067L47.3359 14.8556C47.358 14.8394 49.527 13.2428 49.8688 12.7263L49.8798 12.7109L49.8957 12.7003C49.9026 12.6954 50.5938 12.24 50.7064 11.6666C50.7271 11.5596 50.7256 11.4493 50.7018 11.3428C50.678 11.2364 50.6325 11.1363 50.5683 11.0489L50.5524 11.025V11.0082C50.5386 10.9899 50.4371 10.8866 49.9233 10.9316L49.9075 10.7453C50.2935 10.7116 50.5483 10.7503 50.667 10.8606C50.6966 10.8865 50.7184 10.9203 50.7299 10.9583C50.8045 11.0651 50.8569 11.1864 50.8837 11.3146C50.9106 11.4429 50.9113 11.5753 50.8859 11.7039C50.8093 12.0925 50.5186 12.4206 50.2886 12.6265C50.0987 12.7973 49.9157 12.9779 49.7327 13.1557C49.0388 13.8324 47.5196 14.9511 47.4437 15.0067Z" fill="#E8F5FF"/>
<path d="M33.5794 28.4292L33.3965 28.4326L33.4169 29.5645L33.5998 29.5611L33.5794 28.4292Z" fill="#E8F5FF"/>
<path d="M33.3811 28.6008C34.119 28.6008 34.7173 27.992 34.7173 27.2411C34.7173 26.4901 34.119 25.8813 33.3811 25.8813C32.6431 25.8813 32.0449 26.4901 32.0449 27.2411C32.0449 27.992 32.6431 28.6008 33.3811 28.6008Z" fill="#007DCF"/>
<path d="M33.3812 28.3703C33.994 28.3703 34.4908 27.8647 34.4908 27.241C34.4908 26.6173 33.994 26.1118 33.3812 26.1118C32.7683 26.1118 32.2715 26.6173 32.2715 27.241C32.2715 27.8647 32.7683 28.3703 33.3812 28.3703Z" fill="#E8F5FF"/>
<path d="M39.3993 35.8979C39.307 35.898 39.2148 35.8931 39.1231 35.8831C37.8304 35.9606 36.5569 35.5365 35.5593 34.6962C34.2473 33.5719 33.5029 31.7546 33.3496 29.293L33.6258 29.2754C33.7736 31.6577 34.4835 33.4095 35.7374 34.4819C37.269 35.7925 39.0913 35.6062 39.1093 35.6062H39.1245H39.1397C39.4405 35.6457 39.7462 35.6157 40.0341 35.5184C40.322 35.421 40.5846 35.2589 40.8025 35.0441C42.0585 33.8544 42.4349 31.0842 42.3775 29.6176C42.3085 27.9655 42.8947 23.2376 43.5929 22.3002C44.204 21.4787 44.5831 17.7761 44.5872 17.7388L44.5976 17.6334L44.6998 17.6151C44.706 17.6151 45.3026 17.4999 45.3772 17.0459C45.4739 16.4542 47.2071 14.9076 47.4039 14.7326L47.5841 14.9434C46.868 15.5758 45.7086 16.7199 45.6506 17.0916C45.5664 17.606 45.0713 17.8028 44.8531 17.8646C44.784 18.4802 44.4201 21.653 43.8173 22.4674C43.2 23.2974 42.5847 27.8552 42.6537 29.6043C42.7131 31.1208 42.3147 33.9935 40.991 35.2472C40.5647 35.668 39.9932 35.9016 39.3993 35.8979Z" fill="#353146"/>
<g opacity="0.1">
<path d="M50.6367 7.20081C50.75 6.77496 50.8867 6.3463 50.982 5.91483C50.868 6.34841 50.7306 6.77496 50.6367 7.20081Z" fill="black"/>
<path d="M49.481 10.5472C49.3429 10.2387 49.4168 9.88168 49.4196 9.54297C49.4223 9.20426 49.2994 8.80792 48.979 8.71306C48.3382 8.53105 47.8963 9.74746 47.2665 9.52751C46.7832 9.35956 46.9109 8.61397 46.6319 8.1832C46.4117 7.84168 45.9704 7.74611 45.6279 7.53248C44.8973 7.07642 44.9194 6.34699 44.5811 5.65692C44.2254 4.93311 43.4762 5.14674 42.8244 5.57399C42.3293 5.89865 41.9032 6.33364 41.3743 6.59294C40.9165 6.81711 40.402 6.89863 39.8945 6.91057C39.2765 6.92533 38.6039 6.8136 38.1792 6.35683C37.8519 6.00547 37.7338 5.49037 37.8015 5.0076C37.7898 5.04063 37.7794 5.07366 37.769 5.10668C37.6033 5.65973 37.7 6.30974 38.0874 6.72997C38.512 7.18674 39.1846 7.29777 39.8026 7.28372C40.3109 7.27177 40.8246 7.19026 41.2831 6.96609C41.8134 6.70608 42.2395 6.2718 42.7332 5.94714C43.3851 5.51988 44.135 5.30626 44.4899 6.03006C44.8283 6.72013 44.8069 7.44956 45.5368 7.90563C45.882 8.11645 46.3205 8.21483 46.5415 8.55635C46.8177 8.98852 46.6955 9.73271 47.1761 9.90066C47.8051 10.1199 48.2471 8.9042 48.8879 9.0862C49.2083 9.17756 49.3319 9.57811 49.3284 9.91612C49.325 10.2541 49.2532 10.6118 49.3899 10.9203C49.9209 10.8957 50.5776 10.7798 50.7316 10.2597C50.7528 10.1851 50.7626 10.1076 50.7606 10.03C50.5362 10.4242 49.9589 10.5254 49.481 10.5472Z" fill="black"/>
</g>
<path opacity="0.1" d="M61.9609 27.8622L62.7626 28.7252C62.7626 28.7252 63.4041 33.4805 63.7245 33.9253C64.0449 34.3702 64.8017 36.1396 64.0911 37.4685C64.0911 37.4685 63.8619 38.1916 63.9993 38.4944C64.1367 38.7973 62.969 40.3131 62.969 40.3131C62.969 40.3131 61.434 41.7115 61.1129 41.9216C60.7918 42.1317 59.0973 43.8098 58.5248 43.833C57.9524 43.8562 57.7652 44.5793 57.7652 44.5793L54.535 44.696C54.535 44.696 52.7506 44.6011 52.3626 44.8576C52.3626 44.8576 52.5697 42.0832 50.5762 40.2646L53.1187 39.3321C53.1187 39.3321 54.0813 38.9104 54.3789 38.4698C54.5661 38.1997 54.8317 37.996 55.1385 37.8873C55.1385 37.8873 55.8483 37.3743 55.8711 37.0946C55.8939 36.8149 56.7391 36.472 56.7391 36.472L56.2606 32.3154L56.5126 25.4147C56.5126 25.4147 57.3143 19.6327 59.0096 19.9594C60.7048 20.2862 61.9609 27.8622 61.9609 27.8622Z" fill="black"/>
<path d="M62.2362 27.8622L63.0379 28.7252C63.0379 28.7252 63.6794 33.4805 63.9998 33.9253C64.3203 34.3702 65.0771 36.1396 64.3665 37.4685C64.3665 37.4685 64.138 38.1916 64.2754 38.4944C64.4128 38.7973 63.2444 40.3131 63.2444 40.3131C63.2444 40.3131 61.7094 41.7115 61.3883 41.9216C61.0672 42.1317 59.3726 43.8098 58.8002 43.833C58.2278 43.8562 58.0406 44.5793 58.0406 44.5793L54.8103 44.696C54.8103 44.696 53.0246 44.6011 52.638 44.8576C52.638 44.8576 52.8451 42.0832 50.8516 40.2646L53.3941 39.3321C53.3941 39.3321 54.3567 38.9104 54.6543 38.4698C54.8415 38.1997 55.1071 37.996 55.4139 37.8873C55.4139 37.8873 56.1237 37.3743 56.1465 37.0946C56.1693 36.8149 57.0145 36.472 57.0145 36.472L56.536 32.3154L56.788 25.4147C56.788 25.4147 57.5897 19.6327 59.2849 19.9594C60.9802 20.2862 62.2362 27.8622 62.2362 27.8622Z" fill="#E8F5FF"/>
<path opacity="0.1" d="M59.2559 34.8333C59.2559 34.8333 61.6154 34.2008 62.2341 34.9738C62.8528 35.7468 59.2559 34.8333 59.2559 34.8333Z" fill="black"/>
<path opacity="0.1" d="M58.707 35.8937C59.5087 36.465 61.9829 36.4882 61.9829 36.4882L58.707 35.8937Z" fill="black"/>
<path opacity="0.1" d="M59.9219 38.7495C59.9909 38.7727 61.6226 40.545 62.3076 40.0088C62.9926 39.4726 59.9219 38.7495 59.9219 38.7495Z" fill="black"/>
<path opacity="0.1" d="M37.9453 23.8757C37.9453 23.8757 38.4245 27.2333 38.1884 28.6008C37.9522 29.9683 38.814 31.6626 38.814 31.6626L37.9453 23.8757Z" fill="black"/>
<path d="M27.3369 25.2411C26.7844 25.6817 26.3812 26.7245 26.0891 27.8707C25.5795 29.8699 25.4131 32.1882 25.4131 32.1882C25.4131 32.1882 21.0144 31.1622 21.3348 30.6963C21.5364 30.4033 21.2658 28.1953 21.04 26.5945C20.9053 25.6487 20.7852 24.9143 20.7852 24.9143C20.7852 24.9143 28.8491 24.0282 27.3369 25.2411Z" fill="#FFCCD0"/>
<path opacity="0.1" d="M27.3369 25.1476C26.7844 25.589 26.3812 26.6311 26.0891 27.7772C25.2127 28.048 24.2806 28.0725 23.3917 27.8479C22.5028 27.6234 21.6902 27.1582 21.04 26.5018C20.9053 25.5552 20.7852 24.8209 20.7852 24.8209C20.7852 24.8209 28.8491 23.9355 27.3369 25.1476Z" fill="black"/>
<path d="M29.701 22.6361C29.7014 23.8584 29.277 25.0414 28.5027 25.9758C27.7285 26.9102 26.6544 27.5357 25.4705 27.7417C24.2867 27.9476 23.0694 27.7208 22.0341 27.1012C20.9988 26.4816 20.2123 25.5092 19.8137 24.3562C19.4151 23.2032 19.4302 21.9439 19.8563 20.8012C20.2824 19.6584 21.092 18.7059 22.1419 18.1122C23.1917 17.5185 24.4141 17.3219 25.5927 17.5573C26.7713 17.7926 27.83 18.4446 28.5816 19.398C29.3059 20.3163 29.7007 21.4585 29.701 22.6361Z" fill="#FFCCD0"/>
<path opacity="0.1" d="M33.7118 55.0007H32.2617L32.1395 52.3943L32.0117 49.6965C32.0117 49.6965 32.3411 49.6466 32.8659 49.5721L33.0779 49.5433H33.0951C33.2098 50.0908 33.323 50.6529 33.4321 51.2144C33.6137 52.2112 33.7082 53.2224 33.7146 54.2361C33.7146 54.3064 33.7146 54.3767 33.7146 54.4427C33.7187 54.6303 33.7146 54.818 33.7118 55.0007Z" fill="black"/>
<path d="M33.4337 55.0007H15.248C15.3268 54.8187 15.3792 54.7084 15.3792 54.7084C15.3792 54.7084 16.8342 48.2307 17.5737 45.49C17.574 45.4877 17.574 45.4854 17.5737 45.483C17.6661 45.1107 17.7777 44.7436 17.9079 44.3833C17.9164 44.3588 17.9272 44.3352 17.9404 44.313C18.3064 43.7072 18.7649 43.0544 18.1234 42.1219C17.4819 41.1894 17.7091 37.0862 17.7091 37.0862C17.7091 37.0862 18.488 33.5887 19.3125 31.7237C19.4376 31.4348 19.6152 31.1726 19.8359 30.9507C19.9077 30.8793 19.9843 30.813 20.0651 30.7525C20.1266 30.7055 20.1907 30.6621 20.2571 30.6225L20.2702 30.6141C20.6166 30.4143 21.0012 30.2927 21.3979 30.2578C21.6796 30.2278 21.9641 30.2359 22.2438 30.2817C23.5806 30.4813 24.6509 30.8151 25.5017 31.1953C27.8073 32.2261 28.5054 33.6077 28.5192 33.6365L28.5248 33.6485C28.6173 33.8684 29.9707 37.0841 30.4582 38.5844C30.5846 38.9751 30.6537 39.2499 30.626 39.3251C30.4879 39.6975 31.6798 44.3601 31.6798 44.3601C31.6798 44.3601 32.2322 46.6088 32.7846 49.2447C32.8088 49.3543 32.8316 49.4639 32.8537 49.575C32.9524 50.0535 33.0505 50.5412 33.1451 51.0282C33.3284 52.0318 33.4229 53.0502 33.4275 54.071C33.4376 54.3891 33.4397 54.699 33.4337 55.0007Z" fill="#A6C2E8"/>
<path opacity="0.1" d="M21.2885 28.6542C21.2885 28.6542 20.0338 28.1623 20.049 28.9086C20.0642 29.6549 20.3549 30.0119 20.263 30.1208C20.1712 30.2297 20.3086 30.8826 20.3086 30.8826C20.3086 30.8826 22.0038 30.8826 22.7828 31.2396C23.5617 31.5965 26.4329 32.3119 26.7995 32.5298C27.1662 32.7476 28.5259 33.7244 28.5259 33.7244L28.6481 31.8748C28.6481 31.8748 27.2429 30.6935 24.9372 30.0878C22.6315 29.482 21.2885 28.6542 21.2885 28.6542Z" fill="black"/>
<path d="M21.2885 28.5608C21.2885 28.5608 20.0338 28.0689 20.049 28.8151C20.0642 29.5614 20.3549 29.9184 20.263 30.0273C20.1712 30.1363 20.3086 30.7891 20.3086 30.7891C20.3086 30.7891 22.0038 30.7891 22.7828 31.1468C23.5617 31.5045 26.4329 32.2191 26.7995 32.4363C27.1662 32.6534 28.5259 33.6309 28.5259 33.6309L28.6495 31.787C28.6495 31.787 27.2442 30.6057 24.9386 29.9999C22.6329 29.3942 21.2885 28.5608 21.2885 28.5608Z" fill="#A6C2E8"/>
<path opacity="0.1" d="M25.0762 33.0118C25.0762 33.0118 27.4737 35.6533 27.3515 36.3849C27.2292 37.1164 25.0762 33.0118 25.0762 33.0118Z" fill="black"/>
<path opacity="0.1" d="M21.1822 42.5541C21.1822 42.5541 19.4248 44.202 18.9069 44.2954C18.389 44.3889 19.3039 44.6995 19.8992 44.4514C20.4944 44.2034 21.7636 43.5505 21.7636 43.5505L21.1822 42.5541Z" fill="black"/>
<path d="M34.1469 55.0007H30.0486C29.4755 54.4947 28.9334 54.026 28.5881 53.7442C28.0357 53.2931 27.6373 52.629 27.3832 52.0949C27.3259 51.9734 27.2761 51.8595 27.234 51.7562C27.1586 51.5783 27.0922 51.3965 27.0352 51.2116L30.07 49.3775C30.2377 49.5226 30.3953 49.6795 30.5416 49.8469L30.5782 49.8898C30.7467 50.0922 30.8952 50.322 30.9083 50.5103C30.9235 50.7295 31.5229 51.5777 32.1354 52.3922C32.7568 53.2207 33.3935 54.0127 33.4356 54.0661C33.4356 54.0661 33.5406 54.2115 33.7118 54.435C33.8327 54.5966 33.9818 54.7906 34.1469 55.0007Z" fill="#FFCCD0"/>
<path opacity="0.1" d="M28.5817 19.398C28.436 19.7325 28.3055 20.0796 28.2862 20.452C28.2316 21.5272 28.32 23.9312 27.1503 24.4709C26.5709 24.7365 25.9508 24.1533 25.3155 24.1392C24.8584 24.1294 24.4393 24.4245 24.1603 24.7935C23.8813 25.1624 23.708 25.6002 23.5057 26.0176C23.3215 26.3965 23.1094 26.7606 22.8711 27.1068C22.7999 27.2128 22.7214 27.3135 22.6363 27.4083C21.923 27.102 21.2879 26.6341 20.7792 26.0401C20.2706 25.4462 19.9019 24.7419 19.7012 23.981C19.5005 23.2201 19.4732 22.4226 19.6212 21.6493C19.7693 20.876 20.0888 20.1473 20.5556 19.5187C21.0223 18.8901 21.6238 18.3783 22.3144 18.0221C23.0049 17.6659 23.7662 17.4749 24.5403 17.4635C25.3144 17.4521 26.0808 17.6207 26.7812 17.9565C27.4816 18.2922 28.0974 18.7862 28.5817 19.4008V19.398Z" fill="black"/>
<path d="M28.1934 20.2623C28.1382 21.3375 28.2273 23.7415 27.0568 24.2805C26.4775 24.5461 25.8574 23.9636 25.2221 23.9495C24.765 23.939 24.3465 24.2348 24.0669 24.603C23.7872 24.9713 23.6153 25.4098 23.4122 25.8279C23.228 26.2067 23.0159 26.5708 22.7777 26.9171C22.6354 27.1223 22.478 27.3282 22.2591 27.4434C21.8779 27.6458 21.4159 27.532 21.0071 27.402C20.4768 27.2319 19.9543 27.0403 19.4397 26.8272C19.4515 26.7481 19.4575 26.6682 19.4576 26.5882C19.4424 26.6177 19.4258 26.6452 19.4093 26.6747L19.3768 26.7323C19.3181 26.8377 19.2608 26.9431 19.2083 27.0513C19.1883 27.0928 19.169 27.1357 19.1517 27.1785C19.0823 27.338 19.0387 27.508 19.0226 27.6817C18.9874 28.1504 19.2145 28.5952 19.4162 29.0168C20.1916 30.6479 20.6709 32.555 20.0874 34.2662C19.8346 35.0104 19.3968 35.6716 19.0771 36.3905C18.5182 37.6638 18.3537 39.0801 18.6055 40.4508C18.765 41.3025 19.0847 42.1458 19.006 43.0095C18.8679 44.4957 17.6084 45.6018 16.3468 46.3621C15.6652 46.7711 14.8311 47.1351 14.1074 46.8119C14.5687 46.2638 14.6875 45.5055 14.7869 44.7902C15.059 42.8389 15.3317 40.8868 15.6052 38.9337C15.7143 38.1565 15.8231 37.3792 15.9318 36.602C16.1348 35.1418 16.3406 33.6654 16.2135 32.196C16.121 31.1131 15.86 29.9634 16.3212 28.9831C16.565 28.4638 16.9993 28.0337 17.1347 27.4744C17.2459 27.0197 17.1423 26.5362 17.2155 26.0731C17.2555 25.8624 17.3234 25.6582 17.4171 25.466C17.5365 25.2051 17.6923 24.9632 17.8798 24.7478C17.6947 24.693 17.5221 24.6178 17.4171 24.4604C17.714 24.2636 17.7589 23.8202 17.6243 23.4871C17.4896 23.154 17.2203 22.9003 16.9779 22.6375C16.7356 22.3747 16.5022 22.0683 16.4718 21.7099C16.4131 21.0276 17.0829 20.4991 17.201 19.8259C17.3204 19.1408 16.8481 18.4746 16.8861 17.781C16.9303 16.9427 17.6871 16.3334 18.4343 15.9799C19.5617 15.4488 20.8072 15.2306 22.0443 15.3475C23.0511 15.4445 24.0254 15.7614 25.0295 15.8844C25.635 15.9546 26.2489 15.9617 26.8504 16.0699C27.4518 16.1781 28.0546 16.4065 28.4779 16.8555C29.5938 18.0396 28.257 19.0143 28.1934 20.2623Z" fill="#FFE0D0"/>
<path opacity="0.1" d="M27.2606 52.0957C26.9084 51.9404 26.2676 52.0331 25.1676 51.6923C24.0676 51.3515 23.8556 49.8111 23.8556 49.8111V49.8062C23.8425 49.7711 23.7403 49.542 23.0484 48.7395C22.284 47.8533 20.6316 43.3777 20.6316 43.3777C20.6316 43.3777 19.1663 41.7762 19.2125 41.1859C19.2588 40.5956 18.9522 39.025 18.9826 37.2682C19.013 35.5114 22.2812 34.3463 22.2812 34.3463C28.574 33.2114 27.0921 40.5942 26.9243 41.1536C26.7565 41.7129 27.6273 43.2238 27.6273 43.2238C27.5044 43.8815 28.1314 44.8998 28.1314 44.8998C28.1314 44.8998 28.2833 45.8007 28.3143 46.1429C28.3161 46.1587 28.3195 46.1743 28.3247 46.1893C28.4255 46.5118 29.2472 46.8042 29.5815 46.9819C29.9329 47.1689 31.0633 48.8006 31.0633 48.8006C31.3071 49.9987 27.6114 52.2531 27.2606 52.0957Z" fill="black"/>
<path d="M27.4435 51.8146C27.092 51.6586 26.4505 51.752 25.3512 51.4105C24.2519 51.069 24.0392 49.53 24.0392 49.53V49.5251C24.0268 49.4892 23.9239 49.2609 23.232 48.4584C22.4676 47.5722 20.8152 43.0959 20.8152 43.0959C20.8152 43.0959 19.3499 41.4951 19.3954 40.9048C19.441 40.3145 19.1358 38.7439 19.1662 36.9885C19.1966 35.2331 22.4628 34.0687 22.4628 34.0687C28.7555 32.9338 27.2736 40.3166 27.1059 40.876C26.9381 41.4353 27.8088 42.9462 27.8088 42.9462C27.6859 43.6039 28.3129 44.6222 28.3129 44.6222C28.3129 44.6222 28.4648 45.5231 28.4966 45.8653C28.4977 45.8811 28.501 45.8967 28.5062 45.9117C28.6071 46.2342 29.4288 46.5266 29.7637 46.7044C30.1145 46.8906 31.2455 48.523 31.2455 48.523C31.4907 49.719 27.795 51.9734 27.4435 51.8146Z" fill="#A6C2E8"/>
<path opacity="0.1" d="M22.5879 37.9232C22.5879 37.9232 25.3369 40.8746 26.0543 40.8746C26.7718 40.8746 22.5879 37.9232 22.5879 37.9232Z" fill="black"/>
<path d="M27.4434 51.8146C27.0919 51.6586 26.4504 51.752 25.3511 51.4105C24.2517 51.069 24.0391 49.53 24.0391 49.53V49.5251C24.7676 49.0332 26.6127 47.6439 27.3398 47.1358C27.8515 46.7795 28.2692 46.256 28.5137 45.9089C28.6145 46.2314 29.4362 46.5238 29.7711 46.7015C30.1219 46.8878 31.253 48.5202 31.253 48.5202C31.4905 49.719 27.7948 51.9734 27.4434 51.8146Z" fill="#A6C2E8"/>
<g opacity="0.1">
<path d="M17.4219 24.4681C17.4253 24.4737 17.4302 24.4786 17.4343 24.4843C17.455 24.4575 17.4764 24.4308 17.4985 24.4055C17.475 24.4288 17.4493 24.4498 17.4219 24.4681Z" fill="black"/>
<path d="M19.0233 27.6894C19.0523 27.2994 19.2574 26.9557 19.4493 26.6128C19.3236 26.5636 19.198 26.5137 19.0737 26.4617C19.0855 26.3829 19.0915 26.3033 19.0916 26.2235C18.8976 26.5749 18.6863 26.9206 18.6566 27.3162C18.6214 27.7857 18.8486 28.2298 19.0502 28.6514C19.8264 30.2817 20.3049 32.1889 19.7214 33.9008C19.468 34.6442 19.0309 35.3062 18.7112 36.0251C18.1525 37.2982 17.9882 38.7142 18.2402 40.0847C18.3983 40.9371 18.7187 41.7797 18.64 42.6433C18.5019 44.1296 17.2431 45.2357 15.9808 45.9953C15.465 46.3059 14.8622 46.5905 14.2856 46.5701C14.2322 46.6576 14.1727 46.741 14.1074 46.8196C14.8318 47.145 15.6652 46.7789 16.3468 46.3685C17.6098 45.6095 18.8714 44.5062 19.0095 43.0172C19.0882 42.1535 18.7678 41.311 18.609 40.4586C18.3569 39.0882 18.5206 37.6723 19.0785 36.3989C19.3962 35.6808 19.8381 35.0181 20.0888 34.2746C20.6722 32.5628 20.193 30.6556 19.4176 29.0253C19.2166 28.6008 18.9881 28.1588 19.0233 27.6894Z" fill="black"/>
<path d="M28.4764 16.8639C28.4084 16.793 28.3355 16.7273 28.2581 16.6672C29.0951 17.7719 27.8866 18.7107 27.8266 19.8997C27.7727 20.9749 27.8611 23.3796 26.6907 23.9179C26.112 24.1842 25.4912 23.6009 24.8566 23.5869C24.3988 23.577 23.9803 23.8729 23.7007 24.2411C23.421 24.6093 23.2491 25.0478 23.0468 25.4653C22.8622 25.8441 22.6498 26.2082 22.4115 26.5545C22.2734 26.7604 22.1118 26.9656 21.8922 27.0815C21.5124 27.2832 21.0504 27.1701 20.641 27.0394C20.2428 26.9119 19.8482 26.7714 19.4574 26.6177C19.4566 26.6909 19.4506 26.764 19.4395 26.8363C19.9546 27.0499 20.4773 27.2415 21.0076 27.4111C21.4164 27.5418 21.8784 27.6549 22.2589 27.4533C22.4778 27.3373 22.6366 27.1314 22.7781 26.9255C23.0167 26.5797 23.2288 26.2158 23.4127 25.837C23.6157 25.4196 23.787 24.9804 24.0674 24.6122C24.3477 24.2439 24.7655 23.9488 25.2226 23.9586C25.8579 23.9727 26.4787 24.5559 27.0573 24.2896C28.2278 23.7513 28.1387 21.3466 28.1932 20.2714C28.2568 19.0213 29.5936 18.0473 28.4764 16.8639Z" fill="black"/>
</g>
<path opacity="0.1" d="M19.3777 26.733C19.319 26.8384 19.2617 26.9438 19.2092 27.052C19.1892 27.0935 19.1698 27.1364 19.1526 27.1792C18.7907 26.8082 17.9096 25.9263 17.418 25.6529C17.5375 25.3922 17.6933 25.1503 17.8806 24.9347C17.8806 24.9347 19.0524 25.5651 19.3777 26.733Z" fill="black"/>
<path d="M19.4101 26.6753C19.1388 25.4252 17.8806 24.7485 17.8806 24.7485C17.6932 24.9639 17.5373 25.2058 17.418 25.4667C17.9366 25.7555 18.8922 26.7238 19.2092 27.052L19.4101 26.6753Z" fill="#A6C2E8"/>
</g>
<defs>
<linearGradient id="paint0_linear_10028_37138" x1="50.911" y1="6.70469" x2="50.911" y2="5.41309" gradientUnits="userSpaceOnUse">
<stop stop-color="#808080" stop-opacity="0.25"/>
<stop offset="0.54" stop-color="#808080" stop-opacity="0.12"/>
<stop offset="1" stop-color="#808080" stop-opacity="0.1"/>
</linearGradient>
<linearGradient id="paint1_linear_10028_37138" x1="39.364" y1="55.0007" x2="39.364" y2="1.65566e-06" gradientUnits="userSpaceOnUse">
<stop stop-color="#808080" stop-opacity="0.25"/>
<stop offset="0.54" stop-color="#808080" stop-opacity="0.12"/>
<stop offset="1" stop-color="#808080" stop-opacity="0.1"/>
</linearGradient>
<clipPath id="clip0_10028_37138">
<rect width="75" height="55" fill="white" transform="translate(0.5)"/>
</clipPath>
</defs>
</svg>
