<svg width="384" height="297" viewBox="0 0 384 297" fill="none" xmlns="http://www.w3.org/2000/svg">
<rect x="0.5" y="0.5" width="383" height="296" rx="6.5" stroke="#9CA3AF" stroke-dasharray="2 2"/>
<g clip-path="url(#clip0_9795_7942)">
<path d="M248.903 247.197C246.966 247.196 245.061 246.701 243.364 245.758L85.7717 158.736C83.0802 157.246 81.0841 154.738 80.2213 151.764C79.3584 148.79 79.6993 145.591 81.1691 142.87L147.674 20.0864C148.404 18.7395 149.389 17.5508 150.573 16.5883C151.758 15.6259 153.118 14.9084 154.577 14.4768C156.036 14.0453 157.565 13.9082 159.077 14.0733C160.589 14.2384 162.053 14.7026 163.387 15.4392L320.979 102.462C323.671 103.952 325.667 106.459 326.53 109.434C327.393 112.408 327.052 115.606 325.582 118.327L259.077 241.111C258.351 242.461 257.367 243.651 256.182 244.614C254.997 245.577 253.634 246.293 252.174 246.721C251.111 247.036 250.01 247.196 248.903 247.197ZM244.316 244C246.548 245.233 249.174 245.52 251.616 244.797C254.057 244.075 256.115 242.403 257.336 240.15L323.841 117.366C325.058 115.111 325.341 112.461 324.626 109.997C323.911 107.532 322.257 105.455 320.027 104.22L162.435 17.1973C160.203 15.9647 157.577 15.678 155.135 16.4001C152.694 17.1222 150.636 18.7941 149.415 21.0479L82.9104 143.832C81.6926 146.086 81.4102 148.736 82.1251 151.201C82.84 153.665 84.494 155.743 86.724 156.978L244.316 244Z" fill="#F2F2F2"/>
<path d="M252.153 204.255C250.34 204.253 248.556 203.792 246.965 202.913L119.557 132.558C118.317 131.875 117.223 130.952 116.337 129.841C115.451 128.731 114.791 127.455 114.394 126.087C113.997 124.718 113.871 123.284 114.024 121.867C114.176 120.449 114.604 119.076 115.283 117.826L155.002 44.4954C155.679 43.2446 156.594 42.1408 157.694 41.247C158.794 40.3532 160.057 39.6869 161.412 39.2862C162.767 38.8855 164.187 38.7582 165.59 38.9116C166.994 39.065 168.354 39.496 169.593 40.1802L297.001 110.535C298.24 111.219 299.333 112.143 300.218 113.253C301.104 114.364 301.764 115.64 302.16 117.008C302.557 118.376 302.683 119.809 302.531 121.226C302.38 122.644 301.953 124.017 301.275 125.268L261.556 198.598C260.638 200.308 259.28 201.736 257.625 202.731C255.97 203.727 254.08 204.253 252.153 204.255Z" fill="#F2F2F2"/>
<path d="M248.197 247.165H68.5769C65.7266 247.162 62.994 246.017 60.9786 243.982C58.9631 241.947 57.8294 239.188 57.8262 236.31V96.3636C57.8294 93.4857 58.9631 90.7266 60.9786 88.6916C62.994 86.6566 65.7266 85.5119 68.5769 85.5086H248.197C251.047 85.5119 253.78 86.6566 255.795 88.6916C257.811 90.7266 258.945 93.4857 258.948 96.3636V236.31C258.945 239.188 257.811 241.947 255.795 243.982C253.78 246.017 251.047 247.162 248.197 247.165Z" fill="white"/>
<path d="M248.198 248H68.5777C65.5082 247.997 62.5654 246.764 60.3949 244.572C58.2244 242.381 57.0035 239.409 57 236.31V96.3636C57.0035 93.2643 58.2244 90.2929 60.3949 88.1014C62.5654 85.9098 65.5082 84.6771 68.5777 84.6736H248.198C251.267 84.6771 254.21 85.9098 256.381 88.1014C258.551 90.2929 259.772 93.2643 259.776 96.3636V236.31C259.772 239.409 258.551 242.381 256.381 244.572C254.21 246.764 251.267 247.997 248.198 248ZM68.5777 86.6776C66.0344 86.6805 63.596 87.7019 61.7976 89.5178C59.9992 91.3336 58.9876 93.7956 58.9848 96.3636V236.31C58.9876 238.878 59.9992 241.34 61.7976 243.156C63.596 244.972 66.0344 245.993 68.5777 245.996H248.198C250.741 245.993 253.18 244.972 254.978 243.156C256.776 241.34 257.788 238.878 257.791 236.31V96.3636C257.788 93.7956 256.776 91.3336 254.978 89.5178C253.18 87.7019 250.741 86.6805 248.198 86.6776H68.5777Z" fill="#E6E6E6"/>
<path d="M186.341 131.53C184.254 131.528 182.196 132.016 180.327 132.954C178.459 133.892 176.832 135.255 175.573 136.936C174.223 136.349 172.749 136.11 171.285 136.24C169.82 136.371 168.411 136.866 167.183 137.682C165.955 138.498 164.947 139.609 164.249 140.916C163.551 142.223 163.186 143.684 163.186 145.168H199.848C199.848 143.377 199.499 141.604 198.82 139.949C198.141 138.294 197.147 136.791 195.892 135.524C194.638 134.258 193.149 133.253 191.51 132.568C189.871 131.882 188.115 131.53 186.341 131.53Z" fill="#E6E6E6"/>
<path d="M106.022 184.914C118.035 184.914 127.774 175.081 127.774 162.951C127.774 150.821 118.035 140.988 106.022 140.988C94.0082 140.988 84.2695 150.821 84.2695 162.951C84.2695 175.081 94.0082 184.914 106.022 184.914Z" fill="#007DCF"/>
<path d="M233.43 208.214C232.633 208.404 231.816 208.499 230.996 208.498H85.7781C83.9896 208.501 82.2298 208.045 80.6641 207.172L81.0511 206.611L97.2533 183.054L121.262 148.154L121.613 147.643L125.39 142.152C125.644 141.782 125.983 141.48 126.378 141.272C126.772 141.063 127.211 140.954 127.656 140.954C128.102 140.954 128.541 141.063 128.935 141.272C129.33 141.48 129.668 141.782 129.922 142.152L142.473 160.392V160.395L149.856 171.13L167.481 196.748L194.212 158.221C194.466 157.853 194.805 157.553 195.199 157.346C195.593 157.139 196.03 157.031 196.474 157.031C196.918 157.031 197.356 157.139 197.75 157.346C198.144 157.553 198.482 157.853 198.737 158.221L215.885 182.933L216.871 184.353L233.43 208.214Z" fill="#3F3D56"/>
<path d="M157.471 154.303C154.896 154.301 152.357 154.902 150.051 156.059C147.746 157.217 145.738 158.899 144.186 160.972C142.52 160.249 140.702 159.954 138.895 160.114C137.088 160.275 135.349 160.886 133.834 161.893C132.319 162.9 131.075 164.271 130.214 165.883C129.354 167.495 128.903 169.298 128.902 171.129H174.136C174.136 168.92 173.705 166.731 172.867 164.69C172.03 162.648 170.802 160.793 169.255 159.231C167.707 157.669 165.87 156.429 163.848 155.583C161.826 154.738 159.659 154.303 157.471 154.303Z" fill="#CCCCCC"/>
<path d="M230.997 208.832H85.7794C84.3455 208.833 82.9255 208.549 81.6005 207.995C80.2755 207.442 79.0716 206.63 78.0576 205.606C77.0437 204.583 76.2397 203.367 75.6916 202.029C75.1434 200.691 74.862 199.257 74.8633 197.81V114.229C74.8666 111.307 76.0177 108.506 78.0642 106.439C80.1106 104.373 82.8853 103.211 85.7794 103.207H230.997C233.891 103.211 236.666 104.373 238.712 106.439C240.759 108.506 241.91 111.307 241.913 114.229V197.81C241.915 199.258 241.634 200.692 241.086 202.03C240.538 203.368 239.734 204.583 238.72 205.607C237.706 206.631 236.502 207.443 235.177 207.996C233.851 208.549 232.431 208.833 230.997 208.832ZM85.7794 103.875C83.0607 103.878 80.4542 104.97 78.5318 106.911C76.6093 108.852 75.528 111.484 75.5249 114.229V197.81C75.5236 199.17 75.788 200.517 76.3029 201.774C76.8177 203.03 77.573 204.172 78.5255 205.134C79.478 206.096 80.609 206.858 81.8537 207.378C83.0984 207.898 84.4324 208.165 85.7794 208.164H230.997C232.344 208.165 233.678 207.899 234.923 207.379C236.168 206.859 237.299 206.096 238.252 205.135C239.204 204.173 239.96 203.031 240.474 201.774C240.989 200.517 241.253 199.17 241.252 197.81V114.229C241.249 111.484 240.167 108.852 238.245 106.911C236.322 104.97 233.716 103.878 230.997 103.875H85.7794Z" fill="#3F3D56"/>
</g>
<path d="M108.21 257.614V256.364H116.938V257.614H113.278V268H111.869V257.614H108.21ZM118.794 271.273C118.567 271.273 118.364 271.254 118.186 271.216C118.008 271.182 117.885 271.148 117.817 271.114L118.158 269.932C118.483 270.015 118.771 270.045 119.021 270.023C119.271 270 119.493 269.888 119.686 269.688C119.883 269.491 120.063 269.17 120.226 268.727L120.476 268.045L117.249 259.273H118.703L121.112 266.227H121.203L123.612 259.273H125.067L121.362 269.273C121.196 269.723 120.989 270.097 120.743 270.392C120.497 270.691 120.211 270.913 119.885 271.057C119.563 271.201 119.199 271.273 118.794 271.273ZM126.337 260.523V259.273H133.428V260.523H130.564V268H129.223V260.523H126.337ZM139.884 268V259.273H141.224V263.068H142.111L145.247 259.273H146.974L143.452 263.477L147.02 268H145.293L142.429 264.318H141.224V268H139.884ZM151.663 268.182C150.875 268.182 150.184 267.994 149.589 267.619C148.999 267.244 148.536 266.72 148.203 266.045C147.874 265.371 147.709 264.583 147.709 263.682C147.709 262.773 147.874 261.979 148.203 261.301C148.536 260.623 148.999 260.097 149.589 259.722C150.184 259.347 150.875 259.159 151.663 259.159C152.451 259.159 153.141 259.347 153.732 259.722C154.326 260.097 154.788 260.623 155.118 261.301C155.451 261.979 155.618 262.773 155.618 263.682C155.618 264.583 155.451 265.371 155.118 266.045C154.788 266.72 154.326 267.244 153.732 267.619C153.141 267.994 152.451 268.182 151.663 268.182ZM151.663 266.977C152.262 266.977 152.754 266.824 153.141 266.517C153.527 266.21 153.813 265.807 153.999 265.307C154.184 264.807 154.277 264.265 154.277 263.682C154.277 263.098 154.184 262.555 153.999 262.051C153.813 261.547 153.527 261.14 153.141 260.83C152.754 260.519 152.262 260.364 151.663 260.364C151.065 260.364 150.572 260.519 150.186 260.83C149.8 261.14 149.514 261.547 149.328 262.051C149.143 262.555 149.05 263.098 149.05 263.682C149.05 264.265 149.143 264.807 149.328 265.307C149.514 265.807 149.8 266.21 150.186 266.517C150.572 266.824 151.065 266.977 151.663 266.977ZM156.892 268V266.75H157.21C157.472 266.75 157.689 266.699 157.864 266.597C158.038 266.491 158.178 266.307 158.284 266.045C158.394 265.78 158.477 265.413 158.534 264.943C158.595 264.47 158.638 263.867 158.665 263.136L158.824 259.273H164.642V268H163.301V260.523H160.097L159.96 263.636C159.93 264.352 159.866 264.983 159.767 265.528C159.672 266.07 159.527 266.525 159.33 266.892C159.136 267.259 158.879 267.536 158.557 267.722C158.235 267.907 157.831 268 157.347 268H156.892ZM168.443 266.023L172.648 259.273H174.193V268H172.852V261.25L168.67 268H167.102V259.273H168.443V266.023ZM180.195 268.182C179.376 268.182 178.672 267.989 178.081 267.602C177.49 267.216 177.036 266.684 176.717 266.006C176.399 265.328 176.24 264.553 176.24 263.682C176.24 262.795 176.403 262.013 176.729 261.335C177.058 260.653 177.517 260.121 178.104 259.739C178.695 259.352 179.384 259.159 180.172 259.159C180.786 259.159 181.339 259.273 181.831 259.5C182.323 259.727 182.727 260.045 183.041 260.455C183.356 260.864 183.551 261.341 183.626 261.886H182.286C182.183 261.489 181.956 261.136 181.604 260.83C181.255 260.519 180.786 260.364 180.195 260.364C179.672 260.364 179.214 260.5 178.82 260.773C178.429 261.042 178.125 261.422 177.905 261.915C177.689 262.403 177.581 262.977 177.581 263.636C177.581 264.311 177.687 264.898 177.899 265.398C178.115 265.898 178.418 266.286 178.808 266.562C179.202 266.839 179.664 266.977 180.195 266.977C180.543 266.977 180.859 266.917 181.143 266.795C181.428 266.674 181.668 266.5 181.865 266.273C182.062 266.045 182.202 265.773 182.286 265.455H183.626C183.551 265.97 183.363 266.434 183.064 266.847C182.768 267.256 182.376 267.581 181.888 267.824C181.403 268.062 180.839 268.182 180.195 268.182ZM186.746 262.432H189.246C190.268 262.432 191.051 262.691 191.592 263.21C192.134 263.729 192.405 264.386 192.405 265.182C192.405 265.705 192.284 266.18 192.041 266.608C191.799 267.032 191.443 267.371 190.973 267.625C190.503 267.875 189.928 268 189.246 268H185.587V259.273H186.928V266.75H189.246C189.776 266.75 190.212 266.61 190.553 266.33C190.893 266.049 191.064 265.689 191.064 265.25C191.064 264.788 190.893 264.411 190.553 264.119C190.212 263.828 189.776 263.682 189.246 263.682H186.746V262.432ZM205.423 256L206.105 256.818C205.84 257.076 205.533 257.256 205.185 257.358C204.836 257.46 204.442 257.523 204.003 257.545C203.563 257.568 203.075 257.591 202.537 257.614C201.931 257.636 201.429 257.784 201.031 258.057C200.634 258.33 200.327 258.723 200.111 259.239C199.895 259.754 199.757 260.386 199.696 261.136H199.81C200.105 260.591 200.514 260.189 201.037 259.932C201.56 259.674 202.12 259.545 202.719 259.545C203.401 259.545 204.014 259.705 204.56 260.023C205.105 260.341 205.537 260.812 205.855 261.438C206.173 262.062 206.332 262.833 206.332 263.75C206.332 264.663 206.17 265.451 205.844 266.114C205.522 266.777 205.069 267.288 204.486 267.648C203.906 268.004 203.226 268.182 202.446 268.182C201.666 268.182 200.982 267.998 200.395 267.631C199.808 267.259 199.351 266.71 199.026 265.983C198.7 265.252 198.537 264.348 198.537 263.273V262.341C198.537 260.398 198.866 258.924 199.526 257.92C200.188 256.917 201.185 256.398 202.514 256.364C202.984 256.348 203.402 256.345 203.77 256.352C204.137 256.36 204.457 256.343 204.73 256.301C205.003 256.259 205.234 256.159 205.423 256ZM202.446 266.977C202.973 266.977 203.425 266.845 203.804 266.58C204.187 266.314 204.48 265.941 204.685 265.46C204.889 264.975 204.991 264.405 204.991 263.75C204.991 263.114 204.887 262.572 204.679 262.125C204.474 261.678 204.181 261.337 203.798 261.102C203.416 260.867 202.957 260.75 202.423 260.75C202.033 260.75 201.683 260.816 201.372 260.949C201.062 261.081 200.796 261.277 200.577 261.534C200.357 261.792 200.187 262.106 200.065 262.477C199.948 262.848 199.885 263.273 199.878 263.75C199.878 264.727 200.107 265.509 200.565 266.097C201.024 266.684 201.651 266.977 202.446 266.977ZM209.247 271.273C209.02 271.273 208.817 271.254 208.639 271.216C208.461 271.182 208.338 271.148 208.27 271.114L208.611 269.932C208.937 270.015 209.224 270.045 209.474 270.023C209.724 270 209.946 269.888 210.139 269.688C210.336 269.491 210.516 269.17 210.679 268.727L210.929 268.045L207.702 259.273H209.156L211.565 266.227H211.656L214.065 259.273H215.52L211.815 269.273C211.649 269.723 211.442 270.097 211.196 270.392C210.95 270.691 210.664 270.913 210.338 271.057C210.016 271.201 209.652 271.273 209.247 271.273ZM215.624 270.5V266.75H216.351C216.529 266.564 216.682 266.364 216.811 266.148C216.94 265.932 217.052 265.676 217.146 265.381C217.245 265.081 217.328 264.718 217.396 264.29C217.464 263.858 217.525 263.337 217.578 262.727L217.874 259.273H223.419V266.75H224.76V270.5H223.419V268H216.964V270.5H215.624ZM217.874 266.75H222.078V260.523H219.124L218.896 262.727C218.802 263.64 218.684 264.437 218.544 265.119C218.404 265.801 218.18 266.345 217.874 266.75ZM230.199 268.182C229.358 268.182 228.633 267.996 228.023 267.625C227.417 267.25 226.949 266.727 226.619 266.057C226.294 265.383 226.131 264.598 226.131 263.705C226.131 262.811 226.294 262.023 226.619 261.341C226.949 260.655 227.407 260.121 227.994 259.739C228.585 259.352 229.275 259.159 230.062 259.159C230.517 259.159 230.966 259.235 231.409 259.386C231.852 259.538 232.256 259.784 232.619 260.125C232.983 260.462 233.273 260.909 233.489 261.466C233.705 262.023 233.812 262.708 233.812 263.523V264.091H227.085V262.932H232.449C232.449 262.439 232.35 262 232.153 261.614C231.96 261.227 231.684 260.922 231.324 260.699C230.968 260.475 230.547 260.364 230.062 260.364C229.528 260.364 229.066 260.496 228.676 260.761C228.29 261.023 227.992 261.364 227.784 261.784C227.576 262.205 227.472 262.655 227.472 263.136V263.909C227.472 264.568 227.585 265.127 227.812 265.585C228.044 266.04 228.364 266.386 228.773 266.625C229.182 266.86 229.657 266.977 230.199 266.977C230.551 266.977 230.869 266.928 231.153 266.83C231.441 266.727 231.689 266.576 231.898 266.375C232.106 266.17 232.267 265.917 232.381 265.614L233.676 265.977C233.54 266.417 233.311 266.803 232.989 267.136C232.667 267.466 232.269 267.723 231.795 267.909C231.322 268.091 230.79 268.182 230.199 268.182ZM243.898 270.977V256.364H245.239V270.977H243.898ZM243.898 268.182C243.307 268.182 242.769 268.076 242.284 267.864C241.799 267.648 241.383 267.343 241.034 266.949C240.686 266.551 240.417 266.076 240.227 265.523C240.038 264.97 239.943 264.356 239.943 263.682C239.943 263 240.038 262.383 240.227 261.83C240.417 261.273 240.686 260.795 241.034 260.398C241.383 260 241.799 259.695 242.284 259.483C242.769 259.267 243.307 259.159 243.898 259.159H244.307V268.182H243.898ZM243.898 266.977H244.125V260.364H243.898C243.451 260.364 243.063 260.455 242.733 260.636C242.403 260.814 242.131 261.059 241.915 261.369C241.703 261.676 241.544 262.028 241.438 262.426C241.335 262.824 241.284 263.242 241.284 263.682C241.284 264.265 241.377 264.807 241.562 265.307C241.748 265.807 242.034 266.21 242.42 266.517C242.807 266.824 243.299 266.977 243.898 266.977ZM245.239 268.182H244.83V259.159H245.239C245.83 259.159 246.367 259.267 246.852 259.483C247.337 259.695 247.754 260 248.102 260.398C248.451 260.795 248.72 261.273 248.909 261.83C249.098 262.383 249.193 263 249.193 263.682C249.193 264.356 249.098 264.97 248.909 265.523C248.72 266.076 248.451 266.551 248.102 266.949C247.754 267.343 247.337 267.648 246.852 267.864C246.367 268.076 245.83 268.182 245.239 268.182ZM245.239 266.977C245.689 266.977 246.078 266.89 246.403 266.716C246.733 266.538 247.004 266.295 247.216 265.989C247.432 265.678 247.591 265.326 247.693 264.932C247.799 264.534 247.852 264.117 247.852 263.682C247.852 263.098 247.759 262.555 247.574 262.051C247.388 261.547 247.102 261.14 246.716 260.83C246.33 260.519 245.837 260.364 245.239 260.364H245.011V266.977H245.239ZM254.788 268.182C254 268.182 253.309 267.994 252.714 267.619C252.124 267.244 251.661 266.72 251.328 266.045C250.999 265.371 250.834 264.583 250.834 263.682C250.834 262.773 250.999 261.979 251.328 261.301C251.661 260.623 252.124 260.097 252.714 259.722C253.309 259.347 254 259.159 254.788 259.159C255.576 259.159 256.266 259.347 256.857 259.722C257.451 260.097 257.913 260.623 258.243 261.301C258.576 261.979 258.743 262.773 258.743 263.682C258.743 264.583 258.576 265.371 258.243 266.045C257.913 266.72 257.451 267.244 256.857 267.619C256.266 267.994 255.576 268.182 254.788 268.182ZM254.788 266.977C255.387 266.977 255.879 266.824 256.266 266.517C256.652 266.21 256.938 265.807 257.124 265.307C257.309 264.807 257.402 264.265 257.402 263.682C257.402 263.098 257.309 262.555 257.124 262.051C256.938 261.547 256.652 261.14 256.266 260.83C255.879 260.519 255.387 260.364 254.788 260.364C254.19 260.364 253.697 260.519 253.311 260.83C252.925 261.14 252.639 261.547 252.453 262.051C252.268 262.555 252.175 263.098 252.175 263.682C252.175 264.265 252.268 264.807 252.453 265.307C252.639 265.807 252.925 266.21 253.311 266.517C253.697 266.824 254.19 266.977 254.788 266.977ZM259.649 260.523V259.273H266.74V260.523H263.876V268H262.536V260.523H259.649ZM271.788 268.182C271 268.182 270.309 267.994 269.714 267.619C269.124 267.244 268.661 266.72 268.328 266.045C267.999 265.371 267.834 264.583 267.834 263.682C267.834 262.773 267.999 261.979 268.328 261.301C268.661 260.623 269.124 260.097 269.714 259.722C270.309 259.347 271 259.159 271.788 259.159C272.576 259.159 273.266 259.347 273.857 259.722C274.451 260.097 274.913 260.623 275.243 261.301C275.576 261.979 275.743 262.773 275.743 263.682C275.743 264.583 275.576 265.371 275.243 266.045C274.913 266.72 274.451 267.244 273.857 267.619C273.266 267.994 272.576 268.182 271.788 268.182ZM271.788 266.977C272.387 266.977 272.879 266.824 273.266 266.517C273.652 266.21 273.938 265.807 274.124 265.307C274.309 264.807 274.402 264.265 274.402 263.682C274.402 263.098 274.309 262.555 274.124 262.051C273.938 261.547 273.652 261.14 273.266 260.83C272.879 260.519 272.387 260.364 271.788 260.364C271.19 260.364 270.697 260.519 270.311 260.83C269.925 261.14 269.639 261.547 269.453 262.051C269.268 262.555 269.175 263.098 269.175 263.682C269.175 264.265 269.268 264.807 269.453 265.307C269.639 265.807 269.925 266.21 270.311 266.517C270.697 266.824 271.19 266.977 271.788 266.977Z" fill="#B3B4B5"/>
<defs>
<clipPath id="clip0_9795_7942">
<rect width="270" height="234" fill="white" transform="translate(57 14)"/>
</clipPath>
</defs>
</svg>
