<svg width="24" height="25" viewBox="0 0 24 25" fill="none" xmlns="http://www.w3.org/2000/svg">
    <path d="M20.7741 15.5284L16.3453 13.5437C16.1447 13.4578 15.9257 13.4232 15.7083 13.4432C15.4909 13.4631 15.282 13.537 15.1003 13.6581C15.0819 13.6699 15.0643 13.6831 15.0478 13.6975L12.7331 15.6662C12.7091 15.6793 12.6824 15.6867 12.655 15.6876C12.6277 15.6886 12.6005 15.6832 12.5756 15.6719C11.0878 14.9537 9.54657 13.4219 8.82564 11.9547C8.81363 11.9302 8.80739 11.9032 8.80739 11.8759C8.80739 11.8486 8.81363 11.8217 8.82564 11.7972L10.8009 9.45342C10.8151 9.43608 10.8283 9.41792 10.8403 9.39905C10.9598 9.21671 11.0319 9.0075 11.0502 8.7903C11.0685 8.5731 11.0325 8.35476 10.9453 8.15499L8.9747 3.73374C8.86279 3.47274 8.66925 3.25509 8.42313 3.11343C8.17701 2.97178 7.89159 2.91377 7.6097 2.94811C6.3846 3.10917 5.26006 3.7108 4.44622 4.64058C3.63238 5.57036 3.18494 6.76466 3.18751 8.0003C3.18751 15.3409 9.15939 21.3128 16.5 21.3128C17.7356 21.3152 18.9298 20.8677 19.8595 20.0539C20.7893 19.2401 21.3909 18.1156 21.5522 16.8906C21.5865 16.61 21.5292 16.3259 21.389 16.0805C21.2488 15.835 21.0332 15.6414 20.7741 15.5284ZM16.5 20.1878C9.78001 20.1878 4.31251 14.7203 4.31251 8.0003C4.30938 7.03836 4.65658 6.10818 5.28924 5.38356C5.9219 4.65894 6.79675 4.18944 7.75032 4.0628H7.77189C7.80967 4.0635 7.84635 4.07561 7.87713 4.09752C7.90791 4.11944 7.93136 4.15014 7.94439 4.18561L9.92251 8.60217C9.93379 8.62673 9.93963 8.65343 9.93963 8.68045C9.93963 8.70748 9.93379 8.73418 9.92251 8.75873L7.94345 11.1081C7.92868 11.1249 7.91521 11.1427 7.90314 11.1615C7.7793 11.3506 7.70637 11.5684 7.69143 11.7939C7.67648 12.0194 7.72002 12.245 7.81782 12.4487C8.64939 14.1512 10.365 15.8537 12.0863 16.6853C12.2912 16.7826 12.5178 16.8251 12.7441 16.8086C12.9703 16.7922 13.1885 16.7174 13.3772 16.5915C13.395 16.5794 13.4128 16.5662 13.4297 16.5522L15.7434 14.5834C15.7663 14.5711 15.7915 14.5639 15.8174 14.5623C15.8433 14.5607 15.8692 14.5647 15.8934 14.574L20.3231 16.5587C20.3593 16.5741 20.3897 16.6005 20.4101 16.6342C20.4305 16.6678 20.4397 16.707 20.4366 16.7462C20.3106 17.7002 19.8415 18.5757 19.1171 19.2091C18.3926 19.8425 17.4623 20.1904 16.5 20.1878Z" fill="#000305"/>
</svg>
