<svg width="361" height="436" viewBox="0 0 361 436" fill="none" xmlns="http://www.w3.org/2000/svg">
<g clip-path="url(#clip0_8485_26958)">
<path d="M289.538 150.647H253.923V138.807C253.923 118.959 269.881 102.846 289.538 102.846L289.538 150.647Z" fill="#2F2E41"/>
<path d="M281.643 128.543L287.767 156.353L251.884 150.337L266.506 124.036L281.643 128.543Z" fill="#A0616A"/>
<path opacity="0.1" d="M281.643 128.543L287.767 156.353L251.884 150.337L266.506 124.036L281.643 128.543Z" fill="black"/>
<path d="M247.241 239.361H281.644V187.951H247.241V239.361Z" fill="#A0616A"/>
<path d="M304.005 281.392L296.437 322.381C296.437 322.381 301.253 350.865 286.804 380.043L277.171 409.917L262.722 407.832C262.722 407.832 271.667 385.601 271.667 375.875C271.667 366.149 273.731 328.633 273.731 328.633L272.699 285.826L304.005 281.392Z" fill="#2F2E41"/>
<path d="M260.658 407.138C260.658 407.138 277.171 400.885 278.547 409.917L277.859 414.085C277.859 414.085 284.052 432.843 275.107 434.232C266.162 435.622 257.906 437.706 257.218 433.537C256.53 429.369 256.54 424.166 258.255 420.515C259.97 416.864 260.658 407.138 260.658 407.138Z" fill="#2F2E41"/>
<path d="M251.919 275.034L247.899 316.531C247.899 316.531 235.428 342.539 241.27 374.623L242.294 406.023L256.747 408.079C256.747 408.079 254.279 384.213 256.958 374.87C259.637 365.528 267.987 328.913 267.987 328.913L280.769 288.083L251.919 275.034Z" fill="#2F2E41"/>
<path d="M258.921 407.991C258.921 407.991 244.782 397.348 240.972 405.637L240.485 409.834C240.485 409.834 229.37 426.113 237.579 429.959C245.789 433.805 253.145 438.126 254.954 434.315C256.763 430.505 258.186 425.503 257.545 421.515C256.903 417.527 258.921 407.991 258.921 407.991Z" fill="#2F2E41"/>
<path d="M295.748 215.74C311.931 230.988 313.131 255.113 303.661 283.823C303.661 283.823 273.387 304.665 251.369 278.266L240.36 224.771L295.748 215.74Z" fill="#2F2E41"/>
<path d="M268.57 141.404L285.772 144.183L284.396 187.951L303.661 226.856L278.891 239.361C278.891 239.361 259.626 202.54 256.186 179.614C252.745 156.688 254.809 140.015 254.809 140.015L268.57 141.404Z" fill="#007DCF"/>
<path d="M255.497 142.794L238.296 145.572L239.672 189.34L235.544 229.635L245.177 240.75C245.177 240.75 264.442 203.93 267.882 181.004C271.323 158.078 269.258 141.404 269.258 141.404L255.497 142.794Z" fill="#007DCF"/>
<path d="M276.139 143.836L279.923 142.793C279.923 142.793 293.34 141.057 295.404 146.614C297.469 152.172 296.781 184.825 296.781 184.825C296.781 184.825 300.331 224.9 286.515 225.357C272.699 225.814 275.451 192.467 275.451 192.467L276.139 143.836Z" fill="#007DCF"/>
<path d="M275.639 136.175C285.474 136.175 293.446 128.125 293.446 118.195C293.446 108.265 285.474 100.215 275.639 100.215C265.804 100.215 257.832 108.265 257.832 118.195C257.832 128.125 265.804 136.175 275.639 136.175Z" fill="#A0616A"/>
<path d="M253.434 145.225L249.649 144.183C249.649 144.183 236.232 142.446 234.168 148.004C232.104 153.562 232.792 186.214 232.792 186.214C232.792 186.214 229.242 226.289 243.058 226.746C256.874 227.203 254.122 193.856 254.122 193.856L253.434 145.225Z" fill="#007DCF"/>
<path d="M265.353 142.941C261.532 141.962 257.201 146.082 255.678 152.145C255.036 154.558 254.976 157.092 255.503 159.533L253.862 166.425L253.741 166.419L240.793 197.23C237.783 204.393 238.101 212.618 241.941 219.365C244.225 223.379 247.223 226.077 250.744 223.323C256.586 218.752 260.402 192.582 262.145 177.548L266.173 162.267C267.79 160.374 268.935 158.118 269.511 155.687C271.035 149.626 269.173 143.919 265.353 142.941Z" fill="#A0616A"/>
<path d="M241.547 132.741C242.453 129.961 244.241 127.526 245.041 124.712C246.103 120.976 248.365 129.264 248.586 125.384C249.005 118.008 260.154 99.0353 266.518 95.3909C272.883 91.7465 276.539 92.8453 283.023 96.268C283.023 96.268 286.171 96.4701 290.089 98.4235C294.008 100.377 297.535 103.505 299.059 107.641C300.267 110.919 300.133 114.519 300.537 117.992C301.662 127.67 307.034 136.874 305.881 146.548C305.521 149.566 304.385 152.687 301.941 154.462C299.497 156.238 295.548 156.044 293.94 153.475C293.391 152.598 293.158 151.558 292.688 150.635C292.217 149.713 291.367 148.853 290.34 148.882C288.797 148.925 288.011 151.017 288.62 152.45C289.228 153.883 290.659 154.748 292.002 155.518C288.803 156.971 284.835 156.518 282.038 154.381C279.24 152.245 277.73 148.512 278.245 145.009C278.97 140.072 286.093 141.094 286.932 136.175C287.543 132.595 289.688 126.604 289.104 123.019C288.519 119.434 285.713 123.775 288.669 121.704C285.417 123.287 278.46 112.457 275.056 111.244C271.651 110.031 268.764 107.404 267.216 104.111C263.605 109.397 260.428 107.961 259.135 114.248C257.842 120.535 259.037 134.819 264.363 138.329C262.232 139.797 260.533 141.897 259.533 144.298C258.966 145.659 258.599 147.147 257.659 148.277C255.863 150.435 252.547 150.566 249.904 149.659C246.627 148.534 243.825 146.063 242.28 142.935C240.735 139.808 240.466 136.061 241.547 132.741Z" fill="#2F2E41"/>
<path d="M0 434.994C0 435.453 0.364688 435.821 0.818823 435.821H360.181C360.635 435.821 361 435.453 361 434.994C361 434.536 360.635 434.168 360.181 434.168H0.818823C0.364688 434.168 0 434.536 0 434.994Z" fill="#3F3D56"/>
<path d="M233.963 0.69458H92.4524C76.405 0.69458 63.396 13.8298 63.396 30.0329V405.487C63.396 421.69 76.405 434.825 92.4523 434.825H233.963C250.011 434.825 263.02 421.69 263.02 405.487V30.0329C263.02 13.8298 250.011 0.69458 233.963 0.69458Z" fill="white"/>
<path d="M233.963 435.52H92.4525C76.0514 435.52 62.708 422.047 62.708 405.487V30.0331C62.708 13.4729 76.0514 0 92.4525 0H233.963C250.364 0 263.708 13.4729 263.708 30.0331V405.487C263.708 422.047 250.364 435.52 233.963 435.52ZM92.4525 1.38946C76.81 1.38946 64.0841 14.2389 64.0841 30.0331V405.487C64.0841 421.281 76.81 434.13 92.4525 434.13H233.963C249.606 434.13 262.332 421.281 262.332 405.487V30.0331C262.332 14.2389 249.606 1.38946 233.963 1.38946H92.4525Z" fill="#3F3D56"/>
<path d="M51.7028 65.698C50.4605 65.698 49.4502 66.7181 49.4502 67.9725V86.1684C49.4502 87.4228 50.4605 88.4429 51.7028 88.4429C52.9452 88.4429 53.9555 87.4228 53.9555 86.1684V67.9725C53.9555 66.7181 52.9452 65.698 51.7028 65.698Z" fill="#3F3D56"/>
<path d="M244.214 60.7618H187.334C184.922 60.7618 182.959 58.7799 182.959 56.344C182.959 53.908 184.922 51.9261 187.334 51.9261H244.214C246.627 51.9261 248.589 53.908 248.589 56.344C248.589 58.7799 246.627 60.7618 244.214 60.7618Z" fill="#E6E6E6"/>
<path d="M190.853 95.5033H135.563C134.169 95.5033 133.035 94.3581 133.035 92.9507C133.035 91.5432 134.169 90.3986 135.563 90.3986H190.853C192.247 90.3986 193.381 91.5432 193.381 92.9507C193.381 94.3581 192.247 95.5033 190.853 95.5033Z" fill="#007DCF"/>
<path d="M53.8897 108.101C78.5513 108.101 98.5435 88.34 98.5435 63.9637C98.5435 39.5874 78.5513 19.8265 53.8897 19.8265C29.2281 19.8265 9.23584 39.5874 9.23584 63.9637C9.23584 88.34 29.2281 108.101 53.8897 108.101Z" fill="#007DCF"/>
<path d="M69.045 41.7006C63.1002 52.6305 57.1553 63.5606 51.2105 74.4905C47.4217 67.7311 43.6535 60.9598 39.8553 54.2057C38.5436 51.8731 34.9756 53.9711 36.2907 56.3096C40.6936 64.1391 45.0509 71.9947 49.4538 79.8242C50.2066 81.1629 52.2734 81.194 53.0185 79.8242C59.5489 67.8176 66.0793 55.811 72.6097 43.8045C73.8893 41.4518 70.3256 39.3461 69.045 41.7006Z" fill="white"/>
<path d="M112.706 10.1832H81.1402C81.0223 10.1832 80.9268 10.2797 80.9268 10.3987V14.1092C80.9268 14.2282 81.0223 14.3247 81.1402 14.3247H112.706C112.824 14.3247 112.92 14.2282 112.92 14.1092V10.3987C112.92 10.2797 112.824 10.1832 112.706 10.1832Z" fill="#E6E6E6"/>
<path d="M219.032 14.3247C220.844 14.3247 222.313 12.8414 222.313 11.0115C222.313 9.18173 220.844 7.69836 219.032 7.69836C217.22 7.69836 215.75 9.18173 215.75 11.0115C215.75 12.8414 217.22 14.3247 219.032 14.3247Z" fill="#E6E6E6"/>
<path d="M228.055 14.3247C229.867 14.3247 231.337 12.8414 231.337 11.0115C231.337 9.18173 229.867 7.69836 228.055 7.69836C226.243 7.69836 224.774 9.18173 224.774 11.0115C224.774 12.8414 226.243 14.3247 228.055 14.3247Z" fill="#E6E6E6"/>
<path d="M237.079 14.3247C238.891 14.3247 240.361 12.8414 240.361 11.0115C240.361 9.18173 238.891 7.69836 237.079 7.69836C235.267 7.69836 233.798 9.18173 233.798 11.0115C233.798 12.8414 235.267 14.3247 237.079 14.3247Z" fill="#E6E6E6"/>
<path d="M92.1079 109.167C92.1079 109.625 92.4726 109.993 92.9267 109.993H233.489C233.943 109.993 234.308 109.625 234.308 109.167C234.308 108.708 233.943 108.34 233.489 108.34H92.9267C92.4726 108.34 92.1079 108.708 92.1079 109.167Z" fill="#3F3D56"/>
<path d="M220.009 174.145H135.656C134.262 174.145 133.127 173 133.127 171.593C133.127 170.185 134.262 169.041 135.656 169.041H220.009C221.403 169.041 222.537 170.185 222.537 171.593C222.537 173 221.403 174.145 220.009 174.145Z" fill="#007DCF"/>
<path d="M220.009 210.966H135.656C134.262 210.966 133.127 209.821 133.127 208.413C133.127 207.006 134.262 205.861 135.656 205.861H220.009C221.403 205.861 222.537 207.006 222.537 208.413C222.537 209.821 221.403 210.966 220.009 210.966Z" fill="#007DCF"/>
<path d="M220.009 247.786H135.656C134.262 247.786 133.127 246.641 133.127 245.234C133.127 243.826 134.262 242.682 135.656 242.682H220.009C221.403 242.682 222.537 243.826 222.537 245.234C222.537 246.641 221.403 247.786 220.009 247.786Z" fill="#007DCF"/>
<path d="M110.071 177.53C113.491 177.53 116.263 174.731 116.263 171.277C116.263 167.824 113.491 165.025 110.071 165.025C106.651 165.025 103.878 167.824 103.878 171.277C103.878 174.731 106.651 177.53 110.071 177.53Z" fill="#007DCF"/>
<path d="M109.383 181.698V180.309C114.505 180.309 118.672 176.101 118.672 170.93C118.672 165.758 114.505 161.551 109.383 161.551V160.162C115.264 160.162 120.048 164.992 120.048 170.93C120.048 176.868 115.264 181.698 109.383 181.698Z" fill="#3F3D56"/>
<path d="M110.071 214.35C113.491 214.35 116.263 211.551 116.263 208.098C116.263 204.645 113.491 201.845 110.071 201.845C106.651 201.845 103.878 204.645 103.878 208.098C103.878 211.551 106.651 214.35 110.071 214.35Z" fill="#007DCF"/>
<path d="M109.383 218.519V217.129C114.505 217.129 118.672 212.922 118.672 207.751C118.672 202.579 114.505 198.372 109.383 198.372V196.982C115.264 196.982 120.048 201.813 120.048 207.751C120.048 213.688 115.264 218.519 109.383 218.519Z" fill="#3F3D56"/>
<path d="M110.071 251.171C113.491 251.171 116.263 248.372 116.263 244.919C116.263 241.465 113.491 238.666 110.071 238.666C106.651 238.666 103.878 241.465 103.878 244.919C103.878 248.372 106.651 251.171 110.071 251.171Z" fill="#007DCF"/>
<path d="M109.383 255.339V253.95C114.505 253.95 118.672 249.743 118.672 244.571C118.672 239.399 114.505 235.192 109.383 235.192V233.803C115.264 233.803 120.048 238.633 120.048 244.571C120.048 250.509 115.264 255.339 109.383 255.339Z" fill="#3F3D56"/>
<path d="M264.22 141.551C268.04 140.573 272.372 144.692 273.895 150.755C274.537 153.169 274.597 155.702 274.07 158.144L275.711 165.036L275.832 165.03L288.78 195.84C291.79 203.004 291.472 211.228 287.632 217.976C285.348 221.989 282.349 224.688 278.829 221.933C272.987 217.363 269.171 191.192 267.428 176.159L263.4 160.878C261.783 158.985 260.638 156.728 260.062 154.297C258.538 148.237 260.4 142.53 264.22 141.551Z" fill="#A0616A"/>
<path d="M278.928 158.435L264.442 168.832L271.685 214.888L280.77 226.751L291.351 223.056L294.445 201.284L290.804 180.228L278.928 158.435Z" fill="#007DCF"/>
</g>
<defs>
<clipPath id="clip0_8485_26958">
<rect width="361" height="436" fill="white"/>
</clipPath>
</defs>
</svg>
