<svg width="410" height="278" viewBox="0 0 410 278" fill="none" xmlns="http://www.w3.org/2000/svg">
<g clip-path="url(#clip0_8396_13021)">
<path d="M375.039 97.2689C374.608 97.6232 374.178 97.962 373.737 98.2958H265.032C264.222 97.962 263.416 97.6197 262.614 97.2689C251.138 92.2647 240.456 85.6012 230.91 77.4911C224.571 72.1103 218.74 66.5549 214.512 61.3486C208.615 54.0834 203.183 46.1661 200.657 37.145C198.135 28.1239 198.889 17.7832 204.52 10.3023C206.264 8.00113 208.408 6.03397 210.849 4.49533C211.253 4.23861 211.663 3.99216 212.083 3.76111C218.837 -0.038351 227.359 -0.962549 234.963 1.00393C245.852 3.82272 254.901 11.6938 261.358 20.9254C267.815 30.152 272.006 40.7494 276.136 51.2287C280.328 32.5241 293.021 15.7705 310.166 7.2525C327.307 -1.26548 348.603 -1.16279 365.38 8.06374C370.658 10.9844 375.427 14.7476 379.497 19.2054C379.902 19.6418 380.296 20.0885 380.686 20.5403C388.869 30.0339 393.988 42.1921 394.408 54.7304C394.946 70.8832 387.475 87.1079 375.039 97.2689Z" fill="#E6F7FE"/>
<path d="M269.376 98.2958H267.839C267.819 97.9518 267.793 97.6129 267.762 97.2689C267.225 90.5529 266.1 83.8971 264.401 77.3782C260.502 62.4956 253.842 48.4811 244.77 36.0668C235.723 23.6127 224.318 13.0647 211.206 5.02417C211.11 4.96911 211.028 4.89286 210.966 4.80123C210.904 4.70959 210.863 4.60498 210.847 4.49533C210.822 4.35195 210.838 4.20438 210.894 4.06981C210.949 3.93525 211.042 3.81923 211.16 3.73529C211.279 3.65134 211.419 3.60293 211.564 3.59568C211.709 3.58843 211.853 3.62266 211.98 3.69436C212.015 3.71479 212.049 3.73706 212.082 3.7611C219.511 8.29814 226.407 13.6579 232.641 19.7394C243.791 30.6378 252.781 43.5521 259.138 57.8007C264.746 70.2798 268.181 83.6286 269.294 97.2689C269.325 97.6129 269.351 97.9569 269.376 98.2958Z" fill="white"/>
<path d="M380.683 20.5409C380.672 20.5467 380.66 20.5501 380.647 20.5511C379.525 20.7565 378.398 20.9722 377.28 21.2032C368.111 23.0902 359.134 25.8213 350.465 29.3618C341.819 32.8973 333.503 37.1927 325.613 42.1978C317.713 47.2003 310.263 52.8833 303.348 59.1824C296.433 65.4725 290.09 72.366 284.394 79.7817C280.136 85.3378 276.265 91.1809 272.808 97.2695C272.613 97.6083 272.424 97.9523 272.234 98.2963H270.477C270.661 97.9523 270.851 97.6083 271.045 97.2695C275.228 89.8091 280.024 82.711 285.383 76.0489C291.309 68.6759 297.879 61.8459 305.014 55.6397C312.103 49.4685 319.712 43.9232 327.755 39.0658C335.831 34.1888 344.323 30.0377 353.13 26.6611C361.677 23.3873 370.501 20.8921 379.494 19.2059C379.745 19.1597 379.991 19.1135 380.242 19.0673C381.2 18.8927 381.611 20.3406 380.683 20.5409Z" fill="white"/>
<path d="M101.296 101.348C104.03 96.1777 104.481 89.4432 101.082 84.6851C99.0586 81.8529 95.8993 79.9937 92.5844 78.945C89.2695 77.8964 85.7725 77.5881 82.3056 77.3333C78.8737 77.081 75.3808 76.8791 72.0284 77.6568C68.676 78.4346 65.4287 80.3346 63.7956 83.3695C61.0367 88.4964 63.5499 95.0705 61.5236 100.53C59.664 105.54 54.3716 108.469 49.1689 109.651C43.9663 110.833 38.5361 110.707 33.3309 111.878C28.1256 113.048 22.8244 115.95 20.9318 120.948C19.5633 124.562 20.2433 128.725 22.0466 132.142C23.8499 135.559 26.6742 138.325 29.6721 140.758C34.1444 144.387 39.3767 147.495 45.1231 147.81C51.1781 148.141 57.0984 145.253 61.4565 141.028C65.8145 136.803 68.7814 131.343 71.1519 125.751C72.6556 122.203 74.0764 118.385 77.09 115.989C79.3044 114.228 82.1208 113.457 84.8522 112.728L87.9451 111.902C90.7477 111.167 93.3706 109.865 95.6525 108.077C97.9344 106.289 99.827 104.052 101.214 101.503C101.241 101.452 101.269 101.4 101.296 101.348Z" fill="#2F2E41"/>
<path d="M76.9035 271.438H70.6218L67.6328 247.158H76.9051L76.9035 271.438Z" fill="#FFB8B8"/>
<path d="M66.1362 269.639H78.2518V277.282H58.5078C58.5078 276.278 58.7051 275.285 59.0885 274.357C59.4718 273.43 60.0337 272.587 60.7421 271.877C61.4505 271.168 62.2914 270.605 63.2169 270.221C64.1424 269.836 65.1344 269.639 66.1362 269.639Z" fill="#2F2E41"/>
<path d="M129.169 271.438H122.887L119.898 247.158H129.171L129.169 271.438Z" fill="#FFB8B8"/>
<path d="M118.402 269.639H130.517V277.282H110.773C110.773 276.278 110.971 275.285 111.354 274.357C111.737 273.43 112.299 272.587 113.008 271.877C113.716 271.168 114.557 270.605 115.483 270.221C116.408 269.836 117.4 269.639 118.402 269.639Z" fill="#2F2E41"/>
<path d="M88.9799 252.14C88.8923 252.14 88.8047 252.136 88.7175 252.126L63.1593 249.382C62.8198 249.346 62.492 249.237 62.1977 249.064C61.9034 248.891 61.6492 248.657 61.4522 248.377C61.2553 248.098 61.1199 247.78 61.0552 247.444C60.9906 247.108 60.998 246.762 61.0772 246.429L83.707 160.187C83.813 159.748 84.0392 159.348 84.3602 159.031C84.6812 158.714 85.0842 158.493 85.5237 158.394L106.517 152.53C106.938 152.437 107.376 152.459 107.785 152.593C108.195 152.727 108.562 152.968 108.847 153.291C122.345 168.545 132.516 202.361 140.221 244.984C140.28 245.305 140.272 245.636 140.198 245.954C140.125 246.273 139.988 246.573 139.795 246.837C139.602 247.1 139.358 247.322 139.077 247.488C138.796 247.654 138.484 247.761 138.161 247.802L117.219 250.482C116.625 250.559 116.024 250.411 115.533 250.066C115.043 249.721 114.699 249.205 114.569 248.619L104.381 203.104C104.287 202.685 104.052 202.311 103.716 202.044C103.38 201.778 102.963 201.635 102.535 201.64C102.106 201.645 101.693 201.798 101.363 202.072C101.033 202.346 100.807 202.725 100.723 203.146L91.3304 250.203C91.224 250.75 90.9313 251.242 90.5024 251.595C90.0735 251.948 89.5352 252.141 88.9799 252.14Z" fill="#2F2E41"/>
<path d="M85.0934 113.19C92.0443 113.19 97.679 107.544 97.679 100.579C97.679 93.6147 92.0443 87.9688 85.0934 87.9688C78.1426 87.9688 72.5078 93.6147 72.5078 100.579C72.5078 107.544 78.1426 113.19 85.0934 113.19Z" fill="#FFB8B8"/>
<path d="M84.7426 160.429C84.2135 160.429 83.6994 160.253 83.2803 159.929C82.8613 159.606 82.5608 159.152 82.4257 158.64L74.8543 130.139C74.3078 128.091 74.5341 125.913 75.4899 124.022C76.4457 122.13 78.0639 120.659 80.0349 119.888C86.1296 117.504 91.9363 116.62 97.2934 117.259C102.055 117.827 107.929 146.072 107.54 146.675L109.419 152.322C109.525 152.643 109.564 152.982 109.531 153.318C109.498 153.654 109.395 153.979 109.229 154.273C109.063 154.567 108.837 154.822 108.565 155.022C108.294 155.223 107.984 155.364 107.655 155.436L85.2648 160.372C85.0933 160.41 84.9182 160.429 84.7426 160.429Z" fill="#CCCCCC"/>
<path d="M91.5259 189.576C91.6338 189.015 91.6175 188.438 91.4784 187.884C91.3393 187.33 91.0806 186.813 90.7207 186.37C90.3607 185.927 89.9082 185.568 89.395 185.32C88.8818 185.071 88.3204 184.938 87.7503 184.93L83.3881 171.75L78.9297 177.417L83.7556 189.064C83.8059 190.024 84.2061 190.933 84.8802 191.618C85.5544 192.302 86.4558 192.715 87.4136 192.778C88.3714 192.841 89.319 192.55 90.077 191.96C90.8349 191.37 91.3504 190.522 91.5259 189.576Z" fill="#FFB8B8"/>
<path d="M147.61 157.901C147.348 157.393 146.979 156.949 146.528 156.599C146.077 156.25 145.555 156.004 144.999 155.878C144.443 155.753 143.866 155.751 143.309 155.873C142.752 155.995 142.229 156.239 141.776 156.585L130.218 148.924L130.207 156.14L141.184 162.309C141.816 163.033 142.691 163.499 143.643 163.62C144.596 163.741 145.559 163.508 146.351 162.964C147.143 162.421 147.709 161.605 147.941 160.672C148.172 159.739 148.055 158.753 147.61 157.901Z" fill="#FFB8B8"/>
<path d="M82.3796 183.486C81.8741 183.486 81.3814 183.327 80.9717 183.03C80.5619 182.733 80.256 182.315 80.0973 181.834L69.871 160.158C69.4516 158.888 69.238 157.559 69.2383 156.221L72.3128 128.048C72.3127 126.47 72.9134 124.952 73.9924 123.804C75.0713 122.655 76.5471 121.962 78.1185 121.867C79.6898 121.771 81.2383 122.281 82.4477 123.29C83.6572 124.3 84.4364 125.734 84.6263 127.3L79.9224 159.457L87.4287 179.194C87.5475 179.719 87.4869 180.269 87.2566 180.755C87.0263 181.242 86.6397 181.637 86.1588 181.877L83.4542 183.232C83.1205 183.399 82.7526 183.486 82.3796 183.486Z" fill="#CCCCCC"/>
<path d="M136.995 160.746C136.618 160.746 136.247 160.658 135.911 160.487L115.574 150.194C114.382 149.592 113.294 148.801 112.352 147.853L92.502 127.899C91.3906 126.782 90.7468 125.282 90.7017 123.705C90.6567 122.129 91.214 120.594 92.2598 119.415C93.3055 118.236 94.7609 117.502 96.3289 117.361C97.8969 117.221 99.4591 117.686 100.697 118.661L122.199 142.588L139.244 153.432C139.698 153.72 140.043 154.152 140.222 154.66C140.402 155.167 140.406 155.72 140.235 156.23L139.274 159.103C139.113 159.582 138.807 159.998 138.398 160.293C137.989 160.587 137.499 160.746 136.995 160.746Z" fill="#CCCCCC"/>
<path d="M70.7773 94.0606C72.9152 96.8629 75.9883 98.8005 79.4348 99.5191C82.9281 100.242 86.5639 99.7204 89.714 98.0434C92.2487 96.6711 94.2771 94.6115 96.2638 92.5838C97.0929 91.7376 97.976 90.7616 97.9343 89.6071C97.8696 87.8185 95.7236 86.8406 93.8817 86.4505C87.8358 85.1868 81.5449 85.8956 75.9302 88.4734C73.4296 89.6372 70.8242 91.7429 71.1997 94.3604" fill="#2F2E41"/>
<path d="M401.288 97.2695H154.301C151.992 97.2728 149.778 98.1935 148.145 99.8297C146.512 101.466 145.593 103.684 145.59 105.998V201.498C145.593 203.812 146.512 206.03 148.145 207.666C149.778 209.303 151.992 210.223 154.301 210.226H401.288C403.598 210.223 405.811 209.303 407.444 207.666C409.077 206.03 409.996 203.812 409.999 201.498V105.998C409.996 103.684 409.077 101.466 407.444 99.8297C405.811 98.1935 403.598 97.2728 401.288 97.2695ZM408.975 201.498C408.972 203.54 408.162 205.497 406.721 206.941C405.28 208.385 403.326 209.197 401.288 209.2H154.301C152.263 209.197 150.31 208.385 148.869 206.941C147.428 205.497 146.617 203.54 146.615 201.498V105.998C146.617 103.956 147.428 101.999 148.869 100.555C150.31 99.1111 152.263 98.2989 154.301 98.2964H401.288C403.326 98.2989 405.28 99.1111 406.721 100.555C408.162 101.999 408.972 103.956 408.975 105.998V201.498Z" fill="#3F3D56"/>
<path d="M199.146 183.527C193.268 183.527 187.522 181.78 182.634 178.508C177.747 175.236 173.938 170.585 171.688 165.143C169.439 159.702 168.85 153.714 169.997 147.938C171.144 142.161 173.974 136.855 178.131 132.69C182.287 128.525 187.583 125.689 193.348 124.54C199.113 123.391 205.089 123.981 210.52 126.235C215.95 128.489 220.592 132.305 223.858 137.203C227.124 142.1 228.867 147.858 228.867 153.747C228.858 161.643 225.724 169.212 220.152 174.795C214.58 180.378 207.026 183.518 199.146 183.527ZM199.146 124.995C193.471 124.995 187.923 126.681 183.204 129.84C178.485 133 174.807 137.49 172.635 142.744C170.463 147.998 169.895 153.779 171.002 159.357C172.109 164.934 174.842 170.057 178.855 174.079C182.869 178.1 187.982 180.838 193.548 181.948C199.114 183.057 204.884 182.488 210.128 180.311C215.371 178.135 219.853 174.45 223.006 169.721C226.159 164.993 227.842 159.434 227.842 153.747C227.833 146.124 224.807 138.816 219.428 133.426C214.048 128.035 206.754 125.003 199.146 124.995Z" fill="#3F3D56"/>
<path d="M379.248 134.75H260.878C259.224 134.751 257.634 135.394 256.442 136.543C255.25 137.693 254.548 139.26 254.483 140.916C254.475 141 254.471 141.084 254.473 141.168C254.475 142.869 255.151 144.5 256.352 145.704C257.552 146.907 259.18 147.584 260.878 147.586H379.248C380.947 147.586 382.576 146.91 383.777 145.706C384.978 144.503 385.653 142.87 385.653 141.168C385.653 139.466 384.978 137.833 383.777 136.63C382.576 135.426 380.947 134.75 379.248 134.75Z" fill="#007DCF"/>
<path d="M379.248 159.908H260.878C259.224 159.909 257.634 160.552 256.442 161.701C255.25 162.851 254.548 164.418 254.483 166.075C254.475 166.158 254.471 166.242 254.473 166.326C254.475 168.028 255.151 169.659 256.352 170.862C257.552 172.065 259.18 172.742 260.878 172.744H379.248C380.947 172.744 382.576 172.068 383.777 170.864C384.978 169.661 385.653 168.028 385.653 166.326C385.653 164.624 384.978 162.992 383.777 161.788C382.576 160.584 380.947 159.908 379.248 159.908Z" fill="#007DCF"/>
<path d="M195.831 166.759C195.002 166.76 194.195 166.492 193.531 165.993L193.49 165.962L184.828 159.317C184.427 159.009 184.09 158.625 183.837 158.187C183.584 157.748 183.42 157.264 183.354 156.762C183.287 156.26 183.32 155.75 183.451 155.261C183.581 154.772 183.807 154.313 184.114 153.911C184.421 153.509 184.805 153.172 185.242 152.918C185.68 152.665 186.163 152.5 186.664 152.434C187.165 152.367 187.674 152.4 188.162 152.531C188.65 152.662 189.108 152.888 189.509 153.196L195.12 157.506L208.378 140.181C208.686 139.779 209.069 139.442 209.507 139.188C209.945 138.935 210.428 138.77 210.929 138.704C211.43 138.638 211.939 138.671 212.427 138.802C212.915 138.933 213.373 139.159 213.774 139.467L213.692 139.579L213.776 139.469C214.585 140.092 215.114 141.011 215.248 142.024C215.381 143.038 215.108 144.063 214.488 144.875L198.893 165.254C198.532 165.724 198.068 166.104 197.537 166.365C197.006 166.625 196.423 166.76 195.831 166.759Z" fill="#007DCF"/>
<path d="M195.745 278H0.512422C0.376519 278 0.246182 277.945 0.150084 277.849C0.0539868 277.753 0 277.622 0 277.486C0 277.35 0.0539868 277.219 0.150084 277.123C0.246182 277.027 0.376519 276.973 0.512422 276.973H195.745C195.881 276.973 196.011 277.027 196.107 277.123C196.204 277.219 196.258 277.35 196.258 277.486C196.258 277.622 196.204 277.753 196.107 277.849C196.011 277.945 195.881 278 195.745 278Z" fill="#3F3D56"/>
<path d="M350.115 74.1378C339.411 72.6625 328.54 72.9081 317.912 74.8653C307.316 76.8063 297.086 80.3901 287.591 85.4876C282.255 88.3606 277.19 91.7133 272.459 95.5044C271.687 96.123 272.781 97.2066 273.547 96.5936C281.847 89.9773 291.153 84.7362 301.108 81.0695C310.985 77.4092 321.367 75.2989 331.886 74.8131C337.839 74.5392 343.804 74.8103 349.707 75.6231C349.903 75.6702 350.11 75.6409 350.285 75.541C350.461 75.4411 350.592 75.2782 350.652 75.0852C350.705 74.8882 350.679 74.6783 350.578 74.501C350.478 74.3236 350.311 74.1931 350.115 74.1378Z" fill="white"/>
</g>
<defs>
<clipPath id="clip0_8396_13021">
<rect width="410" height="278" fill="white"/>
</clipPath>
</defs>
</svg>
