<svg width="300" height="263" viewBox="0 0 300 263" fill="none" xmlns="http://www.w3.org/2000/svg">
<g clip-path="url(#clip0_8485_25695)">
<path d="M14.4757 89.6224L0.0104871 81.4613C-0.184633 72.7298 1.75104 64.0825 5.64942 56.2704C8.98445 71.4327 26.5356 78.6465 34.6334 91.8851C37.1275 96.0335 38.6577 100.691 39.1105 105.512C39.5633 110.333 38.9272 115.195 37.2494 119.737L38.2007 131.492C30.7246 129.249 23.8228 125.41 17.9708 120.237C12.1188 115.065 7.45579 108.684 4.30301 101.533C2.57399 97.5034 1.35841 93.2721 0.684958 88.9385C7.42928 89.6574 14.4757 89.6224 14.4757 89.6224Z" fill="#F2F2F2"/>
<path d="M274.513 238.094L274.956 228.104C279.58 225.628 284.737 224.321 289.98 224.295C282.765 230.204 283.666 241.595 278.774 249.542C277.229 252.009 275.15 254.096 272.691 255.649C270.231 257.201 267.454 258.179 264.566 258.511L258.528 262.214C257.699 257.587 257.882 252.835 259.063 248.286C260.244 243.736 262.396 239.497 265.371 235.861C267.059 233.838 268.996 232.036 271.134 230.497C272.58 234.317 274.513 238.094 274.513 238.094Z" fill="#F2F2F2"/>
<path d="M258.954 257.073L253.486 257.073L250.885 235.947L258.955 235.947L258.954 257.073Z" fill="#FFB6B6"/>
<path d="M260.348 262.382L242.718 262.381V262.158C242.718 260.335 243.441 258.587 244.728 257.298C246.015 256.009 247.76 255.284 249.58 255.284L252.801 252.837L258.81 255.285L260.349 255.285L260.348 262.382Z" fill="#2F2E41"/>
<path d="M233.551 257.073L228.084 257.073L225.482 235.947L233.553 235.947L233.551 257.073Z" fill="#FFB6B6"/>
<path d="M234.946 262.382L217.315 262.381V262.158C217.316 260.335 218.039 258.587 219.325 257.298C220.612 256.009 222.358 255.284 224.178 255.284L227.399 252.837L233.407 255.285L234.946 255.285L234.946 262.382Z" fill="#2F2E41"/>
<path d="M231.184 141.578L266.749 142.468C273.504 146.143 273.606 154.097 271.393 163.541C271.393 163.541 272.14 169.153 270.646 170.65C269.152 172.147 268.405 172.147 269.152 174.766C269.899 177.386 265.952 181.664 266.431 182.144C266.91 182.624 268.031 185.244 268.031 185.244L264.295 206.573C264.295 206.573 261.681 243.618 260.933 244.366C260.186 245.115 259.439 244.366 260.186 246.237C260.933 248.108 261.681 247.36 260.933 248.108C260.272 248.823 259.648 249.573 259.066 250.354H250.034C250.034 250.354 249.353 246.612 249.353 246.237C249.353 245.863 248.606 243.618 248.606 243.244C248.606 242.87 249.266 242.208 249.266 242.208C249.494 241.448 249.648 240.667 249.726 239.876C249.726 239.128 251.968 210.315 251.968 210.315L247.485 172.895L236.652 209.566C236.652 209.566 236.652 241.747 235.904 242.495C235.157 243.244 235.157 242.87 235.531 244.366C235.904 245.863 237.399 245.489 236.278 246.612C235.157 247.734 234.784 245.863 235.157 247.734L235.531 249.605L224.324 249.766C224.324 249.766 222.83 246.612 223.577 245.489C224.324 244.366 224.279 244.673 223.368 242.836C222.456 240.999 222.082 240.625 222.456 240.25C222.83 239.876 222.83 237.886 222.83 237.886L224.697 202.083C224.697 202.083 225.071 164.289 225.071 163.166C225.099 162.589 224.993 162.012 224.761 161.483V159.959L226.192 154.56L231.184 141.578Z" fill="#2F2E41"/>
<path d="M252.548 67.5015C258.651 67.5015 263.599 62.5458 263.599 56.4326C263.599 50.3195 258.651 45.3638 252.548 45.3638C246.445 45.3638 241.498 50.3195 241.498 56.4326C241.498 62.5458 246.445 67.5015 252.548 67.5015Z" fill="#FFB6B6"/>
<path d="M247.023 74.8172C244.643 76.2349 243.219 78.8397 242.401 81.4902C240.888 86.3975 239.977 91.4712 239.688 96.5992L238.825 111.951L228.131 144.641C237.399 152.496 272.236 146.426 272.236 146.426C272.236 146.426 273.305 146.069 272.236 144.998C271.166 143.926 270.125 144.875 271.195 143.804C272.264 142.733 271.527 143.926 271.17 142.855C270.814 141.784 271.17 142.498 271.527 142.141C271.883 141.784 268.767 138.571 268.767 138.571L271.619 119.807L275.184 81.9583C270.906 76.6024 262.303 73.4452 262.303 73.4452L260.081 69.4374L248.967 70.328L247.023 74.8172Z" fill="#E6E6E6"/>
<path d="M245.508 49.9365C245.936 49.9399 246.361 49.9958 246.775 50.1031C247.591 50.2996 248.42 50.4388 249.255 50.5197C251.813 50.7608 254.217 51.8536 256.083 53.6236C257.948 55.3936 259.167 57.7387 259.546 60.2843C260.188 59.7236 261.649 58.692 262.847 59.6507C262.865 59.6659 262.876 59.6738 262.918 59.6538C263.713 59.2759 265.125 54.624 265.168 50.5282C265.19 48.3542 264.849 45.5782 263.093 44.6991L263.001 44.6528L262.977 44.5521C262.859 44.0631 261.549 43.2284 259.272 42.5787C255.134 41.398 248.965 39.098 245.492 42.4828C245.229 43.6239 244.374 46.0659 243.51 46.3427C242.553 46.6491 241.727 46.9135 241.597 48.089C241.488 49.7617 241.496 51.4401 241.62 53.1117C241.944 52.0888 242.581 51.1935 243.44 50.5519C244.05 50.1401 244.772 49.9253 245.508 49.9365Z" fill="#2F2E41"/>
<path d="M224.94 111.097L242.991 99.5172L233.899 87.4113L224.922 98.4728L196.951 100.191C196.215 99.4627 195.283 98.9644 194.27 98.757C193.256 98.5496 192.204 98.6421 191.242 99.0232C190.28 99.4043 189.45 100.058 188.852 100.903C188.254 101.749 187.915 102.751 187.876 103.786C187.837 104.822 188.099 105.846 188.631 106.735C189.163 107.623 189.942 108.338 190.872 108.791C191.802 109.244 192.844 109.416 193.871 109.286C194.897 109.157 195.863 108.731 196.652 108.06L224.94 111.097Z" fill="#FFB6B6"/>
<path d="M259.744 83.3545C260.792 89.7053 241.008 101.833 241.008 101.833C241.007 100.342 229.199 111.596 228.666 110.359C227.151 106.846 226.086 98.5234 223.97 97.1914C222.759 96.4296 231.26 89.2734 231.26 89.2734C231.26 89.2734 235.71 84.783 241.549 79.119C243.171 77.487 245.178 76.2924 247.384 75.6465C249.59 75.0005 251.924 74.9242 254.167 75.4246C254.167 75.4246 258.696 77.0036 259.744 83.3545Z" fill="#E6E6E6"/>
<path d="M296.95 114.136L285.01 96.3044L273.12 105.666L284.351 114.422L286.658 142.398C285.947 143.15 285.469 144.093 285.283 145.112C285.098 146.132 285.212 147.183 285.613 148.139C286.014 149.094 286.684 149.912 287.54 150.493C288.397 151.073 289.404 151.392 290.438 151.409C291.473 151.427 292.49 151.142 293.365 150.591C294.241 150.039 294.938 149.244 295.37 148.303C295.803 147.361 295.953 146.314 295.801 145.289C295.65 144.264 295.204 143.305 294.518 142.53L296.95 114.136Z" fill="#FFB6B6"/>
<path d="M268.524 79.8689C274.84 78.6853 287.364 98.2413 287.364 98.2413C285.876 98.2732 297.358 109.86 296.135 110.42C292.66 112.012 284.376 113.254 283.092 115.402C282.357 116.631 275.034 108.269 275.034 108.269C275.034 108.269 270.458 103.908 264.681 98.1796C263.018 96.5905 261.783 94.6057 261.092 92.4101C260.401 90.2144 260.275 87.8792 260.727 85.6218C260.727 85.6218 262.207 81.0525 268.524 79.8689Z" fill="#E6E6E6"/>
<path d="M300 262.47C300 262.54 299.987 262.609 299.96 262.673C299.934 262.737 299.895 262.796 299.845 262.845C299.796 262.894 299.738 262.934 299.674 262.96C299.609 262.987 299.54 263 299.471 263H174.864C174.724 263 174.589 262.944 174.49 262.845C174.391 262.745 174.335 262.611 174.335 262.47C174.335 262.33 174.391 262.195 174.49 262.095C174.589 261.996 174.724 261.94 174.864 261.94H299.471C299.54 261.94 299.609 261.953 299.674 261.98C299.738 262.007 299.796 262.046 299.845 262.095C299.895 262.144 299.934 262.203 299.96 262.267C299.987 262.331 300 262.4 300 262.47Z" fill="#CCCCCC"/>
<path d="M184.566 101.884H33.3384C30.9757 101.886 28.7105 102.828 27.0399 104.501C25.3692 106.175 24.4294 108.443 24.4268 110.81V205.122C24.4294 207.488 25.3692 209.757 27.0399 211.431C28.7106 213.104 30.9757 214.046 33.3384 214.048H184.566C186.928 214.046 189.194 213.104 190.864 211.431C192.535 209.757 193.475 207.488 193.477 205.122V110.81C193.475 108.443 192.535 106.174 190.864 104.501C189.194 102.828 186.929 101.886 184.566 101.884Z" fill="#007DCF"/>
<path d="M184.566 101.884H33.3384C30.9757 101.886 28.7105 102.828 27.0399 104.501C25.3692 106.175 24.4294 108.443 24.4268 110.81V205.122C24.4294 207.488 25.3692 209.757 27.0399 211.431C28.7106 213.104 30.9757 214.046 33.3384 214.048H184.566C186.928 214.046 189.194 213.104 190.864 211.431C192.535 209.757 193.475 207.488 193.477 205.122V110.81C193.475 108.443 192.535 106.174 190.864 104.501C189.194 102.828 186.929 101.886 184.566 101.884ZM187.49 169.629C187.454 179.23 183.663 188.435 176.929 195.269C170.196 202.102 161.057 206.02 151.472 206.181C136.128 206.382 159.963 206.46 141.456 206.46C99.1364 206.46 55.0091 206.055 38.5448 205.792C36.3786 205.747 34.3156 204.856 32.7965 203.308C31.2773 201.761 30.4222 199.68 30.4139 197.51V110.817C30.4147 110.04 30.7228 109.295 31.2708 108.745C31.8187 108.194 32.5619 107.884 33.3378 107.881H184.56C185.335 107.882 186.079 108.191 186.628 108.739C187.178 109.288 187.488 110.032 187.49 110.809V169.629Z" fill="#3F3D56"/>
<path d="M165.95 47.5761H50.7308C49.7114 47.5775 48.7173 47.8941 47.8841 48.4826C47.051 49.0711 46.4195 49.9028 46.0758 50.8641L28.281 100.872C28.0154 101.619 27.9326 102.418 28.0395 103.203C28.1464 103.989 28.4399 104.737 28.8954 105.384C29.3508 106.032 29.9549 106.561 30.6568 106.927C31.3587 107.292 32.138 107.484 32.9291 107.485L187.457 107.759H187.464C188.282 107.759 189.087 107.556 189.807 107.168C190.527 106.779 191.139 106.218 191.59 105.534C192.04 104.85 192.313 104.065 192.386 103.249C192.459 102.433 192.328 101.612 192.006 100.859L170.492 50.5763C170.112 49.6854 169.479 48.926 168.671 48.3926C167.864 47.8593 166.918 47.5753 165.95 47.5761Z" fill="#3F3D56"/>
<path d="M192.407 101.945C192.406 102.616 192.27 103.279 192.006 103.896L170.494 142.602C170.111 143.491 169.477 144.248 168.669 144.781C167.862 145.313 166.917 145.598 165.951 145.599H50.7328C49.713 145.598 48.7183 145.282 47.8845 144.694C47.0507 144.106 46.4184 143.274 46.0738 142.313L28.2823 103.882C28.0642 103.27 27.9688 102.621 28.0013 101.972C28.0339 101.322 28.1939 100.686 28.4722 100.099C28.7505 99.5114 29.1416 98.9848 29.6231 98.549C30.1047 98.1132 30.6672 97.7768 31.2787 97.5589C31.8076 97.3676 32.3657 97.2697 32.928 97.2695L51.8042 97.2339L59.5085 97.2205L160.887 97.0424L168.596 97.029L187.459 96.9934H187.463C188.774 96.9936 190.031 97.5154 190.958 98.444C191.885 99.3726 192.406 100.632 192.407 101.945Z" fill="#3F3D56"/>
<path d="M44.676 172.628C46.9608 172.628 78.3357 174.549 78.3357 176.837C78.3357 179.126 46.9608 180.916 44.676 180.916C43.5788 180.916 42.5266 180.479 41.7507 179.702C40.9749 178.925 40.5391 177.871 40.5391 176.772C40.5391 175.673 40.9749 174.619 41.7507 173.842C42.5266 173.065 43.5788 172.628 44.676 172.628Z" fill="#3F3D56"/>
<path d="M158.775 17.1536H61.6241C59.0205 17.1566 56.5244 18.1939 54.6834 20.0381C52.8423 21.8822 51.8067 24.3825 51.8037 26.9905V145.599H165.95C166.887 145.602 167.806 145.335 168.595 144.829V26.9905C168.592 24.3825 167.557 21.8822 165.715 20.0381C163.874 18.1939 161.378 17.1566 158.775 17.1536Z" fill="#E6E6E6"/>
<path d="M121.694 25.1292H68.4534C66.0826 25.1315 63.8095 26.0756 62.1327 27.7544C60.4559 29.4332 59.5123 31.7096 59.5088 34.0844V145.599H160.887V64.3878C160.875 53.9794 156.742 44.0008 149.395 36.641C142.047 29.2812 132.085 25.1412 121.694 25.1292Z" fill="white"/>
<path d="M143.616 135.695H76.7799C76.2022 135.695 75.6481 135.925 75.2396 136.334C74.8311 136.744 74.6016 137.299 74.6016 137.877C74.6016 138.456 74.8311 139.011 75.2396 139.42C75.6481 139.829 76.2022 140.059 76.7799 140.059H143.616C144.193 140.059 144.747 139.829 145.156 139.42C145.565 139.011 145.794 138.456 145.794 137.877C145.794 137.299 145.565 136.744 145.156 136.334C144.747 135.925 144.193 135.695 143.616 135.695Z" fill="#E4E4E4"/>
<path d="M143.615 127.065H76.7792C76.2009 127.065 75.6463 127.295 75.2373 127.705C74.8284 128.115 74.5986 128.67 74.5986 129.249C74.5986 129.829 74.8284 130.384 75.2373 130.794C75.6463 131.204 76.2009 131.434 76.7792 131.434H143.615C144.193 131.434 144.748 131.204 145.157 130.794C145.566 130.384 145.796 129.829 145.796 129.249C145.796 128.67 145.566 128.115 145.157 127.705C144.748 127.295 144.193 127.065 143.615 127.065Z" fill="#E4E4E4"/>
<path d="M105.752 118.44H76.7799C76.2022 118.44 75.6481 118.669 75.2396 119.079C74.8311 119.488 74.6016 120.043 74.6016 120.622C74.6016 121.2 74.8311 121.755 75.2396 122.165C75.6481 122.574 76.2022 122.804 76.7799 122.804H105.752C106.33 122.804 106.884 122.574 107.293 122.165C107.701 121.755 107.931 121.2 107.931 120.622C107.931 120.043 107.701 119.488 107.293 119.079C106.884 118.669 106.33 118.44 105.752 118.44Z" fill="#E4E4E4"/>
<path d="M143.615 100.369H76.7792C76.2009 100.369 75.6463 100.599 75.2373 101.009C74.8284 101.418 74.5986 101.974 74.5986 102.553C74.5986 103.132 74.8284 103.688 75.2373 104.098C75.6463 104.507 76.2009 104.737 76.7792 104.737H143.615C144.193 104.737 144.748 104.507 145.157 104.098C145.566 103.688 145.796 103.132 145.796 102.553C145.796 101.974 145.566 101.418 145.157 101.009C144.748 100.599 144.193 100.369 143.615 100.369Z" fill="#E4E4E4"/>
<path d="M143.616 91.7432H76.7799C76.2022 91.7432 75.6481 91.9731 75.2396 92.3823C74.8311 92.7915 74.6016 93.3465 74.6016 93.9252C74.6016 94.5039 74.8311 95.0589 75.2396 95.4681C75.6481 95.8773 76.2022 96.1072 76.7799 96.1072H143.616C144.193 96.1072 144.747 95.8773 145.156 95.4681C145.565 95.0589 145.794 94.5039 145.794 93.9252C145.794 93.3465 145.565 92.7915 145.156 92.3823C144.747 91.9731 144.193 91.7432 143.616 91.7432Z" fill="#E4E4E4"/>
<path d="M105.751 83.113H76.7792C76.2009 83.113 75.6463 83.3432 75.2373 83.7528C74.8284 84.1624 74.5986 84.718 74.5986 85.2973C74.5986 85.8766 74.8284 86.4322 75.2373 86.8418C75.6463 87.2514 76.2009 87.4815 76.7792 87.4815H105.751C106.33 87.4815 106.884 87.2514 107.293 86.8418C107.702 86.4322 107.932 85.8766 107.932 85.2973C107.932 84.718 107.702 84.1624 107.293 83.7528C106.884 83.3432 106.33 83.113 105.751 83.113Z" fill="#E4E4E4"/>
<path d="M143.615 65.0424H76.7792C76.2009 65.0424 75.6463 65.2725 75.2373 65.6821C74.8284 66.0917 74.5986 66.6473 74.5986 67.2266C74.5986 67.8059 74.8284 68.3615 75.2373 68.7711C75.6463 69.1807 76.2009 69.4109 76.7792 69.4109H143.615C144.193 69.4109 144.748 69.1807 145.157 68.7711C145.566 68.3615 145.796 67.8059 145.796 67.2266C145.796 66.6473 145.566 66.0917 145.157 65.6821C144.748 65.2725 144.193 65.0424 143.615 65.0424Z" fill="#007DCF"/>
<path d="M143.615 56.4166H76.7792C76.2009 56.4166 75.6463 56.6468 75.2373 57.0564C74.8284 57.466 74.5986 58.0216 74.5986 58.6009C74.5986 59.1802 74.8284 59.7357 75.2373 60.1454C75.6463 60.555 76.2009 60.7851 76.7792 60.7851H143.615C144.193 60.7851 144.748 60.555 145.157 60.1454C145.566 59.7357 145.796 59.1802 145.796 58.6009C145.796 58.0216 145.566 57.466 145.157 57.0564C144.748 56.6468 144.193 56.4166 143.615 56.4166Z" fill="#007DCF"/>
<path d="M105.751 47.7865H76.7792C76.2009 47.7865 75.6463 48.0166 75.2373 48.4263C74.8284 48.8359 74.5986 49.3914 74.5986 49.9707C74.5986 50.55 74.8284 51.1056 75.2373 51.5152C75.6463 51.9249 76.2009 52.155 76.7792 52.155H105.751C106.33 52.155 106.884 51.9249 107.293 51.5152C107.702 51.1056 107.932 50.55 107.932 49.9707C107.932 49.3914 107.702 48.8359 107.293 48.4263C106.884 48.0166 106.33 47.7865 105.751 47.7865Z" fill="#007DCF"/>
<path d="M164.953 33.9886C174.323 33.9886 181.919 26.38 181.919 16.9943C181.919 7.60862 174.323 0 164.953 0C155.583 0 147.987 7.60862 147.987 16.9943C147.987 26.38 155.583 33.9886 164.953 33.9886Z" fill="#007DCF"/>
<path d="M162.639 25.8391C162.346 25.8391 162.057 25.7708 161.795 25.6395C161.533 25.5082 161.305 25.3176 161.129 25.0828L156.501 18.9009C156.351 18.7024 156.242 18.4763 156.18 18.2355C156.118 17.9947 156.104 17.744 156.139 17.4978C156.174 17.2516 156.256 17.0147 156.383 16.8006C156.509 16.5865 156.676 16.3995 156.875 16.2503C157.074 16.1011 157.3 15.9927 157.54 15.9311C157.781 15.8696 158.031 15.8562 158.277 15.8917C158.523 15.9272 158.759 16.0109 158.972 16.1381C159.186 16.2652 159.372 16.4333 159.52 16.6326L162.548 20.6766L170.326 8.9911C170.603 8.57393 171.035 8.28434 171.526 8.18601C172.017 8.08768 172.526 8.18869 172.943 8.4668C173.359 8.74491 173.648 9.17734 173.747 9.66898C173.845 10.1606 173.744 10.6712 173.466 11.0883L164.209 24.9973C164.042 25.2488 163.817 25.4565 163.552 25.6029C163.288 25.7492 162.993 25.83 162.691 25.8385C162.674 25.8388 162.656 25.8391 162.639 25.8391Z" fill="white"/>
</g>
<defs>
<clipPath id="clip0_8485_25695">
<rect width="300" height="263" fill="white"/>
</clipPath>
</defs>
</svg>
