<svg width="275" height="171" viewBox="0 0 275 171" fill="none" xmlns="http://www.w3.org/2000/svg">
<g clip-path="url(#clip0_7110_6350)">
<path d="M19.0841 158.405C20.3382 158.848 21.6847 158.958 22.9939 158.727C24.3031 158.495 25.5308 157.929 26.5588 157.083C29.1768 154.876 29.9986 151.241 30.6655 147.874L32.6408 137.918L28.5052 140.778C25.5309 142.834 22.4899 144.957 20.4305 147.936C18.371 150.914 17.4722 154.981 19.1267 158.204" fill="#E6E6E6"/>
<path d="M19.4377 170.459C19.0192 167.397 18.5887 164.296 18.8823 161.202C19.1431 158.453 19.9779 155.769 21.6781 153.568C22.5804 152.401 23.6784 151.402 24.9227 150.615C25.2473 150.41 25.5457 150.926 25.2228 151.13C23.0699 152.497 21.4047 154.514 20.4673 156.892C19.4319 159.537 19.2657 162.419 19.4456 165.228C19.5535 166.927 19.7821 168.614 20.0126 170.3C20.0312 170.377 20.02 170.457 19.9814 170.526C19.9428 170.594 19.8796 170.645 19.8049 170.668C19.7288 170.688 19.6478 170.678 19.5793 170.639C19.5108 170.6 19.4604 170.535 19.4391 170.459L19.4377 170.459Z" fill="#F2F2F2"/>
<path d="M102.378 104.49C102.074 104.635 101.743 104.713 101.407 104.72L70.2077 105.58C68.9091 105.608 67.6525 105.117 66.7144 104.215C65.7762 103.313 65.2332 102.074 65.205 100.77C65.1768 99.4657 65.6656 98.2038 66.5638 97.2617C67.4621 96.3196 68.6962 95.7743 69.9948 95.746L101.194 94.8863C101.826 94.8731 102.437 95.1122 102.894 95.5512C103.35 95.9901 103.615 96.593 103.629 97.2275L103.739 102.274C103.748 102.736 103.625 103.191 103.384 103.584C103.142 103.977 102.793 104.292 102.378 104.49Z" fill="#007DCF"/>
<path d="M62.3456 170.523H57.3189C56.6868 170.522 56.0808 170.27 55.6339 169.821C55.1869 169.372 54.9355 168.764 54.9348 168.129V126.057C54.9355 125.422 55.1869 124.814 55.6339 124.365C56.0808 123.916 56.6868 123.664 57.3189 123.663H62.3456C62.9777 123.664 63.5837 123.916 64.0306 124.365C64.4775 124.814 64.729 125.422 64.7297 126.057V168.129C64.729 168.764 64.4775 169.372 64.0306 169.821C63.5837 170.27 62.9777 170.522 62.3456 170.523Z" fill="#007DCF"/>
<path d="M75.6936 170.523H70.6668C70.0347 170.522 69.4287 170.27 68.9818 169.821C68.5348 169.372 68.2834 168.764 68.2827 168.129V126.057C68.2834 125.422 68.5348 124.814 68.9818 124.365C69.4287 123.916 70.0347 123.664 70.6668 123.663H75.6936C76.3257 123.664 76.9316 123.916 77.3786 124.365C77.8255 124.814 78.0769 125.422 78.0776 126.057V168.129C78.0769 168.764 77.8255 169.372 77.3786 169.821C76.9316 170.27 76.3257 170.522 75.6936 170.523Z" fill="#007DCF"/>
<path d="M66.9969 79.9271C76.5898 79.9271 84.3663 72.1178 84.3663 62.4845C84.3663 52.8513 76.5898 45.042 66.9969 45.042C57.404 45.042 49.6274 52.8513 49.6274 62.4845C49.6274 72.1178 57.404 79.9271 66.9969 79.9271Z" fill="#007DCF"/>
<path d="M72.8927 138.582H60.3971C57.8004 138.592 55.2472 137.912 52.996 136.613C50.7447 135.313 48.8753 133.44 47.577 131.181C46.2786 128.923 45.5974 126.36 45.6023 123.753C45.6072 121.145 46.2981 118.585 47.6049 116.332L65.0797 85.9372C65.274 85.5993 65.5534 85.3186 65.89 85.1235C66.2265 84.9284 66.6082 84.8257 66.9968 84.8257C67.3854 84.8257 67.7672 84.9284 68.1037 85.1235C68.4402 85.3186 68.7197 85.5993 68.914 85.9372L86.0369 115.72C87.369 118.037 88.0702 120.665 88.0702 123.34C88.0702 126.016 87.3689 128.644 86.0368 130.961C84.7047 133.278 82.7887 135.202 80.4814 136.54C78.1742 137.878 75.5569 138.582 72.8927 138.582Z" fill="#2F2E41"/>
<path d="M71.0966 69.8064C72.2225 69.775 73.6238 69.7357 74.7033 68.9438C75.0247 68.6983 75.2889 68.3852 75.4771 68.0265C75.6654 67.6677 75.7732 67.2719 75.7932 66.8669C75.8127 66.579 75.7657 66.2905 75.6557 66.0239C75.5458 65.7573 75.376 65.5199 75.1596 65.3301C74.5957 64.8517 73.7724 64.7395 72.8851 65.0013L73.8044 58.255L73.1296 58.1621L72.0488 66.0933L72.6124 65.8336C73.2657 65.5327 74.1626 65.3796 74.7199 65.8525C74.8567 65.9762 74.9633 66.1298 75.0314 66.3016C75.0995 66.4733 75.1272 66.6585 75.1125 66.8428C75.0959 67.1443 75.015 67.4386 74.875 67.7058C74.7351 67.9731 74.5395 68.2069 74.3015 68.3914C73.4614 69.0076 72.3444 69.0871 71.0776 69.1227L71.0966 69.8064Z" fill="#2F2E41"/>
<path d="M80.8104 58.8369H77.1418V59.5209H80.8104V58.8369Z" fill="#2F2E41"/>
<path d="M69.2308 58.8369H65.5623V59.5209H69.2308V58.8369Z" fill="#2F2E41"/>
<path d="M62.9113 134.681C62.767 134.376 62.6891 134.043 62.6829 133.706L61.8266 102.375C61.7984 101.071 62.2871 99.8091 63.1854 98.8669C64.0837 97.9248 65.3178 97.3796 66.6164 97.3513C67.9149 97.3229 69.1715 97.8138 70.1097 98.7158C71.0479 99.6178 71.5908 100.857 71.619 102.161L72.4752 133.492C72.4882 134.126 72.2501 134.74 71.813 135.199C71.3759 135.657 70.7756 135.923 70.1437 135.937L65.1182 136.047C64.6584 136.057 64.2056 135.933 63.8142 135.691C63.4227 135.448 63.1092 135.097 62.9113 134.681Z" fill="#007DCF"/>
<path d="M65.3854 49.5909C67.4957 52.3623 70.8459 54.2215 74.3866 53.7813C77.7585 53.3621 80.5401 51.002 81.238 47.6232C81.5427 46.0257 81.4605 44.3781 80.9984 42.8192C80.5363 41.2603 79.7077 39.8358 78.5827 38.6657C76.1961 36.145 72.7805 34.7891 69.3996 34.3241C62.9953 33.4433 56.4178 35.7087 51.5755 39.9338C49.1437 42.0344 47.2027 44.6471 45.8904 47.5864C44.6263 50.5039 44.0242 53.6672 44.1279 56.8472C44.314 63.1317 47.0552 69.4041 51.785 73.5718C52.3724 74.0878 52.9873 74.5714 53.6269 75.0205C54.1663 75.4005 54.6774 74.5114 54.1425 74.1346C49.2989 70.7223 46.2093 65.1701 45.3613 59.3363C44.9172 56.3969 45.1152 53.3956 45.9417 50.5408C46.7681 47.6859 48.2032 45.0458 50.1474 42.8036C54.0586 38.3376 59.7934 35.4349 65.7331 35.1748C71.7099 34.9131 79.1788 37.5926 80.2973 44.2738C80.7986 47.2683 79.6839 50.416 76.9513 51.9152C74.0255 53.5204 70.438 52.8598 67.9237 50.7868C67.3081 50.2812 66.7524 49.7061 66.2676 49.073C65.8736 48.5555 64.9857 49.066 65.3854 49.5909Z" fill="#2F2E41"/>
<path d="M241.147 4.0481L93.7783 25.4263L103.88 95.6497L251.249 74.2715L241.147 4.0481Z" fill="#F1F1F1"/>
<path d="M237.8 10.6813L98.8586 30.8369L107.287 89.4265L246.228 69.271L237.8 10.6813Z" fill="white"/>
<path d="M240.501 -0.000236862L93.1318 21.3779L94.0362 27.665L241.405 6.28679L240.501 -0.000236862Z" fill="#E5E5E5"/>
<path d="M98.316 25.5774C98.9635 25.5774 99.4884 25.0503 99.4884 24.4C99.4884 23.7498 98.9635 23.2227 98.316 23.2227C97.6685 23.2227 97.1436 23.7498 97.1436 24.4C97.1436 25.0503 97.6685 25.5774 98.316 25.5774Z" fill="white"/>
<path d="M102.721 24.9387C103.368 24.9387 103.893 24.4116 103.893 23.7614C103.893 23.1111 103.368 22.584 102.721 22.584C102.073 22.584 101.548 23.1111 101.548 23.7614C101.548 24.4116 102.073 24.9387 102.721 24.9387Z" fill="white"/>
<path d="M107.125 24.2996C107.773 24.2996 108.298 23.7724 108.298 23.1222C108.298 22.472 107.773 21.9448 107.125 21.9448C106.478 21.9448 105.953 22.472 105.953 23.1222C105.953 23.7724 106.478 24.2996 107.125 24.2996Z" fill="white"/>
<path d="M275 34.2637H126.101V105.216H275V34.2637Z" fill="#E6E6E6"/>
<path d="M270.742 40.3481H130.359V99.5459H270.742V40.3481Z" fill="white"/>
<path d="M274.936 30.1646H126.038V36.5168H274.936V30.1646Z" fill="#CBCBCB"/>
<path d="M130.739 35.0769C131.386 35.0769 131.911 34.5498 131.911 33.8995C131.911 33.2493 131.386 32.7222 130.739 32.7222C130.091 32.7222 129.566 33.2493 129.566 33.8995C129.566 34.5498 130.091 35.0769 130.739 35.0769Z" fill="white"/>
<path d="M135.189 35.0769C135.836 35.0769 136.361 34.5498 136.361 33.8995C136.361 33.2493 135.836 32.7222 135.189 32.7222C134.541 32.7222 134.016 33.2493 134.016 33.8995C134.016 34.5498 134.541 35.0769 135.189 35.0769Z" fill="white"/>
<path d="M139.639 35.0769C140.287 35.0769 140.812 34.5498 140.812 33.8995C140.812 33.2493 140.287 32.7222 139.639 32.7222C138.992 32.7222 138.467 33.2493 138.467 33.8995C138.467 34.5498 138.992 35.0769 139.639 35.0769Z" fill="white"/>
<path d="M231.023 49.3481H211.252V50.8405H231.023V49.3481Z" fill="#E6E6E6"/>
<path d="M241.783 53.729H211.252V55.2213H241.783V53.729Z" fill="#E6E6E6"/>
<path d="M236.452 57.9014H211.57V59.3937H236.452V57.9014Z" fill="#E6E6E6"/>
<path d="M225.778 62.4795H211.252V63.9718H225.778V62.4795Z" fill="#E6E6E6"/>
<path d="M233.175 66.9512H211.252V68.4435H233.175V66.9512Z" fill="#E6E6E6"/>
<path d="M204.662 48.8789H202.241V51.3101H204.662V48.8789Z" fill="#E6E6E6"/>
<path d="M204.662 53.2598H202.241V55.6909H204.662V53.2598Z" fill="#E6E6E6"/>
<path d="M204.662 57.4321H202.241V59.8633H204.662V57.4321Z" fill="#E6E6E6"/>
<path d="M204.662 62.0098H202.241V64.4409H204.662V62.0098Z" fill="#E6E6E6"/>
<path d="M204.662 66.4814H202.241V68.9126H204.662V66.4814Z" fill="#E6E6E6"/>
<path d="M231.023 71.4507H211.252V72.943H231.023V71.4507Z" fill="#E6E6E6"/>
<path d="M241.783 75.8315H211.252V77.3238H241.783V75.8315Z" fill="#E6E6E6"/>
<path d="M236.452 80.0039H211.57V81.4962H236.452V80.0039Z" fill="#E6E6E6"/>
<path d="M225.778 84.5815H211.252V86.0738H225.778V84.5815Z" fill="#E6E6E6"/>
<path d="M233.175 89.0532H211.252V90.5455H233.175V89.0532Z" fill="#E6E6E6"/>
<path d="M204.662 70.981H202.241V73.4121H204.662V70.981Z" fill="#E6E6E6"/>
<path d="M204.662 75.3618H202.241V77.793H204.662V75.3618Z" fill="#E6E6E6"/>
<path d="M204.662 79.5342H202.241V81.9653H204.662V79.5342Z" fill="#E6E6E6"/>
<path d="M204.662 84.1123H202.241V86.5435H204.662V84.1123Z" fill="#E6E6E6"/>
<path d="M204.662 88.584H202.241V91.0151H204.662V88.584Z" fill="#E6E6E6"/>
<path d="M168.478 83.1562H148.706V84.6486H168.478V83.1562Z" fill="#E6E6E6"/>
<path d="M170.943 87.0337H146.061V88.526H170.943V87.0337Z" fill="#E6E6E6"/>
<path d="M171.442 64.3315C171.441 66.5744 170.861 68.7787 169.759 70.7292C168.656 72.6797 167.068 74.3097 165.151 75.46C163.234 76.6102 161.052 77.2415 158.819 77.2921C156.586 77.3426 154.378 76.8108 152.411 75.7485L152.409 75.746C150.399 74.659 148.713 73.0565 147.521 71.1018C146.33 69.1472 145.675 66.9102 145.625 64.6188C145.574 62.3275 146.13 60.0636 147.234 58.058C148.339 56.0524 149.953 54.3766 151.912 53.2015C153.872 52.0264 156.107 51.3939 158.389 51.3685C160.671 51.3431 162.919 51.9257 164.904 53.0569C166.889 54.1881 168.54 55.8275 169.688 57.8081C170.837 59.7887 171.442 62.0396 171.442 64.3315Z" fill="#E6E6E6"/>
<path d="M158.598 63.7021C160.537 63.7021 162.108 62.1243 162.108 60.178C162.108 58.2316 160.537 56.6538 158.598 56.6538C156.66 56.6538 155.089 58.2316 155.089 60.178C155.089 62.1243 156.66 63.7021 158.598 63.7021Z" fill="white"/>
<path d="M164.591 70.9839C160.667 72.3668 156.39 72.3501 152.477 70.9368L152.475 70.935L155.089 65.7524H162.108L164.591 70.9839Z" fill="white"/>
<path d="M119.743 96.5102C113.627 96.5102 108.65 91.2017 108.65 84.6764C108.65 78.1513 113.627 72.8428 119.743 72.8428C125.86 72.8428 130.837 78.1513 130.837 84.6764C130.837 91.2017 125.86 96.5102 119.743 96.5102ZM119.743 75.8328C115.268 75.8328 111.628 79.8 111.628 84.6764C111.628 89.5528 115.268 93.5201 119.743 93.5201C124.218 93.5201 127.859 89.5528 127.859 84.6764C127.859 79.8 124.218 75.8328 119.743 75.8328Z" fill="#007DCF"/>
<path d="M130.248 117.133H109.239C107.386 117.131 105.61 116.391 104.3 115.076C102.989 113.76 102.253 111.976 102.25 110.116V89.4207C102.252 88.1469 102.756 86.9257 103.653 86.025C104.55 85.1243 105.766 84.6177 107.035 84.6162H132.452C133.721 84.6177 134.937 85.1243 135.834 86.025C136.731 86.9257 137.235 88.1469 137.237 89.4207V110.116C137.234 111.976 136.498 113.76 135.187 115.076C133.877 116.391 132.101 117.131 130.248 117.133Z" fill="#3F3D56"/>
<path d="M123.838 96.3899C123.838 95.659 123.645 94.9412 123.277 94.3104C122.91 93.6796 122.381 93.1586 121.747 92.8011C121.112 92.4435 120.394 92.2623 119.666 92.2761C118.938 92.29 118.228 92.4983 117.607 92.8797C116.986 93.2612 116.478 93.8019 116.134 94.4462C115.791 95.0905 115.624 95.8151 115.652 96.5454C115.681 97.2757 115.902 97.9853 116.294 98.6011C116.686 99.2169 117.234 99.7166 117.883 100.049V106.481H121.604V100.049C122.276 99.7049 122.841 99.1812 123.235 98.5355C123.629 97.8898 123.837 97.1472 123.838 96.3899Z" fill="white"/>
<path d="M130.1 171H0.340577C0.25025 171 0.163623 170.964 0.0997525 170.9C0.0358819 170.836 0 170.749 0 170.658C0 170.567 0.0358819 170.48 0.0997525 170.416C0.163623 170.352 0.25025 170.316 0.340577 170.316H130.1C130.191 170.316 130.277 170.352 130.341 170.416C130.405 170.48 130.441 170.567 130.441 170.658C130.441 170.749 130.405 170.836 130.341 170.9C130.277 170.964 130.191 171 130.1 171Z" fill="#3F3D56"/>
</g>
<defs>
<clipPath id="clip0_7110_6350">
<rect width="275" height="171" fill="white"/>
</clipPath>
</defs>
</svg>
