<svg width="18" height="19" viewBox="0 0 18 19" fill="none" xmlns="http://www.w3.org/2000/svg">
<path d="M17.4281 8.32197L9.92813 0.82197C9.80625 0.700079 9.66155 0.603389 9.50231 0.537421C9.34306 0.471453 9.17237 0.4375 9 0.4375C8.82763 0.4375 8.65695 0.471453 8.4977 0.537421C8.33845 0.603389 8.19376 0.700079 8.07188 0.82197L0.571879 8.32197C0.449671 8.44361 0.352781 8.58826 0.286806 8.74757C0.220832 8.90687 0.187081 9.07767 0.187504 9.2501V18.2501C0.187504 18.3993 0.246767 18.5424 0.352256 18.6478C0.457746 18.7533 0.60082 18.8126 0.750004 18.8126H6.75C6.89919 18.8126 7.04226 18.7533 7.14775 18.6478C7.25324 18.5424 7.3125 18.3993 7.3125 18.2501V12.8126H10.6875V18.2501C10.6875 18.3993 10.7468 18.5424 10.8523 18.6478C10.9577 18.7533 11.1008 18.8126 11.25 18.8126H17.25C17.3992 18.8126 17.5423 18.7533 17.6478 18.6478C17.7532 18.5424 17.8125 18.3993 17.8125 18.2501V9.2501C17.8129 9.07767 17.7792 8.90687 17.7132 8.74757C17.6472 8.58826 17.5503 8.44361 17.4281 8.32197ZM16.6875 17.6876H11.8125V12.2501C11.8125 12.1009 11.7532 11.9578 11.6478 11.8523C11.5423 11.7469 11.3992 11.6876 11.25 11.6876H6.75C6.60082 11.6876 6.45775 11.7469 6.35226 11.8523C6.24677 11.9578 6.1875 12.1009 6.1875 12.2501V17.6876H1.3125V9.2501C1.31236 9.22542 1.31709 9.20096 1.32642 9.17811C1.33575 9.15527 1.3495 9.13449 1.36688 9.11697L8.86688 1.61697C8.88431 1.5994 8.90505 1.58545 8.9279 1.57593C8.95074 1.56641 8.97525 1.56151 9 1.56151C9.02476 1.56151 9.04926 1.56641 9.07211 1.57593C9.09496 1.58545 9.1157 1.5994 9.13313 1.61697L16.6331 9.11697C16.6505 9.13449 16.6643 9.15527 16.6736 9.17811C16.6829 9.20096 16.6876 9.22542 16.6875 9.2501V17.6876Z" fill="#02344a"/>
</svg>
