<svg width="20" height="20" viewBox="0 0 20 20" fill="none" xmlns="http://www.w3.org/2000/svg">
<path d="M19.3975 18.6023L14.5806 13.7854C15.9542 12.2057 16.6608 10.1545 16.5515 8.06398C16.4422 5.9735 15.5255 4.00712 13.9946 2.57934C12.4638 1.15157 10.4384 0.373953 8.34534 0.410406C6.25232 0.446859 4.25521 1.29454 2.775 2.77475C1.29478 4.25497 0.447103 6.25208 0.41065 8.3451C0.374197 10.4381 1.15182 12.4635 2.57959 13.9944C4.00736 15.5253 5.97374 16.442 8.06423 16.5513C10.1547 16.6606 12.206 15.954 13.7856 14.5804L18.6025 19.3973C18.7091 19.4966 18.8502 19.5507 18.9959 19.5481C19.1416 19.5456 19.2807 19.4865 19.3837 19.3835C19.4868 19.2804 19.5458 19.1414 19.5484 18.9957C19.551 18.8499 19.4969 18.7089 19.3975 18.6023ZM1.5625 8.49976C1.5625 7.12765 1.96938 5.78636 2.73168 4.64549C3.49399 3.50463 4.57748 2.61543 5.84514 2.09035C7.1128 1.56526 8.5077 1.42788 9.85344 1.69556C11.1992 1.96325 12.4353 2.62398 13.4056 3.59421C14.3758 4.56443 15.0365 5.80058 15.3042 7.14632C15.5719 8.49206 15.4345 9.88696 14.9094 11.1546C14.3843 12.4223 13.4951 13.5058 12.3543 14.2681C11.2134 15.0304 9.87211 15.4373 8.5 15.4373C6.66075 15.435 4.89747 14.7034 3.59692 13.4028C2.29637 12.1023 1.56474 10.339 1.5625 8.49976Z" fill="#02344A"/>
</svg>
