<svg width="24" height="20" viewBox="0 0 24 20" fill="none" xmlns="http://www.w3.org/2000/svg">
<path d="M23.7498 10C23.7498 10.1989 23.6708 10.3897 23.5302 10.5303C23.3895 10.671 23.1987 10.75 22.9998 10.75H2.81108L10.5298 18.47C10.6035 18.5387 10.6626 18.6215 10.7036 18.7135C10.7446 18.8055 10.7666 18.9048 10.7684 19.0055C10.7702 19.1062 10.7517 19.2062 10.714 19.2996C10.6762 19.393 10.6201 19.4778 10.5489 19.549C10.4776 19.6203 10.3928 19.6764 10.2994 19.7141C10.206 19.7518 10.106 19.7704 10.0053 19.7686C9.9046 19.7668 9.80529 19.7448 9.71329 19.7038C9.62129 19.6628 9.53849 19.6037 9.46983 19.53L0.469828 10.53C0.329378 10.3894 0.250488 10.1987 0.250488 10C0.250488 9.80125 0.329378 9.61062 0.469828 9.47L9.46983 0.469999C9.612 0.337519 9.80005 0.265396 9.99435 0.268824C10.1887 0.272252 10.374 0.350964 10.5114 0.488377C10.6489 0.62579 10.7276 0.811175 10.731 1.00548C10.7344 1.19978 10.6623 1.38782 10.5298 1.53L2.81108 9.25H22.9998C23.1987 9.25 23.3895 9.32902 23.5302 9.46967C23.6708 9.61032 23.7498 9.80109 23.7498 10Z" fill="#007DCF"/>
</svg>
