<svg width="18" height="18" viewBox="0 0 18 18" fill="none" xmlns="http://www.w3.org/2000/svg">
<path d="M16.5 0.1875H1.5C1.1519 0.1875 0.818064 0.325781 0.571922 0.571922C0.325781 0.818064 0.1875 1.1519 0.1875 1.5V16.5C0.1875 16.8481 0.325781 17.1819 0.571922 17.4281C0.818064 17.6742 1.1519 17.8125 1.5 17.8125H16.5C16.8481 17.8125 17.1819 17.6742 17.4281 17.4281C17.6742 17.1819 17.8125 16.8481 17.8125 16.5V1.5C17.8125 1.1519 17.6742 0.818064 17.4281 0.571922C17.1819 0.325781 16.8481 0.1875 16.5 0.1875ZM16.6875 16.5C16.6875 16.5497 16.6677 16.5974 16.6326 16.6326C16.5974 16.6677 16.5497 16.6875 16.5 16.6875H1.5C1.45027 16.6875 1.40258 16.6677 1.36742 16.6326C1.33225 16.5974 1.3125 16.5497 1.3125 16.5V1.5C1.3125 1.45027 1.33225 1.40258 1.36742 1.36742C1.40258 1.33225 1.45027 1.3125 1.5 1.3125H16.5C16.5497 1.3125 16.5974 1.33225 16.6326 1.36742C16.6677 1.40258 16.6875 1.45027 16.6875 1.5V16.5ZM13.3125 9C13.3125 9.14918 13.2532 9.29226 13.1477 9.39775C13.0423 9.50324 12.8992 9.5625 12.75 9.5625H9.5625V12.75C9.5625 12.8992 9.50324 13.0423 9.39775 13.1477C9.29226 13.2532 9.14918 13.3125 9 13.3125C8.85082 13.3125 8.70774 13.2532 8.60225 13.1477C8.49676 13.0423 8.4375 12.8992 8.4375 12.75V9.5625H5.25C5.10082 9.5625 4.95774 9.50324 4.85225 9.39775C4.74676 9.29226 4.6875 9.14918 4.6875 9C4.6875 8.85082 4.74676 8.70774 4.85225 8.60225C4.95774 8.49676 5.10082 8.4375 5.25 8.4375H8.4375V5.25C8.4375 5.10082 8.49676 4.95774 8.60225 4.85225C8.70774 4.74676 8.85082 4.6875 9 4.6875C9.14918 4.6875 9.29226 4.74676 9.39775 4.85225C9.50324 4.95774 9.5625 5.10082 9.5625 5.25V8.4375H12.75C12.8992 8.4375 13.0423 8.49676 13.1477 8.60225C13.2532 8.70774 13.3125 8.85082 13.3125 9Z" fill="#007DCF"/>
</svg>
