<svg width="19" height="20" viewBox="0 0 19 20" fill="none" xmlns="http://www.w3.org/2000/svg">
<path d="M17 2.1875H14.5625V1.25C14.5625 1.10082 14.5032 0.957742 14.3977 0.852252C14.2923 0.746763 14.1492 0.6875 14 0.6875C13.8508 0.6875 13.7077 0.746763 13.6023 0.852252C13.4968 0.957742 13.4375 1.10082 13.4375 1.25V2.1875H5.5625V1.25C5.5625 1.10082 5.50324 0.957742 5.39775 0.852252C5.29226 0.746763 5.14918 0.6875 5 0.6875C4.85082 0.6875 4.70774 0.746763 4.60225 0.852252C4.49676 0.957742 4.4375 1.10082 4.4375 1.25V2.1875H2C1.6519 2.1875 1.31806 2.32578 1.07192 2.57192C0.825781 2.81806 0.6875 3.1519 0.6875 3.5V18.5C0.6875 18.8481 0.825781 19.1819 1.07192 19.4281C1.31806 19.6742 1.6519 19.8125 2 19.8125H17C17.3481 19.8125 17.6819 19.6742 17.9281 19.4281C18.1742 19.1819 18.3125 18.8481 18.3125 18.5V3.5C18.3125 3.1519 18.1742 2.81806 17.9281 2.57192C17.6819 2.32578 17.3481 2.1875 17 2.1875ZM2 3.3125H4.4375V4.25C4.4375 4.39918 4.49676 4.54226 4.60225 4.64775C4.70774 4.75324 4.85082 4.8125 5 4.8125C5.14918 4.8125 5.29226 4.75324 5.39775 4.64775C5.50324 4.54226 5.5625 4.39918 5.5625 4.25V3.3125H13.4375V4.25C13.4375 4.39918 13.4968 4.54226 13.6023 4.64775C13.7077 4.75324 13.8508 4.8125 14 4.8125C14.1492 4.8125 14.2923 4.75324 14.3977 4.64775C14.5032 4.54226 14.5625 4.39918 14.5625 4.25V3.3125H17C17.0497 3.3125 17.0974 3.33225 17.1326 3.36742C17.1677 3.40258 17.1875 3.45027 17.1875 3.5V6.6875H1.8125V3.5C1.8125 3.45027 1.83225 3.40258 1.86742 3.36742C1.90258 3.33225 1.95027 3.3125 2 3.3125ZM17 18.6875H2C1.95027 18.6875 1.90258 18.6677 1.86742 18.6326C1.83225 18.5974 1.8125 18.5497 1.8125 18.5V7.8125H17.1875V18.5C17.1875 18.5497 17.1677 18.5974 17.1326 18.6326C17.0974 18.6677 17.0497 18.6875 17 18.6875Z" fill="#000305"/>
</svg>
