<svg width="16" height="16" viewBox="0 0 16 16" fill="none" xmlns="http://www.w3.org/2000/svg">
<path d="M15.1481 14.3529C15.2034 14.4044 15.2477 14.4665 15.2785 14.5355C15.3092 14.6045 15.3257 14.679 15.3271 14.7545C15.3284 14.83 15.3145 14.905 15.2862 14.9751C15.2579 15.0451 15.2158 15.1087 15.1624 15.1622C15.109 15.2156 15.0454 15.2577 14.9753 15.286C14.9053 15.3143 14.8303 15.3281 14.7547 15.3268C14.6792 15.3255 14.6047 15.309 14.5357 15.2782C14.4667 15.2475 14.4046 15.2031 14.3531 15.1479L8.00062 8.79631L1.64812 15.1479C1.54149 15.2472 1.40045 15.3013 1.25473 15.2988C1.109 15.2962 0.969961 15.2371 0.866901 15.1341C0.763841 15.031 0.704807 14.892 0.702236 14.7463C0.699665 14.6005 0.753757 14.4595 0.853117 14.3529L7.20468 8.00037L0.853117 1.64787C0.753757 1.54124 0.699665 1.40021 0.702236 1.25448C0.704807 1.10876 0.763841 0.969716 0.866901 0.866657C0.969961 0.763597 1.109 0.704563 1.25473 0.701992C1.40045 0.699421 1.54149 0.753513 1.64812 0.852873L8.00062 7.20444L14.3531 0.852873C14.4597 0.753513 14.6008 0.699421 14.7465 0.701992C14.8922 0.704563 15.0313 0.763597 15.1343 0.866657C15.2374 0.969716 15.2964 1.10876 15.299 1.25448C15.3016 1.40021 15.2475 1.54124 15.1481 1.64787L8.79656 8.00037L15.1481 14.3529Z" fill="#9CA3AF"/>
</svg>
