<svg width="20" height="19" viewBox="0 0 20 19" fill="none" xmlns="http://www.w3.org/2000/svg">
<path d="M18.6781 5.01062L14.4884 0.820936C14.3666 0.699045 14.2219 0.602355 14.0626 0.536387C13.9034 0.470419 13.7327 0.436466 13.5603 0.436466C13.3879 0.436466 13.2173 0.470419 13.058 0.536387C12.8988 0.602355 12.7541 0.699045 12.6322 0.820936L1.07188 12.3822C0.949753 12.5039 0.852918 12.6486 0.786949 12.8078C0.72098 12.9671 0.687182 13.1379 0.687502 13.3103V17.5C0.687502 17.8481 0.825783 18.1819 1.07192 18.4281C1.31807 18.6742 1.65191 18.8125 2 18.8125H6.18969C6.3621 18.8128 6.53287 18.779 6.69216 18.7131C6.85145 18.6471 6.99611 18.5502 7.11781 18.4281L18.6781 6.86687C18.8 6.74499 18.8967 6.6003 18.9627 6.44105C19.0286 6.2818 19.0626 6.11112 19.0626 5.93875C19.0626 5.76638 19.0286 5.59569 18.9627 5.43645C18.8967 5.2772 18.8 5.1325 18.6781 5.01062ZM6.32188 17.6322C6.28688 17.6674 6.23934 17.6873 6.18969 17.6875H2C1.95027 17.6875 1.90258 17.6677 1.86742 17.6326C1.83226 17.5974 1.8125 17.5497 1.8125 17.5V13.3103C1.81271 13.2607 1.8326 13.2131 1.86781 13.1781L10.25 4.795L14.7041 9.25L6.32188 17.6322ZM17.8822 6.07187L15.5 8.45406L11.0459 4L13.4281 1.61687C13.4455 1.59944 13.4662 1.58561 13.489 1.57617C13.5117 1.56674 13.5361 1.56188 13.5608 1.56188C13.5854 1.56188 13.6098 1.56674 13.6326 1.57617C13.6553 1.58561 13.676 1.59944 13.6934 1.61687L17.8822 5.80656C17.8996 5.82397 17.9135 5.84465 17.9229 5.86742C17.9323 5.89018 17.9372 5.91458 17.9372 5.93922C17.9372 5.96386 17.9323 5.98826 17.9229 6.01102C17.9135 6.03378 17.8996 6.05446 17.8822 6.07187Z" fill="white"/>
</svg>
