<svg width="19" height="19" viewBox="0 0 19 19" fill="none" xmlns="http://www.w3.org/2000/svg">
<path d="M18.1781 5.01062L13.9884 0.820932C13.8666 0.699041 13.7219 0.602351 13.5626 0.536383C13.4034 0.470416 13.2327 0.436462 13.0603 0.436462C12.8879 0.436462 12.7173 0.470416 12.558 0.536383C12.3988 0.602351 12.2541 0.699041 12.1322 0.820932L0.571877 12.3822C0.449753 12.5039 0.352918 12.6485 0.286949 12.8078C0.22098 12.9671 0.187182 13.1379 0.187502 13.3103V17.5C0.187502 17.8481 0.325783 18.1819 0.571925 18.4281C0.818066 18.6742 1.15191 18.8125 1.5 18.8125H5.68969C5.8621 18.8128 6.03287 18.779 6.19216 18.713C6.35145 18.6471 6.49611 18.5502 6.61781 18.4281L18.1781 6.86687C18.3 6.74499 18.3967 6.6003 18.4627 6.44105C18.5286 6.2818 18.5626 6.11112 18.5626 5.93874C18.5626 5.76637 18.5286 5.59569 18.4627 5.43644C18.3967 5.27719 18.3 5.1325 18.1781 5.01062ZM5.82188 17.6322C5.78688 17.6674 5.73934 17.6873 5.68969 17.6875H1.5C1.45027 17.6875 1.40258 17.6677 1.36742 17.6326C1.33226 17.5974 1.3125 17.5497 1.3125 17.5V13.3103C1.31271 13.2607 1.3326 13.2131 1.36781 13.1781L9.75 4.79499L14.2041 9.24999L5.82188 17.6322ZM17.3822 6.07187L15 8.45406L10.5459 3.99999L12.9281 1.61687C12.9455 1.59944 12.9662 1.58561 12.989 1.57617C13.0117 1.56674 13.0361 1.56188 13.0608 1.56188C13.0854 1.56188 13.1098 1.56674 13.1326 1.57617C13.1553 1.58561 13.176 1.59944 13.1934 1.61687L17.3822 5.80656C17.3996 5.82397 17.4135 5.84465 17.4229 5.86741C17.4323 5.89017 17.4372 5.91457 17.4372 5.93921C17.4372 5.96385 17.4323 5.98825 17.4229 6.01101C17.4135 6.03378 17.3996 6.05446 17.3822 6.07187Z" fill="black"/>
</svg>
