<svg width="25" height="24" viewBox="0 0 25 24" fill="none" xmlns="http://www.w3.org/2000/svg">
<path d="M11.5625 20.25C11.5625 20.3992 11.5032 20.5423 11.3977 20.6477C11.2923 20.7532 11.1492 20.8125 11 20.8125H5C4.85082 20.8125 4.70774 20.7532 4.60225 20.6477C4.49676 20.5423 4.4375 20.3992 4.4375 20.25V3.75C4.4375 3.60082 4.49676 3.45774 4.60225 3.35225C4.70774 3.24676 4.85082 3.1875 5 3.1875H11C11.1492 3.1875 11.2923 3.24676 11.3977 3.35225C11.5032 3.45774 11.5625 3.60082 11.5625 3.75C11.5625 3.89918 11.5032 4.04226 11.3977 4.14775C11.2923 4.25324 11.1492 4.3125 11 4.3125H5.5625V19.6875H11C11.1492 19.6875 11.2923 19.7468 11.3977 19.8523C11.5032 19.9577 11.5625 20.1008 11.5625 20.25ZM21.8975 11.6025L18.1475 7.8525C18.0409 7.75314 17.8998 7.69905 17.7541 7.70162C17.6084 7.70419 17.4693 7.76322 17.3663 7.86628C17.2632 7.96934 17.2042 8.10838 17.2016 8.25411C17.199 8.39983 17.2531 8.54087 17.3525 8.6475L20.1416 11.4375H11C10.8508 11.4375 10.7077 11.4968 10.6023 11.6023C10.4968 11.7077 10.4375 11.8508 10.4375 12C10.4375 12.1492 10.4968 12.2923 10.6023 12.3977C10.7077 12.5032 10.8508 12.5625 11 12.5625H20.1416L17.3525 15.3525C17.2972 15.404 17.2529 15.4661 17.2222 15.5351C17.1914 15.6041 17.1749 15.6786 17.1736 15.7541C17.1722 15.8296 17.1861 15.9047 17.2144 15.9747C17.2427 16.0447 17.2848 16.1084 17.3382 16.1618C17.3916 16.2152 17.4553 16.2573 17.5253 16.2856C17.5953 16.3139 17.6704 16.3278 17.7459 16.3264C17.8214 16.3251 17.8959 16.3086 17.9649 16.2778C18.0339 16.2471 18.096 16.2028 18.1475 16.1475L21.8975 12.3975C22.0028 12.292 22.062 12.1491 22.062 12C22.062 11.8509 22.0028 11.708 21.8975 11.6025Z" fill="#E0625F"/>
</svg>
