<svg width="275" height="171" viewBox="0 0 275 171" fill="none" xmlns="http://www.w3.org/2000/svg">
<g clip-path="url(#clip0_7862_39115)">
<path d="M19.0841 158.405C20.3382 158.848 21.6847 158.958 22.9939 158.727C24.3031 158.495 25.5308 157.929 26.5588 157.083C29.1768 154.876 29.9986 151.241 30.6655 147.874L32.6408 137.918L28.5052 140.778C25.5309 142.834 22.4899 144.957 20.4305 147.936C18.371 150.915 17.4722 154.981 19.1267 158.204" fill="#E6E6E6"/>
<path d="M19.4377 170.459C19.0192 167.397 18.5887 164.296 18.8823 161.202C19.1431 158.453 19.9779 155.769 21.6781 153.567C22.5804 152.401 23.6784 151.402 24.9227 150.615C25.2473 150.41 25.5457 150.926 25.2228 151.13C23.0699 152.497 21.4047 154.514 20.4673 156.892C19.4319 159.537 19.2657 162.419 19.4456 165.228C19.5535 166.927 19.7821 168.614 20.0126 170.3C20.0312 170.377 20.02 170.457 19.9814 170.525C19.9428 170.594 19.8796 170.645 19.8049 170.668C19.7288 170.688 19.6478 170.678 19.5793 170.639C19.5108 170.6 19.4604 170.535 19.4391 170.459L19.4377 170.459Z" fill="#F2F2F2"/>
<path d="M102.378 104.49C102.074 104.635 101.743 104.713 101.407 104.72L70.2074 105.58C68.9089 105.608 67.6523 105.117 66.7141 104.215C65.7759 103.313 65.233 102.074 65.2048 100.77C65.1765 99.4657 65.6653 98.2038 66.5636 97.2617C67.4618 96.3196 68.696 95.7744 69.9945 95.746L101.194 94.8863C101.826 94.8731 102.437 95.1123 102.894 95.5512C103.35 95.9901 103.615 96.593 103.629 97.2275L103.738 102.274C103.748 102.736 103.625 103.191 103.383 103.584C103.142 103.977 102.793 104.292 102.378 104.49Z" fill="#007DCF"/>
<path d="M62.3454 170.523H57.3186C56.6865 170.523 56.0806 170.27 55.6336 169.821C55.1867 169.372 54.9353 168.764 54.9346 168.129V126.057C54.9353 125.422 55.1867 124.814 55.6336 124.365C56.0806 123.916 56.6865 123.664 57.3186 123.663H62.3454C62.9774 123.664 63.5834 123.916 64.0304 124.365C64.4773 124.814 64.7287 125.422 64.7294 126.057V168.129C64.7287 168.764 64.4773 169.372 64.0304 169.821C63.5834 170.27 62.9774 170.523 62.3454 170.523Z" fill="#007DCF"/>
<path d="M75.6936 170.523H70.6668C70.0347 170.523 69.4287 170.27 68.9818 169.821C68.5348 169.372 68.2834 168.764 68.2827 168.129V126.057C68.2834 125.422 68.5348 124.814 68.9818 124.365C69.4287 123.916 70.0347 123.664 70.6668 123.663H75.6936C76.3257 123.664 76.9316 123.916 77.3786 124.365C77.8255 124.814 78.0769 125.422 78.0776 126.057V168.129C78.0769 168.764 77.8255 169.372 77.3786 169.821C76.9316 170.27 76.3257 170.523 75.6936 170.523Z" fill="#007DCF"/>
<path d="M66.9969 79.927C76.5898 79.927 84.3663 72.1177 84.3663 62.4844C84.3663 52.8512 76.5898 45.0419 66.9969 45.0419C57.404 45.0419 49.6274 52.8512 49.6274 62.4844C49.6274 72.1177 57.404 79.927 66.9969 79.927Z" fill="#007DCF"/>
<path d="M72.8929 138.582H60.3974C57.8007 138.592 55.2475 137.912 52.9962 136.613C50.745 135.313 48.8756 133.44 47.5772 131.181C46.2789 128.923 45.5977 126.36 45.6026 123.753C45.6075 121.145 46.2983 118.585 47.6051 116.332L65.0799 85.9372C65.2742 85.5992 65.5537 85.3186 65.8902 85.1235C66.2267 84.9284 66.6085 84.8256 66.9971 84.8256C67.3857 84.8256 67.7674 84.9284 68.104 85.1235C68.4405 85.3186 68.7199 85.5992 68.9142 85.9372L86.0371 115.72C87.3692 118.037 88.0705 120.665 88.0705 123.34C88.0704 126.016 87.3691 128.644 86.037 130.961C84.7049 133.278 82.7889 135.202 80.4817 136.54C78.1744 137.878 75.5572 138.582 72.8929 138.582Z" fill="#2F2E41"/>
<path d="M71.0966 69.8065C72.2225 69.7751 73.6238 69.7359 74.7033 68.9439C75.0247 68.6985 75.2889 68.3854 75.4771 68.0266C75.6654 67.6678 75.7732 67.272 75.7932 66.867C75.8127 66.5791 75.7657 66.2906 75.6557 66.0241C75.5458 65.7575 75.376 65.52 75.1596 65.3303C74.5957 64.8518 73.7724 64.7396 72.8851 65.0015L73.8044 58.2551L73.1296 58.1623L72.0488 66.0935L72.6124 65.8338C73.2657 65.5329 74.1626 65.3797 74.7199 65.8527C74.8567 65.9763 74.9633 66.13 75.0314 66.3017C75.0995 66.4735 75.1272 66.6587 75.1125 66.8429C75.0959 67.1444 75.015 67.4388 74.875 67.706C74.7351 67.9732 74.5395 68.207 74.3015 68.3915C73.4614 69.0077 72.3444 69.0872 71.0776 69.1228L71.0966 69.8065Z" fill="#2F2E41"/>
<path d="M80.8102 58.8369H77.1416V59.5209H80.8102V58.8369Z" fill="#2F2E41"/>
<path d="M69.2306 58.8369H65.562V59.5209H69.2306V58.8369Z" fill="#2F2E41"/>
<path d="M62.9116 134.681C62.7673 134.376 62.6894 134.043 62.6831 133.706L61.8268 102.375C61.7986 101.071 62.2874 99.8091 63.1856 98.867C64.0839 97.9249 65.3181 97.3797 66.6166 97.3513C67.9152 97.323 69.1718 97.8138 70.1099 98.7158C71.0481 99.6179 71.591 100.857 71.6193 102.161L72.4754 133.492C72.4885 134.127 72.2504 134.74 71.8133 135.199C71.3762 135.657 70.7758 135.923 70.1439 135.938L65.1184 136.047C64.6586 136.057 64.2059 135.933 63.8144 135.691C63.423 135.448 63.1095 135.097 62.9116 134.681Z" fill="#007DCF"/>
<path d="M65.3851 49.5907C67.4955 52.3622 70.8456 54.2213 74.3864 53.7811C77.7582 53.3619 80.5399 51.0019 81.2378 47.6231C81.5424 46.0256 81.4603 44.378 80.9981 42.8191C80.536 41.2602 79.7075 39.8357 78.5824 38.6656C76.1958 36.1449 72.7802 34.7889 69.3994 34.3239C62.995 33.4431 56.4176 35.7086 51.5752 39.9337C49.1435 42.0343 47.2024 44.647 45.8901 47.5862C44.626 50.5037 44.024 53.6671 44.1276 56.8471C44.3137 63.1315 47.0549 69.404 51.7847 73.5717C52.3722 74.0877 52.987 74.5713 53.6266 75.0204C54.166 75.4004 54.6772 74.5113 54.1423 74.1344C49.2986 70.7222 46.209 65.17 45.3611 59.3362C44.9169 56.3968 45.115 53.3955 45.9414 50.5407C46.7679 47.6858 48.203 45.0457 50.1471 42.8035C54.0584 38.3375 59.7932 35.4348 65.7329 35.1747C71.7097 34.913 79.1786 37.5925 80.297 44.2736C80.7983 47.2682 79.6837 50.4159 76.951 51.9151C74.0253 53.5203 70.4378 52.8597 67.9235 50.7867C67.3078 50.2811 66.7521 49.706 66.2674 49.0729C65.8733 48.5554 64.9855 49.0659 65.3851 49.5907Z" fill="#2F2E41"/>
<path d="M241.147 4.04809L93.7783 25.4263L103.88 95.6497L251.249 74.2715L241.147 4.04809Z" fill="#F1F1F1"/>
<path d="M237.799 10.6812L98.8584 30.8367L107.287 89.4263L246.228 69.2708L237.799 10.6812Z" fill="white"/>
<path d="M240.501 -1.37025e-05L93.1318 21.3782L94.0362 27.6652L241.405 6.28701L240.501 -1.37025e-05Z" fill="#E5E5E5"/>
<path d="M98.316 25.5775C98.9635 25.5775 99.4884 25.0504 99.4884 24.4002C99.4884 23.7499 98.9635 23.2228 98.316 23.2228C97.6685 23.2228 97.1436 23.7499 97.1436 24.4002C97.1436 25.0504 97.6685 25.5775 98.316 25.5775Z" fill="white"/>
<path d="M102.72 24.9386C103.368 24.9386 103.893 24.4115 103.893 23.7612C103.893 23.111 103.368 22.5839 102.72 22.5839C102.073 22.5839 101.548 23.111 101.548 23.7612C101.548 24.4115 102.073 24.9386 102.72 24.9386Z" fill="white"/>
<path d="M107.125 24.2996C107.773 24.2996 108.298 23.7725 108.298 23.1223C108.298 22.472 107.773 21.9449 107.125 21.9449C106.478 21.9449 105.953 22.472 105.953 23.1223C105.953 23.7725 106.478 24.2996 107.125 24.2996Z" fill="white"/>
<path d="M275 34.2637H126.102V105.216H275V34.2637Z" fill="#E6E6E6"/>
<path d="M270.743 40.348H130.359V99.5458H270.743V40.348Z" fill="white"/>
<path d="M274.937 30.1644H126.038V36.5166H274.937V30.1644Z" fill="#CBCBCB"/>
<path d="M130.739 35.077C131.386 35.077 131.911 34.5499 131.911 33.8996C131.911 33.2494 131.386 32.7223 130.739 32.7223C130.091 32.7223 129.566 33.2494 129.566 33.8996C129.566 34.5499 130.091 35.077 130.739 35.077Z" fill="white"/>
<path d="M135.189 35.077C135.837 35.077 136.361 34.5499 136.361 33.8996C136.361 33.2494 135.837 32.7223 135.189 32.7223C134.542 32.7223 134.017 33.2494 134.017 33.8996C134.017 34.5499 134.542 35.077 135.189 35.077Z" fill="white"/>
<path d="M139.639 35.077C140.287 35.077 140.812 34.5499 140.812 33.8996C140.812 33.2494 140.287 32.7223 139.639 32.7223C138.992 32.7223 138.467 33.2494 138.467 33.8996C138.467 34.5499 138.992 35.077 139.639 35.077Z" fill="white"/>
<path d="M231.023 49.3482H211.252V50.8405H231.023V49.3482Z" fill="#E6E6E6"/>
<path d="M241.783 53.7292H211.252V55.2215H241.783V53.7292Z" fill="#E6E6E6"/>
<path d="M236.452 57.9014H211.57V59.3937H236.452V57.9014Z" fill="#E6E6E6"/>
<path d="M225.778 62.4793H211.252V63.9716H225.778V62.4793Z" fill="#E6E6E6"/>
<path d="M233.175 66.9509H211.252V68.4432H233.175V66.9509Z" fill="#E6E6E6"/>
<path d="M204.662 48.8788H202.241V51.31H204.662V48.8788Z" fill="#E6E6E6"/>
<path d="M204.662 53.2597H202.241V55.6909H204.662V53.2597Z" fill="#E6E6E6"/>
<path d="M204.662 57.432H202.241V59.8631H204.662V57.432Z" fill="#E6E6E6"/>
<path d="M204.662 62.0099H202.241V64.441H204.662V62.0099Z" fill="#E6E6E6"/>
<path d="M204.662 66.4815H202.241V68.9127H204.662V66.4815Z" fill="#E6E6E6"/>
<path d="M231.023 71.4505H211.252V72.9428H231.023V71.4505Z" fill="#E6E6E6"/>
<path d="M241.783 75.8314H211.252V77.3237H241.783V75.8314Z" fill="#E6E6E6"/>
<path d="M236.452 80.0037H211.57V81.496H236.452V80.0037Z" fill="#E6E6E6"/>
<path d="M225.778 84.5816H211.252V86.0739H225.778V84.5816Z" fill="#E6E6E6"/>
<path d="M233.175 89.0532H211.252V90.5455H233.175V89.0532Z" fill="#E6E6E6"/>
<path d="M204.662 70.9811H202.241V73.4122H204.662V70.9811Z" fill="#E6E6E6"/>
<path d="M204.662 75.362H202.241V77.7932H204.662V75.362Z" fill="#E6E6E6"/>
<path d="M204.662 79.5342H202.241V81.9654H204.662V79.5342Z" fill="#E6E6E6"/>
<path d="M204.662 84.1121H202.241V86.5433H204.662V84.1121Z" fill="#E6E6E6"/>
<path d="M204.662 88.5838H202.241V91.0149H204.662V88.5838Z" fill="#E6E6E6"/>
<path d="M168.477 83.1562H148.706V84.6485H168.477V83.1562Z" fill="#E6E6E6"/>
<path d="M170.943 87.0338H146.061V88.5261H170.943V87.0338Z" fill="#E6E6E6"/>
<path d="M171.442 64.3315C171.441 66.5743 170.861 68.7787 169.759 70.7292C168.656 72.6797 167.068 74.3096 165.151 75.4599C163.234 76.6102 161.052 77.2414 158.819 77.292C156.586 77.3426 154.378 76.8108 152.411 75.7485L152.409 75.7459C150.399 74.6589 148.713 73.0565 147.521 71.1018C146.33 69.1471 145.675 66.9102 145.625 64.6188C145.574 62.3274 146.13 60.0636 147.234 58.058C148.339 56.0523 149.953 54.3766 151.912 53.2014C153.872 52.0263 156.107 51.3938 158.389 51.3684C160.671 51.343 162.919 51.9256 164.904 53.0569C166.889 54.1881 168.54 55.8275 169.688 57.8081C170.837 59.7886 171.442 62.0395 171.442 64.3315Z" fill="#E6E6E6"/>
<path d="M158.598 63.7021C160.536 63.7021 162.108 62.1243 162.108 60.178C162.108 58.2316 160.536 56.6538 158.598 56.6538C156.66 56.6538 155.089 58.2316 155.089 60.178C155.089 62.1243 156.66 63.7021 158.598 63.7021Z" fill="white"/>
<path d="M164.591 70.9839C160.667 72.3668 156.39 72.3501 152.477 70.9368L152.475 70.935L155.089 65.7524H162.108L164.591 70.9839Z" fill="white"/>
<path d="M119.744 96.5103C113.627 96.5103 108.65 91.2018 108.65 84.6765C108.65 78.1514 113.627 72.8429 119.744 72.8429C125.86 72.8429 130.837 78.1514 130.837 84.6765C130.837 91.2018 125.86 96.5103 119.744 96.5103ZM119.744 75.833C115.269 75.833 111.628 79.8001 111.628 84.6765C111.628 89.5529 115.269 93.5203 119.744 93.5203C124.219 93.5203 127.859 89.5529 127.859 84.6765C127.859 79.8001 124.219 75.833 119.744 75.833Z" fill="#007DCF"/>
<path d="M130.248 117.133H109.239C107.386 117.131 105.61 116.391 104.3 115.076C102.989 113.76 102.253 111.976 102.25 110.116V89.4208C102.252 88.147 102.756 86.9258 103.653 86.0251C104.55 85.1244 105.766 84.6178 107.035 84.6163H132.452C133.721 84.6178 134.937 85.1244 135.834 86.0251C136.731 86.9258 137.235 88.147 137.237 89.4208V110.116C137.234 111.976 136.498 113.76 135.187 115.076C133.877 116.391 132.101 117.131 130.248 117.133Z" fill="#3F3D56"/>
<path d="M123.838 96.3897C123.838 95.6588 123.645 94.9411 123.277 94.3103C122.91 93.6795 122.381 93.1585 121.747 92.8009C121.112 92.4433 120.394 92.2621 119.666 92.276C118.938 92.2898 118.228 92.4981 117.607 92.8796C116.986 93.261 116.478 93.8017 116.134 94.446C115.791 95.0903 115.624 95.815 115.652 96.5453C115.681 97.2756 115.902 97.9851 116.294 98.6009C116.686 99.2167 117.234 99.7164 117.883 100.049V106.481H121.604V100.049C122.276 99.7047 122.841 99.181 123.235 98.5353C123.629 97.8896 123.837 97.147 123.838 96.3897Z" fill="white"/>
<path d="M130.1 171H0.340577C0.25025 171 0.163623 170.964 0.0997525 170.9C0.0358819 170.836 0 170.749 0 170.658C0 170.567 0.0358819 170.48 0.0997525 170.416C0.163623 170.352 0.25025 170.316 0.340577 170.316H130.1C130.191 170.316 130.277 170.352 130.341 170.416C130.405 170.48 130.441 170.567 130.441 170.658C130.441 170.749 130.405 170.836 130.341 170.9C130.277 170.964 130.191 171 130.1 171Z" fill="#3F3D56"/>
</g>
<defs>
<clipPath id="clip0_7862_39115">
<rect width="275" height="171" fill="white"/>
</clipPath>
</defs>
</svg>
