<svg width="247" height="167" viewBox="0 0 247 167" fill="none" xmlns="http://www.w3.org/2000/svg">
<g clip-path="url(#clip0_7379_9526)">
<path d="M225.522 58.4313C225.264 58.6441 225.006 58.8477 224.741 59.0482H159.518C159.033 58.8477 158.549 58.6421 158.067 58.4313C151.182 55.4252 144.773 51.4223 139.045 46.5505C135.242 43.3181 131.743 39.9808 129.207 36.8533C125.668 32.489 122.409 27.7329 120.893 22.3137C119.38 16.8946 119.832 10.6827 123.211 6.18883C124.258 4.80645 125.544 3.62474 127.008 2.70045C127.251 2.54623 127.497 2.39818 127.749 2.25939C131.801 -0.023021 136.914 -0.578205 141.477 0.603096C148.01 2.2964 153.44 7.02469 157.314 12.5703C161.188 18.1129 163.703 24.479 166.181 30.7741C168.696 19.5378 176.311 9.47365 186.599 4.35673C196.883 -0.760181 209.661 -0.698494 219.727 4.84406C222.894 6.59855 225.755 8.85919 228.197 11.5371C228.44 11.7992 228.677 12.0676 228.911 12.339C233.82 18.0419 236.892 25.3457 237.144 32.8776C237.467 42.5809 232.984 52.3274 225.522 58.4313Z" fill="#F2F2F2"/>
<path d="M162.126 59.0482H161.203C161.191 58.8415 161.176 58.638 161.157 58.4313C160.835 54.3969 160.16 50.3986 159.14 46.4826C156.801 37.5423 152.805 29.1236 147.362 21.666C141.934 14.1846 135.091 7.84822 127.224 3.01812C127.166 2.98504 127.117 2.93923 127.079 2.88419C127.042 2.82914 127.018 2.7663 127.008 2.70043C126.993 2.6143 127.003 2.52565 127.036 2.44481C127.069 2.36398 127.125 2.29429 127.196 2.24386C127.267 2.19343 127.351 2.16435 127.438 2.15999C127.525 2.15564 127.612 2.1762 127.688 2.21927C127.709 2.23154 127.729 2.24492 127.749 2.25937C132.207 4.98486 136.344 8.20458 140.084 11.8578C146.774 18.4047 152.169 26.1626 155.983 34.722C159.348 42.2184 161.409 50.2373 162.077 58.4313C162.095 58.638 162.11 58.8446 162.126 59.0482Z" fill="white"/>
<path d="M228.911 12.339C228.904 12.3424 228.897 12.3445 228.889 12.3451C228.216 12.4685 227.539 12.5981 226.869 12.7369C221.367 13.8704 215.981 15.511 210.78 17.6379C205.592 19.7617 200.602 22.3421 195.868 25.3487C191.128 28.3538 186.659 31.7677 182.51 35.5517C178.361 39.3303 174.555 43.4713 171.137 47.9261C168.582 51.2638 166.26 54.7738 164.185 58.4313C164.069 58.6349 163.955 58.8415 163.841 59.0482H162.787C162.897 58.8415 163.011 58.6349 163.128 58.4313C165.637 53.9497 168.515 49.6858 171.73 45.6838C175.286 41.2546 179.228 37.1517 183.509 33.4235C187.763 29.7163 192.328 26.3852 197.154 23.4673C202 20.5376 207.094 18.0439 212.379 16.0155C217.507 14.0489 222.801 12.55 228.197 11.5371C228.348 11.5093 228.495 11.4815 228.646 11.4538C229.221 11.3489 229.467 12.2187 228.911 12.339Z" fill="white"/>
<path d="M61.2773 60.8818C62.9174 57.7757 63.1882 53.7301 61.1487 50.8718C59.9347 49.1704 58.0391 48.0536 56.0502 47.4236C54.0613 46.7937 51.9631 46.6085 49.8829 46.4554C47.8238 46.3039 45.728 46.1826 43.7166 46.6498C41.7051 47.117 39.7568 48.2584 38.7769 50.0815C37.1216 53.1613 38.6295 57.1105 37.4137 60.3901C36.298 63.3997 33.1225 65.1592 30.0009 65.8693C26.8793 66.5793 23.6212 66.5038 20.4981 67.207C17.3749 67.9101 14.1942 69.6533 13.0587 72.6555C12.2375 74.8265 12.6455 77.3272 13.7275 79.3798C14.8095 81.4325 16.5041 83.0943 18.3028 84.5557C20.9862 86.7358 24.1256 88.603 27.5734 88.792C31.2064 88.9911 34.7586 87.2562 37.3734 84.7182C39.9883 82.1802 41.7684 78.9004 43.1907 75.5408C44.0929 73.4096 44.9454 71.1159 46.7535 69.6766C48.0822 68.6191 49.772 68.1558 51.4109 67.7176L53.2666 67.2214C54.9482 66.78 56.5219 65.9981 57.8911 64.9239C59.2602 63.8496 60.3957 62.5056 61.2278 60.9747C61.2444 60.9438 61.2609 60.9129 61.2773 60.8818Z" fill="#2F2E41"/>
<path d="M46.642 163.058H42.873L41.0796 148.473H46.643L46.642 163.058Z" fill="#FFB8B8"/>
<path d="M40.1805 161.978H47.4499V166.569H35.6035C35.6035 165.966 35.7219 165.369 35.9519 164.812C36.1819 164.255 36.5191 163.749 36.9441 163.322C37.3691 162.896 37.8737 162.558 38.429 162.327C38.9843 162.096 39.5795 161.978 40.1805 161.978Z" fill="#2F2E41"/>
<path d="M78.0024 163.058H74.2333L72.4399 148.473H78.0033L78.0024 163.058Z" fill="#FFB8B8"/>
<path d="M71.5409 161.978H78.8103V166.569H66.9639C66.9639 165.966 67.0823 165.369 67.3123 164.812C67.5423 164.255 67.8794 163.749 68.3044 163.322C68.7295 162.896 69.234 162.558 69.7893 162.327C70.3446 162.096 70.9398 161.978 71.5409 161.978Z" fill="#2F2E41"/>
<path d="M53.8878 151.466C53.8353 151.466 53.7827 151.463 53.7304 151.457L38.3955 149.809C38.1918 149.787 37.9951 149.722 37.8185 149.618C37.6419 149.514 37.4894 149.373 37.3712 149.205C37.2531 149.037 37.1719 148.846 37.133 148.644C37.0942 148.443 37.0987 148.235 37.1462 148.035L50.7241 96.2273C50.7877 95.9637 50.9234 95.7232 51.116 95.5329C51.3086 95.3425 51.5504 95.21 51.8141 95.1502L64.4099 91.6278C64.6624 91.5722 64.9252 91.5852 65.1711 91.6656C65.4169 91.7459 65.6369 91.8907 65.8083 92.0849C73.9068 101.249 80.0097 121.562 84.6328 147.167C84.6677 147.36 84.663 147.558 84.619 147.749C84.575 147.941 84.4927 148.121 84.377 148.28C84.2613 148.438 84.1147 148.571 83.9461 148.671C83.7775 148.771 83.5904 148.835 83.3963 148.86L70.8314 150.469C70.475 150.516 70.1141 150.427 69.8199 150.22C69.5257 150.013 69.3194 149.702 69.2416 149.351L63.1283 122.008C63.0721 121.757 62.9314 121.532 62.7298 121.372C62.5281 121.212 62.2779 121.126 62.0208 121.129C61.7637 121.132 61.5155 121.224 61.3176 121.388C61.1197 121.553 60.9843 121.781 60.9338 122.034L55.2981 150.302C55.2343 150.63 55.0587 150.926 54.8013 151.138C54.544 151.35 54.221 151.466 53.8878 151.466Z" fill="#2F2E41"/>
<path d="M51.5553 67.9958C55.7258 67.9958 59.1066 64.6042 59.1066 60.4204C59.1066 56.2366 55.7258 52.8449 51.5553 52.8449C47.3848 52.8449 44.0039 56.2366 44.0039 60.4204C44.0039 64.6042 47.3848 67.9958 51.5553 67.9958Z" fill="#FFB8B8"/>
<path d="M51.3446 96.373C51.0271 96.3727 50.7187 96.2672 50.4673 96.0727C50.2158 95.8783 50.0356 95.6059 49.9545 95.298L45.4116 78.177C45.0837 76.9467 45.2195 75.6384 45.793 74.5023C46.3665 73.3662 47.3374 72.4821 48.52 72.0192C52.1769 70.5873 55.6608 70.056 58.8751 70.4397C61.732 70.7813 65.2562 87.7485 65.023 88.1105L66.1504 91.5031C66.2143 91.6955 66.2372 91.8993 66.2176 92.1011C66.198 92.303 66.1363 92.4985 66.0365 92.6748C65.9367 92.8512 65.8011 93.0046 65.6384 93.125C65.4757 93.2454 65.2896 93.3301 65.0921 93.3737L51.658 96.3385C51.5551 96.3613 51.45 96.3729 51.3446 96.373Z" fill="#CCCCCC"/>
<path d="M55.4159 113.882C55.4806 113.545 55.4709 113.198 55.3874 112.865C55.3039 112.532 55.1487 112.222 54.9327 111.956C54.7168 111.69 54.4453 111.474 54.1373 111.325C53.8294 111.175 53.4926 111.095 53.1505 111.091L50.5332 103.173L47.8582 106.577L50.7537 113.574C50.7839 114.151 51.024 114.697 51.4285 115.108C51.833 115.519 52.3738 115.767 52.9485 115.805C53.5232 115.843 54.0918 115.668 54.5465 115.314C55.0013 114.959 55.3106 114.45 55.4159 113.882Z" fill="#FFB8B8"/>
<path d="M89.0655 94.8539C88.9088 94.5489 88.6874 94.282 88.4168 94.0721C88.1461 93.8622 87.8329 93.7144 87.4992 93.6391C87.1655 93.5637 86.8194 93.5627 86.4852 93.6361C86.1511 93.7095 85.837 93.8555 85.5652 94.0638L78.6304 89.4614L78.624 93.7961L85.2104 97.5021C85.5895 97.937 86.1145 98.2173 86.6859 98.2898C87.2572 98.3624 87.8353 98.2222 88.3104 97.8958C88.7856 97.5694 89.125 97.0794 89.2641 96.5188C89.4033 95.9582 89.3326 95.3658 89.0655 94.8539Z" fill="#FFB8B8"/>
<path d="M49.9285 110.224C49.6252 110.224 49.3296 110.128 49.0837 109.95C48.8379 109.772 48.6543 109.52 48.5591 109.231L42.4233 96.2104C42.1717 95.4473 42.0435 94.6487 42.0437 93.845L43.8884 76.9208C43.8883 75.9733 44.2488 75.0614 44.8961 74.3714C45.5435 73.6814 46.429 73.2652 47.3718 73.2079C48.3146 73.1506 49.2437 73.4565 49.9694 74.0631C50.695 74.6697 51.1626 75.5312 51.2765 76.4719L48.4542 95.7894L52.958 107.646C53.0292 107.961 52.9929 108.291 52.8547 108.584C52.7165 108.876 52.4846 109.113 52.196 109.257L50.5732 110.071C50.3731 110.172 50.1523 110.224 49.9285 110.224Z" fill="#CCCCCC"/>
<path d="M82.698 96.5633C82.4721 96.5635 82.2494 96.5102 82.0478 96.4079L69.8457 90.2248C69.1303 89.8626 68.4775 89.3878 67.9121 88.8182L56.0023 76.8317C55.3355 76.1606 54.9492 75.2595 54.9222 74.3124C54.8952 73.3652 55.2295 72.4435 55.857 71.7352C56.4844 71.027 57.3577 70.5857 58.2985 70.5014C59.2392 70.4172 60.1766 70.6963 60.9192 71.2818L73.8207 85.6557L84.0475 92.1698C84.32 92.3426 84.5267 92.6023 84.6344 92.9071C84.7422 93.2119 84.7448 93.5442 84.6418 93.8507L84.0654 95.5766C83.9692 95.864 83.7855 96.1139 83.5402 96.291C83.2948 96.468 83.0003 96.5633 82.698 96.5633Z" fill="#CCCCCC"/>
<path d="M42.9661 56.5037C44.2488 58.1871 46.0927 59.3511 48.1605 59.7828C50.2565 60.2173 52.438 59.9037 54.3281 58.8963C55.8489 58.0719 57.0659 56.8347 58.2579 55.6166C58.7554 55.1082 59.2852 54.522 59.2602 53.8285C59.2214 52.754 57.9338 52.1665 56.8287 51.9322C53.2011 51.173 49.4266 51.5989 46.0578 53.1474C44.5574 53.8465 42.9942 55.1114 43.2195 56.6838" fill="#2F2E41"/>
<path d="M241.273 58.4313H93.081C91.6953 58.4333 90.3671 58.9863 89.3873 59.9692C88.4075 60.9521 87.8562 62.2847 87.8542 63.6747V121.043C87.8562 122.433 88.4075 123.766 89.3873 124.749C90.3671 125.732 91.6953 126.285 93.081 126.287H241.273C242.659 126.285 243.987 125.732 244.967 124.749C245.947 123.766 246.498 122.433 246.5 121.043V63.6747C246.498 62.2847 245.947 60.9521 244.967 59.9692C243.987 58.9863 242.659 58.4333 241.273 58.4313ZM245.885 121.043C245.884 122.27 245.397 123.446 244.533 124.313C243.668 125.18 242.496 125.668 241.273 125.67H93.081C91.8583 125.668 90.6861 125.18 89.8216 124.313C88.957 123.446 88.4706 122.27 88.4692 121.043V63.6747C88.4706 62.4481 88.957 61.2722 89.8216 60.4049C90.6861 59.5376 91.8583 59.0497 93.081 59.0482H241.273C242.496 59.0497 243.668 59.5376 244.533 60.4049C245.397 61.2722 245.884 62.4481 245.885 63.6747V121.043Z" fill="#3F3D56"/>
<path d="M119.987 110.248C116.46 110.248 113.013 109.199 110.08 107.233C107.148 105.268 104.862 102.474 103.512 99.2049C102.163 95.9361 101.81 92.3392 102.498 88.869C103.186 85.3989 104.884 82.2113 107.378 79.7095C109.872 77.2076 113.049 75.5039 116.508 74.8136C119.968 74.1234 123.553 74.4776 126.811 75.8316C130.07 77.1856 132.855 79.4785 134.814 82.4204C136.774 85.3622 137.82 88.8209 137.82 92.359C137.814 97.1019 135.934 101.649 132.591 105.003C129.248 108.356 124.715 110.243 119.987 110.248ZM119.987 75.0868C116.582 75.0868 113.253 76.0997 110.422 77.9977C107.59 79.8956 105.384 82.5931 104.081 85.7492C102.777 88.9053 102.436 92.3782 103.101 95.7287C103.765 99.0792 105.405 102.157 107.813 104.572C110.221 106.988 113.289 108.633 116.628 109.299C119.968 109.966 123.43 109.624 126.576 108.317C129.722 107.009 132.411 104.795 134.303 101.955C136.195 99.1146 137.205 95.7752 137.205 92.359C137.2 87.7797 135.384 83.3895 132.156 80.1514C128.928 76.9134 124.552 75.0919 119.987 75.0868Z" fill="#3F3D56"/>
<path d="M228.049 80.947H157.027C156.034 80.9476 155.08 81.3336 154.365 82.0241C153.65 82.7147 153.229 83.6562 153.19 84.6513C153.185 84.7015 153.183 84.752 153.184 84.8024C153.185 85.8245 153.591 86.8043 154.311 87.527C155.031 88.2497 156.008 88.6564 157.027 88.6578H228.049C229.068 88.6578 230.045 88.2516 230.766 87.5286C231.487 86.8056 231.892 85.8249 231.892 84.8024C231.892 83.7799 231.487 82.7992 230.766 82.0762C230.045 81.3532 229.068 80.947 228.049 80.947Z" fill="#007DCF"/>
<path d="M228.049 96.0602H157.027C156.034 96.0608 155.08 96.4468 154.365 97.1374C153.65 97.8279 153.229 98.7694 153.19 99.7645C153.185 99.8147 153.183 99.8652 153.184 99.9157C153.185 100.938 153.591 101.918 154.311 102.64C155.031 103.363 156.008 103.77 157.027 103.771H228.049C229.068 103.771 230.045 103.365 230.766 102.642C231.487 101.919 231.892 100.938 231.892 99.9157C231.892 98.8931 231.487 97.9125 230.766 97.1895C230.045 96.4664 229.068 96.0602 228.049 96.0602Z" fill="#007DCF"/>
<path d="M117.998 100.175C117.5 100.176 117.016 100.015 116.618 99.7154L116.593 99.6968L111.396 95.705C111.155 95.52 110.953 95.2892 110.801 95.0259C110.65 94.7626 110.551 94.4718 110.511 94.1703C110.471 93.8687 110.491 93.5622 110.569 93.2684C110.648 92.9745 110.783 92.6989 110.967 92.4575C111.152 92.216 111.382 92.0134 111.644 91.8611C111.907 91.7088 112.197 91.6099 112.497 91.57C112.798 91.53 113.103 91.5499 113.396 91.6284C113.689 91.707 113.964 91.8426 114.205 92.0276L117.571 94.6171L125.526 84.2093C125.711 83.9679 125.941 83.7653 126.203 83.6131C126.466 83.4609 126.756 83.3621 127.056 83.3223C127.357 83.2825 127.662 83.3025 127.955 83.3811C128.248 83.4597 128.523 83.5955 128.763 83.7806L128.714 83.8479L128.765 83.7815C129.25 84.1558 129.568 84.7079 129.648 85.3167C129.728 85.9256 129.564 86.5414 129.192 87.0292L119.835 99.2713C119.618 99.5534 119.34 99.7817 119.021 99.9385C118.703 100.095 118.353 100.176 117.998 100.175Z" fill="#007DCF"/>
<path d="M117.947 167H0.807453C0.725911 167 0.647709 166.968 0.590051 166.91C0.532392 166.852 0.5 166.773 0.5 166.692C0.5 166.61 0.532392 166.531 0.590051 166.473C0.647709 166.416 0.725911 166.383 0.807453 166.383H117.947C118.029 166.383 118.107 166.416 118.164 166.473C118.222 166.531 118.255 166.61 118.255 166.692C118.255 166.773 118.222 166.852 118.164 166.91C118.107 166.968 118.029 167 117.947 167Z" fill="#3F3D56"/>
<path d="M210.569 44.5361C204.147 43.6498 197.624 43.7974 191.248 44.9731C184.89 46.1391 178.752 48.292 173.055 51.3541C169.853 53.08 166.814 55.094 163.976 57.3715C163.512 57.7431 164.169 58.394 164.628 58.0257C169.609 54.0512 175.192 50.9028 181.165 48.7001C187.091 46.5013 193.32 45.2336 199.632 44.9418C203.203 44.7772 206.782 44.9401 210.324 45.4283C210.442 45.4566 210.566 45.439 210.671 45.379C210.777 45.319 210.855 45.2212 210.892 45.1052C210.923 44.9869 210.907 44.8608 210.847 44.7543C210.787 44.6477 210.687 44.5693 210.569 44.5361Z" fill="white"/>
</g>
<defs>
<clipPath id="clip0_7379_9526">
<rect width="246" height="167" fill="white" transform="translate(0.5)"/>
</clipPath>
</defs>
</svg>
